%TF.GenerationSoftware,KiCad,Pcbnew,8.0.0*%
%TF.CreationDate,2024-03-29T20:31:36+01:00*%
%TF.ProjectId,nucleo_expansion,6e75636c-656f-45f6-9578-70616e73696f,Cyril*%
%TF.SameCoordinates,Original*%
%TF.FileFunction,Legend,Bot*%
%TF.FilePolarity,Positive*%
%FSLAX46Y46*%
G04 Gerber Fmt 4.6, Leading zero omitted, Abs format (unit mm)*
G04 Created by KiCad (PCBNEW 8.0.0) date 2024-03-29 20:31:36*
%MOMM*%
%LPD*%
G01*
G04 APERTURE LIST*
%ADD10C,0.150000*%
%ADD11C,0.000000*%
G04 APERTURE END LIST*
D10*
X169663220Y-118869819D02*
X169663220Y-117869819D01*
X169663220Y-117869819D02*
X169282268Y-117869819D01*
X169282268Y-117869819D02*
X169187030Y-117917438D01*
X169187030Y-117917438D02*
X169139411Y-117965057D01*
X169139411Y-117965057D02*
X169091792Y-118060295D01*
X169091792Y-118060295D02*
X169091792Y-118203152D01*
X169091792Y-118203152D02*
X169139411Y-118298390D01*
X169139411Y-118298390D02*
X169187030Y-118346009D01*
X169187030Y-118346009D02*
X169282268Y-118393628D01*
X169282268Y-118393628D02*
X169663220Y-118393628D01*
X168758458Y-117869819D02*
X168520363Y-118869819D01*
X168520363Y-118869819D02*
X168329887Y-118155533D01*
X168329887Y-118155533D02*
X168139411Y-118869819D01*
X168139411Y-118869819D02*
X167901316Y-117869819D01*
X167520363Y-118869819D02*
X167520363Y-117869819D01*
X167520363Y-117869819D02*
X167187030Y-118584104D01*
X167187030Y-118584104D02*
X166853697Y-117869819D01*
X166853697Y-117869819D02*
X166853697Y-118869819D01*
X167687030Y-103869819D02*
X168163220Y-103869819D01*
X168163220Y-103869819D02*
X168210839Y-104346009D01*
X168210839Y-104346009D02*
X168163220Y-104298390D01*
X168163220Y-104298390D02*
X168067982Y-104250771D01*
X168067982Y-104250771D02*
X167829887Y-104250771D01*
X167829887Y-104250771D02*
X167734649Y-104298390D01*
X167734649Y-104298390D02*
X167687030Y-104346009D01*
X167687030Y-104346009D02*
X167639411Y-104441247D01*
X167639411Y-104441247D02*
X167639411Y-104679342D01*
X167639411Y-104679342D02*
X167687030Y-104774580D01*
X167687030Y-104774580D02*
X167734649Y-104822200D01*
X167734649Y-104822200D02*
X167829887Y-104869819D01*
X167829887Y-104869819D02*
X168067982Y-104869819D01*
X168067982Y-104869819D02*
X168163220Y-104822200D01*
X168163220Y-104822200D02*
X168210839Y-104774580D01*
X167353696Y-103869819D02*
X167020363Y-104869819D01*
X167020363Y-104869819D02*
X166687030Y-103869819D01*
X156522200Y-128489160D02*
X156569819Y-128632017D01*
X156569819Y-128632017D02*
X156569819Y-128870112D01*
X156569819Y-128870112D02*
X156522200Y-128965350D01*
X156522200Y-128965350D02*
X156474580Y-129012969D01*
X156474580Y-129012969D02*
X156379342Y-129060588D01*
X156379342Y-129060588D02*
X156284104Y-129060588D01*
X156284104Y-129060588D02*
X156188866Y-129012969D01*
X156188866Y-129012969D02*
X156141247Y-128965350D01*
X156141247Y-128965350D02*
X156093628Y-128870112D01*
X156093628Y-128870112D02*
X156046009Y-128679636D01*
X156046009Y-128679636D02*
X155998390Y-128584398D01*
X155998390Y-128584398D02*
X155950771Y-128536779D01*
X155950771Y-128536779D02*
X155855533Y-128489160D01*
X155855533Y-128489160D02*
X155760295Y-128489160D01*
X155760295Y-128489160D02*
X155665057Y-128536779D01*
X155665057Y-128536779D02*
X155617438Y-128584398D01*
X155617438Y-128584398D02*
X155569819Y-128679636D01*
X155569819Y-128679636D02*
X155569819Y-128917731D01*
X155569819Y-128917731D02*
X155617438Y-129060588D01*
X156474580Y-130060588D02*
X156522200Y-130012969D01*
X156522200Y-130012969D02*
X156569819Y-129870112D01*
X156569819Y-129870112D02*
X156569819Y-129774874D01*
X156569819Y-129774874D02*
X156522200Y-129632017D01*
X156522200Y-129632017D02*
X156426961Y-129536779D01*
X156426961Y-129536779D02*
X156331723Y-129489160D01*
X156331723Y-129489160D02*
X156141247Y-129441541D01*
X156141247Y-129441541D02*
X155998390Y-129441541D01*
X155998390Y-129441541D02*
X155807914Y-129489160D01*
X155807914Y-129489160D02*
X155712676Y-129536779D01*
X155712676Y-129536779D02*
X155617438Y-129632017D01*
X155617438Y-129632017D02*
X155569819Y-129774874D01*
X155569819Y-129774874D02*
X155569819Y-129870112D01*
X155569819Y-129870112D02*
X155617438Y-130012969D01*
X155617438Y-130012969D02*
X155665057Y-130060588D01*
X156569819Y-130489160D02*
X155569819Y-130489160D01*
X156569819Y-131060588D02*
X155998390Y-130632017D01*
X155569819Y-131060588D02*
X156141247Y-130489160D01*
X168306077Y-94119819D02*
X167734649Y-94119819D01*
X168020363Y-95119819D02*
X168020363Y-94119819D01*
X167496553Y-94119819D02*
X166829887Y-95119819D01*
X166829887Y-94119819D02*
X167496553Y-95119819D01*
X168889411Y-108917438D02*
X168984649Y-108869819D01*
X168984649Y-108869819D02*
X169127506Y-108869819D01*
X169127506Y-108869819D02*
X169270363Y-108917438D01*
X169270363Y-108917438D02*
X169365601Y-109012676D01*
X169365601Y-109012676D02*
X169413220Y-109107914D01*
X169413220Y-109107914D02*
X169460839Y-109298390D01*
X169460839Y-109298390D02*
X169460839Y-109441247D01*
X169460839Y-109441247D02*
X169413220Y-109631723D01*
X169413220Y-109631723D02*
X169365601Y-109726961D01*
X169365601Y-109726961D02*
X169270363Y-109822200D01*
X169270363Y-109822200D02*
X169127506Y-109869819D01*
X169127506Y-109869819D02*
X169032268Y-109869819D01*
X169032268Y-109869819D02*
X168889411Y-109822200D01*
X168889411Y-109822200D02*
X168841792Y-109774580D01*
X168841792Y-109774580D02*
X168841792Y-109441247D01*
X168841792Y-109441247D02*
X169032268Y-109441247D01*
X168413220Y-109869819D02*
X168413220Y-108869819D01*
X168413220Y-108869819D02*
X167841792Y-109869819D01*
X167841792Y-109869819D02*
X167841792Y-108869819D01*
X167365601Y-109869819D02*
X167365601Y-108869819D01*
X167365601Y-108869819D02*
X167127506Y-108869819D01*
X167127506Y-108869819D02*
X166984649Y-108917438D01*
X166984649Y-108917438D02*
X166889411Y-109012676D01*
X166889411Y-109012676D02*
X166841792Y-109107914D01*
X166841792Y-109107914D02*
X166794173Y-109298390D01*
X166794173Y-109298390D02*
X166794173Y-109441247D01*
X166794173Y-109441247D02*
X166841792Y-109631723D01*
X166841792Y-109631723D02*
X166889411Y-109726961D01*
X166889411Y-109726961D02*
X166984649Y-109822200D01*
X166984649Y-109822200D02*
X167127506Y-109869819D01*
X167127506Y-109869819D02*
X167365601Y-109869819D01*
X93937030Y-104369819D02*
X94413220Y-104369819D01*
X94413220Y-104369819D02*
X94460839Y-104846009D01*
X94460839Y-104846009D02*
X94413220Y-104798390D01*
X94413220Y-104798390D02*
X94317982Y-104750771D01*
X94317982Y-104750771D02*
X94079887Y-104750771D01*
X94079887Y-104750771D02*
X93984649Y-104798390D01*
X93984649Y-104798390D02*
X93937030Y-104846009D01*
X93937030Y-104846009D02*
X93889411Y-104941247D01*
X93889411Y-104941247D02*
X93889411Y-105179342D01*
X93889411Y-105179342D02*
X93937030Y-105274580D01*
X93937030Y-105274580D02*
X93984649Y-105322200D01*
X93984649Y-105322200D02*
X94079887Y-105369819D01*
X94079887Y-105369819D02*
X94317982Y-105369819D01*
X94317982Y-105369819D02*
X94413220Y-105322200D01*
X94413220Y-105322200D02*
X94460839Y-105274580D01*
X93603696Y-104369819D02*
X93270363Y-105369819D01*
X93270363Y-105369819D02*
X92937030Y-104369819D01*
X115677800Y-130910839D02*
X115630180Y-130767982D01*
X115630180Y-130767982D02*
X115630180Y-130529887D01*
X115630180Y-130529887D02*
X115677800Y-130434649D01*
X115677800Y-130434649D02*
X115725419Y-130387030D01*
X115725419Y-130387030D02*
X115820657Y-130339411D01*
X115820657Y-130339411D02*
X115915895Y-130339411D01*
X115915895Y-130339411D02*
X116011133Y-130387030D01*
X116011133Y-130387030D02*
X116058752Y-130434649D01*
X116058752Y-130434649D02*
X116106371Y-130529887D01*
X116106371Y-130529887D02*
X116153990Y-130720363D01*
X116153990Y-130720363D02*
X116201609Y-130815601D01*
X116201609Y-130815601D02*
X116249228Y-130863220D01*
X116249228Y-130863220D02*
X116344466Y-130910839D01*
X116344466Y-130910839D02*
X116439704Y-130910839D01*
X116439704Y-130910839D02*
X116534942Y-130863220D01*
X116534942Y-130863220D02*
X116582561Y-130815601D01*
X116582561Y-130815601D02*
X116630180Y-130720363D01*
X116630180Y-130720363D02*
X116630180Y-130482268D01*
X116630180Y-130482268D02*
X116582561Y-130339411D01*
X115725419Y-129339411D02*
X115677800Y-129387030D01*
X115677800Y-129387030D02*
X115630180Y-129529887D01*
X115630180Y-129529887D02*
X115630180Y-129625125D01*
X115630180Y-129625125D02*
X115677800Y-129767982D01*
X115677800Y-129767982D02*
X115773038Y-129863220D01*
X115773038Y-129863220D02*
X115868276Y-129910839D01*
X115868276Y-129910839D02*
X116058752Y-129958458D01*
X116058752Y-129958458D02*
X116201609Y-129958458D01*
X116201609Y-129958458D02*
X116392085Y-129910839D01*
X116392085Y-129910839D02*
X116487323Y-129863220D01*
X116487323Y-129863220D02*
X116582561Y-129767982D01*
X116582561Y-129767982D02*
X116630180Y-129625125D01*
X116630180Y-129625125D02*
X116630180Y-129529887D01*
X116630180Y-129529887D02*
X116582561Y-129387030D01*
X116582561Y-129387030D02*
X116534942Y-129339411D01*
X115630180Y-128910839D02*
X116630180Y-128910839D01*
X115630180Y-128339411D02*
X116201609Y-128767982D01*
X116630180Y-128339411D02*
X116058752Y-128910839D01*
X94663220Y-89369819D02*
X94663220Y-88369819D01*
X94663220Y-88369819D02*
X94282268Y-88369819D01*
X94282268Y-88369819D02*
X94187030Y-88417438D01*
X94187030Y-88417438D02*
X94139411Y-88465057D01*
X94139411Y-88465057D02*
X94091792Y-88560295D01*
X94091792Y-88560295D02*
X94091792Y-88703152D01*
X94091792Y-88703152D02*
X94139411Y-88798390D01*
X94139411Y-88798390D02*
X94187030Y-88846009D01*
X94187030Y-88846009D02*
X94282268Y-88893628D01*
X94282268Y-88893628D02*
X94663220Y-88893628D01*
X93758458Y-88369819D02*
X93520363Y-89369819D01*
X93520363Y-89369819D02*
X93329887Y-88655533D01*
X93329887Y-88655533D02*
X93139411Y-89369819D01*
X93139411Y-89369819D02*
X92901316Y-88369819D01*
X92520363Y-89369819D02*
X92520363Y-88369819D01*
X92520363Y-88369819D02*
X92187030Y-89084104D01*
X92187030Y-89084104D02*
X91853697Y-88369819D01*
X91853697Y-88369819D02*
X91853697Y-89369819D01*
X136591792Y-78774580D02*
X136639411Y-78822200D01*
X136639411Y-78822200D02*
X136782268Y-78869819D01*
X136782268Y-78869819D02*
X136877506Y-78869819D01*
X136877506Y-78869819D02*
X137020363Y-78822200D01*
X137020363Y-78822200D02*
X137115601Y-78726961D01*
X137115601Y-78726961D02*
X137163220Y-78631723D01*
X137163220Y-78631723D02*
X137210839Y-78441247D01*
X137210839Y-78441247D02*
X137210839Y-78298390D01*
X137210839Y-78298390D02*
X137163220Y-78107914D01*
X137163220Y-78107914D02*
X137115601Y-78012676D01*
X137115601Y-78012676D02*
X137020363Y-77917438D01*
X137020363Y-77917438D02*
X136877506Y-77869819D01*
X136877506Y-77869819D02*
X136782268Y-77869819D01*
X136782268Y-77869819D02*
X136639411Y-77917438D01*
X136639411Y-77917438D02*
X136591792Y-77965057D01*
X136163220Y-78869819D02*
X136163220Y-77869819D01*
X136163220Y-77869819D02*
X135925125Y-77869819D01*
X135925125Y-77869819D02*
X135782268Y-77917438D01*
X135782268Y-77917438D02*
X135687030Y-78012676D01*
X135687030Y-78012676D02*
X135639411Y-78107914D01*
X135639411Y-78107914D02*
X135591792Y-78298390D01*
X135591792Y-78298390D02*
X135591792Y-78441247D01*
X135591792Y-78441247D02*
X135639411Y-78631723D01*
X135639411Y-78631723D02*
X135687030Y-78726961D01*
X135687030Y-78726961D02*
X135782268Y-78822200D01*
X135782268Y-78822200D02*
X135925125Y-78869819D01*
X135925125Y-78869819D02*
X136163220Y-78869819D01*
X134591792Y-78869819D02*
X134925125Y-78393628D01*
X135163220Y-78869819D02*
X135163220Y-77869819D01*
X135163220Y-77869819D02*
X134782268Y-77869819D01*
X134782268Y-77869819D02*
X134687030Y-77917438D01*
X134687030Y-77917438D02*
X134639411Y-77965057D01*
X134639411Y-77965057D02*
X134591792Y-78060295D01*
X134591792Y-78060295D02*
X134591792Y-78203152D01*
X134591792Y-78203152D02*
X134639411Y-78298390D01*
X134639411Y-78298390D02*
X134687030Y-78346009D01*
X134687030Y-78346009D02*
X134782268Y-78393628D01*
X134782268Y-78393628D02*
X135163220Y-78393628D01*
X133448934Y-77965057D02*
X133401315Y-77917438D01*
X133401315Y-77917438D02*
X133306077Y-77869819D01*
X133306077Y-77869819D02*
X133067982Y-77869819D01*
X133067982Y-77869819D02*
X132972744Y-77917438D01*
X132972744Y-77917438D02*
X132925125Y-77965057D01*
X132925125Y-77965057D02*
X132877506Y-78060295D01*
X132877506Y-78060295D02*
X132877506Y-78155533D01*
X132877506Y-78155533D02*
X132925125Y-78298390D01*
X132925125Y-78298390D02*
X133496553Y-78869819D01*
X133496553Y-78869819D02*
X132877506Y-78869819D01*
X132258458Y-77869819D02*
X132163220Y-77869819D01*
X132163220Y-77869819D02*
X132067982Y-77917438D01*
X132067982Y-77917438D02*
X132020363Y-77965057D01*
X132020363Y-77965057D02*
X131972744Y-78060295D01*
X131972744Y-78060295D02*
X131925125Y-78250771D01*
X131925125Y-78250771D02*
X131925125Y-78488866D01*
X131925125Y-78488866D02*
X131972744Y-78679342D01*
X131972744Y-78679342D02*
X132020363Y-78774580D01*
X132020363Y-78774580D02*
X132067982Y-78822200D01*
X132067982Y-78822200D02*
X132163220Y-78869819D01*
X132163220Y-78869819D02*
X132258458Y-78869819D01*
X132258458Y-78869819D02*
X132353696Y-78822200D01*
X132353696Y-78822200D02*
X132401315Y-78774580D01*
X132401315Y-78774580D02*
X132448934Y-78679342D01*
X132448934Y-78679342D02*
X132496553Y-78488866D01*
X132496553Y-78488866D02*
X132496553Y-78250771D01*
X132496553Y-78250771D02*
X132448934Y-78060295D01*
X132448934Y-78060295D02*
X132401315Y-77965057D01*
X132401315Y-77965057D02*
X132353696Y-77917438D01*
X132353696Y-77917438D02*
X132258458Y-77869819D01*
X131544172Y-77965057D02*
X131496553Y-77917438D01*
X131496553Y-77917438D02*
X131401315Y-77869819D01*
X131401315Y-77869819D02*
X131163220Y-77869819D01*
X131163220Y-77869819D02*
X131067982Y-77917438D01*
X131067982Y-77917438D02*
X131020363Y-77965057D01*
X131020363Y-77965057D02*
X130972744Y-78060295D01*
X130972744Y-78060295D02*
X130972744Y-78155533D01*
X130972744Y-78155533D02*
X131020363Y-78298390D01*
X131020363Y-78298390D02*
X131591791Y-78869819D01*
X131591791Y-78869819D02*
X130972744Y-78869819D01*
X130115601Y-78203152D02*
X130115601Y-78869819D01*
X130353696Y-77822200D02*
X130591791Y-78536485D01*
X130591791Y-78536485D02*
X129972744Y-78536485D01*
X168889411Y-120417438D02*
X168984649Y-120369819D01*
X168984649Y-120369819D02*
X169127506Y-120369819D01*
X169127506Y-120369819D02*
X169270363Y-120417438D01*
X169270363Y-120417438D02*
X169365601Y-120512676D01*
X169365601Y-120512676D02*
X169413220Y-120607914D01*
X169413220Y-120607914D02*
X169460839Y-120798390D01*
X169460839Y-120798390D02*
X169460839Y-120941247D01*
X169460839Y-120941247D02*
X169413220Y-121131723D01*
X169413220Y-121131723D02*
X169365601Y-121226961D01*
X169365601Y-121226961D02*
X169270363Y-121322200D01*
X169270363Y-121322200D02*
X169127506Y-121369819D01*
X169127506Y-121369819D02*
X169032268Y-121369819D01*
X169032268Y-121369819D02*
X168889411Y-121322200D01*
X168889411Y-121322200D02*
X168841792Y-121274580D01*
X168841792Y-121274580D02*
X168841792Y-120941247D01*
X168841792Y-120941247D02*
X169032268Y-120941247D01*
X168413220Y-121369819D02*
X168413220Y-120369819D01*
X168413220Y-120369819D02*
X167841792Y-121369819D01*
X167841792Y-121369819D02*
X167841792Y-120369819D01*
X167365601Y-121369819D02*
X167365601Y-120369819D01*
X167365601Y-120369819D02*
X167127506Y-120369819D01*
X167127506Y-120369819D02*
X166984649Y-120417438D01*
X166984649Y-120417438D02*
X166889411Y-120512676D01*
X166889411Y-120512676D02*
X166841792Y-120607914D01*
X166841792Y-120607914D02*
X166794173Y-120798390D01*
X166794173Y-120798390D02*
X166794173Y-120941247D01*
X166794173Y-120941247D02*
X166841792Y-121131723D01*
X166841792Y-121131723D02*
X166889411Y-121226961D01*
X166889411Y-121226961D02*
X166984649Y-121322200D01*
X166984649Y-121322200D02*
X167127506Y-121369819D01*
X167127506Y-121369819D02*
X167365601Y-121369819D01*
X94187030Y-91119819D02*
X94663220Y-91119819D01*
X94663220Y-91119819D02*
X94710839Y-91596009D01*
X94710839Y-91596009D02*
X94663220Y-91548390D01*
X94663220Y-91548390D02*
X94567982Y-91500771D01*
X94567982Y-91500771D02*
X94329887Y-91500771D01*
X94329887Y-91500771D02*
X94234649Y-91548390D01*
X94234649Y-91548390D02*
X94187030Y-91596009D01*
X94187030Y-91596009D02*
X94139411Y-91691247D01*
X94139411Y-91691247D02*
X94139411Y-91929342D01*
X94139411Y-91929342D02*
X94187030Y-92024580D01*
X94187030Y-92024580D02*
X94234649Y-92072200D01*
X94234649Y-92072200D02*
X94329887Y-92119819D01*
X94329887Y-92119819D02*
X94567982Y-92119819D01*
X94567982Y-92119819D02*
X94663220Y-92072200D01*
X94663220Y-92072200D02*
X94710839Y-92024580D01*
X93853696Y-91119819D02*
X93520363Y-92119819D01*
X93520363Y-92119819D02*
X93187030Y-91119819D01*
X167841792Y-92369819D02*
X168175125Y-91893628D01*
X168413220Y-92369819D02*
X168413220Y-91369819D01*
X168413220Y-91369819D02*
X168032268Y-91369819D01*
X168032268Y-91369819D02*
X167937030Y-91417438D01*
X167937030Y-91417438D02*
X167889411Y-91465057D01*
X167889411Y-91465057D02*
X167841792Y-91560295D01*
X167841792Y-91560295D02*
X167841792Y-91703152D01*
X167841792Y-91703152D02*
X167889411Y-91798390D01*
X167889411Y-91798390D02*
X167937030Y-91846009D01*
X167937030Y-91846009D02*
X168032268Y-91893628D01*
X168032268Y-91893628D02*
X168413220Y-91893628D01*
X167508458Y-91369819D02*
X166841792Y-92369819D01*
X166841792Y-91369819D02*
X167508458Y-92369819D01*
X153969819Y-127836779D02*
X152969819Y-127836779D01*
X152969819Y-127836779D02*
X153684104Y-128170112D01*
X153684104Y-128170112D02*
X152969819Y-128503445D01*
X152969819Y-128503445D02*
X153969819Y-128503445D01*
X153969819Y-128979636D02*
X152969819Y-128979636D01*
X153922200Y-129408207D02*
X153969819Y-129551064D01*
X153969819Y-129551064D02*
X153969819Y-129789159D01*
X153969819Y-129789159D02*
X153922200Y-129884397D01*
X153922200Y-129884397D02*
X153874580Y-129932016D01*
X153874580Y-129932016D02*
X153779342Y-129979635D01*
X153779342Y-129979635D02*
X153684104Y-129979635D01*
X153684104Y-129979635D02*
X153588866Y-129932016D01*
X153588866Y-129932016D02*
X153541247Y-129884397D01*
X153541247Y-129884397D02*
X153493628Y-129789159D01*
X153493628Y-129789159D02*
X153446009Y-129598683D01*
X153446009Y-129598683D02*
X153398390Y-129503445D01*
X153398390Y-129503445D02*
X153350771Y-129455826D01*
X153350771Y-129455826D02*
X153255533Y-129408207D01*
X153255533Y-129408207D02*
X153160295Y-129408207D01*
X153160295Y-129408207D02*
X153065057Y-129455826D01*
X153065057Y-129455826D02*
X153017438Y-129503445D01*
X153017438Y-129503445D02*
X152969819Y-129598683D01*
X152969819Y-129598683D02*
X152969819Y-129836778D01*
X152969819Y-129836778D02*
X153017438Y-129979635D01*
X152969819Y-130598683D02*
X152969819Y-130789159D01*
X152969819Y-130789159D02*
X153017438Y-130884397D01*
X153017438Y-130884397D02*
X153112676Y-130979635D01*
X153112676Y-130979635D02*
X153303152Y-131027254D01*
X153303152Y-131027254D02*
X153636485Y-131027254D01*
X153636485Y-131027254D02*
X153826961Y-130979635D01*
X153826961Y-130979635D02*
X153922200Y-130884397D01*
X153922200Y-130884397D02*
X153969819Y-130789159D01*
X153969819Y-130789159D02*
X153969819Y-130598683D01*
X153969819Y-130598683D02*
X153922200Y-130503445D01*
X153922200Y-130503445D02*
X153826961Y-130408207D01*
X153826961Y-130408207D02*
X153636485Y-130360588D01*
X153636485Y-130360588D02*
X153303152Y-130360588D01*
X153303152Y-130360588D02*
X153112676Y-130408207D01*
X153112676Y-130408207D02*
X153017438Y-130503445D01*
X153017438Y-130503445D02*
X152969819Y-130598683D01*
X167937030Y-115369819D02*
X168413220Y-115369819D01*
X168413220Y-115369819D02*
X168460839Y-115846009D01*
X168460839Y-115846009D02*
X168413220Y-115798390D01*
X168413220Y-115798390D02*
X168317982Y-115750771D01*
X168317982Y-115750771D02*
X168079887Y-115750771D01*
X168079887Y-115750771D02*
X167984649Y-115798390D01*
X167984649Y-115798390D02*
X167937030Y-115846009D01*
X167937030Y-115846009D02*
X167889411Y-115941247D01*
X167889411Y-115941247D02*
X167889411Y-116179342D01*
X167889411Y-116179342D02*
X167937030Y-116274580D01*
X167937030Y-116274580D02*
X167984649Y-116322200D01*
X167984649Y-116322200D02*
X168079887Y-116369819D01*
X168079887Y-116369819D02*
X168317982Y-116369819D01*
X168317982Y-116369819D02*
X168413220Y-116322200D01*
X168413220Y-116322200D02*
X168460839Y-116274580D01*
X167603696Y-115369819D02*
X167270363Y-116369819D01*
X167270363Y-116369819D02*
X166937030Y-115369819D01*
X93889411Y-99167438D02*
X93984649Y-99119819D01*
X93984649Y-99119819D02*
X94127506Y-99119819D01*
X94127506Y-99119819D02*
X94270363Y-99167438D01*
X94270363Y-99167438D02*
X94365601Y-99262676D01*
X94365601Y-99262676D02*
X94413220Y-99357914D01*
X94413220Y-99357914D02*
X94460839Y-99548390D01*
X94460839Y-99548390D02*
X94460839Y-99691247D01*
X94460839Y-99691247D02*
X94413220Y-99881723D01*
X94413220Y-99881723D02*
X94365601Y-99976961D01*
X94365601Y-99976961D02*
X94270363Y-100072200D01*
X94270363Y-100072200D02*
X94127506Y-100119819D01*
X94127506Y-100119819D02*
X94032268Y-100119819D01*
X94032268Y-100119819D02*
X93889411Y-100072200D01*
X93889411Y-100072200D02*
X93841792Y-100024580D01*
X93841792Y-100024580D02*
X93841792Y-99691247D01*
X93841792Y-99691247D02*
X94032268Y-99691247D01*
X93413220Y-100119819D02*
X93413220Y-99119819D01*
X93413220Y-99119819D02*
X92841792Y-100119819D01*
X92841792Y-100119819D02*
X92841792Y-99119819D01*
X92365601Y-100119819D02*
X92365601Y-99119819D01*
X92365601Y-99119819D02*
X92127506Y-99119819D01*
X92127506Y-99119819D02*
X91984649Y-99167438D01*
X91984649Y-99167438D02*
X91889411Y-99262676D01*
X91889411Y-99262676D02*
X91841792Y-99357914D01*
X91841792Y-99357914D02*
X91794173Y-99548390D01*
X91794173Y-99548390D02*
X91794173Y-99691247D01*
X91794173Y-99691247D02*
X91841792Y-99881723D01*
X91841792Y-99881723D02*
X91889411Y-99976961D01*
X91889411Y-99976961D02*
X91984649Y-100072200D01*
X91984649Y-100072200D02*
X92127506Y-100119819D01*
X92127506Y-100119819D02*
X92365601Y-100119819D01*
X145517438Y-128860588D02*
X145469819Y-128765350D01*
X145469819Y-128765350D02*
X145469819Y-128622493D01*
X145469819Y-128622493D02*
X145517438Y-128479636D01*
X145517438Y-128479636D02*
X145612676Y-128384398D01*
X145612676Y-128384398D02*
X145707914Y-128336779D01*
X145707914Y-128336779D02*
X145898390Y-128289160D01*
X145898390Y-128289160D02*
X146041247Y-128289160D01*
X146041247Y-128289160D02*
X146231723Y-128336779D01*
X146231723Y-128336779D02*
X146326961Y-128384398D01*
X146326961Y-128384398D02*
X146422200Y-128479636D01*
X146422200Y-128479636D02*
X146469819Y-128622493D01*
X146469819Y-128622493D02*
X146469819Y-128717731D01*
X146469819Y-128717731D02*
X146422200Y-128860588D01*
X146422200Y-128860588D02*
X146374580Y-128908207D01*
X146374580Y-128908207D02*
X146041247Y-128908207D01*
X146041247Y-128908207D02*
X146041247Y-128717731D01*
X146469819Y-129336779D02*
X145469819Y-129336779D01*
X145469819Y-129336779D02*
X146469819Y-129908207D01*
X146469819Y-129908207D02*
X145469819Y-129908207D01*
X146469819Y-130384398D02*
X145469819Y-130384398D01*
X145469819Y-130384398D02*
X145469819Y-130622493D01*
X145469819Y-130622493D02*
X145517438Y-130765350D01*
X145517438Y-130765350D02*
X145612676Y-130860588D01*
X145612676Y-130860588D02*
X145707914Y-130908207D01*
X145707914Y-130908207D02*
X145898390Y-130955826D01*
X145898390Y-130955826D02*
X146041247Y-130955826D01*
X146041247Y-130955826D02*
X146231723Y-130908207D01*
X146231723Y-130908207D02*
X146326961Y-130860588D01*
X146326961Y-130860588D02*
X146422200Y-130765350D01*
X146422200Y-130765350D02*
X146469819Y-130622493D01*
X146469819Y-130622493D02*
X146469819Y-130384398D01*
X169663220Y-107369819D02*
X169663220Y-106369819D01*
X169663220Y-106369819D02*
X169282268Y-106369819D01*
X169282268Y-106369819D02*
X169187030Y-106417438D01*
X169187030Y-106417438D02*
X169139411Y-106465057D01*
X169139411Y-106465057D02*
X169091792Y-106560295D01*
X169091792Y-106560295D02*
X169091792Y-106703152D01*
X169091792Y-106703152D02*
X169139411Y-106798390D01*
X169139411Y-106798390D02*
X169187030Y-106846009D01*
X169187030Y-106846009D02*
X169282268Y-106893628D01*
X169282268Y-106893628D02*
X169663220Y-106893628D01*
X168758458Y-106369819D02*
X168520363Y-107369819D01*
X168520363Y-107369819D02*
X168329887Y-106655533D01*
X168329887Y-106655533D02*
X168139411Y-107369819D01*
X168139411Y-107369819D02*
X167901316Y-106369819D01*
X167520363Y-107369819D02*
X167520363Y-106369819D01*
X167520363Y-106369819D02*
X167187030Y-107084104D01*
X167187030Y-107084104D02*
X166853697Y-106369819D01*
X166853697Y-106369819D02*
X166853697Y-107369819D01*
X108125419Y-130341792D02*
X108077800Y-130389411D01*
X108077800Y-130389411D02*
X108030180Y-130532268D01*
X108030180Y-130532268D02*
X108030180Y-130627506D01*
X108030180Y-130627506D02*
X108077800Y-130770363D01*
X108077800Y-130770363D02*
X108173038Y-130865601D01*
X108173038Y-130865601D02*
X108268276Y-130913220D01*
X108268276Y-130913220D02*
X108458752Y-130960839D01*
X108458752Y-130960839D02*
X108601609Y-130960839D01*
X108601609Y-130960839D02*
X108792085Y-130913220D01*
X108792085Y-130913220D02*
X108887323Y-130865601D01*
X108887323Y-130865601D02*
X108982561Y-130770363D01*
X108982561Y-130770363D02*
X109030180Y-130627506D01*
X109030180Y-130627506D02*
X109030180Y-130532268D01*
X109030180Y-130532268D02*
X108982561Y-130389411D01*
X108982561Y-130389411D02*
X108934942Y-130341792D01*
X108077800Y-129960839D02*
X108030180Y-129817982D01*
X108030180Y-129817982D02*
X108030180Y-129579887D01*
X108030180Y-129579887D02*
X108077800Y-129484649D01*
X108077800Y-129484649D02*
X108125419Y-129437030D01*
X108125419Y-129437030D02*
X108220657Y-129389411D01*
X108220657Y-129389411D02*
X108315895Y-129389411D01*
X108315895Y-129389411D02*
X108411133Y-129437030D01*
X108411133Y-129437030D02*
X108458752Y-129484649D01*
X108458752Y-129484649D02*
X108506371Y-129579887D01*
X108506371Y-129579887D02*
X108553990Y-129770363D01*
X108553990Y-129770363D02*
X108601609Y-129865601D01*
X108601609Y-129865601D02*
X108649228Y-129913220D01*
X108649228Y-129913220D02*
X108744466Y-129960839D01*
X108744466Y-129960839D02*
X108839704Y-129960839D01*
X108839704Y-129960839D02*
X108934942Y-129913220D01*
X108934942Y-129913220D02*
X108982561Y-129865601D01*
X108982561Y-129865601D02*
X109030180Y-129770363D01*
X109030180Y-129770363D02*
X109030180Y-129532268D01*
X109030180Y-129532268D02*
X108982561Y-129389411D01*
X94187030Y-120619819D02*
X94663220Y-120619819D01*
X94663220Y-120619819D02*
X94710839Y-121096009D01*
X94710839Y-121096009D02*
X94663220Y-121048390D01*
X94663220Y-121048390D02*
X94567982Y-121000771D01*
X94567982Y-121000771D02*
X94329887Y-121000771D01*
X94329887Y-121000771D02*
X94234649Y-121048390D01*
X94234649Y-121048390D02*
X94187030Y-121096009D01*
X94187030Y-121096009D02*
X94139411Y-121191247D01*
X94139411Y-121191247D02*
X94139411Y-121429342D01*
X94139411Y-121429342D02*
X94187030Y-121524580D01*
X94187030Y-121524580D02*
X94234649Y-121572200D01*
X94234649Y-121572200D02*
X94329887Y-121619819D01*
X94329887Y-121619819D02*
X94567982Y-121619819D01*
X94567982Y-121619819D02*
X94663220Y-121572200D01*
X94663220Y-121572200D02*
X94710839Y-121524580D01*
X93853696Y-120619819D02*
X93520363Y-121619819D01*
X93520363Y-121619819D02*
X93187030Y-120619819D01*
X94139411Y-115417438D02*
X94234649Y-115369819D01*
X94234649Y-115369819D02*
X94377506Y-115369819D01*
X94377506Y-115369819D02*
X94520363Y-115417438D01*
X94520363Y-115417438D02*
X94615601Y-115512676D01*
X94615601Y-115512676D02*
X94663220Y-115607914D01*
X94663220Y-115607914D02*
X94710839Y-115798390D01*
X94710839Y-115798390D02*
X94710839Y-115941247D01*
X94710839Y-115941247D02*
X94663220Y-116131723D01*
X94663220Y-116131723D02*
X94615601Y-116226961D01*
X94615601Y-116226961D02*
X94520363Y-116322200D01*
X94520363Y-116322200D02*
X94377506Y-116369819D01*
X94377506Y-116369819D02*
X94282268Y-116369819D01*
X94282268Y-116369819D02*
X94139411Y-116322200D01*
X94139411Y-116322200D02*
X94091792Y-116274580D01*
X94091792Y-116274580D02*
X94091792Y-115941247D01*
X94091792Y-115941247D02*
X94282268Y-115941247D01*
X93663220Y-116369819D02*
X93663220Y-115369819D01*
X93663220Y-115369819D02*
X93091792Y-116369819D01*
X93091792Y-116369819D02*
X93091792Y-115369819D01*
X92615601Y-116369819D02*
X92615601Y-115369819D01*
X92615601Y-115369819D02*
X92377506Y-115369819D01*
X92377506Y-115369819D02*
X92234649Y-115417438D01*
X92234649Y-115417438D02*
X92139411Y-115512676D01*
X92139411Y-115512676D02*
X92091792Y-115607914D01*
X92091792Y-115607914D02*
X92044173Y-115798390D01*
X92044173Y-115798390D02*
X92044173Y-115941247D01*
X92044173Y-115941247D02*
X92091792Y-116131723D01*
X92091792Y-116131723D02*
X92139411Y-116226961D01*
X92139411Y-116226961D02*
X92234649Y-116322200D01*
X92234649Y-116322200D02*
X92377506Y-116369819D01*
X92377506Y-116369819D02*
X92615601Y-116369819D01*
X94139411Y-85917438D02*
X94234649Y-85869819D01*
X94234649Y-85869819D02*
X94377506Y-85869819D01*
X94377506Y-85869819D02*
X94520363Y-85917438D01*
X94520363Y-85917438D02*
X94615601Y-86012676D01*
X94615601Y-86012676D02*
X94663220Y-86107914D01*
X94663220Y-86107914D02*
X94710839Y-86298390D01*
X94710839Y-86298390D02*
X94710839Y-86441247D01*
X94710839Y-86441247D02*
X94663220Y-86631723D01*
X94663220Y-86631723D02*
X94615601Y-86726961D01*
X94615601Y-86726961D02*
X94520363Y-86822200D01*
X94520363Y-86822200D02*
X94377506Y-86869819D01*
X94377506Y-86869819D02*
X94282268Y-86869819D01*
X94282268Y-86869819D02*
X94139411Y-86822200D01*
X94139411Y-86822200D02*
X94091792Y-86774580D01*
X94091792Y-86774580D02*
X94091792Y-86441247D01*
X94091792Y-86441247D02*
X94282268Y-86441247D01*
X93663220Y-86869819D02*
X93663220Y-85869819D01*
X93663220Y-85869819D02*
X93091792Y-86869819D01*
X93091792Y-86869819D02*
X93091792Y-85869819D01*
X92615601Y-86869819D02*
X92615601Y-85869819D01*
X92615601Y-85869819D02*
X92377506Y-85869819D01*
X92377506Y-85869819D02*
X92234649Y-85917438D01*
X92234649Y-85917438D02*
X92139411Y-86012676D01*
X92139411Y-86012676D02*
X92091792Y-86107914D01*
X92091792Y-86107914D02*
X92044173Y-86298390D01*
X92044173Y-86298390D02*
X92044173Y-86441247D01*
X92044173Y-86441247D02*
X92091792Y-86631723D01*
X92091792Y-86631723D02*
X92139411Y-86726961D01*
X92139411Y-86726961D02*
X92234649Y-86822200D01*
X92234649Y-86822200D02*
X92377506Y-86869819D01*
X92377506Y-86869819D02*
X92615601Y-86869819D01*
X112930180Y-130913220D02*
X113930180Y-130913220D01*
X113930180Y-130913220D02*
X113215895Y-130579887D01*
X113215895Y-130579887D02*
X113930180Y-130246554D01*
X113930180Y-130246554D02*
X112930180Y-130246554D01*
X112930180Y-129770363D02*
X113930180Y-129770363D01*
X112977800Y-129341792D02*
X112930180Y-129198935D01*
X112930180Y-129198935D02*
X112930180Y-128960840D01*
X112930180Y-128960840D02*
X112977800Y-128865602D01*
X112977800Y-128865602D02*
X113025419Y-128817983D01*
X113025419Y-128817983D02*
X113120657Y-128770364D01*
X113120657Y-128770364D02*
X113215895Y-128770364D01*
X113215895Y-128770364D02*
X113311133Y-128817983D01*
X113311133Y-128817983D02*
X113358752Y-128865602D01*
X113358752Y-128865602D02*
X113406371Y-128960840D01*
X113406371Y-128960840D02*
X113453990Y-129151316D01*
X113453990Y-129151316D02*
X113501609Y-129246554D01*
X113501609Y-129246554D02*
X113549228Y-129294173D01*
X113549228Y-129294173D02*
X113644466Y-129341792D01*
X113644466Y-129341792D02*
X113739704Y-129341792D01*
X113739704Y-129341792D02*
X113834942Y-129294173D01*
X113834942Y-129294173D02*
X113882561Y-129246554D01*
X113882561Y-129246554D02*
X113930180Y-129151316D01*
X113930180Y-129151316D02*
X113930180Y-128913221D01*
X113930180Y-128913221D02*
X113882561Y-128770364D01*
X113930180Y-128151316D02*
X113930180Y-127960840D01*
X113930180Y-127960840D02*
X113882561Y-127865602D01*
X113882561Y-127865602D02*
X113787323Y-127770364D01*
X113787323Y-127770364D02*
X113596847Y-127722745D01*
X113596847Y-127722745D02*
X113263514Y-127722745D01*
X113263514Y-127722745D02*
X113073038Y-127770364D01*
X113073038Y-127770364D02*
X112977800Y-127865602D01*
X112977800Y-127865602D02*
X112930180Y-127960840D01*
X112930180Y-127960840D02*
X112930180Y-128151316D01*
X112930180Y-128151316D02*
X112977800Y-128246554D01*
X112977800Y-128246554D02*
X113073038Y-128341792D01*
X113073038Y-128341792D02*
X113263514Y-128389411D01*
X113263514Y-128389411D02*
X113596847Y-128389411D01*
X113596847Y-128389411D02*
X113787323Y-128341792D01*
X113787323Y-128341792D02*
X113882561Y-128246554D01*
X113882561Y-128246554D02*
X113930180Y-128151316D01*
G36*
X123495882Y-63954159D02*
G01*
X123383775Y-63954159D01*
X123383775Y-63660334D01*
X123402571Y-63614388D01*
X123403803Y-63613928D01*
X123425785Y-63606845D01*
X123451919Y-63568743D01*
X123416621Y-63533001D01*
X123402337Y-63532107D01*
X123384508Y-63532107D01*
X123078715Y-63532107D01*
X123060153Y-63532107D01*
X123013871Y-63549423D01*
X123008862Y-63568743D01*
X123036217Y-63606845D01*
X123062840Y-63616371D01*
X123070411Y-63624431D01*
X123078715Y-63660334D01*
X123078715Y-64339818D01*
X123060683Y-64385556D01*
X123058199Y-64386713D01*
X123036217Y-64394528D01*
X123008862Y-64432875D01*
X123042722Y-64468694D01*
X123060153Y-64470000D01*
X123078715Y-64470000D01*
X123384508Y-64470000D01*
X123403803Y-64470000D01*
X123448911Y-64449117D01*
X123451919Y-64432875D01*
X123425785Y-64394528D01*
X123403803Y-64386713D01*
X123383775Y-64339818D01*
X123383775Y-64016685D01*
X123495882Y-64016685D01*
X123495882Y-63954159D01*
G37*
G36*
X123553524Y-64470000D02*
G01*
X123859804Y-64470000D01*
X123877634Y-64470000D01*
X123915736Y-64460963D01*
X123929169Y-64434584D01*
X123901570Y-64397948D01*
X123875436Y-64388667D01*
X123867376Y-64380851D01*
X123859071Y-64346168D01*
X123859071Y-63660334D01*
X123867376Y-63624431D01*
X123875436Y-63616371D01*
X123901570Y-63606845D01*
X123929169Y-63568743D01*
X123915736Y-63541632D01*
X123877634Y-63532107D01*
X123859804Y-63532107D01*
X123553524Y-63532107D01*
X123535694Y-63532107D01*
X123489898Y-63552715D01*
X123486845Y-63568743D01*
X123512979Y-63606845D01*
X123534228Y-63613928D01*
X123554256Y-63660334D01*
X123554256Y-64346168D01*
X123534228Y-64391109D01*
X123512979Y-64397948D01*
X123486845Y-64434584D01*
X123521621Y-64469135D01*
X123535694Y-64470000D01*
X123553524Y-64470000D01*
G37*
G36*
X122612212Y-63532107D02*
G01*
X122335240Y-63532107D01*
X122144242Y-64339330D01*
X122132030Y-64377187D01*
X122104431Y-64398436D01*
X122079762Y-64413579D01*
X122072923Y-64434340D01*
X122108235Y-64468746D01*
X122126413Y-64470000D01*
X122469330Y-64470000D01*
X122502302Y-64459986D01*
X122514515Y-64432875D01*
X122509141Y-64411870D01*
X122484228Y-64394528D01*
X122465177Y-64379141D01*
X122459560Y-64357892D01*
X122461514Y-64337131D01*
X122483740Y-64235526D01*
X122675226Y-64235526D01*
X122656664Y-64157369D01*
X122502791Y-64157369D01*
X122629309Y-63601228D01*
X122612212Y-63532107D01*
G37*
G36*
X122659595Y-63711137D02*
G01*
X122624424Y-63854263D01*
X122746057Y-64294389D01*
X122751430Y-64329804D01*
X122733969Y-64375490D01*
X122710886Y-64391109D01*
X122686950Y-64401856D01*
X122664235Y-64436050D01*
X122702757Y-64469469D01*
X122714549Y-64470000D01*
X122888939Y-64470000D01*
X122929239Y-64459497D01*
X122943893Y-64430432D01*
X122913607Y-64397704D01*
X122872086Y-64375478D01*
X122846441Y-64348367D01*
X122824061Y-64303722D01*
X122814689Y-64273872D01*
X122659595Y-63711137D01*
G37*
G36*
X121645254Y-64470000D02*
G01*
X121951535Y-64470000D01*
X121969364Y-64470000D01*
X122007466Y-64460963D01*
X122020900Y-64434584D01*
X121993300Y-64397948D01*
X121967166Y-64388667D01*
X121959106Y-64380851D01*
X121950802Y-64346168D01*
X121950802Y-63660334D01*
X121959106Y-63624431D01*
X121967166Y-63616371D01*
X121993300Y-63606845D01*
X122020900Y-63568743D01*
X122007466Y-63541632D01*
X121969364Y-63532107D01*
X121951535Y-63532107D01*
X121645254Y-63532107D01*
X121627424Y-63532107D01*
X121589323Y-63541632D01*
X121575889Y-63568743D01*
X121603489Y-63606845D01*
X121629867Y-63616371D01*
X121637683Y-63624431D01*
X121645987Y-63660334D01*
X121645987Y-64346168D01*
X121637683Y-64380851D01*
X121629867Y-64388667D01*
X121603489Y-64397948D01*
X121575889Y-64434584D01*
X121589323Y-64460963D01*
X121627424Y-64470000D01*
X121645254Y-64470000D01*
G37*
G36*
X121075924Y-64470000D02*
G01*
X121382205Y-64470000D01*
X121400034Y-64470000D01*
X121438136Y-64460963D01*
X121451570Y-64434584D01*
X121423970Y-64397948D01*
X121397836Y-64388667D01*
X121389776Y-64380851D01*
X121381472Y-64346168D01*
X121381472Y-63660334D01*
X121389776Y-63624431D01*
X121397836Y-63616371D01*
X121423970Y-63606845D01*
X121451570Y-63568743D01*
X121438136Y-63541632D01*
X121400034Y-63532107D01*
X121382205Y-63532107D01*
X121075924Y-63532107D01*
X121058094Y-63532107D01*
X121019993Y-63541632D01*
X121006559Y-63568743D01*
X121034159Y-63606845D01*
X121060537Y-63616371D01*
X121068353Y-63624431D01*
X121076657Y-63660334D01*
X121076657Y-64346168D01*
X121056629Y-64391109D01*
X121035380Y-64397948D01*
X121009246Y-64434584D01*
X121044022Y-64469135D01*
X121058094Y-64470000D01*
X121075924Y-64470000D01*
G37*
G36*
X120803838Y-63810300D02*
G01*
X120596231Y-64348122D01*
X120579134Y-64381095D01*
X120555687Y-64398436D01*
X120537124Y-64408695D01*
X120527599Y-64433852D01*
X120564288Y-64469117D01*
X120579134Y-64470000D01*
X120924738Y-64470000D01*
X120962840Y-64459741D01*
X120976273Y-64430188D01*
X120950872Y-64395750D01*
X120929623Y-64383049D01*
X120923272Y-64368883D01*
X120928890Y-64346901D01*
X121016817Y-64084584D01*
X121028495Y-64036178D01*
X121029274Y-64022791D01*
X121012825Y-63975755D01*
X121009246Y-63970523D01*
X120845115Y-63738981D01*
X120823957Y-63693265D01*
X120821667Y-63671570D01*
X120831926Y-63635910D01*
X120859525Y-63612463D01*
X120884193Y-63602205D01*
X120907641Y-63569965D01*
X120893230Y-63539678D01*
X120861479Y-63532107D01*
X120616992Y-63532107D01*
X120579623Y-63543098D01*
X120566189Y-63573628D01*
X120593881Y-63614014D01*
X120597697Y-63615638D01*
X120634089Y-63630537D01*
X120677183Y-63656482D01*
X120691974Y-63668394D01*
X120727196Y-63705755D01*
X120756454Y-63743621D01*
X120803838Y-63810300D01*
G37*
G36*
X120380809Y-64198401D02*
G01*
X120380809Y-63660334D01*
X120389113Y-63624431D01*
X120397173Y-63616371D01*
X120423307Y-63606845D01*
X120450907Y-63569476D01*
X120437473Y-63541632D01*
X120399371Y-63532107D01*
X120381542Y-63532107D01*
X120075261Y-63532107D01*
X120057431Y-63532107D01*
X120032519Y-63534794D01*
X120013468Y-63547494D01*
X120005896Y-63569232D01*
X120033496Y-63606845D01*
X120059874Y-63616371D01*
X120067690Y-63624431D01*
X120075994Y-63660334D01*
X120075994Y-64234305D01*
X120075261Y-64283825D01*
X120073063Y-64315638D01*
X120060118Y-64357159D01*
X120040334Y-64382072D01*
X119998325Y-64399169D01*
X119998325Y-64489050D01*
X120013468Y-64489050D01*
X120066252Y-64487524D01*
X120117537Y-64482318D01*
X120161723Y-64473419D01*
X120211343Y-64457024D01*
X120256154Y-64435683D01*
X120283356Y-64418709D01*
X120323127Y-64385396D01*
X120352976Y-64345969D01*
X120357362Y-64337620D01*
X120373390Y-64287411D01*
X120379687Y-64236285D01*
X120380809Y-64198401D01*
G37*
G36*
X119935066Y-64489050D02*
G01*
X119935066Y-64399169D01*
X119886786Y-64387182D01*
X119841692Y-64362026D01*
X119820516Y-64343237D01*
X119790758Y-64300726D01*
X119774424Y-64252411D01*
X119768452Y-64201057D01*
X119768248Y-64188632D01*
X119768248Y-63743621D01*
X119773947Y-63693971D01*
X119796393Y-63645829D01*
X119835867Y-63611482D01*
X119840300Y-63609043D01*
X119868143Y-63589504D01*
X119874494Y-63566057D01*
X119861549Y-63539923D01*
X119819050Y-63532107D01*
X119650767Y-63532107D01*
X119622191Y-63533328D01*
X119608025Y-63538457D01*
X119590195Y-63567278D01*
X119601186Y-63593412D01*
X119630739Y-63612463D01*
X119667363Y-63646026D01*
X119678122Y-63664242D01*
X119692815Y-63711622D01*
X119695219Y-63743621D01*
X119695219Y-64189364D01*
X119698394Y-64244182D01*
X119707920Y-64293839D01*
X119726227Y-64343537D01*
X119746022Y-64377676D01*
X119778399Y-64415617D01*
X119819844Y-64447377D01*
X119852512Y-64465115D01*
X119900902Y-64482135D01*
X119935066Y-64489050D01*
G37*
G36*
X118971772Y-63782212D02*
G01*
X118920786Y-63791981D01*
X118877739Y-63821290D01*
X118849513Y-63861186D01*
X118838454Y-63911432D01*
X118838415Y-63914836D01*
X118847056Y-63963042D01*
X118875319Y-64006655D01*
X118877739Y-64009113D01*
X118917863Y-64036988D01*
X118968353Y-64047910D01*
X118971772Y-64047948D01*
X119020208Y-64039415D01*
X119064065Y-64011502D01*
X119066538Y-64009113D01*
X119094588Y-63968935D01*
X119105579Y-63918270D01*
X119105617Y-63914836D01*
X119095847Y-63864094D01*
X119066538Y-63821290D01*
X119026131Y-63793241D01*
X118975221Y-63782250D01*
X118971772Y-63782212D01*
G37*
G36*
X118971772Y-64219895D02*
G01*
X118920786Y-64229665D01*
X118877739Y-64258974D01*
X118849513Y-64298869D01*
X118838454Y-64349115D01*
X118838415Y-64352519D01*
X118847056Y-64400726D01*
X118875319Y-64444338D01*
X118877739Y-64446796D01*
X118917863Y-64474671D01*
X118968353Y-64485593D01*
X118971772Y-64485631D01*
X119020208Y-64477098D01*
X119064065Y-64449186D01*
X119066538Y-64446796D01*
X119094588Y-64406618D01*
X119105579Y-64355953D01*
X119105617Y-64352519D01*
X119095847Y-64301777D01*
X119066538Y-64258974D01*
X119026131Y-64230924D01*
X118975221Y-64219933D01*
X118971772Y-64219895D01*
G37*
G36*
X123657815Y-65992951D02*
G01*
X123657815Y-65343265D01*
X123676702Y-65297130D01*
X123682484Y-65295150D01*
X123709351Y-65288311D01*
X123742323Y-65250453D01*
X123726936Y-65222854D01*
X123681263Y-65213572D01*
X123658548Y-65212840D01*
X123353000Y-65212840D01*
X123334438Y-65212107D01*
X123309525Y-65214794D01*
X123282903Y-65248255D01*
X123310258Y-65285380D01*
X123332240Y-65292219D01*
X123353000Y-65337404D01*
X123353000Y-65909176D01*
X123356939Y-65961046D01*
X123371086Y-66013372D01*
X123395522Y-66058278D01*
X123430246Y-66095765D01*
X123435310Y-66099930D01*
X123479762Y-66127407D01*
X123527474Y-66146040D01*
X123534961Y-66148290D01*
X123585147Y-66159518D01*
X123637670Y-66165021D01*
X123662700Y-66165631D01*
X123702512Y-66168073D01*
X123702512Y-66088695D01*
X123695673Y-66083810D01*
X123676133Y-66066957D01*
X123666120Y-66050837D01*
X123657945Y-66001549D01*
X123657815Y-65992951D01*
G37*
G36*
X123764305Y-66088695D02*
G01*
X123764305Y-66163921D01*
X123814675Y-66153288D01*
X123862314Y-66137129D01*
X123901814Y-66116294D01*
X123940987Y-66084101D01*
X123972716Y-66042900D01*
X123974354Y-66040090D01*
X123993588Y-65993257D01*
X124000000Y-65943126D01*
X123991772Y-65891494D01*
X123967088Y-65846875D01*
X123957013Y-65835415D01*
X123916220Y-65804694D01*
X123869070Y-65791176D01*
X123854431Y-65790474D01*
X123804607Y-65799383D01*
X123762296Y-65826109D01*
X123757222Y-65831018D01*
X123728296Y-65872449D01*
X123717079Y-65921178D01*
X123716922Y-65928227D01*
X123727341Y-65978571D01*
X123746475Y-66010537D01*
X123784476Y-66042734D01*
X123804361Y-66052791D01*
X123817306Y-66062316D01*
X123811444Y-66071109D01*
X123795324Y-66080390D01*
X123764305Y-66088695D01*
G37*
G36*
X122818353Y-65212107D02*
G01*
X122818353Y-66150000D01*
X123123900Y-66150000D01*
X123141730Y-66150000D01*
X123179832Y-66140963D01*
X123193265Y-66114584D01*
X123165666Y-66077948D01*
X123139532Y-66068667D01*
X123131472Y-66060851D01*
X123123168Y-66026168D01*
X123123168Y-65340334D01*
X123131472Y-65304431D01*
X123139532Y-65296371D01*
X123165666Y-65286845D01*
X123193265Y-65248743D01*
X123179832Y-65221632D01*
X123141730Y-65212107D01*
X123123900Y-65212107D01*
X122818353Y-65212107D01*
G37*
G36*
X122757048Y-65212107D02*
G01*
X122480321Y-65212107D01*
X122480321Y-65461723D01*
X122488625Y-65485903D01*
X122514759Y-65493475D01*
X122536741Y-65487369D01*
X122549685Y-65462456D01*
X122570539Y-65413277D01*
X122599871Y-65369634D01*
X122626378Y-65343754D01*
X122668338Y-65317616D01*
X122718747Y-65300752D01*
X122757048Y-65294661D01*
X122757048Y-65212107D01*
G37*
G36*
X122760467Y-65716224D02*
G01*
X122760467Y-65637334D01*
X122718812Y-65610047D01*
X122701605Y-65592393D01*
X122679167Y-65548956D01*
X122673272Y-65527424D01*
X122659106Y-65488590D01*
X122633461Y-65477843D01*
X122603419Y-65498604D01*
X122598534Y-65547452D01*
X122598534Y-65806594D01*
X122605861Y-65855198D01*
X122632240Y-65868632D01*
X122656908Y-65858862D01*
X122671318Y-65825645D01*
X122687676Y-65777955D01*
X122704780Y-65750907D01*
X122744164Y-65721598D01*
X122760467Y-65716224D01*
G37*
G36*
X122756559Y-66150000D02*
G01*
X122756559Y-66074773D01*
X122706795Y-66064030D01*
X122682798Y-66055478D01*
X122640540Y-66030533D01*
X122623935Y-66017131D01*
X122589072Y-65980840D01*
X122577041Y-65963886D01*
X122554696Y-65920304D01*
X122543579Y-65891346D01*
X122527948Y-65861060D01*
X122505233Y-65853000D01*
X122478367Y-65864480D01*
X122470795Y-65904535D01*
X122470795Y-66150000D01*
X122756559Y-66150000D01*
G37*
G36*
X121508234Y-65911863D02*
G01*
X121573447Y-66150000D01*
X121753942Y-66150000D01*
X121998674Y-65328855D01*
X122008932Y-65303942D01*
X122024075Y-65292463D01*
X122052896Y-65276099D01*
X122059734Y-65253384D01*
X122041172Y-65221144D01*
X121993789Y-65212107D01*
X121687997Y-65212107D01*
X121648674Y-65213572D01*
X121631088Y-65218946D01*
X121619609Y-65232868D01*
X121614724Y-65249965D01*
X121638660Y-65286601D01*
X121663328Y-65304919D01*
X121669678Y-65331297D01*
X121667725Y-65350593D01*
X121508234Y-65911863D01*
G37*
G36*
X121482100Y-65814166D02*
G01*
X121518492Y-65686427D01*
X121439602Y-65394556D01*
X121431297Y-65360607D01*
X121438136Y-65326413D01*
X121472575Y-65294661D01*
X121495045Y-65286357D01*
X121521912Y-65250942D01*
X121506769Y-65222121D01*
X121464759Y-65212107D01*
X121296475Y-65212107D01*
X121255198Y-65218213D01*
X121238834Y-65248011D01*
X121243963Y-65268771D01*
X121262770Y-65282449D01*
X121297941Y-65299057D01*
X121335100Y-65332958D01*
X121340195Y-65340334D01*
X121362805Y-65384192D01*
X121371458Y-65410188D01*
X121482100Y-65814166D01*
G37*
G36*
X120802861Y-65212107D02*
G01*
X120802861Y-66150000D01*
X121108408Y-66150000D01*
X121126238Y-66150000D01*
X121164340Y-66140963D01*
X121177773Y-66114584D01*
X121150174Y-66077948D01*
X121124040Y-66068667D01*
X121115980Y-66060851D01*
X121107676Y-66026168D01*
X121107676Y-65340334D01*
X121115980Y-65304431D01*
X121124040Y-65296371D01*
X121150174Y-65286845D01*
X121177773Y-65248743D01*
X121164340Y-65221632D01*
X121126238Y-65212107D01*
X121108408Y-65212107D01*
X120802861Y-65212107D01*
G37*
G36*
X120741556Y-65212107D02*
G01*
X120464829Y-65212107D01*
X120464829Y-65461723D01*
X120473133Y-65485903D01*
X120499267Y-65493475D01*
X120521249Y-65487369D01*
X120534193Y-65462456D01*
X120555047Y-65413277D01*
X120584379Y-65369634D01*
X120610886Y-65343754D01*
X120652846Y-65317616D01*
X120703255Y-65300752D01*
X120741556Y-65294661D01*
X120741556Y-65212107D01*
G37*
G36*
X120744975Y-65716224D02*
G01*
X120744975Y-65637334D01*
X120703320Y-65610047D01*
X120686113Y-65592393D01*
X120663675Y-65548956D01*
X120657780Y-65527424D01*
X120643614Y-65488590D01*
X120617969Y-65477843D01*
X120587927Y-65498604D01*
X120583042Y-65547452D01*
X120583042Y-65806594D01*
X120590369Y-65855198D01*
X120616748Y-65868632D01*
X120641416Y-65858862D01*
X120655826Y-65825645D01*
X120672184Y-65777955D01*
X120689288Y-65750907D01*
X120728672Y-65721598D01*
X120744975Y-65716224D01*
G37*
G36*
X120741067Y-66150000D02*
G01*
X120741067Y-66074773D01*
X120691303Y-66064030D01*
X120667306Y-66055478D01*
X120625048Y-66030533D01*
X120608443Y-66017131D01*
X120573580Y-65980840D01*
X120561549Y-65963886D01*
X120539204Y-65920304D01*
X120528087Y-65891346D01*
X120512456Y-65861060D01*
X120489741Y-65853000D01*
X120462875Y-65864480D01*
X120455303Y-65904535D01*
X120455303Y-66150000D01*
X120741067Y-66150000D01*
G37*
G36*
X120297766Y-65878401D02*
G01*
X120297766Y-65340334D01*
X120306071Y-65304431D01*
X120314131Y-65296371D01*
X120340265Y-65286845D01*
X120367864Y-65249476D01*
X120354431Y-65221632D01*
X120316329Y-65212107D01*
X120298499Y-65212107D01*
X119992219Y-65212107D01*
X119974389Y-65212107D01*
X119949476Y-65214794D01*
X119930425Y-65227494D01*
X119922854Y-65249232D01*
X119950453Y-65286845D01*
X119976831Y-65296371D01*
X119984647Y-65304431D01*
X119992951Y-65340334D01*
X119992951Y-65914305D01*
X119992219Y-65963825D01*
X119990020Y-65995638D01*
X119977076Y-66037159D01*
X119957292Y-66062072D01*
X119915282Y-66079169D01*
X119915282Y-66169050D01*
X119930425Y-66169050D01*
X119983209Y-66167524D01*
X120034495Y-66162318D01*
X120078681Y-66153419D01*
X120128300Y-66137024D01*
X120173111Y-66115683D01*
X120200314Y-66098709D01*
X120240084Y-66065396D01*
X120269933Y-66025969D01*
X120274319Y-66017620D01*
X120290348Y-65967411D01*
X120296644Y-65916285D01*
X120297766Y-65878401D01*
G37*
G36*
X119852023Y-66169050D02*
G01*
X119852023Y-66079169D01*
X119803743Y-66067182D01*
X119758649Y-66042026D01*
X119737473Y-66023237D01*
X119707715Y-65980726D01*
X119691382Y-65932411D01*
X119685410Y-65881057D01*
X119685205Y-65868632D01*
X119685205Y-65423621D01*
X119690905Y-65373971D01*
X119713351Y-65325829D01*
X119752824Y-65291482D01*
X119757257Y-65289043D01*
X119785101Y-65269504D01*
X119791451Y-65246057D01*
X119778506Y-65219923D01*
X119736008Y-65212107D01*
X119567725Y-65212107D01*
X119539148Y-65213328D01*
X119524982Y-65218457D01*
X119507152Y-65247278D01*
X119518143Y-65273412D01*
X119547697Y-65292463D01*
X119584321Y-65326026D01*
X119595080Y-65344242D01*
X119609772Y-65391622D01*
X119612177Y-65423621D01*
X119612177Y-65869364D01*
X119615352Y-65924182D01*
X119624877Y-65973839D01*
X119643184Y-66023537D01*
X119662979Y-66057676D01*
X119695357Y-66095617D01*
X119736802Y-66127377D01*
X119769469Y-66145115D01*
X119817860Y-66162135D01*
X119852023Y-66169050D01*
G37*
G36*
X119035275Y-65332274D02*
G01*
X118689672Y-66035205D01*
X118655966Y-66070376D01*
X118631053Y-66088206D01*
X118624459Y-66110921D01*
X118638136Y-66140474D01*
X118687473Y-66150000D01*
X119009630Y-66150000D01*
X119057745Y-66145115D01*
X119081926Y-66110188D01*
X119077285Y-66094801D01*
X119059211Y-66078436D01*
X119036496Y-66046929D01*
X119048953Y-66012002D01*
X119386008Y-65332274D01*
X119404082Y-65305163D01*
X119429483Y-65287090D01*
X119448290Y-65271946D01*
X119453419Y-65249232D01*
X119438764Y-65220411D01*
X119388581Y-65212115D01*
X119386252Y-65212107D01*
X119066050Y-65212107D01*
X119017735Y-65220050D01*
X119015736Y-65221144D01*
X119000104Y-65249965D01*
X119022819Y-65284891D01*
X119036985Y-65297592D01*
X119040648Y-65311758D01*
X119035275Y-65332274D01*
G37*
G36*
X118880669Y-65528401D02*
G01*
X118919016Y-65452442D01*
X118880425Y-65385519D01*
X118867480Y-65345219D01*
X118876762Y-65315177D01*
X118901186Y-65293196D01*
X118925366Y-65281960D01*
X118937334Y-65268527D01*
X118942463Y-65248743D01*
X118930739Y-65222121D01*
X118899720Y-65212107D01*
X118701395Y-65212107D01*
X118669399Y-65220900D01*
X118656699Y-65243614D01*
X118669155Y-65272923D01*
X118697976Y-65290509D01*
X118740000Y-65321521D01*
X118772832Y-65360150D01*
X118779064Y-65369644D01*
X118880669Y-65528401D01*
G37*
G36*
X119204780Y-65817585D02*
G01*
X119167166Y-65895254D01*
X119209665Y-65964131D01*
X119230822Y-66009132D01*
X119233112Y-66024703D01*
X119206682Y-66067239D01*
X119195987Y-66072330D01*
X119167655Y-66088695D01*
X119160083Y-66111165D01*
X119176692Y-66142428D01*
X119190369Y-66148778D01*
X119219190Y-66150000D01*
X119396510Y-66150000D01*
X119431193Y-66140963D01*
X119443893Y-66115317D01*
X119436078Y-66093824D01*
X119408234Y-66077704D01*
X119365018Y-66053629D01*
X119330160Y-66015763D01*
X119328367Y-66012979D01*
X119204780Y-65817585D01*
G37*
G36*
X117833845Y-65212107D02*
G01*
X117833845Y-66150000D01*
X118139392Y-66150000D01*
X118157222Y-66150000D01*
X118195324Y-66140963D01*
X118208757Y-66114584D01*
X118181158Y-66077948D01*
X118155024Y-66068667D01*
X118146964Y-66060851D01*
X118138660Y-66026168D01*
X118138660Y-65340334D01*
X118146964Y-65304431D01*
X118155024Y-65296371D01*
X118181158Y-65286845D01*
X118208757Y-65248743D01*
X118195324Y-65221632D01*
X118157222Y-65212107D01*
X118139392Y-65212107D01*
X117833845Y-65212107D01*
G37*
G36*
X117620132Y-65668597D02*
G01*
X117571533Y-65679189D01*
X117525122Y-65692533D01*
X117478639Y-65713186D01*
X117464794Y-65721598D01*
X117426469Y-65753207D01*
X117397589Y-65793082D01*
X117394452Y-65799023D01*
X117376921Y-65846424D01*
X117370242Y-65895218D01*
X117370027Y-65906245D01*
X117375431Y-65961291D01*
X117391643Y-66009926D01*
X117418662Y-66052150D01*
X117456489Y-66087962D01*
X117500432Y-66115564D01*
X117548453Y-66134258D01*
X117555163Y-66136078D01*
X117604502Y-66145092D01*
X117654815Y-66149129D01*
X117696336Y-66150000D01*
X117778157Y-66150000D01*
X117778157Y-66077948D01*
X117734926Y-66070132D01*
X117706838Y-66050348D01*
X117686808Y-66004913D01*
X117684124Y-65971458D01*
X117684124Y-65818318D01*
X117688938Y-65769020D01*
X117689986Y-65765317D01*
X117711479Y-65730635D01*
X117736880Y-65712805D01*
X117775959Y-65704012D01*
X117775959Y-65633182D01*
X117736636Y-65626587D01*
X117710746Y-65610711D01*
X117692428Y-65584089D01*
X117684124Y-65554047D01*
X117684124Y-65516678D01*
X117684124Y-65392114D01*
X117690474Y-65353279D01*
X117705373Y-65321284D01*
X117734682Y-65298080D01*
X117778157Y-65287578D01*
X117778157Y-65212107D01*
X117699023Y-65212107D01*
X117642923Y-65214400D01*
X117592044Y-65221278D01*
X117539284Y-65235097D01*
X117493630Y-65255158D01*
X117460153Y-65277320D01*
X117425030Y-65312564D01*
X117402512Y-65349616D01*
X117386884Y-65396441D01*
X117382484Y-65440963D01*
X117388205Y-65491019D01*
X117402756Y-65532554D01*
X117428845Y-65574160D01*
X117459420Y-65604117D01*
X117502205Y-65631777D01*
X117521214Y-65640265D01*
X117569703Y-65655961D01*
X117620132Y-65668597D01*
G37*
G36*
X116896196Y-66150000D02*
G01*
X117202477Y-66150000D01*
X117220307Y-66150000D01*
X117258408Y-66140963D01*
X117271842Y-66114584D01*
X117244242Y-66077948D01*
X117218108Y-66068667D01*
X117210048Y-66060851D01*
X117201744Y-66026168D01*
X117201744Y-65340334D01*
X117210048Y-65304431D01*
X117218108Y-65296371D01*
X117244242Y-65286845D01*
X117271842Y-65248743D01*
X117258408Y-65221632D01*
X117220307Y-65212107D01*
X117202477Y-65212107D01*
X116896196Y-65212107D01*
X116878367Y-65212107D01*
X116840265Y-65221632D01*
X116826831Y-65248743D01*
X116854431Y-65286845D01*
X116880809Y-65296371D01*
X116888625Y-65304431D01*
X116896929Y-65340334D01*
X116896929Y-66026168D01*
X116888625Y-66060851D01*
X116880809Y-66068667D01*
X116854431Y-66077948D01*
X116826831Y-66114584D01*
X116840265Y-66140963D01*
X116878367Y-66150000D01*
X116896196Y-66150000D01*
G37*
G36*
X116342009Y-65212107D02*
G01*
X116342009Y-66150000D01*
X116647557Y-66150000D01*
X116665387Y-66150000D01*
X116703489Y-66140963D01*
X116716922Y-66114584D01*
X116689323Y-66077948D01*
X116663189Y-66068667D01*
X116655129Y-66060851D01*
X116646824Y-66026168D01*
X116646824Y-65340334D01*
X116655129Y-65304431D01*
X116663189Y-65296371D01*
X116689323Y-65286845D01*
X116716922Y-65248743D01*
X116703489Y-65221632D01*
X116665387Y-65212107D01*
X116647557Y-65212107D01*
X116342009Y-65212107D01*
G37*
G36*
X116280704Y-65212107D02*
G01*
X116003977Y-65212107D01*
X116003977Y-65461723D01*
X116012281Y-65485903D01*
X116038415Y-65493475D01*
X116060397Y-65487369D01*
X116073342Y-65462456D01*
X116094195Y-65413277D01*
X116123527Y-65369634D01*
X116150034Y-65343754D01*
X116191995Y-65317616D01*
X116242404Y-65300752D01*
X116280704Y-65294661D01*
X116280704Y-65212107D01*
G37*
G36*
X116284124Y-65716224D02*
G01*
X116284124Y-65637334D01*
X116242469Y-65610047D01*
X116225261Y-65592393D01*
X116202824Y-65548956D01*
X116196929Y-65527424D01*
X116182763Y-65488590D01*
X116157117Y-65477843D01*
X116127076Y-65498604D01*
X116122191Y-65547452D01*
X116122191Y-65806594D01*
X116129518Y-65855198D01*
X116155896Y-65868632D01*
X116180565Y-65858862D01*
X116194975Y-65825645D01*
X116211333Y-65777955D01*
X116228436Y-65750907D01*
X116267821Y-65721598D01*
X116284124Y-65716224D01*
G37*
G36*
X116280216Y-66150000D02*
G01*
X116280216Y-66074773D01*
X116230451Y-66064030D01*
X116206454Y-66055478D01*
X116164196Y-66030533D01*
X116147592Y-66017131D01*
X116112728Y-65980840D01*
X116100697Y-65963886D01*
X116078353Y-65920304D01*
X116067236Y-65891346D01*
X116051605Y-65861060D01*
X116028890Y-65853000D01*
X116002023Y-65864480D01*
X115994452Y-65904535D01*
X115994452Y-66150000D01*
X116280216Y-66150000D01*
G37*
G36*
X115506454Y-65212107D02*
G01*
X115141067Y-65849825D01*
X115141067Y-66150000D01*
X115328646Y-66150000D01*
X115795150Y-65346196D01*
X115819818Y-65309804D01*
X115844487Y-65294661D01*
X115870621Y-65284891D01*
X115887229Y-65272679D01*
X115893335Y-65252651D01*
X115887229Y-65231158D01*
X115870621Y-65216992D01*
X115819623Y-65212183D01*
X115807362Y-65212107D01*
X115506454Y-65212107D01*
G37*
G36*
X115794417Y-65459525D02*
G01*
X115721632Y-65579448D01*
X115721632Y-65944347D01*
X115715949Y-65994963D01*
X115705512Y-66022749D01*
X115672498Y-66061085D01*
X115654221Y-66073063D01*
X115633705Y-66084542D01*
X115615875Y-66115317D01*
X115628820Y-66141207D01*
X115674249Y-66150000D01*
X115832763Y-66150000D01*
X115881550Y-66140004D01*
X115895289Y-66114584D01*
X115888939Y-66095289D01*
X115860362Y-66075750D01*
X115822817Y-66043914D01*
X115800857Y-65998109D01*
X115794417Y-65944347D01*
X115794417Y-65459525D01*
G37*
G36*
X115141067Y-65740893D02*
G01*
X115213852Y-65618771D01*
X115213852Y-65429239D01*
X115217555Y-65379944D01*
X115230704Y-65338869D01*
X115263973Y-65301302D01*
X115290300Y-65284647D01*
X115310327Y-65269504D01*
X115315701Y-65248743D01*
X115303733Y-65220900D01*
X115264654Y-65212107D01*
X115092951Y-65212107D01*
X115047034Y-65223342D01*
X115035310Y-65250209D01*
X115041905Y-65272435D01*
X115073168Y-65292463D01*
X115111693Y-65324291D01*
X115128122Y-65351081D01*
X115139803Y-65400407D01*
X115141067Y-65429239D01*
X115141067Y-65740893D01*
G37*
G36*
X114230774Y-65212107D02*
G01*
X114230774Y-66150000D01*
X114536322Y-66150000D01*
X114554152Y-66150000D01*
X114592254Y-66140963D01*
X114605687Y-66114584D01*
X114578087Y-66077948D01*
X114551953Y-66068667D01*
X114543893Y-66060851D01*
X114535589Y-66026168D01*
X114535589Y-65340334D01*
X114543893Y-65304431D01*
X114551953Y-65296371D01*
X114578087Y-65286845D01*
X114605687Y-65248743D01*
X114592254Y-65221632D01*
X114554152Y-65212107D01*
X114536322Y-65212107D01*
X114230774Y-65212107D01*
G37*
G36*
X114092044Y-65954117D02*
G01*
X114092044Y-65411409D01*
X114096604Y-65361572D01*
X114106454Y-65331786D01*
X114128436Y-65303698D01*
X114169469Y-65288311D01*
X114169469Y-65212107D01*
X114119315Y-65213747D01*
X114107676Y-65214794D01*
X114059054Y-65224617D01*
X114011282Y-65243095D01*
X113964360Y-65270229D01*
X113938660Y-65289043D01*
X113900741Y-65322673D01*
X113868073Y-65361034D01*
X113840657Y-65404128D01*
X113818492Y-65451953D01*
X113800754Y-65504145D01*
X113789391Y-65552092D01*
X113781907Y-65602166D01*
X113778304Y-65654367D01*
X113777948Y-65677390D01*
X113779760Y-65728781D01*
X113785195Y-65777991D01*
X113796116Y-65832646D01*
X113811969Y-65884333D01*
X113829483Y-65926273D01*
X113854169Y-65971710D01*
X113883132Y-66012706D01*
X113916372Y-66049261D01*
X113953890Y-66081375D01*
X113977250Y-66097732D01*
X114022313Y-66123194D01*
X114064200Y-66139009D01*
X114113860Y-66147585D01*
X114165418Y-66149989D01*
X114169469Y-66150000D01*
X114169469Y-66076482D01*
X114129413Y-66062805D01*
X114109874Y-66043510D01*
X114095952Y-66009560D01*
X114092079Y-65960788D01*
X114092044Y-65954117D01*
G37*
G36*
X113639706Y-65878401D02*
G01*
X113639706Y-65340334D01*
X113648011Y-65304431D01*
X113656071Y-65296371D01*
X113682205Y-65286845D01*
X113709804Y-65249476D01*
X113696371Y-65221632D01*
X113658269Y-65212107D01*
X113640439Y-65212107D01*
X113334159Y-65212107D01*
X113316329Y-65212107D01*
X113291416Y-65214794D01*
X113272365Y-65227494D01*
X113264794Y-65249232D01*
X113292393Y-65286845D01*
X113318771Y-65296371D01*
X113326587Y-65304431D01*
X113334891Y-65340334D01*
X113334891Y-65914305D01*
X113334159Y-65963825D01*
X113331960Y-65995638D01*
X113319016Y-66037159D01*
X113299232Y-66062072D01*
X113257222Y-66079169D01*
X113257222Y-66169050D01*
X113272365Y-66169050D01*
X113325149Y-66167524D01*
X113376435Y-66162318D01*
X113420621Y-66153419D01*
X113470240Y-66137024D01*
X113515051Y-66115683D01*
X113542254Y-66098709D01*
X113582024Y-66065396D01*
X113611873Y-66025969D01*
X113616259Y-66017620D01*
X113632288Y-65967411D01*
X113638584Y-65916285D01*
X113639706Y-65878401D01*
G37*
G36*
X113193963Y-66169050D02*
G01*
X113193963Y-66079169D01*
X113145683Y-66067182D01*
X113100589Y-66042026D01*
X113079413Y-66023237D01*
X113049655Y-65980726D01*
X113033322Y-65932411D01*
X113027350Y-65881057D01*
X113027145Y-65868632D01*
X113027145Y-65423621D01*
X113032845Y-65373971D01*
X113055291Y-65325829D01*
X113094764Y-65291482D01*
X113099197Y-65289043D01*
X113127041Y-65269504D01*
X113133391Y-65246057D01*
X113120446Y-65219923D01*
X113077948Y-65212107D01*
X112909665Y-65212107D01*
X112881088Y-65213328D01*
X112866922Y-65218457D01*
X112849092Y-65247278D01*
X112860083Y-65273412D01*
X112889637Y-65292463D01*
X112926261Y-65326026D01*
X112937020Y-65344242D01*
X112951712Y-65391622D01*
X112954117Y-65423621D01*
X112954117Y-65869364D01*
X112957292Y-65924182D01*
X112966817Y-65973839D01*
X112985124Y-66023537D01*
X113004919Y-66057676D01*
X113037297Y-66095617D01*
X113078742Y-66127377D01*
X113111409Y-66145115D01*
X113159800Y-66162135D01*
X113193963Y-66169050D01*
G37*
G36*
X112023796Y-65193545D02*
G01*
X112023796Y-65278297D01*
X112069847Y-65298342D01*
X112084368Y-65314933D01*
X112101579Y-65362999D01*
X112104396Y-65401639D01*
X112104396Y-65966329D01*
X112104396Y-65995638D01*
X112097801Y-66028611D01*
X112080949Y-66058164D01*
X112057501Y-66077459D01*
X112023796Y-66085275D01*
X112023796Y-66169050D01*
X112080456Y-66165743D01*
X112133751Y-66155820D01*
X112183679Y-66139283D01*
X112230242Y-66116130D01*
X112255338Y-66099930D01*
X112296020Y-66066774D01*
X112331359Y-66028367D01*
X112361355Y-65984708D01*
X112386008Y-65935799D01*
X112403138Y-65888882D01*
X112416061Y-65838319D01*
X112424777Y-65784109D01*
X112428898Y-65734742D01*
X112429972Y-65691556D01*
X112428186Y-65640768D01*
X112422827Y-65591721D01*
X112412530Y-65538624D01*
X112401395Y-65498848D01*
X112383292Y-65450439D01*
X112361132Y-65405777D01*
X112331752Y-65360549D01*
X112318597Y-65343754D01*
X112282151Y-65304785D01*
X112241508Y-65270920D01*
X112196666Y-65242159D01*
X112187194Y-65237020D01*
X112139834Y-65215639D01*
X112089060Y-65201266D01*
X112039672Y-65196475D01*
X112023796Y-65193545D01*
G37*
G36*
X111969574Y-65279030D02*
G01*
X111969574Y-65194277D01*
X111921911Y-65206925D01*
X111915108Y-65209420D01*
X111870179Y-65228710D01*
X111839148Y-65243126D01*
X111792254Y-65259002D01*
X111762212Y-65237020D01*
X111753175Y-65216748D01*
X111722156Y-65196475D01*
X111693824Y-65206978D01*
X111683810Y-65237508D01*
X111683810Y-65528401D01*
X111696266Y-65573342D01*
X111724354Y-65587264D01*
X111750732Y-65576273D01*
X111766852Y-65540369D01*
X111780255Y-65492842D01*
X111795184Y-65451953D01*
X111818483Y-65404818D01*
X111846281Y-65361895D01*
X111862351Y-65342288D01*
X111898866Y-65308248D01*
X111913154Y-65298569D01*
X111960018Y-65280601D01*
X111969574Y-65279030D01*
G37*
G36*
X111967620Y-66169050D02*
G01*
X111967620Y-66085275D01*
X111916239Y-66074689D01*
X111869713Y-66054314D01*
X111855024Y-66045952D01*
X111816400Y-66015052D01*
X111798604Y-65994417D01*
X111772539Y-65951636D01*
X111761479Y-65923586D01*
X111745359Y-65893300D01*
X111720935Y-65884263D01*
X111693579Y-65896475D01*
X111682588Y-65926517D01*
X111693786Y-65974164D01*
X111706280Y-65999790D01*
X111733330Y-66041067D01*
X111767096Y-66078925D01*
X111804253Y-66111253D01*
X111848227Y-66139138D01*
X111860153Y-66144870D01*
X111907487Y-66160888D01*
X111956507Y-66168381D01*
X111967620Y-66169050D01*
G37*
G36*
X111222679Y-65269260D02*
G01*
X111264963Y-65294620D01*
X111272260Y-65303698D01*
X111286164Y-65352566D01*
X111286671Y-65367690D01*
X111286671Y-65979762D01*
X111282519Y-66030931D01*
X111270062Y-66064270D01*
X111228947Y-66091828D01*
X111222679Y-66093579D01*
X111222679Y-66169050D01*
X111278098Y-66161219D01*
X111330047Y-66147069D01*
X111378527Y-66126598D01*
X111423538Y-66099808D01*
X111465081Y-66066697D01*
X111478157Y-66054256D01*
X111516786Y-66010012D01*
X111548868Y-65960628D01*
X111574403Y-65906104D01*
X111590117Y-65858784D01*
X111601640Y-65808174D01*
X111608973Y-65754275D01*
X111612116Y-65697086D01*
X111612247Y-65682274D01*
X111610552Y-65631025D01*
X111605468Y-65581997D01*
X111595507Y-65528683D01*
X111581120Y-65478270D01*
X111576831Y-65466120D01*
X111557002Y-65419698D01*
X111532929Y-65376910D01*
X111500774Y-65333116D01*
X111472051Y-65302233D01*
X111434800Y-65269717D01*
X111391924Y-65240894D01*
X111358234Y-65223831D01*
X111310435Y-65206978D01*
X111258995Y-65196720D01*
X111222679Y-65193545D01*
X111222679Y-65269260D01*
G37*
G36*
X111166259Y-65269260D02*
G01*
X111166259Y-65193545D01*
X111116742Y-65198666D01*
X111066212Y-65210573D01*
X111030704Y-65223831D01*
X110985779Y-65247450D01*
X110943326Y-65278007D01*
X110916399Y-65302233D01*
X110876010Y-65347575D01*
X110842467Y-65398117D01*
X110820562Y-65442294D01*
X110803038Y-65489800D01*
X110789894Y-65540633D01*
X110781132Y-65594794D01*
X110776751Y-65652282D01*
X110776203Y-65682274D01*
X110778295Y-65740286D01*
X110784569Y-65795008D01*
X110795025Y-65846440D01*
X110809665Y-65894583D01*
X110833846Y-65950135D01*
X110864562Y-66000547D01*
X110901814Y-66045819D01*
X110910048Y-66054256D01*
X110950460Y-66089696D01*
X110994392Y-66118714D01*
X111041845Y-66141308D01*
X111092818Y-66157479D01*
X111147312Y-66167228D01*
X111166259Y-66169050D01*
X111166259Y-66093579D01*
X111138660Y-66083077D01*
X111120341Y-66064270D01*
X111103972Y-66015313D01*
X111101779Y-65979762D01*
X111101779Y-65367690D01*
X111109382Y-65318841D01*
X111114235Y-65308583D01*
X111133775Y-65285624D01*
X111166259Y-65269260D01*
G37*
G36*
X110318004Y-65193545D02*
G01*
X110318004Y-65278297D01*
X110364055Y-65298342D01*
X110378576Y-65314933D01*
X110395787Y-65362999D01*
X110398604Y-65401639D01*
X110398604Y-65966329D01*
X110398604Y-65995638D01*
X110392009Y-66028611D01*
X110375157Y-66058164D01*
X110351709Y-66077459D01*
X110318004Y-66085275D01*
X110318004Y-66169050D01*
X110374664Y-66165743D01*
X110427959Y-66155820D01*
X110477887Y-66139283D01*
X110524450Y-66116130D01*
X110549546Y-66099930D01*
X110590228Y-66066774D01*
X110625566Y-66028367D01*
X110655563Y-65984708D01*
X110680216Y-65935799D01*
X110697346Y-65888882D01*
X110710269Y-65838319D01*
X110718985Y-65784109D01*
X110723106Y-65734742D01*
X110724180Y-65691556D01*
X110722394Y-65640768D01*
X110717035Y-65591721D01*
X110706738Y-65538624D01*
X110695603Y-65498848D01*
X110677500Y-65450439D01*
X110655340Y-65405777D01*
X110625960Y-65360549D01*
X110612805Y-65343754D01*
X110576359Y-65304785D01*
X110535716Y-65270920D01*
X110490874Y-65242159D01*
X110481402Y-65237020D01*
X110434042Y-65215639D01*
X110383268Y-65201266D01*
X110333879Y-65196475D01*
X110318004Y-65193545D01*
G37*
G36*
X110263782Y-65279030D02*
G01*
X110263782Y-65194277D01*
X110216119Y-65206925D01*
X110209316Y-65209420D01*
X110164387Y-65228710D01*
X110133356Y-65243126D01*
X110086461Y-65259002D01*
X110056420Y-65237020D01*
X110047383Y-65216748D01*
X110016364Y-65196475D01*
X109988032Y-65206978D01*
X109978018Y-65237508D01*
X109978018Y-65528401D01*
X109990474Y-65573342D01*
X110018562Y-65587264D01*
X110044940Y-65576273D01*
X110061060Y-65540369D01*
X110074463Y-65492842D01*
X110089392Y-65451953D01*
X110112691Y-65404818D01*
X110140489Y-65361895D01*
X110156559Y-65342288D01*
X110193073Y-65308248D01*
X110207362Y-65298569D01*
X110254226Y-65280601D01*
X110263782Y-65279030D01*
G37*
G36*
X110261828Y-66169050D02*
G01*
X110261828Y-66085275D01*
X110210447Y-66074689D01*
X110163921Y-66054314D01*
X110149232Y-66045952D01*
X110110608Y-66015052D01*
X110092812Y-65994417D01*
X110066746Y-65951636D01*
X110055687Y-65923586D01*
X110039567Y-65893300D01*
X110015143Y-65884263D01*
X109987787Y-65896475D01*
X109976796Y-65926517D01*
X109987994Y-65974164D01*
X110000488Y-65999790D01*
X110027538Y-66041067D01*
X110061304Y-66078925D01*
X110098461Y-66111253D01*
X110142435Y-66139138D01*
X110154361Y-66144870D01*
X110201695Y-66160888D01*
X110250715Y-66168381D01*
X110261828Y-66169050D01*
G37*
G36*
X109602861Y-65212107D02*
G01*
X109325889Y-65212107D01*
X109134891Y-66019330D01*
X109122679Y-66057187D01*
X109095080Y-66078436D01*
X109070411Y-66093579D01*
X109063572Y-66114340D01*
X109098884Y-66148746D01*
X109117062Y-66150000D01*
X109459979Y-66150000D01*
X109492951Y-66139986D01*
X109505163Y-66112875D01*
X109499790Y-66091870D01*
X109474877Y-66074528D01*
X109455826Y-66059141D01*
X109450209Y-66037892D01*
X109452163Y-66017131D01*
X109474389Y-65915526D01*
X109665875Y-65915526D01*
X109647313Y-65837369D01*
X109493440Y-65837369D01*
X109619958Y-65281228D01*
X109602861Y-65212107D01*
G37*
G36*
X109650244Y-65391137D02*
G01*
X109615073Y-65534263D01*
X109736706Y-65974389D01*
X109742079Y-66009804D01*
X109724618Y-66055490D01*
X109701535Y-66071109D01*
X109677599Y-66081856D01*
X109654884Y-66116050D01*
X109693406Y-66149469D01*
X109705198Y-66150000D01*
X109879588Y-66150000D01*
X109919888Y-66139497D01*
X109934542Y-66110432D01*
X109904256Y-66077704D01*
X109862735Y-66055478D01*
X109837090Y-66028367D01*
X109814710Y-65983722D01*
X109805338Y-65953872D01*
X109650244Y-65391137D01*
G37*
G36*
X108835205Y-65899895D02*
G01*
X108786759Y-65908871D01*
X108744858Y-65935799D01*
X108734089Y-65946789D01*
X108707261Y-65988401D01*
X108702581Y-65999790D01*
X108691419Y-66048406D01*
X108690858Y-66062072D01*
X108696869Y-66112287D01*
X108712939Y-66158679D01*
X108733600Y-66196894D01*
X108762976Y-66237480D01*
X108797981Y-66274060D01*
X108838615Y-66306632D01*
X108847418Y-66312665D01*
X108892319Y-66338916D01*
X108940250Y-66353170D01*
X108942428Y-66353210D01*
X108965143Y-66344661D01*
X108973935Y-66322435D01*
X108947801Y-66287508D01*
X108902562Y-66260839D01*
X108864186Y-66230367D01*
X108856454Y-66222295D01*
X108829098Y-66181084D01*
X108828855Y-66178332D01*
X108849371Y-66162212D01*
X108858408Y-66160746D01*
X108868667Y-66160013D01*
X108915802Y-66141904D01*
X108941207Y-66118004D01*
X108963721Y-66073370D01*
X108969050Y-66032030D01*
X108960441Y-65983792D01*
X108934612Y-65942637D01*
X108893307Y-65911958D01*
X108842663Y-65900062D01*
X108835205Y-65899895D01*
G37*
G36*
X123568667Y-66892107D02*
G01*
X123568667Y-67700795D01*
X123558408Y-67738897D01*
X123548150Y-67747445D01*
X123516399Y-67755994D01*
X123483426Y-67793363D01*
X123501256Y-67821939D01*
X123544487Y-67830000D01*
X123567934Y-67830000D01*
X123874214Y-67830000D01*
X123892044Y-67830000D01*
X123930146Y-67820963D01*
X123943579Y-67794584D01*
X123915980Y-67757948D01*
X123889846Y-67748667D01*
X123881786Y-67740851D01*
X123873482Y-67706168D01*
X123873482Y-67020334D01*
X123881786Y-66984431D01*
X123889846Y-66976371D01*
X123915980Y-66966845D01*
X123943579Y-66928743D01*
X123930146Y-66901632D01*
X123892044Y-66892107D01*
X123874214Y-66892107D01*
X123568667Y-66892107D01*
G37*
G36*
X123510293Y-67473893D02*
G01*
X123510293Y-67401109D01*
X123468771Y-67386943D01*
X123447766Y-67363740D01*
X123434496Y-67316007D01*
X123433356Y-67292177D01*
X123433356Y-67067229D01*
X123438241Y-67019357D01*
X123457292Y-66990293D01*
X123502626Y-66967746D01*
X123510781Y-66966357D01*
X123510781Y-66892107D01*
X123460352Y-66893051D01*
X123408094Y-66896541D01*
X123357043Y-66903677D01*
X123306239Y-66917321D01*
X123301953Y-66918974D01*
X123256687Y-66941733D01*
X123214113Y-66974207D01*
X123179099Y-67014473D01*
X123154885Y-67058317D01*
X123139639Y-67108029D01*
X123133585Y-67157787D01*
X123133182Y-67175429D01*
X123136097Y-67226246D01*
X123146348Y-67277614D01*
X123166393Y-67327483D01*
X123179832Y-67349574D01*
X123212638Y-67387966D01*
X123252742Y-67419488D01*
X123300145Y-67444142D01*
X123310502Y-67448248D01*
X123359818Y-67461772D01*
X123414399Y-67469661D01*
X123463530Y-67472992D01*
X123510293Y-67473893D01*
G37*
G36*
X122675715Y-66873545D02*
G01*
X122675715Y-66958297D01*
X122721766Y-66978342D01*
X122736287Y-66994933D01*
X122753498Y-67042999D01*
X122756315Y-67081639D01*
X122756315Y-67646329D01*
X122756315Y-67675638D01*
X122749720Y-67708611D01*
X122732868Y-67738164D01*
X122709420Y-67757459D01*
X122675715Y-67765275D01*
X122675715Y-67849050D01*
X122732375Y-67845743D01*
X122785670Y-67835820D01*
X122835598Y-67819283D01*
X122882161Y-67796130D01*
X122907257Y-67779930D01*
X122947939Y-67746774D01*
X122983278Y-67708367D01*
X123013274Y-67664708D01*
X123037927Y-67615799D01*
X123055057Y-67568882D01*
X123067980Y-67518319D01*
X123076696Y-67464109D01*
X123080817Y-67414742D01*
X123081891Y-67371556D01*
X123080105Y-67320768D01*
X123074747Y-67271721D01*
X123064449Y-67218624D01*
X123053314Y-67178848D01*
X123035211Y-67130439D01*
X123013051Y-67085777D01*
X122983671Y-67040549D01*
X122970516Y-67023754D01*
X122934070Y-66984785D01*
X122893427Y-66950920D01*
X122848585Y-66922159D01*
X122839113Y-66917020D01*
X122791753Y-66895639D01*
X122740979Y-66881266D01*
X122691591Y-66876475D01*
X122675715Y-66873545D01*
G37*
G36*
X122621493Y-66959030D02*
G01*
X122621493Y-66874277D01*
X122573830Y-66886925D01*
X122567027Y-66889420D01*
X122522098Y-66908710D01*
X122491067Y-66923126D01*
X122444173Y-66939002D01*
X122414131Y-66917020D01*
X122405094Y-66896748D01*
X122374075Y-66876475D01*
X122345743Y-66886978D01*
X122335729Y-66917508D01*
X122335729Y-67208401D01*
X122348185Y-67253342D01*
X122376273Y-67267264D01*
X122402651Y-67256273D01*
X122418771Y-67220369D01*
X122432174Y-67172842D01*
X122447103Y-67131953D01*
X122470402Y-67084818D01*
X122498200Y-67041895D01*
X122514270Y-67022288D01*
X122550785Y-66988248D01*
X122565073Y-66978569D01*
X122611937Y-66960601D01*
X122621493Y-66959030D01*
G37*
G36*
X122619539Y-67849050D02*
G01*
X122619539Y-67765275D01*
X122568158Y-67754689D01*
X122521632Y-67734314D01*
X122506943Y-67725952D01*
X122468319Y-67695052D01*
X122450523Y-67674417D01*
X122424458Y-67631636D01*
X122413398Y-67603586D01*
X122397278Y-67573300D01*
X122372854Y-67564263D01*
X122345498Y-67576475D01*
X122334508Y-67606517D01*
X122345705Y-67654164D01*
X122358199Y-67679790D01*
X122385249Y-67721067D01*
X122419016Y-67758925D01*
X122456172Y-67791253D01*
X122500146Y-67819138D01*
X122512072Y-67824870D01*
X122559406Y-67840888D01*
X122608426Y-67848381D01*
X122619539Y-67849050D01*
G37*
G36*
X121860921Y-66892107D02*
G01*
X121860921Y-67830000D01*
X122166468Y-67830000D01*
X122184298Y-67830000D01*
X122222400Y-67820963D01*
X122235833Y-67794584D01*
X122208234Y-67757948D01*
X122182100Y-67748667D01*
X122174040Y-67740851D01*
X122165736Y-67706168D01*
X122165736Y-67020334D01*
X122174040Y-66984431D01*
X122182100Y-66976371D01*
X122208234Y-66966845D01*
X122235833Y-66928743D01*
X122222400Y-66901632D01*
X122184298Y-66892107D01*
X122166468Y-66892107D01*
X121860921Y-66892107D01*
G37*
G36*
X121647208Y-67348597D02*
G01*
X121598609Y-67359189D01*
X121552198Y-67372533D01*
X121505715Y-67393186D01*
X121491870Y-67401598D01*
X121453545Y-67433207D01*
X121424665Y-67473082D01*
X121421528Y-67479023D01*
X121403997Y-67526424D01*
X121397318Y-67575218D01*
X121397103Y-67586245D01*
X121402507Y-67641291D01*
X121418719Y-67689926D01*
X121445738Y-67732150D01*
X121483565Y-67767962D01*
X121527508Y-67795564D01*
X121575529Y-67814258D01*
X121582240Y-67816078D01*
X121631579Y-67825092D01*
X121681891Y-67829129D01*
X121723412Y-67830000D01*
X121805233Y-67830000D01*
X121805233Y-67757948D01*
X121762002Y-67750132D01*
X121733914Y-67730348D01*
X121713884Y-67684913D01*
X121711200Y-67651458D01*
X121711200Y-67498318D01*
X121716014Y-67449020D01*
X121717062Y-67445317D01*
X121738555Y-67410635D01*
X121763956Y-67392805D01*
X121803035Y-67384012D01*
X121803035Y-67313182D01*
X121763712Y-67306587D01*
X121737822Y-67290711D01*
X121719504Y-67264089D01*
X121711200Y-67234047D01*
X121711200Y-67196678D01*
X121711200Y-67072114D01*
X121717550Y-67033279D01*
X121732449Y-67001284D01*
X121761758Y-66978080D01*
X121805233Y-66967578D01*
X121805233Y-66892107D01*
X121726099Y-66892107D01*
X121669999Y-66894400D01*
X121619120Y-66901278D01*
X121566360Y-66915097D01*
X121520706Y-66935158D01*
X121487229Y-66957320D01*
X121452106Y-66992564D01*
X121429588Y-67029616D01*
X121413961Y-67076441D01*
X121409560Y-67120963D01*
X121415281Y-67171019D01*
X121429832Y-67212554D01*
X121455921Y-67254160D01*
X121486496Y-67284117D01*
X121529281Y-67311777D01*
X121548290Y-67320265D01*
X121596779Y-67335961D01*
X121647208Y-67348597D01*
G37*
G36*
X120290439Y-67752330D02*
G01*
X120247662Y-67780100D01*
X120223028Y-67783105D01*
X120179797Y-67774556D01*
X120155861Y-67767473D01*
X120140474Y-67776266D01*
X120133147Y-67795073D01*
X120162127Y-67835015D01*
X120166120Y-67837815D01*
X120210930Y-67861629D01*
X120260561Y-67875024D01*
X120287752Y-67876894D01*
X120340387Y-67871035D01*
X120388787Y-67851280D01*
X120418911Y-67827313D01*
X120468981Y-67841357D01*
X120519604Y-67849037D01*
X120527355Y-67849783D01*
X120527355Y-67773579D01*
X120505129Y-67766496D01*
X120489009Y-67753796D01*
X120494626Y-67748178D01*
X120524912Y-67716182D01*
X120553000Y-67704703D01*
X120580111Y-67698108D01*
X120590125Y-67689316D01*
X120596964Y-67668799D01*
X120580600Y-67638025D01*
X120535659Y-67626789D01*
X120497069Y-67631674D01*
X120462875Y-67649016D01*
X120462875Y-67047690D01*
X120470477Y-66998841D01*
X120475331Y-66988583D01*
X120494870Y-66965624D01*
X120527355Y-66949260D01*
X120527355Y-66873545D01*
X120477838Y-66878666D01*
X120427308Y-66890573D01*
X120391800Y-66903831D01*
X120346875Y-66927450D01*
X120304422Y-66958007D01*
X120277494Y-66982233D01*
X120237106Y-67027792D01*
X120203563Y-67078527D01*
X120181658Y-67122842D01*
X120164133Y-67170469D01*
X120150990Y-67221409D01*
X120142228Y-67275662D01*
X120137847Y-67333227D01*
X120137299Y-67363251D01*
X120139692Y-67424201D01*
X120146870Y-67481633D01*
X120158834Y-67535546D01*
X120175584Y-67585940D01*
X120197119Y-67632815D01*
X120223440Y-67676172D01*
X120254547Y-67716011D01*
X120290439Y-67752330D01*
G37*
G36*
X120583775Y-66949260D02*
G01*
X120626058Y-66974620D01*
X120633356Y-66983698D01*
X120647260Y-67032566D01*
X120647766Y-67047690D01*
X120647766Y-67659762D01*
X120643614Y-67710931D01*
X120631158Y-67744270D01*
X120590043Y-67771828D01*
X120583775Y-67773579D01*
X120583775Y-67849050D01*
X120639193Y-67841219D01*
X120691142Y-67827069D01*
X120739623Y-67806598D01*
X120784634Y-67779808D01*
X120826176Y-67746697D01*
X120839253Y-67734256D01*
X120877882Y-67690012D01*
X120909964Y-67640628D01*
X120935499Y-67586104D01*
X120951212Y-67538784D01*
X120962735Y-67488174D01*
X120970068Y-67434275D01*
X120973211Y-67377086D01*
X120973342Y-67362274D01*
X120971647Y-67311025D01*
X120966563Y-67261997D01*
X120956603Y-67208683D01*
X120942215Y-67158270D01*
X120937927Y-67146120D01*
X120918097Y-67099698D01*
X120894024Y-67056910D01*
X120861869Y-67013116D01*
X120833147Y-66982233D01*
X120795895Y-66949717D01*
X120753019Y-66920894D01*
X120719330Y-66903831D01*
X120671530Y-66886978D01*
X120620091Y-66876720D01*
X120583775Y-66873545D01*
X120583775Y-66949260D01*
G37*
G36*
X119994905Y-67558401D02*
G01*
X119994905Y-67020334D01*
X120003210Y-66984431D01*
X120011270Y-66976371D01*
X120037404Y-66966845D01*
X120065003Y-66929476D01*
X120051570Y-66901632D01*
X120013468Y-66892107D01*
X119995638Y-66892107D01*
X119689357Y-66892107D01*
X119671528Y-66892107D01*
X119646615Y-66894794D01*
X119627564Y-66907494D01*
X119619993Y-66929232D01*
X119647592Y-66966845D01*
X119673970Y-66976371D01*
X119681786Y-66984431D01*
X119690090Y-67020334D01*
X119690090Y-67594305D01*
X119689357Y-67643825D01*
X119687159Y-67675638D01*
X119674214Y-67717159D01*
X119654431Y-67742072D01*
X119612421Y-67759169D01*
X119612421Y-67849050D01*
X119627564Y-67849050D01*
X119680348Y-67847524D01*
X119731634Y-67842318D01*
X119775819Y-67833419D01*
X119825439Y-67817024D01*
X119870250Y-67795683D01*
X119897452Y-67778709D01*
X119937223Y-67745396D01*
X119967072Y-67705969D01*
X119971458Y-67697620D01*
X119987486Y-67647411D01*
X119993783Y-67596285D01*
X119994905Y-67558401D01*
G37*
G36*
X119549162Y-67849050D02*
G01*
X119549162Y-67759169D01*
X119500882Y-67747182D01*
X119455788Y-67722026D01*
X119434612Y-67703237D01*
X119404854Y-67660726D01*
X119388520Y-67612411D01*
X119382548Y-67561057D01*
X119382344Y-67548632D01*
X119382344Y-67103621D01*
X119388044Y-67053971D01*
X119410489Y-67005829D01*
X119449963Y-66971482D01*
X119454396Y-66969043D01*
X119482240Y-66949504D01*
X119488590Y-66926057D01*
X119475645Y-66899923D01*
X119433147Y-66892107D01*
X119264863Y-66892107D01*
X119236287Y-66893328D01*
X119222121Y-66898457D01*
X119204291Y-66927278D01*
X119215282Y-66953412D01*
X119244836Y-66972463D01*
X119281460Y-67006026D01*
X119292219Y-67024242D01*
X119306911Y-67071622D01*
X119309316Y-67103621D01*
X119309316Y-67549364D01*
X119312491Y-67604182D01*
X119322016Y-67653839D01*
X119340323Y-67703537D01*
X119360118Y-67737676D01*
X119392496Y-67775617D01*
X119433941Y-67807377D01*
X119466608Y-67825115D01*
X119514999Y-67842135D01*
X119549162Y-67849050D01*
G37*
G36*
X118730949Y-67830000D02*
G01*
X119037229Y-67830000D01*
X119055059Y-67830000D01*
X119093161Y-67820963D01*
X119106594Y-67794584D01*
X119078995Y-67757948D01*
X119052861Y-67748667D01*
X119044801Y-67740851D01*
X119036496Y-67706168D01*
X119036496Y-67020334D01*
X119044801Y-66984431D01*
X119052861Y-66976371D01*
X119078995Y-66966845D01*
X119106594Y-66928743D01*
X119093161Y-66901632D01*
X119055059Y-66892107D01*
X119037229Y-66892107D01*
X118730949Y-66892107D01*
X118713119Y-66892107D01*
X118675017Y-66901632D01*
X118661584Y-66928743D01*
X118689183Y-66966845D01*
X118715561Y-66976371D01*
X118723377Y-66984431D01*
X118731681Y-67020334D01*
X118731681Y-67706168D01*
X118723377Y-67740851D01*
X118715561Y-67748667D01*
X118689183Y-67757948D01*
X118661584Y-67794584D01*
X118675017Y-67820963D01*
X118713119Y-67830000D01*
X118730949Y-67830000D01*
G37*
G36*
X117813084Y-66892107D02*
G01*
X117447697Y-67529825D01*
X117447697Y-67830000D01*
X117635275Y-67830000D01*
X118101779Y-67026196D01*
X118126448Y-66989804D01*
X118151116Y-66974661D01*
X118177250Y-66964891D01*
X118193859Y-66952679D01*
X118199965Y-66932651D01*
X118193859Y-66911158D01*
X118177250Y-66896992D01*
X118126253Y-66892183D01*
X118113991Y-66892107D01*
X117813084Y-66892107D01*
G37*
G36*
X118101046Y-67139525D02*
G01*
X118028262Y-67259448D01*
X118028262Y-67624347D01*
X118022579Y-67674963D01*
X118012142Y-67702749D01*
X117979128Y-67741085D01*
X117960851Y-67753063D01*
X117940334Y-67764542D01*
X117922505Y-67795317D01*
X117935450Y-67821207D01*
X117980879Y-67830000D01*
X118139392Y-67830000D01*
X118188180Y-67820004D01*
X118201919Y-67794584D01*
X118195568Y-67775289D01*
X118166992Y-67755750D01*
X118129447Y-67723914D01*
X118107486Y-67678109D01*
X118101046Y-67624347D01*
X118101046Y-67139525D01*
G37*
G36*
X117447697Y-67420893D02*
G01*
X117520481Y-67298771D01*
X117520481Y-67109239D01*
X117524184Y-67059944D01*
X117537334Y-67018869D01*
X117570603Y-66981302D01*
X117596929Y-66964647D01*
X117616957Y-66949504D01*
X117622330Y-66928743D01*
X117610362Y-66900900D01*
X117571284Y-66892107D01*
X117399581Y-66892107D01*
X117353663Y-66903342D01*
X117341939Y-66930209D01*
X117348534Y-66952435D01*
X117379797Y-66972463D01*
X117418323Y-67004291D01*
X117434752Y-67031081D01*
X117446432Y-67080407D01*
X117447697Y-67109239D01*
X117447697Y-67420893D01*
G37*
G36*
X116887159Y-66892107D02*
G01*
X116887159Y-67830000D01*
X117192707Y-67830000D01*
X117210537Y-67830000D01*
X117248639Y-67820963D01*
X117262072Y-67794584D01*
X117234473Y-67757948D01*
X117208339Y-67748667D01*
X117200279Y-67740851D01*
X117191974Y-67706168D01*
X117191974Y-67020334D01*
X117200279Y-66984431D01*
X117208339Y-66976371D01*
X117234473Y-66966845D01*
X117262072Y-66928743D01*
X117248639Y-66901632D01*
X117210537Y-66892107D01*
X117192707Y-66892107D01*
X116887159Y-66892107D01*
G37*
G36*
X116825854Y-66892107D02*
G01*
X116549127Y-66892107D01*
X116549127Y-67141723D01*
X116557431Y-67165903D01*
X116583565Y-67173475D01*
X116605547Y-67167369D01*
X116618492Y-67142456D01*
X116639345Y-67093277D01*
X116668677Y-67049634D01*
X116695184Y-67023754D01*
X116737145Y-66997616D01*
X116787554Y-66980752D01*
X116825854Y-66974661D01*
X116825854Y-66892107D01*
G37*
G36*
X116829274Y-67396224D02*
G01*
X116829274Y-67317334D01*
X116787619Y-67290047D01*
X116770411Y-67272393D01*
X116747974Y-67228956D01*
X116742079Y-67207424D01*
X116727913Y-67168590D01*
X116702267Y-67157843D01*
X116672226Y-67178604D01*
X116667341Y-67227452D01*
X116667341Y-67486594D01*
X116674668Y-67535198D01*
X116701046Y-67548632D01*
X116725715Y-67538862D01*
X116740125Y-67505645D01*
X116756483Y-67457955D01*
X116773586Y-67430907D01*
X116812971Y-67401598D01*
X116829274Y-67396224D01*
G37*
G36*
X116825366Y-67830000D02*
G01*
X116825366Y-67754773D01*
X116775601Y-67744030D01*
X116751605Y-67735478D01*
X116709346Y-67710533D01*
X116692742Y-67697131D01*
X116657878Y-67660840D01*
X116645847Y-67643886D01*
X116623503Y-67600304D01*
X116612386Y-67571346D01*
X116596755Y-67541060D01*
X116574040Y-67533000D01*
X116547173Y-67544480D01*
X116539602Y-67584535D01*
X116539602Y-67830000D01*
X116825366Y-67830000D01*
G37*
G36*
X115712840Y-66873545D02*
G01*
X115712840Y-66958297D01*
X115758891Y-66978342D01*
X115773412Y-66994933D01*
X115790623Y-67042999D01*
X115793440Y-67081639D01*
X115793440Y-67646329D01*
X115793440Y-67675638D01*
X115786845Y-67708611D01*
X115769993Y-67738164D01*
X115746545Y-67757459D01*
X115712840Y-67765275D01*
X115712840Y-67849050D01*
X115769500Y-67845743D01*
X115822795Y-67835820D01*
X115872723Y-67819283D01*
X115919286Y-67796130D01*
X115944382Y-67779930D01*
X115985064Y-67746774D01*
X116020403Y-67708367D01*
X116050399Y-67664708D01*
X116075052Y-67615799D01*
X116092182Y-67568882D01*
X116105105Y-67518319D01*
X116113821Y-67464109D01*
X116117942Y-67414742D01*
X116119016Y-67371556D01*
X116117230Y-67320768D01*
X116111871Y-67271721D01*
X116101574Y-67218624D01*
X116090439Y-67178848D01*
X116072336Y-67130439D01*
X116050176Y-67085777D01*
X116020796Y-67040549D01*
X116007641Y-67023754D01*
X115971195Y-66984785D01*
X115930552Y-66950920D01*
X115885710Y-66922159D01*
X115876238Y-66917020D01*
X115828878Y-66895639D01*
X115778104Y-66881266D01*
X115728715Y-66876475D01*
X115712840Y-66873545D01*
G37*
G36*
X115658618Y-66959030D02*
G01*
X115658618Y-66874277D01*
X115610955Y-66886925D01*
X115604152Y-66889420D01*
X115559223Y-66908710D01*
X115528192Y-66923126D01*
X115481297Y-66939002D01*
X115451256Y-66917020D01*
X115442219Y-66896748D01*
X115411200Y-66876475D01*
X115382868Y-66886978D01*
X115372854Y-66917508D01*
X115372854Y-67208401D01*
X115385310Y-67253342D01*
X115413398Y-67267264D01*
X115439776Y-67256273D01*
X115455896Y-67220369D01*
X115469299Y-67172842D01*
X115484228Y-67131953D01*
X115507527Y-67084818D01*
X115535325Y-67041895D01*
X115551395Y-67022288D01*
X115587909Y-66988248D01*
X115602198Y-66978569D01*
X115649062Y-66960601D01*
X115658618Y-66959030D01*
G37*
G36*
X115656664Y-67849050D02*
G01*
X115656664Y-67765275D01*
X115605283Y-67754689D01*
X115558757Y-67734314D01*
X115544068Y-67725952D01*
X115505444Y-67695052D01*
X115487648Y-67674417D01*
X115461582Y-67631636D01*
X115450523Y-67603586D01*
X115434403Y-67573300D01*
X115409979Y-67564263D01*
X115382623Y-67576475D01*
X115371632Y-67606517D01*
X115382830Y-67654164D01*
X115395324Y-67679790D01*
X115422374Y-67721067D01*
X115456140Y-67758925D01*
X115493297Y-67791253D01*
X115537271Y-67819138D01*
X115549197Y-67824870D01*
X115596531Y-67840888D01*
X115645551Y-67848381D01*
X115656664Y-67849050D01*
G37*
G36*
X114898046Y-66892107D02*
G01*
X114898046Y-67700795D01*
X114887787Y-67738897D01*
X114877529Y-67747445D01*
X114845778Y-67755994D01*
X114812805Y-67793363D01*
X114830635Y-67821939D01*
X114873866Y-67830000D01*
X114897313Y-67830000D01*
X115203593Y-67830000D01*
X115221423Y-67830000D01*
X115259525Y-67820963D01*
X115272958Y-67794584D01*
X115245359Y-67757948D01*
X115219225Y-67748667D01*
X115211165Y-67740851D01*
X115202861Y-67706168D01*
X115202861Y-67020334D01*
X115211165Y-66984431D01*
X115219225Y-66976371D01*
X115245359Y-66966845D01*
X115272958Y-66928743D01*
X115259525Y-66901632D01*
X115221423Y-66892107D01*
X115203593Y-66892107D01*
X114898046Y-66892107D01*
G37*
G36*
X114687020Y-67374487D02*
G01*
X114637278Y-67383242D01*
X114589811Y-67395736D01*
X114544415Y-67416527D01*
X114528506Y-67426999D01*
X114492831Y-67463177D01*
X114484298Y-67477313D01*
X114469415Y-67525195D01*
X114468667Y-67539351D01*
X114468667Y-67680034D01*
X114454256Y-67704947D01*
X114444975Y-67701284D01*
X114434228Y-67686629D01*
X114399302Y-67658053D01*
X114375854Y-67670509D01*
X114364131Y-67695422D01*
X114380780Y-67742001D01*
X114384403Y-67747690D01*
X114417010Y-67786888D01*
X114434961Y-67802644D01*
X114477861Y-67828960D01*
X114496022Y-67835617D01*
X114544348Y-67844448D01*
X114573691Y-67845631D01*
X114626566Y-67840694D01*
X114675692Y-67823857D01*
X114715352Y-67795073D01*
X114744276Y-67755442D01*
X114761193Y-67706402D01*
X114766154Y-67653656D01*
X114766154Y-67539351D01*
X114766887Y-67495143D01*
X114785202Y-67449248D01*
X114786182Y-67448004D01*
X114829779Y-67422404D01*
X114843091Y-67420160D01*
X114843091Y-67347376D01*
X114795570Y-67332396D01*
X114790090Y-67328325D01*
X114771284Y-67300481D01*
X114766154Y-67254075D01*
X114766154Y-67066496D01*
X114774120Y-67017444D01*
X114783007Y-67002016D01*
X114825887Y-66974181D01*
X114843824Y-66968311D01*
X114843824Y-66892107D01*
X114825994Y-66892107D01*
X114776259Y-66892771D01*
X114724328Y-66895267D01*
X114696057Y-66897725D01*
X114643336Y-66907346D01*
X114594656Y-66925798D01*
X114553907Y-66950237D01*
X114514477Y-66985896D01*
X114486313Y-67028394D01*
X114469415Y-67077732D01*
X114463870Y-67126511D01*
X114463782Y-67133907D01*
X114468554Y-67186080D01*
X114485050Y-67237524D01*
X114513328Y-67282098D01*
X114524110Y-67294131D01*
X114563297Y-67325783D01*
X114583705Y-67337117D01*
X114629772Y-67355936D01*
X114678487Y-67371908D01*
X114687020Y-67374487D01*
G37*
G36*
X114018771Y-66892107D02*
G01*
X113741800Y-66892107D01*
X113550802Y-67699330D01*
X113538590Y-67737187D01*
X113510990Y-67758436D01*
X113486322Y-67773579D01*
X113479483Y-67794340D01*
X113514794Y-67828746D01*
X113532972Y-67830000D01*
X113875889Y-67830000D01*
X113908862Y-67819986D01*
X113921074Y-67792875D01*
X113915701Y-67771870D01*
X113890788Y-67754528D01*
X113871737Y-67739141D01*
X113866120Y-67717892D01*
X113868073Y-67697131D01*
X113890300Y-67595526D01*
X114081786Y-67595526D01*
X114063224Y-67517369D01*
X113909351Y-67517369D01*
X114035868Y-66961228D01*
X114018771Y-66892107D01*
G37*
G36*
X114066154Y-67071137D02*
G01*
X114030983Y-67214263D01*
X114152616Y-67654389D01*
X114157990Y-67689804D01*
X114140529Y-67735490D01*
X114117445Y-67751109D01*
X114093510Y-67761856D01*
X114070795Y-67796050D01*
X114109317Y-67829469D01*
X114121109Y-67830000D01*
X114295498Y-67830000D01*
X114335799Y-67819497D01*
X114350453Y-67790432D01*
X114320167Y-67757704D01*
X114278646Y-67735478D01*
X114253000Y-67708367D01*
X114230620Y-67663722D01*
X114221249Y-67633872D01*
X114066154Y-67071137D01*
G37*
G36*
X112813433Y-66892107D02*
G01*
X112508374Y-66892107D01*
X112489811Y-66892107D01*
X112443309Y-66909423D01*
X112438276Y-66928743D01*
X112465875Y-66966845D01*
X112492254Y-66976371D01*
X112500069Y-66984431D01*
X112508374Y-67020334D01*
X112508374Y-67706168D01*
X112500069Y-67740851D01*
X112492254Y-67748667D01*
X112465875Y-67757948D01*
X112438276Y-67794584D01*
X112474965Y-67829135D01*
X112489811Y-67830000D01*
X112508374Y-67830000D01*
X112814166Y-67830000D01*
X112836880Y-67830000D01*
X112882554Y-67820963D01*
X112897941Y-67793363D01*
X112864968Y-67755994D01*
X112833461Y-67747445D01*
X112823691Y-67739630D01*
X112813433Y-67700795D01*
X112813433Y-66892107D01*
G37*
G36*
X113066224Y-66892107D02*
G01*
X112930914Y-67282651D01*
X112871074Y-67074068D01*
X112871074Y-67302191D01*
X113029832Y-67830000D01*
X113066224Y-67830000D01*
X113332693Y-67039141D01*
X113354263Y-66994124D01*
X113361758Y-66985652D01*
X113392533Y-66972463D01*
X113434436Y-66944986D01*
X113437229Y-66929965D01*
X113424528Y-66902121D01*
X113387648Y-66892107D01*
X113066224Y-66892107D01*
G37*
G36*
X113332693Y-67213775D02*
G01*
X113259909Y-67419427D01*
X113259909Y-67624347D01*
X113257466Y-67669288D01*
X113246964Y-67699330D01*
X113216291Y-67738076D01*
X113207152Y-67744270D01*
X113181751Y-67760635D01*
X113155617Y-67795317D01*
X113192306Y-67829153D01*
X113207152Y-67830000D01*
X113379344Y-67830000D01*
X113425846Y-67813953D01*
X113430879Y-67796050D01*
X113426482Y-67779441D01*
X113408897Y-67766008D01*
X113368711Y-67734647D01*
X113343409Y-67691552D01*
X113333363Y-67642732D01*
X113332693Y-67624347D01*
X113332693Y-67213775D01*
G37*
G36*
X111956385Y-66892107D02*
G01*
X111956385Y-67830000D01*
X112261933Y-67830000D01*
X112279762Y-67830000D01*
X112317864Y-67820963D01*
X112331297Y-67794584D01*
X112303698Y-67757948D01*
X112277564Y-67748667D01*
X112269504Y-67740851D01*
X112261200Y-67706168D01*
X112261200Y-67020334D01*
X112269504Y-66984431D01*
X112277564Y-66976371D01*
X112303698Y-66966845D01*
X112331297Y-66928743D01*
X112317864Y-66901632D01*
X112279762Y-66892107D01*
X112261933Y-66892107D01*
X111956385Y-66892107D01*
G37*
G36*
X111895080Y-66892107D02*
G01*
X111618353Y-66892107D01*
X111618353Y-67141723D01*
X111626657Y-67165903D01*
X111652791Y-67173475D01*
X111674773Y-67167369D01*
X111687718Y-67142456D01*
X111708571Y-67093277D01*
X111737903Y-67049634D01*
X111764410Y-67023754D01*
X111806370Y-66997616D01*
X111856779Y-66980752D01*
X111895080Y-66974661D01*
X111895080Y-66892107D01*
G37*
G36*
X111898499Y-67396224D02*
G01*
X111898499Y-67317334D01*
X111856844Y-67290047D01*
X111839637Y-67272393D01*
X111817199Y-67228956D01*
X111811304Y-67207424D01*
X111797138Y-67168590D01*
X111771493Y-67157843D01*
X111741451Y-67178604D01*
X111736566Y-67227452D01*
X111736566Y-67486594D01*
X111743893Y-67535198D01*
X111770272Y-67548632D01*
X111794940Y-67538862D01*
X111809351Y-67505645D01*
X111825708Y-67457955D01*
X111842812Y-67430907D01*
X111882196Y-67401598D01*
X111898499Y-67396224D01*
G37*
G36*
X111894591Y-67830000D02*
G01*
X111894591Y-67754773D01*
X111844827Y-67744030D01*
X111820830Y-67735478D01*
X111778572Y-67710533D01*
X111761967Y-67697131D01*
X111727104Y-67660840D01*
X111715073Y-67643886D01*
X111692728Y-67600304D01*
X111681612Y-67571346D01*
X111665980Y-67541060D01*
X111643265Y-67533000D01*
X111616399Y-67544480D01*
X111608827Y-67584535D01*
X111608827Y-67830000D01*
X111894591Y-67830000D01*
G37*
G36*
X111134752Y-66892107D02*
G01*
X111134752Y-67700795D01*
X111124494Y-67738897D01*
X111114235Y-67747445D01*
X111082484Y-67755994D01*
X111049511Y-67793363D01*
X111067341Y-67821939D01*
X111110572Y-67830000D01*
X111134019Y-67830000D01*
X111440300Y-67830000D01*
X111458129Y-67830000D01*
X111496231Y-67820963D01*
X111509665Y-67794584D01*
X111482065Y-67757948D01*
X111455931Y-67748667D01*
X111447871Y-67740851D01*
X111439567Y-67706168D01*
X111439567Y-67020334D01*
X111447871Y-66984431D01*
X111455931Y-66976371D01*
X111482065Y-66966845D01*
X111509665Y-66928743D01*
X111496231Y-66901632D01*
X111458129Y-66892107D01*
X111440300Y-66892107D01*
X111134752Y-66892107D01*
G37*
G36*
X110923726Y-67374487D02*
G01*
X110873984Y-67383242D01*
X110826517Y-67395736D01*
X110781121Y-67416527D01*
X110765212Y-67426999D01*
X110729538Y-67463177D01*
X110721004Y-67477313D01*
X110706121Y-67525195D01*
X110705373Y-67539351D01*
X110705373Y-67680034D01*
X110690963Y-67704947D01*
X110681681Y-67701284D01*
X110670935Y-67686629D01*
X110636008Y-67658053D01*
X110612561Y-67670509D01*
X110600837Y-67695422D01*
X110617486Y-67742001D01*
X110621109Y-67747690D01*
X110653716Y-67786888D01*
X110671667Y-67802644D01*
X110714567Y-67828960D01*
X110732728Y-67835617D01*
X110781054Y-67844448D01*
X110810397Y-67845631D01*
X110863272Y-67840694D01*
X110912398Y-67823857D01*
X110952058Y-67795073D01*
X110980982Y-67755442D01*
X110997899Y-67706402D01*
X111002861Y-67653656D01*
X111002861Y-67539351D01*
X111003593Y-67495143D01*
X111021908Y-67449248D01*
X111022889Y-67448004D01*
X111066485Y-67422404D01*
X111079797Y-67420160D01*
X111079797Y-67347376D01*
X111032276Y-67332396D01*
X111026796Y-67328325D01*
X111007990Y-67300481D01*
X111002861Y-67254075D01*
X111002861Y-67066496D01*
X111010826Y-67017444D01*
X111019713Y-67002016D01*
X111062593Y-66974181D01*
X111080530Y-66968311D01*
X111080530Y-66892107D01*
X111062700Y-66892107D01*
X111012965Y-66892771D01*
X110961034Y-66895267D01*
X110932763Y-66897725D01*
X110880042Y-66907346D01*
X110831362Y-66925798D01*
X110790614Y-66950237D01*
X110751184Y-66985896D01*
X110723019Y-67028394D01*
X110706121Y-67077732D01*
X110700576Y-67126511D01*
X110700488Y-67133907D01*
X110705260Y-67186080D01*
X110721756Y-67237524D01*
X110750035Y-67282098D01*
X110760816Y-67294131D01*
X110800004Y-67325783D01*
X110820411Y-67337117D01*
X110866478Y-67355936D01*
X110915194Y-67371908D01*
X110923726Y-67374487D01*
G37*
G36*
X110255478Y-66892107D02*
G01*
X109978506Y-66892107D01*
X109787508Y-67699330D01*
X109775296Y-67737187D01*
X109747697Y-67758436D01*
X109723028Y-67773579D01*
X109716189Y-67794340D01*
X109751501Y-67828746D01*
X109769678Y-67830000D01*
X110112595Y-67830000D01*
X110145568Y-67819986D01*
X110157780Y-67792875D01*
X110152407Y-67771870D01*
X110127494Y-67754528D01*
X110108443Y-67739141D01*
X110102826Y-67717892D01*
X110104780Y-67697131D01*
X110127006Y-67595526D01*
X110318492Y-67595526D01*
X110299930Y-67517369D01*
X110146057Y-67517369D01*
X110272575Y-66961228D01*
X110255478Y-66892107D01*
G37*
G36*
X110302861Y-67071137D02*
G01*
X110267690Y-67214263D01*
X110389323Y-67654389D01*
X110394696Y-67689804D01*
X110377235Y-67735490D01*
X110354152Y-67751109D01*
X110330216Y-67761856D01*
X110307501Y-67796050D01*
X110346023Y-67829469D01*
X110357815Y-67830000D01*
X110532205Y-67830000D01*
X110572505Y-67819497D01*
X110587159Y-67790432D01*
X110556873Y-67757704D01*
X110515352Y-67735478D01*
X110489706Y-67708367D01*
X110467327Y-67663722D01*
X110457955Y-67633872D01*
X110302861Y-67071137D01*
G37*
G36*
X108939497Y-66892107D02*
G01*
X108939497Y-67700795D01*
X108929239Y-67738897D01*
X108918981Y-67747445D01*
X108887229Y-67755994D01*
X108854256Y-67793363D01*
X108872086Y-67821939D01*
X108915317Y-67830000D01*
X108938764Y-67830000D01*
X109245045Y-67830000D01*
X109262875Y-67830000D01*
X109300976Y-67820963D01*
X109314410Y-67794584D01*
X109286810Y-67757948D01*
X109260676Y-67748667D01*
X109252616Y-67740851D01*
X109244312Y-67706168D01*
X109244312Y-67020334D01*
X109252616Y-66984431D01*
X109260676Y-66976371D01*
X109286810Y-66966845D01*
X109314410Y-66928743D01*
X109300976Y-66901632D01*
X109262875Y-66892107D01*
X109245045Y-66892107D01*
X108939497Y-66892107D01*
G37*
G36*
X108881123Y-67473893D02*
G01*
X108881123Y-67401109D01*
X108839602Y-67386943D01*
X108818597Y-67363740D01*
X108805326Y-67316007D01*
X108804187Y-67292177D01*
X108804187Y-67067229D01*
X108809071Y-67019357D01*
X108828122Y-66990293D01*
X108873456Y-66967746D01*
X108881612Y-66966357D01*
X108881612Y-66892107D01*
X108831182Y-66893051D01*
X108778924Y-66896541D01*
X108727874Y-66903677D01*
X108677069Y-66917321D01*
X108672784Y-66918974D01*
X108627518Y-66941733D01*
X108584943Y-66974207D01*
X108549930Y-67014473D01*
X108525715Y-67058317D01*
X108510469Y-67108029D01*
X108504416Y-67157787D01*
X108504012Y-67175429D01*
X108506928Y-67226246D01*
X108517178Y-67277614D01*
X108537223Y-67327483D01*
X108550662Y-67349574D01*
X108583468Y-67387966D01*
X108623573Y-67419488D01*
X108670976Y-67444142D01*
X108681332Y-67448248D01*
X108730648Y-67461772D01*
X108785230Y-67469661D01*
X108834360Y-67472992D01*
X108881123Y-67473893D01*
G37*
G36*
X108149127Y-66892107D02*
G01*
X107872156Y-66892107D01*
X107681158Y-67699330D01*
X107668946Y-67737187D01*
X107641346Y-67758436D01*
X107616678Y-67773579D01*
X107609839Y-67794340D01*
X107645150Y-67828746D01*
X107663328Y-67830000D01*
X108006245Y-67830000D01*
X108039218Y-67819986D01*
X108051430Y-67792875D01*
X108046057Y-67771870D01*
X108021144Y-67754528D01*
X108002093Y-67739141D01*
X107996475Y-67717892D01*
X107998429Y-67697131D01*
X108020655Y-67595526D01*
X108212142Y-67595526D01*
X108193579Y-67517369D01*
X108039706Y-67517369D01*
X108166224Y-66961228D01*
X108149127Y-66892107D01*
G37*
G36*
X108196510Y-67071137D02*
G01*
X108161339Y-67214263D01*
X108282972Y-67654389D01*
X108288346Y-67689804D01*
X108270885Y-67735490D01*
X108247801Y-67751109D01*
X108223866Y-67761856D01*
X108201151Y-67796050D01*
X108239673Y-67829469D01*
X108251465Y-67830000D01*
X108425854Y-67830000D01*
X108466154Y-67819497D01*
X108480809Y-67790432D01*
X108450523Y-67757704D01*
X108409002Y-67735478D01*
X108383356Y-67708367D01*
X108360976Y-67663722D01*
X108351605Y-67633872D01*
X108196510Y-67071137D01*
G37*
G36*
X107241277Y-66873545D02*
G01*
X107241277Y-66953900D01*
X107286576Y-66973516D01*
X107306245Y-66990048D01*
X107327408Y-67034836D01*
X107328471Y-67049888D01*
X107317142Y-67098480D01*
X107309909Y-67110216D01*
X107273418Y-67144324D01*
X107249581Y-67159064D01*
X107202381Y-67182145D01*
X107154463Y-67203889D01*
X107118911Y-67219637D01*
X107073299Y-67240461D01*
X107029778Y-67263878D01*
X107023168Y-67267997D01*
X106982162Y-67299061D01*
X106958932Y-67321730D01*
X106927336Y-67360566D01*
X106900729Y-67408727D01*
X106884257Y-67460919D01*
X106878160Y-67509893D01*
X106877843Y-67524452D01*
X106882137Y-67578257D01*
X106895017Y-67629152D01*
X106916483Y-67677137D01*
X106921807Y-67686385D01*
X106952504Y-67729232D01*
X106989642Y-67765878D01*
X107033219Y-67796323D01*
X107042707Y-67801667D01*
X107088770Y-67822404D01*
X107133077Y-67836350D01*
X107183377Y-67846260D01*
X107224668Y-67849050D01*
X107224668Y-67770648D01*
X107175921Y-67754670D01*
X107138450Y-67730593D01*
X107114648Y-67686451D01*
X107112072Y-67660739D01*
X107125132Y-67612362D01*
X107153349Y-67579651D01*
X107196407Y-67552414D01*
X107243651Y-67529454D01*
X107257641Y-67523230D01*
X107305259Y-67502103D01*
X107351615Y-67480841D01*
X107373412Y-67470230D01*
X107417091Y-67444632D01*
X107433496Y-67433105D01*
X107477405Y-67396420D01*
X107512230Y-67355424D01*
X107537970Y-67310118D01*
X107554625Y-67260502D01*
X107562195Y-67206574D01*
X107562700Y-67187641D01*
X107558891Y-67135183D01*
X107547462Y-67085610D01*
X107530460Y-67043049D01*
X107505265Y-67000435D01*
X107470866Y-66960925D01*
X107440334Y-66936071D01*
X107397760Y-66911005D01*
X107350392Y-66892229D01*
X107298231Y-66879742D01*
X107248658Y-66873975D01*
X107241277Y-66873545D01*
G37*
G36*
X107187055Y-66953900D02*
G01*
X107187055Y-66876964D01*
X107137717Y-66884612D01*
X107115736Y-66890886D01*
X107070816Y-66910300D01*
X107029762Y-66931919D01*
X107007048Y-66939002D01*
X106987752Y-66929476D01*
X106972609Y-66908227D01*
X106945743Y-66892107D01*
X106918632Y-66903098D01*
X106910083Y-66937292D01*
X106910083Y-67168834D01*
X106921563Y-67205959D01*
X106950628Y-67220369D01*
X106976029Y-67211088D01*
X106986043Y-67197166D01*
X106993126Y-67169567D01*
X107007797Y-67122563D01*
X107019260Y-67097271D01*
X107044943Y-67053708D01*
X107062735Y-67030593D01*
X107099685Y-66995304D01*
X107142695Y-66969366D01*
X107187055Y-66953900D01*
G37*
G36*
X107276936Y-67770648D02*
G01*
X107276936Y-67849050D01*
X107328501Y-67842926D01*
X107376197Y-67827928D01*
X107401256Y-67817055D01*
X107436427Y-67802156D01*
X107454745Y-67798736D01*
X107475505Y-67802156D01*
X107497487Y-67818764D01*
X107524110Y-67830000D01*
X107561343Y-67797591D01*
X107562700Y-67780907D01*
X107562700Y-67533244D01*
X107551709Y-67500516D01*
X107524110Y-67486106D01*
X107500662Y-67494898D01*
X107485764Y-67527138D01*
X107469208Y-67577027D01*
X107447322Y-67624110D01*
X107440090Y-67637048D01*
X107412054Y-67678722D01*
X107377657Y-67716732D01*
X107370237Y-67723510D01*
X107329665Y-67752236D01*
X107283511Y-67769262D01*
X107276936Y-67770648D01*
G37*
G36*
X106603314Y-67579895D02*
G01*
X106552329Y-67589665D01*
X106509281Y-67618974D01*
X106481056Y-67658869D01*
X106469996Y-67709115D01*
X106469958Y-67712519D01*
X106478598Y-67760726D01*
X106506861Y-67804338D01*
X106509281Y-67806796D01*
X106549405Y-67834671D01*
X106599895Y-67845593D01*
X106603314Y-67845631D01*
X106651750Y-67837098D01*
X106695607Y-67809186D01*
X106698080Y-67806796D01*
X106726130Y-67766618D01*
X106737121Y-67715953D01*
X106737159Y-67712519D01*
X106727390Y-67661777D01*
X106698080Y-67618974D01*
X106657673Y-67590924D01*
X106606764Y-67579933D01*
X106603314Y-67579895D01*
G37*
X151469819Y-127836779D02*
X150469819Y-127836779D01*
X150469819Y-127836779D02*
X151184104Y-128170112D01*
X151184104Y-128170112D02*
X150469819Y-128503445D01*
X150469819Y-128503445D02*
X151469819Y-128503445D01*
X150469819Y-129170112D02*
X150469819Y-129360588D01*
X150469819Y-129360588D02*
X150517438Y-129455826D01*
X150517438Y-129455826D02*
X150612676Y-129551064D01*
X150612676Y-129551064D02*
X150803152Y-129598683D01*
X150803152Y-129598683D02*
X151136485Y-129598683D01*
X151136485Y-129598683D02*
X151326961Y-129551064D01*
X151326961Y-129551064D02*
X151422200Y-129455826D01*
X151422200Y-129455826D02*
X151469819Y-129360588D01*
X151469819Y-129360588D02*
X151469819Y-129170112D01*
X151469819Y-129170112D02*
X151422200Y-129074874D01*
X151422200Y-129074874D02*
X151326961Y-128979636D01*
X151326961Y-128979636D02*
X151136485Y-128932017D01*
X151136485Y-128932017D02*
X150803152Y-128932017D01*
X150803152Y-128932017D02*
X150612676Y-128979636D01*
X150612676Y-128979636D02*
X150517438Y-129074874D01*
X150517438Y-129074874D02*
X150469819Y-129170112D01*
X151422200Y-129979636D02*
X151469819Y-130122493D01*
X151469819Y-130122493D02*
X151469819Y-130360588D01*
X151469819Y-130360588D02*
X151422200Y-130455826D01*
X151422200Y-130455826D02*
X151374580Y-130503445D01*
X151374580Y-130503445D02*
X151279342Y-130551064D01*
X151279342Y-130551064D02*
X151184104Y-130551064D01*
X151184104Y-130551064D02*
X151088866Y-130503445D01*
X151088866Y-130503445D02*
X151041247Y-130455826D01*
X151041247Y-130455826D02*
X150993628Y-130360588D01*
X150993628Y-130360588D02*
X150946009Y-130170112D01*
X150946009Y-130170112D02*
X150898390Y-130074874D01*
X150898390Y-130074874D02*
X150850771Y-130027255D01*
X150850771Y-130027255D02*
X150755533Y-129979636D01*
X150755533Y-129979636D02*
X150660295Y-129979636D01*
X150660295Y-129979636D02*
X150565057Y-130027255D01*
X150565057Y-130027255D02*
X150517438Y-130074874D01*
X150517438Y-130074874D02*
X150469819Y-130170112D01*
X150469819Y-130170112D02*
X150469819Y-130408207D01*
X150469819Y-130408207D02*
X150517438Y-130551064D01*
X151469819Y-130979636D02*
X150469819Y-130979636D01*
X94413220Y-102619819D02*
X94413220Y-101619819D01*
X94413220Y-101619819D02*
X94032268Y-101619819D01*
X94032268Y-101619819D02*
X93937030Y-101667438D01*
X93937030Y-101667438D02*
X93889411Y-101715057D01*
X93889411Y-101715057D02*
X93841792Y-101810295D01*
X93841792Y-101810295D02*
X93841792Y-101953152D01*
X93841792Y-101953152D02*
X93889411Y-102048390D01*
X93889411Y-102048390D02*
X93937030Y-102096009D01*
X93937030Y-102096009D02*
X94032268Y-102143628D01*
X94032268Y-102143628D02*
X94413220Y-102143628D01*
X93508458Y-101619819D02*
X93270363Y-102619819D01*
X93270363Y-102619819D02*
X93079887Y-101905533D01*
X93079887Y-101905533D02*
X92889411Y-102619819D01*
X92889411Y-102619819D02*
X92651316Y-101619819D01*
X92270363Y-102619819D02*
X92270363Y-101619819D01*
X92270363Y-101619819D02*
X91937030Y-102334104D01*
X91937030Y-102334104D02*
X91603697Y-101619819D01*
X91603697Y-101619819D02*
X91603697Y-102619819D01*
X148874580Y-130008207D02*
X148922200Y-129960588D01*
X148922200Y-129960588D02*
X148969819Y-129817731D01*
X148969819Y-129817731D02*
X148969819Y-129722493D01*
X148969819Y-129722493D02*
X148922200Y-129579636D01*
X148922200Y-129579636D02*
X148826961Y-129484398D01*
X148826961Y-129484398D02*
X148731723Y-129436779D01*
X148731723Y-129436779D02*
X148541247Y-129389160D01*
X148541247Y-129389160D02*
X148398390Y-129389160D01*
X148398390Y-129389160D02*
X148207914Y-129436779D01*
X148207914Y-129436779D02*
X148112676Y-129484398D01*
X148112676Y-129484398D02*
X148017438Y-129579636D01*
X148017438Y-129579636D02*
X147969819Y-129722493D01*
X147969819Y-129722493D02*
X147969819Y-129817731D01*
X147969819Y-129817731D02*
X148017438Y-129960588D01*
X148017438Y-129960588D02*
X148065057Y-130008207D01*
X148922200Y-130389160D02*
X148969819Y-130532017D01*
X148969819Y-130532017D02*
X148969819Y-130770112D01*
X148969819Y-130770112D02*
X148922200Y-130865350D01*
X148922200Y-130865350D02*
X148874580Y-130912969D01*
X148874580Y-130912969D02*
X148779342Y-130960588D01*
X148779342Y-130960588D02*
X148684104Y-130960588D01*
X148684104Y-130960588D02*
X148588866Y-130912969D01*
X148588866Y-130912969D02*
X148541247Y-130865350D01*
X148541247Y-130865350D02*
X148493628Y-130770112D01*
X148493628Y-130770112D02*
X148446009Y-130579636D01*
X148446009Y-130579636D02*
X148398390Y-130484398D01*
X148398390Y-130484398D02*
X148350771Y-130436779D01*
X148350771Y-130436779D02*
X148255533Y-130389160D01*
X148255533Y-130389160D02*
X148160295Y-130389160D01*
X148160295Y-130389160D02*
X148065057Y-130436779D01*
X148065057Y-130436779D02*
X148017438Y-130484398D01*
X148017438Y-130484398D02*
X147969819Y-130579636D01*
X147969819Y-130579636D02*
X147969819Y-130817731D01*
X147969819Y-130817731D02*
X148017438Y-130960588D01*
X94663220Y-118869819D02*
X94663220Y-117869819D01*
X94663220Y-117869819D02*
X94282268Y-117869819D01*
X94282268Y-117869819D02*
X94187030Y-117917438D01*
X94187030Y-117917438D02*
X94139411Y-117965057D01*
X94139411Y-117965057D02*
X94091792Y-118060295D01*
X94091792Y-118060295D02*
X94091792Y-118203152D01*
X94091792Y-118203152D02*
X94139411Y-118298390D01*
X94139411Y-118298390D02*
X94187030Y-118346009D01*
X94187030Y-118346009D02*
X94282268Y-118393628D01*
X94282268Y-118393628D02*
X94663220Y-118393628D01*
X93758458Y-117869819D02*
X93520363Y-118869819D01*
X93520363Y-118869819D02*
X93329887Y-118155533D01*
X93329887Y-118155533D02*
X93139411Y-118869819D01*
X93139411Y-118869819D02*
X92901316Y-117869819D01*
X92520363Y-118869819D02*
X92520363Y-117869819D01*
X92520363Y-117869819D02*
X92187030Y-118584104D01*
X92187030Y-118584104D02*
X91853697Y-117869819D01*
X91853697Y-117869819D02*
X91853697Y-118869819D01*
X110430180Y-130913220D02*
X111430180Y-130913220D01*
X111430180Y-130913220D02*
X110715895Y-130579887D01*
X110715895Y-130579887D02*
X111430180Y-130246554D01*
X111430180Y-130246554D02*
X110430180Y-130246554D01*
X111430180Y-129579887D02*
X111430180Y-129389411D01*
X111430180Y-129389411D02*
X111382561Y-129294173D01*
X111382561Y-129294173D02*
X111287323Y-129198935D01*
X111287323Y-129198935D02*
X111096847Y-129151316D01*
X111096847Y-129151316D02*
X110763514Y-129151316D01*
X110763514Y-129151316D02*
X110573038Y-129198935D01*
X110573038Y-129198935D02*
X110477800Y-129294173D01*
X110477800Y-129294173D02*
X110430180Y-129389411D01*
X110430180Y-129389411D02*
X110430180Y-129579887D01*
X110430180Y-129579887D02*
X110477800Y-129675125D01*
X110477800Y-129675125D02*
X110573038Y-129770363D01*
X110573038Y-129770363D02*
X110763514Y-129817982D01*
X110763514Y-129817982D02*
X111096847Y-129817982D01*
X111096847Y-129817982D02*
X111287323Y-129770363D01*
X111287323Y-129770363D02*
X111382561Y-129675125D01*
X111382561Y-129675125D02*
X111430180Y-129579887D01*
X110477800Y-128770363D02*
X110430180Y-128627506D01*
X110430180Y-128627506D02*
X110430180Y-128389411D01*
X110430180Y-128389411D02*
X110477800Y-128294173D01*
X110477800Y-128294173D02*
X110525419Y-128246554D01*
X110525419Y-128246554D02*
X110620657Y-128198935D01*
X110620657Y-128198935D02*
X110715895Y-128198935D01*
X110715895Y-128198935D02*
X110811133Y-128246554D01*
X110811133Y-128246554D02*
X110858752Y-128294173D01*
X110858752Y-128294173D02*
X110906371Y-128389411D01*
X110906371Y-128389411D02*
X110953990Y-128579887D01*
X110953990Y-128579887D02*
X111001609Y-128675125D01*
X111001609Y-128675125D02*
X111049228Y-128722744D01*
X111049228Y-128722744D02*
X111144466Y-128770363D01*
X111144466Y-128770363D02*
X111239704Y-128770363D01*
X111239704Y-128770363D02*
X111334942Y-128722744D01*
X111334942Y-128722744D02*
X111382561Y-128675125D01*
X111382561Y-128675125D02*
X111430180Y-128579887D01*
X111430180Y-128579887D02*
X111430180Y-128341792D01*
X111430180Y-128341792D02*
X111382561Y-128198935D01*
X110430180Y-127770363D02*
X111430180Y-127770363D01*
X136591792Y-76774580D02*
X136639411Y-76822200D01*
X136639411Y-76822200D02*
X136782268Y-76869819D01*
X136782268Y-76869819D02*
X136877506Y-76869819D01*
X136877506Y-76869819D02*
X137020363Y-76822200D01*
X137020363Y-76822200D02*
X137115601Y-76726961D01*
X137115601Y-76726961D02*
X137163220Y-76631723D01*
X137163220Y-76631723D02*
X137210839Y-76441247D01*
X137210839Y-76441247D02*
X137210839Y-76298390D01*
X137210839Y-76298390D02*
X137163220Y-76107914D01*
X137163220Y-76107914D02*
X137115601Y-76012676D01*
X137115601Y-76012676D02*
X137020363Y-75917438D01*
X137020363Y-75917438D02*
X136877506Y-75869819D01*
X136877506Y-75869819D02*
X136782268Y-75869819D01*
X136782268Y-75869819D02*
X136639411Y-75917438D01*
X136639411Y-75917438D02*
X136591792Y-75965057D01*
X136210839Y-76584104D02*
X135734649Y-76584104D01*
X136306077Y-76869819D02*
X135972744Y-75869819D01*
X135972744Y-75869819D02*
X135639411Y-76869819D01*
X134734649Y-76869819D02*
X135067982Y-76393628D01*
X135306077Y-76869819D02*
X135306077Y-75869819D01*
X135306077Y-75869819D02*
X134925125Y-75869819D01*
X134925125Y-75869819D02*
X134829887Y-75917438D01*
X134829887Y-75917438D02*
X134782268Y-75965057D01*
X134782268Y-75965057D02*
X134734649Y-76060295D01*
X134734649Y-76060295D02*
X134734649Y-76203152D01*
X134734649Y-76203152D02*
X134782268Y-76298390D01*
X134782268Y-76298390D02*
X134829887Y-76346009D01*
X134829887Y-76346009D02*
X134925125Y-76393628D01*
X134925125Y-76393628D02*
X135306077Y-76393628D01*
X134448934Y-75869819D02*
X133877506Y-75869819D01*
X134163220Y-76869819D02*
X134163220Y-75869819D01*
X133544172Y-76346009D02*
X133210839Y-76346009D01*
X133067982Y-76869819D02*
X133544172Y-76869819D01*
X133544172Y-76869819D02*
X133544172Y-75869819D01*
X133544172Y-75869819D02*
X133067982Y-75869819D01*
X131877505Y-76869819D02*
X131877505Y-75869819D01*
X131877505Y-75869819D02*
X131639410Y-75869819D01*
X131639410Y-75869819D02*
X131496553Y-75917438D01*
X131496553Y-75917438D02*
X131401315Y-76012676D01*
X131401315Y-76012676D02*
X131353696Y-76107914D01*
X131353696Y-76107914D02*
X131306077Y-76298390D01*
X131306077Y-76298390D02*
X131306077Y-76441247D01*
X131306077Y-76441247D02*
X131353696Y-76631723D01*
X131353696Y-76631723D02*
X131401315Y-76726961D01*
X131401315Y-76726961D02*
X131496553Y-76822200D01*
X131496553Y-76822200D02*
X131639410Y-76869819D01*
X131639410Y-76869819D02*
X131877505Y-76869819D01*
X130829886Y-75869819D02*
X130925124Y-76060295D01*
X130401315Y-76346009D02*
X130067982Y-76346009D01*
X129925125Y-76869819D02*
X130401315Y-76869819D01*
X130401315Y-76869819D02*
X130401315Y-75869819D01*
X130401315Y-75869819D02*
X129925125Y-75869819D01*
X129591791Y-75869819D02*
X128925125Y-76869819D01*
X128925125Y-75869819D02*
X129591791Y-76869819D01*
X128687029Y-75869819D02*
X128115601Y-75869819D01*
X128401315Y-76869819D02*
X128401315Y-75869819D01*
X127782267Y-76346009D02*
X127448934Y-76346009D01*
X127306077Y-76869819D02*
X127782267Y-76869819D01*
X127782267Y-76869819D02*
X127782267Y-75869819D01*
X127782267Y-75869819D02*
X127306077Y-75869819D01*
X126877505Y-76869819D02*
X126877505Y-75869819D01*
X126877505Y-75869819D02*
X126306077Y-76869819D01*
X126306077Y-76869819D02*
X126306077Y-75869819D01*
X125877505Y-76822200D02*
X125734648Y-76869819D01*
X125734648Y-76869819D02*
X125496553Y-76869819D01*
X125496553Y-76869819D02*
X125401315Y-76822200D01*
X125401315Y-76822200D02*
X125353696Y-76774580D01*
X125353696Y-76774580D02*
X125306077Y-76679342D01*
X125306077Y-76679342D02*
X125306077Y-76584104D01*
X125306077Y-76584104D02*
X125353696Y-76488866D01*
X125353696Y-76488866D02*
X125401315Y-76441247D01*
X125401315Y-76441247D02*
X125496553Y-76393628D01*
X125496553Y-76393628D02*
X125687029Y-76346009D01*
X125687029Y-76346009D02*
X125782267Y-76298390D01*
X125782267Y-76298390D02*
X125829886Y-76250771D01*
X125829886Y-76250771D02*
X125877505Y-76155533D01*
X125877505Y-76155533D02*
X125877505Y-76060295D01*
X125877505Y-76060295D02*
X125829886Y-75965057D01*
X125829886Y-75965057D02*
X125782267Y-75917438D01*
X125782267Y-75917438D02*
X125687029Y-75869819D01*
X125687029Y-75869819D02*
X125448934Y-75869819D01*
X125448934Y-75869819D02*
X125306077Y-75917438D01*
X124877505Y-76869819D02*
X124877505Y-75869819D01*
X124210839Y-75869819D02*
X124020363Y-75869819D01*
X124020363Y-75869819D02*
X123925125Y-75917438D01*
X123925125Y-75917438D02*
X123829887Y-76012676D01*
X123829887Y-76012676D02*
X123782268Y-76203152D01*
X123782268Y-76203152D02*
X123782268Y-76536485D01*
X123782268Y-76536485D02*
X123829887Y-76726961D01*
X123829887Y-76726961D02*
X123925125Y-76822200D01*
X123925125Y-76822200D02*
X124020363Y-76869819D01*
X124020363Y-76869819D02*
X124210839Y-76869819D01*
X124210839Y-76869819D02*
X124306077Y-76822200D01*
X124306077Y-76822200D02*
X124401315Y-76726961D01*
X124401315Y-76726961D02*
X124448934Y-76536485D01*
X124448934Y-76536485D02*
X124448934Y-76203152D01*
X124448934Y-76203152D02*
X124401315Y-76012676D01*
X124401315Y-76012676D02*
X124306077Y-75917438D01*
X124306077Y-75917438D02*
X124210839Y-75869819D01*
X123353696Y-76869819D02*
X123353696Y-75869819D01*
X123353696Y-75869819D02*
X122782268Y-76869819D01*
X122782268Y-76869819D02*
X122782268Y-75869819D01*
X121544172Y-76869819D02*
X121544172Y-75869819D01*
X121544172Y-75869819D02*
X120972744Y-76869819D01*
X120972744Y-76869819D02*
X120972744Y-75869819D01*
X120496553Y-75869819D02*
X120496553Y-76679342D01*
X120496553Y-76679342D02*
X120448934Y-76774580D01*
X120448934Y-76774580D02*
X120401315Y-76822200D01*
X120401315Y-76822200D02*
X120306077Y-76869819D01*
X120306077Y-76869819D02*
X120115601Y-76869819D01*
X120115601Y-76869819D02*
X120020363Y-76822200D01*
X120020363Y-76822200D02*
X119972744Y-76774580D01*
X119972744Y-76774580D02*
X119925125Y-76679342D01*
X119925125Y-76679342D02*
X119925125Y-75869819D01*
X118877506Y-76774580D02*
X118925125Y-76822200D01*
X118925125Y-76822200D02*
X119067982Y-76869819D01*
X119067982Y-76869819D02*
X119163220Y-76869819D01*
X119163220Y-76869819D02*
X119306077Y-76822200D01*
X119306077Y-76822200D02*
X119401315Y-76726961D01*
X119401315Y-76726961D02*
X119448934Y-76631723D01*
X119448934Y-76631723D02*
X119496553Y-76441247D01*
X119496553Y-76441247D02*
X119496553Y-76298390D01*
X119496553Y-76298390D02*
X119448934Y-76107914D01*
X119448934Y-76107914D02*
X119401315Y-76012676D01*
X119401315Y-76012676D02*
X119306077Y-75917438D01*
X119306077Y-75917438D02*
X119163220Y-75869819D01*
X119163220Y-75869819D02*
X119067982Y-75869819D01*
X119067982Y-75869819D02*
X118925125Y-75917438D01*
X118925125Y-75917438D02*
X118877506Y-75965057D01*
X117972744Y-76869819D02*
X118448934Y-76869819D01*
X118448934Y-76869819D02*
X118448934Y-75869819D01*
X117639410Y-76346009D02*
X117306077Y-76346009D01*
X117163220Y-76869819D02*
X117639410Y-76869819D01*
X117639410Y-76869819D02*
X117639410Y-75869819D01*
X117639410Y-75869819D02*
X117163220Y-75869819D01*
X116544172Y-75869819D02*
X116353696Y-75869819D01*
X116353696Y-75869819D02*
X116258458Y-75917438D01*
X116258458Y-75917438D02*
X116163220Y-76012676D01*
X116163220Y-76012676D02*
X116115601Y-76203152D01*
X116115601Y-76203152D02*
X116115601Y-76536485D01*
X116115601Y-76536485D02*
X116163220Y-76726961D01*
X116163220Y-76726961D02*
X116258458Y-76822200D01*
X116258458Y-76822200D02*
X116353696Y-76869819D01*
X116353696Y-76869819D02*
X116544172Y-76869819D01*
X116544172Y-76869819D02*
X116639410Y-76822200D01*
X116639410Y-76822200D02*
X116734648Y-76726961D01*
X116734648Y-76726961D02*
X116782267Y-76536485D01*
X116782267Y-76536485D02*
X116782267Y-76203152D01*
X116782267Y-76203152D02*
X116734648Y-76012676D01*
X116734648Y-76012676D02*
X116639410Y-75917438D01*
X116639410Y-75917438D02*
X116544172Y-75869819D01*
X115687029Y-76488866D02*
X114925125Y-76488866D01*
X114020363Y-75869819D02*
X114210839Y-75869819D01*
X114210839Y-75869819D02*
X114306077Y-75917438D01*
X114306077Y-75917438D02*
X114353696Y-75965057D01*
X114353696Y-75965057D02*
X114448934Y-76107914D01*
X114448934Y-76107914D02*
X114496553Y-76298390D01*
X114496553Y-76298390D02*
X114496553Y-76679342D01*
X114496553Y-76679342D02*
X114448934Y-76774580D01*
X114448934Y-76774580D02*
X114401315Y-76822200D01*
X114401315Y-76822200D02*
X114306077Y-76869819D01*
X114306077Y-76869819D02*
X114115601Y-76869819D01*
X114115601Y-76869819D02*
X114020363Y-76822200D01*
X114020363Y-76822200D02*
X113972744Y-76774580D01*
X113972744Y-76774580D02*
X113925125Y-76679342D01*
X113925125Y-76679342D02*
X113925125Y-76441247D01*
X113925125Y-76441247D02*
X113972744Y-76346009D01*
X113972744Y-76346009D02*
X114020363Y-76298390D01*
X114020363Y-76298390D02*
X114115601Y-76250771D01*
X114115601Y-76250771D02*
X114306077Y-76250771D01*
X114306077Y-76250771D02*
X114401315Y-76298390D01*
X114401315Y-76298390D02*
X114448934Y-76346009D01*
X114448934Y-76346009D02*
X114496553Y-76441247D01*
X113067982Y-76203152D02*
X113067982Y-76869819D01*
X113306077Y-75822200D02*
X113544172Y-76536485D01*
X113544172Y-76536485D02*
X112925125Y-76536485D01*
G36*
X142668318Y-72892107D02*
G01*
X142391346Y-72892107D01*
X142200348Y-73699330D01*
X142188136Y-73737187D01*
X142160537Y-73758436D01*
X142135868Y-73773579D01*
X142129030Y-73794340D01*
X142164341Y-73828746D01*
X142182519Y-73830000D01*
X142525436Y-73830000D01*
X142558408Y-73819986D01*
X142570621Y-73792875D01*
X142565247Y-73771870D01*
X142540334Y-73754528D01*
X142521284Y-73739141D01*
X142515666Y-73717892D01*
X142517620Y-73697131D01*
X142539846Y-73595526D01*
X142731332Y-73595526D01*
X142712770Y-73517369D01*
X142558897Y-73517369D01*
X142685415Y-72961228D01*
X142668318Y-72892107D01*
G37*
G36*
X142715701Y-73071137D02*
G01*
X142680530Y-73214263D01*
X142802163Y-73654389D01*
X142807536Y-73689804D01*
X142790075Y-73735490D01*
X142766992Y-73751109D01*
X142743056Y-73761856D01*
X142720341Y-73796050D01*
X142758863Y-73829469D01*
X142770655Y-73830000D01*
X142945045Y-73830000D01*
X142985345Y-73819497D01*
X143000000Y-73790432D01*
X142969713Y-73757704D01*
X142928192Y-73735478D01*
X142902547Y-73708367D01*
X142880167Y-73663722D01*
X142870795Y-73633872D01*
X142715701Y-73071137D01*
G37*
G36*
X141702093Y-72892107D02*
G01*
X141702093Y-73700795D01*
X141691835Y-73738897D01*
X141681577Y-73747445D01*
X141649825Y-73755994D01*
X141616852Y-73793363D01*
X141634682Y-73821939D01*
X141677913Y-73830000D01*
X141701360Y-73830000D01*
X142007641Y-73830000D01*
X142025471Y-73830000D01*
X142063572Y-73820963D01*
X142077006Y-73794584D01*
X142049406Y-73757948D01*
X142023272Y-73748667D01*
X142015212Y-73740851D01*
X142006908Y-73706168D01*
X142006908Y-73020334D01*
X142015212Y-72984431D01*
X142023272Y-72976371D01*
X142049406Y-72966845D01*
X142077006Y-72928743D01*
X142063572Y-72901632D01*
X142025471Y-72892107D01*
X142007641Y-72892107D01*
X141702093Y-72892107D01*
G37*
G36*
X141491067Y-73374487D02*
G01*
X141441326Y-73383242D01*
X141393859Y-73395736D01*
X141348463Y-73416527D01*
X141332554Y-73426999D01*
X141296879Y-73463177D01*
X141288346Y-73477313D01*
X141273462Y-73525195D01*
X141272714Y-73539351D01*
X141272714Y-73680034D01*
X141258304Y-73704947D01*
X141249023Y-73701284D01*
X141238276Y-73686629D01*
X141203349Y-73658053D01*
X141179902Y-73670509D01*
X141168178Y-73695422D01*
X141184827Y-73742001D01*
X141188450Y-73747690D01*
X141221058Y-73786888D01*
X141239009Y-73802644D01*
X141281908Y-73828960D01*
X141300069Y-73835617D01*
X141348395Y-73844448D01*
X141377739Y-73845631D01*
X141430613Y-73840694D01*
X141479739Y-73823857D01*
X141519399Y-73795073D01*
X141548323Y-73755442D01*
X141565241Y-73706402D01*
X141570202Y-73653656D01*
X141570202Y-73539351D01*
X141570935Y-73495143D01*
X141589250Y-73449248D01*
X141590230Y-73448004D01*
X141633826Y-73422404D01*
X141647138Y-73420160D01*
X141647138Y-73347376D01*
X141599618Y-73332396D01*
X141594138Y-73328325D01*
X141575331Y-73300481D01*
X141570202Y-73254075D01*
X141570202Y-73066496D01*
X141578167Y-73017444D01*
X141587055Y-73002016D01*
X141629934Y-72974181D01*
X141647871Y-72968311D01*
X141647871Y-72892107D01*
X141630041Y-72892107D01*
X141580306Y-72892771D01*
X141528375Y-72895267D01*
X141500104Y-72897725D01*
X141447383Y-72907346D01*
X141398703Y-72925798D01*
X141357955Y-72950237D01*
X141318525Y-72985896D01*
X141290361Y-73028394D01*
X141273462Y-73077732D01*
X141267917Y-73126511D01*
X141267829Y-73133907D01*
X141272601Y-73186080D01*
X141289097Y-73237524D01*
X141317376Y-73282098D01*
X141328157Y-73294131D01*
X141367345Y-73325783D01*
X141387752Y-73337117D01*
X141433819Y-73355936D01*
X141482535Y-73371908D01*
X141491067Y-73374487D01*
G37*
G36*
X140723168Y-72892107D02*
G01*
X140723168Y-73830000D01*
X141028715Y-73830000D01*
X141046545Y-73830000D01*
X141084647Y-73820963D01*
X141098080Y-73794584D01*
X141070481Y-73757948D01*
X141044347Y-73748667D01*
X141036287Y-73740851D01*
X141027983Y-73706168D01*
X141027983Y-73020334D01*
X141036287Y-72984431D01*
X141044347Y-72976371D01*
X141070481Y-72966845D01*
X141098080Y-72928743D01*
X141084647Y-72901632D01*
X141046545Y-72892107D01*
X141028715Y-72892107D01*
X140723168Y-72892107D01*
G37*
G36*
X140661863Y-72892107D02*
G01*
X140385136Y-72892107D01*
X140385136Y-73141723D01*
X140393440Y-73165903D01*
X140419574Y-73173475D01*
X140441556Y-73167369D01*
X140454501Y-73142456D01*
X140475354Y-73093277D01*
X140504686Y-73049634D01*
X140531193Y-73023754D01*
X140573153Y-72997616D01*
X140623562Y-72980752D01*
X140661863Y-72974661D01*
X140661863Y-72892107D01*
G37*
G36*
X140665282Y-73396224D02*
G01*
X140665282Y-73317334D01*
X140623627Y-73290047D01*
X140606420Y-73272393D01*
X140583982Y-73228956D01*
X140578087Y-73207424D01*
X140563921Y-73168590D01*
X140538276Y-73157843D01*
X140508234Y-73178604D01*
X140503349Y-73227452D01*
X140503349Y-73486594D01*
X140510676Y-73535198D01*
X140537055Y-73548632D01*
X140561723Y-73538862D01*
X140576133Y-73505645D01*
X140592491Y-73457955D01*
X140609595Y-73430907D01*
X140648979Y-73401598D01*
X140665282Y-73396224D01*
G37*
G36*
X140661374Y-73830000D02*
G01*
X140661374Y-73754773D01*
X140611610Y-73744030D01*
X140587613Y-73735478D01*
X140545355Y-73710533D01*
X140528750Y-73697131D01*
X140493887Y-73660840D01*
X140481856Y-73643886D01*
X140459511Y-73600304D01*
X140448394Y-73571346D01*
X140432763Y-73541060D01*
X140410048Y-73533000D01*
X140383182Y-73544480D01*
X140375610Y-73584535D01*
X140375610Y-73830000D01*
X140661374Y-73830000D01*
G37*
G36*
X139662421Y-72892107D02*
G01*
X139357362Y-72892107D01*
X139338799Y-72892107D01*
X139292297Y-72909423D01*
X139287264Y-72928743D01*
X139314863Y-72966845D01*
X139341242Y-72976371D01*
X139349057Y-72984431D01*
X139357362Y-73020334D01*
X139357362Y-73706168D01*
X139349057Y-73740851D01*
X139341242Y-73748667D01*
X139314863Y-73757948D01*
X139287264Y-73794584D01*
X139323953Y-73829135D01*
X139338799Y-73830000D01*
X139357362Y-73830000D01*
X139663154Y-73830000D01*
X139685868Y-73830000D01*
X139731542Y-73820963D01*
X139746929Y-73793363D01*
X139713956Y-73755994D01*
X139682449Y-73747445D01*
X139672679Y-73739630D01*
X139662421Y-73700795D01*
X139662421Y-72892107D01*
G37*
G36*
X139915212Y-72892107D02*
G01*
X139779902Y-73282651D01*
X139720062Y-73074068D01*
X139720062Y-73302191D01*
X139878820Y-73830000D01*
X139915212Y-73830000D01*
X140181681Y-73039141D01*
X140203251Y-72994124D01*
X140210746Y-72985652D01*
X140241521Y-72972463D01*
X140283424Y-72944986D01*
X140286217Y-72929965D01*
X140273517Y-72902121D01*
X140236636Y-72892107D01*
X139915212Y-72892107D01*
G37*
G36*
X140181681Y-73213775D02*
G01*
X140108897Y-73419427D01*
X140108897Y-73624347D01*
X140106454Y-73669288D01*
X140095952Y-73699330D01*
X140065280Y-73738076D01*
X140056140Y-73744270D01*
X140030739Y-73760635D01*
X140004605Y-73795317D01*
X140041294Y-73829153D01*
X140056140Y-73830000D01*
X140228332Y-73830000D01*
X140274834Y-73813953D01*
X140279867Y-73796050D01*
X140275471Y-73779441D01*
X140257885Y-73766008D01*
X140217699Y-73734647D01*
X140192397Y-73691552D01*
X140182351Y-73642732D01*
X140181681Y-73624347D01*
X140181681Y-73213775D01*
G37*
G36*
X138584577Y-72882581D02*
G01*
X138584577Y-72957076D01*
X138616085Y-72968799D01*
X138627320Y-72983698D01*
X138608757Y-73004214D01*
X138571984Y-73037783D01*
X138564061Y-73049888D01*
X138550717Y-73098581D01*
X138550383Y-73109239D01*
X138560275Y-73157477D01*
X138589951Y-73198632D01*
X138632876Y-73226659D01*
X138683007Y-73236001D01*
X138733493Y-73227200D01*
X138775500Y-73200796D01*
X138780460Y-73195945D01*
X138808510Y-73153924D01*
X138819386Y-73103424D01*
X138819539Y-73096050D01*
X138812079Y-73044873D01*
X138791656Y-73000207D01*
X138785589Y-72991025D01*
X138751161Y-72952257D01*
X138710737Y-72923373D01*
X138693021Y-72914089D01*
X138644047Y-72896317D01*
X138593387Y-72884307D01*
X138584577Y-72882581D01*
G37*
G36*
X138524249Y-72957076D02*
G01*
X138524249Y-72880383D01*
X138505687Y-72892107D01*
X138453091Y-72895404D01*
X138402281Y-72905296D01*
X138369399Y-72915554D01*
X138323730Y-72935533D01*
X138281154Y-72962990D01*
X138261200Y-72980279D01*
X138229357Y-73017388D01*
X138204408Y-73064647D01*
X138190974Y-73117741D01*
X138188415Y-73156378D01*
X138192743Y-73206137D01*
X138207703Y-73257619D01*
X138233348Y-73305094D01*
X138243126Y-73318555D01*
X138277395Y-73355963D01*
X138318929Y-73388502D01*
X138361946Y-73413338D01*
X138397976Y-73429441D01*
X138487857Y-73464612D01*
X138535057Y-73485983D01*
X138581116Y-73509545D01*
X138598499Y-73518834D01*
X138619016Y-73530314D01*
X138668833Y-73536754D01*
X138672016Y-73537641D01*
X138720265Y-73554762D01*
X138745533Y-73565240D01*
X138712946Y-73525855D01*
X138695708Y-73508332D01*
X138657051Y-73474279D01*
X138620481Y-73444829D01*
X138581005Y-73413557D01*
X138543359Y-73381611D01*
X138533531Y-73372288D01*
X138502678Y-73332855D01*
X138495429Y-73320265D01*
X138477755Y-73273657D01*
X138472470Y-73249190D01*
X138466753Y-73199527D01*
X138465150Y-73149518D01*
X138465143Y-73145631D01*
X138466349Y-73095027D01*
X138471248Y-73044351D01*
X138484438Y-72996887D01*
X138500558Y-72973684D01*
X138524249Y-72957076D01*
G37*
G36*
X138193789Y-73533000D02*
G01*
X138168876Y-73544724D01*
X138158862Y-73576720D01*
X138165962Y-73626983D01*
X138184019Y-73676371D01*
X138207781Y-73720389D01*
X138239746Y-73760735D01*
X138244103Y-73765031D01*
X138284944Y-73795467D01*
X138318841Y-73811926D01*
X138367579Y-73826540D01*
X138403349Y-73830000D01*
X138452808Y-73827130D01*
X138501616Y-73819226D01*
X138504954Y-73818520D01*
X138595568Y-73798981D01*
X138645314Y-73789306D01*
X138694487Y-73783105D01*
X138741839Y-73799454D01*
X138758478Y-73812170D01*
X138790718Y-73830000D01*
X138815143Y-73819497D01*
X138823691Y-73789211D01*
X138816328Y-73738676D01*
X138806594Y-73711786D01*
X138781696Y-73668330D01*
X138759699Y-73642665D01*
X138721053Y-73612322D01*
X138675181Y-73591909D01*
X138622083Y-73581427D01*
X138589462Y-73579895D01*
X138538919Y-73582326D01*
X138489761Y-73587647D01*
X138454152Y-73592595D01*
X138403911Y-73599828D01*
X138351509Y-73606517D01*
X138300033Y-73610995D01*
X138292219Y-73611158D01*
X138244379Y-73598322D01*
X138243370Y-73597480D01*
X138234822Y-73585757D01*
X138226762Y-73562065D01*
X138193789Y-73533000D01*
G37*
G36*
X137705059Y-73841967D02*
G01*
X137756865Y-73831995D01*
X137804206Y-73815635D01*
X137833286Y-73801179D01*
X137874102Y-73773163D01*
X137912650Y-73737111D01*
X137937090Y-73708611D01*
X137967734Y-73665177D01*
X137993418Y-73617306D01*
X138012292Y-73570429D01*
X138017690Y-73554005D01*
X138030913Y-73502878D01*
X138039809Y-73449239D01*
X138044083Y-73399452D01*
X138045045Y-73360809D01*
X138043335Y-73309854D01*
X138038206Y-73260792D01*
X138028349Y-73207859D01*
X138017690Y-73168346D01*
X138000156Y-73120271D01*
X137978603Y-73075790D01*
X137949943Y-73030581D01*
X137937090Y-73013740D01*
X137903225Y-72975502D01*
X137864110Y-72941556D01*
X137833286Y-72921416D01*
X137788922Y-72900648D01*
X137740092Y-72886337D01*
X137705059Y-72880383D01*
X137705059Y-72953412D01*
X137731926Y-72964403D01*
X137746336Y-72978080D01*
X137764188Y-73024982D01*
X137766120Y-73053551D01*
X137766120Y-73674173D01*
X137759145Y-73722808D01*
X137746336Y-73746957D01*
X137731926Y-73760146D01*
X137705059Y-73770648D01*
X137705059Y-73841967D01*
G37*
G36*
X137652302Y-73841967D02*
G01*
X137652302Y-73770648D01*
X137625436Y-73760146D01*
X137611025Y-73746957D01*
X137592582Y-73699186D01*
X137590997Y-73674173D01*
X137590997Y-73053551D01*
X137598058Y-73003144D01*
X137611025Y-72978080D01*
X137625436Y-72964403D01*
X137652302Y-72953412D01*
X137652302Y-72880383D01*
X137600531Y-72890390D01*
X137553292Y-72906853D01*
X137524319Y-72921416D01*
X137483321Y-72949283D01*
X137444589Y-72985255D01*
X137420027Y-73013740D01*
X137389406Y-73057174D01*
X137363794Y-73105045D01*
X137345026Y-73151921D01*
X137339672Y-73168346D01*
X137326330Y-73219415D01*
X137317355Y-73272880D01*
X137313042Y-73322415D01*
X137312072Y-73360809D01*
X137313797Y-73412085D01*
X137318972Y-73461376D01*
X137328917Y-73514457D01*
X137339672Y-73554005D01*
X137357087Y-73602080D01*
X137378561Y-73646561D01*
X137407178Y-73691769D01*
X137420027Y-73708611D01*
X137454059Y-73746878D01*
X137493358Y-73780921D01*
X137524319Y-73801179D01*
X137572424Y-73823228D01*
X137621551Y-73836927D01*
X137652302Y-73841967D01*
G37*
G36*
X136977459Y-72882581D02*
G01*
X136977459Y-72957076D01*
X137008967Y-72968799D01*
X137020202Y-72983698D01*
X137001639Y-73004214D01*
X136964866Y-73037783D01*
X136956943Y-73049888D01*
X136943599Y-73098581D01*
X136943265Y-73109239D01*
X136953157Y-73157477D01*
X136982833Y-73198632D01*
X137025758Y-73226659D01*
X137075889Y-73236001D01*
X137126375Y-73227200D01*
X137168382Y-73200796D01*
X137173342Y-73195945D01*
X137201392Y-73153924D01*
X137212268Y-73103424D01*
X137212421Y-73096050D01*
X137204961Y-73044873D01*
X137184538Y-73000207D01*
X137178471Y-72991025D01*
X137144043Y-72952257D01*
X137103619Y-72923373D01*
X137085903Y-72914089D01*
X137036929Y-72896317D01*
X136986269Y-72884307D01*
X136977459Y-72882581D01*
G37*
G36*
X136917131Y-72957076D02*
G01*
X136917131Y-72880383D01*
X136898569Y-72892107D01*
X136845973Y-72895404D01*
X136795163Y-72905296D01*
X136762281Y-72915554D01*
X136716612Y-72935533D01*
X136674036Y-72962990D01*
X136654082Y-72980279D01*
X136622239Y-73017388D01*
X136597290Y-73064647D01*
X136583856Y-73117741D01*
X136581297Y-73156378D01*
X136585625Y-73206137D01*
X136600585Y-73257619D01*
X136626231Y-73305094D01*
X136636008Y-73318555D01*
X136670277Y-73355963D01*
X136711811Y-73388502D01*
X136754828Y-73413338D01*
X136790858Y-73429441D01*
X136880739Y-73464612D01*
X136927939Y-73485983D01*
X136973998Y-73509545D01*
X136991381Y-73518834D01*
X137011898Y-73530314D01*
X137061715Y-73536754D01*
X137064898Y-73537641D01*
X137113147Y-73554762D01*
X137138415Y-73565240D01*
X137105828Y-73525855D01*
X137088590Y-73508332D01*
X137049933Y-73474279D01*
X137013363Y-73444829D01*
X136973887Y-73413557D01*
X136936241Y-73381611D01*
X136926413Y-73372288D01*
X136895560Y-73332855D01*
X136888311Y-73320265D01*
X136870637Y-73273657D01*
X136865352Y-73249190D01*
X136859635Y-73199527D01*
X136858032Y-73149518D01*
X136858025Y-73145631D01*
X136859231Y-73095027D01*
X136864130Y-73044351D01*
X136877320Y-72996887D01*
X136893440Y-72973684D01*
X136917131Y-72957076D01*
G37*
G36*
X136586671Y-73533000D02*
G01*
X136561758Y-73544724D01*
X136551744Y-73576720D01*
X136558844Y-73626983D01*
X136576901Y-73676371D01*
X136600663Y-73720389D01*
X136632629Y-73760735D01*
X136636985Y-73765031D01*
X136677826Y-73795467D01*
X136711723Y-73811926D01*
X136760461Y-73826540D01*
X136796231Y-73830000D01*
X136845690Y-73827130D01*
X136894498Y-73819226D01*
X136897836Y-73818520D01*
X136988450Y-73798981D01*
X137038196Y-73789306D01*
X137087369Y-73783105D01*
X137134721Y-73799454D01*
X137151360Y-73812170D01*
X137183600Y-73830000D01*
X137208025Y-73819497D01*
X137216573Y-73789211D01*
X137209210Y-73738676D01*
X137199476Y-73711786D01*
X137174578Y-73668330D01*
X137152581Y-73642665D01*
X137113935Y-73612322D01*
X137068063Y-73591909D01*
X137014965Y-73581427D01*
X136982344Y-73579895D01*
X136931801Y-73582326D01*
X136882644Y-73587647D01*
X136847034Y-73592595D01*
X136796793Y-73599828D01*
X136744391Y-73606517D01*
X136692915Y-73610995D01*
X136685101Y-73611158D01*
X136637261Y-73598322D01*
X136636252Y-73597480D01*
X136627704Y-73585757D01*
X136619644Y-73562065D01*
X136586671Y-73533000D01*
G37*
G36*
X136098674Y-73073335D02*
G01*
X135990718Y-72920195D01*
X135967515Y-72896748D01*
X135929658Y-72892107D01*
X135869818Y-72892107D01*
X135840509Y-72901388D01*
X135836357Y-72930942D01*
X135836357Y-73548632D01*
X135750383Y-73548632D01*
X135715945Y-73578918D01*
X135754535Y-73611158D01*
X135836357Y-73611158D01*
X135836357Y-73699085D01*
X135826099Y-73737920D01*
X135815840Y-73745980D01*
X135784089Y-73754528D01*
X135751148Y-73790745D01*
X135751116Y-73792630D01*
X135768946Y-73821695D01*
X135812909Y-73830000D01*
X135835624Y-73830000D01*
X136099406Y-73830000D01*
X136122121Y-73830000D01*
X136165352Y-73821695D01*
X136183182Y-73792630D01*
X136150209Y-73754528D01*
X136118946Y-73745980D01*
X136108932Y-73737920D01*
X136098674Y-73699085D01*
X136098674Y-73073335D01*
G37*
G36*
X136152896Y-73149050D02*
G01*
X136152896Y-73250167D01*
X136368562Y-73548632D01*
X136152896Y-73548632D01*
X136152896Y-73611158D01*
X136392742Y-73611158D01*
X136433042Y-73602365D01*
X136443545Y-73569881D01*
X136429233Y-73522827D01*
X136420097Y-73509064D01*
X136409839Y-73494898D01*
X136152896Y-73149050D01*
G37*
G36*
X135440928Y-73579895D02*
G01*
X135392482Y-73588871D01*
X135350581Y-73615799D01*
X135339811Y-73626789D01*
X135312983Y-73668401D01*
X135308304Y-73679790D01*
X135297141Y-73728406D01*
X135296580Y-73742072D01*
X135302591Y-73792287D01*
X135318661Y-73838679D01*
X135339323Y-73876894D01*
X135368699Y-73917480D01*
X135403703Y-73954060D01*
X135444337Y-73986632D01*
X135453140Y-73992665D01*
X135498042Y-74018916D01*
X135545972Y-74033170D01*
X135548150Y-74033210D01*
X135570865Y-74024661D01*
X135579658Y-74002435D01*
X135553524Y-73967508D01*
X135508284Y-73940839D01*
X135469909Y-73910367D01*
X135462177Y-73902295D01*
X135434820Y-73861084D01*
X135434577Y-73858332D01*
X135455094Y-73842212D01*
X135464131Y-73840746D01*
X135474389Y-73840013D01*
X135521525Y-73821904D01*
X135546929Y-73798004D01*
X135569443Y-73753370D01*
X135574773Y-73712030D01*
X135566163Y-73663792D01*
X135540334Y-73622637D01*
X135499029Y-73591958D01*
X135448386Y-73580062D01*
X135440928Y-73579895D01*
G37*
G36*
X134286392Y-72892107D02*
G01*
X134286392Y-73700795D01*
X134276133Y-73738897D01*
X134265875Y-73747445D01*
X134234368Y-73755994D01*
X134201395Y-73793363D01*
X134219225Y-73821939D01*
X134263189Y-73830000D01*
X134285903Y-73830000D01*
X134592184Y-73830000D01*
X134614898Y-73830000D01*
X134660572Y-73820963D01*
X134675959Y-73793363D01*
X134642986Y-73755994D01*
X134611479Y-73747445D01*
X134601709Y-73738897D01*
X134591451Y-73700795D01*
X134591451Y-72892107D01*
X134286392Y-72892107D01*
G37*
G36*
X134048743Y-72892107D02*
G01*
X134048743Y-73177627D01*
X134060223Y-73208646D01*
X134089288Y-73220369D01*
X134117864Y-73209134D01*
X134132519Y-73177627D01*
X134139357Y-73135617D01*
X134151035Y-73086446D01*
X134170643Y-73039803D01*
X134179413Y-73024731D01*
X134212784Y-72988601D01*
X134229483Y-72977348D01*
X134229483Y-72892107D01*
X134048743Y-72892107D01*
G37*
G36*
X134827878Y-72892107D02*
G01*
X134647138Y-72892107D01*
X134647138Y-72977348D01*
X134686039Y-73009331D01*
X134697208Y-73024731D01*
X134719421Y-73069036D01*
X134733517Y-73116037D01*
X134737264Y-73135617D01*
X134744103Y-73177627D01*
X134759002Y-73209134D01*
X134787334Y-73220369D01*
X134816643Y-73208646D01*
X134827878Y-73177627D01*
X134827878Y-72892107D01*
G37*
G36*
X133607885Y-72949260D02*
G01*
X133650168Y-72974620D01*
X133657466Y-72983698D01*
X133671370Y-73032566D01*
X133671877Y-73047690D01*
X133671877Y-73659762D01*
X133667725Y-73710931D01*
X133655268Y-73744270D01*
X133614153Y-73771828D01*
X133607885Y-73773579D01*
X133607885Y-73849050D01*
X133663303Y-73841219D01*
X133715253Y-73827069D01*
X133763733Y-73806598D01*
X133808744Y-73779808D01*
X133850287Y-73746697D01*
X133863363Y-73734256D01*
X133901992Y-73690012D01*
X133934074Y-73640628D01*
X133959609Y-73586104D01*
X133975322Y-73538784D01*
X133986846Y-73488174D01*
X133994179Y-73434275D01*
X133997321Y-73377086D01*
X133997452Y-73362274D01*
X133995758Y-73311025D01*
X133990674Y-73261997D01*
X133980713Y-73208683D01*
X133966326Y-73158270D01*
X133962037Y-73146120D01*
X133942208Y-73099698D01*
X133918135Y-73056910D01*
X133885980Y-73013116D01*
X133857257Y-72982233D01*
X133820006Y-72949717D01*
X133777130Y-72920894D01*
X133743440Y-72903831D01*
X133695641Y-72886978D01*
X133644201Y-72876720D01*
X133607885Y-72873545D01*
X133607885Y-72949260D01*
G37*
G36*
X133551465Y-72949260D02*
G01*
X133551465Y-72873545D01*
X133501948Y-72878666D01*
X133451418Y-72890573D01*
X133415910Y-72903831D01*
X133370985Y-72927450D01*
X133328532Y-72958007D01*
X133301605Y-72982233D01*
X133261216Y-73027575D01*
X133227673Y-73078117D01*
X133205768Y-73122294D01*
X133188243Y-73169800D01*
X133175100Y-73220633D01*
X133166338Y-73274794D01*
X133161957Y-73332282D01*
X133161409Y-73362274D01*
X133163500Y-73420286D01*
X133169774Y-73475008D01*
X133180231Y-73526440D01*
X133194870Y-73574583D01*
X133219051Y-73630135D01*
X133249768Y-73680547D01*
X133287020Y-73725819D01*
X133295254Y-73734256D01*
X133335666Y-73769696D01*
X133379598Y-73798714D01*
X133427051Y-73821308D01*
X133478024Y-73837479D01*
X133532518Y-73847228D01*
X133551465Y-73849050D01*
X133551465Y-73773579D01*
X133523866Y-73763077D01*
X133505547Y-73744270D01*
X133489178Y-73695313D01*
X133486985Y-73659762D01*
X133486985Y-73047690D01*
X133494588Y-72998841D01*
X133499441Y-72988583D01*
X133518981Y-72965624D01*
X133551465Y-72949260D01*
G37*
G36*
X133022679Y-73558401D02*
G01*
X133022679Y-73020334D01*
X133030983Y-72984431D01*
X133039043Y-72976371D01*
X133065177Y-72966845D01*
X133092777Y-72929476D01*
X133079344Y-72901632D01*
X133041242Y-72892107D01*
X133023412Y-72892107D01*
X132717131Y-72892107D01*
X132699302Y-72892107D01*
X132674389Y-72894794D01*
X132655338Y-72907494D01*
X132647766Y-72929232D01*
X132675366Y-72966845D01*
X132701744Y-72976371D01*
X132709560Y-72984431D01*
X132717864Y-73020334D01*
X132717864Y-73594305D01*
X132717131Y-73643825D01*
X132714933Y-73675638D01*
X132701988Y-73717159D01*
X132682205Y-73742072D01*
X132640195Y-73759169D01*
X132640195Y-73849050D01*
X132655338Y-73849050D01*
X132708122Y-73847524D01*
X132759408Y-73842318D01*
X132803593Y-73833419D01*
X132853213Y-73817024D01*
X132898024Y-73795683D01*
X132925226Y-73778709D01*
X132964997Y-73745396D01*
X132994846Y-73705969D01*
X132999232Y-73697620D01*
X133015260Y-73647411D01*
X133021557Y-73596285D01*
X133022679Y-73558401D01*
G37*
G36*
X132576936Y-73849050D02*
G01*
X132576936Y-73759169D01*
X132528656Y-73747182D01*
X132483562Y-73722026D01*
X132462386Y-73703237D01*
X132432628Y-73660726D01*
X132416294Y-73612411D01*
X132410322Y-73561057D01*
X132410118Y-73548632D01*
X132410118Y-73103621D01*
X132415818Y-73053971D01*
X132438263Y-73005829D01*
X132477737Y-72971482D01*
X132482170Y-72969043D01*
X132510013Y-72949504D01*
X132516364Y-72926057D01*
X132503419Y-72899923D01*
X132460921Y-72892107D01*
X132292637Y-72892107D01*
X132264061Y-72893328D01*
X132249895Y-72898457D01*
X132232065Y-72927278D01*
X132243056Y-72953412D01*
X132272609Y-72972463D01*
X132309233Y-73006026D01*
X132319993Y-73024242D01*
X132334685Y-73071622D01*
X132337090Y-73103621D01*
X132337090Y-73549364D01*
X132340265Y-73604182D01*
X132349790Y-73653839D01*
X132368097Y-73703537D01*
X132387892Y-73737676D01*
X132420269Y-73775617D01*
X132461714Y-73807377D01*
X132494382Y-73825115D01*
X132542773Y-73842135D01*
X132576936Y-73849050D01*
G37*
G36*
X131621214Y-72892107D02*
G01*
X131621214Y-73700795D01*
X131610956Y-73738897D01*
X131600697Y-73747445D01*
X131569190Y-73755994D01*
X131536217Y-73793363D01*
X131554047Y-73821939D01*
X131598011Y-73830000D01*
X131620725Y-73830000D01*
X131927006Y-73830000D01*
X131949720Y-73830000D01*
X131995394Y-73820963D01*
X132010781Y-73793363D01*
X131977808Y-73755994D01*
X131946301Y-73747445D01*
X131936531Y-73738897D01*
X131926273Y-73700795D01*
X131926273Y-72892107D01*
X131621214Y-72892107D01*
G37*
G36*
X131383565Y-72892107D02*
G01*
X131383565Y-73177627D01*
X131395045Y-73208646D01*
X131424110Y-73220369D01*
X131452686Y-73209134D01*
X131467341Y-73177627D01*
X131474180Y-73135617D01*
X131485857Y-73086446D01*
X131505465Y-73039803D01*
X131514235Y-73024731D01*
X131547606Y-72988601D01*
X131564305Y-72977348D01*
X131564305Y-72892107D01*
X131383565Y-72892107D01*
G37*
G36*
X132162700Y-72892107D02*
G01*
X131981960Y-72892107D01*
X131981960Y-72977348D01*
X132020861Y-73009331D01*
X132032030Y-73024731D01*
X132054243Y-73069036D01*
X132068339Y-73116037D01*
X132072086Y-73135617D01*
X132078925Y-73177627D01*
X132093824Y-73209134D01*
X132122156Y-73220369D01*
X132151465Y-73208646D01*
X132162700Y-73177627D01*
X132162700Y-72892107D01*
G37*
G36*
X130579274Y-72892107D02*
G01*
X130579274Y-73830000D01*
X130884822Y-73830000D01*
X130902651Y-73830000D01*
X130940753Y-73820963D01*
X130954187Y-73794584D01*
X130926587Y-73757948D01*
X130900453Y-73748667D01*
X130892393Y-73740851D01*
X130884089Y-73706168D01*
X130884089Y-73020334D01*
X130892393Y-72984431D01*
X130900453Y-72976371D01*
X130926587Y-72966845D01*
X130954187Y-72928743D01*
X130940753Y-72901632D01*
X130902651Y-72892107D01*
X130884822Y-72892107D01*
X130579274Y-72892107D01*
G37*
G36*
X130440544Y-73634117D02*
G01*
X130440544Y-73091409D01*
X130445103Y-73041572D01*
X130454954Y-73011786D01*
X130476936Y-72983698D01*
X130517969Y-72968311D01*
X130517969Y-72892107D01*
X130467814Y-72893747D01*
X130456175Y-72894794D01*
X130407553Y-72904617D01*
X130359781Y-72923095D01*
X130312860Y-72950229D01*
X130287159Y-72969043D01*
X130249241Y-73002673D01*
X130216573Y-73041034D01*
X130189157Y-73084128D01*
X130166992Y-73131953D01*
X130149254Y-73184145D01*
X130137890Y-73232092D01*
X130130407Y-73282166D01*
X130126804Y-73334367D01*
X130126448Y-73357390D01*
X130128259Y-73408781D01*
X130133695Y-73457991D01*
X130144616Y-73512646D01*
X130160469Y-73564333D01*
X130177983Y-73606273D01*
X130202668Y-73651710D01*
X130231631Y-73692706D01*
X130264872Y-73729261D01*
X130302390Y-73761375D01*
X130325750Y-73777732D01*
X130370812Y-73803194D01*
X130412700Y-73819009D01*
X130462359Y-73827585D01*
X130513918Y-73829989D01*
X130517969Y-73830000D01*
X130517969Y-73756482D01*
X130477913Y-73742805D01*
X130458374Y-73723510D01*
X130444452Y-73689560D01*
X130440578Y-73640788D01*
X130440544Y-73634117D01*
G37*
G36*
X129671667Y-72892107D02*
G01*
X129671667Y-73700795D01*
X129661409Y-73738897D01*
X129651151Y-73747445D01*
X129619399Y-73755994D01*
X129586427Y-73793363D01*
X129604256Y-73821939D01*
X129647487Y-73830000D01*
X129670935Y-73830000D01*
X129977215Y-73830000D01*
X129995045Y-73830000D01*
X130033147Y-73820963D01*
X130046580Y-73794584D01*
X130018981Y-73757948D01*
X129992847Y-73748667D01*
X129984787Y-73740851D01*
X129976482Y-73706168D01*
X129976482Y-73020334D01*
X129984787Y-72984431D01*
X129992847Y-72976371D01*
X130018981Y-72966845D01*
X130046580Y-72928743D01*
X130033147Y-72901632D01*
X129995045Y-72892107D01*
X129977215Y-72892107D01*
X129671667Y-72892107D01*
G37*
G36*
X129460642Y-73374487D02*
G01*
X129410900Y-73383242D01*
X129363433Y-73395736D01*
X129318037Y-73416527D01*
X129302128Y-73426999D01*
X129266453Y-73463177D01*
X129257920Y-73477313D01*
X129243036Y-73525195D01*
X129242288Y-73539351D01*
X129242288Y-73680034D01*
X129227878Y-73704947D01*
X129218597Y-73701284D01*
X129207850Y-73686629D01*
X129172923Y-73658053D01*
X129149476Y-73670509D01*
X129137752Y-73695422D01*
X129154402Y-73742001D01*
X129158025Y-73747690D01*
X129190632Y-73786888D01*
X129208583Y-73802644D01*
X129251483Y-73828960D01*
X129269644Y-73835617D01*
X129317969Y-73844448D01*
X129347313Y-73845631D01*
X129400188Y-73840694D01*
X129449314Y-73823857D01*
X129488974Y-73795073D01*
X129517897Y-73755442D01*
X129534815Y-73706402D01*
X129539776Y-73653656D01*
X129539776Y-73539351D01*
X129540509Y-73495143D01*
X129558824Y-73449248D01*
X129559804Y-73448004D01*
X129603400Y-73422404D01*
X129616713Y-73420160D01*
X129616713Y-73347376D01*
X129569192Y-73332396D01*
X129563712Y-73328325D01*
X129544905Y-73300481D01*
X129539776Y-73254075D01*
X129539776Y-73066496D01*
X129547742Y-73017444D01*
X129556629Y-73002016D01*
X129599509Y-72974181D01*
X129617445Y-72968311D01*
X129617445Y-72892107D01*
X129599616Y-72892107D01*
X129549881Y-72892771D01*
X129497950Y-72895267D01*
X129469678Y-72897725D01*
X129416958Y-72907346D01*
X129368278Y-72925798D01*
X129327529Y-72950237D01*
X129288099Y-72985896D01*
X129259935Y-73028394D01*
X129243036Y-73077732D01*
X129237492Y-73126511D01*
X129237404Y-73133907D01*
X129242176Y-73186080D01*
X129258672Y-73237524D01*
X129286950Y-73282098D01*
X129297732Y-73294131D01*
X129336919Y-73325783D01*
X129357327Y-73337117D01*
X129403394Y-73355936D01*
X129452109Y-73371908D01*
X129460642Y-73374487D01*
G37*
G36*
X128706420Y-72949260D02*
G01*
X128748703Y-72974620D01*
X128756001Y-72983698D01*
X128769905Y-73032566D01*
X128770411Y-73047690D01*
X128770411Y-73659762D01*
X128766259Y-73710931D01*
X128753803Y-73744270D01*
X128712688Y-73771828D01*
X128706420Y-73773579D01*
X128706420Y-73849050D01*
X128761838Y-73841219D01*
X128813787Y-73827069D01*
X128862268Y-73806598D01*
X128907279Y-73779808D01*
X128948821Y-73746697D01*
X128961898Y-73734256D01*
X129000527Y-73690012D01*
X129032609Y-73640628D01*
X129058143Y-73586104D01*
X129073857Y-73538784D01*
X129085380Y-73488174D01*
X129092713Y-73434275D01*
X129095856Y-73377086D01*
X129095987Y-73362274D01*
X129094292Y-73311025D01*
X129089208Y-73261997D01*
X129079248Y-73208683D01*
X129064860Y-73158270D01*
X129060572Y-73146120D01*
X129040742Y-73099698D01*
X129016669Y-73056910D01*
X128984514Y-73013116D01*
X128955792Y-72982233D01*
X128918540Y-72949717D01*
X128875664Y-72920894D01*
X128841974Y-72903831D01*
X128794175Y-72886978D01*
X128742735Y-72876720D01*
X128706420Y-72873545D01*
X128706420Y-72949260D01*
G37*
G36*
X128650000Y-72949260D02*
G01*
X128650000Y-72873545D01*
X128600482Y-72878666D01*
X128549953Y-72890573D01*
X128514445Y-72903831D01*
X128469519Y-72927450D01*
X128427067Y-72958007D01*
X128400139Y-72982233D01*
X128359751Y-73027575D01*
X128326208Y-73078117D01*
X128304302Y-73122294D01*
X128286778Y-73169800D01*
X128273635Y-73220633D01*
X128264872Y-73274794D01*
X128260491Y-73332282D01*
X128259944Y-73362274D01*
X128262035Y-73420286D01*
X128268309Y-73475008D01*
X128278766Y-73526440D01*
X128293405Y-73574583D01*
X128317586Y-73630135D01*
X128348302Y-73680547D01*
X128385554Y-73725819D01*
X128393789Y-73734256D01*
X128434200Y-73769696D01*
X128478133Y-73798714D01*
X128525585Y-73821308D01*
X128576559Y-73837479D01*
X128631053Y-73847228D01*
X128650000Y-73849050D01*
X128650000Y-73773579D01*
X128622400Y-73763077D01*
X128604082Y-73744270D01*
X128587713Y-73695313D01*
X128585519Y-73659762D01*
X128585519Y-73047690D01*
X128593122Y-72998841D01*
X128597976Y-72988583D01*
X128617515Y-72965624D01*
X128650000Y-72949260D01*
G37*
G36*
X127803942Y-73830000D02*
G01*
X128110223Y-73830000D01*
X128128053Y-73830000D01*
X128166154Y-73820963D01*
X128179588Y-73794584D01*
X128151988Y-73757948D01*
X128125854Y-73748667D01*
X128117794Y-73740851D01*
X128109490Y-73706168D01*
X128109490Y-73020334D01*
X128117794Y-72984431D01*
X128125854Y-72976371D01*
X128151988Y-72966845D01*
X128179588Y-72928743D01*
X128166154Y-72901632D01*
X128128053Y-72892107D01*
X128110223Y-72892107D01*
X127803942Y-72892107D01*
X127786113Y-72892107D01*
X127748011Y-72901632D01*
X127734577Y-72928743D01*
X127762177Y-72966845D01*
X127788555Y-72976371D01*
X127796371Y-72984431D01*
X127804675Y-73020334D01*
X127804675Y-73706168D01*
X127796371Y-73740851D01*
X127788555Y-73748667D01*
X127762177Y-73757948D01*
X127734577Y-73794584D01*
X127748011Y-73820963D01*
X127786113Y-73830000D01*
X127803942Y-73830000D01*
G37*
G36*
X127111514Y-72892107D02*
G01*
X127111514Y-73700795D01*
X127101256Y-73738897D01*
X127090997Y-73747445D01*
X127059490Y-73755994D01*
X127026517Y-73793363D01*
X127044347Y-73821939D01*
X127088311Y-73830000D01*
X127111025Y-73830000D01*
X127417306Y-73830000D01*
X127440020Y-73830000D01*
X127485694Y-73820963D01*
X127501081Y-73793363D01*
X127468108Y-73755994D01*
X127436601Y-73747445D01*
X127426831Y-73738897D01*
X127416573Y-73700795D01*
X127416573Y-72892107D01*
X127111514Y-72892107D01*
G37*
G36*
X126873866Y-72892107D02*
G01*
X126873866Y-73177627D01*
X126885345Y-73208646D01*
X126914410Y-73220369D01*
X126942986Y-73209134D01*
X126957641Y-73177627D01*
X126964480Y-73135617D01*
X126976157Y-73086446D01*
X126995765Y-73039803D01*
X127004535Y-73024731D01*
X127037906Y-72988601D01*
X127054605Y-72977348D01*
X127054605Y-72892107D01*
X126873866Y-72892107D01*
G37*
G36*
X127653000Y-72892107D02*
G01*
X127472260Y-72892107D01*
X127472260Y-72977348D01*
X127511161Y-73009331D01*
X127522330Y-73024731D01*
X127544543Y-73069036D01*
X127558639Y-73116037D01*
X127562386Y-73135617D01*
X127569225Y-73177627D01*
X127584124Y-73209134D01*
X127612456Y-73220369D01*
X127641765Y-73208646D01*
X127653000Y-73177627D01*
X127653000Y-72892107D01*
G37*
G36*
X126069574Y-72892107D02*
G01*
X126069574Y-73700795D01*
X126059316Y-73738897D01*
X126049057Y-73747445D01*
X126017306Y-73755994D01*
X125984333Y-73793363D01*
X126002163Y-73821939D01*
X126045394Y-73830000D01*
X126068841Y-73830000D01*
X126375122Y-73830000D01*
X126392951Y-73830000D01*
X126431053Y-73820963D01*
X126444487Y-73794584D01*
X126416887Y-73757948D01*
X126390753Y-73748667D01*
X126382693Y-73740851D01*
X126374389Y-73706168D01*
X126374389Y-73020334D01*
X126382693Y-72984431D01*
X126390753Y-72976371D01*
X126416887Y-72966845D01*
X126444487Y-72928743D01*
X126431053Y-72901632D01*
X126392951Y-72892107D01*
X126375122Y-72892107D01*
X126069574Y-72892107D01*
G37*
G36*
X125858548Y-73374487D02*
G01*
X125808806Y-73383242D01*
X125761339Y-73395736D01*
X125715943Y-73416527D01*
X125700034Y-73426999D01*
X125664360Y-73463177D01*
X125655826Y-73477313D01*
X125640943Y-73525195D01*
X125640195Y-73539351D01*
X125640195Y-73680034D01*
X125625785Y-73704947D01*
X125616503Y-73701284D01*
X125605757Y-73686629D01*
X125570830Y-73658053D01*
X125547383Y-73670509D01*
X125535659Y-73695422D01*
X125552308Y-73742001D01*
X125555931Y-73747690D01*
X125588538Y-73786888D01*
X125606489Y-73802644D01*
X125649389Y-73828960D01*
X125667550Y-73835617D01*
X125715876Y-73844448D01*
X125745219Y-73845631D01*
X125798094Y-73840694D01*
X125847220Y-73823857D01*
X125886880Y-73795073D01*
X125915804Y-73755442D01*
X125932721Y-73706402D01*
X125937683Y-73653656D01*
X125937683Y-73539351D01*
X125938415Y-73495143D01*
X125956731Y-73449248D01*
X125957711Y-73448004D01*
X126001307Y-73422404D01*
X126014619Y-73420160D01*
X126014619Y-73347376D01*
X125967098Y-73332396D01*
X125961618Y-73328325D01*
X125942812Y-73300481D01*
X125937683Y-73254075D01*
X125937683Y-73066496D01*
X125945648Y-73017444D01*
X125954535Y-73002016D01*
X125997415Y-72974181D01*
X126015352Y-72968311D01*
X126015352Y-72892107D01*
X125997522Y-72892107D01*
X125947787Y-72892771D01*
X125895856Y-72895267D01*
X125867585Y-72897725D01*
X125814864Y-72907346D01*
X125766184Y-72925798D01*
X125725436Y-72950237D01*
X125686006Y-72985896D01*
X125657841Y-73028394D01*
X125640943Y-73077732D01*
X125635398Y-73126511D01*
X125635310Y-73133907D01*
X125640082Y-73186080D01*
X125656578Y-73237524D01*
X125684857Y-73282098D01*
X125695638Y-73294131D01*
X125734826Y-73325783D01*
X125755233Y-73337117D01*
X125801300Y-73355936D01*
X125850016Y-73371908D01*
X125858548Y-73374487D01*
G37*
G36*
X125090648Y-72892107D02*
G01*
X125090648Y-73830000D01*
X125396196Y-73830000D01*
X125414026Y-73830000D01*
X125452128Y-73820963D01*
X125465561Y-73794584D01*
X125437962Y-73757948D01*
X125411828Y-73748667D01*
X125403768Y-73740851D01*
X125395464Y-73706168D01*
X125395464Y-73020334D01*
X125403768Y-72984431D01*
X125411828Y-72976371D01*
X125437962Y-72966845D01*
X125465561Y-72928743D01*
X125452128Y-72901632D01*
X125414026Y-72892107D01*
X125396196Y-72892107D01*
X125090648Y-72892107D01*
G37*
G36*
X125029344Y-72892107D02*
G01*
X124752616Y-72892107D01*
X124752616Y-73141723D01*
X124760921Y-73165903D01*
X124787055Y-73173475D01*
X124809036Y-73167369D01*
X124821981Y-73142456D01*
X124842835Y-73093277D01*
X124872167Y-73049634D01*
X124898674Y-73023754D01*
X124940634Y-72997616D01*
X124991043Y-72980752D01*
X125029344Y-72974661D01*
X125029344Y-72892107D01*
G37*
G36*
X125032763Y-73396224D02*
G01*
X125032763Y-73317334D01*
X124991108Y-73290047D01*
X124973900Y-73272393D01*
X124951463Y-73228956D01*
X124945568Y-73207424D01*
X124931402Y-73168590D01*
X124905757Y-73157843D01*
X124875715Y-73178604D01*
X124870830Y-73227452D01*
X124870830Y-73486594D01*
X124878157Y-73535198D01*
X124904535Y-73548632D01*
X124929204Y-73538862D01*
X124943614Y-73505645D01*
X124959972Y-73457955D01*
X124977076Y-73430907D01*
X125016460Y-73401598D01*
X125032763Y-73396224D01*
G37*
G36*
X125028855Y-73830000D02*
G01*
X125028855Y-73754773D01*
X124979091Y-73744030D01*
X124955094Y-73735478D01*
X124912836Y-73710533D01*
X124896231Y-73697131D01*
X124861367Y-73660840D01*
X124849337Y-73643886D01*
X124826992Y-73600304D01*
X124815875Y-73571346D01*
X124800244Y-73541060D01*
X124777529Y-73533000D01*
X124750662Y-73544480D01*
X124743091Y-73584535D01*
X124743091Y-73830000D01*
X125028855Y-73830000D01*
G37*
G36*
X124905757Y-72664473D02*
G01*
X125094801Y-72810530D01*
X125107013Y-72820055D01*
X125128995Y-72829581D01*
X125179309Y-72829581D01*
X125198360Y-72819323D01*
X125195673Y-72810530D01*
X125093335Y-72652260D01*
X125074040Y-72630523D01*
X125046685Y-72626371D01*
X124909909Y-72626371D01*
X124894766Y-72630767D01*
X124887927Y-72642002D01*
X124905757Y-72664473D01*
G37*
G36*
X124327390Y-72873545D02*
G01*
X124327390Y-72953900D01*
X124372689Y-72973516D01*
X124392358Y-72990048D01*
X124413521Y-73034836D01*
X124414584Y-73049888D01*
X124403255Y-73098480D01*
X124396022Y-73110216D01*
X124359531Y-73144324D01*
X124335694Y-73159064D01*
X124288494Y-73182145D01*
X124240576Y-73203889D01*
X124205024Y-73219637D01*
X124159412Y-73240461D01*
X124115891Y-73263878D01*
X124109281Y-73267997D01*
X124068275Y-73299061D01*
X124045045Y-73321730D01*
X124013449Y-73360566D01*
X123986842Y-73408727D01*
X123970370Y-73460919D01*
X123964273Y-73509893D01*
X123963956Y-73524452D01*
X123968250Y-73578257D01*
X123981130Y-73629152D01*
X124002596Y-73677137D01*
X124007920Y-73686385D01*
X124038617Y-73729232D01*
X124075755Y-73765878D01*
X124119332Y-73796323D01*
X124128820Y-73801667D01*
X124174883Y-73822404D01*
X124219190Y-73836350D01*
X124269490Y-73846260D01*
X124310781Y-73849050D01*
X124310781Y-73770648D01*
X124262034Y-73754670D01*
X124224563Y-73730593D01*
X124200761Y-73686451D01*
X124198185Y-73660739D01*
X124211245Y-73612362D01*
X124239462Y-73579651D01*
X124282520Y-73552414D01*
X124329764Y-73529454D01*
X124343754Y-73523230D01*
X124391372Y-73502103D01*
X124437728Y-73480841D01*
X124459525Y-73470230D01*
X124503204Y-73444632D01*
X124519609Y-73433105D01*
X124563518Y-73396420D01*
X124598343Y-73355424D01*
X124624083Y-73310118D01*
X124640738Y-73260502D01*
X124648308Y-73206574D01*
X124648813Y-73187641D01*
X124645004Y-73135183D01*
X124633575Y-73085610D01*
X124616573Y-73043049D01*
X124591378Y-73000435D01*
X124556980Y-72960925D01*
X124526448Y-72936071D01*
X124483873Y-72911005D01*
X124436505Y-72892229D01*
X124384344Y-72879742D01*
X124334771Y-72873975D01*
X124327390Y-72873545D01*
G37*
G36*
X124273168Y-72953900D02*
G01*
X124273168Y-72876964D01*
X124223830Y-72884612D01*
X124201849Y-72890886D01*
X124156929Y-72910300D01*
X124115875Y-72931919D01*
X124093161Y-72939002D01*
X124073866Y-72929476D01*
X124058722Y-72908227D01*
X124031856Y-72892107D01*
X124004745Y-72903098D01*
X123996196Y-72937292D01*
X123996196Y-73168834D01*
X124007676Y-73205959D01*
X124036741Y-73220369D01*
X124062142Y-73211088D01*
X124072156Y-73197166D01*
X124079239Y-73169567D01*
X124093910Y-73122563D01*
X124105373Y-73097271D01*
X124131057Y-73053708D01*
X124148848Y-73030593D01*
X124185798Y-72995304D01*
X124228808Y-72969366D01*
X124273168Y-72953900D01*
G37*
G36*
X124363049Y-73770648D02*
G01*
X124363049Y-73849050D01*
X124414614Y-73842926D01*
X124462310Y-73827928D01*
X124487369Y-73817055D01*
X124522540Y-73802156D01*
X124540858Y-73798736D01*
X124561618Y-73802156D01*
X124583600Y-73818764D01*
X124610223Y-73830000D01*
X124647456Y-73797591D01*
X124648813Y-73780907D01*
X124648813Y-73533244D01*
X124637822Y-73500516D01*
X124610223Y-73486106D01*
X124586775Y-73494898D01*
X124571877Y-73527138D01*
X124555321Y-73577027D01*
X124533435Y-73624110D01*
X124526203Y-73637048D01*
X124498167Y-73678722D01*
X124463770Y-73716732D01*
X124456350Y-73723510D01*
X124415778Y-73752236D01*
X124369625Y-73769262D01*
X124363049Y-73770648D01*
G37*
G36*
X123485484Y-72892107D02*
G01*
X123485484Y-73830000D01*
X123791032Y-73830000D01*
X123808862Y-73830000D01*
X123846964Y-73820963D01*
X123860397Y-73794584D01*
X123832798Y-73757948D01*
X123806664Y-73748667D01*
X123798604Y-73740851D01*
X123790300Y-73706168D01*
X123790300Y-73020334D01*
X123798604Y-72984431D01*
X123806664Y-72976371D01*
X123832798Y-72966845D01*
X123860397Y-72928743D01*
X123846964Y-72901632D01*
X123808862Y-72892107D01*
X123791032Y-72892107D01*
X123485484Y-72892107D01*
G37*
G36*
X123424180Y-72892107D02*
G01*
X123147452Y-72892107D01*
X123147452Y-73141723D01*
X123155757Y-73165903D01*
X123181891Y-73173475D01*
X123203872Y-73167369D01*
X123216817Y-73142456D01*
X123237671Y-73093277D01*
X123267003Y-73049634D01*
X123293510Y-73023754D01*
X123335470Y-72997616D01*
X123385879Y-72980752D01*
X123424180Y-72974661D01*
X123424180Y-72892107D01*
G37*
G36*
X123427599Y-73396224D02*
G01*
X123427599Y-73317334D01*
X123385944Y-73290047D01*
X123368736Y-73272393D01*
X123346299Y-73228956D01*
X123340404Y-73207424D01*
X123326238Y-73168590D01*
X123300593Y-73157843D01*
X123270551Y-73178604D01*
X123265666Y-73227452D01*
X123265666Y-73486594D01*
X123272993Y-73535198D01*
X123299371Y-73548632D01*
X123324040Y-73538862D01*
X123338450Y-73505645D01*
X123354808Y-73457955D01*
X123371912Y-73430907D01*
X123411296Y-73401598D01*
X123427599Y-73396224D01*
G37*
G36*
X123423691Y-73830000D02*
G01*
X123423691Y-73754773D01*
X123373927Y-73744030D01*
X123349930Y-73735478D01*
X123307672Y-73710533D01*
X123291067Y-73697131D01*
X123256203Y-73660840D01*
X123244173Y-73643886D01*
X123221828Y-73600304D01*
X123210711Y-73571346D01*
X123195080Y-73541060D01*
X123172365Y-73533000D01*
X123145498Y-73544480D01*
X123137927Y-73584535D01*
X123137927Y-73830000D01*
X123423691Y-73830000D01*
G37*
G36*
X122663852Y-72892107D02*
G01*
X122663852Y-73700795D01*
X122653593Y-73738897D01*
X122643335Y-73747445D01*
X122611584Y-73755994D01*
X122578611Y-73793363D01*
X122596441Y-73821939D01*
X122639672Y-73830000D01*
X122663119Y-73830000D01*
X122969399Y-73830000D01*
X122987229Y-73830000D01*
X123025331Y-73820963D01*
X123038764Y-73794584D01*
X123011165Y-73757948D01*
X122985031Y-73748667D01*
X122976971Y-73740851D01*
X122968667Y-73706168D01*
X122968667Y-73020334D01*
X122976971Y-72984431D01*
X122985031Y-72976371D01*
X123011165Y-72966845D01*
X123038764Y-72928743D01*
X123025331Y-72901632D01*
X122987229Y-72892107D01*
X122969399Y-72892107D01*
X122663852Y-72892107D01*
G37*
G36*
X122452826Y-73374487D02*
G01*
X122403084Y-73383242D01*
X122355617Y-73395736D01*
X122310221Y-73416527D01*
X122294312Y-73426999D01*
X122258637Y-73463177D01*
X122250104Y-73477313D01*
X122235221Y-73525195D01*
X122234473Y-73539351D01*
X122234473Y-73680034D01*
X122220062Y-73704947D01*
X122210781Y-73701284D01*
X122200034Y-73686629D01*
X122165108Y-73658053D01*
X122141660Y-73670509D01*
X122129937Y-73695422D01*
X122146586Y-73742001D01*
X122150209Y-73747690D01*
X122182816Y-73786888D01*
X122200767Y-73802644D01*
X122243667Y-73828960D01*
X122261828Y-73835617D01*
X122310154Y-73844448D01*
X122339497Y-73845631D01*
X122392372Y-73840694D01*
X122441498Y-73823857D01*
X122481158Y-73795073D01*
X122510082Y-73755442D01*
X122526999Y-73706402D01*
X122531960Y-73653656D01*
X122531960Y-73539351D01*
X122532693Y-73495143D01*
X122551008Y-73449248D01*
X122551988Y-73448004D01*
X122595585Y-73422404D01*
X122608897Y-73420160D01*
X122608897Y-73347376D01*
X122561376Y-73332396D01*
X122555896Y-73328325D01*
X122537090Y-73300481D01*
X122531960Y-73254075D01*
X122531960Y-73066496D01*
X122539926Y-73017444D01*
X122548813Y-73002016D01*
X122591693Y-72974181D01*
X122609630Y-72968311D01*
X122609630Y-72892107D01*
X122591800Y-72892107D01*
X122542065Y-72892771D01*
X122490134Y-72895267D01*
X122461863Y-72897725D01*
X122409142Y-72907346D01*
X122360462Y-72925798D01*
X122319713Y-72950237D01*
X122280283Y-72985896D01*
X122252119Y-73028394D01*
X122235221Y-73077732D01*
X122229676Y-73126511D01*
X122229588Y-73133907D01*
X122234360Y-73186080D01*
X122250856Y-73237524D01*
X122279134Y-73282098D01*
X122289916Y-73294131D01*
X122329103Y-73325783D01*
X122349511Y-73337117D01*
X122395578Y-73355936D01*
X122444293Y-73371908D01*
X122452826Y-73374487D01*
G37*
G36*
X121546196Y-73591863D02*
G01*
X121611409Y-73830000D01*
X121791905Y-73830000D01*
X122036636Y-73008855D01*
X122046894Y-72983942D01*
X122062037Y-72972463D01*
X122090858Y-72956099D01*
X122097697Y-72933384D01*
X122079134Y-72901144D01*
X122031751Y-72892107D01*
X121725959Y-72892107D01*
X121686636Y-72893572D01*
X121669050Y-72898946D01*
X121657571Y-72912868D01*
X121652686Y-72929965D01*
X121676622Y-72966601D01*
X121701290Y-72984919D01*
X121707641Y-73011297D01*
X121705687Y-73030593D01*
X121546196Y-73591863D01*
G37*
G36*
X121520062Y-73494166D02*
G01*
X121556454Y-73366427D01*
X121477564Y-73074556D01*
X121469260Y-73040607D01*
X121476099Y-73006413D01*
X121510537Y-72974661D01*
X121533007Y-72966357D01*
X121559874Y-72930942D01*
X121544731Y-72902121D01*
X121502721Y-72892107D01*
X121334438Y-72892107D01*
X121293161Y-72898213D01*
X121276796Y-72928011D01*
X121281926Y-72948771D01*
X121300732Y-72962449D01*
X121335903Y-72979057D01*
X121373062Y-73012958D01*
X121378157Y-73020334D01*
X121400767Y-73064192D01*
X121409420Y-73090188D01*
X121520062Y-73494166D01*
G37*
G36*
X120840823Y-72892107D02*
G01*
X120840823Y-73830000D01*
X121146371Y-73830000D01*
X121164200Y-73830000D01*
X121202302Y-73820963D01*
X121215736Y-73794584D01*
X121188136Y-73757948D01*
X121162002Y-73748667D01*
X121153942Y-73740851D01*
X121145638Y-73706168D01*
X121145638Y-73020334D01*
X121153942Y-72984431D01*
X121162002Y-72976371D01*
X121188136Y-72966845D01*
X121215736Y-72928743D01*
X121202302Y-72901632D01*
X121164200Y-72892107D01*
X121146371Y-72892107D01*
X120840823Y-72892107D01*
G37*
G36*
X120779518Y-72892107D02*
G01*
X120502791Y-72892107D01*
X120502791Y-73141723D01*
X120511095Y-73165903D01*
X120537229Y-73173475D01*
X120559211Y-73167369D01*
X120572156Y-73142456D01*
X120593009Y-73093277D01*
X120622341Y-73049634D01*
X120648848Y-73023754D01*
X120690808Y-72997616D01*
X120741218Y-72980752D01*
X120779518Y-72974661D01*
X120779518Y-72892107D01*
G37*
G36*
X120782937Y-73396224D02*
G01*
X120782937Y-73317334D01*
X120741283Y-73290047D01*
X120724075Y-73272393D01*
X120701637Y-73228956D01*
X120695743Y-73207424D01*
X120681577Y-73168590D01*
X120655931Y-73157843D01*
X120625889Y-73178604D01*
X120621004Y-73227452D01*
X120621004Y-73486594D01*
X120628332Y-73535198D01*
X120654710Y-73548632D01*
X120679378Y-73538862D01*
X120693789Y-73505645D01*
X120710146Y-73457955D01*
X120727250Y-73430907D01*
X120766634Y-73401598D01*
X120782937Y-73396224D01*
G37*
G36*
X120779030Y-73830000D02*
G01*
X120779030Y-73754773D01*
X120729265Y-73744030D01*
X120705268Y-73735478D01*
X120663010Y-73710533D01*
X120646406Y-73697131D01*
X120611542Y-73660840D01*
X120599511Y-73643886D01*
X120577166Y-73600304D01*
X120566050Y-73571346D01*
X120550418Y-73541060D01*
X120527704Y-73533000D01*
X120500837Y-73544480D01*
X120493265Y-73584535D01*
X120493265Y-73830000D01*
X120779030Y-73830000D01*
G37*
G36*
X120655931Y-72664473D02*
G01*
X120844975Y-72810530D01*
X120857187Y-72820055D01*
X120879169Y-72829581D01*
X120929483Y-72829581D01*
X120948534Y-72819323D01*
X120945847Y-72810530D01*
X120843510Y-72652260D01*
X120824214Y-72630523D01*
X120796859Y-72626371D01*
X120660083Y-72626371D01*
X120644940Y-72630767D01*
X120638101Y-72642002D01*
X120655931Y-72664473D01*
G37*
X168889411Y-96667438D02*
X168984649Y-96619819D01*
X168984649Y-96619819D02*
X169127506Y-96619819D01*
X169127506Y-96619819D02*
X169270363Y-96667438D01*
X169270363Y-96667438D02*
X169365601Y-96762676D01*
X169365601Y-96762676D02*
X169413220Y-96857914D01*
X169413220Y-96857914D02*
X169460839Y-97048390D01*
X169460839Y-97048390D02*
X169460839Y-97191247D01*
X169460839Y-97191247D02*
X169413220Y-97381723D01*
X169413220Y-97381723D02*
X169365601Y-97476961D01*
X169365601Y-97476961D02*
X169270363Y-97572200D01*
X169270363Y-97572200D02*
X169127506Y-97619819D01*
X169127506Y-97619819D02*
X169032268Y-97619819D01*
X169032268Y-97619819D02*
X168889411Y-97572200D01*
X168889411Y-97572200D02*
X168841792Y-97524580D01*
X168841792Y-97524580D02*
X168841792Y-97191247D01*
X168841792Y-97191247D02*
X169032268Y-97191247D01*
X168413220Y-97619819D02*
X168413220Y-96619819D01*
X168413220Y-96619819D02*
X167841792Y-97619819D01*
X167841792Y-97619819D02*
X167841792Y-96619819D01*
X167365601Y-97619819D02*
X167365601Y-96619819D01*
X167365601Y-96619819D02*
X167127506Y-96619819D01*
X167127506Y-96619819D02*
X166984649Y-96667438D01*
X166984649Y-96667438D02*
X166889411Y-96762676D01*
X166889411Y-96762676D02*
X166841792Y-96857914D01*
X166841792Y-96857914D02*
X166794173Y-97048390D01*
X166794173Y-97048390D02*
X166794173Y-97191247D01*
X166794173Y-97191247D02*
X166841792Y-97381723D01*
X166841792Y-97381723D02*
X166889411Y-97476961D01*
X166889411Y-97476961D02*
X166984649Y-97572200D01*
X166984649Y-97572200D02*
X167127506Y-97619819D01*
X167127506Y-97619819D02*
X167365601Y-97619819D01*
X106482561Y-130439411D02*
X106530180Y-130534649D01*
X106530180Y-130534649D02*
X106530180Y-130677506D01*
X106530180Y-130677506D02*
X106482561Y-130820363D01*
X106482561Y-130820363D02*
X106387323Y-130915601D01*
X106387323Y-130915601D02*
X106292085Y-130963220D01*
X106292085Y-130963220D02*
X106101609Y-131010839D01*
X106101609Y-131010839D02*
X105958752Y-131010839D01*
X105958752Y-131010839D02*
X105768276Y-130963220D01*
X105768276Y-130963220D02*
X105673038Y-130915601D01*
X105673038Y-130915601D02*
X105577800Y-130820363D01*
X105577800Y-130820363D02*
X105530180Y-130677506D01*
X105530180Y-130677506D02*
X105530180Y-130582268D01*
X105530180Y-130582268D02*
X105577800Y-130439411D01*
X105577800Y-130439411D02*
X105625419Y-130391792D01*
X105625419Y-130391792D02*
X105958752Y-130391792D01*
X105958752Y-130391792D02*
X105958752Y-130582268D01*
X105530180Y-129963220D02*
X106530180Y-129963220D01*
X106530180Y-129963220D02*
X105530180Y-129391792D01*
X105530180Y-129391792D02*
X106530180Y-129391792D01*
X105530180Y-128915601D02*
X106530180Y-128915601D01*
X106530180Y-128915601D02*
X106530180Y-128677506D01*
X106530180Y-128677506D02*
X106482561Y-128534649D01*
X106482561Y-128534649D02*
X106387323Y-128439411D01*
X106387323Y-128439411D02*
X106292085Y-128391792D01*
X106292085Y-128391792D02*
X106101609Y-128344173D01*
X106101609Y-128344173D02*
X105958752Y-128344173D01*
X105958752Y-128344173D02*
X105768276Y-128391792D01*
X105768276Y-128391792D02*
X105673038Y-128439411D01*
X105673038Y-128439411D02*
X105577800Y-128534649D01*
X105577800Y-128534649D02*
X105530180Y-128677506D01*
X105530180Y-128677506D02*
X105530180Y-128915601D01*
D11*
%TO.C,Logo arem*%
G36*
X127436826Y-56039442D02*
G01*
X127868532Y-56042218D01*
X128313032Y-56697643D01*
X128419309Y-56856138D01*
X128593041Y-57124341D01*
X128712867Y-57321900D01*
X128757532Y-57414534D01*
X128716065Y-57439818D01*
X128546923Y-57465891D01*
X128291866Y-57476000D01*
X127826199Y-57476000D01*
X127826199Y-58534333D01*
X127826199Y-59592666D01*
X127407863Y-59592666D01*
X127263567Y-59587720D01*
X127045898Y-59557473D01*
X126937720Y-59508843D01*
X126934997Y-59501811D01*
X126923254Y-59368730D01*
X126918553Y-59098091D01*
X126920775Y-58716895D01*
X126929803Y-58252145D01*
X126945517Y-57730843D01*
X127005119Y-56036666D01*
X127436826Y-56039442D01*
G37*
G36*
X131678532Y-56147968D02*
G01*
X133541199Y-56163666D01*
X133569383Y-56362778D01*
X133576237Y-56515367D01*
X133546603Y-56764945D01*
X133536393Y-56803825D01*
X133505678Y-56872723D01*
X133442133Y-56919012D01*
X133318457Y-56947188D01*
X133107350Y-56961747D01*
X132781512Y-56967186D01*
X132313640Y-56968000D01*
X131131641Y-56968000D01*
X130939420Y-56608166D01*
X130747199Y-56248333D01*
X130724243Y-57920500D01*
X130701286Y-59592666D01*
X130240015Y-59592666D01*
X129778744Y-59592666D01*
X129754972Y-58561314D01*
X129731199Y-57529961D01*
X129519532Y-57840321D01*
X129378825Y-58033882D01*
X129229589Y-58164866D01*
X129046440Y-58202858D01*
X128763412Y-58177250D01*
X128671487Y-58162903D01*
X128485989Y-58103531D01*
X128452592Y-58018232D01*
X128456295Y-58010047D01*
X128534427Y-57885195D01*
X128690795Y-57658923D01*
X128904749Y-57360564D01*
X129155639Y-57019458D01*
X129815866Y-56132269D01*
X131678532Y-56147968D01*
G37*
G36*
X136643563Y-57899333D02*
G01*
X136643501Y-57983199D01*
X136645314Y-58474701D01*
X136650511Y-58892641D01*
X136658524Y-59213076D01*
X136668784Y-59412065D01*
X136680723Y-59465666D01*
X136684547Y-59457325D01*
X136742104Y-59329516D01*
X136855461Y-59076665D01*
X137013568Y-58723452D01*
X137205376Y-58294559D01*
X137269996Y-58149960D01*
X138324866Y-58149960D01*
X138333508Y-58169702D01*
X138451469Y-58218476D01*
X138663532Y-58238000D01*
X138730192Y-58237358D01*
X138910611Y-58214806D01*
X138982285Y-58136658D01*
X138955288Y-57971438D01*
X138839697Y-57687666D01*
X138689754Y-57349000D01*
X138507310Y-57705460D01*
X138452305Y-57817041D01*
X138360955Y-58027040D01*
X138324866Y-58149960D01*
X137269996Y-58149960D01*
X137419835Y-57814666D01*
X138119573Y-56248333D01*
X138669604Y-56223714D01*
X139219635Y-56199096D01*
X139911826Y-57790048D01*
X139956533Y-57892851D01*
X140062280Y-58136658D01*
X140165900Y-58375560D01*
X140352129Y-58806945D01*
X140504072Y-59161039D01*
X140610576Y-59411875D01*
X140660490Y-59533484D01*
X140675999Y-59612778D01*
X140624718Y-59656889D01*
X140471429Y-59669831D01*
X140182736Y-59660484D01*
X139648509Y-59635000D01*
X139431187Y-59106286D01*
X139430128Y-59103710D01*
X139314881Y-58838521D01*
X139220965Y-58649393D01*
X139168621Y-58577120D01*
X139162483Y-58578722D01*
X139085045Y-58661330D01*
X138973334Y-58830666D01*
X138893777Y-58951591D01*
X138785607Y-59040074D01*
X138617866Y-59077156D01*
X138335760Y-59084666D01*
X138328532Y-59084667D01*
X138053699Y-59090715D01*
X137893922Y-59125420D01*
X137796047Y-59213832D01*
X137706917Y-59381000D01*
X137565605Y-59677333D01*
X136635968Y-59677333D01*
X135706331Y-59677333D01*
X135682098Y-58868561D01*
X135657866Y-58059789D01*
X135098287Y-58847394D01*
X134538708Y-59635000D01*
X133531954Y-59630665D01*
X133225461Y-59628839D01*
X132682367Y-59623827D01*
X132146815Y-59617069D01*
X131699699Y-59609498D01*
X130874199Y-59592666D01*
X130874199Y-59169333D01*
X130874199Y-58746000D01*
X132181664Y-58746000D01*
X133489130Y-58746000D01*
X133515164Y-59090067D01*
X133541199Y-59434134D01*
X133862430Y-59002602D01*
X134018524Y-58789100D01*
X134169056Y-58559860D01*
X134226447Y-58416766D01*
X134199397Y-58333050D01*
X134096604Y-58281943D01*
X134049849Y-58260443D01*
X133879414Y-58121378D01*
X133709481Y-57915973D01*
X133498866Y-57606025D01*
X133498866Y-57922012D01*
X133498866Y-58238000D01*
X132266560Y-58238000D01*
X131034255Y-58238000D01*
X131060060Y-57835833D01*
X131085866Y-57433666D01*
X132292366Y-57450214D01*
X132420671Y-57451932D01*
X132857619Y-57455935D01*
X133157267Y-57452440D01*
X133345416Y-57438207D01*
X133447866Y-57409995D01*
X133449885Y-57407839D01*
X134529533Y-57407839D01*
X134530372Y-57413631D01*
X134561715Y-57516907D01*
X134643707Y-57577165D01*
X134815908Y-57609196D01*
X135117877Y-57627788D01*
X135167856Y-57629949D01*
X135449824Y-57636220D01*
X135609966Y-57617364D01*
X135689728Y-57561927D01*
X135730555Y-57458455D01*
X135760769Y-57340383D01*
X135788787Y-57135645D01*
X135730553Y-57023922D01*
X135558459Y-56977333D01*
X135244899Y-56968000D01*
X134897271Y-56986812D01*
X134655426Y-57058113D01*
X134539513Y-57194357D01*
X134529533Y-57407839D01*
X133449885Y-57407839D01*
X133490416Y-57364565D01*
X133498866Y-57298674D01*
X133537092Y-57099721D01*
X133666597Y-56809047D01*
X133849299Y-56533507D01*
X134044886Y-56343612D01*
X134070528Y-56327679D01*
X134191586Y-56274789D01*
X134360012Y-56240626D01*
X134606245Y-56222625D01*
X134960723Y-56218220D01*
X135453884Y-56224845D01*
X136645774Y-56248333D01*
X136644586Y-57135645D01*
X136643563Y-57899333D01*
G37*
G36*
X141948951Y-59478225D02*
G01*
X141931266Y-60181711D01*
X141862092Y-60787335D01*
X141746876Y-61431671D01*
X145835538Y-64875254D01*
X145996473Y-65010868D01*
X146703995Y-65608787D01*
X147369293Y-66173754D01*
X147981417Y-66696302D01*
X148529414Y-67166959D01*
X149002332Y-67576259D01*
X149389222Y-67914730D01*
X149679131Y-68172905D01*
X149861107Y-68341314D01*
X149924199Y-68410489D01*
X149879101Y-68445464D01*
X149733699Y-68379600D01*
X149682655Y-68348280D01*
X149491136Y-68233444D01*
X149176391Y-68046027D01*
X148752331Y-67794273D01*
X148232867Y-67486424D01*
X147631911Y-67130720D01*
X146963373Y-66735406D01*
X146241165Y-66308722D01*
X145479199Y-65858911D01*
X144993605Y-65572295D01*
X144256373Y-65136882D01*
X143568270Y-64730159D01*
X142943114Y-64360313D01*
X142394727Y-64035532D01*
X141936928Y-63764002D01*
X141583539Y-63553910D01*
X141348378Y-63413442D01*
X141245267Y-63350787D01*
X141139994Y-63296416D01*
X141044436Y-63324123D01*
X140936951Y-63481931D01*
X140798568Y-63723050D01*
X143493212Y-66081692D01*
X143810209Y-66359568D01*
X144362254Y-66845518D01*
X144865764Y-67291325D01*
X145307541Y-67685148D01*
X145674388Y-68015150D01*
X145953105Y-68269491D01*
X146130495Y-68436331D01*
X146193361Y-68503833D01*
X146193545Y-68506619D01*
X146139315Y-68567333D01*
X146107301Y-68554594D01*
X145942253Y-68475534D01*
X145651801Y-68331087D01*
X145251722Y-68129262D01*
X144757794Y-67878067D01*
X144185797Y-67585511D01*
X143551507Y-67259600D01*
X142870704Y-66908344D01*
X142229672Y-66578506D01*
X141458421Y-66186871D01*
X140812975Y-65865840D01*
X140297864Y-65617582D01*
X139917618Y-65444269D01*
X139676766Y-65348071D01*
X139579839Y-65331160D01*
X139591555Y-65397616D01*
X139709002Y-65585623D01*
X139936166Y-65885652D01*
X140268817Y-66292170D01*
X140702726Y-66799649D01*
X140830959Y-66947266D01*
X141184110Y-67353926D01*
X141499356Y-67717117D01*
X141758404Y-68015753D01*
X141942961Y-68228749D01*
X142034734Y-68335019D01*
X142103327Y-68440289D01*
X142110418Y-68535336D01*
X142110127Y-68535588D01*
X142020449Y-68513128D01*
X141798971Y-68426128D01*
X141466004Y-68283493D01*
X141041865Y-68094126D01*
X140546868Y-67866934D01*
X140001326Y-67610821D01*
X137943866Y-66634674D01*
X137181866Y-67004258D01*
X137174688Y-67007737D01*
X136580326Y-67277897D01*
X136040778Y-67477690D01*
X135511568Y-67616316D01*
X134948220Y-67702971D01*
X134306256Y-67746855D01*
X133541199Y-67757165D01*
X133440835Y-67756605D01*
X132729851Y-67739892D01*
X132137709Y-67695065D01*
X131620437Y-67613233D01*
X131134062Y-67485500D01*
X130634611Y-67302974D01*
X130078111Y-67056762D01*
X129959970Y-67000580D01*
X129115905Y-66539004D01*
X128367465Y-66005949D01*
X127650431Y-65356434D01*
X127062459Y-64707021D01*
X126375587Y-63734685D01*
X125834943Y-62677544D01*
X125443072Y-61540000D01*
X125371755Y-61252917D01*
X125310811Y-60924090D01*
X125272856Y-60569666D01*
X125253064Y-60141805D01*
X125246608Y-59592666D01*
X125246640Y-59472859D01*
X125249844Y-59201095D01*
X125546055Y-59201095D01*
X125595013Y-60304661D01*
X125791904Y-61391546D01*
X126132652Y-62442966D01*
X126613182Y-63440134D01*
X127229420Y-64364265D01*
X127977289Y-65196573D01*
X128080948Y-65294657D01*
X128985205Y-66032715D01*
X129952564Y-66616198D01*
X130996498Y-67052085D01*
X132130480Y-67347353D01*
X132156553Y-67352239D01*
X132643234Y-67414138D01*
X133228783Y-67447350D01*
X133849153Y-67451365D01*
X134440299Y-67425670D01*
X134938177Y-67369755D01*
X135566451Y-67231235D01*
X136487983Y-66917736D01*
X137397903Y-66488600D01*
X138249232Y-65966918D01*
X138994986Y-65375781D01*
X139069701Y-65306708D01*
X139844341Y-64468861D01*
X140483624Y-63541144D01*
X140983139Y-62540072D01*
X141338473Y-61482157D01*
X141545214Y-60383912D01*
X141598949Y-59261852D01*
X141495266Y-58132489D01*
X141229752Y-57012336D01*
X141058172Y-56521406D01*
X140580618Y-55506201D01*
X139976800Y-54585350D01*
X139260915Y-53766278D01*
X138447161Y-53056409D01*
X137549735Y-52463168D01*
X136582835Y-51993980D01*
X135560658Y-51656271D01*
X134497403Y-51457465D01*
X133407266Y-51404987D01*
X132304446Y-51506261D01*
X131203140Y-51768714D01*
X130965644Y-51847284D01*
X129879597Y-52309606D01*
X128893640Y-52906329D01*
X128014844Y-53630900D01*
X127250278Y-54476765D01*
X126607013Y-55437370D01*
X126092120Y-56506163D01*
X125908235Y-57019068D01*
X125649104Y-58099636D01*
X125546055Y-59201095D01*
X125249844Y-59201095D01*
X125252290Y-58993561D01*
X125265517Y-58547777D01*
X125284642Y-58180774D01*
X125307985Y-57937818D01*
X125372103Y-57510637D01*
X121180485Y-53882897D01*
X120894434Y-53635138D01*
X120188096Y-53021684D01*
X119525060Y-52443494D01*
X118915951Y-51909974D01*
X118371396Y-51430526D01*
X117902023Y-51014555D01*
X117518456Y-50671466D01*
X117231324Y-50410661D01*
X117051251Y-50241544D01*
X116988866Y-50173520D01*
X117010357Y-50137830D01*
X117124670Y-50143996D01*
X117126083Y-50144577D01*
X117228126Y-50200595D01*
X117461680Y-50335843D01*
X117813806Y-50542639D01*
X118271562Y-50813299D01*
X118822008Y-51140141D01*
X119452204Y-51515481D01*
X120149209Y-51931637D01*
X120900083Y-52380924D01*
X121691885Y-52855661D01*
X122143607Y-53126564D01*
X123025504Y-53653884D01*
X123776796Y-54100450D01*
X124406911Y-54471568D01*
X124925277Y-54772546D01*
X125341322Y-55008691D01*
X125664474Y-55185310D01*
X125904161Y-55307709D01*
X126069810Y-55381195D01*
X126170850Y-55411076D01*
X126216709Y-55402659D01*
X126223125Y-55382698D01*
X126194350Y-55308092D01*
X126101922Y-55180934D01*
X125937226Y-54992252D01*
X125691644Y-54733078D01*
X125356559Y-54394439D01*
X124923353Y-53967367D01*
X124383409Y-53442889D01*
X123728110Y-52812036D01*
X123422549Y-52517980D01*
X122896327Y-52007641D01*
X122418558Y-51539301D01*
X122001629Y-51125398D01*
X121657923Y-50778372D01*
X121399826Y-50510660D01*
X121239723Y-50334702D01*
X121190000Y-50262936D01*
X121201210Y-50247999D01*
X121291549Y-50226195D01*
X121401682Y-50290528D01*
X121711805Y-50465571D01*
X122117267Y-50688956D01*
X122599268Y-50950784D01*
X123139011Y-51241152D01*
X123717696Y-51550160D01*
X124316524Y-51867907D01*
X124916697Y-52184491D01*
X125499416Y-52490013D01*
X126045883Y-52774570D01*
X126537298Y-53028262D01*
X126954863Y-53241188D01*
X127279780Y-53403447D01*
X127493248Y-53505138D01*
X127576471Y-53536360D01*
X127567699Y-53498789D01*
X127470256Y-53348588D01*
X127284554Y-53101718D01*
X127024817Y-52776290D01*
X126705270Y-52390418D01*
X126340139Y-51962212D01*
X125961852Y-51522794D01*
X125578716Y-51071720D01*
X125293794Y-50727016D01*
X125098651Y-50477821D01*
X124984853Y-50313272D01*
X124943965Y-50222507D01*
X124967552Y-50194666D01*
X124969577Y-50195100D01*
X125068342Y-50237598D01*
X125297740Y-50343013D01*
X125637906Y-50502016D01*
X126068972Y-50705282D01*
X126571074Y-50943481D01*
X127124345Y-51207288D01*
X129243002Y-52219911D01*
X129825767Y-51932261D01*
X130357887Y-51691940D01*
X131468839Y-51322497D01*
X132609196Y-51110422D01*
X133761155Y-51055942D01*
X134906911Y-51159280D01*
X136028661Y-51420661D01*
X137108601Y-51840311D01*
X137288321Y-51927468D01*
X137679883Y-52129120D01*
X138036214Y-52326740D01*
X138297621Y-52487819D01*
X138457872Y-52603843D01*
X138855699Y-52932280D01*
X139292395Y-53334835D01*
X139725346Y-53769544D01*
X140111940Y-54194444D01*
X140409562Y-54567571D01*
X140549082Y-54772956D01*
X140899527Y-55374862D01*
X141230646Y-56054676D01*
X141512745Y-56748224D01*
X141716129Y-57391333D01*
X141719971Y-57406312D01*
X141840614Y-58027954D01*
X141917838Y-58739449D01*
X141939839Y-59261852D01*
X141948951Y-59478225D01*
G37*
G36*
X135382479Y-62251220D02*
G01*
X135530866Y-62386666D01*
X135583737Y-62422606D01*
X135684084Y-62579363D01*
X135681793Y-62749910D01*
X135571038Y-62864878D01*
X135505459Y-62912496D01*
X135491109Y-62922916D01*
X135539072Y-63031554D01*
X135564770Y-63059885D01*
X135745310Y-63150141D01*
X135922145Y-63091175D01*
X136051553Y-62894666D01*
X136051886Y-62893712D01*
X136164804Y-62698784D01*
X136335199Y-62640666D01*
X136335932Y-62640667D01*
X136506067Y-62699208D01*
X136618846Y-62894666D01*
X136728038Y-63083999D01*
X136900452Y-63141067D01*
X137139313Y-63044488D01*
X137156560Y-63033946D01*
X137306092Y-62987306D01*
X137442762Y-63076944D01*
X137450636Y-63084919D01*
X137533262Y-63225917D01*
X137482549Y-63394538D01*
X137425763Y-63557503D01*
X137452359Y-63624165D01*
X137480420Y-63694497D01*
X137677929Y-63741333D01*
X137824045Y-63766172D01*
X137988257Y-63875852D01*
X138068523Y-64031042D01*
X138045922Y-64185170D01*
X137901532Y-64291666D01*
X137760669Y-64387705D01*
X137754543Y-64535352D01*
X137795065Y-64580343D01*
X137897750Y-64694354D01*
X138003881Y-64807782D01*
X138029502Y-64980394D01*
X137928439Y-65121962D01*
X137719667Y-65180666D01*
X137507432Y-65228056D01*
X137414239Y-65369847D01*
X137468955Y-65586727D01*
X137479599Y-65607512D01*
X137503189Y-65756874D01*
X137390808Y-65902798D01*
X137299943Y-65978936D01*
X137195451Y-66005160D01*
X137069366Y-65913455D01*
X137061952Y-65906814D01*
X136851257Y-65785517D01*
X136681552Y-65828107D01*
X136557397Y-66033516D01*
X136528437Y-66108822D01*
X136427071Y-66247088D01*
X136273948Y-66266350D01*
X136147782Y-66217679D01*
X136053465Y-66043322D01*
X135974219Y-65855710D01*
X135810001Y-65797179D01*
X135582488Y-65886461D01*
X135512238Y-65929750D01*
X135366671Y-65972653D01*
X135226659Y-65905045D01*
X135179454Y-65867465D01*
X135116567Y-65753397D01*
X135167836Y-65581327D01*
X135211074Y-65373320D01*
X135115654Y-65230681D01*
X134881911Y-65180666D01*
X134750942Y-65148675D01*
X134603087Y-65017975D01*
X134571186Y-64940047D01*
X134596184Y-64819786D01*
X134748275Y-64678935D01*
X134805703Y-64635331D01*
X135540383Y-64635331D01*
X135672232Y-64915402D01*
X135952505Y-65137456D01*
X136011067Y-65165708D01*
X136355482Y-65243787D01*
X136662366Y-65158858D01*
X136918807Y-64913907D01*
X136943404Y-64876124D01*
X137036428Y-64580343D01*
X136995317Y-64276695D01*
X136842640Y-64007458D01*
X136600966Y-63814911D01*
X136292866Y-63741333D01*
X136060385Y-63788310D01*
X135778353Y-63988820D01*
X135741173Y-64027910D01*
X135561761Y-64328936D01*
X135540383Y-64635331D01*
X134805703Y-64635331D01*
X134980532Y-64502587D01*
X134756875Y-64312460D01*
X134674026Y-64236543D01*
X134582925Y-64091276D01*
X134605980Y-63931833D01*
X134675568Y-63811266D01*
X134782320Y-63741333D01*
X134803378Y-63738035D01*
X134796058Y-63689167D01*
X134966969Y-63689167D01*
X135012872Y-63741333D01*
X135037707Y-63738172D01*
X135149866Y-63656666D01*
X135163429Y-63624165D01*
X135117526Y-63572000D01*
X135092692Y-63575160D01*
X134980532Y-63656666D01*
X134966969Y-63689167D01*
X134796058Y-63689167D01*
X134795789Y-63687374D01*
X134702411Y-63604278D01*
X134572057Y-63526058D01*
X134453540Y-63490026D01*
X134443174Y-63490922D01*
X134333463Y-63572516D01*
X134215819Y-63746581D01*
X134084756Y-63913881D01*
X133914563Y-63987177D01*
X133765420Y-63935296D01*
X133682799Y-63757322D01*
X133609015Y-63574451D01*
X133451997Y-63513261D01*
X133235703Y-63602755D01*
X133171205Y-63639634D01*
X132969351Y-63671730D01*
X132804849Y-63598393D01*
X132736866Y-63439042D01*
X132736501Y-63422459D01*
X132697970Y-63355367D01*
X132567532Y-63402666D01*
X132430443Y-63520436D01*
X132423026Y-63670126D01*
X132422614Y-63678432D01*
X132578771Y-63840574D01*
X132696452Y-63965681D01*
X132715964Y-64136679D01*
X132610134Y-64276263D01*
X132397490Y-64334000D01*
X132176433Y-64366990D01*
X132093005Y-64481976D01*
X132138322Y-64699543D01*
X132146253Y-64721114D01*
X132167190Y-64904561D01*
X132054261Y-65058436D01*
X131966702Y-65131961D01*
X131862067Y-65158904D01*
X131735366Y-65066788D01*
X131727952Y-65060148D01*
X131517257Y-64938850D01*
X131347552Y-64981440D01*
X131223397Y-65186850D01*
X131194437Y-65262155D01*
X131093071Y-65400422D01*
X130939948Y-65419683D01*
X130813782Y-65371013D01*
X130719465Y-65196656D01*
X130640219Y-65009043D01*
X130476001Y-64950512D01*
X130248488Y-65039794D01*
X130116354Y-65104219D01*
X129930755Y-65094690D01*
X129816087Y-64945290D01*
X129791654Y-64671576D01*
X129791986Y-64667509D01*
X129793838Y-64470012D01*
X129727052Y-64383005D01*
X129549340Y-64350446D01*
X129374644Y-64301817D01*
X129235429Y-64168346D01*
X129221569Y-63998231D01*
X129350618Y-63836839D01*
X129483491Y-63708007D01*
X129494344Y-63568038D01*
X130187891Y-63568038D01*
X130224815Y-63851443D01*
X130381851Y-64107426D01*
X130666628Y-64298834D01*
X130677618Y-64303436D01*
X130866705Y-64382313D01*
X130981828Y-64405402D01*
X131099598Y-64369241D01*
X131296625Y-64270368D01*
X131430160Y-64187965D01*
X131636189Y-63949556D01*
X131715673Y-63670126D01*
X131677955Y-63387298D01*
X131532378Y-63138696D01*
X131288285Y-62961944D01*
X131225632Y-62949296D01*
X132706727Y-62949296D01*
X132712303Y-63063883D01*
X132753284Y-63183802D01*
X132801311Y-63224823D01*
X132819199Y-63124425D01*
X135044268Y-63124425D01*
X135085173Y-63123250D01*
X135229548Y-63018973D01*
X135274856Y-62983643D01*
X135335571Y-62912496D01*
X135259773Y-62894666D01*
X135192564Y-62908999D01*
X135076915Y-63021666D01*
X135076389Y-63023036D01*
X135048417Y-63111330D01*
X135044268Y-63124425D01*
X132819199Y-63124425D01*
X132821532Y-63111330D01*
X132815276Y-63059356D01*
X132744762Y-62941879D01*
X132706727Y-62949296D01*
X131225632Y-62949296D01*
X130955017Y-62894666D01*
X130721484Y-62924809D01*
X130443856Y-63067570D01*
X130263448Y-63294363D01*
X130187891Y-63568038D01*
X129494344Y-63568038D01*
X129495884Y-63548172D01*
X129338961Y-63388092D01*
X129222956Y-63265332D01*
X129201722Y-63093685D01*
X129305619Y-62952990D01*
X129516180Y-62894666D01*
X129712863Y-62857154D01*
X129811487Y-62718860D01*
X129808876Y-62658429D01*
X132107520Y-62658429D01*
X132113581Y-62767666D01*
X132145101Y-62827354D01*
X132235267Y-62894666D01*
X132265545Y-62876904D01*
X132259484Y-62767666D01*
X132227964Y-62707978D01*
X132137798Y-62640666D01*
X132107520Y-62658429D01*
X129808876Y-62658429D01*
X129800337Y-62460817D01*
X129790894Y-62356757D01*
X129853741Y-62165590D01*
X130008474Y-62086775D01*
X130217609Y-62148379D01*
X130219912Y-62149826D01*
X130453885Y-62237315D01*
X130632122Y-62191744D01*
X130720826Y-62021627D01*
X130785312Y-61882752D01*
X130977079Y-61809827D01*
X131032564Y-61805023D01*
X131184952Y-61840145D01*
X131259887Y-61994201D01*
X131354770Y-62184872D01*
X131531700Y-62264002D01*
X131758870Y-62185622D01*
X131795461Y-62164195D01*
X131998029Y-62122663D01*
X132161604Y-62194611D01*
X132228866Y-62358907D01*
X132228962Y-62370405D01*
X132255575Y-62446210D01*
X132355866Y-62386666D01*
X132443845Y-62289056D01*
X133186817Y-62289056D01*
X133291766Y-62584500D01*
X133524627Y-62813721D01*
X133559002Y-62834051D01*
X133648124Y-62876904D01*
X133769269Y-62935155D01*
X133922199Y-62973650D01*
X134245844Y-62897628D01*
X134480773Y-62720106D01*
X134624121Y-62475685D01*
X134675318Y-62198877D01*
X134633796Y-61924194D01*
X134498985Y-61686150D01*
X134270314Y-61519256D01*
X133947214Y-61458026D01*
X133907889Y-61459083D01*
X133662824Y-61494560D01*
X133491529Y-61563859D01*
X133365539Y-61684014D01*
X133211000Y-61973517D01*
X133186817Y-62289056D01*
X132443845Y-62289056D01*
X132444995Y-62287780D01*
X132463534Y-62117757D01*
X132313952Y-61952493D01*
X132203559Y-61834927D01*
X132182613Y-61662726D01*
X132291502Y-61515590D01*
X132512673Y-61438886D01*
X132550638Y-61434970D01*
X132704381Y-61398089D01*
X132767186Y-61299017D01*
X132779199Y-61084350D01*
X132800650Y-60873789D01*
X132893932Y-60681007D01*
X133042930Y-60624368D01*
X133227665Y-60720100D01*
X133228052Y-60720449D01*
X133426256Y-60820049D01*
X133596005Y-60761232D01*
X133705845Y-60554868D01*
X133720217Y-60504520D01*
X133808169Y-60382956D01*
X133988652Y-60370494D01*
X134158230Y-60425309D01*
X134244650Y-60580341D01*
X134245495Y-60586023D01*
X134336950Y-60768474D01*
X134514221Y-60819956D01*
X134745622Y-60730944D01*
X134865794Y-60659368D01*
X134982954Y-60645928D01*
X135111968Y-60739680D01*
X135121678Y-60748581D01*
X135221175Y-60892047D01*
X135182955Y-61049272D01*
X135126929Y-61229919D01*
X135195826Y-61391008D01*
X135410899Y-61470393D01*
X135564144Y-61518705D01*
X135710472Y-61690783D01*
X135729346Y-61749382D01*
X135717772Y-61881882D01*
X135571439Y-61979540D01*
X135398374Y-62107325D01*
X135388261Y-62198877D01*
X135382479Y-62251220D01*
G37*
%TD*%
M02*
