M48
; DRILL file {KiCad 8.0.0} date 2024-03-29T20:30:58+0100
; FORMAT={-:-/ absolute / inch / decimal}
; #@! TF.CreationDate,2024-03-29T20:30:58+01:00
; #@! TF.GenerationSoftware,Kicad,Pcbnew,8.0.0
; #@! TF.FileFunction,Plated,1,2,PTH
FMAT,2
INCH
; #@! TA.AperFunction,Plated,PTH,ViaDrill
T1C0.0157
; #@! TA.AperFunction,Plated,PTH,ComponentDrill
T2C0.0374
; #@! TA.AperFunction,Plated,PTH,ComponentDrill
T3C0.0402
%
G90
G05
T1
X6.5075Y-3.8724
T2
X3.5433Y-3.4055
X3.5433Y-3.5039
X3.5433Y-3.6024
X3.5433Y-3.9252
X3.5433Y-4.0236
X3.5433Y-4.122
X3.5433Y-4.5669
X3.5433Y-4.6654
X3.5433Y-4.7638
X4.1732Y-5.2362
X4.2717Y-5.2362
X4.3701Y-5.2362
X4.4685Y-5.2362
X4.5669Y-5.2362
X5.748Y-5.2362
X5.8465Y-5.2362
X5.9449Y-5.2362
X6.0433Y-5.2362
X6.1417Y-5.2362
X6.7717Y-3.622
X6.7717Y-3.7205
X6.7717Y-3.8189
X6.7717Y-4.1063
X6.7717Y-4.2047
X6.7717Y-4.3031
X6.7717Y-4.5669
X6.7717Y-4.6654
X6.7717Y-4.7638
T3
X3.9114Y-3.0154
X3.9114Y-3.1154
X3.9114Y-3.2154
X3.9114Y-3.3154
X3.9114Y-3.4154
X3.9114Y-3.5154
X3.9114Y-3.6154
X3.9114Y-3.7154
X3.9114Y-3.8154
X3.9114Y-3.9154
X3.9114Y-4.0154
X3.9114Y-4.1154
X3.9114Y-4.2154
X3.9114Y-4.3154
X3.9114Y-4.4154
X3.9114Y-4.5154
X3.9114Y-4.6154
X3.9114Y-4.7154
X3.9114Y-4.8154
X4.0114Y-3.0154
X4.0114Y-3.1154
X4.0114Y-3.2154
X4.0114Y-3.3154
X4.0114Y-3.4154
X4.0114Y-3.5154
X4.0114Y-3.6154
X4.0114Y-3.7154
X4.0114Y-3.8154
X4.0114Y-3.9154
X4.0114Y-4.0154
X4.0114Y-4.1154
X4.0114Y-4.2154
X4.0114Y-4.3154
X4.0114Y-4.4154
X4.0114Y-4.5154
X4.0114Y-4.6154
X4.0114Y-4.7154
X4.0114Y-4.8154
X6.3114Y-3.0154
X6.3114Y-3.1154
X6.3114Y-3.2154
X6.3114Y-3.3154
X6.3114Y-3.4154
X6.3114Y-3.5154
X6.3114Y-3.6154
X6.3114Y-3.7154
X6.3114Y-3.8154
X6.3114Y-3.9154
X6.3114Y-4.0154
X6.3114Y-4.1154
X6.3114Y-4.2154
X6.3114Y-4.3154
X6.3114Y-4.4154
X6.3114Y-4.5154
X6.3114Y-4.6154
X6.3114Y-4.7154
X6.3114Y-4.8154
X6.4114Y-3.0154
X6.4114Y-3.1154
X6.4114Y-3.2154
X6.4114Y-3.3154
X6.4114Y-3.4154
X6.4114Y-3.5154
X6.4114Y-3.6154
X6.4114Y-3.7154
X6.4114Y-3.8154
X6.4114Y-3.9154
X6.4114Y-4.0154
X6.4114Y-4.1154
X6.4114Y-4.2154
X6.4114Y-4.3154
X6.4114Y-4.4154
X6.4114Y-4.5154
X6.4114Y-4.6154
X6.4114Y-4.7154
X6.4114Y-4.8154
M30
