%TF.GenerationSoftware,KiCad,Pcbnew,8.0.0*%
%TF.CreationDate,2024-03-29T20:31:36+01:00*%
%TF.ProjectId,nucleo_expansion,6e75636c-656f-45f6-9578-70616e73696f,Cyril*%
%TF.SameCoordinates,Original*%
%TF.FileFunction,Legend,Top*%
%TF.FilePolarity,Positive*%
%FSLAX46Y46*%
G04 Gerber Fmt 4.6, Leading zero omitted, Abs format (unit mm)*
G04 Created by KiCad (PCBNEW 8.0.0) date 2024-03-29 20:31:36*
%MOMM*%
%LPD*%
G01*
G04 APERTURE LIST*
%ADD10C,0.150000*%
%ADD11C,0.120000*%
%ADD12C,0.127000*%
%ADD13C,0.200000*%
G04 APERTURE END LIST*
D10*
X95369819Y-104663220D02*
X94369819Y-104663220D01*
X94369819Y-104663220D02*
X94369819Y-104282268D01*
X94369819Y-104282268D02*
X94417438Y-104187030D01*
X94417438Y-104187030D02*
X94465057Y-104139411D01*
X94465057Y-104139411D02*
X94560295Y-104091792D01*
X94560295Y-104091792D02*
X94703152Y-104091792D01*
X94703152Y-104091792D02*
X94798390Y-104139411D01*
X94798390Y-104139411D02*
X94846009Y-104187030D01*
X94846009Y-104187030D02*
X94893628Y-104282268D01*
X94893628Y-104282268D02*
X94893628Y-104663220D01*
X94369819Y-103758458D02*
X95369819Y-103520363D01*
X95369819Y-103520363D02*
X94655533Y-103329887D01*
X94655533Y-103329887D02*
X95369819Y-103139411D01*
X95369819Y-103139411D02*
X94369819Y-102901316D01*
X95369819Y-102520363D02*
X94369819Y-102520363D01*
X94369819Y-102520363D02*
X95084104Y-102187030D01*
X95084104Y-102187030D02*
X94369819Y-101853697D01*
X94369819Y-101853697D02*
X95369819Y-101853697D01*
X94703152Y-100948935D02*
X95369819Y-100948935D01*
X94322200Y-101187030D02*
X95036485Y-101425125D01*
X95036485Y-101425125D02*
X95036485Y-100806078D01*
X94322200Y-99710840D02*
X95607914Y-100567982D01*
X94465057Y-99425125D02*
X94417438Y-99377506D01*
X94417438Y-99377506D02*
X94369819Y-99282268D01*
X94369819Y-99282268D02*
X94369819Y-99044173D01*
X94369819Y-99044173D02*
X94417438Y-98948935D01*
X94417438Y-98948935D02*
X94465057Y-98901316D01*
X94465057Y-98901316D02*
X94560295Y-98853697D01*
X94560295Y-98853697D02*
X94655533Y-98853697D01*
X94655533Y-98853697D02*
X94798390Y-98901316D01*
X94798390Y-98901316D02*
X95369819Y-99472744D01*
X95369819Y-99472744D02*
X95369819Y-98853697D01*
X167630180Y-92836779D02*
X166820657Y-92836779D01*
X166820657Y-92836779D02*
X166725419Y-92884398D01*
X166725419Y-92884398D02*
X166677800Y-92932017D01*
X166677800Y-92932017D02*
X166630180Y-93027255D01*
X166630180Y-93027255D02*
X166630180Y-93217731D01*
X166630180Y-93217731D02*
X166677800Y-93312969D01*
X166677800Y-93312969D02*
X166725419Y-93360588D01*
X166725419Y-93360588D02*
X166820657Y-93408207D01*
X166820657Y-93408207D02*
X167630180Y-93408207D01*
X166915895Y-93836779D02*
X166915895Y-94312969D01*
X166630180Y-93741541D02*
X167630180Y-94074874D01*
X167630180Y-94074874D02*
X166630180Y-94408207D01*
X166630180Y-95312969D02*
X167106371Y-94979636D01*
X166630180Y-94741541D02*
X167630180Y-94741541D01*
X167630180Y-94741541D02*
X167630180Y-95122493D01*
X167630180Y-95122493D02*
X167582561Y-95217731D01*
X167582561Y-95217731D02*
X167534942Y-95265350D01*
X167534942Y-95265350D02*
X167439704Y-95312969D01*
X167439704Y-95312969D02*
X167296847Y-95312969D01*
X167296847Y-95312969D02*
X167201609Y-95265350D01*
X167201609Y-95265350D02*
X167153990Y-95217731D01*
X167153990Y-95217731D02*
X167106371Y-95122493D01*
X167106371Y-95122493D02*
X167106371Y-94741541D01*
X167630180Y-95598684D02*
X167630180Y-96170112D01*
X166630180Y-95884398D02*
X167630180Y-95884398D01*
X167630180Y-96408208D02*
X167630180Y-97027255D01*
X167630180Y-97027255D02*
X167249228Y-96693922D01*
X167249228Y-96693922D02*
X167249228Y-96836779D01*
X167249228Y-96836779D02*
X167201609Y-96932017D01*
X167201609Y-96932017D02*
X167153990Y-96979636D01*
X167153990Y-96979636D02*
X167058752Y-97027255D01*
X167058752Y-97027255D02*
X166820657Y-97027255D01*
X166820657Y-97027255D02*
X166725419Y-96979636D01*
X166725419Y-96979636D02*
X166677800Y-96932017D01*
X166677800Y-96932017D02*
X166630180Y-96836779D01*
X166630180Y-96836779D02*
X166630180Y-96551065D01*
X166630180Y-96551065D02*
X166677800Y-96455827D01*
X166677800Y-96455827D02*
X166725419Y-96408208D01*
X95369819Y-121663220D02*
X94369819Y-121663220D01*
X94369819Y-121663220D02*
X94369819Y-121282268D01*
X94369819Y-121282268D02*
X94417438Y-121187030D01*
X94417438Y-121187030D02*
X94465057Y-121139411D01*
X94465057Y-121139411D02*
X94560295Y-121091792D01*
X94560295Y-121091792D02*
X94703152Y-121091792D01*
X94703152Y-121091792D02*
X94798390Y-121139411D01*
X94798390Y-121139411D02*
X94846009Y-121187030D01*
X94846009Y-121187030D02*
X94893628Y-121282268D01*
X94893628Y-121282268D02*
X94893628Y-121663220D01*
X94369819Y-120758458D02*
X95369819Y-120520363D01*
X95369819Y-120520363D02*
X94655533Y-120329887D01*
X94655533Y-120329887D02*
X95369819Y-120139411D01*
X95369819Y-120139411D02*
X94369819Y-119901316D01*
X95369819Y-119520363D02*
X94369819Y-119520363D01*
X94369819Y-119520363D02*
X95084104Y-119187030D01*
X95084104Y-119187030D02*
X94369819Y-118853697D01*
X94369819Y-118853697D02*
X95369819Y-118853697D01*
X95369819Y-117853697D02*
X95369819Y-118425125D01*
X95369819Y-118139411D02*
X94369819Y-118139411D01*
X94369819Y-118139411D02*
X94512676Y-118234649D01*
X94512676Y-118234649D02*
X94607914Y-118329887D01*
X94607914Y-118329887D02*
X94655533Y-118425125D01*
X94322200Y-116710840D02*
X95607914Y-117567982D01*
X94465057Y-116425125D02*
X94417438Y-116377506D01*
X94417438Y-116377506D02*
X94369819Y-116282268D01*
X94369819Y-116282268D02*
X94369819Y-116044173D01*
X94369819Y-116044173D02*
X94417438Y-115948935D01*
X94417438Y-115948935D02*
X94465057Y-115901316D01*
X94465057Y-115901316D02*
X94560295Y-115853697D01*
X94560295Y-115853697D02*
X94655533Y-115853697D01*
X94655533Y-115853697D02*
X94798390Y-115901316D01*
X94798390Y-115901316D02*
X95369819Y-116472744D01*
X95369819Y-116472744D02*
X95369819Y-115853697D01*
X95369819Y-115425125D02*
X94369819Y-115425125D01*
X94369819Y-115425125D02*
X95369819Y-114853697D01*
X95369819Y-114853697D02*
X94369819Y-114853697D01*
X125836779Y-71869819D02*
X125836779Y-70869819D01*
X125836779Y-70869819D02*
X126408207Y-71869819D01*
X126408207Y-71869819D02*
X126408207Y-70869819D01*
X126884398Y-70869819D02*
X126884398Y-71679342D01*
X126884398Y-71679342D02*
X126932017Y-71774580D01*
X126932017Y-71774580D02*
X126979636Y-71822200D01*
X126979636Y-71822200D02*
X127074874Y-71869819D01*
X127074874Y-71869819D02*
X127265350Y-71869819D01*
X127265350Y-71869819D02*
X127360588Y-71822200D01*
X127360588Y-71822200D02*
X127408207Y-71774580D01*
X127408207Y-71774580D02*
X127455826Y-71679342D01*
X127455826Y-71679342D02*
X127455826Y-70869819D01*
X128503445Y-71774580D02*
X128455826Y-71822200D01*
X128455826Y-71822200D02*
X128312969Y-71869819D01*
X128312969Y-71869819D02*
X128217731Y-71869819D01*
X128217731Y-71869819D02*
X128074874Y-71822200D01*
X128074874Y-71822200D02*
X127979636Y-71726961D01*
X127979636Y-71726961D02*
X127932017Y-71631723D01*
X127932017Y-71631723D02*
X127884398Y-71441247D01*
X127884398Y-71441247D02*
X127884398Y-71298390D01*
X127884398Y-71298390D02*
X127932017Y-71107914D01*
X127932017Y-71107914D02*
X127979636Y-71012676D01*
X127979636Y-71012676D02*
X128074874Y-70917438D01*
X128074874Y-70917438D02*
X128217731Y-70869819D01*
X128217731Y-70869819D02*
X128312969Y-70869819D01*
X128312969Y-70869819D02*
X128455826Y-70917438D01*
X128455826Y-70917438D02*
X128503445Y-70965057D01*
X129408207Y-71869819D02*
X128932017Y-71869819D01*
X128932017Y-71869819D02*
X128932017Y-70869819D01*
X129741541Y-71346009D02*
X130074874Y-71346009D01*
X130217731Y-71869819D02*
X129741541Y-71869819D01*
X129741541Y-71869819D02*
X129741541Y-70869819D01*
X129741541Y-70869819D02*
X130217731Y-70869819D01*
X130836779Y-70869819D02*
X131027255Y-70869819D01*
X131027255Y-70869819D02*
X131122493Y-70917438D01*
X131122493Y-70917438D02*
X131217731Y-71012676D01*
X131217731Y-71012676D02*
X131265350Y-71203152D01*
X131265350Y-71203152D02*
X131265350Y-71536485D01*
X131265350Y-71536485D02*
X131217731Y-71726961D01*
X131217731Y-71726961D02*
X131122493Y-71822200D01*
X131122493Y-71822200D02*
X131027255Y-71869819D01*
X131027255Y-71869819D02*
X130836779Y-71869819D01*
X130836779Y-71869819D02*
X130741541Y-71822200D01*
X130741541Y-71822200D02*
X130646303Y-71726961D01*
X130646303Y-71726961D02*
X130598684Y-71536485D01*
X130598684Y-71536485D02*
X130598684Y-71203152D01*
X130598684Y-71203152D02*
X130646303Y-71012676D01*
X130646303Y-71012676D02*
X130741541Y-70917438D01*
X130741541Y-70917438D02*
X130836779Y-70869819D01*
X131693922Y-71488866D02*
X132455827Y-71488866D01*
X133265350Y-71346009D02*
X132932017Y-71346009D01*
X132932017Y-71869819D02*
X132932017Y-70869819D01*
X132932017Y-70869819D02*
X133408207Y-70869819D01*
X134217731Y-71203152D02*
X134217731Y-71869819D01*
X133979636Y-70822200D02*
X133741541Y-71536485D01*
X133741541Y-71536485D02*
X134360588Y-71536485D01*
X135170112Y-71203152D02*
X135170112Y-71869819D01*
X134932017Y-70822200D02*
X134693922Y-71536485D01*
X134693922Y-71536485D02*
X135312969Y-71536485D01*
X136122493Y-70869819D02*
X135932017Y-70869819D01*
X135932017Y-70869819D02*
X135836779Y-70917438D01*
X135836779Y-70917438D02*
X135789160Y-70965057D01*
X135789160Y-70965057D02*
X135693922Y-71107914D01*
X135693922Y-71107914D02*
X135646303Y-71298390D01*
X135646303Y-71298390D02*
X135646303Y-71679342D01*
X135646303Y-71679342D02*
X135693922Y-71774580D01*
X135693922Y-71774580D02*
X135741541Y-71822200D01*
X135741541Y-71822200D02*
X135836779Y-71869819D01*
X135836779Y-71869819D02*
X136027255Y-71869819D01*
X136027255Y-71869819D02*
X136122493Y-71822200D01*
X136122493Y-71822200D02*
X136170112Y-71774580D01*
X136170112Y-71774580D02*
X136217731Y-71679342D01*
X136217731Y-71679342D02*
X136217731Y-71441247D01*
X136217731Y-71441247D02*
X136170112Y-71346009D01*
X136170112Y-71346009D02*
X136122493Y-71298390D01*
X136122493Y-71298390D02*
X136027255Y-71250771D01*
X136027255Y-71250771D02*
X135836779Y-71250771D01*
X135836779Y-71250771D02*
X135741541Y-71298390D01*
X135741541Y-71298390D02*
X135693922Y-71346009D01*
X135693922Y-71346009D02*
X135646303Y-71441247D01*
X137217731Y-71869819D02*
X136884398Y-71393628D01*
X136646303Y-71869819D02*
X136646303Y-70869819D01*
X136646303Y-70869819D02*
X137027255Y-70869819D01*
X137027255Y-70869819D02*
X137122493Y-70917438D01*
X137122493Y-70917438D02*
X137170112Y-70965057D01*
X137170112Y-70965057D02*
X137217731Y-71060295D01*
X137217731Y-71060295D02*
X137217731Y-71203152D01*
X137217731Y-71203152D02*
X137170112Y-71298390D01*
X137170112Y-71298390D02*
X137122493Y-71346009D01*
X137122493Y-71346009D02*
X137027255Y-71393628D01*
X137027255Y-71393628D02*
X136646303Y-71393628D01*
X137646303Y-71346009D02*
X137979636Y-71346009D01*
X138122493Y-71869819D02*
X137646303Y-71869819D01*
X137646303Y-71869819D02*
X137646303Y-70869819D01*
X137646303Y-70869819D02*
X138122493Y-70869819D01*
X160289160Y-133822200D02*
X160432017Y-133869819D01*
X160432017Y-133869819D02*
X160670112Y-133869819D01*
X160670112Y-133869819D02*
X160765350Y-133822200D01*
X160765350Y-133822200D02*
X160812969Y-133774580D01*
X160812969Y-133774580D02*
X160860588Y-133679342D01*
X160860588Y-133679342D02*
X160860588Y-133584104D01*
X160860588Y-133584104D02*
X160812969Y-133488866D01*
X160812969Y-133488866D02*
X160765350Y-133441247D01*
X160765350Y-133441247D02*
X160670112Y-133393628D01*
X160670112Y-133393628D02*
X160479636Y-133346009D01*
X160479636Y-133346009D02*
X160384398Y-133298390D01*
X160384398Y-133298390D02*
X160336779Y-133250771D01*
X160336779Y-133250771D02*
X160289160Y-133155533D01*
X160289160Y-133155533D02*
X160289160Y-133060295D01*
X160289160Y-133060295D02*
X160336779Y-132965057D01*
X160336779Y-132965057D02*
X160384398Y-132917438D01*
X160384398Y-132917438D02*
X160479636Y-132869819D01*
X160479636Y-132869819D02*
X160717731Y-132869819D01*
X160717731Y-132869819D02*
X160860588Y-132917438D01*
X161289160Y-133869819D02*
X161289160Y-132869819D01*
X161289160Y-132869819D02*
X161670112Y-132869819D01*
X161670112Y-132869819D02*
X161765350Y-132917438D01*
X161765350Y-132917438D02*
X161812969Y-132965057D01*
X161812969Y-132965057D02*
X161860588Y-133060295D01*
X161860588Y-133060295D02*
X161860588Y-133203152D01*
X161860588Y-133203152D02*
X161812969Y-133298390D01*
X161812969Y-133298390D02*
X161765350Y-133346009D01*
X161765350Y-133346009D02*
X161670112Y-133393628D01*
X161670112Y-133393628D02*
X161289160Y-133393628D01*
X162289160Y-133869819D02*
X162289160Y-132869819D01*
X162717731Y-132965057D02*
X162765350Y-132917438D01*
X162765350Y-132917438D02*
X162860588Y-132869819D01*
X162860588Y-132869819D02*
X163098683Y-132869819D01*
X163098683Y-132869819D02*
X163193921Y-132917438D01*
X163193921Y-132917438D02*
X163241540Y-132965057D01*
X163241540Y-132965057D02*
X163289159Y-133060295D01*
X163289159Y-133060295D02*
X163289159Y-133155533D01*
X163289159Y-133155533D02*
X163241540Y-133298390D01*
X163241540Y-133298390D02*
X162670112Y-133869819D01*
X162670112Y-133869819D02*
X163289159Y-133869819D01*
X163479636Y-133965057D02*
X164241540Y-133965057D01*
X164432017Y-133822200D02*
X164527255Y-133869819D01*
X164527255Y-133869819D02*
X164717731Y-133869819D01*
X164717731Y-133869819D02*
X164812969Y-133822200D01*
X164812969Y-133822200D02*
X164860588Y-133726961D01*
X164860588Y-133726961D02*
X164860588Y-133679342D01*
X164860588Y-133679342D02*
X164812969Y-133584104D01*
X164812969Y-133584104D02*
X164717731Y-133536485D01*
X164717731Y-133536485D02*
X164574874Y-133536485D01*
X164574874Y-133536485D02*
X164479636Y-133488866D01*
X164479636Y-133488866D02*
X164432017Y-133393628D01*
X164432017Y-133393628D02*
X164432017Y-133346009D01*
X164432017Y-133346009D02*
X164479636Y-133250771D01*
X164479636Y-133250771D02*
X164574874Y-133203152D01*
X164574874Y-133203152D02*
X164717731Y-133203152D01*
X164717731Y-133203152D02*
X164812969Y-133250771D01*
X165432017Y-133869819D02*
X165336779Y-133822200D01*
X165336779Y-133822200D02*
X165289160Y-133726961D01*
X165289160Y-133726961D02*
X165289160Y-132869819D01*
X166241541Y-133869819D02*
X166241541Y-133346009D01*
X166241541Y-133346009D02*
X166193922Y-133250771D01*
X166193922Y-133250771D02*
X166098684Y-133203152D01*
X166098684Y-133203152D02*
X165908208Y-133203152D01*
X165908208Y-133203152D02*
X165812970Y-133250771D01*
X166241541Y-133822200D02*
X166146303Y-133869819D01*
X166146303Y-133869819D02*
X165908208Y-133869819D01*
X165908208Y-133869819D02*
X165812970Y-133822200D01*
X165812970Y-133822200D02*
X165765351Y-133726961D01*
X165765351Y-133726961D02*
X165765351Y-133631723D01*
X165765351Y-133631723D02*
X165812970Y-133536485D01*
X165812970Y-133536485D02*
X165908208Y-133488866D01*
X165908208Y-133488866D02*
X166146303Y-133488866D01*
X166146303Y-133488866D02*
X166241541Y-133441247D01*
X166622494Y-133203152D02*
X166860589Y-133869819D01*
X166860589Y-133869819D02*
X167098684Y-133203152D01*
X167860589Y-133822200D02*
X167765351Y-133869819D01*
X167765351Y-133869819D02*
X167574875Y-133869819D01*
X167574875Y-133869819D02*
X167479637Y-133822200D01*
X167479637Y-133822200D02*
X167432018Y-133726961D01*
X167432018Y-133726961D02*
X167432018Y-133346009D01*
X167432018Y-133346009D02*
X167479637Y-133250771D01*
X167479637Y-133250771D02*
X167574875Y-133203152D01*
X167574875Y-133203152D02*
X167765351Y-133203152D01*
X167765351Y-133203152D02*
X167860589Y-133250771D01*
X167860589Y-133250771D02*
X167908208Y-133346009D01*
X167908208Y-133346009D02*
X167908208Y-133441247D01*
X167908208Y-133441247D02*
X167432018Y-133536485D01*
X168860589Y-133869819D02*
X168289161Y-133869819D01*
X168574875Y-133869819D02*
X168574875Y-132869819D01*
X168574875Y-132869819D02*
X168479637Y-133012676D01*
X168479637Y-133012676D02*
X168384399Y-133107914D01*
X168384399Y-133107914D02*
X168289161Y-133155533D01*
X93289160Y-133322200D02*
X93432017Y-133369819D01*
X93432017Y-133369819D02*
X93670112Y-133369819D01*
X93670112Y-133369819D02*
X93765350Y-133322200D01*
X93765350Y-133322200D02*
X93812969Y-133274580D01*
X93812969Y-133274580D02*
X93860588Y-133179342D01*
X93860588Y-133179342D02*
X93860588Y-133084104D01*
X93860588Y-133084104D02*
X93812969Y-132988866D01*
X93812969Y-132988866D02*
X93765350Y-132941247D01*
X93765350Y-132941247D02*
X93670112Y-132893628D01*
X93670112Y-132893628D02*
X93479636Y-132846009D01*
X93479636Y-132846009D02*
X93384398Y-132798390D01*
X93384398Y-132798390D02*
X93336779Y-132750771D01*
X93336779Y-132750771D02*
X93289160Y-132655533D01*
X93289160Y-132655533D02*
X93289160Y-132560295D01*
X93289160Y-132560295D02*
X93336779Y-132465057D01*
X93336779Y-132465057D02*
X93384398Y-132417438D01*
X93384398Y-132417438D02*
X93479636Y-132369819D01*
X93479636Y-132369819D02*
X93717731Y-132369819D01*
X93717731Y-132369819D02*
X93860588Y-132417438D01*
X94289160Y-133369819D02*
X94289160Y-132369819D01*
X94289160Y-132369819D02*
X94670112Y-132369819D01*
X94670112Y-132369819D02*
X94765350Y-132417438D01*
X94765350Y-132417438D02*
X94812969Y-132465057D01*
X94812969Y-132465057D02*
X94860588Y-132560295D01*
X94860588Y-132560295D02*
X94860588Y-132703152D01*
X94860588Y-132703152D02*
X94812969Y-132798390D01*
X94812969Y-132798390D02*
X94765350Y-132846009D01*
X94765350Y-132846009D02*
X94670112Y-132893628D01*
X94670112Y-132893628D02*
X94289160Y-132893628D01*
X95289160Y-133369819D02*
X95289160Y-132369819D01*
X95717731Y-132465057D02*
X95765350Y-132417438D01*
X95765350Y-132417438D02*
X95860588Y-132369819D01*
X95860588Y-132369819D02*
X96098683Y-132369819D01*
X96098683Y-132369819D02*
X96193921Y-132417438D01*
X96193921Y-132417438D02*
X96241540Y-132465057D01*
X96241540Y-132465057D02*
X96289159Y-132560295D01*
X96289159Y-132560295D02*
X96289159Y-132655533D01*
X96289159Y-132655533D02*
X96241540Y-132798390D01*
X96241540Y-132798390D02*
X95670112Y-133369819D01*
X95670112Y-133369819D02*
X96289159Y-133369819D01*
X96479636Y-133465057D02*
X97241540Y-133465057D01*
X97432017Y-133322200D02*
X97527255Y-133369819D01*
X97527255Y-133369819D02*
X97717731Y-133369819D01*
X97717731Y-133369819D02*
X97812969Y-133322200D01*
X97812969Y-133322200D02*
X97860588Y-133226961D01*
X97860588Y-133226961D02*
X97860588Y-133179342D01*
X97860588Y-133179342D02*
X97812969Y-133084104D01*
X97812969Y-133084104D02*
X97717731Y-133036485D01*
X97717731Y-133036485D02*
X97574874Y-133036485D01*
X97574874Y-133036485D02*
X97479636Y-132988866D01*
X97479636Y-132988866D02*
X97432017Y-132893628D01*
X97432017Y-132893628D02*
X97432017Y-132846009D01*
X97432017Y-132846009D02*
X97479636Y-132750771D01*
X97479636Y-132750771D02*
X97574874Y-132703152D01*
X97574874Y-132703152D02*
X97717731Y-132703152D01*
X97717731Y-132703152D02*
X97812969Y-132750771D01*
X98432017Y-133369819D02*
X98336779Y-133322200D01*
X98336779Y-133322200D02*
X98289160Y-133226961D01*
X98289160Y-133226961D02*
X98289160Y-132369819D01*
X99241541Y-133369819D02*
X99241541Y-132846009D01*
X99241541Y-132846009D02*
X99193922Y-132750771D01*
X99193922Y-132750771D02*
X99098684Y-132703152D01*
X99098684Y-132703152D02*
X98908208Y-132703152D01*
X98908208Y-132703152D02*
X98812970Y-132750771D01*
X99241541Y-133322200D02*
X99146303Y-133369819D01*
X99146303Y-133369819D02*
X98908208Y-133369819D01*
X98908208Y-133369819D02*
X98812970Y-133322200D01*
X98812970Y-133322200D02*
X98765351Y-133226961D01*
X98765351Y-133226961D02*
X98765351Y-133131723D01*
X98765351Y-133131723D02*
X98812970Y-133036485D01*
X98812970Y-133036485D02*
X98908208Y-132988866D01*
X98908208Y-132988866D02*
X99146303Y-132988866D01*
X99146303Y-132988866D02*
X99241541Y-132941247D01*
X99622494Y-132703152D02*
X99860589Y-133369819D01*
X99860589Y-133369819D02*
X100098684Y-132703152D01*
X100860589Y-133322200D02*
X100765351Y-133369819D01*
X100765351Y-133369819D02*
X100574875Y-133369819D01*
X100574875Y-133369819D02*
X100479637Y-133322200D01*
X100479637Y-133322200D02*
X100432018Y-133226961D01*
X100432018Y-133226961D02*
X100432018Y-132846009D01*
X100432018Y-132846009D02*
X100479637Y-132750771D01*
X100479637Y-132750771D02*
X100574875Y-132703152D01*
X100574875Y-132703152D02*
X100765351Y-132703152D01*
X100765351Y-132703152D02*
X100860589Y-132750771D01*
X100860589Y-132750771D02*
X100908208Y-132846009D01*
X100908208Y-132846009D02*
X100908208Y-132941247D01*
X100908208Y-132941247D02*
X100432018Y-133036485D01*
X101289161Y-132465057D02*
X101336780Y-132417438D01*
X101336780Y-132417438D02*
X101432018Y-132369819D01*
X101432018Y-132369819D02*
X101670113Y-132369819D01*
X101670113Y-132369819D02*
X101765351Y-132417438D01*
X101765351Y-132417438D02*
X101812970Y-132465057D01*
X101812970Y-132465057D02*
X101860589Y-132560295D01*
X101860589Y-132560295D02*
X101860589Y-132655533D01*
X101860589Y-132655533D02*
X101812970Y-132798390D01*
X101812970Y-132798390D02*
X101241542Y-133369819D01*
X101241542Y-133369819D02*
X101860589Y-133369819D01*
X166630180Y-103336779D02*
X167630180Y-103336779D01*
X167630180Y-103336779D02*
X167630180Y-103717731D01*
X167630180Y-103717731D02*
X167582561Y-103812969D01*
X167582561Y-103812969D02*
X167534942Y-103860588D01*
X167534942Y-103860588D02*
X167439704Y-103908207D01*
X167439704Y-103908207D02*
X167296847Y-103908207D01*
X167296847Y-103908207D02*
X167201609Y-103860588D01*
X167201609Y-103860588D02*
X167153990Y-103812969D01*
X167153990Y-103812969D02*
X167106371Y-103717731D01*
X167106371Y-103717731D02*
X167106371Y-103336779D01*
X167630180Y-104241541D02*
X166630180Y-104479636D01*
X166630180Y-104479636D02*
X167344466Y-104670112D01*
X167344466Y-104670112D02*
X166630180Y-104860588D01*
X166630180Y-104860588D02*
X167630180Y-105098684D01*
X166630180Y-105479636D02*
X167630180Y-105479636D01*
X167630180Y-105479636D02*
X166915895Y-105812969D01*
X166915895Y-105812969D02*
X167630180Y-106146302D01*
X167630180Y-106146302D02*
X166630180Y-106146302D01*
X166630180Y-107146302D02*
X166630180Y-106574874D01*
X166630180Y-106860588D02*
X167630180Y-106860588D01*
X167630180Y-106860588D02*
X167487323Y-106765350D01*
X167487323Y-106765350D02*
X167392085Y-106670112D01*
X167392085Y-106670112D02*
X167344466Y-106574874D01*
X167677800Y-108289159D02*
X166392085Y-107432017D01*
X167630180Y-108527255D02*
X167630180Y-109146302D01*
X167630180Y-109146302D02*
X167249228Y-108812969D01*
X167249228Y-108812969D02*
X167249228Y-108955826D01*
X167249228Y-108955826D02*
X167201609Y-109051064D01*
X167201609Y-109051064D02*
X167153990Y-109098683D01*
X167153990Y-109098683D02*
X167058752Y-109146302D01*
X167058752Y-109146302D02*
X166820657Y-109146302D01*
X166820657Y-109146302D02*
X166725419Y-109098683D01*
X166725419Y-109098683D02*
X166677800Y-109051064D01*
X166677800Y-109051064D02*
X166630180Y-108955826D01*
X166630180Y-108955826D02*
X166630180Y-108670112D01*
X166630180Y-108670112D02*
X166677800Y-108574874D01*
X166677800Y-108574874D02*
X166725419Y-108527255D01*
X166630180Y-109574874D02*
X167630180Y-109574874D01*
X167630180Y-109574874D02*
X166630180Y-110146302D01*
X166630180Y-110146302D02*
X167630180Y-110146302D01*
X95369819Y-91663220D02*
X94369819Y-91663220D01*
X94369819Y-91663220D02*
X94369819Y-91282268D01*
X94369819Y-91282268D02*
X94417438Y-91187030D01*
X94417438Y-91187030D02*
X94465057Y-91139411D01*
X94465057Y-91139411D02*
X94560295Y-91091792D01*
X94560295Y-91091792D02*
X94703152Y-91091792D01*
X94703152Y-91091792D02*
X94798390Y-91139411D01*
X94798390Y-91139411D02*
X94846009Y-91187030D01*
X94846009Y-91187030D02*
X94893628Y-91282268D01*
X94893628Y-91282268D02*
X94893628Y-91663220D01*
X94369819Y-90758458D02*
X95369819Y-90520363D01*
X95369819Y-90520363D02*
X94655533Y-90329887D01*
X94655533Y-90329887D02*
X95369819Y-90139411D01*
X95369819Y-90139411D02*
X94369819Y-89901316D01*
X95369819Y-89520363D02*
X94369819Y-89520363D01*
X94369819Y-89520363D02*
X95084104Y-89187030D01*
X95084104Y-89187030D02*
X94369819Y-88853697D01*
X94369819Y-88853697D02*
X95369819Y-88853697D01*
X94465057Y-88425125D02*
X94417438Y-88377506D01*
X94417438Y-88377506D02*
X94369819Y-88282268D01*
X94369819Y-88282268D02*
X94369819Y-88044173D01*
X94369819Y-88044173D02*
X94417438Y-87948935D01*
X94417438Y-87948935D02*
X94465057Y-87901316D01*
X94465057Y-87901316D02*
X94560295Y-87853697D01*
X94560295Y-87853697D02*
X94655533Y-87853697D01*
X94655533Y-87853697D02*
X94798390Y-87901316D01*
X94798390Y-87901316D02*
X95369819Y-88472744D01*
X95369819Y-88472744D02*
X95369819Y-87853697D01*
X94322200Y-86710840D02*
X95607914Y-87567982D01*
X95369819Y-85853697D02*
X95369819Y-86425125D01*
X95369819Y-86139411D02*
X94369819Y-86139411D01*
X94369819Y-86139411D02*
X94512676Y-86234649D01*
X94512676Y-86234649D02*
X94607914Y-86329887D01*
X94607914Y-86329887D02*
X94655533Y-86425125D01*
X166630180Y-115336779D02*
X167630180Y-115336779D01*
X167630180Y-115336779D02*
X167630180Y-115717731D01*
X167630180Y-115717731D02*
X167582561Y-115812969D01*
X167582561Y-115812969D02*
X167534942Y-115860588D01*
X167534942Y-115860588D02*
X167439704Y-115908207D01*
X167439704Y-115908207D02*
X167296847Y-115908207D01*
X167296847Y-115908207D02*
X167201609Y-115860588D01*
X167201609Y-115860588D02*
X167153990Y-115812969D01*
X167153990Y-115812969D02*
X167106371Y-115717731D01*
X167106371Y-115717731D02*
X167106371Y-115336779D01*
X167630180Y-116241541D02*
X166630180Y-116479636D01*
X166630180Y-116479636D02*
X167344466Y-116670112D01*
X167344466Y-116670112D02*
X166630180Y-116860588D01*
X166630180Y-116860588D02*
X167630180Y-117098684D01*
X166630180Y-117479636D02*
X167630180Y-117479636D01*
X167630180Y-117479636D02*
X166915895Y-117812969D01*
X166915895Y-117812969D02*
X167630180Y-118146302D01*
X167630180Y-118146302D02*
X166630180Y-118146302D01*
X167201609Y-118765350D02*
X167249228Y-118670112D01*
X167249228Y-118670112D02*
X167296847Y-118622493D01*
X167296847Y-118622493D02*
X167392085Y-118574874D01*
X167392085Y-118574874D02*
X167439704Y-118574874D01*
X167439704Y-118574874D02*
X167534942Y-118622493D01*
X167534942Y-118622493D02*
X167582561Y-118670112D01*
X167582561Y-118670112D02*
X167630180Y-118765350D01*
X167630180Y-118765350D02*
X167630180Y-118955826D01*
X167630180Y-118955826D02*
X167582561Y-119051064D01*
X167582561Y-119051064D02*
X167534942Y-119098683D01*
X167534942Y-119098683D02*
X167439704Y-119146302D01*
X167439704Y-119146302D02*
X167392085Y-119146302D01*
X167392085Y-119146302D02*
X167296847Y-119098683D01*
X167296847Y-119098683D02*
X167249228Y-119051064D01*
X167249228Y-119051064D02*
X167201609Y-118955826D01*
X167201609Y-118955826D02*
X167201609Y-118765350D01*
X167201609Y-118765350D02*
X167153990Y-118670112D01*
X167153990Y-118670112D02*
X167106371Y-118622493D01*
X167106371Y-118622493D02*
X167011133Y-118574874D01*
X167011133Y-118574874D02*
X166820657Y-118574874D01*
X166820657Y-118574874D02*
X166725419Y-118622493D01*
X166725419Y-118622493D02*
X166677800Y-118670112D01*
X166677800Y-118670112D02*
X166630180Y-118765350D01*
X166630180Y-118765350D02*
X166630180Y-118955826D01*
X166630180Y-118955826D02*
X166677800Y-119051064D01*
X166677800Y-119051064D02*
X166725419Y-119098683D01*
X166725419Y-119098683D02*
X166820657Y-119146302D01*
X166820657Y-119146302D02*
X167011133Y-119146302D01*
X167011133Y-119146302D02*
X167106371Y-119098683D01*
X167106371Y-119098683D02*
X167153990Y-119051064D01*
X167153990Y-119051064D02*
X167201609Y-118955826D01*
X167677800Y-120289159D02*
X166392085Y-119432017D01*
X167534942Y-120574874D02*
X167582561Y-120622493D01*
X167582561Y-120622493D02*
X167630180Y-120717731D01*
X167630180Y-120717731D02*
X167630180Y-120955826D01*
X167630180Y-120955826D02*
X167582561Y-121051064D01*
X167582561Y-121051064D02*
X167534942Y-121098683D01*
X167534942Y-121098683D02*
X167439704Y-121146302D01*
X167439704Y-121146302D02*
X167344466Y-121146302D01*
X167344466Y-121146302D02*
X167201609Y-121098683D01*
X167201609Y-121098683D02*
X166630180Y-120527255D01*
X166630180Y-120527255D02*
X166630180Y-121146302D01*
X166630180Y-121574874D02*
X167630180Y-121574874D01*
X167630180Y-121574874D02*
X166630180Y-122146302D01*
X166630180Y-122146302D02*
X167630180Y-122146302D01*
X169238095Y-56454819D02*
X169238095Y-55454819D01*
X169238095Y-55931009D02*
X169809523Y-55931009D01*
X169809523Y-56454819D02*
X169809523Y-55454819D01*
X170238095Y-55550057D02*
X170285714Y-55502438D01*
X170285714Y-55502438D02*
X170380952Y-55454819D01*
X170380952Y-55454819D02*
X170619047Y-55454819D01*
X170619047Y-55454819D02*
X170714285Y-55502438D01*
X170714285Y-55502438D02*
X170761904Y-55550057D01*
X170761904Y-55550057D02*
X170809523Y-55645295D01*
X170809523Y-55645295D02*
X170809523Y-55740533D01*
X170809523Y-55740533D02*
X170761904Y-55883390D01*
X170761904Y-55883390D02*
X170190476Y-56454819D01*
X170190476Y-56454819D02*
X170809523Y-56454819D01*
X89238095Y-126454819D02*
X89238095Y-125454819D01*
X89238095Y-125931009D02*
X89809523Y-125931009D01*
X89809523Y-126454819D02*
X89809523Y-125454819D01*
X90190476Y-125454819D02*
X90809523Y-125454819D01*
X90809523Y-125454819D02*
X90476190Y-125835771D01*
X90476190Y-125835771D02*
X90619047Y-125835771D01*
X90619047Y-125835771D02*
X90714285Y-125883390D01*
X90714285Y-125883390D02*
X90761904Y-125931009D01*
X90761904Y-125931009D02*
X90809523Y-126026247D01*
X90809523Y-126026247D02*
X90809523Y-126264342D01*
X90809523Y-126264342D02*
X90761904Y-126359580D01*
X90761904Y-126359580D02*
X90714285Y-126407200D01*
X90714285Y-126407200D02*
X90619047Y-126454819D01*
X90619047Y-126454819D02*
X90333333Y-126454819D01*
X90333333Y-126454819D02*
X90238095Y-126407200D01*
X90238095Y-126407200D02*
X90190476Y-126359580D01*
X89238095Y-56454819D02*
X89238095Y-55454819D01*
X89238095Y-55931009D02*
X89809523Y-55931009D01*
X89809523Y-56454819D02*
X89809523Y-55454819D01*
X90809523Y-56454819D02*
X90238095Y-56454819D01*
X90523809Y-56454819D02*
X90523809Y-55454819D01*
X90523809Y-55454819D02*
X90428571Y-55597676D01*
X90428571Y-55597676D02*
X90333333Y-55692914D01*
X90333333Y-55692914D02*
X90238095Y-55740533D01*
X169238095Y-126454819D02*
X169238095Y-125454819D01*
X169238095Y-125931009D02*
X169809523Y-125931009D01*
X169809523Y-126454819D02*
X169809523Y-125454819D01*
X170714285Y-125788152D02*
X170714285Y-126454819D01*
X170476190Y-125407200D02*
X170238095Y-126121485D01*
X170238095Y-126121485D02*
X170857142Y-126121485D01*
D11*
%TO.C,J1*%
X143440000Y-129490000D02*
X143440000Y-135460000D01*
X143440000Y-135460000D02*
X158560000Y-135460000D01*
X143450000Y-133200000D02*
X144200000Y-133200000D01*
X143450000Y-134700000D02*
X143450000Y-135450000D01*
X143450000Y-135450000D02*
X145250000Y-135450000D01*
X144200000Y-130250000D02*
X151000000Y-130250000D01*
X144200000Y-133200000D02*
X144200000Y-130250000D01*
X145250000Y-134700000D02*
X143450000Y-134700000D01*
X145250000Y-135450000D02*
X145250000Y-134700000D01*
X146750000Y-134700000D02*
X146750000Y-135450000D01*
X146750000Y-135450000D02*
X155250000Y-135450000D01*
X155250000Y-134700000D02*
X146750000Y-134700000D01*
X155250000Y-135450000D02*
X155250000Y-134700000D01*
X156750000Y-134700000D02*
X156750000Y-135450000D01*
X156750000Y-135450000D02*
X158550000Y-135450000D01*
X157600000Y-135750000D02*
X158850000Y-135750000D01*
X157800000Y-130250000D02*
X151000000Y-130250000D01*
X157800000Y-133200000D02*
X157800000Y-130250000D01*
X158550000Y-133200000D02*
X157800000Y-133200000D01*
X158550000Y-134700000D02*
X156750000Y-134700000D01*
X158550000Y-135450000D02*
X158550000Y-134700000D01*
X158560000Y-129490000D02*
X143440000Y-129490000D01*
X158560000Y-135460000D02*
X158560000Y-129490000D01*
X158850000Y-135750000D02*
X158850000Y-134500000D01*
%TO.C,J5*%
X87250000Y-106300000D02*
X87250000Y-107550000D01*
X87250000Y-107550000D02*
X88500000Y-107550000D01*
X87540000Y-97140000D02*
X87540000Y-107260000D01*
X87540000Y-107260000D02*
X93510000Y-107260000D01*
X87550000Y-97150000D02*
X87550000Y-98950000D01*
X87550000Y-98950000D02*
X88300000Y-98950000D01*
X87550000Y-100450000D02*
X87550000Y-103950000D01*
X87550000Y-103950000D02*
X88300000Y-103950000D01*
X87550000Y-105450000D02*
X87550000Y-107250000D01*
X87550000Y-107250000D02*
X88300000Y-107250000D01*
X88300000Y-97150000D02*
X87550000Y-97150000D01*
X88300000Y-98950000D02*
X88300000Y-97150000D01*
X88300000Y-100450000D02*
X87550000Y-100450000D01*
X88300000Y-103950000D02*
X88300000Y-100450000D01*
X88300000Y-105450000D02*
X87550000Y-105450000D01*
X88300000Y-107250000D02*
X88300000Y-105450000D01*
X89800000Y-97150000D02*
X89800000Y-97900000D01*
X89800000Y-97900000D02*
X92750000Y-97900000D01*
X89800000Y-106500000D02*
X92750000Y-106500000D01*
X89800000Y-107250000D02*
X89800000Y-106500000D01*
X92750000Y-97900000D02*
X92750000Y-102200000D01*
X92750000Y-106500000D02*
X92750000Y-102200000D01*
X93510000Y-97140000D02*
X87540000Y-97140000D01*
X93510000Y-107260000D02*
X93510000Y-97140000D01*
%TO.C,J2*%
X103440000Y-129490000D02*
X103440000Y-135460000D01*
X103440000Y-135460000D02*
X118560000Y-135460000D01*
X103450000Y-133200000D02*
X104200000Y-133200000D01*
X103450000Y-134700000D02*
X103450000Y-135450000D01*
X103450000Y-135450000D02*
X105250000Y-135450000D01*
X104200000Y-130250000D02*
X111000000Y-130250000D01*
X104200000Y-133200000D02*
X104200000Y-130250000D01*
X105250000Y-134700000D02*
X103450000Y-134700000D01*
X105250000Y-135450000D02*
X105250000Y-134700000D01*
X106750000Y-134700000D02*
X106750000Y-135450000D01*
X106750000Y-135450000D02*
X115250000Y-135450000D01*
X115250000Y-134700000D02*
X106750000Y-134700000D01*
X115250000Y-135450000D02*
X115250000Y-134700000D01*
X116750000Y-134700000D02*
X116750000Y-135450000D01*
X116750000Y-135450000D02*
X118550000Y-135450000D01*
X117600000Y-135750000D02*
X118850000Y-135750000D01*
X117800000Y-130250000D02*
X111000000Y-130250000D01*
X117800000Y-133200000D02*
X117800000Y-130250000D01*
X118550000Y-133200000D02*
X117800000Y-133200000D01*
X118550000Y-134700000D02*
X116750000Y-134700000D01*
X118550000Y-135450000D02*
X118550000Y-134700000D01*
X118560000Y-129490000D02*
X103440000Y-129490000D01*
X118560000Y-135460000D02*
X118560000Y-129490000D01*
X118850000Y-135750000D02*
X118850000Y-134500000D01*
%TO.C,J8*%
X168490000Y-113440000D02*
X168490000Y-123560000D01*
X168490000Y-123560000D02*
X174460000Y-123560000D01*
X169250000Y-114200000D02*
X169250000Y-118500000D01*
X169250000Y-122800000D02*
X169250000Y-118500000D01*
X172200000Y-113450000D02*
X172200000Y-114200000D01*
X172200000Y-114200000D02*
X169250000Y-114200000D01*
X172200000Y-122800000D02*
X169250000Y-122800000D01*
X172200000Y-123550000D02*
X172200000Y-122800000D01*
X173700000Y-113450000D02*
X173700000Y-115250000D01*
X173700000Y-115250000D02*
X174450000Y-115250000D01*
X173700000Y-116750000D02*
X173700000Y-120250000D01*
X173700000Y-120250000D02*
X174450000Y-120250000D01*
X173700000Y-121750000D02*
X173700000Y-123550000D01*
X173700000Y-123550000D02*
X174450000Y-123550000D01*
X174450000Y-113450000D02*
X173700000Y-113450000D01*
X174450000Y-115250000D02*
X174450000Y-113450000D01*
X174450000Y-116750000D02*
X173700000Y-116750000D01*
X174450000Y-120250000D02*
X174450000Y-116750000D01*
X174450000Y-121750000D02*
X173700000Y-121750000D01*
X174450000Y-123550000D02*
X174450000Y-121750000D01*
X174460000Y-113440000D02*
X168490000Y-113440000D01*
X174460000Y-123560000D02*
X174460000Y-113440000D01*
X174750000Y-113150000D02*
X173500000Y-113150000D01*
X174750000Y-114400000D02*
X174750000Y-113150000D01*
%TO.C,J7*%
X168490000Y-101740000D02*
X168490000Y-111860000D01*
X168490000Y-111860000D02*
X174460000Y-111860000D01*
X169250000Y-102500000D02*
X169250000Y-106800000D01*
X169250000Y-111100000D02*
X169250000Y-106800000D01*
X172200000Y-101750000D02*
X172200000Y-102500000D01*
X172200000Y-102500000D02*
X169250000Y-102500000D01*
X172200000Y-111100000D02*
X169250000Y-111100000D01*
X172200000Y-111850000D02*
X172200000Y-111100000D01*
X173700000Y-101750000D02*
X173700000Y-103550000D01*
X173700000Y-103550000D02*
X174450000Y-103550000D01*
X173700000Y-105050000D02*
X173700000Y-108550000D01*
X173700000Y-108550000D02*
X174450000Y-108550000D01*
X173700000Y-110050000D02*
X173700000Y-111850000D01*
X173700000Y-111850000D02*
X174450000Y-111850000D01*
X174450000Y-101750000D02*
X173700000Y-101750000D01*
X174450000Y-103550000D02*
X174450000Y-101750000D01*
X174450000Y-105050000D02*
X173700000Y-105050000D01*
X174450000Y-108550000D02*
X174450000Y-105050000D01*
X174450000Y-110050000D02*
X173700000Y-110050000D01*
X174450000Y-111850000D02*
X174450000Y-110050000D01*
X174460000Y-101740000D02*
X168490000Y-101740000D01*
X174460000Y-111860000D02*
X174460000Y-101740000D01*
X174750000Y-101450000D02*
X173500000Y-101450000D01*
X174750000Y-102700000D02*
X174750000Y-101450000D01*
%TO.C,J6*%
X87250000Y-122600000D02*
X87250000Y-123850000D01*
X87250000Y-123850000D02*
X88500000Y-123850000D01*
X87540000Y-113440000D02*
X87540000Y-123560000D01*
X87540000Y-123560000D02*
X93510000Y-123560000D01*
X87550000Y-113450000D02*
X87550000Y-115250000D01*
X87550000Y-115250000D02*
X88300000Y-115250000D01*
X87550000Y-116750000D02*
X87550000Y-120250000D01*
X87550000Y-120250000D02*
X88300000Y-120250000D01*
X87550000Y-121750000D02*
X87550000Y-123550000D01*
X87550000Y-123550000D02*
X88300000Y-123550000D01*
X88300000Y-113450000D02*
X87550000Y-113450000D01*
X88300000Y-115250000D02*
X88300000Y-113450000D01*
X88300000Y-116750000D02*
X87550000Y-116750000D01*
X88300000Y-120250000D02*
X88300000Y-116750000D01*
X88300000Y-121750000D02*
X87550000Y-121750000D01*
X88300000Y-123550000D02*
X88300000Y-121750000D01*
X89800000Y-113450000D02*
X89800000Y-114200000D01*
X89800000Y-114200000D02*
X92750000Y-114200000D01*
X89800000Y-122800000D02*
X92750000Y-122800000D01*
X89800000Y-123550000D02*
X89800000Y-122800000D01*
X92750000Y-114200000D02*
X92750000Y-118500000D01*
X92750000Y-122800000D02*
X92750000Y-118500000D01*
X93510000Y-113440000D02*
X87540000Y-113440000D01*
X93510000Y-123560000D02*
X93510000Y-113440000D01*
D12*
%TO.C,U1*%
X96100000Y-123850000D02*
X96100000Y-46350000D01*
X97600000Y-44850000D02*
X164600000Y-44850000D01*
X98120000Y-75320000D02*
X98120000Y-123580000D01*
X98120000Y-123580000D02*
X103120000Y-123580000D01*
X103120000Y-75320000D02*
X98120000Y-75320000D01*
X103120000Y-123580000D02*
X103120000Y-75320000D01*
X107100000Y-125350000D02*
X97600000Y-125350000D01*
X109100000Y-127350000D02*
X107100000Y-125350000D01*
X142100000Y-127350000D02*
X109100000Y-127350000D01*
X144100000Y-125350000D02*
X142100000Y-127350000D01*
X159080000Y-75320000D02*
X159080000Y-123580000D01*
X159080000Y-123580000D02*
X164080000Y-123580000D01*
X164080000Y-75320000D02*
X159080000Y-75320000D01*
X164080000Y-123580000D02*
X164080000Y-75320000D01*
X164600000Y-125350000D02*
X144100000Y-125350000D01*
X166100000Y-46350000D02*
X166100000Y-123850000D01*
X96100000Y-46350000D02*
G75*
G02*
X97600000Y-44850000I1500001J-1D01*
G01*
X97600000Y-125350000D02*
G75*
G02*
X96100000Y-123850000I1J1500001D01*
G01*
X164600000Y-44850000D02*
G75*
G02*
X166100000Y-46350000I0J-1500000D01*
G01*
X166100000Y-123850000D02*
G75*
G02*
X164600000Y-125350000I-1500000J0D01*
G01*
D13*
X97700000Y-76590000D02*
G75*
G02*
X97500000Y-76590000I-100000J0D01*
G01*
X97500000Y-76590000D02*
G75*
G02*
X97700000Y-76590000I100000J0D01*
G01*
X158660000Y-76590000D02*
G75*
G02*
X158460000Y-76590000I-100000J0D01*
G01*
X158460000Y-76590000D02*
G75*
G02*
X158660000Y-76590000I100000J0D01*
G01*
D11*
%TO.C,J3*%
X168490000Y-89440000D02*
X168490000Y-99560000D01*
X168490000Y-99560000D02*
X174460000Y-99560000D01*
X169250000Y-90200000D02*
X169250000Y-94500000D01*
X169250000Y-98800000D02*
X169250000Y-94500000D01*
X172200000Y-89450000D02*
X172200000Y-90200000D01*
X172200000Y-90200000D02*
X169250000Y-90200000D01*
X172200000Y-98800000D02*
X169250000Y-98800000D01*
X172200000Y-99550000D02*
X172200000Y-98800000D01*
X173700000Y-89450000D02*
X173700000Y-91250000D01*
X173700000Y-91250000D02*
X174450000Y-91250000D01*
X173700000Y-92750000D02*
X173700000Y-96250000D01*
X173700000Y-96250000D02*
X174450000Y-96250000D01*
X173700000Y-97750000D02*
X173700000Y-99550000D01*
X173700000Y-99550000D02*
X174450000Y-99550000D01*
X174450000Y-89450000D02*
X173700000Y-89450000D01*
X174450000Y-91250000D02*
X174450000Y-89450000D01*
X174450000Y-92750000D02*
X173700000Y-92750000D01*
X174450000Y-96250000D02*
X174450000Y-92750000D01*
X174450000Y-97750000D02*
X173700000Y-97750000D01*
X174450000Y-99550000D02*
X174450000Y-97750000D01*
X174460000Y-89440000D02*
X168490000Y-89440000D01*
X174460000Y-99560000D02*
X174460000Y-89440000D01*
X174750000Y-89150000D02*
X173500000Y-89150000D01*
X174750000Y-90400000D02*
X174750000Y-89150000D01*
%TO.C,J4*%
X87250000Y-93100000D02*
X87250000Y-94350000D01*
X87250000Y-94350000D02*
X88500000Y-94350000D01*
X87540000Y-83940000D02*
X87540000Y-94060000D01*
X87540000Y-94060000D02*
X93510000Y-94060000D01*
X87550000Y-83950000D02*
X87550000Y-85750000D01*
X87550000Y-85750000D02*
X88300000Y-85750000D01*
X87550000Y-87250000D02*
X87550000Y-90750000D01*
X87550000Y-90750000D02*
X88300000Y-90750000D01*
X87550000Y-92250000D02*
X87550000Y-94050000D01*
X87550000Y-94050000D02*
X88300000Y-94050000D01*
X88300000Y-83950000D02*
X87550000Y-83950000D01*
X88300000Y-85750000D02*
X88300000Y-83950000D01*
X88300000Y-87250000D02*
X87550000Y-87250000D01*
X88300000Y-90750000D02*
X88300000Y-87250000D01*
X88300000Y-92250000D02*
X87550000Y-92250000D01*
X88300000Y-94050000D02*
X88300000Y-92250000D01*
X89800000Y-83950000D02*
X89800000Y-84700000D01*
X89800000Y-84700000D02*
X92750000Y-84700000D01*
X89800000Y-93300000D02*
X92750000Y-93300000D01*
X89800000Y-94050000D02*
X89800000Y-93300000D01*
X92750000Y-84700000D02*
X92750000Y-89000000D01*
X92750000Y-93300000D02*
X92750000Y-89000000D01*
X93510000Y-83940000D02*
X87540000Y-83940000D01*
X93510000Y-94060000D02*
X93510000Y-83940000D01*
%TD*%
M02*
