%TF.GenerationSoftware,KiCad,Pcbnew,8.0.0*%
%TF.CreationDate,2024-03-29T20:31:36+01:00*%
%TF.ProjectId,nucleo_expansion,6e75636c-656f-45f6-9578-70616e73696f,Cyril*%
%TF.SameCoordinates,Original*%
%TF.FileFunction,Copper,L2,Bot*%
%TF.FilePolarity,Positive*%
%FSLAX46Y46*%
G04 Gerber Fmt 4.6, Leading zero omitted, Abs format (unit mm)*
G04 Created by KiCad (PCBNEW 8.0.0) date 2024-03-29 20:31:36*
%MOMM*%
%LPD*%
G01*
G04 APERTURE LIST*
G04 Aperture macros list*
%AMRoundRect*
0 Rectangle with rounded corners*
0 $1 Rounding radius*
0 $2 $3 $4 $5 $6 $7 $8 $9 X,Y pos of 4 corners*
0 Add a 4 corners polygon primitive as box body*
4,1,4,$2,$3,$4,$5,$6,$7,$8,$9,$2,$3,0*
0 Add four circle primitives for the rounded corners*
1,1,$1+$1,$2,$3*
1,1,$1+$1,$4,$5*
1,1,$1+$1,$6,$7*
1,1,$1+$1,$8,$9*
0 Add four rect primitives between the rounded corners*
20,1,$1+$1,$2,$3,$4,$5,0*
20,1,$1+$1,$4,$5,$6,$7,0*
20,1,$1+$1,$6,$7,$8,$9,0*
20,1,$1+$1,$8,$9,$2,$3,0*%
G04 Aperture macros list end*
%TA.AperFunction,ComponentPad*%
%ADD10RoundRect,0.250000X0.600000X0.725000X-0.600000X0.725000X-0.600000X-0.725000X0.600000X-0.725000X0*%
%TD*%
%TA.AperFunction,ComponentPad*%
%ADD11O,1.700000X1.950000*%
%TD*%
%TA.AperFunction,ComponentPad*%
%ADD12RoundRect,0.250000X0.725000X-0.600000X0.725000X0.600000X-0.725000X0.600000X-0.725000X-0.600000X0*%
%TD*%
%TA.AperFunction,ComponentPad*%
%ADD13O,1.950000X1.700000*%
%TD*%
%TA.AperFunction,ComponentPad*%
%ADD14RoundRect,0.250000X-0.725000X0.600000X-0.725000X-0.600000X0.725000X-0.600000X0.725000X0.600000X0*%
%TD*%
%TA.AperFunction,ComponentPad*%
%ADD15R,1.530000X1.530000*%
%TD*%
%TA.AperFunction,ComponentPad*%
%ADD16C,1.530000*%
%TD*%
%TA.AperFunction,ViaPad*%
%ADD17C,0.800000*%
%TD*%
%TA.AperFunction,Conductor*%
%ADD18C,0.250000*%
%TD*%
G04 APERTURE END LIST*
D10*
%TO.P,J1,1,Pin_1*%
%TO.N,SPI2_SCK*%
X156000000Y-133000000D03*
D11*
%TO.P,J1,2,Pin_2*%
%TO.N,SPI2_MISO*%
X153500000Y-133000000D03*
%TO.P,J1,3,Pin_3*%
%TO.N,SPI2_MOSI*%
X151000000Y-133000000D03*
%TO.P,J1,4,Pin_4*%
%TO.N,SPI2_CS1*%
X148500000Y-133000000D03*
%TO.P,J1,5,Pin_5*%
%TO.N,GND*%
X146000000Y-133000000D03*
%TD*%
D12*
%TO.P,J5,1,Pin_1*%
%TO.N,+5V*%
X90000000Y-104700000D03*
D13*
%TO.P,J5,2,Pin_2*%
%TO.N,PWM4{slash}2*%
X90000000Y-102200000D03*
%TO.P,J5,3,Pin_3*%
%TO.N,GND*%
X90000000Y-99700000D03*
%TD*%
D10*
%TO.P,J2,1,Pin_1*%
%TO.N,SPI2_SCK*%
X116000000Y-133000000D03*
D11*
%TO.P,J2,2,Pin_2*%
%TO.N,SPI2_MISO*%
X113500000Y-133000000D03*
%TO.P,J2,3,Pin_3*%
%TO.N,SPI2_MOSI*%
X111000000Y-133000000D03*
%TO.P,J2,4,Pin_4*%
%TO.N,SPI2_CS2*%
X108500000Y-133000000D03*
%TO.P,J2,5,Pin_5*%
%TO.N,GND*%
X106000000Y-133000000D03*
%TD*%
D14*
%TO.P,J8,1,Pin_1*%
%TO.N,+5V*%
X172000000Y-116000000D03*
D13*
%TO.P,J8,2,Pin_2*%
%TO.N,PWM8{slash}2N*%
X172000000Y-118500000D03*
%TO.P,J8,3,Pin_3*%
%TO.N,GND*%
X172000000Y-121000000D03*
%TD*%
D14*
%TO.P,J7,1,Pin_1*%
%TO.N,+5V*%
X172000000Y-104300000D03*
D13*
%TO.P,J7,2,Pin_2*%
%TO.N,PWM1{slash}3N*%
X172000000Y-106800000D03*
%TO.P,J7,3,Pin_3*%
%TO.N,GND*%
X172000000Y-109300000D03*
%TD*%
D12*
%TO.P,J6,1,Pin_1*%
%TO.N,+5V*%
X90000000Y-121000000D03*
D13*
%TO.P,J6,2,Pin_2*%
%TO.N,PWM1{slash}2N*%
X90000000Y-118500000D03*
%TO.P,J6,3,Pin_3*%
%TO.N,GND*%
X90000000Y-116000000D03*
%TD*%
D15*
%TO.P,U1,CN7_1,PC10*%
%TO.N,unconnected-(U1A-PC10-PadCN7_1)*%
X99350000Y-76590000D03*
D16*
%TO.P,U1,CN7_2,PC11*%
%TO.N,unconnected-(U1A-PC11-PadCN7_2)*%
X101890000Y-76590000D03*
%TO.P,U1,CN7_3,PC12*%
%TO.N,unconnected-(U1A-PC12-PadCN7_3)*%
X99350000Y-79130000D03*
%TO.P,U1,CN7_4,PD2*%
%TO.N,unconnected-(U1A-PD2-PadCN7_4)*%
X101890000Y-79130000D03*
%TO.P,U1,CN7_5,VDD*%
%TO.N,unconnected-(U1A-VDD-PadCN7_5)*%
X99350000Y-81670000D03*
%TO.P,U1,CN7_6,E5V*%
%TO.N,unconnected-(U1A-E5V-PadCN7_6)*%
X101890000Y-81670000D03*
%TO.P,U1,CN7_7,BOOT0*%
%TO.N,unconnected-(U1A-BOOT0-PadCN7_7)*%
X99350000Y-84210000D03*
%TO.P,U1,CN7_8,CN7_GND*%
%TO.N,GND*%
X101890000Y-84210000D03*
%TO.P,U1,CN7_9*%
%TO.N,N/C*%
X99350000Y-86750000D03*
%TO.P,U1,CN7_10*%
X101890000Y-86750000D03*
%TO.P,U1,CN7_11*%
X99350000Y-89290000D03*
%TO.P,U1,CN7_12,CN7_IOREF*%
%TO.N,unconnected-(U1A-CN7_IOREF-PadCN7_12)*%
X101890000Y-89290000D03*
%TO.P,U1,CN7_13,PA13*%
%TO.N,unconnected-(U1A-PA13-PadCN7_13)*%
X99350000Y-91830000D03*
%TO.P,U1,CN7_14,CN7_RESET*%
%TO.N,unconnected-(U1A-CN7_RESET-PadCN7_14)*%
X101890000Y-91830000D03*
%TO.P,U1,CN7_15,PA14*%
%TO.N,unconnected-(U1A-PA14-PadCN7_15)*%
X99350000Y-94370000D03*
%TO.P,U1,CN7_16,CN7_+3V3*%
%TO.N,unconnected-(U1A-CN7_+3V3-PadCN7_16)*%
X101890000Y-94370000D03*
%TO.P,U1,CN7_17,PA15*%
%TO.N,PWM2{slash}1*%
X99350000Y-96910000D03*
%TO.P,U1,CN7_18,CN7_+5V*%
%TO.N,+5V*%
X101890000Y-96910000D03*
%TO.P,U1,CN7_19,CN7_GND*%
%TO.N,GND*%
X99350000Y-99450000D03*
%TO.P,U1,CN7_20,CN7_GND*%
X101890000Y-99450000D03*
%TO.P,U1,CN7_21,PB7*%
%TO.N,PWM4{slash}2*%
X99350000Y-101990000D03*
%TO.P,U1,CN7_22,CN7_GND*%
%TO.N,GND*%
X101890000Y-101990000D03*
%TO.P,U1,CN7_23,PC13*%
%TO.N,unconnected-(U1A-PC13-PadCN7_23)*%
X99350000Y-104530000D03*
%TO.P,U1,CN7_24,CN7_VIN*%
%TO.N,unconnected-(U1A-CN7_VIN-PadCN7_24)*%
X101890000Y-104530000D03*
%TO.P,U1,CN7_25,PC14*%
%TO.N,unconnected-(U1A-PC14-PadCN7_25)*%
X99350000Y-107070000D03*
%TO.P,U1,CN7_26*%
%TO.N,N/C*%
X101890000Y-107070000D03*
%TO.P,U1,CN7_27,PC15*%
%TO.N,unconnected-(U1A-PC15-PadCN7_27)*%
X99350000Y-109610000D03*
%TO.P,U1,CN7_28,PA0*%
%TO.N,unconnected-(U1A-PA0-PadCN7_28)*%
X101890000Y-109610000D03*
%TO.P,U1,CN7_29,PH0*%
%TO.N,unconnected-(U1A-PH0-PadCN7_29)*%
X99350000Y-112150000D03*
%TO.P,U1,CN7_30,PA1*%
%TO.N,unconnected-(U1A-PA1-PadCN7_30)*%
X101890000Y-112150000D03*
%TO.P,U1,CN7_31,PH1*%
%TO.N,unconnected-(U1A-PH1-PadCN7_31)*%
X99350000Y-114690000D03*
%TO.P,U1,CN7_32,PA4*%
%TO.N,unconnected-(U1A-PA4-PadCN7_32)*%
X101890000Y-114690000D03*
%TO.P,U1,CN7_33,VBAT*%
%TO.N,unconnected-(U1A-VBAT-PadCN7_33)*%
X99350000Y-117230000D03*
%TO.P,U1,CN7_34,PB0*%
%TO.N,PWM1{slash}2N*%
X101890000Y-117230000D03*
%TO.P,U1,CN7_35,PC2*%
%TO.N,SPI2_MISO*%
X99350000Y-119770000D03*
%TO.P,U1,CN7_36,PC1/PB9*%
%TO.N,unconnected-(U1A-PC1{slash}PB9-PadCN7_36)*%
X101890000Y-119770000D03*
%TO.P,U1,CN7_37,PC3*%
%TO.N,SPI2_MOSI*%
X99350000Y-122310000D03*
%TO.P,U1,CN7_38,PC0/PB8*%
%TO.N,unconnected-(U1A-PC0{slash}PB8-PadCN7_38)*%
X101890000Y-122310000D03*
D15*
%TO.P,U1,CN10_1,PC9*%
%TO.N,unconnected-(U1B-PC9-PadCN10_1)*%
X160310000Y-76590000D03*
D16*
%TO.P,U1,CN10_2,PC8*%
%TO.N,unconnected-(U1B-PC8-PadCN10_2)*%
X162850000Y-76590000D03*
%TO.P,U1,CN10_3,PB8*%
%TO.N,unconnected-(U1B-PB8-PadCN10_3)*%
X160310000Y-79130000D03*
%TO.P,U1,CN10_4,PC6*%
%TO.N,unconnected-(U1B-PC6-PadCN10_4)*%
X162850000Y-79130000D03*
%TO.P,U1,CN10_5,PB9*%
%TO.N,SPI2_CS2*%
X160310000Y-81670000D03*
%TO.P,U1,CN10_6,PC5*%
%TO.N,UART3_RX*%
X162850000Y-81670000D03*
%TO.P,U1,CN10_7,AVDD*%
%TO.N,unconnected-(U1B-AVDD-PadCN10_7)*%
X160310000Y-84210000D03*
%TO.P,U1,CN10_8,U5V*%
%TO.N,unconnected-(U1B-U5V-PadCN10_8)*%
X162850000Y-84210000D03*
%TO.P,U1,CN10_9,CN10_GND*%
%TO.N,GND*%
X160310000Y-86750000D03*
%TO.P,U1,CN10_10*%
%TO.N,N/C*%
X162850000Y-86750000D03*
%TO.P,U1,CN10_11,PA5*%
%TO.N,unconnected-(U1B-PA5-PadCN10_11)*%
X160310000Y-89290000D03*
%TO.P,U1,CN10_12,PA12*%
%TO.N,unconnected-(U1B-PA12-PadCN10_12)*%
X162850000Y-89290000D03*
%TO.P,U1,CN10_13,PA6*%
%TO.N,unconnected-(U1B-PA6-PadCN10_13)*%
X160310000Y-91830000D03*
%TO.P,U1,CN10_14,PA11*%
%TO.N,unconnected-(U1B-PA11-PadCN10_14)*%
X162850000Y-91830000D03*
%TO.P,U1,CN10_15,PA7*%
%TO.N,unconnected-(U1B-PA7-PadCN10_15)*%
X160310000Y-94370000D03*
%TO.P,U1,CN10_16,PB12*%
%TO.N,SPI2_CS1*%
X162850000Y-94370000D03*
%TO.P,U1,CN10_17,PB6*%
%TO.N,unconnected-(U1B-PB6-PadCN10_17)*%
X160310000Y-96910000D03*
%TO.P,U1,CN10_18*%
%TO.N,N/C*%
X162850000Y-96910000D03*
%TO.P,U1,CN10_19,PC7*%
%TO.N,SPI2_SCK*%
X160310000Y-99450000D03*
%TO.P,U1,CN10_20,CN10_GND*%
%TO.N,GND*%
X162850000Y-99450000D03*
%TO.P,U1,CN10_21,PA9*%
%TO.N,unconnected-(U1B-PA9-PadCN10_21)*%
X160310000Y-101990000D03*
%TO.P,U1,CN10_22,PB2*%
%TO.N,unconnected-(U1B-PB2-PadCN10_22)*%
X162850000Y-101990000D03*
%TO.P,U1,CN10_23,PA8*%
%TO.N,unconnected-(U1B-PA8-PadCN10_23)*%
X160310000Y-104530000D03*
%TO.P,U1,CN10_24,PB1*%
%TO.N,unconnected-(U1B-PB1-PadCN10_24)*%
X162850000Y-104530000D03*
%TO.P,U1,CN10_25,PB10*%
%TO.N,UART3_TX*%
X160310000Y-107070000D03*
%TO.P,U1,CN10_26,PB15*%
%TO.N,PWM1{slash}3N*%
X162850000Y-107070000D03*
%TO.P,U1,CN10_27,PB4*%
%TO.N,unconnected-(U1B-PB4-PadCN10_27)*%
X160310000Y-109610000D03*
%TO.P,U1,CN10_28,PB14*%
%TO.N,PWM8{slash}2N*%
X162850000Y-109610000D03*
%TO.P,U1,CN10_29,PB5*%
%TO.N,unconnected-(U1B-PB5-PadCN10_29)*%
X160310000Y-112150000D03*
%TO.P,U1,CN10_30,PB13*%
%TO.N,unconnected-(U1B-PB13-PadCN10_30)*%
X162850000Y-112150000D03*
%TO.P,U1,CN10_31,PB3*%
%TO.N,unconnected-(U1B-PB3-PadCN10_31)*%
X160310000Y-114690000D03*
%TO.P,U1,CN10_32,AGND*%
%TO.N,GND*%
X162850000Y-114690000D03*
%TO.P,U1,CN10_33,PA10*%
%TO.N,unconnected-(U1B-PA10-PadCN10_33)*%
X160310000Y-117230000D03*
%TO.P,U1,CN10_34,PC4*%
%TO.N,unconnected-(U1B-PC4-PadCN10_34)*%
X162850000Y-117230000D03*
%TO.P,U1,CN10_35,PA2*%
%TO.N,unconnected-(U1B-PA2-PadCN10_35)*%
X160310000Y-119770000D03*
%TO.P,U1,CN10_36*%
%TO.N,N/C*%
X162850000Y-119770000D03*
%TO.P,U1,CN10_37,PA3*%
%TO.N,unconnected-(U1B-PA3-PadCN10_37)*%
X160310000Y-122310000D03*
%TO.P,U1,CN10_38*%
%TO.N,N/C*%
X162850000Y-122310000D03*
%TD*%
D14*
%TO.P,J3,1,Pin_1*%
%TO.N,UART3_RX*%
X172000000Y-92000000D03*
D13*
%TO.P,J3,2,Pin_2*%
%TO.N,UART3_TX*%
X172000000Y-94500000D03*
%TO.P,J3,3,Pin_3*%
%TO.N,GND*%
X172000000Y-97000000D03*
%TD*%
D12*
%TO.P,J4,1,Pin_1*%
%TO.N,+5V*%
X90000000Y-91500000D03*
D13*
%TO.P,J4,2,Pin_2*%
%TO.N,PWM2{slash}1*%
X90000000Y-89000000D03*
%TO.P,J4,3,Pin_3*%
%TO.N,GND*%
X90000000Y-86500000D03*
%TD*%
D17*
%TO.N,+5V*%
X165290000Y-98360000D03*
%TD*%
D18*
%TO.N,SPI2_MISO*%
X152200000Y-134300000D02*
X114800000Y-134300000D01*
X114800000Y-134300000D02*
X113500000Y-133000000D01*
X153500000Y-133000000D02*
X152200000Y-134300000D01*
%TO.N,SPI2_CS1*%
X148500000Y-104638507D02*
X157318507Y-95820000D01*
X157318507Y-95820000D02*
X161400000Y-95820000D01*
X148500000Y-133000000D02*
X148500000Y-104638507D01*
X161400000Y-95820000D02*
X162850000Y-94370000D01*
%TO.N,SPI2_CS2*%
X108500000Y-133000000D02*
X108500000Y-108500000D01*
X108500000Y-108500000D02*
X135330000Y-81670000D01*
X135330000Y-81670000D02*
X160310000Y-81670000D01*
%TO.N,+5V*%
X95000000Y-99700000D02*
X95000000Y-99000000D01*
X101890000Y-96910000D02*
X100440000Y-95460000D01*
X99441493Y-90380000D02*
X95000000Y-90380000D01*
X95000000Y-99000000D02*
X95000000Y-116000000D01*
X100440000Y-95460000D02*
X100440000Y-91378507D01*
X100440000Y-91378507D02*
X99441493Y-90380000D01*
X167000000Y-99300000D02*
X167000000Y-114000000D01*
X165290000Y-98360000D02*
X166060000Y-98360000D01*
X96000000Y-90380000D02*
X95000000Y-91380000D01*
X167000000Y-114000000D02*
X169000000Y-116000000D01*
X169000000Y-116000000D02*
X172000000Y-116000000D01*
X95000000Y-91380000D02*
X95000000Y-99000000D01*
X166060000Y-98360000D02*
X167000000Y-99300000D01*
X95000000Y-116000000D02*
X90000000Y-121000000D01*
X91120000Y-90380000D02*
X90000000Y-91500000D01*
X166060000Y-98360000D02*
X172000000Y-104300000D01*
X95000000Y-90380000D02*
X91120000Y-90380000D01*
X90000000Y-104700000D02*
X95000000Y-99700000D01*
%TD*%
%TA.AperFunction,Conductor*%
%TO.N,GND*%
G36*
X159205578Y-82315185D02*
G01*
X159240112Y-82348374D01*
X159336868Y-82486555D01*
X159493445Y-82643132D01*
X159674833Y-82770142D01*
X159736828Y-82799050D01*
X159798091Y-82827618D01*
X159850531Y-82873790D01*
X159869683Y-82940983D01*
X159849467Y-83007865D01*
X159798091Y-83052382D01*
X159674836Y-83109856D01*
X159674834Y-83109857D01*
X159493444Y-83236868D01*
X159336868Y-83393444D01*
X159209857Y-83574834D01*
X159209856Y-83574836D01*
X159116279Y-83775513D01*
X159116275Y-83775524D01*
X159058965Y-83989407D01*
X159058964Y-83989414D01*
X159039666Y-84209998D01*
X159039666Y-84210001D01*
X159058964Y-84430585D01*
X159058965Y-84430592D01*
X159116275Y-84644475D01*
X159116279Y-84644486D01*
X159209740Y-84844915D01*
X159209858Y-84845167D01*
X159336868Y-85026555D01*
X159493445Y-85183132D01*
X159674833Y-85310142D01*
X159798682Y-85367893D01*
X159851122Y-85414065D01*
X159870274Y-85481258D01*
X159850059Y-85548139D01*
X159798683Y-85592657D01*
X159675084Y-85650293D01*
X159609657Y-85696104D01*
X160172424Y-86258871D01*
X160113147Y-86274755D01*
X159996853Y-86341898D01*
X159901898Y-86436853D01*
X159834755Y-86553147D01*
X159818871Y-86612424D01*
X159256104Y-86049657D01*
X159210293Y-86115084D01*
X159116749Y-86315690D01*
X159116745Y-86315699D01*
X159059461Y-86529490D01*
X159059459Y-86529500D01*
X159040168Y-86749999D01*
X159040168Y-86750000D01*
X159059459Y-86970499D01*
X159059461Y-86970509D01*
X159116745Y-87184300D01*
X159116749Y-87184309D01*
X159210295Y-87384919D01*
X159256103Y-87450341D01*
X159256105Y-87450342D01*
X159818871Y-86887575D01*
X159834755Y-86946853D01*
X159901898Y-87063147D01*
X159996853Y-87158102D01*
X160113147Y-87225245D01*
X160172424Y-87241128D01*
X159609656Y-87803894D01*
X159675083Y-87849706D01*
X159675085Y-87849707D01*
X159798683Y-87907342D01*
X159851122Y-87953514D01*
X159870274Y-88020708D01*
X159850058Y-88087589D01*
X159798683Y-88132106D01*
X159674833Y-88189857D01*
X159493444Y-88316868D01*
X159336868Y-88473444D01*
X159209857Y-88654834D01*
X159209856Y-88654836D01*
X159116279Y-88855513D01*
X159116275Y-88855524D01*
X159058965Y-89069407D01*
X159058964Y-89069414D01*
X159039666Y-89289998D01*
X159039666Y-89290001D01*
X159058964Y-89510585D01*
X159058965Y-89510592D01*
X159116275Y-89724475D01*
X159116279Y-89724486D01*
X159188699Y-89879792D01*
X159209858Y-89925167D01*
X159336868Y-90106555D01*
X159493445Y-90263132D01*
X159674833Y-90390142D01*
X159736828Y-90419050D01*
X159798091Y-90447618D01*
X159850531Y-90493790D01*
X159869683Y-90560983D01*
X159849467Y-90627865D01*
X159798091Y-90672382D01*
X159674836Y-90729856D01*
X159674834Y-90729857D01*
X159493444Y-90856868D01*
X159336868Y-91013444D01*
X159209857Y-91194834D01*
X159209856Y-91194836D01*
X159116279Y-91395513D01*
X159116275Y-91395524D01*
X159058965Y-91609407D01*
X159058964Y-91609414D01*
X159039666Y-91829998D01*
X159039666Y-91830001D01*
X159058964Y-92050585D01*
X159058965Y-92050592D01*
X159116275Y-92264475D01*
X159116279Y-92264486D01*
X159188486Y-92419334D01*
X159209858Y-92465167D01*
X159336868Y-92646555D01*
X159493445Y-92803132D01*
X159674833Y-92930142D01*
X159736828Y-92959050D01*
X159798091Y-92987618D01*
X159850531Y-93033790D01*
X159869683Y-93100983D01*
X159849467Y-93167865D01*
X159798091Y-93212382D01*
X159674836Y-93269856D01*
X159674834Y-93269857D01*
X159493444Y-93396868D01*
X159336868Y-93553444D01*
X159209857Y-93734834D01*
X159209856Y-93734836D01*
X159116279Y-93935513D01*
X159116275Y-93935524D01*
X159058965Y-94149407D01*
X159058964Y-94149414D01*
X159039666Y-94369998D01*
X159039666Y-94370001D01*
X159058964Y-94590585D01*
X159058965Y-94590592D01*
X159116275Y-94804475D01*
X159116279Y-94804486D01*
X159209857Y-95005165D01*
X159211785Y-95008505D01*
X159228254Y-95076406D01*
X159205399Y-95142432D01*
X159150476Y-95185620D01*
X159104395Y-95194500D01*
X157256896Y-95194500D01*
X157196478Y-95206518D01*
X157153250Y-95215116D01*
X157136053Y-95218537D01*
X157022223Y-95265687D01*
X157022214Y-95265692D01*
X156919775Y-95334140D01*
X156876212Y-95377703D01*
X156832649Y-95421267D01*
X148014144Y-104239771D01*
X148014138Y-104239779D01*
X147945692Y-104342212D01*
X147945689Y-104342218D01*
X147945688Y-104342221D01*
X147915353Y-104415457D01*
X147898538Y-104456051D01*
X147898535Y-104456063D01*
X147874500Y-104576896D01*
X147874500Y-131602019D01*
X147854815Y-131669058D01*
X147806797Y-131712503D01*
X147792180Y-131719950D01*
X147620213Y-131844890D01*
X147469894Y-131995209D01*
X147469890Y-131995214D01*
X147350008Y-132160218D01*
X147294678Y-132202884D01*
X147225065Y-132208863D01*
X147163270Y-132176257D01*
X147149372Y-132160218D01*
X147029727Y-131995540D01*
X147029723Y-131995535D01*
X146879464Y-131845276D01*
X146879459Y-131845272D01*
X146707557Y-131720379D01*
X146518215Y-131623903D01*
X146316124Y-131558241D01*
X146250000Y-131547768D01*
X146250000Y-132595854D01*
X146183343Y-132557370D01*
X146062535Y-132525000D01*
X145937465Y-132525000D01*
X145816657Y-132557370D01*
X145750000Y-132595854D01*
X145750000Y-131547768D01*
X145749999Y-131547768D01*
X145683875Y-131558241D01*
X145481784Y-131623903D01*
X145292442Y-131720379D01*
X145120540Y-131845272D01*
X145120535Y-131845276D01*
X144970276Y-131995535D01*
X144970272Y-131995540D01*
X144845379Y-132167442D01*
X144748904Y-132356782D01*
X144683242Y-132558869D01*
X144683242Y-132558872D01*
X144652970Y-132750000D01*
X145595854Y-132750000D01*
X145557370Y-132816657D01*
X145525000Y-132937465D01*
X145525000Y-133062535D01*
X145557370Y-133183343D01*
X145595854Y-133250000D01*
X144652970Y-133250000D01*
X144683242Y-133441127D01*
X144683242Y-133441130D01*
X144706329Y-133512182D01*
X144708324Y-133582023D01*
X144672244Y-133641856D01*
X144609543Y-133672684D01*
X144588398Y-133674500D01*
X117474500Y-133674500D01*
X117407461Y-133654815D01*
X117361706Y-133602011D01*
X117350500Y-133550500D01*
X117350499Y-132224998D01*
X117350498Y-132224981D01*
X117339999Y-132122203D01*
X117339998Y-132122200D01*
X117302104Y-132007845D01*
X117284814Y-131955666D01*
X117192712Y-131806344D01*
X117068656Y-131682288D01*
X116973253Y-131623443D01*
X116919336Y-131590187D01*
X116919331Y-131590185D01*
X116868502Y-131573342D01*
X116752797Y-131535001D01*
X116752795Y-131535000D01*
X116650010Y-131524500D01*
X115349998Y-131524500D01*
X115349981Y-131524501D01*
X115247203Y-131535000D01*
X115247200Y-131535001D01*
X115080668Y-131590185D01*
X115080663Y-131590187D01*
X114931342Y-131682289D01*
X114807289Y-131806342D01*
X114711821Y-131961121D01*
X114659873Y-132007845D01*
X114590910Y-132019068D01*
X114526828Y-131991224D01*
X114518601Y-131983705D01*
X114379786Y-131844890D01*
X114207820Y-131719951D01*
X114018414Y-131623444D01*
X114018413Y-131623443D01*
X114018412Y-131623443D01*
X113816243Y-131557754D01*
X113816241Y-131557753D01*
X113816240Y-131557753D01*
X113654957Y-131532208D01*
X113606287Y-131524500D01*
X113393713Y-131524500D01*
X113345042Y-131532208D01*
X113183760Y-131557753D01*
X112981585Y-131623444D01*
X112792179Y-131719951D01*
X112620213Y-131844890D01*
X112469894Y-131995209D01*
X112469890Y-131995214D01*
X112350318Y-132159793D01*
X112294989Y-132202459D01*
X112225375Y-132208438D01*
X112163580Y-132175833D01*
X112149682Y-132159793D01*
X112030109Y-131995214D01*
X112030105Y-131995209D01*
X111879786Y-131844890D01*
X111707820Y-131719951D01*
X111518414Y-131623444D01*
X111518413Y-131623443D01*
X111518412Y-131623443D01*
X111316243Y-131557754D01*
X111316241Y-131557753D01*
X111316240Y-131557753D01*
X111154957Y-131532208D01*
X111106287Y-131524500D01*
X110893713Y-131524500D01*
X110845042Y-131532208D01*
X110683760Y-131557753D01*
X110481585Y-131623444D01*
X110292179Y-131719951D01*
X110120213Y-131844890D01*
X109969894Y-131995209D01*
X109969890Y-131995214D01*
X109850318Y-132159793D01*
X109794989Y-132202459D01*
X109725375Y-132208438D01*
X109663580Y-132175833D01*
X109649682Y-132159793D01*
X109530109Y-131995214D01*
X109530105Y-131995209D01*
X109379786Y-131844890D01*
X109207819Y-131719950D01*
X109193203Y-131712503D01*
X109142408Y-131664527D01*
X109125500Y-131602019D01*
X109125500Y-108810452D01*
X109145185Y-108743413D01*
X109161819Y-108722771D01*
X135552771Y-82331819D01*
X135614094Y-82298334D01*
X135640452Y-82295500D01*
X159138539Y-82295500D01*
X159205578Y-82315185D01*
G37*
%TD.AperFunction*%
%TA.AperFunction,Conductor*%
G36*
X162374755Y-114886853D02*
G01*
X162441898Y-115003147D01*
X162536853Y-115098102D01*
X162653147Y-115165245D01*
X162712424Y-115181128D01*
X162149656Y-115743894D01*
X162215083Y-115789706D01*
X162215085Y-115789707D01*
X162338683Y-115847342D01*
X162391122Y-115893514D01*
X162410274Y-115960708D01*
X162390058Y-116027589D01*
X162338683Y-116072106D01*
X162214833Y-116129857D01*
X162033444Y-116256868D01*
X161876868Y-116413444D01*
X161749857Y-116594834D01*
X161749856Y-116594836D01*
X161692382Y-116718091D01*
X161646210Y-116770531D01*
X161579017Y-116789683D01*
X161512135Y-116769467D01*
X161467618Y-116718091D01*
X161424442Y-116625500D01*
X161410142Y-116594833D01*
X161283132Y-116413445D01*
X161126555Y-116256868D01*
X160945167Y-116129858D01*
X160821907Y-116072381D01*
X160769468Y-116026210D01*
X160750316Y-115959017D01*
X160770531Y-115892136D01*
X160821908Y-115847618D01*
X160822500Y-115847342D01*
X160945167Y-115790142D01*
X161126555Y-115663132D01*
X161283132Y-115506555D01*
X161410142Y-115325167D01*
X161467895Y-115201312D01*
X161514064Y-115148878D01*
X161581258Y-115129725D01*
X161648139Y-115149940D01*
X161692657Y-115201316D01*
X161750295Y-115324919D01*
X161796103Y-115390341D01*
X161796105Y-115390342D01*
X162358871Y-114827575D01*
X162374755Y-114886853D01*
G37*
%TD.AperFunction*%
%TA.AperFunction,Conductor*%
G36*
X161647864Y-112610531D02*
G01*
X161692381Y-112661907D01*
X161749858Y-112785167D01*
X161876868Y-112966555D01*
X162033445Y-113123132D01*
X162214833Y-113250142D01*
X162338682Y-113307893D01*
X162391122Y-113354065D01*
X162410274Y-113421258D01*
X162390059Y-113488139D01*
X162338683Y-113532657D01*
X162215084Y-113590293D01*
X162149657Y-113636104D01*
X162712424Y-114198871D01*
X162653147Y-114214755D01*
X162536853Y-114281898D01*
X162441898Y-114376853D01*
X162374755Y-114493147D01*
X162358871Y-114552424D01*
X161796104Y-113989657D01*
X161750293Y-114055084D01*
X161692657Y-114178683D01*
X161646484Y-114231122D01*
X161579290Y-114250274D01*
X161512409Y-114230058D01*
X161467893Y-114178682D01*
X161410142Y-114054833D01*
X161283132Y-113873445D01*
X161126555Y-113716868D01*
X160945167Y-113589858D01*
X160821907Y-113532381D01*
X160769468Y-113486210D01*
X160750316Y-113419017D01*
X160770531Y-113352136D01*
X160821908Y-113307618D01*
X160945167Y-113250142D01*
X161126555Y-113123132D01*
X161283132Y-112966555D01*
X161410142Y-112785167D01*
X161467618Y-112661907D01*
X161513790Y-112609468D01*
X161580983Y-112590316D01*
X161647864Y-112610531D01*
G37*
%TD.AperFunction*%
%TA.AperFunction,Conductor*%
G36*
X162374755Y-99646853D02*
G01*
X162441898Y-99763147D01*
X162536853Y-99858102D01*
X162653147Y-99925245D01*
X162712424Y-99941128D01*
X162149656Y-100503894D01*
X162215083Y-100549706D01*
X162215085Y-100549707D01*
X162338683Y-100607342D01*
X162391122Y-100653514D01*
X162410274Y-100720708D01*
X162390058Y-100787589D01*
X162338683Y-100832106D01*
X162214833Y-100889857D01*
X162033444Y-101016868D01*
X161876868Y-101173444D01*
X161749857Y-101354834D01*
X161749856Y-101354836D01*
X161692382Y-101478091D01*
X161646210Y-101530531D01*
X161579017Y-101549683D01*
X161512135Y-101529467D01*
X161467618Y-101478091D01*
X161425741Y-101388285D01*
X161410142Y-101354833D01*
X161283132Y-101173445D01*
X161126555Y-101016868D01*
X160945167Y-100889858D01*
X160929932Y-100882754D01*
X160821908Y-100832382D01*
X160769468Y-100786210D01*
X160750316Y-100719017D01*
X160770531Y-100652136D01*
X160821908Y-100607618D01*
X160822500Y-100607342D01*
X160945167Y-100550142D01*
X161126555Y-100423132D01*
X161283132Y-100266555D01*
X161410142Y-100085167D01*
X161467895Y-99961312D01*
X161514064Y-99908878D01*
X161581258Y-99889725D01*
X161648139Y-99909940D01*
X161692657Y-99961316D01*
X161750295Y-100084919D01*
X161796103Y-100150341D01*
X161796105Y-100150342D01*
X162358871Y-99587575D01*
X162374755Y-99646853D01*
G37*
%TD.AperFunction*%
%TA.AperFunction,Conductor*%
G36*
X161647864Y-97370531D02*
G01*
X161692381Y-97421907D01*
X161749858Y-97545167D01*
X161876868Y-97726555D01*
X162033445Y-97883132D01*
X162214833Y-98010142D01*
X162338682Y-98067893D01*
X162391122Y-98114065D01*
X162410274Y-98181258D01*
X162390059Y-98248139D01*
X162338683Y-98292657D01*
X162215084Y-98350293D01*
X162149657Y-98396104D01*
X162712424Y-98958871D01*
X162653147Y-98974755D01*
X162536853Y-99041898D01*
X162441898Y-99136853D01*
X162374755Y-99253147D01*
X162358871Y-99312424D01*
X161796104Y-98749657D01*
X161750293Y-98815084D01*
X161692657Y-98938683D01*
X161646484Y-98991122D01*
X161579290Y-99010274D01*
X161512409Y-98990058D01*
X161467893Y-98938682D01*
X161467759Y-98938394D01*
X161410142Y-98814833D01*
X161283132Y-98633445D01*
X161126555Y-98476868D01*
X160945167Y-98349858D01*
X160821907Y-98292381D01*
X160769468Y-98246210D01*
X160750316Y-98179017D01*
X160770531Y-98112136D01*
X160821908Y-98067618D01*
X160945167Y-98010142D01*
X161126555Y-97883132D01*
X161283132Y-97726555D01*
X161410142Y-97545167D01*
X161467618Y-97421907D01*
X161513790Y-97369468D01*
X161580983Y-97350316D01*
X161647864Y-97370531D01*
G37*
%TD.AperFunction*%
%TA.AperFunction,Conductor*%
G36*
X161363894Y-87450342D02*
G01*
X161409707Y-87384914D01*
X161409708Y-87384912D01*
X161467342Y-87261317D01*
X161513514Y-87208877D01*
X161580707Y-87189725D01*
X161647589Y-87209941D01*
X161692106Y-87261317D01*
X161749858Y-87385167D01*
X161876868Y-87566555D01*
X162033445Y-87723132D01*
X162214833Y-87850142D01*
X162276828Y-87879050D01*
X162338091Y-87907618D01*
X162390531Y-87953790D01*
X162409683Y-88020983D01*
X162389467Y-88087865D01*
X162338091Y-88132382D01*
X162214836Y-88189856D01*
X162214834Y-88189857D01*
X162033444Y-88316868D01*
X161876868Y-88473444D01*
X161749857Y-88654834D01*
X161749856Y-88654836D01*
X161692382Y-88778091D01*
X161646210Y-88830531D01*
X161579017Y-88849683D01*
X161512135Y-88829467D01*
X161467618Y-88778091D01*
X161410143Y-88654836D01*
X161410142Y-88654834D01*
X161410142Y-88654833D01*
X161283132Y-88473445D01*
X161126555Y-88316868D01*
X160945167Y-88189858D01*
X160945163Y-88189856D01*
X160821317Y-88132106D01*
X160768877Y-88085934D01*
X160749725Y-88018741D01*
X160769941Y-87951859D01*
X160821317Y-87907342D01*
X160944912Y-87849708D01*
X160944914Y-87849707D01*
X161010342Y-87803894D01*
X160447575Y-87241127D01*
X160506853Y-87225245D01*
X160623147Y-87158102D01*
X160718102Y-87063147D01*
X160785245Y-86946853D01*
X160801128Y-86887575D01*
X161363894Y-87450342D01*
G37*
%TD.AperFunction*%
%TA.AperFunction,Conductor*%
G36*
X161647864Y-84670531D02*
G01*
X161692381Y-84721907D01*
X161749858Y-84845167D01*
X161876868Y-85026555D01*
X162033445Y-85183132D01*
X162214833Y-85310142D01*
X162276828Y-85339050D01*
X162338091Y-85367618D01*
X162390531Y-85413790D01*
X162409683Y-85480983D01*
X162389467Y-85547865D01*
X162338091Y-85592382D01*
X162214836Y-85649856D01*
X162214834Y-85649857D01*
X162033444Y-85776868D01*
X161876868Y-85933444D01*
X161749857Y-86114833D01*
X161692106Y-86238683D01*
X161645934Y-86291122D01*
X161578740Y-86310274D01*
X161511859Y-86290058D01*
X161467342Y-86238683D01*
X161409707Y-86115085D01*
X161409706Y-86115083D01*
X161363894Y-86049657D01*
X161363894Y-86049656D01*
X160801127Y-86612423D01*
X160785245Y-86553147D01*
X160718102Y-86436853D01*
X160623147Y-86341898D01*
X160506853Y-86274755D01*
X160447575Y-86258872D01*
X161010342Y-85696105D01*
X161010341Y-85696103D01*
X160944919Y-85650295D01*
X160821316Y-85592657D01*
X160768877Y-85546484D01*
X160749725Y-85479291D01*
X160769941Y-85412410D01*
X160821312Y-85367895D01*
X160945167Y-85310142D01*
X161126555Y-85183132D01*
X161283132Y-85026555D01*
X161410142Y-84845167D01*
X161467618Y-84721907D01*
X161513790Y-84669468D01*
X161580983Y-84650316D01*
X161647864Y-84670531D01*
G37*
%TD.AperFunction*%
%TA.AperFunction,Conductor*%
G36*
X101414755Y-102186853D02*
G01*
X101481898Y-102303147D01*
X101576853Y-102398102D01*
X101693147Y-102465245D01*
X101752424Y-102481128D01*
X101189656Y-103043894D01*
X101255083Y-103089706D01*
X101255085Y-103089707D01*
X101378683Y-103147342D01*
X101431122Y-103193514D01*
X101450274Y-103260708D01*
X101430058Y-103327589D01*
X101378683Y-103372106D01*
X101254833Y-103429857D01*
X101073444Y-103556868D01*
X100916868Y-103713444D01*
X100789857Y-103894834D01*
X100789856Y-103894836D01*
X100732382Y-104018091D01*
X100686210Y-104070531D01*
X100619017Y-104089683D01*
X100552135Y-104069467D01*
X100507618Y-104018091D01*
X100450143Y-103894836D01*
X100450142Y-103894834D01*
X100450142Y-103894833D01*
X100323132Y-103713445D01*
X100166555Y-103556868D01*
X99985167Y-103429858D01*
X99953702Y-103415186D01*
X99861908Y-103372382D01*
X99809468Y-103326210D01*
X99790316Y-103259017D01*
X99810531Y-103192136D01*
X99861908Y-103147618D01*
X99862500Y-103147342D01*
X99985167Y-103090142D01*
X100166555Y-102963132D01*
X100323132Y-102806555D01*
X100450142Y-102625167D01*
X100507895Y-102501312D01*
X100554064Y-102448878D01*
X100621258Y-102429725D01*
X100688139Y-102449940D01*
X100732657Y-102501316D01*
X100790295Y-102624919D01*
X100836103Y-102690341D01*
X100836105Y-102690342D01*
X101398871Y-102127575D01*
X101414755Y-102186853D01*
G37*
%TD.AperFunction*%
%TA.AperFunction,Conductor*%
G36*
X101414755Y-99646853D02*
G01*
X101481898Y-99763147D01*
X101576853Y-99858102D01*
X101693147Y-99925245D01*
X101752424Y-99941128D01*
X101189656Y-100503894D01*
X101255083Y-100549706D01*
X101255085Y-100549707D01*
X101379275Y-100607618D01*
X101431714Y-100653790D01*
X101450866Y-100720984D01*
X101430650Y-100787865D01*
X101379275Y-100832382D01*
X101255084Y-100890293D01*
X101189657Y-100936104D01*
X101752424Y-101498871D01*
X101693147Y-101514755D01*
X101576853Y-101581898D01*
X101481898Y-101676853D01*
X101414755Y-101793147D01*
X101398871Y-101852424D01*
X100836104Y-101289657D01*
X100790293Y-101355084D01*
X100732657Y-101478683D01*
X100686484Y-101531122D01*
X100619290Y-101550274D01*
X100552409Y-101530058D01*
X100507893Y-101478682D01*
X100450142Y-101354833D01*
X100323132Y-101173445D01*
X100166555Y-101016868D01*
X99985167Y-100889858D01*
X99985163Y-100889856D01*
X99861317Y-100832106D01*
X99808877Y-100785934D01*
X99789725Y-100718741D01*
X99809941Y-100651859D01*
X99861317Y-100607342D01*
X99984912Y-100549708D01*
X99984914Y-100549707D01*
X100050342Y-100503894D01*
X99487575Y-99941127D01*
X99546853Y-99925245D01*
X99663147Y-99858102D01*
X99758102Y-99763147D01*
X99825245Y-99646853D01*
X99841128Y-99587575D01*
X100403894Y-100150342D01*
X100449707Y-100084914D01*
X100449708Y-100084912D01*
X100507618Y-99960725D01*
X100553790Y-99908285D01*
X100620983Y-99889133D01*
X100687865Y-99909349D01*
X100732382Y-99960725D01*
X100790293Y-100084916D01*
X100790294Y-100084918D01*
X100836103Y-100150341D01*
X100836105Y-100150342D01*
X101398871Y-99587575D01*
X101414755Y-99646853D01*
G37*
%TD.AperFunction*%
%TA.AperFunction,Conductor*%
G36*
X100687864Y-97370531D02*
G01*
X100732381Y-97421907D01*
X100789858Y-97545167D01*
X100916868Y-97726555D01*
X101073445Y-97883132D01*
X101254833Y-98010142D01*
X101378682Y-98067893D01*
X101431122Y-98114065D01*
X101450274Y-98181258D01*
X101430059Y-98248139D01*
X101378683Y-98292657D01*
X101255084Y-98350293D01*
X101189657Y-98396104D01*
X101752424Y-98958871D01*
X101693147Y-98974755D01*
X101576853Y-99041898D01*
X101481898Y-99136853D01*
X101414755Y-99253147D01*
X101398871Y-99312424D01*
X100836104Y-98749657D01*
X100790293Y-98815084D01*
X100732382Y-98939275D01*
X100686210Y-98991714D01*
X100619016Y-99010866D01*
X100552135Y-98990650D01*
X100507618Y-98939275D01*
X100449707Y-98815085D01*
X100449706Y-98815083D01*
X100403894Y-98749657D01*
X100403894Y-98749656D01*
X99841127Y-99312423D01*
X99825245Y-99253147D01*
X99758102Y-99136853D01*
X99663147Y-99041898D01*
X99546853Y-98974755D01*
X99487575Y-98958872D01*
X100050342Y-98396105D01*
X100050341Y-98396103D01*
X99984919Y-98350295D01*
X99861316Y-98292657D01*
X99808877Y-98246484D01*
X99789725Y-98179291D01*
X99809941Y-98112410D01*
X99861312Y-98067895D01*
X99985167Y-98010142D01*
X100166555Y-97883132D01*
X100323132Y-97726555D01*
X100450142Y-97545167D01*
X100507618Y-97421907D01*
X100553790Y-97369468D01*
X100620983Y-97350316D01*
X100687864Y-97370531D01*
G37*
%TD.AperFunction*%
%TA.AperFunction,Conductor*%
G36*
X101414755Y-84406853D02*
G01*
X101481898Y-84523147D01*
X101576853Y-84618102D01*
X101693147Y-84685245D01*
X101752424Y-84701128D01*
X101189656Y-85263894D01*
X101255083Y-85309706D01*
X101255085Y-85309707D01*
X101378683Y-85367342D01*
X101431122Y-85413514D01*
X101450274Y-85480708D01*
X101430058Y-85547589D01*
X101378683Y-85592106D01*
X101254833Y-85649857D01*
X101073444Y-85776868D01*
X100916868Y-85933444D01*
X100789857Y-86114834D01*
X100789856Y-86114836D01*
X100732382Y-86238091D01*
X100686210Y-86290531D01*
X100619017Y-86309683D01*
X100552135Y-86289467D01*
X100507618Y-86238091D01*
X100452507Y-86119905D01*
X100450142Y-86114833D01*
X100323132Y-85933445D01*
X100166555Y-85776868D01*
X99985167Y-85649858D01*
X99861907Y-85592381D01*
X99809468Y-85546210D01*
X99790316Y-85479017D01*
X99810531Y-85412136D01*
X99861908Y-85367618D01*
X99862500Y-85367342D01*
X99985167Y-85310142D01*
X100166555Y-85183132D01*
X100323132Y-85026555D01*
X100450142Y-84845167D01*
X100507895Y-84721312D01*
X100554064Y-84668878D01*
X100621258Y-84649725D01*
X100688139Y-84669940D01*
X100732657Y-84721316D01*
X100790295Y-84844919D01*
X100836103Y-84910341D01*
X100836105Y-84910342D01*
X101398871Y-84347575D01*
X101414755Y-84406853D01*
G37*
%TD.AperFunction*%
%TA.AperFunction,Conductor*%
G36*
X100687864Y-82130531D02*
G01*
X100732381Y-82181907D01*
X100789858Y-82305167D01*
X100916868Y-82486555D01*
X101073445Y-82643132D01*
X101254833Y-82770142D01*
X101378682Y-82827893D01*
X101431122Y-82874065D01*
X101450274Y-82941258D01*
X101430059Y-83008139D01*
X101378683Y-83052657D01*
X101255084Y-83110293D01*
X101189657Y-83156104D01*
X101752424Y-83718871D01*
X101693147Y-83734755D01*
X101576853Y-83801898D01*
X101481898Y-83896853D01*
X101414755Y-84013147D01*
X101398871Y-84072424D01*
X100836104Y-83509657D01*
X100790293Y-83575084D01*
X100732657Y-83698683D01*
X100686484Y-83751122D01*
X100619290Y-83770274D01*
X100552409Y-83750058D01*
X100507893Y-83698682D01*
X100450142Y-83574833D01*
X100323132Y-83393445D01*
X100166555Y-83236868D01*
X99985167Y-83109858D01*
X99861907Y-83052381D01*
X99809468Y-83006210D01*
X99790316Y-82939017D01*
X99810531Y-82872136D01*
X99861908Y-82827618D01*
X99985167Y-82770142D01*
X100166555Y-82643132D01*
X100323132Y-82486555D01*
X100450142Y-82305167D01*
X100507618Y-82181907D01*
X100553790Y-82129468D01*
X100620983Y-82110316D01*
X100687864Y-82130531D01*
G37*
%TD.AperFunction*%
%TA.AperFunction,Conductor*%
G36*
X175943039Y-47019685D02*
G01*
X175988794Y-47072489D01*
X176000000Y-47124000D01*
X176000000Y-135876000D01*
X175980315Y-135943039D01*
X175927511Y-135988794D01*
X175876000Y-136000000D01*
X86124000Y-136000000D01*
X86056961Y-135980315D01*
X86011206Y-135927511D01*
X86000000Y-135876000D01*
X86000000Y-133250000D01*
X104652970Y-133250000D01*
X104683242Y-133441127D01*
X104683242Y-133441130D01*
X104748904Y-133643217D01*
X104845379Y-133832557D01*
X104970272Y-134004459D01*
X104970276Y-134004464D01*
X105120535Y-134154723D01*
X105120540Y-134154727D01*
X105292442Y-134279620D01*
X105481782Y-134376095D01*
X105683871Y-134441757D01*
X105750000Y-134452231D01*
X105750000Y-133404145D01*
X105816657Y-133442630D01*
X105937465Y-133475000D01*
X106062535Y-133475000D01*
X106183343Y-133442630D01*
X106250000Y-133404145D01*
X106250000Y-134452230D01*
X106316126Y-134441757D01*
X106316129Y-134441757D01*
X106518217Y-134376095D01*
X106707557Y-134279620D01*
X106879459Y-134154727D01*
X106879464Y-134154723D01*
X107029721Y-134004466D01*
X107149371Y-133839781D01*
X107204701Y-133797115D01*
X107274314Y-133791136D01*
X107336110Y-133823741D01*
X107350008Y-133839781D01*
X107469890Y-134004785D01*
X107469894Y-134004790D01*
X107620213Y-134155109D01*
X107792179Y-134280048D01*
X107792181Y-134280049D01*
X107792184Y-134280051D01*
X107981588Y-134376557D01*
X108183757Y-134442246D01*
X108393713Y-134475500D01*
X108393714Y-134475500D01*
X108606286Y-134475500D01*
X108606287Y-134475500D01*
X108816243Y-134442246D01*
X109018412Y-134376557D01*
X109207816Y-134280051D01*
X109229789Y-134264086D01*
X109379786Y-134155109D01*
X109379788Y-134155106D01*
X109379792Y-134155104D01*
X109530104Y-134004792D01*
X109649683Y-133840204D01*
X109705011Y-133797540D01*
X109774624Y-133791561D01*
X109836420Y-133824166D01*
X109850313Y-133840199D01*
X109953925Y-133982809D01*
X109969896Y-134004792D01*
X110120213Y-134155109D01*
X110292179Y-134280048D01*
X110292181Y-134280049D01*
X110292184Y-134280051D01*
X110481588Y-134376557D01*
X110683757Y-134442246D01*
X110893713Y-134475500D01*
X110893714Y-134475500D01*
X111106286Y-134475500D01*
X111106287Y-134475500D01*
X111316243Y-134442246D01*
X111518412Y-134376557D01*
X111707816Y-134280051D01*
X111729789Y-134264086D01*
X111879786Y-134155109D01*
X111879788Y-134155106D01*
X111879792Y-134155104D01*
X112030104Y-134004792D01*
X112149683Y-133840204D01*
X112205011Y-133797540D01*
X112274624Y-133791561D01*
X112336420Y-133824166D01*
X112350313Y-133840199D01*
X112453925Y-133982809D01*
X112469896Y-134004792D01*
X112620213Y-134155109D01*
X112792179Y-134280048D01*
X112792181Y-134280049D01*
X112792184Y-134280051D01*
X112981588Y-134376557D01*
X113183757Y-134442246D01*
X113393713Y-134475500D01*
X113393714Y-134475500D01*
X113606286Y-134475500D01*
X113606287Y-134475500D01*
X113816243Y-134442246D01*
X113926185Y-134406522D01*
X113996023Y-134404528D01*
X114052182Y-134436773D01*
X114401263Y-134785855D01*
X114401267Y-134785858D01*
X114503710Y-134854309D01*
X114503711Y-134854309D01*
X114503715Y-134854312D01*
X114570396Y-134881931D01*
X114570398Y-134881933D01*
X114617543Y-134901461D01*
X114617548Y-134901463D01*
X114637597Y-134905451D01*
X114671196Y-134912134D01*
X114738392Y-134925501D01*
X114738394Y-134925501D01*
X114867721Y-134925501D01*
X114867741Y-134925500D01*
X152261607Y-134925500D01*
X152322029Y-134913481D01*
X152382452Y-134901463D01*
X152382455Y-134901461D01*
X152382458Y-134901461D01*
X152415787Y-134887654D01*
X152415786Y-134887654D01*
X152415792Y-134887652D01*
X152496286Y-134854312D01*
X152547509Y-134820084D01*
X152598733Y-134785858D01*
X152685858Y-134698733D01*
X152685858Y-134698731D01*
X152696066Y-134688524D01*
X152696068Y-134688521D01*
X152947817Y-134436771D01*
X153009138Y-134403288D01*
X153073813Y-134406522D01*
X153183757Y-134442246D01*
X153393713Y-134475500D01*
X153393714Y-134475500D01*
X153606286Y-134475500D01*
X153606287Y-134475500D01*
X153816243Y-134442246D01*
X154018412Y-134376557D01*
X154207816Y-134280051D01*
X154379792Y-134155104D01*
X154518604Y-134016291D01*
X154579923Y-133982809D01*
X154649615Y-133987793D01*
X154705549Y-134029664D01*
X154711821Y-134038878D01*
X154715185Y-134044333D01*
X154715186Y-134044334D01*
X154807288Y-134193656D01*
X154931344Y-134317712D01*
X155080666Y-134409814D01*
X155247203Y-134464999D01*
X155349991Y-134475500D01*
X156650008Y-134475499D01*
X156752797Y-134464999D01*
X156919334Y-134409814D01*
X157068656Y-134317712D01*
X157192712Y-134193656D01*
X157284814Y-134044334D01*
X157339999Y-133877797D01*
X157350500Y-133775009D01*
X157350499Y-132224992D01*
X157348851Y-132208863D01*
X157339999Y-132122203D01*
X157339998Y-132122200D01*
X157302104Y-132007845D01*
X157284814Y-131955666D01*
X157192712Y-131806344D01*
X157068656Y-131682288D01*
X156973253Y-131623443D01*
X156919336Y-131590187D01*
X156919331Y-131590185D01*
X156868502Y-131573342D01*
X156752797Y-131535001D01*
X156752795Y-131535000D01*
X156650010Y-131524500D01*
X155349998Y-131524500D01*
X155349981Y-131524501D01*
X155247203Y-131535000D01*
X155247200Y-131535001D01*
X155080668Y-131590185D01*
X155080663Y-131590187D01*
X154931342Y-131682289D01*
X154807289Y-131806342D01*
X154711821Y-131961121D01*
X154659873Y-132007845D01*
X154590910Y-132019068D01*
X154526828Y-131991224D01*
X154518601Y-131983705D01*
X154379786Y-131844890D01*
X154207820Y-131719951D01*
X154018414Y-131623444D01*
X154018413Y-131623443D01*
X154018412Y-131623443D01*
X153816243Y-131557754D01*
X153816241Y-131557753D01*
X153816240Y-131557753D01*
X153654957Y-131532208D01*
X153606287Y-131524500D01*
X153393713Y-131524500D01*
X153345042Y-131532208D01*
X153183760Y-131557753D01*
X152981585Y-131623444D01*
X152792179Y-131719951D01*
X152620213Y-131844890D01*
X152469894Y-131995209D01*
X152469890Y-131995214D01*
X152350318Y-132159793D01*
X152294989Y-132202459D01*
X152225375Y-132208438D01*
X152163580Y-132175833D01*
X152149682Y-132159793D01*
X152030109Y-131995214D01*
X152030105Y-131995209D01*
X151879786Y-131844890D01*
X151707820Y-131719951D01*
X151518414Y-131623444D01*
X151518413Y-131623443D01*
X151518412Y-131623443D01*
X151316243Y-131557754D01*
X151316241Y-131557753D01*
X151316240Y-131557753D01*
X151154957Y-131532208D01*
X151106287Y-131524500D01*
X150893713Y-131524500D01*
X150845042Y-131532208D01*
X150683760Y-131557753D01*
X150481585Y-131623444D01*
X150292179Y-131719951D01*
X150120213Y-131844890D01*
X149969894Y-131995209D01*
X149969890Y-131995214D01*
X149850318Y-132159793D01*
X149794989Y-132202459D01*
X149725375Y-132208438D01*
X149663580Y-132175833D01*
X149649682Y-132159793D01*
X149530109Y-131995214D01*
X149530105Y-131995209D01*
X149379786Y-131844890D01*
X149207819Y-131719950D01*
X149193203Y-131712503D01*
X149142408Y-131664527D01*
X149125500Y-131602019D01*
X149125500Y-130114741D01*
X168249500Y-130114741D01*
X168274446Y-130304215D01*
X168279452Y-130342238D01*
X168279453Y-130342240D01*
X168338842Y-130563887D01*
X168426650Y-130775876D01*
X168426657Y-130775890D01*
X168541392Y-130974617D01*
X168681081Y-131156661D01*
X168681089Y-131156670D01*
X168843330Y-131318911D01*
X168843338Y-131318918D01*
X169025382Y-131458607D01*
X169025385Y-131458608D01*
X169025388Y-131458611D01*
X169224112Y-131573344D01*
X169224117Y-131573346D01*
X169224123Y-131573349D01*
X169264774Y-131590187D01*
X169436113Y-131661158D01*
X169657762Y-131720548D01*
X169885266Y-131750500D01*
X169885273Y-131750500D01*
X170114727Y-131750500D01*
X170114734Y-131750500D01*
X170342238Y-131720548D01*
X170563887Y-131661158D01*
X170775888Y-131573344D01*
X170974612Y-131458611D01*
X171156661Y-131318919D01*
X171156665Y-131318914D01*
X171156670Y-131318911D01*
X171318911Y-131156670D01*
X171318914Y-131156665D01*
X171318919Y-131156661D01*
X171458611Y-130974612D01*
X171573344Y-130775888D01*
X171661158Y-130563887D01*
X171720548Y-130342238D01*
X171750500Y-130114734D01*
X171750500Y-129885266D01*
X171720548Y-129657762D01*
X171661158Y-129436113D01*
X171573344Y-129224112D01*
X171458611Y-129025388D01*
X171458608Y-129025385D01*
X171458607Y-129025382D01*
X171318918Y-128843338D01*
X171318911Y-128843330D01*
X171156670Y-128681089D01*
X171156661Y-128681081D01*
X170974617Y-128541392D01*
X170775890Y-128426657D01*
X170775876Y-128426650D01*
X170563887Y-128338842D01*
X170342238Y-128279452D01*
X170304215Y-128274446D01*
X170114741Y-128249500D01*
X170114734Y-128249500D01*
X169885266Y-128249500D01*
X169885258Y-128249500D01*
X169668715Y-128278009D01*
X169657762Y-128279452D01*
X169564076Y-128304554D01*
X169436112Y-128338842D01*
X169224123Y-128426650D01*
X169224109Y-128426657D01*
X169025382Y-128541392D01*
X168843338Y-128681081D01*
X168681081Y-128843338D01*
X168541392Y-129025382D01*
X168426657Y-129224109D01*
X168426650Y-129224123D01*
X168338842Y-129436112D01*
X168279453Y-129657759D01*
X168279451Y-129657770D01*
X168249500Y-129885258D01*
X168249500Y-130114741D01*
X149125500Y-130114741D01*
X149125500Y-104948959D01*
X149145185Y-104881920D01*
X149161819Y-104861278D01*
X157541278Y-96481819D01*
X157602601Y-96448334D01*
X157628959Y-96445500D01*
X158962720Y-96445500D01*
X159029759Y-96465185D01*
X159075514Y-96517989D01*
X159085458Y-96587147D01*
X159082495Y-96601593D01*
X159058966Y-96689403D01*
X159058964Y-96689414D01*
X159039666Y-96909998D01*
X159039666Y-96910001D01*
X159058964Y-97130585D01*
X159058965Y-97130592D01*
X159116275Y-97344475D01*
X159116279Y-97344486D01*
X159188263Y-97498856D01*
X159209858Y-97545167D01*
X159336868Y-97726555D01*
X159493445Y-97883132D01*
X159674833Y-98010142D01*
X159716825Y-98029723D01*
X159798091Y-98067618D01*
X159850531Y-98113790D01*
X159869683Y-98180983D01*
X159849467Y-98247865D01*
X159798091Y-98292382D01*
X159674836Y-98349856D01*
X159674834Y-98349857D01*
X159493444Y-98476868D01*
X159336868Y-98633444D01*
X159209857Y-98814834D01*
X159209856Y-98814836D01*
X159116279Y-99015513D01*
X159116275Y-99015524D01*
X159058965Y-99229407D01*
X159058964Y-99229414D01*
X159039666Y-99449998D01*
X159039666Y-99450000D01*
X159058964Y-99670585D01*
X159058965Y-99670592D01*
X159116275Y-99884475D01*
X159116279Y-99884486D01*
X159152106Y-99961317D01*
X159209858Y-100085167D01*
X159336868Y-100266555D01*
X159493445Y-100423132D01*
X159674833Y-100550142D01*
X159736828Y-100579050D01*
X159798091Y-100607618D01*
X159850531Y-100653790D01*
X159869683Y-100720983D01*
X159849467Y-100787865D01*
X159798091Y-100832382D01*
X159674836Y-100889856D01*
X159674834Y-100889857D01*
X159493444Y-101016868D01*
X159336868Y-101173444D01*
X159209857Y-101354834D01*
X159209856Y-101354836D01*
X159116279Y-101555513D01*
X159116275Y-101555524D01*
X159058965Y-101769407D01*
X159058964Y-101769414D01*
X159039666Y-101989998D01*
X159039666Y-101990001D01*
X159058964Y-102210585D01*
X159058965Y-102210592D01*
X159116275Y-102424475D01*
X159116279Y-102424486D01*
X159159066Y-102516243D01*
X159209858Y-102625167D01*
X159336868Y-102806555D01*
X159493445Y-102963132D01*
X159674833Y-103090142D01*
X159736828Y-103119050D01*
X159798091Y-103147618D01*
X159850531Y-103193790D01*
X159869683Y-103260983D01*
X159849467Y-103327865D01*
X159798091Y-103372382D01*
X159674836Y-103429856D01*
X159674834Y-103429857D01*
X159493444Y-103556868D01*
X159336868Y-103713444D01*
X159209857Y-103894834D01*
X159209856Y-103894836D01*
X159116279Y-104095513D01*
X159116275Y-104095524D01*
X159058965Y-104309407D01*
X159058964Y-104309414D01*
X159039666Y-104529998D01*
X159039666Y-104530001D01*
X159058964Y-104750585D01*
X159058965Y-104750592D01*
X159116275Y-104964475D01*
X159116279Y-104964486D01*
X159157460Y-105052799D01*
X159209858Y-105165167D01*
X159336868Y-105346555D01*
X159493445Y-105503132D01*
X159674833Y-105630142D01*
X159736828Y-105659050D01*
X159798091Y-105687618D01*
X159850531Y-105733790D01*
X159869683Y-105800983D01*
X159849467Y-105867865D01*
X159798091Y-105912382D01*
X159674836Y-105969856D01*
X159674834Y-105969857D01*
X159493444Y-106096868D01*
X159336868Y-106253444D01*
X159209857Y-106434834D01*
X159209856Y-106434836D01*
X159116279Y-106635513D01*
X159116275Y-106635524D01*
X159058965Y-106849407D01*
X159058964Y-106849414D01*
X159039666Y-107069998D01*
X159039666Y-107070001D01*
X159058964Y-107290585D01*
X159058965Y-107290592D01*
X159116275Y-107504475D01*
X159116279Y-107504486D01*
X159209856Y-107705163D01*
X159209858Y-107705167D01*
X159336868Y-107886555D01*
X159493445Y-108043132D01*
X159674833Y-108170142D01*
X159736828Y-108199050D01*
X159798091Y-108227618D01*
X159850531Y-108273790D01*
X159869683Y-108340983D01*
X159849467Y-108407865D01*
X159798091Y-108452382D01*
X159674836Y-108509856D01*
X159674834Y-108509857D01*
X159493444Y-108636868D01*
X159336868Y-108793444D01*
X159209857Y-108974834D01*
X159209856Y-108974836D01*
X159116279Y-109175513D01*
X159116275Y-109175524D01*
X159058965Y-109389407D01*
X159058964Y-109389414D01*
X159039666Y-109609998D01*
X159039666Y-109610001D01*
X159058964Y-109830585D01*
X159058965Y-109830592D01*
X159116275Y-110044475D01*
X159116279Y-110044486D01*
X159179218Y-110179459D01*
X159209858Y-110245167D01*
X159336868Y-110426555D01*
X159493445Y-110583132D01*
X159674833Y-110710142D01*
X159736828Y-110739050D01*
X159798091Y-110767618D01*
X159850531Y-110813790D01*
X159869683Y-110880983D01*
X159849467Y-110947865D01*
X159798091Y-110992382D01*
X159674836Y-111049856D01*
X159674834Y-111049857D01*
X159493444Y-111176868D01*
X159336868Y-111333444D01*
X159209857Y-111514834D01*
X159209856Y-111514836D01*
X159116279Y-111715513D01*
X159116275Y-111715524D01*
X159058965Y-111929407D01*
X159058964Y-111929414D01*
X159039666Y-112149998D01*
X159039666Y-112150001D01*
X159058964Y-112370585D01*
X159058965Y-112370592D01*
X159116275Y-112584475D01*
X159116279Y-112584486D01*
X159209856Y-112785163D01*
X159209858Y-112785167D01*
X159336868Y-112966555D01*
X159493445Y-113123132D01*
X159674833Y-113250142D01*
X159736828Y-113279050D01*
X159798091Y-113307618D01*
X159850531Y-113353790D01*
X159869683Y-113420983D01*
X159849467Y-113487865D01*
X159798091Y-113532382D01*
X159674836Y-113589856D01*
X159674834Y-113589857D01*
X159493444Y-113716868D01*
X159336868Y-113873444D01*
X159209857Y-114054834D01*
X159209856Y-114054836D01*
X159116279Y-114255513D01*
X159116275Y-114255524D01*
X159058965Y-114469407D01*
X159058964Y-114469414D01*
X159039666Y-114689998D01*
X159039666Y-114690001D01*
X159058964Y-114910585D01*
X159058965Y-114910592D01*
X159116275Y-115124475D01*
X159116279Y-115124486D01*
X159173504Y-115247205D01*
X159209858Y-115325167D01*
X159336868Y-115506555D01*
X159493445Y-115663132D01*
X159674833Y-115790142D01*
X159731695Y-115816657D01*
X159798091Y-115847618D01*
X159850531Y-115893790D01*
X159869683Y-115960983D01*
X159849467Y-116027865D01*
X159798091Y-116072382D01*
X159674836Y-116129856D01*
X159674834Y-116129857D01*
X159493444Y-116256868D01*
X159336868Y-116413444D01*
X159209857Y-116594834D01*
X159209856Y-116594836D01*
X159116279Y-116795513D01*
X159116275Y-116795524D01*
X159058965Y-117009407D01*
X159058964Y-117009414D01*
X159039666Y-117229998D01*
X159039666Y-117230001D01*
X159058964Y-117450585D01*
X159058965Y-117450592D01*
X159116275Y-117664475D01*
X159116279Y-117664486D01*
X159209856Y-117865163D01*
X159209858Y-117865167D01*
X159336868Y-118046555D01*
X159493445Y-118203132D01*
X159674833Y-118330142D01*
X159736828Y-118359050D01*
X159798091Y-118387618D01*
X159850531Y-118433790D01*
X159869683Y-118500983D01*
X159849467Y-118567865D01*
X159798091Y-118612382D01*
X159674836Y-118669856D01*
X159674834Y-118669857D01*
X159493444Y-118796868D01*
X159336868Y-118953444D01*
X159209857Y-119134834D01*
X159209856Y-119134836D01*
X159116279Y-119335513D01*
X159116275Y-119335524D01*
X159058965Y-119549407D01*
X159058964Y-119549414D01*
X159039666Y-119769998D01*
X159039666Y-119770001D01*
X159058964Y-119990585D01*
X159058965Y-119990592D01*
X159116275Y-120204475D01*
X159116279Y-120204486D01*
X159209856Y-120405163D01*
X159209858Y-120405167D01*
X159336868Y-120586555D01*
X159493445Y-120743132D01*
X159674833Y-120870142D01*
X159736828Y-120899050D01*
X159798091Y-120927618D01*
X159850531Y-120973790D01*
X159869683Y-121040983D01*
X159849467Y-121107865D01*
X159798091Y-121152382D01*
X159674836Y-121209856D01*
X159674834Y-121209857D01*
X159493444Y-121336868D01*
X159336868Y-121493444D01*
X159209857Y-121674834D01*
X159209856Y-121674836D01*
X159116279Y-121875513D01*
X159116275Y-121875524D01*
X159058965Y-122089407D01*
X159058964Y-122089414D01*
X159039666Y-122309998D01*
X159039666Y-122310001D01*
X159058964Y-122530585D01*
X159058965Y-122530592D01*
X159116275Y-122744475D01*
X159116279Y-122744486D01*
X159209856Y-122945163D01*
X159209858Y-122945167D01*
X159336868Y-123126555D01*
X159493445Y-123283132D01*
X159674833Y-123410142D01*
X159795572Y-123466443D01*
X159875513Y-123503720D01*
X159875515Y-123503720D01*
X159875520Y-123503723D01*
X160089409Y-123561035D01*
X160246974Y-123574820D01*
X160309998Y-123580334D01*
X160310000Y-123580334D01*
X160310002Y-123580334D01*
X160365147Y-123575509D01*
X160530591Y-123561035D01*
X160744480Y-123503723D01*
X160945167Y-123410142D01*
X161126555Y-123283132D01*
X161283132Y-123126555D01*
X161410142Y-122945167D01*
X161467618Y-122821907D01*
X161513790Y-122769468D01*
X161580983Y-122750316D01*
X161647864Y-122770531D01*
X161692381Y-122821907D01*
X161749858Y-122945167D01*
X161876868Y-123126555D01*
X162033445Y-123283132D01*
X162214833Y-123410142D01*
X162335572Y-123466443D01*
X162415513Y-123503720D01*
X162415515Y-123503720D01*
X162415520Y-123503723D01*
X162629409Y-123561035D01*
X162786974Y-123574820D01*
X162849998Y-123580334D01*
X162850000Y-123580334D01*
X162850002Y-123580334D01*
X162905147Y-123575509D01*
X163070591Y-123561035D01*
X163284480Y-123503723D01*
X163485167Y-123410142D01*
X163666555Y-123283132D01*
X163823132Y-123126555D01*
X163950142Y-122945167D01*
X164043723Y-122744480D01*
X164101035Y-122530591D01*
X164120334Y-122310000D01*
X164101035Y-122089409D01*
X164043723Y-121875520D01*
X164031574Y-121849467D01*
X163950143Y-121674836D01*
X163950142Y-121674834D01*
X163950142Y-121674833D01*
X163823132Y-121493445D01*
X163666555Y-121336868D01*
X163485167Y-121209858D01*
X163361907Y-121152381D01*
X163309468Y-121106210D01*
X163290316Y-121039017D01*
X163310531Y-120972136D01*
X163361908Y-120927618D01*
X163485167Y-120870142D01*
X163666555Y-120743132D01*
X163823132Y-120586555D01*
X163950142Y-120405167D01*
X164043723Y-120204480D01*
X164101035Y-119990591D01*
X164120334Y-119770000D01*
X164118720Y-119751557D01*
X164114675Y-119705320D01*
X164101035Y-119549409D01*
X164043723Y-119335520D01*
X164031574Y-119309467D01*
X163950143Y-119134836D01*
X163950142Y-119134834D01*
X163950142Y-119134833D01*
X163823132Y-118953445D01*
X163666555Y-118796868D01*
X163485167Y-118669858D01*
X163361907Y-118612381D01*
X163309468Y-118566210D01*
X163290316Y-118499017D01*
X163310531Y-118432136D01*
X163361908Y-118387618D01*
X163485167Y-118330142D01*
X163666555Y-118203132D01*
X163823132Y-118046555D01*
X163950142Y-117865167D01*
X164043723Y-117664480D01*
X164101035Y-117450591D01*
X164117577Y-117261513D01*
X164120334Y-117230001D01*
X164120334Y-117229998D01*
X164106218Y-117068656D01*
X164101035Y-117009409D01*
X164043723Y-116795520D01*
X164031574Y-116769467D01*
X163964442Y-116625500D01*
X163950142Y-116594833D01*
X163823132Y-116413445D01*
X163666555Y-116256868D01*
X163485167Y-116129858D01*
X163485163Y-116129856D01*
X163361317Y-116072106D01*
X163308877Y-116025934D01*
X163289725Y-115958741D01*
X163309941Y-115891859D01*
X163361317Y-115847342D01*
X163484912Y-115789708D01*
X163484914Y-115789707D01*
X163550342Y-115743894D01*
X162987575Y-115181127D01*
X163046853Y-115165245D01*
X163163147Y-115098102D01*
X163258102Y-115003147D01*
X163325245Y-114886853D01*
X163341128Y-114827575D01*
X163903894Y-115390342D01*
X163949706Y-115324915D01*
X164043250Y-115124309D01*
X164043254Y-115124300D01*
X164100538Y-114910509D01*
X164100540Y-114910499D01*
X164119832Y-114690000D01*
X164119832Y-114689999D01*
X164100540Y-114469500D01*
X164100538Y-114469490D01*
X164043254Y-114255699D01*
X164043250Y-114255690D01*
X163949707Y-114055085D01*
X163949706Y-114055083D01*
X163903894Y-113989657D01*
X163903894Y-113989656D01*
X163341127Y-114552423D01*
X163325245Y-114493147D01*
X163258102Y-114376853D01*
X163163147Y-114281898D01*
X163046853Y-114214755D01*
X162987575Y-114198872D01*
X163550342Y-113636105D01*
X163550341Y-113636103D01*
X163484919Y-113590295D01*
X163361316Y-113532657D01*
X163308877Y-113486484D01*
X163289725Y-113419291D01*
X163309941Y-113352410D01*
X163361312Y-113307895D01*
X163485167Y-113250142D01*
X163666555Y-113123132D01*
X163823132Y-112966555D01*
X163950142Y-112785167D01*
X164043723Y-112584480D01*
X164101035Y-112370591D01*
X164120334Y-112150000D01*
X164101035Y-111929409D01*
X164043723Y-111715520D01*
X164031574Y-111689467D01*
X163950143Y-111514836D01*
X163950142Y-111514834D01*
X163950142Y-111514833D01*
X163823132Y-111333445D01*
X163666555Y-111176868D01*
X163485167Y-111049858D01*
X163361907Y-110992381D01*
X163309468Y-110946210D01*
X163290316Y-110879017D01*
X163310531Y-110812136D01*
X163361908Y-110767618D01*
X163485167Y-110710142D01*
X163666555Y-110583132D01*
X163823132Y-110426555D01*
X163950142Y-110245167D01*
X164043723Y-110044480D01*
X164101035Y-109830591D01*
X164120334Y-109610000D01*
X164101035Y-109389409D01*
X164043723Y-109175520D01*
X164031574Y-109149467D01*
X164006443Y-109095572D01*
X163950142Y-108974833D01*
X163823132Y-108793445D01*
X163666555Y-108636868D01*
X163485167Y-108509858D01*
X163361907Y-108452381D01*
X163309468Y-108406210D01*
X163290316Y-108339017D01*
X163310531Y-108272136D01*
X163361908Y-108227618D01*
X163485167Y-108170142D01*
X163666555Y-108043132D01*
X163823132Y-107886555D01*
X163950142Y-107705167D01*
X164043723Y-107504480D01*
X164101035Y-107290591D01*
X164120334Y-107070000D01*
X164101035Y-106849409D01*
X164043723Y-106635520D01*
X164031574Y-106609467D01*
X163950143Y-106434836D01*
X163950142Y-106434834D01*
X163950142Y-106434833D01*
X163823132Y-106253445D01*
X163666555Y-106096868D01*
X163485167Y-105969858D01*
X163361907Y-105912381D01*
X163309468Y-105866210D01*
X163290316Y-105799017D01*
X163310531Y-105732136D01*
X163361908Y-105687618D01*
X163485167Y-105630142D01*
X163666555Y-105503132D01*
X163823132Y-105346555D01*
X163950142Y-105165167D01*
X164043723Y-104964480D01*
X164101035Y-104750591D01*
X164120334Y-104530000D01*
X164101035Y-104309409D01*
X164043723Y-104095520D01*
X164031574Y-104069467D01*
X163950143Y-103894836D01*
X163950142Y-103894834D01*
X163950142Y-103894833D01*
X163823132Y-103713445D01*
X163666555Y-103556868D01*
X163485167Y-103429858D01*
X163453702Y-103415186D01*
X163361908Y-103372382D01*
X163309468Y-103326210D01*
X163290316Y-103259017D01*
X163310531Y-103192136D01*
X163361908Y-103147618D01*
X163362500Y-103147342D01*
X163485167Y-103090142D01*
X163666555Y-102963132D01*
X163823132Y-102806555D01*
X163950142Y-102625167D01*
X164043723Y-102424480D01*
X164101035Y-102210591D01*
X164120334Y-101990000D01*
X164101035Y-101769409D01*
X164043723Y-101555520D01*
X164031574Y-101529467D01*
X163968065Y-101393269D01*
X163950142Y-101354833D01*
X163823132Y-101173445D01*
X163666555Y-101016868D01*
X163485167Y-100889858D01*
X163485163Y-100889856D01*
X163361317Y-100832106D01*
X163308877Y-100785934D01*
X163289725Y-100718741D01*
X163309941Y-100651859D01*
X163361317Y-100607342D01*
X163484912Y-100549708D01*
X163484914Y-100549707D01*
X163550342Y-100503894D01*
X162987575Y-99941127D01*
X163046853Y-99925245D01*
X163163147Y-99858102D01*
X163258102Y-99763147D01*
X163325245Y-99646853D01*
X163341128Y-99587575D01*
X163903894Y-100150342D01*
X163949706Y-100084915D01*
X164043250Y-99884309D01*
X164043254Y-99884300D01*
X164100538Y-99670509D01*
X164100540Y-99670499D01*
X164119832Y-99450000D01*
X164119832Y-99449999D01*
X164100540Y-99229500D01*
X164100538Y-99229490D01*
X164043254Y-99015699D01*
X164043250Y-99015690D01*
X163949707Y-98815085D01*
X163949706Y-98815083D01*
X163903894Y-98749657D01*
X163903894Y-98749656D01*
X163341127Y-99312423D01*
X163325245Y-99253147D01*
X163258102Y-99136853D01*
X163163147Y-99041898D01*
X163046853Y-98974755D01*
X162987575Y-98958872D01*
X163550342Y-98396105D01*
X163550341Y-98396103D01*
X163498779Y-98360000D01*
X164384540Y-98360000D01*
X164404326Y-98548256D01*
X164404327Y-98548259D01*
X164462818Y-98728277D01*
X164462821Y-98728284D01*
X164557467Y-98892216D01*
X164668491Y-99015520D01*
X164684129Y-99032888D01*
X164837265Y-99144148D01*
X164837270Y-99144151D01*
X165010192Y-99221142D01*
X165010197Y-99221144D01*
X165195354Y-99260500D01*
X165195355Y-99260500D01*
X165384644Y-99260500D01*
X165384646Y-99260500D01*
X165569803Y-99221144D01*
X165742730Y-99144151D01*
X165782638Y-99115155D01*
X165848440Y-99091676D01*
X165916495Y-99107500D01*
X165943203Y-99127793D01*
X166338181Y-99522771D01*
X166371666Y-99584094D01*
X166374500Y-99610452D01*
X166374500Y-114061611D01*
X166398535Y-114182444D01*
X166398540Y-114182461D01*
X166445685Y-114296280D01*
X166445687Y-114296283D01*
X166445688Y-114296286D01*
X166472523Y-114336447D01*
X166479914Y-114347507D01*
X166479915Y-114347509D01*
X166514141Y-114398733D01*
X166605586Y-114490178D01*
X166605608Y-114490198D01*
X168511016Y-116395606D01*
X168511045Y-116395637D01*
X168601264Y-116485856D01*
X168601267Y-116485858D01*
X168652490Y-116520084D01*
X168703714Y-116554312D01*
X168737657Y-116568371D01*
X168779832Y-116585841D01*
X168779837Y-116585842D01*
X168779841Y-116585844D01*
X168817548Y-116601463D01*
X168877971Y-116613481D01*
X168938393Y-116625500D01*
X168938394Y-116625500D01*
X170410019Y-116625500D01*
X170477058Y-116645185D01*
X170522813Y-116697989D01*
X170533377Y-116736899D01*
X170535000Y-116752796D01*
X170535001Y-116752799D01*
X170549158Y-116795520D01*
X170590186Y-116919334D01*
X170645747Y-117009414D01*
X170682289Y-117068657D01*
X170806344Y-117192712D01*
X170961120Y-117288178D01*
X171007845Y-117340126D01*
X171019068Y-117409088D01*
X170991224Y-117473171D01*
X170983706Y-117481398D01*
X170844889Y-117620215D01*
X170719951Y-117792179D01*
X170623444Y-117981585D01*
X170557753Y-118183760D01*
X170525465Y-118387618D01*
X170524500Y-118393713D01*
X170524500Y-118606287D01*
X170530828Y-118646237D01*
X170557753Y-118816239D01*
X170623444Y-119018414D01*
X170719951Y-119207820D01*
X170844890Y-119379786D01*
X170995209Y-119530105D01*
X170995214Y-119530109D01*
X171160218Y-119649991D01*
X171202884Y-119705320D01*
X171208863Y-119774934D01*
X171176258Y-119836729D01*
X171160218Y-119850627D01*
X170995540Y-119970272D01*
X170995535Y-119970276D01*
X170845276Y-120120535D01*
X170845272Y-120120540D01*
X170720379Y-120292442D01*
X170623904Y-120481782D01*
X170558242Y-120683870D01*
X170558242Y-120683873D01*
X170547769Y-120750000D01*
X171595854Y-120750000D01*
X171557370Y-120816657D01*
X171525000Y-120937465D01*
X171525000Y-121062535D01*
X171557370Y-121183343D01*
X171595854Y-121250000D01*
X170547769Y-121250000D01*
X170558242Y-121316126D01*
X170558242Y-121316129D01*
X170623904Y-121518217D01*
X170720379Y-121707557D01*
X170845272Y-121879459D01*
X170845276Y-121879464D01*
X170995535Y-122029723D01*
X170995540Y-122029727D01*
X171167442Y-122154620D01*
X171356782Y-122251095D01*
X171558872Y-122316757D01*
X171750000Y-122347029D01*
X171750000Y-121404145D01*
X171816657Y-121442630D01*
X171937465Y-121475000D01*
X172062535Y-121475000D01*
X172183343Y-121442630D01*
X172250000Y-121404145D01*
X172250000Y-122347028D01*
X172441127Y-122316757D01*
X172643217Y-122251095D01*
X172832557Y-122154620D01*
X173004459Y-122029727D01*
X173004464Y-122029723D01*
X173154723Y-121879464D01*
X173154727Y-121879459D01*
X173279620Y-121707557D01*
X173376095Y-121518217D01*
X173441757Y-121316129D01*
X173441757Y-121316126D01*
X173452231Y-121250000D01*
X172404146Y-121250000D01*
X172442630Y-121183343D01*
X172475000Y-121062535D01*
X172475000Y-120937465D01*
X172442630Y-120816657D01*
X172404146Y-120750000D01*
X173452231Y-120750000D01*
X173441757Y-120683873D01*
X173441757Y-120683870D01*
X173376095Y-120481782D01*
X173279620Y-120292442D01*
X173154727Y-120120540D01*
X173154723Y-120120535D01*
X173004464Y-119970276D01*
X173004459Y-119970272D01*
X172839781Y-119850627D01*
X172797115Y-119795297D01*
X172791136Y-119725684D01*
X172823741Y-119663889D01*
X172839776Y-119649994D01*
X173004792Y-119530104D01*
X173155104Y-119379792D01*
X173155106Y-119379788D01*
X173155109Y-119379786D01*
X173280048Y-119207820D01*
X173280047Y-119207820D01*
X173280051Y-119207816D01*
X173376557Y-119018412D01*
X173442246Y-118816243D01*
X173475500Y-118606287D01*
X173475500Y-118393713D01*
X173442246Y-118183757D01*
X173376557Y-117981588D01*
X173280051Y-117792184D01*
X173280049Y-117792181D01*
X173280048Y-117792179D01*
X173155109Y-117620213D01*
X173016294Y-117481398D01*
X172982809Y-117420075D01*
X172987793Y-117350383D01*
X173029665Y-117294450D01*
X173038879Y-117288178D01*
X173044331Y-117284814D01*
X173044334Y-117284814D01*
X173193656Y-117192712D01*
X173317712Y-117068656D01*
X173409814Y-116919334D01*
X173464999Y-116752797D01*
X173475500Y-116650009D01*
X173475499Y-115349992D01*
X173474292Y-115338181D01*
X173464999Y-115247203D01*
X173464998Y-115247200D01*
X173449794Y-115201317D01*
X173409814Y-115080666D01*
X173317712Y-114931344D01*
X173193656Y-114807288D01*
X173044334Y-114715186D01*
X172877797Y-114660001D01*
X172877795Y-114660000D01*
X172775010Y-114649500D01*
X171224998Y-114649500D01*
X171224981Y-114649501D01*
X171122203Y-114660000D01*
X171122200Y-114660001D01*
X170955668Y-114715185D01*
X170955663Y-114715187D01*
X170806342Y-114807289D01*
X170682289Y-114931342D01*
X170590187Y-115080663D01*
X170590185Y-115080668D01*
X170567583Y-115148878D01*
X170550207Y-115201316D01*
X170535001Y-115247204D01*
X170535000Y-115247205D01*
X170533377Y-115263101D01*
X170506982Y-115327793D01*
X170449802Y-115367945D01*
X170410019Y-115374500D01*
X169310452Y-115374500D01*
X169243413Y-115354815D01*
X169222771Y-115338181D01*
X167661819Y-113777229D01*
X167628334Y-113715906D01*
X167625500Y-113689548D01*
X167625500Y-101109452D01*
X167645185Y-101042413D01*
X167697989Y-100996658D01*
X167767147Y-100986714D01*
X167830703Y-101015739D01*
X167837181Y-101021771D01*
X170488181Y-103672771D01*
X170521666Y-103734094D01*
X170524500Y-103760452D01*
X170524500Y-104950001D01*
X170524501Y-104950018D01*
X170535000Y-105052796D01*
X170535001Y-105052799D01*
X170590185Y-105219331D01*
X170590187Y-105219336D01*
X170682289Y-105368657D01*
X170806344Y-105492712D01*
X170961120Y-105588178D01*
X171007845Y-105640126D01*
X171019068Y-105709088D01*
X170991224Y-105773171D01*
X170983706Y-105781398D01*
X170844889Y-105920215D01*
X170719951Y-106092179D01*
X170623444Y-106281585D01*
X170557753Y-106483760D01*
X170537843Y-106609467D01*
X170524500Y-106693713D01*
X170524500Y-106906287D01*
X170557754Y-107116243D01*
X170614403Y-107290591D01*
X170623444Y-107318414D01*
X170719951Y-107507820D01*
X170844890Y-107679786D01*
X170995209Y-107830105D01*
X170995214Y-107830109D01*
X171160218Y-107949991D01*
X171202884Y-108005320D01*
X171208863Y-108074934D01*
X171176258Y-108136729D01*
X171160218Y-108150627D01*
X170995540Y-108270272D01*
X170995535Y-108270276D01*
X170845276Y-108420535D01*
X170845272Y-108420540D01*
X170720379Y-108592442D01*
X170623904Y-108781782D01*
X170558242Y-108983870D01*
X170558242Y-108983873D01*
X170547769Y-109050000D01*
X171595854Y-109050000D01*
X171557370Y-109116657D01*
X171525000Y-109237465D01*
X171525000Y-109362535D01*
X171557370Y-109483343D01*
X171595854Y-109550000D01*
X170547769Y-109550000D01*
X170558242Y-109616126D01*
X170558242Y-109616129D01*
X170623904Y-109818217D01*
X170720379Y-110007557D01*
X170845272Y-110179459D01*
X170845276Y-110179464D01*
X170995535Y-110329723D01*
X170995540Y-110329727D01*
X171167442Y-110454620D01*
X171356782Y-110551095D01*
X171558872Y-110616757D01*
X171750000Y-110647029D01*
X171750000Y-109704145D01*
X171816657Y-109742630D01*
X171937465Y-109775000D01*
X172062535Y-109775000D01*
X172183343Y-109742630D01*
X172250000Y-109704145D01*
X172250000Y-110647028D01*
X172441127Y-110616757D01*
X172643217Y-110551095D01*
X172832557Y-110454620D01*
X173004459Y-110329727D01*
X173004464Y-110329723D01*
X173154723Y-110179464D01*
X173154727Y-110179459D01*
X173279620Y-110007557D01*
X173376095Y-109818217D01*
X173441757Y-109616129D01*
X173441757Y-109616126D01*
X173452231Y-109550000D01*
X172404146Y-109550000D01*
X172442630Y-109483343D01*
X172475000Y-109362535D01*
X172475000Y-109237465D01*
X172442630Y-109116657D01*
X172404146Y-109050000D01*
X173452231Y-109050000D01*
X173441757Y-108983873D01*
X173441757Y-108983870D01*
X173376095Y-108781782D01*
X173279620Y-108592442D01*
X173154727Y-108420540D01*
X173154723Y-108420535D01*
X173004464Y-108270276D01*
X173004459Y-108270272D01*
X172839781Y-108150627D01*
X172797115Y-108095297D01*
X172791136Y-108025684D01*
X172823741Y-107963889D01*
X172839776Y-107949994D01*
X173004792Y-107830104D01*
X173155104Y-107679792D01*
X173155106Y-107679788D01*
X173155109Y-107679786D01*
X173280048Y-107507820D01*
X173280047Y-107507820D01*
X173280051Y-107507816D01*
X173376557Y-107318412D01*
X173442246Y-107116243D01*
X173475500Y-106906287D01*
X173475500Y-106693713D01*
X173442246Y-106483757D01*
X173376557Y-106281588D01*
X173280051Y-106092184D01*
X173280049Y-106092181D01*
X173280048Y-106092179D01*
X173155109Y-105920213D01*
X173016294Y-105781398D01*
X172982809Y-105720075D01*
X172987793Y-105650383D01*
X173029665Y-105594450D01*
X173038879Y-105588178D01*
X173044331Y-105584814D01*
X173044334Y-105584814D01*
X173193656Y-105492712D01*
X173317712Y-105368656D01*
X173409814Y-105219334D01*
X173464999Y-105052797D01*
X173475500Y-104950009D01*
X173475499Y-103649992D01*
X173464999Y-103547203D01*
X173409814Y-103380666D01*
X173317712Y-103231344D01*
X173193656Y-103107288D01*
X173044334Y-103015186D01*
X172877797Y-102960001D01*
X172877795Y-102960000D01*
X172775016Y-102949500D01*
X172775009Y-102949500D01*
X171585453Y-102949500D01*
X171518414Y-102929815D01*
X171497772Y-102913181D01*
X167492928Y-98908338D01*
X167492925Y-98908334D01*
X167492925Y-98908335D01*
X167485858Y-98901268D01*
X167485858Y-98901267D01*
X167398733Y-98814142D01*
X167398732Y-98814141D01*
X167394402Y-98809811D01*
X167394391Y-98809801D01*
X166552928Y-97968338D01*
X166552925Y-97968334D01*
X166552925Y-97968335D01*
X166545858Y-97961268D01*
X166545858Y-97961267D01*
X166458733Y-97874142D01*
X166458732Y-97874141D01*
X166458731Y-97874140D01*
X166407509Y-97839915D01*
X166356286Y-97805688D01*
X166356283Y-97805686D01*
X166356280Y-97805685D01*
X166275792Y-97772347D01*
X166242453Y-97758537D01*
X166232427Y-97756543D01*
X166182029Y-97746518D01*
X166121610Y-97734500D01*
X166121607Y-97734500D01*
X166121606Y-97734500D01*
X165993748Y-97734500D01*
X165926709Y-97714815D01*
X165901600Y-97693474D01*
X165895873Y-97687114D01*
X165895869Y-97687110D01*
X165742734Y-97575851D01*
X165742729Y-97575848D01*
X165569807Y-97498857D01*
X165569802Y-97498855D01*
X165424001Y-97467865D01*
X165384646Y-97459500D01*
X165195354Y-97459500D01*
X165162897Y-97466398D01*
X165010197Y-97498855D01*
X165010192Y-97498857D01*
X164837270Y-97575848D01*
X164837265Y-97575851D01*
X164684129Y-97687111D01*
X164557466Y-97827785D01*
X164462821Y-97991715D01*
X164462818Y-97991722D01*
X164404327Y-98171740D01*
X164404326Y-98171744D01*
X164384540Y-98360000D01*
X163498779Y-98360000D01*
X163484919Y-98350295D01*
X163361316Y-98292657D01*
X163308877Y-98246484D01*
X163289725Y-98179291D01*
X163309941Y-98112410D01*
X163361312Y-98067895D01*
X163485167Y-98010142D01*
X163666555Y-97883132D01*
X163823132Y-97726555D01*
X163950142Y-97545167D01*
X164043723Y-97344480D01*
X164101035Y-97130591D01*
X164120334Y-96910000D01*
X164101035Y-96689409D01*
X164043723Y-96475520D01*
X163950142Y-96274833D01*
X163823132Y-96093445D01*
X163666555Y-95936868D01*
X163485167Y-95809858D01*
X163361907Y-95752381D01*
X163309468Y-95706210D01*
X163290316Y-95639017D01*
X163310531Y-95572136D01*
X163361908Y-95527618D01*
X163485167Y-95470142D01*
X163666555Y-95343132D01*
X163823132Y-95186555D01*
X163950142Y-95005167D01*
X164043723Y-94804480D01*
X164096829Y-94606287D01*
X170524500Y-94606287D01*
X170557754Y-94816243D01*
X170619139Y-95005167D01*
X170623444Y-95018414D01*
X170719951Y-95207820D01*
X170844890Y-95379786D01*
X170995209Y-95530105D01*
X170995214Y-95530109D01*
X171160218Y-95649991D01*
X171202884Y-95705320D01*
X171208863Y-95774934D01*
X171176258Y-95836729D01*
X171160218Y-95850627D01*
X170995540Y-95970272D01*
X170995535Y-95970276D01*
X170845276Y-96120535D01*
X170845272Y-96120540D01*
X170720379Y-96292442D01*
X170623904Y-96481782D01*
X170558242Y-96683870D01*
X170558242Y-96683873D01*
X170547769Y-96750000D01*
X171595854Y-96750000D01*
X171557370Y-96816657D01*
X171525000Y-96937465D01*
X171525000Y-97062535D01*
X171557370Y-97183343D01*
X171595854Y-97250000D01*
X170547769Y-97250000D01*
X170558242Y-97316126D01*
X170558242Y-97316129D01*
X170623904Y-97518217D01*
X170720379Y-97707557D01*
X170845272Y-97879459D01*
X170845276Y-97879464D01*
X170995535Y-98029723D01*
X170995540Y-98029727D01*
X171167442Y-98154620D01*
X171356782Y-98251095D01*
X171558872Y-98316757D01*
X171750000Y-98347029D01*
X171750000Y-97404145D01*
X171816657Y-97442630D01*
X171937465Y-97475000D01*
X172062535Y-97475000D01*
X172183343Y-97442630D01*
X172250000Y-97404145D01*
X172250000Y-98347028D01*
X172441127Y-98316757D01*
X172643217Y-98251095D01*
X172832557Y-98154620D01*
X173004459Y-98029727D01*
X173004464Y-98029723D01*
X173154723Y-97879464D01*
X173154727Y-97879459D01*
X173279620Y-97707557D01*
X173376095Y-97518217D01*
X173441757Y-97316129D01*
X173441757Y-97316126D01*
X173452231Y-97250000D01*
X172404146Y-97250000D01*
X172442630Y-97183343D01*
X172475000Y-97062535D01*
X172475000Y-96937465D01*
X172442630Y-96816657D01*
X172404146Y-96750000D01*
X173452231Y-96750000D01*
X173441757Y-96683873D01*
X173441757Y-96683870D01*
X173376095Y-96481782D01*
X173279620Y-96292442D01*
X173154727Y-96120540D01*
X173154723Y-96120535D01*
X173004464Y-95970276D01*
X173004459Y-95970272D01*
X172839781Y-95850627D01*
X172797115Y-95795297D01*
X172791136Y-95725684D01*
X172823741Y-95663889D01*
X172839776Y-95649994D01*
X173004792Y-95530104D01*
X173155104Y-95379792D01*
X173155106Y-95379788D01*
X173155109Y-95379786D01*
X173280048Y-95207820D01*
X173280047Y-95207820D01*
X173280051Y-95207816D01*
X173376557Y-95018412D01*
X173442246Y-94816243D01*
X173475500Y-94606287D01*
X173475500Y-94393713D01*
X173442246Y-94183757D01*
X173376557Y-93981588D01*
X173280051Y-93792184D01*
X173280049Y-93792181D01*
X173280048Y-93792179D01*
X173155109Y-93620213D01*
X173016294Y-93481398D01*
X172982809Y-93420075D01*
X172987793Y-93350383D01*
X173029665Y-93294450D01*
X173038879Y-93288178D01*
X173044331Y-93284814D01*
X173044334Y-93284814D01*
X173193656Y-93192712D01*
X173317712Y-93068656D01*
X173409814Y-92919334D01*
X173464999Y-92752797D01*
X173475500Y-92650009D01*
X173475499Y-91349992D01*
X173464999Y-91247203D01*
X173409814Y-91080666D01*
X173317712Y-90931344D01*
X173193656Y-90807288D01*
X173044334Y-90715186D01*
X172877797Y-90660001D01*
X172877795Y-90660000D01*
X172775010Y-90649500D01*
X171224998Y-90649500D01*
X171224981Y-90649501D01*
X171122203Y-90660000D01*
X171122200Y-90660001D01*
X170955668Y-90715185D01*
X170955663Y-90715187D01*
X170806342Y-90807289D01*
X170682289Y-90931342D01*
X170590187Y-91080663D01*
X170590186Y-91080666D01*
X170535001Y-91247203D01*
X170535001Y-91247204D01*
X170535000Y-91247204D01*
X170524500Y-91349983D01*
X170524500Y-92650001D01*
X170524501Y-92650018D01*
X170535000Y-92752796D01*
X170535001Y-92752799D01*
X170590185Y-92919331D01*
X170590186Y-92919334D01*
X170659762Y-93032136D01*
X170682289Y-93068657D01*
X170806344Y-93192712D01*
X170961120Y-93288178D01*
X171007845Y-93340126D01*
X171019068Y-93409088D01*
X170991224Y-93473171D01*
X170983706Y-93481398D01*
X170844889Y-93620215D01*
X170719951Y-93792179D01*
X170623444Y-93981585D01*
X170557753Y-94183760D01*
X170528256Y-94369998D01*
X170524500Y-94393713D01*
X170524500Y-94606287D01*
X164096829Y-94606287D01*
X164101035Y-94590591D01*
X164120334Y-94370000D01*
X164101035Y-94149409D01*
X164043723Y-93935520D01*
X164031574Y-93909467D01*
X163976885Y-93792184D01*
X163950142Y-93734833D01*
X163823132Y-93553445D01*
X163666555Y-93396868D01*
X163485167Y-93269858D01*
X163361907Y-93212381D01*
X163309468Y-93166210D01*
X163290316Y-93099017D01*
X163310531Y-93032136D01*
X163361908Y-92987618D01*
X163485167Y-92930142D01*
X163666555Y-92803132D01*
X163823132Y-92646555D01*
X163950142Y-92465167D01*
X164043723Y-92264480D01*
X164101035Y-92050591D01*
X164120334Y-91830000D01*
X164101035Y-91609409D01*
X164043723Y-91395520D01*
X164031574Y-91369467D01*
X163951408Y-91197548D01*
X163950142Y-91194833D01*
X163823132Y-91013445D01*
X163666555Y-90856868D01*
X163485167Y-90729858D01*
X163453702Y-90715186D01*
X163361908Y-90672382D01*
X163309468Y-90626210D01*
X163290316Y-90559017D01*
X163310531Y-90492136D01*
X163361908Y-90447618D01*
X163396812Y-90431342D01*
X163485167Y-90390142D01*
X163666555Y-90263132D01*
X163823132Y-90106555D01*
X163950142Y-89925167D01*
X164043723Y-89724480D01*
X164101035Y-89510591D01*
X164120334Y-89290000D01*
X164101035Y-89069409D01*
X164043723Y-88855520D01*
X164031574Y-88829467D01*
X164006443Y-88775572D01*
X163950142Y-88654833D01*
X163823132Y-88473445D01*
X163666555Y-88316868D01*
X163485167Y-88189858D01*
X163361907Y-88132381D01*
X163309468Y-88086210D01*
X163290316Y-88019017D01*
X163310531Y-87952136D01*
X163361908Y-87907618D01*
X163362500Y-87907342D01*
X163485167Y-87850142D01*
X163666555Y-87723132D01*
X163823132Y-87566555D01*
X163950142Y-87385167D01*
X164043723Y-87184480D01*
X164101035Y-86970591D01*
X164120334Y-86750000D01*
X164101035Y-86529409D01*
X164043723Y-86315520D01*
X164031574Y-86289467D01*
X163993746Y-86208343D01*
X163950142Y-86114833D01*
X163823132Y-85933445D01*
X163666555Y-85776868D01*
X163485167Y-85649858D01*
X163361907Y-85592381D01*
X163309468Y-85546210D01*
X163290316Y-85479017D01*
X163310531Y-85412136D01*
X163361908Y-85367618D01*
X163362500Y-85367342D01*
X163485167Y-85310142D01*
X163666555Y-85183132D01*
X163823132Y-85026555D01*
X163950142Y-84845167D01*
X164043723Y-84644480D01*
X164101035Y-84430591D01*
X164120334Y-84210000D01*
X164101035Y-83989409D01*
X164043723Y-83775520D01*
X164031574Y-83749467D01*
X164006443Y-83695572D01*
X163950142Y-83574833D01*
X163823132Y-83393445D01*
X163666555Y-83236868D01*
X163485167Y-83109858D01*
X163361907Y-83052381D01*
X163309468Y-83006210D01*
X163290316Y-82939017D01*
X163310531Y-82872136D01*
X163361908Y-82827618D01*
X163485167Y-82770142D01*
X163666555Y-82643132D01*
X163823132Y-82486555D01*
X163950142Y-82305167D01*
X164043723Y-82104480D01*
X164101035Y-81890591D01*
X164120334Y-81670000D01*
X164101035Y-81449409D01*
X164043723Y-81235520D01*
X164031574Y-81209467D01*
X163974965Y-81088067D01*
X163950142Y-81034833D01*
X163823132Y-80853445D01*
X163666555Y-80696868D01*
X163485167Y-80569858D01*
X163361907Y-80512381D01*
X163309468Y-80466210D01*
X163290316Y-80399017D01*
X163310531Y-80332136D01*
X163361908Y-80287618D01*
X163485167Y-80230142D01*
X163666555Y-80103132D01*
X163823132Y-79946555D01*
X163950142Y-79765167D01*
X164043723Y-79564480D01*
X164101035Y-79350591D01*
X164120334Y-79130000D01*
X164101035Y-78909409D01*
X164043723Y-78695520D01*
X164031574Y-78669467D01*
X163950143Y-78494836D01*
X163950142Y-78494834D01*
X163950142Y-78494833D01*
X163823132Y-78313445D01*
X163666555Y-78156868D01*
X163485167Y-78029858D01*
X163477959Y-78026497D01*
X163361908Y-77972382D01*
X163309468Y-77926210D01*
X163290316Y-77859017D01*
X163310531Y-77792136D01*
X163361908Y-77747618D01*
X163485167Y-77690142D01*
X163666555Y-77563132D01*
X163823132Y-77406555D01*
X163950142Y-77225167D01*
X164043723Y-77024480D01*
X164101035Y-76810591D01*
X164120334Y-76590000D01*
X164101035Y-76369409D01*
X164043723Y-76155520D01*
X163950142Y-75954833D01*
X163823132Y-75773445D01*
X163666555Y-75616868D01*
X163485167Y-75489858D01*
X163485163Y-75489856D01*
X163284486Y-75396279D01*
X163284475Y-75396275D01*
X163070592Y-75338965D01*
X163070585Y-75338964D01*
X162850002Y-75319666D01*
X162849998Y-75319666D01*
X162629414Y-75338964D01*
X162629407Y-75338965D01*
X162415524Y-75396275D01*
X162415513Y-75396279D01*
X162214836Y-75489856D01*
X162214834Y-75489857D01*
X162033444Y-75616868D01*
X161876868Y-75773444D01*
X161801074Y-75881690D01*
X161746497Y-75925315D01*
X161676998Y-75932507D01*
X161614644Y-75900985D01*
X161579230Y-75840755D01*
X161575499Y-75810566D01*
X161575499Y-75777129D01*
X161575498Y-75777123D01*
X161575497Y-75777116D01*
X161569091Y-75717517D01*
X161531551Y-75616868D01*
X161518797Y-75582671D01*
X161518793Y-75582664D01*
X161432547Y-75467455D01*
X161432544Y-75467452D01*
X161317335Y-75381206D01*
X161317328Y-75381202D01*
X161182482Y-75330908D01*
X161182483Y-75330908D01*
X161122883Y-75324501D01*
X161122881Y-75324500D01*
X161122873Y-75324500D01*
X161122864Y-75324500D01*
X159497129Y-75324500D01*
X159497123Y-75324501D01*
X159437516Y-75330908D01*
X159302671Y-75381202D01*
X159302664Y-75381206D01*
X159187455Y-75467452D01*
X159187452Y-75467455D01*
X159101206Y-75582664D01*
X159101202Y-75582671D01*
X159050908Y-75717517D01*
X159044896Y-75773444D01*
X159044501Y-75777123D01*
X159044500Y-75777135D01*
X159044500Y-77402870D01*
X159044501Y-77402876D01*
X159050908Y-77462483D01*
X159101202Y-77597328D01*
X159101206Y-77597335D01*
X159187452Y-77712544D01*
X159187455Y-77712547D01*
X159302664Y-77798793D01*
X159302671Y-77798797D01*
X159437517Y-77849091D01*
X159437516Y-77849091D01*
X159444444Y-77849835D01*
X159497127Y-77855500D01*
X159530564Y-77855499D01*
X159597601Y-77875182D01*
X159643357Y-77927984D01*
X159653302Y-77997143D01*
X159624279Y-78060699D01*
X159601689Y-78081073D01*
X159493447Y-78156866D01*
X159493441Y-78156871D01*
X159336868Y-78313444D01*
X159209857Y-78494834D01*
X159209856Y-78494836D01*
X159116279Y-78695513D01*
X159116275Y-78695524D01*
X159058965Y-78909407D01*
X159058964Y-78909414D01*
X159039666Y-79129998D01*
X159039666Y-79130001D01*
X159058964Y-79350585D01*
X159058965Y-79350592D01*
X159116275Y-79564475D01*
X159116279Y-79564486D01*
X159209856Y-79765163D01*
X159209858Y-79765167D01*
X159336868Y-79946555D01*
X159493445Y-80103132D01*
X159674833Y-80230142D01*
X159736828Y-80259050D01*
X159798091Y-80287618D01*
X159850531Y-80333790D01*
X159869683Y-80400983D01*
X159849467Y-80467865D01*
X159798091Y-80512382D01*
X159674836Y-80569856D01*
X159674834Y-80569857D01*
X159493444Y-80696868D01*
X159336868Y-80853444D01*
X159282791Y-80930673D01*
X159240112Y-80991625D01*
X159185537Y-81035249D01*
X159138539Y-81044500D01*
X135268389Y-81044500D01*
X135207971Y-81056518D01*
X135147548Y-81068537D01*
X135147543Y-81068538D01*
X135113546Y-81082620D01*
X135100397Y-81088067D01*
X135078169Y-81097274D01*
X135033713Y-81115688D01*
X135023557Y-81122475D01*
X135023449Y-81122547D01*
X134931268Y-81184140D01*
X134905942Y-81209467D01*
X134844142Y-81271267D01*
X134844139Y-81271270D01*
X108101270Y-108014139D01*
X108101267Y-108014142D01*
X108072278Y-108043131D01*
X108014142Y-108101266D01*
X107981247Y-108150498D01*
X107981246Y-108150500D01*
X107945688Y-108203712D01*
X107935787Y-108227618D01*
X107920832Y-108263723D01*
X107898537Y-108317548D01*
X107898536Y-108317552D01*
X107898536Y-108317553D01*
X107898535Y-108317556D01*
X107874500Y-108438389D01*
X107874500Y-131602019D01*
X107854815Y-131669058D01*
X107806797Y-131712503D01*
X107792180Y-131719950D01*
X107620213Y-131844890D01*
X107469894Y-131995209D01*
X107469890Y-131995214D01*
X107350008Y-132160218D01*
X107294678Y-132202884D01*
X107225065Y-132208863D01*
X107163270Y-132176257D01*
X107149372Y-132160218D01*
X107029727Y-131995540D01*
X107029723Y-131995535D01*
X106879464Y-131845276D01*
X106879459Y-131845272D01*
X106707557Y-131720379D01*
X106518215Y-131623903D01*
X106316124Y-131558241D01*
X106250000Y-131547768D01*
X106250000Y-132595854D01*
X106183343Y-132557370D01*
X106062535Y-132525000D01*
X105937465Y-132525000D01*
X105816657Y-132557370D01*
X105750000Y-132595854D01*
X105750000Y-131547768D01*
X105749999Y-131547768D01*
X105683875Y-131558241D01*
X105481784Y-131623903D01*
X105292442Y-131720379D01*
X105120540Y-131845272D01*
X105120535Y-131845276D01*
X104970276Y-131995535D01*
X104970272Y-131995540D01*
X104845379Y-132167442D01*
X104748904Y-132356782D01*
X104683242Y-132558869D01*
X104683242Y-132558872D01*
X104652970Y-132750000D01*
X105595854Y-132750000D01*
X105557370Y-132816657D01*
X105525000Y-132937465D01*
X105525000Y-133062535D01*
X105557370Y-133183343D01*
X105595854Y-133250000D01*
X104652970Y-133250000D01*
X86000000Y-133250000D01*
X86000000Y-130114741D01*
X88249500Y-130114741D01*
X88274446Y-130304215D01*
X88279452Y-130342238D01*
X88279453Y-130342240D01*
X88338842Y-130563887D01*
X88426650Y-130775876D01*
X88426657Y-130775890D01*
X88541392Y-130974617D01*
X88681081Y-131156661D01*
X88681089Y-131156670D01*
X88843330Y-131318911D01*
X88843338Y-131318918D01*
X89025382Y-131458607D01*
X89025385Y-131458608D01*
X89025388Y-131458611D01*
X89224112Y-131573344D01*
X89224117Y-131573346D01*
X89224123Y-131573349D01*
X89264774Y-131590187D01*
X89436113Y-131661158D01*
X89657762Y-131720548D01*
X89885266Y-131750500D01*
X89885273Y-131750500D01*
X90114727Y-131750500D01*
X90114734Y-131750500D01*
X90342238Y-131720548D01*
X90563887Y-131661158D01*
X90775888Y-131573344D01*
X90974612Y-131458611D01*
X91156661Y-131318919D01*
X91156665Y-131318914D01*
X91156670Y-131318911D01*
X91318911Y-131156670D01*
X91318914Y-131156665D01*
X91318919Y-131156661D01*
X91458611Y-130974612D01*
X91573344Y-130775888D01*
X91661158Y-130563887D01*
X91720548Y-130342238D01*
X91750500Y-130114734D01*
X91750500Y-129885266D01*
X91720548Y-129657762D01*
X91661158Y-129436113D01*
X91573344Y-129224112D01*
X91458611Y-129025388D01*
X91458608Y-129025385D01*
X91458607Y-129025382D01*
X91318918Y-128843338D01*
X91318911Y-128843330D01*
X91156670Y-128681089D01*
X91156661Y-128681081D01*
X90974617Y-128541392D01*
X90775890Y-128426657D01*
X90775876Y-128426650D01*
X90563887Y-128338842D01*
X90342238Y-128279452D01*
X90304215Y-128274446D01*
X90114741Y-128249500D01*
X90114734Y-128249500D01*
X89885266Y-128249500D01*
X89885258Y-128249500D01*
X89668715Y-128278009D01*
X89657762Y-128279452D01*
X89564076Y-128304554D01*
X89436112Y-128338842D01*
X89224123Y-128426650D01*
X89224109Y-128426657D01*
X89025382Y-128541392D01*
X88843338Y-128681081D01*
X88681081Y-128843338D01*
X88541392Y-129025382D01*
X88426657Y-129224109D01*
X88426650Y-129224123D01*
X88338842Y-129436112D01*
X88279453Y-129657759D01*
X88279451Y-129657770D01*
X88249500Y-129885258D01*
X88249500Y-130114741D01*
X86000000Y-130114741D01*
X86000000Y-121650001D01*
X88524500Y-121650001D01*
X88524501Y-121650018D01*
X88535000Y-121752796D01*
X88535001Y-121752799D01*
X88567034Y-121849467D01*
X88590186Y-121919334D01*
X88682288Y-122068656D01*
X88806344Y-122192712D01*
X88955666Y-122284814D01*
X89122203Y-122339999D01*
X89224991Y-122350500D01*
X90775008Y-122350499D01*
X90877797Y-122339999D01*
X91044334Y-122284814D01*
X91193656Y-122192712D01*
X91317712Y-122068656D01*
X91409814Y-121919334D01*
X91464999Y-121752797D01*
X91475500Y-121650009D01*
X91475499Y-120460450D01*
X91495184Y-120393412D01*
X91511813Y-120372775D01*
X95398729Y-116485860D01*
X95398733Y-116485858D01*
X95485858Y-116398733D01*
X95554311Y-116296286D01*
X95554312Y-116296285D01*
X95554313Y-116296282D01*
X95554315Y-116296279D01*
X95570639Y-116256868D01*
X95601463Y-116182451D01*
X95625500Y-116061607D01*
X95625500Y-115938393D01*
X95625500Y-98938394D01*
X95625500Y-91690452D01*
X95645185Y-91623413D01*
X95661819Y-91602771D01*
X96222772Y-91041819D01*
X96284095Y-91008334D01*
X96310453Y-91005500D01*
X98144395Y-91005500D01*
X98211434Y-91025185D01*
X98257189Y-91077989D01*
X98267133Y-91147147D01*
X98251785Y-91191495D01*
X98249857Y-91194834D01*
X98156279Y-91395513D01*
X98156275Y-91395524D01*
X98098965Y-91609407D01*
X98098964Y-91609414D01*
X98079666Y-91829998D01*
X98079666Y-91830001D01*
X98098964Y-92050585D01*
X98098965Y-92050592D01*
X98156275Y-92264475D01*
X98156279Y-92264486D01*
X98228486Y-92419334D01*
X98249858Y-92465167D01*
X98376868Y-92646555D01*
X98533445Y-92803132D01*
X98714833Y-92930142D01*
X98776828Y-92959050D01*
X98838091Y-92987618D01*
X98890531Y-93033790D01*
X98909683Y-93100983D01*
X98889467Y-93167865D01*
X98838091Y-93212382D01*
X98714836Y-93269856D01*
X98714834Y-93269857D01*
X98533444Y-93396868D01*
X98376868Y-93553444D01*
X98249857Y-93734834D01*
X98249856Y-93734836D01*
X98156279Y-93935513D01*
X98156275Y-93935524D01*
X98098965Y-94149407D01*
X98098964Y-94149414D01*
X98079666Y-94369998D01*
X98079666Y-94370001D01*
X98098964Y-94590585D01*
X98098965Y-94590592D01*
X98156275Y-94804475D01*
X98156279Y-94804486D01*
X98249856Y-95005163D01*
X98249858Y-95005167D01*
X98376868Y-95186555D01*
X98533445Y-95343132D01*
X98714833Y-95470142D01*
X98776828Y-95499050D01*
X98838091Y-95527618D01*
X98890531Y-95573790D01*
X98909683Y-95640983D01*
X98889467Y-95707865D01*
X98838091Y-95752382D01*
X98714836Y-95809856D01*
X98714834Y-95809857D01*
X98533444Y-95936868D01*
X98376868Y-96093444D01*
X98249857Y-96274834D01*
X98249856Y-96274836D01*
X98156279Y-96475513D01*
X98156275Y-96475524D01*
X98098965Y-96689407D01*
X98098964Y-96689414D01*
X98079666Y-96909998D01*
X98079666Y-96910001D01*
X98098964Y-97130585D01*
X98098965Y-97130592D01*
X98156275Y-97344475D01*
X98156279Y-97344486D01*
X98228263Y-97498856D01*
X98249858Y-97545167D01*
X98376868Y-97726555D01*
X98533445Y-97883132D01*
X98714833Y-98010142D01*
X98838682Y-98067893D01*
X98891122Y-98114065D01*
X98910274Y-98181258D01*
X98890059Y-98248139D01*
X98838683Y-98292657D01*
X98715084Y-98350293D01*
X98649657Y-98396104D01*
X99212424Y-98958871D01*
X99153147Y-98974755D01*
X99036853Y-99041898D01*
X98941898Y-99136853D01*
X98874755Y-99253147D01*
X98858871Y-99312424D01*
X98296104Y-98749657D01*
X98250293Y-98815084D01*
X98156749Y-99015690D01*
X98156745Y-99015699D01*
X98099461Y-99229490D01*
X98099459Y-99229500D01*
X98080168Y-99449999D01*
X98080168Y-99450000D01*
X98099459Y-99670499D01*
X98099461Y-99670509D01*
X98156745Y-99884300D01*
X98156749Y-99884309D01*
X98250295Y-100084919D01*
X98296103Y-100150341D01*
X98296105Y-100150342D01*
X98858871Y-99587575D01*
X98874755Y-99646853D01*
X98941898Y-99763147D01*
X99036853Y-99858102D01*
X99153147Y-99925245D01*
X99212424Y-99941128D01*
X98649656Y-100503894D01*
X98715083Y-100549706D01*
X98715085Y-100549707D01*
X98838683Y-100607342D01*
X98891122Y-100653514D01*
X98910274Y-100720708D01*
X98890058Y-100787589D01*
X98838683Y-100832106D01*
X98714833Y-100889857D01*
X98533444Y-101016868D01*
X98376868Y-101173444D01*
X98249857Y-101354834D01*
X98249856Y-101354836D01*
X98156279Y-101555513D01*
X98156275Y-101555524D01*
X98098965Y-101769407D01*
X98098964Y-101769414D01*
X98079666Y-101989998D01*
X98079666Y-101990001D01*
X98098964Y-102210585D01*
X98098965Y-102210592D01*
X98156275Y-102424475D01*
X98156279Y-102424486D01*
X98199066Y-102516243D01*
X98249858Y-102625167D01*
X98376868Y-102806555D01*
X98533445Y-102963132D01*
X98714833Y-103090142D01*
X98776828Y-103119050D01*
X98838091Y-103147618D01*
X98890531Y-103193790D01*
X98909683Y-103260983D01*
X98889467Y-103327865D01*
X98838091Y-103372382D01*
X98714836Y-103429856D01*
X98714834Y-103429857D01*
X98533444Y-103556868D01*
X98376868Y-103713444D01*
X98249857Y-103894834D01*
X98249856Y-103894836D01*
X98156279Y-104095513D01*
X98156275Y-104095524D01*
X98098965Y-104309407D01*
X98098964Y-104309414D01*
X98079666Y-104529998D01*
X98079666Y-104530001D01*
X98098964Y-104750585D01*
X98098965Y-104750592D01*
X98156275Y-104964475D01*
X98156279Y-104964486D01*
X98197460Y-105052799D01*
X98249858Y-105165167D01*
X98376868Y-105346555D01*
X98533445Y-105503132D01*
X98714833Y-105630142D01*
X98776828Y-105659050D01*
X98838091Y-105687618D01*
X98890531Y-105733790D01*
X98909683Y-105800983D01*
X98889467Y-105867865D01*
X98838091Y-105912382D01*
X98714836Y-105969856D01*
X98714834Y-105969857D01*
X98533444Y-106096868D01*
X98376868Y-106253444D01*
X98249857Y-106434834D01*
X98249856Y-106434836D01*
X98156279Y-106635513D01*
X98156275Y-106635524D01*
X98098965Y-106849407D01*
X98098964Y-106849414D01*
X98079666Y-107069998D01*
X98079666Y-107070001D01*
X98098964Y-107290585D01*
X98098965Y-107290592D01*
X98156275Y-107504475D01*
X98156279Y-107504486D01*
X98249856Y-107705163D01*
X98249858Y-107705167D01*
X98376868Y-107886555D01*
X98533445Y-108043132D01*
X98714833Y-108170142D01*
X98776828Y-108199050D01*
X98838091Y-108227618D01*
X98890531Y-108273790D01*
X98909683Y-108340983D01*
X98889467Y-108407865D01*
X98838091Y-108452382D01*
X98714836Y-108509856D01*
X98714834Y-108509857D01*
X98533444Y-108636868D01*
X98376868Y-108793444D01*
X98249857Y-108974834D01*
X98249856Y-108974836D01*
X98156279Y-109175513D01*
X98156275Y-109175524D01*
X98098965Y-109389407D01*
X98098964Y-109389414D01*
X98079666Y-109609998D01*
X98079666Y-109610001D01*
X98098964Y-109830585D01*
X98098965Y-109830592D01*
X98156275Y-110044475D01*
X98156279Y-110044486D01*
X98219218Y-110179459D01*
X98249858Y-110245167D01*
X98376868Y-110426555D01*
X98533445Y-110583132D01*
X98714833Y-110710142D01*
X98776828Y-110739050D01*
X98838091Y-110767618D01*
X98890531Y-110813790D01*
X98909683Y-110880983D01*
X98889467Y-110947865D01*
X98838091Y-110992382D01*
X98714836Y-111049856D01*
X98714834Y-111049857D01*
X98533444Y-111176868D01*
X98376868Y-111333444D01*
X98249857Y-111514834D01*
X98249856Y-111514836D01*
X98156279Y-111715513D01*
X98156275Y-111715524D01*
X98098965Y-111929407D01*
X98098964Y-111929414D01*
X98079666Y-112149998D01*
X98079666Y-112150001D01*
X98098964Y-112370585D01*
X98098965Y-112370592D01*
X98156275Y-112584475D01*
X98156279Y-112584486D01*
X98249856Y-112785163D01*
X98249858Y-112785167D01*
X98376868Y-112966555D01*
X98533445Y-113123132D01*
X98714833Y-113250142D01*
X98776828Y-113279050D01*
X98838091Y-113307618D01*
X98890531Y-113353790D01*
X98909683Y-113420983D01*
X98889467Y-113487865D01*
X98838091Y-113532382D01*
X98714836Y-113589856D01*
X98714834Y-113589857D01*
X98533444Y-113716868D01*
X98376868Y-113873444D01*
X98249857Y-114054834D01*
X98249856Y-114054836D01*
X98156279Y-114255513D01*
X98156275Y-114255524D01*
X98098965Y-114469407D01*
X98098964Y-114469414D01*
X98079666Y-114689998D01*
X98079666Y-114690001D01*
X98098964Y-114910585D01*
X98098965Y-114910592D01*
X98156275Y-115124475D01*
X98156279Y-115124486D01*
X98213504Y-115247205D01*
X98249858Y-115325167D01*
X98376868Y-115506555D01*
X98533445Y-115663132D01*
X98714833Y-115790142D01*
X98771695Y-115816657D01*
X98838091Y-115847618D01*
X98890531Y-115893790D01*
X98909683Y-115960983D01*
X98889467Y-116027865D01*
X98838091Y-116072382D01*
X98714836Y-116129856D01*
X98714834Y-116129857D01*
X98533444Y-116256868D01*
X98376868Y-116413444D01*
X98249857Y-116594834D01*
X98249856Y-116594836D01*
X98156279Y-116795513D01*
X98156275Y-116795524D01*
X98098965Y-117009407D01*
X98098964Y-117009414D01*
X98079666Y-117229998D01*
X98079666Y-117230001D01*
X98098964Y-117450585D01*
X98098965Y-117450592D01*
X98156275Y-117664475D01*
X98156279Y-117664486D01*
X98249856Y-117865163D01*
X98249858Y-117865167D01*
X98376868Y-118046555D01*
X98533445Y-118203132D01*
X98714833Y-118330142D01*
X98776828Y-118359050D01*
X98838091Y-118387618D01*
X98890531Y-118433790D01*
X98909683Y-118500983D01*
X98889467Y-118567865D01*
X98838091Y-118612382D01*
X98714836Y-118669856D01*
X98714834Y-118669857D01*
X98533444Y-118796868D01*
X98376868Y-118953444D01*
X98249857Y-119134834D01*
X98249856Y-119134836D01*
X98156279Y-119335513D01*
X98156275Y-119335524D01*
X98098965Y-119549407D01*
X98098964Y-119549414D01*
X98079666Y-119769998D01*
X98079666Y-119770001D01*
X98098964Y-119990585D01*
X98098965Y-119990592D01*
X98156275Y-120204475D01*
X98156279Y-120204486D01*
X98249856Y-120405163D01*
X98249858Y-120405167D01*
X98376868Y-120586555D01*
X98533445Y-120743132D01*
X98714833Y-120870142D01*
X98776828Y-120899050D01*
X98838091Y-120927618D01*
X98890531Y-120973790D01*
X98909683Y-121040983D01*
X98889467Y-121107865D01*
X98838091Y-121152382D01*
X98714836Y-121209856D01*
X98714834Y-121209857D01*
X98533444Y-121336868D01*
X98376868Y-121493444D01*
X98249857Y-121674834D01*
X98249856Y-121674836D01*
X98156279Y-121875513D01*
X98156275Y-121875524D01*
X98098965Y-122089407D01*
X98098964Y-122089414D01*
X98079666Y-122309998D01*
X98079666Y-122310001D01*
X98098964Y-122530585D01*
X98098965Y-122530592D01*
X98156275Y-122744475D01*
X98156279Y-122744486D01*
X98249856Y-122945163D01*
X98249858Y-122945167D01*
X98376868Y-123126555D01*
X98533445Y-123283132D01*
X98714833Y-123410142D01*
X98835572Y-123466443D01*
X98915513Y-123503720D01*
X98915515Y-123503720D01*
X98915520Y-123503723D01*
X99129409Y-123561035D01*
X99286974Y-123574820D01*
X99349998Y-123580334D01*
X99350000Y-123580334D01*
X99350002Y-123580334D01*
X99405147Y-123575509D01*
X99570591Y-123561035D01*
X99784480Y-123503723D01*
X99985167Y-123410142D01*
X100166555Y-123283132D01*
X100323132Y-123126555D01*
X100450142Y-122945167D01*
X100507618Y-122821907D01*
X100553790Y-122769468D01*
X100620983Y-122750316D01*
X100687864Y-122770531D01*
X100732381Y-122821907D01*
X100789858Y-122945167D01*
X100916868Y-123126555D01*
X101073445Y-123283132D01*
X101254833Y-123410142D01*
X101375572Y-123466443D01*
X101455513Y-123503720D01*
X101455515Y-123503720D01*
X101455520Y-123503723D01*
X101669409Y-123561035D01*
X101826974Y-123574820D01*
X101889998Y-123580334D01*
X101890000Y-123580334D01*
X101890002Y-123580334D01*
X101945147Y-123575509D01*
X102110591Y-123561035D01*
X102324480Y-123503723D01*
X102525167Y-123410142D01*
X102706555Y-123283132D01*
X102863132Y-123126555D01*
X102990142Y-122945167D01*
X103083723Y-122744480D01*
X103141035Y-122530591D01*
X103160334Y-122310000D01*
X103141035Y-122089409D01*
X103083723Y-121875520D01*
X103071574Y-121849467D01*
X102990143Y-121674836D01*
X102990142Y-121674834D01*
X102990142Y-121674833D01*
X102863132Y-121493445D01*
X102706555Y-121336868D01*
X102525167Y-121209858D01*
X102401907Y-121152381D01*
X102349468Y-121106210D01*
X102330316Y-121039017D01*
X102350531Y-120972136D01*
X102401908Y-120927618D01*
X102525167Y-120870142D01*
X102706555Y-120743132D01*
X102863132Y-120586555D01*
X102990142Y-120405167D01*
X103083723Y-120204480D01*
X103141035Y-119990591D01*
X103160334Y-119770000D01*
X103158720Y-119751557D01*
X103154675Y-119705320D01*
X103141035Y-119549409D01*
X103083723Y-119335520D01*
X103071574Y-119309467D01*
X102990143Y-119134836D01*
X102990142Y-119134834D01*
X102990142Y-119134833D01*
X102863132Y-118953445D01*
X102706555Y-118796868D01*
X102525167Y-118669858D01*
X102401907Y-118612381D01*
X102349468Y-118566210D01*
X102330316Y-118499017D01*
X102350531Y-118432136D01*
X102401908Y-118387618D01*
X102525167Y-118330142D01*
X102706555Y-118203132D01*
X102863132Y-118046555D01*
X102990142Y-117865167D01*
X103083723Y-117664480D01*
X103141035Y-117450591D01*
X103157577Y-117261513D01*
X103160334Y-117230001D01*
X103160334Y-117229998D01*
X103146218Y-117068656D01*
X103141035Y-117009409D01*
X103083723Y-116795520D01*
X103071574Y-116769467D01*
X103004442Y-116625500D01*
X102990142Y-116594833D01*
X102863132Y-116413445D01*
X102706555Y-116256868D01*
X102525167Y-116129858D01*
X102401907Y-116072381D01*
X102349468Y-116026210D01*
X102330316Y-115959017D01*
X102350531Y-115892136D01*
X102401908Y-115847618D01*
X102402500Y-115847342D01*
X102525167Y-115790142D01*
X102706555Y-115663132D01*
X102863132Y-115506555D01*
X102990142Y-115325167D01*
X103083723Y-115124480D01*
X103141035Y-114910591D01*
X103160334Y-114690000D01*
X103157709Y-114660001D01*
X103154460Y-114622857D01*
X103141035Y-114469409D01*
X103083723Y-114255520D01*
X103071574Y-114229467D01*
X103046443Y-114175572D01*
X102990142Y-114054833D01*
X102863132Y-113873445D01*
X102706555Y-113716868D01*
X102525167Y-113589858D01*
X102401907Y-113532381D01*
X102349468Y-113486210D01*
X102330316Y-113419017D01*
X102350531Y-113352136D01*
X102401908Y-113307618D01*
X102525167Y-113250142D01*
X102706555Y-113123132D01*
X102863132Y-112966555D01*
X102990142Y-112785167D01*
X103083723Y-112584480D01*
X103141035Y-112370591D01*
X103160334Y-112150000D01*
X103141035Y-111929409D01*
X103083723Y-111715520D01*
X103071574Y-111689467D01*
X102990143Y-111514836D01*
X102990142Y-111514834D01*
X102990142Y-111514833D01*
X102863132Y-111333445D01*
X102706555Y-111176868D01*
X102525167Y-111049858D01*
X102401907Y-110992381D01*
X102349468Y-110946210D01*
X102330316Y-110879017D01*
X102350531Y-110812136D01*
X102401908Y-110767618D01*
X102525167Y-110710142D01*
X102706555Y-110583132D01*
X102863132Y-110426555D01*
X102990142Y-110245167D01*
X103083723Y-110044480D01*
X103141035Y-109830591D01*
X103160334Y-109610000D01*
X103141035Y-109389409D01*
X103083723Y-109175520D01*
X103071574Y-109149467D01*
X103046443Y-109095572D01*
X102990142Y-108974833D01*
X102863132Y-108793445D01*
X102706555Y-108636868D01*
X102525167Y-108509858D01*
X102401907Y-108452381D01*
X102349468Y-108406210D01*
X102330316Y-108339017D01*
X102350531Y-108272136D01*
X102401908Y-108227618D01*
X102525167Y-108170142D01*
X102706555Y-108043132D01*
X102863132Y-107886555D01*
X102990142Y-107705167D01*
X103083723Y-107504480D01*
X103141035Y-107290591D01*
X103160334Y-107070000D01*
X103141035Y-106849409D01*
X103083723Y-106635520D01*
X103071574Y-106609467D01*
X102990143Y-106434836D01*
X102990142Y-106434834D01*
X102990142Y-106434833D01*
X102863132Y-106253445D01*
X102706555Y-106096868D01*
X102525167Y-105969858D01*
X102401907Y-105912381D01*
X102349468Y-105866210D01*
X102330316Y-105799017D01*
X102350531Y-105732136D01*
X102401908Y-105687618D01*
X102525167Y-105630142D01*
X102706555Y-105503132D01*
X102863132Y-105346555D01*
X102990142Y-105165167D01*
X103083723Y-104964480D01*
X103141035Y-104750591D01*
X103160334Y-104530000D01*
X103141035Y-104309409D01*
X103083723Y-104095520D01*
X103071574Y-104069467D01*
X102990143Y-103894836D01*
X102990142Y-103894834D01*
X102990142Y-103894833D01*
X102863132Y-103713445D01*
X102706555Y-103556868D01*
X102525167Y-103429858D01*
X102525163Y-103429856D01*
X102401317Y-103372106D01*
X102348877Y-103325934D01*
X102329725Y-103258741D01*
X102349941Y-103191859D01*
X102401317Y-103147342D01*
X102524912Y-103089708D01*
X102524914Y-103089707D01*
X102590342Y-103043894D01*
X102027575Y-102481127D01*
X102086853Y-102465245D01*
X102203147Y-102398102D01*
X102298102Y-102303147D01*
X102365245Y-102186853D01*
X102381128Y-102127575D01*
X102943894Y-102690342D01*
X102989706Y-102624915D01*
X103083250Y-102424309D01*
X103083254Y-102424300D01*
X103140538Y-102210509D01*
X103140540Y-102210499D01*
X103159832Y-101990000D01*
X103159832Y-101989999D01*
X103140540Y-101769500D01*
X103140538Y-101769490D01*
X103083254Y-101555699D01*
X103083250Y-101555690D01*
X102989707Y-101355085D01*
X102989706Y-101355083D01*
X102943894Y-101289657D01*
X102943894Y-101289656D01*
X102381127Y-101852423D01*
X102365245Y-101793147D01*
X102298102Y-101676853D01*
X102203147Y-101581898D01*
X102086853Y-101514755D01*
X102027575Y-101498872D01*
X102590342Y-100936105D01*
X102590341Y-100936103D01*
X102524918Y-100890294D01*
X102524916Y-100890293D01*
X102400725Y-100832382D01*
X102348285Y-100786210D01*
X102329133Y-100719017D01*
X102349349Y-100652135D01*
X102400725Y-100607618D01*
X102524912Y-100549708D01*
X102524914Y-100549707D01*
X102590342Y-100503894D01*
X102027575Y-99941127D01*
X102086853Y-99925245D01*
X102203147Y-99858102D01*
X102298102Y-99763147D01*
X102365245Y-99646853D01*
X102381128Y-99587575D01*
X102943894Y-100150342D01*
X102989706Y-100084915D01*
X103083250Y-99884309D01*
X103083254Y-99884300D01*
X103140538Y-99670509D01*
X103140540Y-99670499D01*
X103159832Y-99450000D01*
X103159832Y-99449999D01*
X103140540Y-99229500D01*
X103140538Y-99229490D01*
X103083254Y-99015699D01*
X103083250Y-99015690D01*
X102989707Y-98815085D01*
X102989706Y-98815083D01*
X102943894Y-98749657D01*
X102943894Y-98749656D01*
X102381127Y-99312423D01*
X102365245Y-99253147D01*
X102298102Y-99136853D01*
X102203147Y-99041898D01*
X102086853Y-98974755D01*
X102027575Y-98958872D01*
X102590342Y-98396105D01*
X102590341Y-98396103D01*
X102524919Y-98350295D01*
X102401316Y-98292657D01*
X102348877Y-98246484D01*
X102329725Y-98179291D01*
X102349941Y-98112410D01*
X102401312Y-98067895D01*
X102525167Y-98010142D01*
X102706555Y-97883132D01*
X102863132Y-97726555D01*
X102990142Y-97545167D01*
X103083723Y-97344480D01*
X103141035Y-97130591D01*
X103160334Y-96910000D01*
X103141035Y-96689409D01*
X103083723Y-96475520D01*
X102990142Y-96274833D01*
X102863132Y-96093445D01*
X102706555Y-95936868D01*
X102525167Y-95809858D01*
X102401907Y-95752381D01*
X102349468Y-95706210D01*
X102330316Y-95639017D01*
X102350531Y-95572136D01*
X102401908Y-95527618D01*
X102525167Y-95470142D01*
X102706555Y-95343132D01*
X102863132Y-95186555D01*
X102990142Y-95005167D01*
X103083723Y-94804480D01*
X103141035Y-94590591D01*
X103160334Y-94370000D01*
X103141035Y-94149409D01*
X103083723Y-93935520D01*
X103071574Y-93909467D01*
X103016885Y-93792184D01*
X102990142Y-93734833D01*
X102863132Y-93553445D01*
X102706555Y-93396868D01*
X102525167Y-93269858D01*
X102401907Y-93212381D01*
X102349468Y-93166210D01*
X102330316Y-93099017D01*
X102350531Y-93032136D01*
X102401908Y-92987618D01*
X102525167Y-92930142D01*
X102706555Y-92803132D01*
X102863132Y-92646555D01*
X102990142Y-92465167D01*
X103083723Y-92264480D01*
X103141035Y-92050591D01*
X103160334Y-91830000D01*
X103141035Y-91609409D01*
X103083723Y-91395520D01*
X103071574Y-91369467D01*
X102991408Y-91197548D01*
X102990142Y-91194833D01*
X102863132Y-91013445D01*
X102706555Y-90856868D01*
X102525167Y-90729858D01*
X102493702Y-90715186D01*
X102401908Y-90672382D01*
X102349468Y-90626210D01*
X102330316Y-90559017D01*
X102350531Y-90492136D01*
X102401908Y-90447618D01*
X102436812Y-90431342D01*
X102525167Y-90390142D01*
X102706555Y-90263132D01*
X102863132Y-90106555D01*
X102990142Y-89925167D01*
X103083723Y-89724480D01*
X103141035Y-89510591D01*
X103160334Y-89290000D01*
X103141035Y-89069409D01*
X103083723Y-88855520D01*
X103071574Y-88829467D01*
X103046443Y-88775572D01*
X102990142Y-88654833D01*
X102863132Y-88473445D01*
X102706555Y-88316868D01*
X102525167Y-88189858D01*
X102401907Y-88132381D01*
X102349468Y-88086210D01*
X102330316Y-88019017D01*
X102350531Y-87952136D01*
X102401908Y-87907618D01*
X102402500Y-87907342D01*
X102525167Y-87850142D01*
X102706555Y-87723132D01*
X102863132Y-87566555D01*
X102990142Y-87385167D01*
X103083723Y-87184480D01*
X103141035Y-86970591D01*
X103160334Y-86750000D01*
X103141035Y-86529409D01*
X103083723Y-86315520D01*
X103071574Y-86289467D01*
X103033746Y-86208343D01*
X102990142Y-86114833D01*
X102863132Y-85933445D01*
X102706555Y-85776868D01*
X102525167Y-85649858D01*
X102462294Y-85620540D01*
X102401317Y-85592106D01*
X102348877Y-85545934D01*
X102329725Y-85478741D01*
X102349941Y-85411859D01*
X102401317Y-85367342D01*
X102524912Y-85309708D01*
X102524914Y-85309707D01*
X102590342Y-85263894D01*
X102027575Y-84701127D01*
X102086853Y-84685245D01*
X102203147Y-84618102D01*
X102298102Y-84523147D01*
X102365245Y-84406853D01*
X102381128Y-84347575D01*
X102943894Y-84910342D01*
X102989706Y-84844915D01*
X103083250Y-84644309D01*
X103083254Y-84644300D01*
X103140538Y-84430509D01*
X103140540Y-84430499D01*
X103159832Y-84210000D01*
X103159832Y-84209999D01*
X103140540Y-83989500D01*
X103140538Y-83989490D01*
X103083254Y-83775699D01*
X103083250Y-83775690D01*
X102989707Y-83575085D01*
X102989706Y-83575083D01*
X102943894Y-83509657D01*
X102943894Y-83509656D01*
X102381127Y-84072423D01*
X102365245Y-84013147D01*
X102298102Y-83896853D01*
X102203147Y-83801898D01*
X102086853Y-83734755D01*
X102027575Y-83718872D01*
X102590342Y-83156105D01*
X102590341Y-83156103D01*
X102524919Y-83110295D01*
X102401316Y-83052657D01*
X102348877Y-83006484D01*
X102329725Y-82939291D01*
X102349941Y-82872410D01*
X102401312Y-82827895D01*
X102525167Y-82770142D01*
X102706555Y-82643132D01*
X102863132Y-82486555D01*
X102990142Y-82305167D01*
X103083723Y-82104480D01*
X103141035Y-81890591D01*
X103160334Y-81670000D01*
X103141035Y-81449409D01*
X103083723Y-81235520D01*
X103071574Y-81209467D01*
X103014965Y-81088067D01*
X102990142Y-81034833D01*
X102863132Y-80853445D01*
X102706555Y-80696868D01*
X102525167Y-80569858D01*
X102401907Y-80512381D01*
X102349468Y-80466210D01*
X102330316Y-80399017D01*
X102350531Y-80332136D01*
X102401908Y-80287618D01*
X102525167Y-80230142D01*
X102706555Y-80103132D01*
X102863132Y-79946555D01*
X102990142Y-79765167D01*
X103083723Y-79564480D01*
X103141035Y-79350591D01*
X103160334Y-79130000D01*
X103141035Y-78909409D01*
X103083723Y-78695520D01*
X103071574Y-78669467D01*
X102990143Y-78494836D01*
X102990142Y-78494834D01*
X102990142Y-78494833D01*
X102863132Y-78313445D01*
X102706555Y-78156868D01*
X102525167Y-78029858D01*
X102517959Y-78026497D01*
X102401908Y-77972382D01*
X102349468Y-77926210D01*
X102330316Y-77859017D01*
X102350531Y-77792136D01*
X102401908Y-77747618D01*
X102525167Y-77690142D01*
X102706555Y-77563132D01*
X102863132Y-77406555D01*
X102990142Y-77225167D01*
X103083723Y-77024480D01*
X103141035Y-76810591D01*
X103160334Y-76590000D01*
X103141035Y-76369409D01*
X103083723Y-76155520D01*
X102990142Y-75954833D01*
X102863132Y-75773445D01*
X102706555Y-75616868D01*
X102525167Y-75489858D01*
X102525163Y-75489856D01*
X102324486Y-75396279D01*
X102324475Y-75396275D01*
X102110592Y-75338965D01*
X102110585Y-75338964D01*
X101890002Y-75319666D01*
X101889998Y-75319666D01*
X101669414Y-75338964D01*
X101669407Y-75338965D01*
X101455524Y-75396275D01*
X101455513Y-75396279D01*
X101254836Y-75489856D01*
X101254834Y-75489857D01*
X101073444Y-75616868D01*
X100916868Y-75773444D01*
X100841074Y-75881690D01*
X100786497Y-75925315D01*
X100716998Y-75932507D01*
X100654644Y-75900985D01*
X100619230Y-75840755D01*
X100615499Y-75810566D01*
X100615499Y-75777129D01*
X100615498Y-75777123D01*
X100615497Y-75777116D01*
X100609091Y-75717517D01*
X100571551Y-75616868D01*
X100558797Y-75582671D01*
X100558793Y-75582664D01*
X100472547Y-75467455D01*
X100472544Y-75467452D01*
X100357335Y-75381206D01*
X100357328Y-75381202D01*
X100222482Y-75330908D01*
X100222483Y-75330908D01*
X100162883Y-75324501D01*
X100162881Y-75324500D01*
X100162873Y-75324500D01*
X100162864Y-75324500D01*
X98537129Y-75324500D01*
X98537123Y-75324501D01*
X98477516Y-75330908D01*
X98342671Y-75381202D01*
X98342664Y-75381206D01*
X98227455Y-75467452D01*
X98227452Y-75467455D01*
X98141206Y-75582664D01*
X98141202Y-75582671D01*
X98090908Y-75717517D01*
X98084896Y-75773444D01*
X98084501Y-75777123D01*
X98084500Y-75777135D01*
X98084500Y-77402870D01*
X98084501Y-77402876D01*
X98090908Y-77462483D01*
X98141202Y-77597328D01*
X98141206Y-77597335D01*
X98227452Y-77712544D01*
X98227455Y-77712547D01*
X98342664Y-77798793D01*
X98342671Y-77798797D01*
X98477517Y-77849091D01*
X98477516Y-77849091D01*
X98484444Y-77849835D01*
X98537127Y-77855500D01*
X98570564Y-77855499D01*
X98637601Y-77875182D01*
X98683357Y-77927984D01*
X98693302Y-77997143D01*
X98664279Y-78060699D01*
X98641689Y-78081073D01*
X98533447Y-78156866D01*
X98533441Y-78156871D01*
X98376868Y-78313444D01*
X98249857Y-78494834D01*
X98249856Y-78494836D01*
X98156279Y-78695513D01*
X98156275Y-78695524D01*
X98098965Y-78909407D01*
X98098964Y-78909414D01*
X98079666Y-79129998D01*
X98079666Y-79130001D01*
X98098964Y-79350585D01*
X98098965Y-79350592D01*
X98156275Y-79564475D01*
X98156279Y-79564486D01*
X98249856Y-79765163D01*
X98249858Y-79765167D01*
X98376868Y-79946555D01*
X98533445Y-80103132D01*
X98714833Y-80230142D01*
X98776828Y-80259050D01*
X98838091Y-80287618D01*
X98890531Y-80333790D01*
X98909683Y-80400983D01*
X98889467Y-80467865D01*
X98838091Y-80512382D01*
X98714836Y-80569856D01*
X98714834Y-80569857D01*
X98533444Y-80696868D01*
X98376868Y-80853444D01*
X98249857Y-81034834D01*
X98249856Y-81034836D01*
X98156279Y-81235513D01*
X98156275Y-81235524D01*
X98098965Y-81449407D01*
X98098964Y-81449414D01*
X98079666Y-81669998D01*
X98079666Y-81670001D01*
X98098964Y-81890585D01*
X98098965Y-81890592D01*
X98156275Y-82104475D01*
X98156279Y-82104486D01*
X98245350Y-82295500D01*
X98249858Y-82305167D01*
X98376868Y-82486555D01*
X98533445Y-82643132D01*
X98714833Y-82770142D01*
X98776828Y-82799050D01*
X98838091Y-82827618D01*
X98890531Y-82873790D01*
X98909683Y-82940983D01*
X98889467Y-83007865D01*
X98838091Y-83052382D01*
X98714836Y-83109856D01*
X98714834Y-83109857D01*
X98533444Y-83236868D01*
X98376868Y-83393444D01*
X98249857Y-83574834D01*
X98249856Y-83574836D01*
X98156279Y-83775513D01*
X98156275Y-83775524D01*
X98098965Y-83989407D01*
X98098964Y-83989414D01*
X98079666Y-84209998D01*
X98079666Y-84210001D01*
X98098964Y-84430585D01*
X98098965Y-84430592D01*
X98156275Y-84644475D01*
X98156279Y-84644486D01*
X98249740Y-84844915D01*
X98249858Y-84845167D01*
X98376868Y-85026555D01*
X98533445Y-85183132D01*
X98714833Y-85310142D01*
X98776828Y-85339050D01*
X98838091Y-85367618D01*
X98890531Y-85413790D01*
X98909683Y-85480983D01*
X98889467Y-85547865D01*
X98838091Y-85592382D01*
X98714836Y-85649856D01*
X98714834Y-85649857D01*
X98533444Y-85776868D01*
X98376868Y-85933444D01*
X98249857Y-86114834D01*
X98249856Y-86114836D01*
X98156279Y-86315513D01*
X98156275Y-86315524D01*
X98098965Y-86529407D01*
X98098964Y-86529414D01*
X98079666Y-86749998D01*
X98079666Y-86750000D01*
X98098964Y-86970585D01*
X98098965Y-86970592D01*
X98156275Y-87184475D01*
X98156279Y-87184486D01*
X98247196Y-87379459D01*
X98249858Y-87385167D01*
X98376868Y-87566555D01*
X98533445Y-87723132D01*
X98714833Y-87850142D01*
X98776828Y-87879050D01*
X98838091Y-87907618D01*
X98890531Y-87953790D01*
X98909683Y-88020983D01*
X98889467Y-88087865D01*
X98838091Y-88132382D01*
X98714836Y-88189856D01*
X98714834Y-88189857D01*
X98533444Y-88316868D01*
X98376868Y-88473444D01*
X98249857Y-88654834D01*
X98249856Y-88654836D01*
X98156279Y-88855513D01*
X98156275Y-88855524D01*
X98098965Y-89069407D01*
X98098964Y-89069414D01*
X98079666Y-89289998D01*
X98079666Y-89290001D01*
X98098964Y-89510585D01*
X98098966Y-89510596D01*
X98122495Y-89598407D01*
X98120832Y-89668257D01*
X98081669Y-89726119D01*
X98017441Y-89753623D01*
X98002720Y-89754500D01*
X96067741Y-89754500D01*
X96067721Y-89754499D01*
X96061607Y-89754499D01*
X95938394Y-89754499D01*
X95932280Y-89754499D01*
X95932260Y-89754500D01*
X91458614Y-89754500D01*
X91391575Y-89734815D01*
X91345820Y-89682011D01*
X91335876Y-89612853D01*
X91348129Y-89574205D01*
X91376557Y-89518412D01*
X91442246Y-89316243D01*
X91475500Y-89106287D01*
X91475500Y-88893713D01*
X91442246Y-88683757D01*
X91376557Y-88481588D01*
X91280051Y-88292184D01*
X91280049Y-88292181D01*
X91280048Y-88292179D01*
X91155109Y-88120213D01*
X91004790Y-87969894D01*
X91004785Y-87969890D01*
X90839781Y-87850008D01*
X90797115Y-87794678D01*
X90791136Y-87725065D01*
X90823741Y-87663270D01*
X90839781Y-87649371D01*
X91004466Y-87529721D01*
X91154723Y-87379464D01*
X91154727Y-87379459D01*
X91279620Y-87207557D01*
X91376095Y-87018217D01*
X91441757Y-86816129D01*
X91441757Y-86816126D01*
X91452231Y-86750000D01*
X90404146Y-86750000D01*
X90442630Y-86683343D01*
X90475000Y-86562535D01*
X90475000Y-86437465D01*
X90442630Y-86316657D01*
X90404146Y-86250000D01*
X91452231Y-86250000D01*
X91441757Y-86183873D01*
X91441757Y-86183870D01*
X91376095Y-85981782D01*
X91279620Y-85792442D01*
X91154727Y-85620540D01*
X91154723Y-85620535D01*
X91004464Y-85470276D01*
X91004459Y-85470272D01*
X90832557Y-85345379D01*
X90643217Y-85248904D01*
X90441128Y-85183242D01*
X90250000Y-85152969D01*
X90250000Y-86095854D01*
X90183343Y-86057370D01*
X90062535Y-86025000D01*
X89937465Y-86025000D01*
X89816657Y-86057370D01*
X89750000Y-86095854D01*
X89750000Y-85152969D01*
X89558872Y-85183242D01*
X89558869Y-85183242D01*
X89356782Y-85248904D01*
X89167442Y-85345379D01*
X88995540Y-85470272D01*
X88995535Y-85470276D01*
X88845276Y-85620535D01*
X88845272Y-85620540D01*
X88720379Y-85792442D01*
X88623904Y-85981782D01*
X88558242Y-86183870D01*
X88558242Y-86183873D01*
X88547769Y-86250000D01*
X89595854Y-86250000D01*
X89557370Y-86316657D01*
X89525000Y-86437465D01*
X89525000Y-86562535D01*
X89557370Y-86683343D01*
X89595854Y-86750000D01*
X88547769Y-86750000D01*
X88558242Y-86816126D01*
X88558242Y-86816129D01*
X88623904Y-87018217D01*
X88720379Y-87207557D01*
X88845272Y-87379459D01*
X88845276Y-87379464D01*
X88995535Y-87529723D01*
X88995540Y-87529727D01*
X89160218Y-87649372D01*
X89202884Y-87704701D01*
X89208863Y-87774315D01*
X89176258Y-87836110D01*
X89160218Y-87850008D01*
X88995214Y-87969890D01*
X88995209Y-87969894D01*
X88844890Y-88120213D01*
X88719951Y-88292179D01*
X88623444Y-88481585D01*
X88557753Y-88683760D01*
X88524500Y-88893713D01*
X88524500Y-89106286D01*
X88553597Y-89290001D01*
X88557754Y-89316243D01*
X88620903Y-89510596D01*
X88623444Y-89518414D01*
X88719951Y-89707820D01*
X88844890Y-89879786D01*
X88983705Y-90018601D01*
X89017190Y-90079924D01*
X89012206Y-90149616D01*
X88970334Y-90205549D01*
X88961121Y-90211821D01*
X88806342Y-90307289D01*
X88682289Y-90431342D01*
X88590187Y-90580663D01*
X88590186Y-90580666D01*
X88535001Y-90747203D01*
X88535001Y-90747204D01*
X88535000Y-90747204D01*
X88524500Y-90849983D01*
X88524500Y-92150001D01*
X88524501Y-92150018D01*
X88535000Y-92252796D01*
X88535001Y-92252799D01*
X88590185Y-92419331D01*
X88590186Y-92419334D01*
X88682288Y-92568656D01*
X88806344Y-92692712D01*
X88955666Y-92784814D01*
X89122203Y-92839999D01*
X89224991Y-92850500D01*
X90775008Y-92850499D01*
X90877797Y-92839999D01*
X91044334Y-92784814D01*
X91193656Y-92692712D01*
X91317712Y-92568656D01*
X91409814Y-92419334D01*
X91464999Y-92252797D01*
X91475500Y-92150009D01*
X91475499Y-91129499D01*
X91495183Y-91062461D01*
X91547987Y-91016706D01*
X91599499Y-91005500D01*
X94292507Y-91005500D01*
X94359546Y-91025185D01*
X94405301Y-91077989D01*
X94415245Y-91147147D01*
X94407067Y-91176955D01*
X94398539Y-91197541D01*
X94398535Y-91197553D01*
X94374500Y-91318389D01*
X94374500Y-99389547D01*
X94354815Y-99456586D01*
X94338181Y-99477228D01*
X91681245Y-102134163D01*
X91619922Y-102167648D01*
X91550230Y-102162664D01*
X91494297Y-102120792D01*
X91471091Y-102065879D01*
X91469707Y-102057143D01*
X91442246Y-101883757D01*
X91376557Y-101681588D01*
X91280051Y-101492184D01*
X91280049Y-101492181D01*
X91280048Y-101492179D01*
X91155109Y-101320213D01*
X91004790Y-101169894D01*
X91004785Y-101169890D01*
X90839781Y-101050008D01*
X90797115Y-100994678D01*
X90791136Y-100925065D01*
X90823741Y-100863270D01*
X90839781Y-100849371D01*
X91004466Y-100729721D01*
X91154723Y-100579464D01*
X91154727Y-100579459D01*
X91279620Y-100407557D01*
X91376095Y-100218217D01*
X91441757Y-100016129D01*
X91441757Y-100016126D01*
X91452231Y-99950000D01*
X90404146Y-99950000D01*
X90442630Y-99883343D01*
X90475000Y-99762535D01*
X90475000Y-99637465D01*
X90442630Y-99516657D01*
X90404146Y-99450000D01*
X91452231Y-99450000D01*
X91441757Y-99383873D01*
X91441757Y-99383870D01*
X91376095Y-99181782D01*
X91279620Y-98992442D01*
X91154727Y-98820540D01*
X91154723Y-98820535D01*
X91004464Y-98670276D01*
X91004459Y-98670272D01*
X90832557Y-98545379D01*
X90643217Y-98448904D01*
X90441128Y-98383242D01*
X90250000Y-98352969D01*
X90250000Y-99295854D01*
X90183343Y-99257370D01*
X90062535Y-99225000D01*
X89937465Y-99225000D01*
X89816657Y-99257370D01*
X89750000Y-99295854D01*
X89750000Y-98352969D01*
X89558872Y-98383242D01*
X89558869Y-98383242D01*
X89356782Y-98448904D01*
X89167442Y-98545379D01*
X88995540Y-98670272D01*
X88995535Y-98670276D01*
X88845276Y-98820535D01*
X88845272Y-98820540D01*
X88720379Y-98992442D01*
X88623904Y-99181782D01*
X88558242Y-99383870D01*
X88558242Y-99383873D01*
X88547769Y-99450000D01*
X89595854Y-99450000D01*
X89557370Y-99516657D01*
X89525000Y-99637465D01*
X89525000Y-99762535D01*
X89557370Y-99883343D01*
X89595854Y-99950000D01*
X88547769Y-99950000D01*
X88558242Y-100016126D01*
X88558242Y-100016129D01*
X88623904Y-100218217D01*
X88720379Y-100407557D01*
X88845272Y-100579459D01*
X88845276Y-100579464D01*
X88995535Y-100729723D01*
X88995540Y-100729727D01*
X89160218Y-100849372D01*
X89202884Y-100904701D01*
X89208863Y-100974315D01*
X89176258Y-101036110D01*
X89160218Y-101050008D01*
X88995214Y-101169890D01*
X88995209Y-101169894D01*
X88844890Y-101320213D01*
X88719951Y-101492179D01*
X88623444Y-101681585D01*
X88557753Y-101883760D01*
X88524500Y-102093713D01*
X88524500Y-102306286D01*
X88555483Y-102501908D01*
X88557754Y-102516243D01*
X88614322Y-102690342D01*
X88623444Y-102718414D01*
X88719951Y-102907820D01*
X88844890Y-103079786D01*
X88983705Y-103218601D01*
X89017190Y-103279924D01*
X89012206Y-103349616D01*
X88970334Y-103405549D01*
X88961121Y-103411821D01*
X88806342Y-103507289D01*
X88682289Y-103631342D01*
X88590187Y-103780663D01*
X88590186Y-103780666D01*
X88535001Y-103947203D01*
X88535001Y-103947204D01*
X88535000Y-103947204D01*
X88524500Y-104049983D01*
X88524500Y-105350001D01*
X88524501Y-105350018D01*
X88535000Y-105452796D01*
X88535001Y-105452799D01*
X88590185Y-105619331D01*
X88590187Y-105619336D01*
X88605803Y-105644653D01*
X88682288Y-105768656D01*
X88806344Y-105892712D01*
X88955666Y-105984814D01*
X89122203Y-106039999D01*
X89224991Y-106050500D01*
X90775008Y-106050499D01*
X90877797Y-106039999D01*
X91044334Y-105984814D01*
X91193656Y-105892712D01*
X91317712Y-105768656D01*
X91409814Y-105619334D01*
X91464999Y-105452797D01*
X91475500Y-105350009D01*
X91475499Y-104160450D01*
X91495184Y-104093412D01*
X91511813Y-104072775D01*
X94162821Y-101421768D01*
X94224142Y-101388285D01*
X94293834Y-101393269D01*
X94349767Y-101435141D01*
X94374184Y-101500605D01*
X94374500Y-101509451D01*
X94374500Y-115689547D01*
X94354815Y-115756586D01*
X94338181Y-115777228D01*
X91681245Y-118434163D01*
X91619922Y-118467648D01*
X91550230Y-118462664D01*
X91494297Y-118420792D01*
X91471091Y-118365879D01*
X91442247Y-118183761D01*
X91442246Y-118183760D01*
X91442246Y-118183757D01*
X91376557Y-117981588D01*
X91280051Y-117792184D01*
X91280049Y-117792181D01*
X91280048Y-117792179D01*
X91155109Y-117620213D01*
X91004790Y-117469894D01*
X91004785Y-117469890D01*
X90839781Y-117350008D01*
X90797115Y-117294678D01*
X90791136Y-117225065D01*
X90823741Y-117163270D01*
X90839781Y-117149371D01*
X91004466Y-117029721D01*
X91154723Y-116879464D01*
X91154727Y-116879459D01*
X91279620Y-116707557D01*
X91376095Y-116518217D01*
X91441757Y-116316129D01*
X91441757Y-116316126D01*
X91452231Y-116250000D01*
X90404146Y-116250000D01*
X90442630Y-116183343D01*
X90475000Y-116062535D01*
X90475000Y-115937465D01*
X90442630Y-115816657D01*
X90404146Y-115750000D01*
X91452231Y-115750000D01*
X91441757Y-115683873D01*
X91441757Y-115683870D01*
X91376095Y-115481782D01*
X91279620Y-115292442D01*
X91154727Y-115120540D01*
X91154723Y-115120535D01*
X91004464Y-114970276D01*
X91004459Y-114970272D01*
X90832557Y-114845379D01*
X90643217Y-114748904D01*
X90441128Y-114683242D01*
X90250000Y-114652969D01*
X90250000Y-115595854D01*
X90183343Y-115557370D01*
X90062535Y-115525000D01*
X89937465Y-115525000D01*
X89816657Y-115557370D01*
X89750000Y-115595854D01*
X89750000Y-114652969D01*
X89558872Y-114683242D01*
X89558869Y-114683242D01*
X89356782Y-114748904D01*
X89167442Y-114845379D01*
X88995540Y-114970272D01*
X88995535Y-114970276D01*
X88845276Y-115120535D01*
X88845272Y-115120540D01*
X88720379Y-115292442D01*
X88623904Y-115481782D01*
X88558242Y-115683870D01*
X88558242Y-115683873D01*
X88547769Y-115750000D01*
X89595854Y-115750000D01*
X89557370Y-115816657D01*
X89525000Y-115937465D01*
X89525000Y-116062535D01*
X89557370Y-116183343D01*
X89595854Y-116250000D01*
X88547769Y-116250000D01*
X88558242Y-116316126D01*
X88558242Y-116316129D01*
X88623904Y-116518217D01*
X88720379Y-116707557D01*
X88845272Y-116879459D01*
X88845276Y-116879464D01*
X88995535Y-117029723D01*
X88995540Y-117029727D01*
X89160218Y-117149372D01*
X89202884Y-117204701D01*
X89208863Y-117274315D01*
X89176258Y-117336110D01*
X89160218Y-117350008D01*
X88995214Y-117469890D01*
X88995209Y-117469894D01*
X88844890Y-117620213D01*
X88719951Y-117792179D01*
X88623444Y-117981585D01*
X88557753Y-118183760D01*
X88525465Y-118387618D01*
X88524500Y-118393713D01*
X88524500Y-118606287D01*
X88530828Y-118646237D01*
X88557753Y-118816239D01*
X88623444Y-119018414D01*
X88719951Y-119207820D01*
X88844890Y-119379786D01*
X88983705Y-119518601D01*
X89017190Y-119579924D01*
X89012206Y-119649616D01*
X88970334Y-119705549D01*
X88961121Y-119711821D01*
X88806342Y-119807289D01*
X88682289Y-119931342D01*
X88590187Y-120080663D01*
X88590186Y-120080666D01*
X88535001Y-120247203D01*
X88535001Y-120247204D01*
X88535000Y-120247204D01*
X88524500Y-120349983D01*
X88524500Y-121650001D01*
X86000000Y-121650001D01*
X86000000Y-60114741D01*
X88249500Y-60114741D01*
X88274446Y-60304215D01*
X88279452Y-60342238D01*
X88279453Y-60342240D01*
X88338842Y-60563887D01*
X88426650Y-60775876D01*
X88426657Y-60775890D01*
X88541392Y-60974617D01*
X88681081Y-61156661D01*
X88681089Y-61156670D01*
X88843330Y-61318911D01*
X88843338Y-61318918D01*
X89025382Y-61458607D01*
X89025385Y-61458608D01*
X89025388Y-61458611D01*
X89224112Y-61573344D01*
X89224117Y-61573346D01*
X89224123Y-61573349D01*
X89315480Y-61611190D01*
X89436113Y-61661158D01*
X89657762Y-61720548D01*
X89885266Y-61750500D01*
X89885273Y-61750500D01*
X90114727Y-61750500D01*
X90114734Y-61750500D01*
X90342238Y-61720548D01*
X90563887Y-61661158D01*
X90775888Y-61573344D01*
X90974612Y-61458611D01*
X91156661Y-61318919D01*
X91156665Y-61318914D01*
X91156670Y-61318911D01*
X91318911Y-61156670D01*
X91318914Y-61156665D01*
X91318919Y-61156661D01*
X91458611Y-60974612D01*
X91573344Y-60775888D01*
X91661158Y-60563887D01*
X91720548Y-60342238D01*
X91750499Y-60114741D01*
X168249500Y-60114741D01*
X168274446Y-60304215D01*
X168279452Y-60342238D01*
X168279453Y-60342240D01*
X168338842Y-60563887D01*
X168426650Y-60775876D01*
X168426657Y-60775890D01*
X168541392Y-60974617D01*
X168681081Y-61156661D01*
X168681089Y-61156670D01*
X168843330Y-61318911D01*
X168843338Y-61318918D01*
X169025382Y-61458607D01*
X169025385Y-61458608D01*
X169025388Y-61458611D01*
X169224112Y-61573344D01*
X169224117Y-61573346D01*
X169224123Y-61573349D01*
X169315480Y-61611190D01*
X169436113Y-61661158D01*
X169657762Y-61720548D01*
X169885266Y-61750500D01*
X169885273Y-61750500D01*
X170114727Y-61750500D01*
X170114734Y-61750500D01*
X170342238Y-61720548D01*
X170563887Y-61661158D01*
X170775888Y-61573344D01*
X170974612Y-61458611D01*
X171156661Y-61318919D01*
X171156665Y-61318914D01*
X171156670Y-61318911D01*
X171318911Y-61156670D01*
X171318914Y-61156665D01*
X171318919Y-61156661D01*
X171458611Y-60974612D01*
X171573344Y-60775888D01*
X171661158Y-60563887D01*
X171720548Y-60342238D01*
X171750500Y-60114734D01*
X171750500Y-59885266D01*
X171720548Y-59657762D01*
X171661158Y-59436113D01*
X171573344Y-59224112D01*
X171458611Y-59025388D01*
X171458608Y-59025385D01*
X171458607Y-59025382D01*
X171318918Y-58843338D01*
X171318911Y-58843330D01*
X171156670Y-58681089D01*
X171156661Y-58681081D01*
X170974617Y-58541392D01*
X170775890Y-58426657D01*
X170775876Y-58426650D01*
X170563887Y-58338842D01*
X170342238Y-58279452D01*
X170304215Y-58274446D01*
X170114741Y-58249500D01*
X170114734Y-58249500D01*
X169885266Y-58249500D01*
X169885258Y-58249500D01*
X169668715Y-58278009D01*
X169657762Y-58279452D01*
X169564076Y-58304554D01*
X169436112Y-58338842D01*
X169224123Y-58426650D01*
X169224109Y-58426657D01*
X169025382Y-58541392D01*
X168843338Y-58681081D01*
X168681081Y-58843338D01*
X168541392Y-59025382D01*
X168426657Y-59224109D01*
X168426650Y-59224123D01*
X168338842Y-59436112D01*
X168279453Y-59657759D01*
X168279451Y-59657770D01*
X168249500Y-59885258D01*
X168249500Y-60114741D01*
X91750499Y-60114741D01*
X91750500Y-60114734D01*
X91750500Y-59885266D01*
X91720548Y-59657762D01*
X91661158Y-59436113D01*
X91573344Y-59224112D01*
X91458611Y-59025388D01*
X91458608Y-59025385D01*
X91458607Y-59025382D01*
X91318918Y-58843338D01*
X91318911Y-58843330D01*
X91156670Y-58681089D01*
X91156661Y-58681081D01*
X90974617Y-58541392D01*
X90775890Y-58426657D01*
X90775876Y-58426650D01*
X90563887Y-58338842D01*
X90342238Y-58279452D01*
X90304215Y-58274446D01*
X90114741Y-58249500D01*
X90114734Y-58249500D01*
X89885266Y-58249500D01*
X89885258Y-58249500D01*
X89668715Y-58278009D01*
X89657762Y-58279452D01*
X89564076Y-58304554D01*
X89436112Y-58338842D01*
X89224123Y-58426650D01*
X89224109Y-58426657D01*
X89025382Y-58541392D01*
X88843338Y-58681081D01*
X88681081Y-58843338D01*
X88541392Y-59025382D01*
X88426657Y-59224109D01*
X88426650Y-59224123D01*
X88338842Y-59436112D01*
X88279453Y-59657759D01*
X88279451Y-59657770D01*
X88249500Y-59885258D01*
X88249500Y-60114741D01*
X86000000Y-60114741D01*
X86000000Y-47124000D01*
X86019685Y-47056961D01*
X86072489Y-47011206D01*
X86124000Y-47000000D01*
X175876000Y-47000000D01*
X175943039Y-47019685D01*
G37*
%TD.AperFunction*%
%TD*%
M02*
