%TF.GenerationSoftware,KiCad,Pcbnew,7.0.1*%
%TF.CreationDate,2024-03-29T14:38:25+01:00*%
%TF.ProjectId,nucleo_expansion,6e75636c-656f-45f6-9578-70616e73696f,Cyril*%
%TF.SameCoordinates,Original*%
%TF.FileFunction,Soldermask,Bot*%
%TF.FilePolarity,Negative*%
%FSLAX46Y46*%
G04 Gerber Fmt 4.6, Leading zero omitted, Abs format (unit mm)*
G04 Created by KiCad (PCBNEW 7.0.1) date 2024-03-29 14:38:25*
%MOMM*%
%LPD*%
G01*
G04 APERTURE LIST*
G04 Aperture macros list*
%AMRoundRect*
0 Rectangle with rounded corners*
0 $1 Rounding radius*
0 $2 $3 $4 $5 $6 $7 $8 $9 X,Y pos of 4 corners*
0 Add a 4 corners polygon primitive as box body*
4,1,4,$2,$3,$4,$5,$6,$7,$8,$9,$2,$3,0*
0 Add four circle primitives for the rounded corners*
1,1,$1+$1,$2,$3*
1,1,$1+$1,$4,$5*
1,1,$1+$1,$6,$7*
1,1,$1+$1,$8,$9*
0 Add four rect primitives between the rounded corners*
20,1,$1+$1,$2,$3,$4,$5,0*
20,1,$1+$1,$4,$5,$6,$7,0*
20,1,$1+$1,$6,$7,$8,$9,0*
20,1,$1+$1,$8,$9,$2,$3,0*%
G04 Aperture macros list end*
%ADD10C,3.000000*%
%ADD11RoundRect,0.250000X0.600000X0.725000X-0.600000X0.725000X-0.600000X-0.725000X0.600000X-0.725000X0*%
%ADD12O,1.700000X1.950000*%
%ADD13RoundRect,0.250000X0.725000X-0.600000X0.725000X0.600000X-0.725000X0.600000X-0.725000X-0.600000X0*%
%ADD14O,1.950000X1.700000*%
%ADD15RoundRect,0.250000X-0.725000X0.600000X-0.725000X-0.600000X0.725000X-0.600000X0.725000X0.600000X0*%
%ADD16RoundRect,0.102000X-0.765000X-0.765000X0.765000X-0.765000X0.765000X0.765000X-0.765000X0.765000X0*%
%ADD17C,1.734000*%
G04 APERTURE END LIST*
D10*
%TO.C,H4*%
X170000000Y-130000000D03*
%TD*%
%TO.C,H3*%
X90000000Y-130000000D03*
%TD*%
%TO.C,H2*%
X170000000Y-60000000D03*
%TD*%
%TO.C,H1*%
X90000000Y-60000000D03*
%TD*%
D11*
%TO.C,J1*%
X156000000Y-133000000D03*
D12*
X153500000Y-133000000D03*
X151000000Y-133000000D03*
X148500000Y-133000000D03*
X146000000Y-133000000D03*
%TD*%
D13*
%TO.C,J5*%
X90000000Y-104700000D03*
D14*
X90000000Y-102200000D03*
X90000000Y-99700000D03*
%TD*%
D11*
%TO.C,J2*%
X116000000Y-133000000D03*
D12*
X113500000Y-133000000D03*
X111000000Y-133000000D03*
X108500000Y-133000000D03*
X106000000Y-133000000D03*
%TD*%
D15*
%TO.C,J8*%
X172000000Y-116000000D03*
D14*
X172000000Y-118500000D03*
X172000000Y-121000000D03*
%TD*%
D15*
%TO.C,J7*%
X172000000Y-104300000D03*
D14*
X172000000Y-106800000D03*
X172000000Y-109300000D03*
%TD*%
D13*
%TO.C,J6*%
X90000000Y-121000000D03*
D14*
X90000000Y-118500000D03*
X90000000Y-116000000D03*
%TD*%
D16*
%TO.C,U1*%
X99350000Y-76590000D03*
D17*
X101890000Y-76590000D03*
X99350000Y-79130000D03*
X101890000Y-79130000D03*
X99350000Y-81670000D03*
X101890000Y-81670000D03*
X99350000Y-84210000D03*
X101890000Y-84210000D03*
X99350000Y-86750000D03*
X101890000Y-86750000D03*
X99350000Y-89290000D03*
X101890000Y-89290000D03*
X99350000Y-91830000D03*
X101890000Y-91830000D03*
X99350000Y-94370000D03*
X101890000Y-94370000D03*
X99350000Y-96910000D03*
X101890000Y-96910000D03*
X99350000Y-99450000D03*
X101890000Y-99450000D03*
X99350000Y-101990000D03*
X101890000Y-101990000D03*
X99350000Y-104530000D03*
X101890000Y-104530000D03*
X99350000Y-107070000D03*
X101890000Y-107070000D03*
X99350000Y-109610000D03*
X101890000Y-109610000D03*
X99350000Y-112150000D03*
X101890000Y-112150000D03*
X99350000Y-114690000D03*
X101890000Y-114690000D03*
X99350000Y-117230000D03*
X101890000Y-117230000D03*
X99350000Y-119770000D03*
X101890000Y-119770000D03*
X99350000Y-122310000D03*
X101890000Y-122310000D03*
D16*
X160310000Y-76590000D03*
D17*
X162850000Y-76590000D03*
X160310000Y-79130000D03*
X162850000Y-79130000D03*
X160310000Y-81670000D03*
X162850000Y-81670000D03*
X160310000Y-84210000D03*
X162850000Y-84210000D03*
X160310000Y-86750000D03*
X162850000Y-86750000D03*
X160310000Y-89290000D03*
X162850000Y-89290000D03*
X160310000Y-91830000D03*
X162850000Y-91830000D03*
X160310000Y-94370000D03*
X162850000Y-94370000D03*
X160310000Y-96910000D03*
X162850000Y-96910000D03*
X160310000Y-99450000D03*
X162850000Y-99450000D03*
X160310000Y-101990000D03*
X162850000Y-101990000D03*
X160310000Y-104530000D03*
X162850000Y-104530000D03*
X160310000Y-107070000D03*
X162850000Y-107070000D03*
X160310000Y-109610000D03*
X162850000Y-109610000D03*
X160310000Y-112150000D03*
X162850000Y-112150000D03*
X160310000Y-114690000D03*
X162850000Y-114690000D03*
X160310000Y-117230000D03*
X162850000Y-117230000D03*
X160310000Y-119770000D03*
X162850000Y-119770000D03*
X160310000Y-122310000D03*
X162850000Y-122310000D03*
%TD*%
D15*
%TO.C,J3*%
X172000000Y-92000000D03*
D14*
X172000000Y-94500000D03*
X172000000Y-97000000D03*
%TD*%
D13*
%TO.C,J4*%
X90000000Y-91500000D03*
D14*
X90000000Y-89000000D03*
X90000000Y-86500000D03*
%TD*%
M02*
