%TF.GenerationSoftware,KiCad,Pcbnew,7.0.1*%
%TF.CreationDate,2024-03-29T14:38:25+01:00*%
%TF.ProjectId,nucleo_expansion,6e75636c-656f-45f6-9578-70616e73696f,Cyril*%
%TF.SameCoordinates,Original*%
%TF.FileFunction,Legend,Top*%
%TF.FilePolarity,Positive*%
%FSLAX46Y46*%
G04 Gerber Fmt 4.6, Leading zero omitted, Abs format (unit mm)*
G04 Created by KiCad (PCBNEW 7.0.1) date 2024-03-29 14:38:25*
%MOMM*%
%LPD*%
G01*
G04 APERTURE LIST*
%ADD10C,0.150000*%
%ADD11C,0.120000*%
%ADD12C,0.127000*%
%ADD13C,0.200000*%
G04 APERTURE END LIST*
D10*
X95377619Y-104761904D02*
X94377619Y-104761904D01*
X94377619Y-104761904D02*
X94377619Y-104380952D01*
X94377619Y-104380952D02*
X94425238Y-104285714D01*
X94425238Y-104285714D02*
X94472857Y-104238095D01*
X94472857Y-104238095D02*
X94568095Y-104190476D01*
X94568095Y-104190476D02*
X94710952Y-104190476D01*
X94710952Y-104190476D02*
X94806190Y-104238095D01*
X94806190Y-104238095D02*
X94853809Y-104285714D01*
X94853809Y-104285714D02*
X94901428Y-104380952D01*
X94901428Y-104380952D02*
X94901428Y-104761904D01*
X94377619Y-103857142D02*
X95377619Y-103619047D01*
X95377619Y-103619047D02*
X94663333Y-103428571D01*
X94663333Y-103428571D02*
X95377619Y-103238095D01*
X95377619Y-103238095D02*
X94377619Y-103000000D01*
X95377619Y-102619047D02*
X94377619Y-102619047D01*
X94377619Y-102619047D02*
X95091904Y-102285714D01*
X95091904Y-102285714D02*
X94377619Y-101952381D01*
X94377619Y-101952381D02*
X95377619Y-101952381D01*
X94710952Y-101047619D02*
X95377619Y-101047619D01*
X94330000Y-101285714D02*
X95044285Y-101523809D01*
X95044285Y-101523809D02*
X95044285Y-100904762D01*
X94330000Y-99809524D02*
X95615714Y-100666666D01*
X94472857Y-99523809D02*
X94425238Y-99476190D01*
X94425238Y-99476190D02*
X94377619Y-99380952D01*
X94377619Y-99380952D02*
X94377619Y-99142857D01*
X94377619Y-99142857D02*
X94425238Y-99047619D01*
X94425238Y-99047619D02*
X94472857Y-99000000D01*
X94472857Y-99000000D02*
X94568095Y-98952381D01*
X94568095Y-98952381D02*
X94663333Y-98952381D01*
X94663333Y-98952381D02*
X94806190Y-99000000D01*
X94806190Y-99000000D02*
X95377619Y-99571428D01*
X95377619Y-99571428D02*
X95377619Y-98952381D01*
X167622380Y-92738095D02*
X166812857Y-92738095D01*
X166812857Y-92738095D02*
X166717619Y-92785714D01*
X166717619Y-92785714D02*
X166670000Y-92833333D01*
X166670000Y-92833333D02*
X166622380Y-92928571D01*
X166622380Y-92928571D02*
X166622380Y-93119047D01*
X166622380Y-93119047D02*
X166670000Y-93214285D01*
X166670000Y-93214285D02*
X166717619Y-93261904D01*
X166717619Y-93261904D02*
X166812857Y-93309523D01*
X166812857Y-93309523D02*
X167622380Y-93309523D01*
X166908095Y-93738095D02*
X166908095Y-94214285D01*
X166622380Y-93642857D02*
X167622380Y-93976190D01*
X167622380Y-93976190D02*
X166622380Y-94309523D01*
X166622380Y-95214285D02*
X167098571Y-94880952D01*
X166622380Y-94642857D02*
X167622380Y-94642857D01*
X167622380Y-94642857D02*
X167622380Y-95023809D01*
X167622380Y-95023809D02*
X167574761Y-95119047D01*
X167574761Y-95119047D02*
X167527142Y-95166666D01*
X167527142Y-95166666D02*
X167431904Y-95214285D01*
X167431904Y-95214285D02*
X167289047Y-95214285D01*
X167289047Y-95214285D02*
X167193809Y-95166666D01*
X167193809Y-95166666D02*
X167146190Y-95119047D01*
X167146190Y-95119047D02*
X167098571Y-95023809D01*
X167098571Y-95023809D02*
X167098571Y-94642857D01*
X167622380Y-95500000D02*
X167622380Y-96071428D01*
X166622380Y-95785714D02*
X167622380Y-95785714D01*
X167622380Y-96309524D02*
X167622380Y-96928571D01*
X167622380Y-96928571D02*
X167241428Y-96595238D01*
X167241428Y-96595238D02*
X167241428Y-96738095D01*
X167241428Y-96738095D02*
X167193809Y-96833333D01*
X167193809Y-96833333D02*
X167146190Y-96880952D01*
X167146190Y-96880952D02*
X167050952Y-96928571D01*
X167050952Y-96928571D02*
X166812857Y-96928571D01*
X166812857Y-96928571D02*
X166717619Y-96880952D01*
X166717619Y-96880952D02*
X166670000Y-96833333D01*
X166670000Y-96833333D02*
X166622380Y-96738095D01*
X166622380Y-96738095D02*
X166622380Y-96452381D01*
X166622380Y-96452381D02*
X166670000Y-96357143D01*
X166670000Y-96357143D02*
X166717619Y-96309524D01*
X95377619Y-121761904D02*
X94377619Y-121761904D01*
X94377619Y-121761904D02*
X94377619Y-121380952D01*
X94377619Y-121380952D02*
X94425238Y-121285714D01*
X94425238Y-121285714D02*
X94472857Y-121238095D01*
X94472857Y-121238095D02*
X94568095Y-121190476D01*
X94568095Y-121190476D02*
X94710952Y-121190476D01*
X94710952Y-121190476D02*
X94806190Y-121238095D01*
X94806190Y-121238095D02*
X94853809Y-121285714D01*
X94853809Y-121285714D02*
X94901428Y-121380952D01*
X94901428Y-121380952D02*
X94901428Y-121761904D01*
X94377619Y-120857142D02*
X95377619Y-120619047D01*
X95377619Y-120619047D02*
X94663333Y-120428571D01*
X94663333Y-120428571D02*
X95377619Y-120238095D01*
X95377619Y-120238095D02*
X94377619Y-120000000D01*
X95377619Y-119619047D02*
X94377619Y-119619047D01*
X94377619Y-119619047D02*
X95091904Y-119285714D01*
X95091904Y-119285714D02*
X94377619Y-118952381D01*
X94377619Y-118952381D02*
X95377619Y-118952381D01*
X95377619Y-117952381D02*
X95377619Y-118523809D01*
X95377619Y-118238095D02*
X94377619Y-118238095D01*
X94377619Y-118238095D02*
X94520476Y-118333333D01*
X94520476Y-118333333D02*
X94615714Y-118428571D01*
X94615714Y-118428571D02*
X94663333Y-118523809D01*
X94330000Y-116809524D02*
X95615714Y-117666666D01*
X94472857Y-116523809D02*
X94425238Y-116476190D01*
X94425238Y-116476190D02*
X94377619Y-116380952D01*
X94377619Y-116380952D02*
X94377619Y-116142857D01*
X94377619Y-116142857D02*
X94425238Y-116047619D01*
X94425238Y-116047619D02*
X94472857Y-116000000D01*
X94472857Y-116000000D02*
X94568095Y-115952381D01*
X94568095Y-115952381D02*
X94663333Y-115952381D01*
X94663333Y-115952381D02*
X94806190Y-116000000D01*
X94806190Y-116000000D02*
X95377619Y-116571428D01*
X95377619Y-116571428D02*
X95377619Y-115952381D01*
X95377619Y-115523809D02*
X94377619Y-115523809D01*
X94377619Y-115523809D02*
X95377619Y-114952381D01*
X95377619Y-114952381D02*
X94377619Y-114952381D01*
X125738095Y-71877619D02*
X125738095Y-70877619D01*
X125738095Y-70877619D02*
X126309523Y-71877619D01*
X126309523Y-71877619D02*
X126309523Y-70877619D01*
X126785714Y-70877619D02*
X126785714Y-71687142D01*
X126785714Y-71687142D02*
X126833333Y-71782380D01*
X126833333Y-71782380D02*
X126880952Y-71830000D01*
X126880952Y-71830000D02*
X126976190Y-71877619D01*
X126976190Y-71877619D02*
X127166666Y-71877619D01*
X127166666Y-71877619D02*
X127261904Y-71830000D01*
X127261904Y-71830000D02*
X127309523Y-71782380D01*
X127309523Y-71782380D02*
X127357142Y-71687142D01*
X127357142Y-71687142D02*
X127357142Y-70877619D01*
X128404761Y-71782380D02*
X128357142Y-71830000D01*
X128357142Y-71830000D02*
X128214285Y-71877619D01*
X128214285Y-71877619D02*
X128119047Y-71877619D01*
X128119047Y-71877619D02*
X127976190Y-71830000D01*
X127976190Y-71830000D02*
X127880952Y-71734761D01*
X127880952Y-71734761D02*
X127833333Y-71639523D01*
X127833333Y-71639523D02*
X127785714Y-71449047D01*
X127785714Y-71449047D02*
X127785714Y-71306190D01*
X127785714Y-71306190D02*
X127833333Y-71115714D01*
X127833333Y-71115714D02*
X127880952Y-71020476D01*
X127880952Y-71020476D02*
X127976190Y-70925238D01*
X127976190Y-70925238D02*
X128119047Y-70877619D01*
X128119047Y-70877619D02*
X128214285Y-70877619D01*
X128214285Y-70877619D02*
X128357142Y-70925238D01*
X128357142Y-70925238D02*
X128404761Y-70972857D01*
X129309523Y-71877619D02*
X128833333Y-71877619D01*
X128833333Y-71877619D02*
X128833333Y-70877619D01*
X129642857Y-71353809D02*
X129976190Y-71353809D01*
X130119047Y-71877619D02*
X129642857Y-71877619D01*
X129642857Y-71877619D02*
X129642857Y-70877619D01*
X129642857Y-70877619D02*
X130119047Y-70877619D01*
X130738095Y-70877619D02*
X130928571Y-70877619D01*
X130928571Y-70877619D02*
X131023809Y-70925238D01*
X131023809Y-70925238D02*
X131119047Y-71020476D01*
X131119047Y-71020476D02*
X131166666Y-71210952D01*
X131166666Y-71210952D02*
X131166666Y-71544285D01*
X131166666Y-71544285D02*
X131119047Y-71734761D01*
X131119047Y-71734761D02*
X131023809Y-71830000D01*
X131023809Y-71830000D02*
X130928571Y-71877619D01*
X130928571Y-71877619D02*
X130738095Y-71877619D01*
X130738095Y-71877619D02*
X130642857Y-71830000D01*
X130642857Y-71830000D02*
X130547619Y-71734761D01*
X130547619Y-71734761D02*
X130500000Y-71544285D01*
X130500000Y-71544285D02*
X130500000Y-71210952D01*
X130500000Y-71210952D02*
X130547619Y-71020476D01*
X130547619Y-71020476D02*
X130642857Y-70925238D01*
X130642857Y-70925238D02*
X130738095Y-70877619D01*
X131595238Y-71496666D02*
X132357143Y-71496666D01*
X133166666Y-71353809D02*
X132833333Y-71353809D01*
X132833333Y-71877619D02*
X132833333Y-70877619D01*
X132833333Y-70877619D02*
X133309523Y-70877619D01*
X134119047Y-71210952D02*
X134119047Y-71877619D01*
X133880952Y-70830000D02*
X133642857Y-71544285D01*
X133642857Y-71544285D02*
X134261904Y-71544285D01*
X135071428Y-71210952D02*
X135071428Y-71877619D01*
X134833333Y-70830000D02*
X134595238Y-71544285D01*
X134595238Y-71544285D02*
X135214285Y-71544285D01*
X136023809Y-70877619D02*
X135833333Y-70877619D01*
X135833333Y-70877619D02*
X135738095Y-70925238D01*
X135738095Y-70925238D02*
X135690476Y-70972857D01*
X135690476Y-70972857D02*
X135595238Y-71115714D01*
X135595238Y-71115714D02*
X135547619Y-71306190D01*
X135547619Y-71306190D02*
X135547619Y-71687142D01*
X135547619Y-71687142D02*
X135595238Y-71782380D01*
X135595238Y-71782380D02*
X135642857Y-71830000D01*
X135642857Y-71830000D02*
X135738095Y-71877619D01*
X135738095Y-71877619D02*
X135928571Y-71877619D01*
X135928571Y-71877619D02*
X136023809Y-71830000D01*
X136023809Y-71830000D02*
X136071428Y-71782380D01*
X136071428Y-71782380D02*
X136119047Y-71687142D01*
X136119047Y-71687142D02*
X136119047Y-71449047D01*
X136119047Y-71449047D02*
X136071428Y-71353809D01*
X136071428Y-71353809D02*
X136023809Y-71306190D01*
X136023809Y-71306190D02*
X135928571Y-71258571D01*
X135928571Y-71258571D02*
X135738095Y-71258571D01*
X135738095Y-71258571D02*
X135642857Y-71306190D01*
X135642857Y-71306190D02*
X135595238Y-71353809D01*
X135595238Y-71353809D02*
X135547619Y-71449047D01*
X137119047Y-71877619D02*
X136785714Y-71401428D01*
X136547619Y-71877619D02*
X136547619Y-70877619D01*
X136547619Y-70877619D02*
X136928571Y-70877619D01*
X136928571Y-70877619D02*
X137023809Y-70925238D01*
X137023809Y-70925238D02*
X137071428Y-70972857D01*
X137071428Y-70972857D02*
X137119047Y-71068095D01*
X137119047Y-71068095D02*
X137119047Y-71210952D01*
X137119047Y-71210952D02*
X137071428Y-71306190D01*
X137071428Y-71306190D02*
X137023809Y-71353809D01*
X137023809Y-71353809D02*
X136928571Y-71401428D01*
X136928571Y-71401428D02*
X136547619Y-71401428D01*
X137547619Y-71353809D02*
X137880952Y-71353809D01*
X138023809Y-71877619D02*
X137547619Y-71877619D01*
X137547619Y-71877619D02*
X137547619Y-70877619D01*
X137547619Y-70877619D02*
X138023809Y-70877619D01*
X160190476Y-133830000D02*
X160333333Y-133877619D01*
X160333333Y-133877619D02*
X160571428Y-133877619D01*
X160571428Y-133877619D02*
X160666666Y-133830000D01*
X160666666Y-133830000D02*
X160714285Y-133782380D01*
X160714285Y-133782380D02*
X160761904Y-133687142D01*
X160761904Y-133687142D02*
X160761904Y-133591904D01*
X160761904Y-133591904D02*
X160714285Y-133496666D01*
X160714285Y-133496666D02*
X160666666Y-133449047D01*
X160666666Y-133449047D02*
X160571428Y-133401428D01*
X160571428Y-133401428D02*
X160380952Y-133353809D01*
X160380952Y-133353809D02*
X160285714Y-133306190D01*
X160285714Y-133306190D02*
X160238095Y-133258571D01*
X160238095Y-133258571D02*
X160190476Y-133163333D01*
X160190476Y-133163333D02*
X160190476Y-133068095D01*
X160190476Y-133068095D02*
X160238095Y-132972857D01*
X160238095Y-132972857D02*
X160285714Y-132925238D01*
X160285714Y-132925238D02*
X160380952Y-132877619D01*
X160380952Y-132877619D02*
X160619047Y-132877619D01*
X160619047Y-132877619D02*
X160761904Y-132925238D01*
X161190476Y-133877619D02*
X161190476Y-132877619D01*
X161190476Y-132877619D02*
X161571428Y-132877619D01*
X161571428Y-132877619D02*
X161666666Y-132925238D01*
X161666666Y-132925238D02*
X161714285Y-132972857D01*
X161714285Y-132972857D02*
X161761904Y-133068095D01*
X161761904Y-133068095D02*
X161761904Y-133210952D01*
X161761904Y-133210952D02*
X161714285Y-133306190D01*
X161714285Y-133306190D02*
X161666666Y-133353809D01*
X161666666Y-133353809D02*
X161571428Y-133401428D01*
X161571428Y-133401428D02*
X161190476Y-133401428D01*
X162190476Y-133877619D02*
X162190476Y-132877619D01*
X162619047Y-132972857D02*
X162666666Y-132925238D01*
X162666666Y-132925238D02*
X162761904Y-132877619D01*
X162761904Y-132877619D02*
X162999999Y-132877619D01*
X162999999Y-132877619D02*
X163095237Y-132925238D01*
X163095237Y-132925238D02*
X163142856Y-132972857D01*
X163142856Y-132972857D02*
X163190475Y-133068095D01*
X163190475Y-133068095D02*
X163190475Y-133163333D01*
X163190475Y-133163333D02*
X163142856Y-133306190D01*
X163142856Y-133306190D02*
X162571428Y-133877619D01*
X162571428Y-133877619D02*
X163190475Y-133877619D01*
X163380952Y-133972857D02*
X164142856Y-133972857D01*
X164333333Y-133830000D02*
X164428571Y-133877619D01*
X164428571Y-133877619D02*
X164619047Y-133877619D01*
X164619047Y-133877619D02*
X164714285Y-133830000D01*
X164714285Y-133830000D02*
X164761904Y-133734761D01*
X164761904Y-133734761D02*
X164761904Y-133687142D01*
X164761904Y-133687142D02*
X164714285Y-133591904D01*
X164714285Y-133591904D02*
X164619047Y-133544285D01*
X164619047Y-133544285D02*
X164476190Y-133544285D01*
X164476190Y-133544285D02*
X164380952Y-133496666D01*
X164380952Y-133496666D02*
X164333333Y-133401428D01*
X164333333Y-133401428D02*
X164333333Y-133353809D01*
X164333333Y-133353809D02*
X164380952Y-133258571D01*
X164380952Y-133258571D02*
X164476190Y-133210952D01*
X164476190Y-133210952D02*
X164619047Y-133210952D01*
X164619047Y-133210952D02*
X164714285Y-133258571D01*
X165333333Y-133877619D02*
X165238095Y-133830000D01*
X165238095Y-133830000D02*
X165190476Y-133734761D01*
X165190476Y-133734761D02*
X165190476Y-132877619D01*
X166142857Y-133877619D02*
X166142857Y-133353809D01*
X166142857Y-133353809D02*
X166095238Y-133258571D01*
X166095238Y-133258571D02*
X166000000Y-133210952D01*
X166000000Y-133210952D02*
X165809524Y-133210952D01*
X165809524Y-133210952D02*
X165714286Y-133258571D01*
X166142857Y-133830000D02*
X166047619Y-133877619D01*
X166047619Y-133877619D02*
X165809524Y-133877619D01*
X165809524Y-133877619D02*
X165714286Y-133830000D01*
X165714286Y-133830000D02*
X165666667Y-133734761D01*
X165666667Y-133734761D02*
X165666667Y-133639523D01*
X165666667Y-133639523D02*
X165714286Y-133544285D01*
X165714286Y-133544285D02*
X165809524Y-133496666D01*
X165809524Y-133496666D02*
X166047619Y-133496666D01*
X166047619Y-133496666D02*
X166142857Y-133449047D01*
X166523810Y-133210952D02*
X166761905Y-133877619D01*
X166761905Y-133877619D02*
X167000000Y-133210952D01*
X167761905Y-133830000D02*
X167666667Y-133877619D01*
X167666667Y-133877619D02*
X167476191Y-133877619D01*
X167476191Y-133877619D02*
X167380953Y-133830000D01*
X167380953Y-133830000D02*
X167333334Y-133734761D01*
X167333334Y-133734761D02*
X167333334Y-133353809D01*
X167333334Y-133353809D02*
X167380953Y-133258571D01*
X167380953Y-133258571D02*
X167476191Y-133210952D01*
X167476191Y-133210952D02*
X167666667Y-133210952D01*
X167666667Y-133210952D02*
X167761905Y-133258571D01*
X167761905Y-133258571D02*
X167809524Y-133353809D01*
X167809524Y-133353809D02*
X167809524Y-133449047D01*
X167809524Y-133449047D02*
X167333334Y-133544285D01*
X168761905Y-133877619D02*
X168190477Y-133877619D01*
X168476191Y-133877619D02*
X168476191Y-132877619D01*
X168476191Y-132877619D02*
X168380953Y-133020476D01*
X168380953Y-133020476D02*
X168285715Y-133115714D01*
X168285715Y-133115714D02*
X168190477Y-133163333D01*
X93190476Y-133330000D02*
X93333333Y-133377619D01*
X93333333Y-133377619D02*
X93571428Y-133377619D01*
X93571428Y-133377619D02*
X93666666Y-133330000D01*
X93666666Y-133330000D02*
X93714285Y-133282380D01*
X93714285Y-133282380D02*
X93761904Y-133187142D01*
X93761904Y-133187142D02*
X93761904Y-133091904D01*
X93761904Y-133091904D02*
X93714285Y-132996666D01*
X93714285Y-132996666D02*
X93666666Y-132949047D01*
X93666666Y-132949047D02*
X93571428Y-132901428D01*
X93571428Y-132901428D02*
X93380952Y-132853809D01*
X93380952Y-132853809D02*
X93285714Y-132806190D01*
X93285714Y-132806190D02*
X93238095Y-132758571D01*
X93238095Y-132758571D02*
X93190476Y-132663333D01*
X93190476Y-132663333D02*
X93190476Y-132568095D01*
X93190476Y-132568095D02*
X93238095Y-132472857D01*
X93238095Y-132472857D02*
X93285714Y-132425238D01*
X93285714Y-132425238D02*
X93380952Y-132377619D01*
X93380952Y-132377619D02*
X93619047Y-132377619D01*
X93619047Y-132377619D02*
X93761904Y-132425238D01*
X94190476Y-133377619D02*
X94190476Y-132377619D01*
X94190476Y-132377619D02*
X94571428Y-132377619D01*
X94571428Y-132377619D02*
X94666666Y-132425238D01*
X94666666Y-132425238D02*
X94714285Y-132472857D01*
X94714285Y-132472857D02*
X94761904Y-132568095D01*
X94761904Y-132568095D02*
X94761904Y-132710952D01*
X94761904Y-132710952D02*
X94714285Y-132806190D01*
X94714285Y-132806190D02*
X94666666Y-132853809D01*
X94666666Y-132853809D02*
X94571428Y-132901428D01*
X94571428Y-132901428D02*
X94190476Y-132901428D01*
X95190476Y-133377619D02*
X95190476Y-132377619D01*
X95619047Y-132472857D02*
X95666666Y-132425238D01*
X95666666Y-132425238D02*
X95761904Y-132377619D01*
X95761904Y-132377619D02*
X95999999Y-132377619D01*
X95999999Y-132377619D02*
X96095237Y-132425238D01*
X96095237Y-132425238D02*
X96142856Y-132472857D01*
X96142856Y-132472857D02*
X96190475Y-132568095D01*
X96190475Y-132568095D02*
X96190475Y-132663333D01*
X96190475Y-132663333D02*
X96142856Y-132806190D01*
X96142856Y-132806190D02*
X95571428Y-133377619D01*
X95571428Y-133377619D02*
X96190475Y-133377619D01*
X96380952Y-133472857D02*
X97142856Y-133472857D01*
X97333333Y-133330000D02*
X97428571Y-133377619D01*
X97428571Y-133377619D02*
X97619047Y-133377619D01*
X97619047Y-133377619D02*
X97714285Y-133330000D01*
X97714285Y-133330000D02*
X97761904Y-133234761D01*
X97761904Y-133234761D02*
X97761904Y-133187142D01*
X97761904Y-133187142D02*
X97714285Y-133091904D01*
X97714285Y-133091904D02*
X97619047Y-133044285D01*
X97619047Y-133044285D02*
X97476190Y-133044285D01*
X97476190Y-133044285D02*
X97380952Y-132996666D01*
X97380952Y-132996666D02*
X97333333Y-132901428D01*
X97333333Y-132901428D02*
X97333333Y-132853809D01*
X97333333Y-132853809D02*
X97380952Y-132758571D01*
X97380952Y-132758571D02*
X97476190Y-132710952D01*
X97476190Y-132710952D02*
X97619047Y-132710952D01*
X97619047Y-132710952D02*
X97714285Y-132758571D01*
X98333333Y-133377619D02*
X98238095Y-133330000D01*
X98238095Y-133330000D02*
X98190476Y-133234761D01*
X98190476Y-133234761D02*
X98190476Y-132377619D01*
X99142857Y-133377619D02*
X99142857Y-132853809D01*
X99142857Y-132853809D02*
X99095238Y-132758571D01*
X99095238Y-132758571D02*
X99000000Y-132710952D01*
X99000000Y-132710952D02*
X98809524Y-132710952D01*
X98809524Y-132710952D02*
X98714286Y-132758571D01*
X99142857Y-133330000D02*
X99047619Y-133377619D01*
X99047619Y-133377619D02*
X98809524Y-133377619D01*
X98809524Y-133377619D02*
X98714286Y-133330000D01*
X98714286Y-133330000D02*
X98666667Y-133234761D01*
X98666667Y-133234761D02*
X98666667Y-133139523D01*
X98666667Y-133139523D02*
X98714286Y-133044285D01*
X98714286Y-133044285D02*
X98809524Y-132996666D01*
X98809524Y-132996666D02*
X99047619Y-132996666D01*
X99047619Y-132996666D02*
X99142857Y-132949047D01*
X99523810Y-132710952D02*
X99761905Y-133377619D01*
X99761905Y-133377619D02*
X100000000Y-132710952D01*
X100761905Y-133330000D02*
X100666667Y-133377619D01*
X100666667Y-133377619D02*
X100476191Y-133377619D01*
X100476191Y-133377619D02*
X100380953Y-133330000D01*
X100380953Y-133330000D02*
X100333334Y-133234761D01*
X100333334Y-133234761D02*
X100333334Y-132853809D01*
X100333334Y-132853809D02*
X100380953Y-132758571D01*
X100380953Y-132758571D02*
X100476191Y-132710952D01*
X100476191Y-132710952D02*
X100666667Y-132710952D01*
X100666667Y-132710952D02*
X100761905Y-132758571D01*
X100761905Y-132758571D02*
X100809524Y-132853809D01*
X100809524Y-132853809D02*
X100809524Y-132949047D01*
X100809524Y-132949047D02*
X100333334Y-133044285D01*
X101190477Y-132472857D02*
X101238096Y-132425238D01*
X101238096Y-132425238D02*
X101333334Y-132377619D01*
X101333334Y-132377619D02*
X101571429Y-132377619D01*
X101571429Y-132377619D02*
X101666667Y-132425238D01*
X101666667Y-132425238D02*
X101714286Y-132472857D01*
X101714286Y-132472857D02*
X101761905Y-132568095D01*
X101761905Y-132568095D02*
X101761905Y-132663333D01*
X101761905Y-132663333D02*
X101714286Y-132806190D01*
X101714286Y-132806190D02*
X101142858Y-133377619D01*
X101142858Y-133377619D02*
X101761905Y-133377619D01*
X166622380Y-103238095D02*
X167622380Y-103238095D01*
X167622380Y-103238095D02*
X167622380Y-103619047D01*
X167622380Y-103619047D02*
X167574761Y-103714285D01*
X167574761Y-103714285D02*
X167527142Y-103761904D01*
X167527142Y-103761904D02*
X167431904Y-103809523D01*
X167431904Y-103809523D02*
X167289047Y-103809523D01*
X167289047Y-103809523D02*
X167193809Y-103761904D01*
X167193809Y-103761904D02*
X167146190Y-103714285D01*
X167146190Y-103714285D02*
X167098571Y-103619047D01*
X167098571Y-103619047D02*
X167098571Y-103238095D01*
X167622380Y-104142857D02*
X166622380Y-104380952D01*
X166622380Y-104380952D02*
X167336666Y-104571428D01*
X167336666Y-104571428D02*
X166622380Y-104761904D01*
X166622380Y-104761904D02*
X167622380Y-105000000D01*
X166622380Y-105380952D02*
X167622380Y-105380952D01*
X167622380Y-105380952D02*
X166908095Y-105714285D01*
X166908095Y-105714285D02*
X167622380Y-106047618D01*
X167622380Y-106047618D02*
X166622380Y-106047618D01*
X166622380Y-107047618D02*
X166622380Y-106476190D01*
X166622380Y-106761904D02*
X167622380Y-106761904D01*
X167622380Y-106761904D02*
X167479523Y-106666666D01*
X167479523Y-106666666D02*
X167384285Y-106571428D01*
X167384285Y-106571428D02*
X167336666Y-106476190D01*
X167670000Y-108190475D02*
X166384285Y-107333333D01*
X167622380Y-108428571D02*
X167622380Y-109047618D01*
X167622380Y-109047618D02*
X167241428Y-108714285D01*
X167241428Y-108714285D02*
X167241428Y-108857142D01*
X167241428Y-108857142D02*
X167193809Y-108952380D01*
X167193809Y-108952380D02*
X167146190Y-108999999D01*
X167146190Y-108999999D02*
X167050952Y-109047618D01*
X167050952Y-109047618D02*
X166812857Y-109047618D01*
X166812857Y-109047618D02*
X166717619Y-108999999D01*
X166717619Y-108999999D02*
X166670000Y-108952380D01*
X166670000Y-108952380D02*
X166622380Y-108857142D01*
X166622380Y-108857142D02*
X166622380Y-108571428D01*
X166622380Y-108571428D02*
X166670000Y-108476190D01*
X166670000Y-108476190D02*
X166717619Y-108428571D01*
X166622380Y-109476190D02*
X167622380Y-109476190D01*
X167622380Y-109476190D02*
X166622380Y-110047618D01*
X166622380Y-110047618D02*
X167622380Y-110047618D01*
X95377619Y-91761904D02*
X94377619Y-91761904D01*
X94377619Y-91761904D02*
X94377619Y-91380952D01*
X94377619Y-91380952D02*
X94425238Y-91285714D01*
X94425238Y-91285714D02*
X94472857Y-91238095D01*
X94472857Y-91238095D02*
X94568095Y-91190476D01*
X94568095Y-91190476D02*
X94710952Y-91190476D01*
X94710952Y-91190476D02*
X94806190Y-91238095D01*
X94806190Y-91238095D02*
X94853809Y-91285714D01*
X94853809Y-91285714D02*
X94901428Y-91380952D01*
X94901428Y-91380952D02*
X94901428Y-91761904D01*
X94377619Y-90857142D02*
X95377619Y-90619047D01*
X95377619Y-90619047D02*
X94663333Y-90428571D01*
X94663333Y-90428571D02*
X95377619Y-90238095D01*
X95377619Y-90238095D02*
X94377619Y-90000000D01*
X95377619Y-89619047D02*
X94377619Y-89619047D01*
X94377619Y-89619047D02*
X95091904Y-89285714D01*
X95091904Y-89285714D02*
X94377619Y-88952381D01*
X94377619Y-88952381D02*
X95377619Y-88952381D01*
X94472857Y-88523809D02*
X94425238Y-88476190D01*
X94425238Y-88476190D02*
X94377619Y-88380952D01*
X94377619Y-88380952D02*
X94377619Y-88142857D01*
X94377619Y-88142857D02*
X94425238Y-88047619D01*
X94425238Y-88047619D02*
X94472857Y-88000000D01*
X94472857Y-88000000D02*
X94568095Y-87952381D01*
X94568095Y-87952381D02*
X94663333Y-87952381D01*
X94663333Y-87952381D02*
X94806190Y-88000000D01*
X94806190Y-88000000D02*
X95377619Y-88571428D01*
X95377619Y-88571428D02*
X95377619Y-87952381D01*
X94330000Y-86809524D02*
X95615714Y-87666666D01*
X95377619Y-85952381D02*
X95377619Y-86523809D01*
X95377619Y-86238095D02*
X94377619Y-86238095D01*
X94377619Y-86238095D02*
X94520476Y-86333333D01*
X94520476Y-86333333D02*
X94615714Y-86428571D01*
X94615714Y-86428571D02*
X94663333Y-86523809D01*
X166622380Y-115238095D02*
X167622380Y-115238095D01*
X167622380Y-115238095D02*
X167622380Y-115619047D01*
X167622380Y-115619047D02*
X167574761Y-115714285D01*
X167574761Y-115714285D02*
X167527142Y-115761904D01*
X167527142Y-115761904D02*
X167431904Y-115809523D01*
X167431904Y-115809523D02*
X167289047Y-115809523D01*
X167289047Y-115809523D02*
X167193809Y-115761904D01*
X167193809Y-115761904D02*
X167146190Y-115714285D01*
X167146190Y-115714285D02*
X167098571Y-115619047D01*
X167098571Y-115619047D02*
X167098571Y-115238095D01*
X167622380Y-116142857D02*
X166622380Y-116380952D01*
X166622380Y-116380952D02*
X167336666Y-116571428D01*
X167336666Y-116571428D02*
X166622380Y-116761904D01*
X166622380Y-116761904D02*
X167622380Y-117000000D01*
X166622380Y-117380952D02*
X167622380Y-117380952D01*
X167622380Y-117380952D02*
X166908095Y-117714285D01*
X166908095Y-117714285D02*
X167622380Y-118047618D01*
X167622380Y-118047618D02*
X166622380Y-118047618D01*
X167193809Y-118666666D02*
X167241428Y-118571428D01*
X167241428Y-118571428D02*
X167289047Y-118523809D01*
X167289047Y-118523809D02*
X167384285Y-118476190D01*
X167384285Y-118476190D02*
X167431904Y-118476190D01*
X167431904Y-118476190D02*
X167527142Y-118523809D01*
X167527142Y-118523809D02*
X167574761Y-118571428D01*
X167574761Y-118571428D02*
X167622380Y-118666666D01*
X167622380Y-118666666D02*
X167622380Y-118857142D01*
X167622380Y-118857142D02*
X167574761Y-118952380D01*
X167574761Y-118952380D02*
X167527142Y-118999999D01*
X167527142Y-118999999D02*
X167431904Y-119047618D01*
X167431904Y-119047618D02*
X167384285Y-119047618D01*
X167384285Y-119047618D02*
X167289047Y-118999999D01*
X167289047Y-118999999D02*
X167241428Y-118952380D01*
X167241428Y-118952380D02*
X167193809Y-118857142D01*
X167193809Y-118857142D02*
X167193809Y-118666666D01*
X167193809Y-118666666D02*
X167146190Y-118571428D01*
X167146190Y-118571428D02*
X167098571Y-118523809D01*
X167098571Y-118523809D02*
X167003333Y-118476190D01*
X167003333Y-118476190D02*
X166812857Y-118476190D01*
X166812857Y-118476190D02*
X166717619Y-118523809D01*
X166717619Y-118523809D02*
X166670000Y-118571428D01*
X166670000Y-118571428D02*
X166622380Y-118666666D01*
X166622380Y-118666666D02*
X166622380Y-118857142D01*
X166622380Y-118857142D02*
X166670000Y-118952380D01*
X166670000Y-118952380D02*
X166717619Y-118999999D01*
X166717619Y-118999999D02*
X166812857Y-119047618D01*
X166812857Y-119047618D02*
X167003333Y-119047618D01*
X167003333Y-119047618D02*
X167098571Y-118999999D01*
X167098571Y-118999999D02*
X167146190Y-118952380D01*
X167146190Y-118952380D02*
X167193809Y-118857142D01*
X167670000Y-120190475D02*
X166384285Y-119333333D01*
X167527142Y-120476190D02*
X167574761Y-120523809D01*
X167574761Y-120523809D02*
X167622380Y-120619047D01*
X167622380Y-120619047D02*
X167622380Y-120857142D01*
X167622380Y-120857142D02*
X167574761Y-120952380D01*
X167574761Y-120952380D02*
X167527142Y-120999999D01*
X167527142Y-120999999D02*
X167431904Y-121047618D01*
X167431904Y-121047618D02*
X167336666Y-121047618D01*
X167336666Y-121047618D02*
X167193809Y-120999999D01*
X167193809Y-120999999D02*
X166622380Y-120428571D01*
X166622380Y-120428571D02*
X166622380Y-121047618D01*
X166622380Y-121476190D02*
X167622380Y-121476190D01*
X167622380Y-121476190D02*
X166622380Y-122047618D01*
X166622380Y-122047618D02*
X167622380Y-122047618D01*
%TO.C,H4*%
X169238095Y-126462619D02*
X169238095Y-125462619D01*
X169238095Y-125938809D02*
X169809523Y-125938809D01*
X169809523Y-126462619D02*
X169809523Y-125462619D01*
X170714285Y-125795952D02*
X170714285Y-126462619D01*
X170476190Y-125415000D02*
X170238095Y-126129285D01*
X170238095Y-126129285D02*
X170857142Y-126129285D01*
%TO.C,H3*%
X89238095Y-126462619D02*
X89238095Y-125462619D01*
X89238095Y-125938809D02*
X89809523Y-125938809D01*
X89809523Y-126462619D02*
X89809523Y-125462619D01*
X90190476Y-125462619D02*
X90809523Y-125462619D01*
X90809523Y-125462619D02*
X90476190Y-125843571D01*
X90476190Y-125843571D02*
X90619047Y-125843571D01*
X90619047Y-125843571D02*
X90714285Y-125891190D01*
X90714285Y-125891190D02*
X90761904Y-125938809D01*
X90761904Y-125938809D02*
X90809523Y-126034047D01*
X90809523Y-126034047D02*
X90809523Y-126272142D01*
X90809523Y-126272142D02*
X90761904Y-126367380D01*
X90761904Y-126367380D02*
X90714285Y-126415000D01*
X90714285Y-126415000D02*
X90619047Y-126462619D01*
X90619047Y-126462619D02*
X90333333Y-126462619D01*
X90333333Y-126462619D02*
X90238095Y-126415000D01*
X90238095Y-126415000D02*
X90190476Y-126367380D01*
%TO.C,H2*%
X169238095Y-56462619D02*
X169238095Y-55462619D01*
X169238095Y-55938809D02*
X169809523Y-55938809D01*
X169809523Y-56462619D02*
X169809523Y-55462619D01*
X170238095Y-55557857D02*
X170285714Y-55510238D01*
X170285714Y-55510238D02*
X170380952Y-55462619D01*
X170380952Y-55462619D02*
X170619047Y-55462619D01*
X170619047Y-55462619D02*
X170714285Y-55510238D01*
X170714285Y-55510238D02*
X170761904Y-55557857D01*
X170761904Y-55557857D02*
X170809523Y-55653095D01*
X170809523Y-55653095D02*
X170809523Y-55748333D01*
X170809523Y-55748333D02*
X170761904Y-55891190D01*
X170761904Y-55891190D02*
X170190476Y-56462619D01*
X170190476Y-56462619D02*
X170809523Y-56462619D01*
%TO.C,H1*%
X89238095Y-56462619D02*
X89238095Y-55462619D01*
X89238095Y-55938809D02*
X89809523Y-55938809D01*
X89809523Y-56462619D02*
X89809523Y-55462619D01*
X90809523Y-56462619D02*
X90238095Y-56462619D01*
X90523809Y-56462619D02*
X90523809Y-55462619D01*
X90523809Y-55462619D02*
X90428571Y-55605476D01*
X90428571Y-55605476D02*
X90333333Y-55700714D01*
X90333333Y-55700714D02*
X90238095Y-55748333D01*
D11*
%TO.C,J1*%
X158850000Y-135750000D02*
X158850000Y-134500000D01*
X158560000Y-135460000D02*
X158560000Y-129490000D01*
X158560000Y-129490000D02*
X143440000Y-129490000D01*
X158550000Y-135450000D02*
X158550000Y-134700000D01*
X158550000Y-134700000D02*
X156750000Y-134700000D01*
X158550000Y-133200000D02*
X157800000Y-133200000D01*
X157800000Y-133200000D02*
X157800000Y-130250000D01*
X157800000Y-130250000D02*
X151000000Y-130250000D01*
X157600000Y-135750000D02*
X158850000Y-135750000D01*
X156750000Y-135450000D02*
X158550000Y-135450000D01*
X156750000Y-134700000D02*
X156750000Y-135450000D01*
X155250000Y-135450000D02*
X155250000Y-134700000D01*
X155250000Y-134700000D02*
X146750000Y-134700000D01*
X146750000Y-135450000D02*
X155250000Y-135450000D01*
X146750000Y-134700000D02*
X146750000Y-135450000D01*
X145250000Y-135450000D02*
X145250000Y-134700000D01*
X145250000Y-134700000D02*
X143450000Y-134700000D01*
X144200000Y-133200000D02*
X144200000Y-130250000D01*
X144200000Y-130250000D02*
X151000000Y-130250000D01*
X143450000Y-135450000D02*
X145250000Y-135450000D01*
X143450000Y-134700000D02*
X143450000Y-135450000D01*
X143450000Y-133200000D02*
X144200000Y-133200000D01*
X143440000Y-135460000D02*
X158560000Y-135460000D01*
X143440000Y-129490000D02*
X143440000Y-135460000D01*
%TO.C,J5*%
X87250000Y-107550000D02*
X88500000Y-107550000D01*
X87540000Y-107260000D02*
X93510000Y-107260000D01*
X93510000Y-107260000D02*
X93510000Y-97140000D01*
X87550000Y-107250000D02*
X88300000Y-107250000D01*
X88300000Y-107250000D02*
X88300000Y-105450000D01*
X89800000Y-107250000D02*
X89800000Y-106500000D01*
X89800000Y-106500000D02*
X92750000Y-106500000D01*
X92750000Y-106500000D02*
X92750000Y-102200000D01*
X87250000Y-106300000D02*
X87250000Y-107550000D01*
X87550000Y-105450000D02*
X87550000Y-107250000D01*
X88300000Y-105450000D02*
X87550000Y-105450000D01*
X87550000Y-103950000D02*
X88300000Y-103950000D01*
X88300000Y-103950000D02*
X88300000Y-100450000D01*
X87550000Y-100450000D02*
X87550000Y-103950000D01*
X88300000Y-100450000D02*
X87550000Y-100450000D01*
X87550000Y-98950000D02*
X88300000Y-98950000D01*
X88300000Y-98950000D02*
X88300000Y-97150000D01*
X89800000Y-97900000D02*
X92750000Y-97900000D01*
X92750000Y-97900000D02*
X92750000Y-102200000D01*
X87550000Y-97150000D02*
X87550000Y-98950000D01*
X88300000Y-97150000D02*
X87550000Y-97150000D01*
X89800000Y-97150000D02*
X89800000Y-97900000D01*
X87540000Y-97140000D02*
X87540000Y-107260000D01*
X93510000Y-97140000D02*
X87540000Y-97140000D01*
%TO.C,J2*%
X118850000Y-135750000D02*
X118850000Y-134500000D01*
X118560000Y-135460000D02*
X118560000Y-129490000D01*
X118560000Y-129490000D02*
X103440000Y-129490000D01*
X118550000Y-135450000D02*
X118550000Y-134700000D01*
X118550000Y-134700000D02*
X116750000Y-134700000D01*
X118550000Y-133200000D02*
X117800000Y-133200000D01*
X117800000Y-133200000D02*
X117800000Y-130250000D01*
X117800000Y-130250000D02*
X111000000Y-130250000D01*
X117600000Y-135750000D02*
X118850000Y-135750000D01*
X116750000Y-135450000D02*
X118550000Y-135450000D01*
X116750000Y-134700000D02*
X116750000Y-135450000D01*
X115250000Y-135450000D02*
X115250000Y-134700000D01*
X115250000Y-134700000D02*
X106750000Y-134700000D01*
X106750000Y-135450000D02*
X115250000Y-135450000D01*
X106750000Y-134700000D02*
X106750000Y-135450000D01*
X105250000Y-135450000D02*
X105250000Y-134700000D01*
X105250000Y-134700000D02*
X103450000Y-134700000D01*
X104200000Y-133200000D02*
X104200000Y-130250000D01*
X104200000Y-130250000D02*
X111000000Y-130250000D01*
X103450000Y-135450000D02*
X105250000Y-135450000D01*
X103450000Y-134700000D02*
X103450000Y-135450000D01*
X103450000Y-133200000D02*
X104200000Y-133200000D01*
X103440000Y-135460000D02*
X118560000Y-135460000D01*
X103440000Y-129490000D02*
X103440000Y-135460000D01*
%TO.C,J8*%
X174750000Y-113150000D02*
X173500000Y-113150000D01*
X174460000Y-113440000D02*
X168490000Y-113440000D01*
X168490000Y-113440000D02*
X168490000Y-123560000D01*
X174450000Y-113450000D02*
X173700000Y-113450000D01*
X173700000Y-113450000D02*
X173700000Y-115250000D01*
X172200000Y-113450000D02*
X172200000Y-114200000D01*
X172200000Y-114200000D02*
X169250000Y-114200000D01*
X169250000Y-114200000D02*
X169250000Y-118500000D01*
X174750000Y-114400000D02*
X174750000Y-113150000D01*
X174450000Y-115250000D02*
X174450000Y-113450000D01*
X173700000Y-115250000D02*
X174450000Y-115250000D01*
X174450000Y-116750000D02*
X173700000Y-116750000D01*
X173700000Y-116750000D02*
X173700000Y-120250000D01*
X174450000Y-120250000D02*
X174450000Y-116750000D01*
X173700000Y-120250000D02*
X174450000Y-120250000D01*
X174450000Y-121750000D02*
X173700000Y-121750000D01*
X173700000Y-121750000D02*
X173700000Y-123550000D01*
X172200000Y-122800000D02*
X169250000Y-122800000D01*
X169250000Y-122800000D02*
X169250000Y-118500000D01*
X174450000Y-123550000D02*
X174450000Y-121750000D01*
X173700000Y-123550000D02*
X174450000Y-123550000D01*
X172200000Y-123550000D02*
X172200000Y-122800000D01*
X174460000Y-123560000D02*
X174460000Y-113440000D01*
X168490000Y-123560000D02*
X174460000Y-123560000D01*
%TO.C,J7*%
X174750000Y-101450000D02*
X173500000Y-101450000D01*
X174460000Y-101740000D02*
X168490000Y-101740000D01*
X168490000Y-101740000D02*
X168490000Y-111860000D01*
X174450000Y-101750000D02*
X173700000Y-101750000D01*
X173700000Y-101750000D02*
X173700000Y-103550000D01*
X172200000Y-101750000D02*
X172200000Y-102500000D01*
X172200000Y-102500000D02*
X169250000Y-102500000D01*
X169250000Y-102500000D02*
X169250000Y-106800000D01*
X174750000Y-102700000D02*
X174750000Y-101450000D01*
X174450000Y-103550000D02*
X174450000Y-101750000D01*
X173700000Y-103550000D02*
X174450000Y-103550000D01*
X174450000Y-105050000D02*
X173700000Y-105050000D01*
X173700000Y-105050000D02*
X173700000Y-108550000D01*
X174450000Y-108550000D02*
X174450000Y-105050000D01*
X173700000Y-108550000D02*
X174450000Y-108550000D01*
X174450000Y-110050000D02*
X173700000Y-110050000D01*
X173700000Y-110050000D02*
X173700000Y-111850000D01*
X172200000Y-111100000D02*
X169250000Y-111100000D01*
X169250000Y-111100000D02*
X169250000Y-106800000D01*
X174450000Y-111850000D02*
X174450000Y-110050000D01*
X173700000Y-111850000D02*
X174450000Y-111850000D01*
X172200000Y-111850000D02*
X172200000Y-111100000D01*
X174460000Y-111860000D02*
X174460000Y-101740000D01*
X168490000Y-111860000D02*
X174460000Y-111860000D01*
%TO.C,J6*%
X87250000Y-123850000D02*
X88500000Y-123850000D01*
X87540000Y-123560000D02*
X93510000Y-123560000D01*
X93510000Y-123560000D02*
X93510000Y-113440000D01*
X87550000Y-123550000D02*
X88300000Y-123550000D01*
X88300000Y-123550000D02*
X88300000Y-121750000D01*
X89800000Y-123550000D02*
X89800000Y-122800000D01*
X89800000Y-122800000D02*
X92750000Y-122800000D01*
X92750000Y-122800000D02*
X92750000Y-118500000D01*
X87250000Y-122600000D02*
X87250000Y-123850000D01*
X87550000Y-121750000D02*
X87550000Y-123550000D01*
X88300000Y-121750000D02*
X87550000Y-121750000D01*
X87550000Y-120250000D02*
X88300000Y-120250000D01*
X88300000Y-120250000D02*
X88300000Y-116750000D01*
X87550000Y-116750000D02*
X87550000Y-120250000D01*
X88300000Y-116750000D02*
X87550000Y-116750000D01*
X87550000Y-115250000D02*
X88300000Y-115250000D01*
X88300000Y-115250000D02*
X88300000Y-113450000D01*
X89800000Y-114200000D02*
X92750000Y-114200000D01*
X92750000Y-114200000D02*
X92750000Y-118500000D01*
X87550000Y-113450000D02*
X87550000Y-115250000D01*
X88300000Y-113450000D02*
X87550000Y-113450000D01*
X89800000Y-113450000D02*
X89800000Y-114200000D01*
X87540000Y-113440000D02*
X87540000Y-123560000D01*
X93510000Y-113440000D02*
X87540000Y-113440000D01*
D12*
%TO.C,U1*%
X96100000Y-123850000D02*
X96100000Y-46350000D01*
X97600000Y-44850000D02*
X164600000Y-44850000D01*
X98120000Y-75320000D02*
X98120000Y-123580000D01*
X98120000Y-123580000D02*
X103120000Y-123580000D01*
X103120000Y-75320000D02*
X98120000Y-75320000D01*
X103120000Y-123580000D02*
X103120000Y-75320000D01*
X107100000Y-125350000D02*
X97600000Y-125350000D01*
X109100000Y-127350000D02*
X107100000Y-125350000D01*
X142100000Y-127350000D02*
X109100000Y-127350000D01*
X144100000Y-125350000D02*
X142100000Y-127350000D01*
X159080000Y-75320000D02*
X159080000Y-123580000D01*
X159080000Y-123580000D02*
X164080000Y-123580000D01*
X164080000Y-75320000D02*
X159080000Y-75320000D01*
X164080000Y-123580000D02*
X164080000Y-75320000D01*
X164600000Y-125350000D02*
X144100000Y-125350000D01*
X166100000Y-46350000D02*
X166100000Y-123850000D01*
X97600000Y-44850000D02*
G75*
G03*
X96100000Y-46350000I1J-1500001D01*
G01*
X96100000Y-123850000D02*
G75*
G03*
X97600000Y-125350000I1500001J1D01*
G01*
X166100000Y-46350000D02*
G75*
G03*
X164600000Y-44850000I-1500000J0D01*
G01*
X164600000Y-125350000D02*
G75*
G03*
X166100000Y-123850000I0J1500000D01*
G01*
D13*
X97700000Y-76590000D02*
G75*
G03*
X97700000Y-76590000I-100000J0D01*
G01*
X158660000Y-76590000D02*
G75*
G03*
X158660000Y-76590000I-100000J0D01*
G01*
D11*
%TO.C,J3*%
X174750000Y-89150000D02*
X173500000Y-89150000D01*
X174460000Y-89440000D02*
X168490000Y-89440000D01*
X168490000Y-89440000D02*
X168490000Y-99560000D01*
X174450000Y-89450000D02*
X173700000Y-89450000D01*
X173700000Y-89450000D02*
X173700000Y-91250000D01*
X172200000Y-89450000D02*
X172200000Y-90200000D01*
X172200000Y-90200000D02*
X169250000Y-90200000D01*
X169250000Y-90200000D02*
X169250000Y-94500000D01*
X174750000Y-90400000D02*
X174750000Y-89150000D01*
X174450000Y-91250000D02*
X174450000Y-89450000D01*
X173700000Y-91250000D02*
X174450000Y-91250000D01*
X174450000Y-92750000D02*
X173700000Y-92750000D01*
X173700000Y-92750000D02*
X173700000Y-96250000D01*
X174450000Y-96250000D02*
X174450000Y-92750000D01*
X173700000Y-96250000D02*
X174450000Y-96250000D01*
X174450000Y-97750000D02*
X173700000Y-97750000D01*
X173700000Y-97750000D02*
X173700000Y-99550000D01*
X172200000Y-98800000D02*
X169250000Y-98800000D01*
X169250000Y-98800000D02*
X169250000Y-94500000D01*
X174450000Y-99550000D02*
X174450000Y-97750000D01*
X173700000Y-99550000D02*
X174450000Y-99550000D01*
X172200000Y-99550000D02*
X172200000Y-98800000D01*
X174460000Y-99560000D02*
X174460000Y-89440000D01*
X168490000Y-99560000D02*
X174460000Y-99560000D01*
%TO.C,J4*%
X87250000Y-94350000D02*
X88500000Y-94350000D01*
X87540000Y-94060000D02*
X93510000Y-94060000D01*
X93510000Y-94060000D02*
X93510000Y-83940000D01*
X87550000Y-94050000D02*
X88300000Y-94050000D01*
X88300000Y-94050000D02*
X88300000Y-92250000D01*
X89800000Y-94050000D02*
X89800000Y-93300000D01*
X89800000Y-93300000D02*
X92750000Y-93300000D01*
X92750000Y-93300000D02*
X92750000Y-89000000D01*
X87250000Y-93100000D02*
X87250000Y-94350000D01*
X87550000Y-92250000D02*
X87550000Y-94050000D01*
X88300000Y-92250000D02*
X87550000Y-92250000D01*
X87550000Y-90750000D02*
X88300000Y-90750000D01*
X88300000Y-90750000D02*
X88300000Y-87250000D01*
X87550000Y-87250000D02*
X87550000Y-90750000D01*
X88300000Y-87250000D02*
X87550000Y-87250000D01*
X87550000Y-85750000D02*
X88300000Y-85750000D01*
X88300000Y-85750000D02*
X88300000Y-83950000D01*
X89800000Y-84700000D02*
X92750000Y-84700000D01*
X92750000Y-84700000D02*
X92750000Y-89000000D01*
X87550000Y-83950000D02*
X87550000Y-85750000D01*
X88300000Y-83950000D02*
X87550000Y-83950000D01*
X89800000Y-83950000D02*
X89800000Y-84700000D01*
X87540000Y-83940000D02*
X87540000Y-94060000D01*
X93510000Y-83940000D02*
X87540000Y-83940000D01*
%TD*%
M02*
