%TF.GenerationSoftware,KiCad,Pcbnew,7.0.1*%
%TF.CreationDate,2024-03-29T14:38:24+01:00*%
%TF.ProjectId,nucleo_expansion,6e75636c-656f-45f6-9578-70616e73696f,Cyril*%
%TF.SameCoordinates,Original*%
%TF.FileFunction,Copper,L1,Top*%
%TF.FilePolarity,Positive*%
%FSLAX46Y46*%
G04 Gerber Fmt 4.6, Leading zero omitted, Abs format (unit mm)*
G04 Created by KiCad (PCBNEW 7.0.1) date 2024-03-29 14:38:24*
%MOMM*%
%LPD*%
G01*
G04 APERTURE LIST*
G04 Aperture macros list*
%AMRoundRect*
0 Rectangle with rounded corners*
0 $1 Rounding radius*
0 $2 $3 $4 $5 $6 $7 $8 $9 X,Y pos of 4 corners*
0 Add a 4 corners polygon primitive as box body*
4,1,4,$2,$3,$4,$5,$6,$7,$8,$9,$2,$3,0*
0 Add four circle primitives for the rounded corners*
1,1,$1+$1,$2,$3*
1,1,$1+$1,$4,$5*
1,1,$1+$1,$6,$7*
1,1,$1+$1,$8,$9*
0 Add four rect primitives between the rounded corners*
20,1,$1+$1,$2,$3,$4,$5,0*
20,1,$1+$1,$4,$5,$6,$7,0*
20,1,$1+$1,$6,$7,$8,$9,0*
20,1,$1+$1,$8,$9,$2,$3,0*%
G04 Aperture macros list end*
%TA.AperFunction,ComponentPad*%
%ADD10RoundRect,0.250000X0.600000X0.725000X-0.600000X0.725000X-0.600000X-0.725000X0.600000X-0.725000X0*%
%TD*%
%TA.AperFunction,ComponentPad*%
%ADD11O,1.700000X1.950000*%
%TD*%
%TA.AperFunction,ComponentPad*%
%ADD12RoundRect,0.250000X0.725000X-0.600000X0.725000X0.600000X-0.725000X0.600000X-0.725000X-0.600000X0*%
%TD*%
%TA.AperFunction,ComponentPad*%
%ADD13O,1.950000X1.700000*%
%TD*%
%TA.AperFunction,ComponentPad*%
%ADD14RoundRect,0.250000X-0.725000X0.600000X-0.725000X-0.600000X0.725000X-0.600000X0.725000X0.600000X0*%
%TD*%
%TA.AperFunction,ComponentPad*%
%ADD15R,1.530000X1.530000*%
%TD*%
%TA.AperFunction,ComponentPad*%
%ADD16C,1.530000*%
%TD*%
%TA.AperFunction,ViaPad*%
%ADD17C,0.800000*%
%TD*%
%TA.AperFunction,Conductor*%
%ADD18C,0.250000*%
%TD*%
G04 APERTURE END LIST*
D10*
%TO.P,J1,1,Pin_1*%
%TO.N,SPI2_SCK*%
X156000000Y-133000000D03*
D11*
%TO.P,J1,2,Pin_2*%
%TO.N,SPI2_MISO*%
X153500000Y-133000000D03*
%TO.P,J1,3,Pin_3*%
%TO.N,SPI2_MOSI*%
X151000000Y-133000000D03*
%TO.P,J1,4,Pin_4*%
%TO.N,SPI2_CS1*%
X148500000Y-133000000D03*
%TO.P,J1,5,Pin_5*%
%TO.N,GND*%
X146000000Y-133000000D03*
%TD*%
D12*
%TO.P,J5,1,Pin_1*%
%TO.N,+5V*%
X90000000Y-104700000D03*
D13*
%TO.P,J5,2,Pin_2*%
%TO.N,PWM4{slash}2*%
X90000000Y-102200000D03*
%TO.P,J5,3,Pin_3*%
%TO.N,GND*%
X90000000Y-99700000D03*
%TD*%
D10*
%TO.P,J2,1,Pin_1*%
%TO.N,SPI2_SCK*%
X116000000Y-133000000D03*
D11*
%TO.P,J2,2,Pin_2*%
%TO.N,SPI2_MISO*%
X113500000Y-133000000D03*
%TO.P,J2,3,Pin_3*%
%TO.N,SPI2_MOSI*%
X111000000Y-133000000D03*
%TO.P,J2,4,Pin_4*%
%TO.N,SPI2_CS2*%
X108500000Y-133000000D03*
%TO.P,J2,5,Pin_5*%
%TO.N,GND*%
X106000000Y-133000000D03*
%TD*%
D14*
%TO.P,J8,1,Pin_1*%
%TO.N,+5V*%
X172000000Y-116000000D03*
D13*
%TO.P,J8,2,Pin_2*%
%TO.N,PWM8{slash}2N*%
X172000000Y-118500000D03*
%TO.P,J8,3,Pin_3*%
%TO.N,GND*%
X172000000Y-121000000D03*
%TD*%
D14*
%TO.P,J7,1,Pin_1*%
%TO.N,+5V*%
X172000000Y-104300000D03*
D13*
%TO.P,J7,2,Pin_2*%
%TO.N,PWM1{slash}3N*%
X172000000Y-106800000D03*
%TO.P,J7,3,Pin_3*%
%TO.N,GND*%
X172000000Y-109300000D03*
%TD*%
D12*
%TO.P,J6,1,Pin_1*%
%TO.N,+5V*%
X90000000Y-121000000D03*
D13*
%TO.P,J6,2,Pin_2*%
%TO.N,PWM1{slash}2N*%
X90000000Y-118500000D03*
%TO.P,J6,3,Pin_3*%
%TO.N,GND*%
X90000000Y-116000000D03*
%TD*%
D15*
%TO.P,U1,CN7_1,PC10*%
%TO.N,unconnected-(U1A-PC10-PadCN7_1)*%
X99350000Y-76590000D03*
D16*
%TO.P,U1,CN7_2,PC11*%
%TO.N,unconnected-(U1A-PC11-PadCN7_2)*%
X101890000Y-76590000D03*
%TO.P,U1,CN7_3,PC12*%
%TO.N,unconnected-(U1A-PC12-PadCN7_3)*%
X99350000Y-79130000D03*
%TO.P,U1,CN7_4,PD2*%
%TO.N,unconnected-(U1A-PD2-PadCN7_4)*%
X101890000Y-79130000D03*
%TO.P,U1,CN7_5,VDD*%
%TO.N,unconnected-(U1A-VDD-PadCN7_5)*%
X99350000Y-81670000D03*
%TO.P,U1,CN7_6,E5V*%
%TO.N,unconnected-(U1A-E5V-PadCN7_6)*%
X101890000Y-81670000D03*
%TO.P,U1,CN7_7,BOOT0*%
%TO.N,unconnected-(U1A-BOOT0-PadCN7_7)*%
X99350000Y-84210000D03*
%TO.P,U1,CN7_8,CN7_GND*%
%TO.N,GND*%
X101890000Y-84210000D03*
%TO.P,U1,CN7_9*%
%TO.N,N/C*%
X99350000Y-86750000D03*
%TO.P,U1,CN7_10*%
X101890000Y-86750000D03*
%TO.P,U1,CN7_11*%
X99350000Y-89290000D03*
%TO.P,U1,CN7_12,CN7_IOREF*%
%TO.N,unconnected-(U1A-CN7_IOREF-PadCN7_12)*%
X101890000Y-89290000D03*
%TO.P,U1,CN7_13,PA13*%
%TO.N,unconnected-(U1A-PA13-PadCN7_13)*%
X99350000Y-91830000D03*
%TO.P,U1,CN7_14,CN7_RESET*%
%TO.N,unconnected-(U1A-CN7_RESET-PadCN7_14)*%
X101890000Y-91830000D03*
%TO.P,U1,CN7_15,PA14*%
%TO.N,unconnected-(U1A-PA14-PadCN7_15)*%
X99350000Y-94370000D03*
%TO.P,U1,CN7_16,CN7_+3V3*%
%TO.N,unconnected-(U1A-CN7_+3V3-PadCN7_16)*%
X101890000Y-94370000D03*
%TO.P,U1,CN7_17,PA15*%
%TO.N,PWM2{slash}1*%
X99350000Y-96910000D03*
%TO.P,U1,CN7_18,CN7_+5V*%
%TO.N,+5V*%
X101890000Y-96910000D03*
%TO.P,U1,CN7_19,CN7_GND*%
%TO.N,GND*%
X99350000Y-99450000D03*
%TO.P,U1,CN7_20,CN7_GND*%
X101890000Y-99450000D03*
%TO.P,U1,CN7_21,PB7*%
%TO.N,PWM4{slash}2*%
X99350000Y-101990000D03*
%TO.P,U1,CN7_22,CN7_GND*%
%TO.N,GND*%
X101890000Y-101990000D03*
%TO.P,U1,CN7_23,PC13*%
%TO.N,unconnected-(U1A-PC13-PadCN7_23)*%
X99350000Y-104530000D03*
%TO.P,U1,CN7_24,CN7_VIN*%
%TO.N,unconnected-(U1A-CN7_VIN-PadCN7_24)*%
X101890000Y-104530000D03*
%TO.P,U1,CN7_25,PC14*%
%TO.N,unconnected-(U1A-PC14-PadCN7_25)*%
X99350000Y-107070000D03*
%TO.P,U1,CN7_26*%
%TO.N,N/C*%
X101890000Y-107070000D03*
%TO.P,U1,CN7_27,PC15*%
%TO.N,unconnected-(U1A-PC15-PadCN7_27)*%
X99350000Y-109610000D03*
%TO.P,U1,CN7_28,PA0*%
%TO.N,unconnected-(U1A-PA0-PadCN7_28)*%
X101890000Y-109610000D03*
%TO.P,U1,CN7_29,PH0*%
%TO.N,unconnected-(U1A-PH0-PadCN7_29)*%
X99350000Y-112150000D03*
%TO.P,U1,CN7_30,PA1*%
%TO.N,unconnected-(U1A-PA1-PadCN7_30)*%
X101890000Y-112150000D03*
%TO.P,U1,CN7_31,PH1*%
%TO.N,unconnected-(U1A-PH1-PadCN7_31)*%
X99350000Y-114690000D03*
%TO.P,U1,CN7_32,PA4*%
%TO.N,unconnected-(U1A-PA4-PadCN7_32)*%
X101890000Y-114690000D03*
%TO.P,U1,CN7_33,VBAT*%
%TO.N,unconnected-(U1A-VBAT-PadCN7_33)*%
X99350000Y-117230000D03*
%TO.P,U1,CN7_34,PB0*%
%TO.N,PWM1{slash}2N*%
X101890000Y-117230000D03*
%TO.P,U1,CN7_35,PC2*%
%TO.N,SPI2_MISO*%
X99350000Y-119770000D03*
%TO.P,U1,CN7_36,PC1/PB9*%
%TO.N,unconnected-(U1A-PC1{slash}PB9-PadCN7_36)*%
X101890000Y-119770000D03*
%TO.P,U1,CN7_37,PC3*%
%TO.N,SPI2_MOSI*%
X99350000Y-122310000D03*
%TO.P,U1,CN7_38,PC0/PB8*%
%TO.N,unconnected-(U1A-PC0{slash}PB8-PadCN7_38)*%
X101890000Y-122310000D03*
D15*
%TO.P,U1,CN10_1,PC9*%
%TO.N,unconnected-(U1B-PC9-PadCN10_1)*%
X160310000Y-76590000D03*
D16*
%TO.P,U1,CN10_2,PC8*%
%TO.N,unconnected-(U1B-PC8-PadCN10_2)*%
X162850000Y-76590000D03*
%TO.P,U1,CN10_3,PB8*%
%TO.N,unconnected-(U1B-PB8-PadCN10_3)*%
X160310000Y-79130000D03*
%TO.P,U1,CN10_4,PC6*%
%TO.N,unconnected-(U1B-PC6-PadCN10_4)*%
X162850000Y-79130000D03*
%TO.P,U1,CN10_5,PB9*%
%TO.N,SPI2_CS2*%
X160310000Y-81670000D03*
%TO.P,U1,CN10_6,PC5*%
%TO.N,UART3_RX*%
X162850000Y-81670000D03*
%TO.P,U1,CN10_7,AVDD*%
%TO.N,unconnected-(U1B-AVDD-PadCN10_7)*%
X160310000Y-84210000D03*
%TO.P,U1,CN10_8,U5V*%
%TO.N,unconnected-(U1B-U5V-PadCN10_8)*%
X162850000Y-84210000D03*
%TO.P,U1,CN10_9,CN10_GND*%
%TO.N,GND*%
X160310000Y-86750000D03*
%TO.P,U1,CN10_10*%
%TO.N,N/C*%
X162850000Y-86750000D03*
%TO.P,U1,CN10_11,PA5*%
%TO.N,unconnected-(U1B-PA5-PadCN10_11)*%
X160310000Y-89290000D03*
%TO.P,U1,CN10_12,PA12*%
%TO.N,unconnected-(U1B-PA12-PadCN10_12)*%
X162850000Y-89290000D03*
%TO.P,U1,CN10_13,PA6*%
%TO.N,unconnected-(U1B-PA6-PadCN10_13)*%
X160310000Y-91830000D03*
%TO.P,U1,CN10_14,PA11*%
%TO.N,unconnected-(U1B-PA11-PadCN10_14)*%
X162850000Y-91830000D03*
%TO.P,U1,CN10_15,PA7*%
%TO.N,unconnected-(U1B-PA7-PadCN10_15)*%
X160310000Y-94370000D03*
%TO.P,U1,CN10_16,PB12*%
%TO.N,SPI2_CS1*%
X162850000Y-94370000D03*
%TO.P,U1,CN10_17,PB6*%
%TO.N,unconnected-(U1B-PB6-PadCN10_17)*%
X160310000Y-96910000D03*
%TO.P,U1,CN10_18*%
%TO.N,N/C*%
X162850000Y-96910000D03*
%TO.P,U1,CN10_19,PC7*%
%TO.N,SPI2_SCK*%
X160310000Y-99450000D03*
%TO.P,U1,CN10_20,CN10_GND*%
%TO.N,GND*%
X162850000Y-99450000D03*
%TO.P,U1,CN10_21,PA9*%
%TO.N,unconnected-(U1B-PA9-PadCN10_21)*%
X160310000Y-101990000D03*
%TO.P,U1,CN10_22,PB2*%
%TO.N,unconnected-(U1B-PB2-PadCN10_22)*%
X162850000Y-101990000D03*
%TO.P,U1,CN10_23,PA8*%
%TO.N,unconnected-(U1B-PA8-PadCN10_23)*%
X160310000Y-104530000D03*
%TO.P,U1,CN10_24,PB1*%
%TO.N,unconnected-(U1B-PB1-PadCN10_24)*%
X162850000Y-104530000D03*
%TO.P,U1,CN10_25,PB10*%
%TO.N,UART3_TX*%
X160310000Y-107070000D03*
%TO.P,U1,CN10_26,PB15*%
%TO.N,PWM1{slash}3N*%
X162850000Y-107070000D03*
%TO.P,U1,CN10_27,PB4*%
%TO.N,unconnected-(U1B-PB4-PadCN10_27)*%
X160310000Y-109610000D03*
%TO.P,U1,CN10_28,PB14*%
%TO.N,PWM8{slash}2N*%
X162850000Y-109610000D03*
%TO.P,U1,CN10_29,PB5*%
%TO.N,unconnected-(U1B-PB5-PadCN10_29)*%
X160310000Y-112150000D03*
%TO.P,U1,CN10_30,PB13*%
%TO.N,unconnected-(U1B-PB13-PadCN10_30)*%
X162850000Y-112150000D03*
%TO.P,U1,CN10_31,PB3*%
%TO.N,unconnected-(U1B-PB3-PadCN10_31)*%
X160310000Y-114690000D03*
%TO.P,U1,CN10_32,AGND*%
%TO.N,GND*%
X162850000Y-114690000D03*
%TO.P,U1,CN10_33,PA10*%
%TO.N,unconnected-(U1B-PA10-PadCN10_33)*%
X160310000Y-117230000D03*
%TO.P,U1,CN10_34,PC4*%
%TO.N,unconnected-(U1B-PC4-PadCN10_34)*%
X162850000Y-117230000D03*
%TO.P,U1,CN10_35,PA2*%
%TO.N,unconnected-(U1B-PA2-PadCN10_35)*%
X160310000Y-119770000D03*
%TO.P,U1,CN10_36*%
%TO.N,N/C*%
X162850000Y-119770000D03*
%TO.P,U1,CN10_37,PA3*%
%TO.N,unconnected-(U1B-PA3-PadCN10_37)*%
X160310000Y-122310000D03*
%TO.P,U1,CN10_38*%
%TO.N,N/C*%
X162850000Y-122310000D03*
%TD*%
D14*
%TO.P,J3,1,Pin_1*%
%TO.N,UART3_RX*%
X172000000Y-92000000D03*
D13*
%TO.P,J3,2,Pin_2*%
%TO.N,UART3_TX*%
X172000000Y-94500000D03*
%TO.P,J3,3,Pin_3*%
%TO.N,GND*%
X172000000Y-97000000D03*
%TD*%
D12*
%TO.P,J4,1,Pin_1*%
%TO.N,+5V*%
X90000000Y-91500000D03*
D13*
%TO.P,J4,2,Pin_2*%
%TO.N,PWM2{slash}1*%
X90000000Y-89000000D03*
%TO.P,J4,3,Pin_3*%
%TO.N,GND*%
X90000000Y-86500000D03*
%TD*%
D17*
%TO.N,+5V*%
X165290000Y-98360000D03*
%TD*%
D18*
%TO.N,SPI2_SCK*%
X156000000Y-103760000D02*
X160310000Y-99450000D01*
X156000000Y-133000000D02*
X156000000Y-103760000D01*
X154700000Y-131700000D02*
X156000000Y-133000000D01*
X117300000Y-131700000D02*
X154700000Y-131700000D01*
X116000000Y-133000000D02*
X117300000Y-131700000D01*
%TO.N,SPI2_MISO*%
X100580000Y-121000000D02*
X99350000Y-119770000D01*
X113500000Y-132025000D02*
X102475000Y-121000000D01*
X102475000Y-121000000D02*
X100580000Y-121000000D01*
X113500000Y-133000000D02*
X113500000Y-132025000D01*
%TO.N,SPI2_MOSI*%
X149700000Y-134300000D02*
X151000000Y-133000000D01*
X112300000Y-134300000D02*
X149700000Y-134300000D01*
X111000000Y-133000000D02*
X100310000Y-122310000D01*
X111000000Y-133000000D02*
X112300000Y-134300000D01*
X100310000Y-122310000D02*
X99350000Y-122310000D01*
%TO.N,UART3_RX*%
X172000000Y-90820000D02*
X162850000Y-81670000D01*
X172000000Y-92000000D02*
X172000000Y-90820000D01*
%TO.N,UART3_TX*%
X161400000Y-101600000D02*
X161400000Y-105980000D01*
X165960000Y-100540000D02*
X162460000Y-100540000D01*
X161400000Y-105980000D02*
X160310000Y-107070000D01*
X162460000Y-100540000D02*
X161400000Y-101600000D01*
X172000000Y-94500000D02*
X165960000Y-100540000D01*
%TO.N,+5V*%
X103340000Y-98360000D02*
X101890000Y-96910000D01*
X165290000Y-98360000D02*
X103340000Y-98360000D01*
%TO.N,PWM2{slash}1*%
X91440000Y-89000000D02*
X99350000Y-96910000D01*
X90000000Y-89000000D02*
X91440000Y-89000000D01*
%TO.N,PWM4{slash}2*%
X90000000Y-102200000D02*
X99140000Y-102200000D01*
X99140000Y-102200000D02*
X99350000Y-101990000D01*
%TO.N,PWM1{slash}2N*%
X90000000Y-118500000D02*
X100620000Y-118500000D01*
X100620000Y-118500000D02*
X101890000Y-117230000D01*
%TO.N,PWM1{slash}3N*%
X172000000Y-106800000D02*
X163120000Y-106800000D01*
X163120000Y-106800000D02*
X162850000Y-107070000D01*
%TO.N,PWM8{slash}2N*%
X171740000Y-118500000D02*
X162850000Y-109610000D01*
X172000000Y-118500000D02*
X171740000Y-118500000D01*
%TD*%
M02*
