%TF.GenerationSoftware,KiCad,Pcbnew,7.0.6*%
%TF.CreationDate,2024-02-08T22:19:59+01:00*%
%TF.ProjectId,power_supply_5V,706f7765-725f-4737-9570-706c795f3556,Cyril_ Eliott*%
%TF.SameCoordinates,Original*%
%TF.FileFunction,Copper,L1,Top*%
%TF.FilePolarity,Positive*%
%FSLAX46Y46*%
G04 Gerber Fmt 4.6, Leading zero omitted, Abs format (unit mm)*
G04 Created by KiCad (PCBNEW 7.0.6) date 2024-02-08 22:19:59*
%MOMM*%
%LPD*%
G01*
G04 APERTURE LIST*
G04 Aperture macros list*
%AMRoundRect*
0 Rectangle with rounded corners*
0 $1 Rounding radius*
0 $2 $3 $4 $5 $6 $7 $8 $9 X,Y pos of 4 corners*
0 Add a 4 corners polygon primitive as box body*
4,1,4,$2,$3,$4,$5,$6,$7,$8,$9,$2,$3,0*
0 Add four circle primitives for the rounded corners*
1,1,$1+$1,$2,$3*
1,1,$1+$1,$4,$5*
1,1,$1+$1,$6,$7*
1,1,$1+$1,$8,$9*
0 Add four rect primitives between the rounded corners*
20,1,$1+$1,$2,$3,$4,$5,0*
20,1,$1+$1,$4,$5,$6,$7,0*
20,1,$1+$1,$6,$7,$8,$9,0*
20,1,$1+$1,$8,$9,$2,$3,0*%
G04 Aperture macros list end*
%ADD10C,0.100000*%
%ADD11C,0.150000*%
%ADD12C,0.300000*%
%ADD13C,0.400000*%
%TA.AperFunction,ComponentPad*%
%ADD14R,3.716000X3.716000*%
%TD*%
%TA.AperFunction,ComponentPad*%
%ADD15C,3.716000*%
%TD*%
%TA.AperFunction,ComponentPad*%
%ADD16O,1.200000X2.400000*%
%TD*%
%TA.AperFunction,ComponentPad*%
%ADD17RoundRect,0.250000X-0.750000X0.600000X-0.750000X-0.600000X0.750000X-0.600000X0.750000X0.600000X0*%
%TD*%
%TA.AperFunction,ComponentPad*%
%ADD18O,2.000000X1.700000*%
%TD*%
%TA.AperFunction,ComponentPad*%
%ADD19RoundRect,0.250000X0.600000X0.750000X-0.600000X0.750000X-0.600000X-0.750000X0.600000X-0.750000X0*%
%TD*%
%TA.AperFunction,ComponentPad*%
%ADD20O,1.700000X2.000000*%
%TD*%
%TA.AperFunction,ComponentPad*%
%ADD21R,1.524000X1.524000*%
%TD*%
%TA.AperFunction,SMDPad,CuDef*%
%ADD22RoundRect,0.250001X1.262499X1.974999X-1.262499X1.974999X-1.262499X-1.974999X1.262499X-1.974999X0*%
%TD*%
%TA.AperFunction,ComponentPad*%
%ADD23R,1.800000X1.800000*%
%TD*%
%TA.AperFunction,ComponentPad*%
%ADD24C,1.800000*%
%TD*%
%TA.AperFunction,ComponentPad*%
%ADD25C,1.560000*%
%TD*%
%TA.AperFunction,ComponentPad*%
%ADD26R,3.500000X3.500000*%
%TD*%
%TA.AperFunction,ComponentPad*%
%ADD27RoundRect,0.750000X-0.750000X-1.000000X0.750000X-1.000000X0.750000X1.000000X-0.750000X1.000000X0*%
%TD*%
%TA.AperFunction,ComponentPad*%
%ADD28RoundRect,0.875000X-0.875000X-0.875000X0.875000X-0.875000X0.875000X0.875000X-0.875000X0.875000X0*%
%TD*%
%TA.AperFunction,Conductor*%
%ADD29C,1.800000*%
%TD*%
%TA.AperFunction,Conductor*%
%ADD30C,0.900000*%
%TD*%
%TA.AperFunction,Conductor*%
%ADD31C,0.400000*%
%TD*%
G04 APERTURE END LIST*
D10*
D11*
X177002200Y-166007200D02*
X285002200Y-166007200D01*
X285002200Y-198007200D01*
X177002200Y-198007200D01*
X177002200Y-166007200D01*
D10*
D11*
X10000000Y-10000000D02*
X287002200Y-10000000D01*
X287002200Y-200007200D01*
X10000000Y-200007200D01*
X10000000Y-10000000D01*
D10*
D11*
X12000000Y-12000000D02*
X285002200Y-12000000D01*
X285002200Y-198007200D01*
X12000000Y-198007200D01*
X12000000Y-12000000D01*
D10*
D11*
X60000000Y-12000000D02*
X60000000Y-10000000D01*
D10*
D11*
X110000000Y-12000000D02*
X110000000Y-10000000D01*
D10*
D11*
X160000000Y-12000000D02*
X160000000Y-10000000D01*
D10*
D11*
X210000000Y-12000000D02*
X210000000Y-10000000D01*
D10*
D11*
X260000000Y-12000000D02*
X260000000Y-10000000D01*
D10*
D11*
X36089160Y-11593604D02*
X35346303Y-11593604D01*
X35717731Y-11593604D02*
X35717731Y-10293604D01*
X35717731Y-10293604D02*
X35593922Y-10479319D01*
X35593922Y-10479319D02*
X35470112Y-10603128D01*
X35470112Y-10603128D02*
X35346303Y-10665033D01*
D10*
D11*
X85346303Y-10417414D02*
X85408207Y-10355509D01*
X85408207Y-10355509D02*
X85532017Y-10293604D01*
X85532017Y-10293604D02*
X85841541Y-10293604D01*
X85841541Y-10293604D02*
X85965350Y-10355509D01*
X85965350Y-10355509D02*
X86027255Y-10417414D01*
X86027255Y-10417414D02*
X86089160Y-10541223D01*
X86089160Y-10541223D02*
X86089160Y-10665033D01*
X86089160Y-10665033D02*
X86027255Y-10850747D01*
X86027255Y-10850747D02*
X85284398Y-11593604D01*
X85284398Y-11593604D02*
X86089160Y-11593604D01*
D10*
D11*
X135284398Y-10293604D02*
X136089160Y-10293604D01*
X136089160Y-10293604D02*
X135655826Y-10788842D01*
X135655826Y-10788842D02*
X135841541Y-10788842D01*
X135841541Y-10788842D02*
X135965350Y-10850747D01*
X135965350Y-10850747D02*
X136027255Y-10912652D01*
X136027255Y-10912652D02*
X136089160Y-11036461D01*
X136089160Y-11036461D02*
X136089160Y-11345985D01*
X136089160Y-11345985D02*
X136027255Y-11469795D01*
X136027255Y-11469795D02*
X135965350Y-11531700D01*
X135965350Y-11531700D02*
X135841541Y-11593604D01*
X135841541Y-11593604D02*
X135470112Y-11593604D01*
X135470112Y-11593604D02*
X135346303Y-11531700D01*
X135346303Y-11531700D02*
X135284398Y-11469795D01*
D10*
D11*
X185965350Y-10726938D02*
X185965350Y-11593604D01*
X185655826Y-10231700D02*
X185346303Y-11160271D01*
X185346303Y-11160271D02*
X186151064Y-11160271D01*
D10*
D11*
X236027255Y-10293604D02*
X235408207Y-10293604D01*
X235408207Y-10293604D02*
X235346303Y-10912652D01*
X235346303Y-10912652D02*
X235408207Y-10850747D01*
X235408207Y-10850747D02*
X235532017Y-10788842D01*
X235532017Y-10788842D02*
X235841541Y-10788842D01*
X235841541Y-10788842D02*
X235965350Y-10850747D01*
X235965350Y-10850747D02*
X236027255Y-10912652D01*
X236027255Y-10912652D02*
X236089160Y-11036461D01*
X236089160Y-11036461D02*
X236089160Y-11345985D01*
X236089160Y-11345985D02*
X236027255Y-11469795D01*
X236027255Y-11469795D02*
X235965350Y-11531700D01*
X235965350Y-11531700D02*
X235841541Y-11593604D01*
X235841541Y-11593604D02*
X235532017Y-11593604D01*
X235532017Y-11593604D02*
X235408207Y-11531700D01*
X235408207Y-11531700D02*
X235346303Y-11469795D01*
D10*
D11*
X285965350Y-10293604D02*
X285717731Y-10293604D01*
X285717731Y-10293604D02*
X285593922Y-10355509D01*
X285593922Y-10355509D02*
X285532017Y-10417414D01*
X285532017Y-10417414D02*
X285408207Y-10603128D01*
X285408207Y-10603128D02*
X285346303Y-10850747D01*
X285346303Y-10850747D02*
X285346303Y-11345985D01*
X285346303Y-11345985D02*
X285408207Y-11469795D01*
X285408207Y-11469795D02*
X285470112Y-11531700D01*
X285470112Y-11531700D02*
X285593922Y-11593604D01*
X285593922Y-11593604D02*
X285841541Y-11593604D01*
X285841541Y-11593604D02*
X285965350Y-11531700D01*
X285965350Y-11531700D02*
X286027255Y-11469795D01*
X286027255Y-11469795D02*
X286089160Y-11345985D01*
X286089160Y-11345985D02*
X286089160Y-11036461D01*
X286089160Y-11036461D02*
X286027255Y-10912652D01*
X286027255Y-10912652D02*
X285965350Y-10850747D01*
X285965350Y-10850747D02*
X285841541Y-10788842D01*
X285841541Y-10788842D02*
X285593922Y-10788842D01*
X285593922Y-10788842D02*
X285470112Y-10850747D01*
X285470112Y-10850747D02*
X285408207Y-10912652D01*
X285408207Y-10912652D02*
X285346303Y-11036461D01*
D10*
D11*
X60000000Y-198007200D02*
X60000000Y-200007200D01*
D10*
D11*
X110000000Y-198007200D02*
X110000000Y-200007200D01*
D10*
D11*
X160000000Y-198007200D02*
X160000000Y-200007200D01*
D10*
D11*
X210000000Y-198007200D02*
X210000000Y-200007200D01*
D10*
D11*
X260000000Y-198007200D02*
X260000000Y-200007200D01*
D10*
D11*
X36089160Y-199600804D02*
X35346303Y-199600804D01*
X35717731Y-199600804D02*
X35717731Y-198300804D01*
X35717731Y-198300804D02*
X35593922Y-198486519D01*
X35593922Y-198486519D02*
X35470112Y-198610328D01*
X35470112Y-198610328D02*
X35346303Y-198672233D01*
D10*
D11*
X85346303Y-198424614D02*
X85408207Y-198362709D01*
X85408207Y-198362709D02*
X85532017Y-198300804D01*
X85532017Y-198300804D02*
X85841541Y-198300804D01*
X85841541Y-198300804D02*
X85965350Y-198362709D01*
X85965350Y-198362709D02*
X86027255Y-198424614D01*
X86027255Y-198424614D02*
X86089160Y-198548423D01*
X86089160Y-198548423D02*
X86089160Y-198672233D01*
X86089160Y-198672233D02*
X86027255Y-198857947D01*
X86027255Y-198857947D02*
X85284398Y-199600804D01*
X85284398Y-199600804D02*
X86089160Y-199600804D01*
D10*
D11*
X135284398Y-198300804D02*
X136089160Y-198300804D01*
X136089160Y-198300804D02*
X135655826Y-198796042D01*
X135655826Y-198796042D02*
X135841541Y-198796042D01*
X135841541Y-198796042D02*
X135965350Y-198857947D01*
X135965350Y-198857947D02*
X136027255Y-198919852D01*
X136027255Y-198919852D02*
X136089160Y-199043661D01*
X136089160Y-199043661D02*
X136089160Y-199353185D01*
X136089160Y-199353185D02*
X136027255Y-199476995D01*
X136027255Y-199476995D02*
X135965350Y-199538900D01*
X135965350Y-199538900D02*
X135841541Y-199600804D01*
X135841541Y-199600804D02*
X135470112Y-199600804D01*
X135470112Y-199600804D02*
X135346303Y-199538900D01*
X135346303Y-199538900D02*
X135284398Y-199476995D01*
D10*
D11*
X185965350Y-198734138D02*
X185965350Y-199600804D01*
X185655826Y-198238900D02*
X185346303Y-199167471D01*
X185346303Y-199167471D02*
X186151064Y-199167471D01*
D10*
D11*
X236027255Y-198300804D02*
X235408207Y-198300804D01*
X235408207Y-198300804D02*
X235346303Y-198919852D01*
X235346303Y-198919852D02*
X235408207Y-198857947D01*
X235408207Y-198857947D02*
X235532017Y-198796042D01*
X235532017Y-198796042D02*
X235841541Y-198796042D01*
X235841541Y-198796042D02*
X235965350Y-198857947D01*
X235965350Y-198857947D02*
X236027255Y-198919852D01*
X236027255Y-198919852D02*
X236089160Y-199043661D01*
X236089160Y-199043661D02*
X236089160Y-199353185D01*
X236089160Y-199353185D02*
X236027255Y-199476995D01*
X236027255Y-199476995D02*
X235965350Y-199538900D01*
X235965350Y-199538900D02*
X235841541Y-199600804D01*
X235841541Y-199600804D02*
X235532017Y-199600804D01*
X235532017Y-199600804D02*
X235408207Y-199538900D01*
X235408207Y-199538900D02*
X235346303Y-199476995D01*
D10*
D11*
X285965350Y-198300804D02*
X285717731Y-198300804D01*
X285717731Y-198300804D02*
X285593922Y-198362709D01*
X285593922Y-198362709D02*
X285532017Y-198424614D01*
X285532017Y-198424614D02*
X285408207Y-198610328D01*
X285408207Y-198610328D02*
X285346303Y-198857947D01*
X285346303Y-198857947D02*
X285346303Y-199353185D01*
X285346303Y-199353185D02*
X285408207Y-199476995D01*
X285408207Y-199476995D02*
X285470112Y-199538900D01*
X285470112Y-199538900D02*
X285593922Y-199600804D01*
X285593922Y-199600804D02*
X285841541Y-199600804D01*
X285841541Y-199600804D02*
X285965350Y-199538900D01*
X285965350Y-199538900D02*
X286027255Y-199476995D01*
X286027255Y-199476995D02*
X286089160Y-199353185D01*
X286089160Y-199353185D02*
X286089160Y-199043661D01*
X286089160Y-199043661D02*
X286027255Y-198919852D01*
X286027255Y-198919852D02*
X285965350Y-198857947D01*
X285965350Y-198857947D02*
X285841541Y-198796042D01*
X285841541Y-198796042D02*
X285593922Y-198796042D01*
X285593922Y-198796042D02*
X285470112Y-198857947D01*
X285470112Y-198857947D02*
X285408207Y-198919852D01*
X285408207Y-198919852D02*
X285346303Y-199043661D01*
D10*
D11*
X10000000Y-60000000D02*
X12000000Y-60000000D01*
D10*
D11*
X10000000Y-110000000D02*
X12000000Y-110000000D01*
D10*
D11*
X10000000Y-160000000D02*
X12000000Y-160000000D01*
D10*
D11*
X10690476Y-35222176D02*
X11309523Y-35222176D01*
X10566666Y-35593604D02*
X10999999Y-34293604D01*
X10999999Y-34293604D02*
X11433333Y-35593604D01*
D10*
D11*
X11092857Y-84912652D02*
X11278571Y-84974557D01*
X11278571Y-84974557D02*
X11340476Y-85036461D01*
X11340476Y-85036461D02*
X11402380Y-85160271D01*
X11402380Y-85160271D02*
X11402380Y-85345985D01*
X11402380Y-85345985D02*
X11340476Y-85469795D01*
X11340476Y-85469795D02*
X11278571Y-85531700D01*
X11278571Y-85531700D02*
X11154761Y-85593604D01*
X11154761Y-85593604D02*
X10659523Y-85593604D01*
X10659523Y-85593604D02*
X10659523Y-84293604D01*
X10659523Y-84293604D02*
X11092857Y-84293604D01*
X11092857Y-84293604D02*
X11216666Y-84355509D01*
X11216666Y-84355509D02*
X11278571Y-84417414D01*
X11278571Y-84417414D02*
X11340476Y-84541223D01*
X11340476Y-84541223D02*
X11340476Y-84665033D01*
X11340476Y-84665033D02*
X11278571Y-84788842D01*
X11278571Y-84788842D02*
X11216666Y-84850747D01*
X11216666Y-84850747D02*
X11092857Y-84912652D01*
X11092857Y-84912652D02*
X10659523Y-84912652D01*
D10*
D11*
X11402380Y-135469795D02*
X11340476Y-135531700D01*
X11340476Y-135531700D02*
X11154761Y-135593604D01*
X11154761Y-135593604D02*
X11030952Y-135593604D01*
X11030952Y-135593604D02*
X10845238Y-135531700D01*
X10845238Y-135531700D02*
X10721428Y-135407890D01*
X10721428Y-135407890D02*
X10659523Y-135284080D01*
X10659523Y-135284080D02*
X10597619Y-135036461D01*
X10597619Y-135036461D02*
X10597619Y-134850747D01*
X10597619Y-134850747D02*
X10659523Y-134603128D01*
X10659523Y-134603128D02*
X10721428Y-134479319D01*
X10721428Y-134479319D02*
X10845238Y-134355509D01*
X10845238Y-134355509D02*
X11030952Y-134293604D01*
X11030952Y-134293604D02*
X11154761Y-134293604D01*
X11154761Y-134293604D02*
X11340476Y-134355509D01*
X11340476Y-134355509D02*
X11402380Y-134417414D01*
D10*
D11*
X10659523Y-185593604D02*
X10659523Y-184293604D01*
X10659523Y-184293604D02*
X10969047Y-184293604D01*
X10969047Y-184293604D02*
X11154761Y-184355509D01*
X11154761Y-184355509D02*
X11278571Y-184479319D01*
X11278571Y-184479319D02*
X11340476Y-184603128D01*
X11340476Y-184603128D02*
X11402380Y-184850747D01*
X11402380Y-184850747D02*
X11402380Y-185036461D01*
X11402380Y-185036461D02*
X11340476Y-185284080D01*
X11340476Y-185284080D02*
X11278571Y-185407890D01*
X11278571Y-185407890D02*
X11154761Y-185531700D01*
X11154761Y-185531700D02*
X10969047Y-185593604D01*
X10969047Y-185593604D02*
X10659523Y-185593604D01*
D10*
D11*
X287002200Y-60000000D02*
X285002200Y-60000000D01*
D10*
D11*
X287002200Y-110000000D02*
X285002200Y-110000000D01*
D10*
D11*
X287002200Y-160000000D02*
X285002200Y-160000000D01*
D10*
D11*
X285692676Y-35222176D02*
X286311723Y-35222176D01*
X285568866Y-35593604D02*
X286002199Y-34293604D01*
X286002199Y-34293604D02*
X286435533Y-35593604D01*
D10*
D11*
X286095057Y-84912652D02*
X286280771Y-84974557D01*
X286280771Y-84974557D02*
X286342676Y-85036461D01*
X286342676Y-85036461D02*
X286404580Y-85160271D01*
X286404580Y-85160271D02*
X286404580Y-85345985D01*
X286404580Y-85345985D02*
X286342676Y-85469795D01*
X286342676Y-85469795D02*
X286280771Y-85531700D01*
X286280771Y-85531700D02*
X286156961Y-85593604D01*
X286156961Y-85593604D02*
X285661723Y-85593604D01*
X285661723Y-85593604D02*
X285661723Y-84293604D01*
X285661723Y-84293604D02*
X286095057Y-84293604D01*
X286095057Y-84293604D02*
X286218866Y-84355509D01*
X286218866Y-84355509D02*
X286280771Y-84417414D01*
X286280771Y-84417414D02*
X286342676Y-84541223D01*
X286342676Y-84541223D02*
X286342676Y-84665033D01*
X286342676Y-84665033D02*
X286280771Y-84788842D01*
X286280771Y-84788842D02*
X286218866Y-84850747D01*
X286218866Y-84850747D02*
X286095057Y-84912652D01*
X286095057Y-84912652D02*
X285661723Y-84912652D01*
D10*
D11*
X286404580Y-135469795D02*
X286342676Y-135531700D01*
X286342676Y-135531700D02*
X286156961Y-135593604D01*
X286156961Y-135593604D02*
X286033152Y-135593604D01*
X286033152Y-135593604D02*
X285847438Y-135531700D01*
X285847438Y-135531700D02*
X285723628Y-135407890D01*
X285723628Y-135407890D02*
X285661723Y-135284080D01*
X285661723Y-135284080D02*
X285599819Y-135036461D01*
X285599819Y-135036461D02*
X285599819Y-134850747D01*
X285599819Y-134850747D02*
X285661723Y-134603128D01*
X285661723Y-134603128D02*
X285723628Y-134479319D01*
X285723628Y-134479319D02*
X285847438Y-134355509D01*
X285847438Y-134355509D02*
X286033152Y-134293604D01*
X286033152Y-134293604D02*
X286156961Y-134293604D01*
X286156961Y-134293604D02*
X286342676Y-134355509D01*
X286342676Y-134355509D02*
X286404580Y-134417414D01*
D10*
D11*
X285661723Y-185593604D02*
X285661723Y-184293604D01*
X285661723Y-184293604D02*
X285971247Y-184293604D01*
X285971247Y-184293604D02*
X286156961Y-184355509D01*
X286156961Y-184355509D02*
X286280771Y-184479319D01*
X286280771Y-184479319D02*
X286342676Y-184603128D01*
X286342676Y-184603128D02*
X286404580Y-184850747D01*
X286404580Y-184850747D02*
X286404580Y-185036461D01*
X286404580Y-185036461D02*
X286342676Y-185284080D01*
X286342676Y-185284080D02*
X286280771Y-185407890D01*
X286280771Y-185407890D02*
X286156961Y-185531700D01*
X286156961Y-185531700D02*
X285971247Y-185593604D01*
X285971247Y-185593604D02*
X285661723Y-185593604D01*
D10*
D11*
X200458026Y-193793328D02*
X200458026Y-192293328D01*
X200458026Y-192293328D02*
X200815169Y-192293328D01*
X200815169Y-192293328D02*
X201029455Y-192364757D01*
X201029455Y-192364757D02*
X201172312Y-192507614D01*
X201172312Y-192507614D02*
X201243741Y-192650471D01*
X201243741Y-192650471D02*
X201315169Y-192936185D01*
X201315169Y-192936185D02*
X201315169Y-193150471D01*
X201315169Y-193150471D02*
X201243741Y-193436185D01*
X201243741Y-193436185D02*
X201172312Y-193579042D01*
X201172312Y-193579042D02*
X201029455Y-193721900D01*
X201029455Y-193721900D02*
X200815169Y-193793328D01*
X200815169Y-193793328D02*
X200458026Y-193793328D01*
X202600884Y-193793328D02*
X202600884Y-193007614D01*
X202600884Y-193007614D02*
X202529455Y-192864757D01*
X202529455Y-192864757D02*
X202386598Y-192793328D01*
X202386598Y-192793328D02*
X202100884Y-192793328D01*
X202100884Y-192793328D02*
X201958026Y-192864757D01*
X202600884Y-193721900D02*
X202458026Y-193793328D01*
X202458026Y-193793328D02*
X202100884Y-193793328D01*
X202100884Y-193793328D02*
X201958026Y-193721900D01*
X201958026Y-193721900D02*
X201886598Y-193579042D01*
X201886598Y-193579042D02*
X201886598Y-193436185D01*
X201886598Y-193436185D02*
X201958026Y-193293328D01*
X201958026Y-193293328D02*
X202100884Y-193221900D01*
X202100884Y-193221900D02*
X202458026Y-193221900D01*
X202458026Y-193221900D02*
X202600884Y-193150471D01*
X203100884Y-192793328D02*
X203672312Y-192793328D01*
X203315169Y-192293328D02*
X203315169Y-193579042D01*
X203315169Y-193579042D02*
X203386598Y-193721900D01*
X203386598Y-193721900D02*
X203529455Y-193793328D01*
X203529455Y-193793328D02*
X203672312Y-193793328D01*
X204743741Y-193721900D02*
X204600884Y-193793328D01*
X204600884Y-193793328D02*
X204315170Y-193793328D01*
X204315170Y-193793328D02*
X204172312Y-193721900D01*
X204172312Y-193721900D02*
X204100884Y-193579042D01*
X204100884Y-193579042D02*
X204100884Y-193007614D01*
X204100884Y-193007614D02*
X204172312Y-192864757D01*
X204172312Y-192864757D02*
X204315170Y-192793328D01*
X204315170Y-192793328D02*
X204600884Y-192793328D01*
X204600884Y-192793328D02*
X204743741Y-192864757D01*
X204743741Y-192864757D02*
X204815170Y-193007614D01*
X204815170Y-193007614D02*
X204815170Y-193150471D01*
X204815170Y-193150471D02*
X204100884Y-193293328D01*
X205458026Y-193650471D02*
X205529455Y-193721900D01*
X205529455Y-193721900D02*
X205458026Y-193793328D01*
X205458026Y-193793328D02*
X205386598Y-193721900D01*
X205386598Y-193721900D02*
X205458026Y-193650471D01*
X205458026Y-193650471D02*
X205458026Y-193793328D01*
X205458026Y-192864757D02*
X205529455Y-192936185D01*
X205529455Y-192936185D02*
X205458026Y-193007614D01*
X205458026Y-193007614D02*
X205386598Y-192936185D01*
X205386598Y-192936185D02*
X205458026Y-192864757D01*
X205458026Y-192864757D02*
X205458026Y-193007614D01*
X207243741Y-192436185D02*
X207315169Y-192364757D01*
X207315169Y-192364757D02*
X207458027Y-192293328D01*
X207458027Y-192293328D02*
X207815169Y-192293328D01*
X207815169Y-192293328D02*
X207958027Y-192364757D01*
X207958027Y-192364757D02*
X208029455Y-192436185D01*
X208029455Y-192436185D02*
X208100884Y-192579042D01*
X208100884Y-192579042D02*
X208100884Y-192721900D01*
X208100884Y-192721900D02*
X208029455Y-192936185D01*
X208029455Y-192936185D02*
X207172312Y-193793328D01*
X207172312Y-193793328D02*
X208100884Y-193793328D01*
X209029455Y-192293328D02*
X209172312Y-192293328D01*
X209172312Y-192293328D02*
X209315169Y-192364757D01*
X209315169Y-192364757D02*
X209386598Y-192436185D01*
X209386598Y-192436185D02*
X209458026Y-192579042D01*
X209458026Y-192579042D02*
X209529455Y-192864757D01*
X209529455Y-192864757D02*
X209529455Y-193221900D01*
X209529455Y-193221900D02*
X209458026Y-193507614D01*
X209458026Y-193507614D02*
X209386598Y-193650471D01*
X209386598Y-193650471D02*
X209315169Y-193721900D01*
X209315169Y-193721900D02*
X209172312Y-193793328D01*
X209172312Y-193793328D02*
X209029455Y-193793328D01*
X209029455Y-193793328D02*
X208886598Y-193721900D01*
X208886598Y-193721900D02*
X208815169Y-193650471D01*
X208815169Y-193650471D02*
X208743740Y-193507614D01*
X208743740Y-193507614D02*
X208672312Y-193221900D01*
X208672312Y-193221900D02*
X208672312Y-192864757D01*
X208672312Y-192864757D02*
X208743740Y-192579042D01*
X208743740Y-192579042D02*
X208815169Y-192436185D01*
X208815169Y-192436185D02*
X208886598Y-192364757D01*
X208886598Y-192364757D02*
X209029455Y-192293328D01*
X210100883Y-192436185D02*
X210172311Y-192364757D01*
X210172311Y-192364757D02*
X210315169Y-192293328D01*
X210315169Y-192293328D02*
X210672311Y-192293328D01*
X210672311Y-192293328D02*
X210815169Y-192364757D01*
X210815169Y-192364757D02*
X210886597Y-192436185D01*
X210886597Y-192436185D02*
X210958026Y-192579042D01*
X210958026Y-192579042D02*
X210958026Y-192721900D01*
X210958026Y-192721900D02*
X210886597Y-192936185D01*
X210886597Y-192936185D02*
X210029454Y-193793328D01*
X210029454Y-193793328D02*
X210958026Y-193793328D01*
X212243740Y-192793328D02*
X212243740Y-193793328D01*
X211886597Y-192221900D02*
X211529454Y-193293328D01*
X211529454Y-193293328D02*
X212458025Y-193293328D01*
X213029453Y-193221900D02*
X214172311Y-193221900D01*
X215172311Y-192293328D02*
X215315168Y-192293328D01*
X215315168Y-192293328D02*
X215458025Y-192364757D01*
X215458025Y-192364757D02*
X215529454Y-192436185D01*
X215529454Y-192436185D02*
X215600882Y-192579042D01*
X215600882Y-192579042D02*
X215672311Y-192864757D01*
X215672311Y-192864757D02*
X215672311Y-193221900D01*
X215672311Y-193221900D02*
X215600882Y-193507614D01*
X215600882Y-193507614D02*
X215529454Y-193650471D01*
X215529454Y-193650471D02*
X215458025Y-193721900D01*
X215458025Y-193721900D02*
X215315168Y-193793328D01*
X215315168Y-193793328D02*
X215172311Y-193793328D01*
X215172311Y-193793328D02*
X215029454Y-193721900D01*
X215029454Y-193721900D02*
X214958025Y-193650471D01*
X214958025Y-193650471D02*
X214886596Y-193507614D01*
X214886596Y-193507614D02*
X214815168Y-193221900D01*
X214815168Y-193221900D02*
X214815168Y-192864757D01*
X214815168Y-192864757D02*
X214886596Y-192579042D01*
X214886596Y-192579042D02*
X214958025Y-192436185D01*
X214958025Y-192436185D02*
X215029454Y-192364757D01*
X215029454Y-192364757D02*
X215172311Y-192293328D01*
X216243739Y-192436185D02*
X216315167Y-192364757D01*
X216315167Y-192364757D02*
X216458025Y-192293328D01*
X216458025Y-192293328D02*
X216815167Y-192293328D01*
X216815167Y-192293328D02*
X216958025Y-192364757D01*
X216958025Y-192364757D02*
X217029453Y-192436185D01*
X217029453Y-192436185D02*
X217100882Y-192579042D01*
X217100882Y-192579042D02*
X217100882Y-192721900D01*
X217100882Y-192721900D02*
X217029453Y-192936185D01*
X217029453Y-192936185D02*
X216172310Y-193793328D01*
X216172310Y-193793328D02*
X217100882Y-193793328D01*
X217743738Y-193221900D02*
X218886596Y-193221900D01*
X219886596Y-192293328D02*
X220029453Y-192293328D01*
X220029453Y-192293328D02*
X220172310Y-192364757D01*
X220172310Y-192364757D02*
X220243739Y-192436185D01*
X220243739Y-192436185D02*
X220315167Y-192579042D01*
X220315167Y-192579042D02*
X220386596Y-192864757D01*
X220386596Y-192864757D02*
X220386596Y-193221900D01*
X220386596Y-193221900D02*
X220315167Y-193507614D01*
X220315167Y-193507614D02*
X220243739Y-193650471D01*
X220243739Y-193650471D02*
X220172310Y-193721900D01*
X220172310Y-193721900D02*
X220029453Y-193793328D01*
X220029453Y-193793328D02*
X219886596Y-193793328D01*
X219886596Y-193793328D02*
X219743739Y-193721900D01*
X219743739Y-193721900D02*
X219672310Y-193650471D01*
X219672310Y-193650471D02*
X219600881Y-193507614D01*
X219600881Y-193507614D02*
X219529453Y-193221900D01*
X219529453Y-193221900D02*
X219529453Y-192864757D01*
X219529453Y-192864757D02*
X219600881Y-192579042D01*
X219600881Y-192579042D02*
X219672310Y-192436185D01*
X219672310Y-192436185D02*
X219743739Y-192364757D01*
X219743739Y-192364757D02*
X219886596Y-192293328D01*
X221243738Y-192936185D02*
X221100881Y-192864757D01*
X221100881Y-192864757D02*
X221029452Y-192793328D01*
X221029452Y-192793328D02*
X220958024Y-192650471D01*
X220958024Y-192650471D02*
X220958024Y-192579042D01*
X220958024Y-192579042D02*
X221029452Y-192436185D01*
X221029452Y-192436185D02*
X221100881Y-192364757D01*
X221100881Y-192364757D02*
X221243738Y-192293328D01*
X221243738Y-192293328D02*
X221529452Y-192293328D01*
X221529452Y-192293328D02*
X221672310Y-192364757D01*
X221672310Y-192364757D02*
X221743738Y-192436185D01*
X221743738Y-192436185D02*
X221815167Y-192579042D01*
X221815167Y-192579042D02*
X221815167Y-192650471D01*
X221815167Y-192650471D02*
X221743738Y-192793328D01*
X221743738Y-192793328D02*
X221672310Y-192864757D01*
X221672310Y-192864757D02*
X221529452Y-192936185D01*
X221529452Y-192936185D02*
X221243738Y-192936185D01*
X221243738Y-192936185D02*
X221100881Y-193007614D01*
X221100881Y-193007614D02*
X221029452Y-193079042D01*
X221029452Y-193079042D02*
X220958024Y-193221900D01*
X220958024Y-193221900D02*
X220958024Y-193507614D01*
X220958024Y-193507614D02*
X221029452Y-193650471D01*
X221029452Y-193650471D02*
X221100881Y-193721900D01*
X221100881Y-193721900D02*
X221243738Y-193793328D01*
X221243738Y-193793328D02*
X221529452Y-193793328D01*
X221529452Y-193793328D02*
X221672310Y-193721900D01*
X221672310Y-193721900D02*
X221743738Y-193650471D01*
X221743738Y-193650471D02*
X221815167Y-193507614D01*
X221815167Y-193507614D02*
X221815167Y-193221900D01*
X221815167Y-193221900D02*
X221743738Y-193079042D01*
X221743738Y-193079042D02*
X221672310Y-193007614D01*
X221672310Y-193007614D02*
X221529452Y-192936185D01*
D10*
D11*
X177002200Y-194507200D02*
X285002200Y-194507200D01*
D10*
D11*
X178458026Y-196593328D02*
X178458026Y-195093328D01*
X179315169Y-196593328D02*
X178672312Y-195736185D01*
X179315169Y-195093328D02*
X178458026Y-195950471D01*
X179958026Y-196593328D02*
X179958026Y-195593328D01*
X179958026Y-195093328D02*
X179886598Y-195164757D01*
X179886598Y-195164757D02*
X179958026Y-195236185D01*
X179958026Y-195236185D02*
X180029455Y-195164757D01*
X180029455Y-195164757D02*
X179958026Y-195093328D01*
X179958026Y-195093328D02*
X179958026Y-195236185D01*
X181529455Y-196450471D02*
X181458027Y-196521900D01*
X181458027Y-196521900D02*
X181243741Y-196593328D01*
X181243741Y-196593328D02*
X181100884Y-196593328D01*
X181100884Y-196593328D02*
X180886598Y-196521900D01*
X180886598Y-196521900D02*
X180743741Y-196379042D01*
X180743741Y-196379042D02*
X180672312Y-196236185D01*
X180672312Y-196236185D02*
X180600884Y-195950471D01*
X180600884Y-195950471D02*
X180600884Y-195736185D01*
X180600884Y-195736185D02*
X180672312Y-195450471D01*
X180672312Y-195450471D02*
X180743741Y-195307614D01*
X180743741Y-195307614D02*
X180886598Y-195164757D01*
X180886598Y-195164757D02*
X181100884Y-195093328D01*
X181100884Y-195093328D02*
X181243741Y-195093328D01*
X181243741Y-195093328D02*
X181458027Y-195164757D01*
X181458027Y-195164757D02*
X181529455Y-195236185D01*
X182815170Y-196593328D02*
X182815170Y-195807614D01*
X182815170Y-195807614D02*
X182743741Y-195664757D01*
X182743741Y-195664757D02*
X182600884Y-195593328D01*
X182600884Y-195593328D02*
X182315170Y-195593328D01*
X182315170Y-195593328D02*
X182172312Y-195664757D01*
X182815170Y-196521900D02*
X182672312Y-196593328D01*
X182672312Y-196593328D02*
X182315170Y-196593328D01*
X182315170Y-196593328D02*
X182172312Y-196521900D01*
X182172312Y-196521900D02*
X182100884Y-196379042D01*
X182100884Y-196379042D02*
X182100884Y-196236185D01*
X182100884Y-196236185D02*
X182172312Y-196093328D01*
X182172312Y-196093328D02*
X182315170Y-196021900D01*
X182315170Y-196021900D02*
X182672312Y-196021900D01*
X182672312Y-196021900D02*
X182815170Y-195950471D01*
X184172313Y-196593328D02*
X184172313Y-195093328D01*
X184172313Y-196521900D02*
X184029455Y-196593328D01*
X184029455Y-196593328D02*
X183743741Y-196593328D01*
X183743741Y-196593328D02*
X183600884Y-196521900D01*
X183600884Y-196521900D02*
X183529455Y-196450471D01*
X183529455Y-196450471D02*
X183458027Y-196307614D01*
X183458027Y-196307614D02*
X183458027Y-195879042D01*
X183458027Y-195879042D02*
X183529455Y-195736185D01*
X183529455Y-195736185D02*
X183600884Y-195664757D01*
X183600884Y-195664757D02*
X183743741Y-195593328D01*
X183743741Y-195593328D02*
X184029455Y-195593328D01*
X184029455Y-195593328D02*
X184172313Y-195664757D01*
X186029455Y-195807614D02*
X186529455Y-195807614D01*
X186743741Y-196593328D02*
X186029455Y-196593328D01*
X186029455Y-196593328D02*
X186029455Y-195093328D01*
X186029455Y-195093328D02*
X186743741Y-195093328D01*
X187386598Y-196450471D02*
X187458027Y-196521900D01*
X187458027Y-196521900D02*
X187386598Y-196593328D01*
X187386598Y-196593328D02*
X187315170Y-196521900D01*
X187315170Y-196521900D02*
X187386598Y-196450471D01*
X187386598Y-196450471D02*
X187386598Y-196593328D01*
X188100884Y-196593328D02*
X188100884Y-195093328D01*
X188100884Y-195093328D02*
X188458027Y-195093328D01*
X188458027Y-195093328D02*
X188672313Y-195164757D01*
X188672313Y-195164757D02*
X188815170Y-195307614D01*
X188815170Y-195307614D02*
X188886599Y-195450471D01*
X188886599Y-195450471D02*
X188958027Y-195736185D01*
X188958027Y-195736185D02*
X188958027Y-195950471D01*
X188958027Y-195950471D02*
X188886599Y-196236185D01*
X188886599Y-196236185D02*
X188815170Y-196379042D01*
X188815170Y-196379042D02*
X188672313Y-196521900D01*
X188672313Y-196521900D02*
X188458027Y-196593328D01*
X188458027Y-196593328D02*
X188100884Y-196593328D01*
X189600884Y-196450471D02*
X189672313Y-196521900D01*
X189672313Y-196521900D02*
X189600884Y-196593328D01*
X189600884Y-196593328D02*
X189529456Y-196521900D01*
X189529456Y-196521900D02*
X189600884Y-196450471D01*
X189600884Y-196450471D02*
X189600884Y-196593328D01*
X190243742Y-196164757D02*
X190958028Y-196164757D01*
X190100885Y-196593328D02*
X190600885Y-195093328D01*
X190600885Y-195093328D02*
X191100885Y-196593328D01*
X191600884Y-196450471D02*
X191672313Y-196521900D01*
X191672313Y-196521900D02*
X191600884Y-196593328D01*
X191600884Y-196593328D02*
X191529456Y-196521900D01*
X191529456Y-196521900D02*
X191600884Y-196450471D01*
X191600884Y-196450471D02*
X191600884Y-196593328D01*
X194600884Y-196593328D02*
X194600884Y-195093328D01*
X194743742Y-196021900D02*
X195172313Y-196593328D01*
X195172313Y-195593328D02*
X194600884Y-196164757D01*
X195815170Y-196593328D02*
X195815170Y-195593328D01*
X195815170Y-195093328D02*
X195743742Y-195164757D01*
X195743742Y-195164757D02*
X195815170Y-195236185D01*
X195815170Y-195236185D02*
X195886599Y-195164757D01*
X195886599Y-195164757D02*
X195815170Y-195093328D01*
X195815170Y-195093328D02*
X195815170Y-195236185D01*
X197172314Y-196521900D02*
X197029456Y-196593328D01*
X197029456Y-196593328D02*
X196743742Y-196593328D01*
X196743742Y-196593328D02*
X196600885Y-196521900D01*
X196600885Y-196521900D02*
X196529456Y-196450471D01*
X196529456Y-196450471D02*
X196458028Y-196307614D01*
X196458028Y-196307614D02*
X196458028Y-195879042D01*
X196458028Y-195879042D02*
X196529456Y-195736185D01*
X196529456Y-195736185D02*
X196600885Y-195664757D01*
X196600885Y-195664757D02*
X196743742Y-195593328D01*
X196743742Y-195593328D02*
X197029456Y-195593328D01*
X197029456Y-195593328D02*
X197172314Y-195664757D01*
X198458028Y-196593328D02*
X198458028Y-195807614D01*
X198458028Y-195807614D02*
X198386599Y-195664757D01*
X198386599Y-195664757D02*
X198243742Y-195593328D01*
X198243742Y-195593328D02*
X197958028Y-195593328D01*
X197958028Y-195593328D02*
X197815170Y-195664757D01*
X198458028Y-196521900D02*
X198315170Y-196593328D01*
X198315170Y-196593328D02*
X197958028Y-196593328D01*
X197958028Y-196593328D02*
X197815170Y-196521900D01*
X197815170Y-196521900D02*
X197743742Y-196379042D01*
X197743742Y-196379042D02*
X197743742Y-196236185D01*
X197743742Y-196236185D02*
X197815170Y-196093328D01*
X197815170Y-196093328D02*
X197958028Y-196021900D01*
X197958028Y-196021900D02*
X198315170Y-196021900D01*
X198315170Y-196021900D02*
X198458028Y-195950471D01*
X199815171Y-196593328D02*
X199815171Y-195093328D01*
X199815171Y-196521900D02*
X199672313Y-196593328D01*
X199672313Y-196593328D02*
X199386599Y-196593328D01*
X199386599Y-196593328D02*
X199243742Y-196521900D01*
X199243742Y-196521900D02*
X199172313Y-196450471D01*
X199172313Y-196450471D02*
X199100885Y-196307614D01*
X199100885Y-196307614D02*
X199100885Y-195879042D01*
X199100885Y-195879042D02*
X199172313Y-195736185D01*
X199172313Y-195736185D02*
X199243742Y-195664757D01*
X199243742Y-195664757D02*
X199386599Y-195593328D01*
X199386599Y-195593328D02*
X199672313Y-195593328D01*
X199672313Y-195593328D02*
X199815171Y-195664757D01*
X201529456Y-195093328D02*
X202529456Y-195093328D01*
X202529456Y-195093328D02*
X201886599Y-196593328D01*
X203100884Y-196450471D02*
X203172313Y-196521900D01*
X203172313Y-196521900D02*
X203100884Y-196593328D01*
X203100884Y-196593328D02*
X203029456Y-196521900D01*
X203029456Y-196521900D02*
X203100884Y-196450471D01*
X203100884Y-196450471D02*
X203100884Y-196593328D01*
X204100885Y-195093328D02*
X204243742Y-195093328D01*
X204243742Y-195093328D02*
X204386599Y-195164757D01*
X204386599Y-195164757D02*
X204458028Y-195236185D01*
X204458028Y-195236185D02*
X204529456Y-195379042D01*
X204529456Y-195379042D02*
X204600885Y-195664757D01*
X204600885Y-195664757D02*
X204600885Y-196021900D01*
X204600885Y-196021900D02*
X204529456Y-196307614D01*
X204529456Y-196307614D02*
X204458028Y-196450471D01*
X204458028Y-196450471D02*
X204386599Y-196521900D01*
X204386599Y-196521900D02*
X204243742Y-196593328D01*
X204243742Y-196593328D02*
X204100885Y-196593328D01*
X204100885Y-196593328D02*
X203958028Y-196521900D01*
X203958028Y-196521900D02*
X203886599Y-196450471D01*
X203886599Y-196450471D02*
X203815170Y-196307614D01*
X203815170Y-196307614D02*
X203743742Y-196021900D01*
X203743742Y-196021900D02*
X203743742Y-195664757D01*
X203743742Y-195664757D02*
X203815170Y-195379042D01*
X203815170Y-195379042D02*
X203886599Y-195236185D01*
X203886599Y-195236185D02*
X203958028Y-195164757D01*
X203958028Y-195164757D02*
X204100885Y-195093328D01*
X205243741Y-196450471D02*
X205315170Y-196521900D01*
X205315170Y-196521900D02*
X205243741Y-196593328D01*
X205243741Y-196593328D02*
X205172313Y-196521900D01*
X205172313Y-196521900D02*
X205243741Y-196450471D01*
X205243741Y-196450471D02*
X205243741Y-196593328D01*
X206600885Y-195093328D02*
X206315170Y-195093328D01*
X206315170Y-195093328D02*
X206172313Y-195164757D01*
X206172313Y-195164757D02*
X206100885Y-195236185D01*
X206100885Y-195236185D02*
X205958027Y-195450471D01*
X205958027Y-195450471D02*
X205886599Y-195736185D01*
X205886599Y-195736185D02*
X205886599Y-196307614D01*
X205886599Y-196307614D02*
X205958027Y-196450471D01*
X205958027Y-196450471D02*
X206029456Y-196521900D01*
X206029456Y-196521900D02*
X206172313Y-196593328D01*
X206172313Y-196593328D02*
X206458027Y-196593328D01*
X206458027Y-196593328D02*
X206600885Y-196521900D01*
X206600885Y-196521900D02*
X206672313Y-196450471D01*
X206672313Y-196450471D02*
X206743742Y-196307614D01*
X206743742Y-196307614D02*
X206743742Y-195950471D01*
X206743742Y-195950471D02*
X206672313Y-195807614D01*
X206672313Y-195807614D02*
X206600885Y-195736185D01*
X206600885Y-195736185D02*
X206458027Y-195664757D01*
X206458027Y-195664757D02*
X206172313Y-195664757D01*
X206172313Y-195664757D02*
X206029456Y-195736185D01*
X206029456Y-195736185D02*
X205958027Y-195807614D01*
X205958027Y-195807614D02*
X205886599Y-195950471D01*
D10*
D11*
X177002200Y-191507200D02*
X285002200Y-191507200D01*
D10*
D12*
X264413853Y-193785528D02*
X263913853Y-193071242D01*
X263556710Y-193785528D02*
X263556710Y-192285528D01*
X263556710Y-192285528D02*
X264128139Y-192285528D01*
X264128139Y-192285528D02*
X264270996Y-192356957D01*
X264270996Y-192356957D02*
X264342425Y-192428385D01*
X264342425Y-192428385D02*
X264413853Y-192571242D01*
X264413853Y-192571242D02*
X264413853Y-192785528D01*
X264413853Y-192785528D02*
X264342425Y-192928385D01*
X264342425Y-192928385D02*
X264270996Y-192999814D01*
X264270996Y-192999814D02*
X264128139Y-193071242D01*
X264128139Y-193071242D02*
X263556710Y-193071242D01*
X265628139Y-193714100D02*
X265485282Y-193785528D01*
X265485282Y-193785528D02*
X265199568Y-193785528D01*
X265199568Y-193785528D02*
X265056710Y-193714100D01*
X265056710Y-193714100D02*
X264985282Y-193571242D01*
X264985282Y-193571242D02*
X264985282Y-192999814D01*
X264985282Y-192999814D02*
X265056710Y-192856957D01*
X265056710Y-192856957D02*
X265199568Y-192785528D01*
X265199568Y-192785528D02*
X265485282Y-192785528D01*
X265485282Y-192785528D02*
X265628139Y-192856957D01*
X265628139Y-192856957D02*
X265699568Y-192999814D01*
X265699568Y-192999814D02*
X265699568Y-193142671D01*
X265699568Y-193142671D02*
X264985282Y-193285528D01*
X266199567Y-192785528D02*
X266556710Y-193785528D01*
X266556710Y-193785528D02*
X266913853Y-192785528D01*
X267485281Y-193642671D02*
X267556710Y-193714100D01*
X267556710Y-193714100D02*
X267485281Y-193785528D01*
X267485281Y-193785528D02*
X267413853Y-193714100D01*
X267413853Y-193714100D02*
X267485281Y-193642671D01*
X267485281Y-193642671D02*
X267485281Y-193785528D01*
X267485281Y-192856957D02*
X267556710Y-192928385D01*
X267556710Y-192928385D02*
X267485281Y-192999814D01*
X267485281Y-192999814D02*
X267413853Y-192928385D01*
X267413853Y-192928385D02*
X267485281Y-192856957D01*
X267485281Y-192856957D02*
X267485281Y-192999814D01*
X270199567Y-193642671D02*
X270128139Y-193714100D01*
X270128139Y-193714100D02*
X269913853Y-193785528D01*
X269913853Y-193785528D02*
X269770996Y-193785528D01*
X269770996Y-193785528D02*
X269556710Y-193714100D01*
X269556710Y-193714100D02*
X269413853Y-193571242D01*
X269413853Y-193571242D02*
X269342424Y-193428385D01*
X269342424Y-193428385D02*
X269270996Y-193142671D01*
X269270996Y-193142671D02*
X269270996Y-192928385D01*
X269270996Y-192928385D02*
X269342424Y-192642671D01*
X269342424Y-192642671D02*
X269413853Y-192499814D01*
X269413853Y-192499814D02*
X269556710Y-192356957D01*
X269556710Y-192356957D02*
X269770996Y-192285528D01*
X269770996Y-192285528D02*
X269913853Y-192285528D01*
X269913853Y-192285528D02*
X270128139Y-192356957D01*
X270128139Y-192356957D02*
X270199567Y-192428385D01*
X270699567Y-192785528D02*
X271056710Y-193785528D01*
X271413853Y-192785528D02*
X271056710Y-193785528D01*
X271056710Y-193785528D02*
X270913853Y-194142671D01*
X270913853Y-194142671D02*
X270842424Y-194214100D01*
X270842424Y-194214100D02*
X270699567Y-194285528D01*
X271985281Y-193785528D02*
X271985281Y-192785528D01*
X271985281Y-193071242D02*
X272056710Y-192928385D01*
X272056710Y-192928385D02*
X272128139Y-192856957D01*
X272128139Y-192856957D02*
X272270996Y-192785528D01*
X272270996Y-192785528D02*
X272413853Y-192785528D01*
X272913852Y-193785528D02*
X272913852Y-192785528D01*
X272913852Y-192285528D02*
X272842424Y-192356957D01*
X272842424Y-192356957D02*
X272913852Y-192428385D01*
X272913852Y-192428385D02*
X272985281Y-192356957D01*
X272985281Y-192356957D02*
X272913852Y-192285528D01*
X272913852Y-192285528D02*
X272913852Y-192428385D01*
X273842424Y-193785528D02*
X273699567Y-193714100D01*
X273699567Y-193714100D02*
X273628138Y-193571242D01*
X273628138Y-193571242D02*
X273628138Y-192285528D01*
X274485281Y-193714100D02*
X274485281Y-193785528D01*
X274485281Y-193785528D02*
X274413852Y-193928385D01*
X274413852Y-193928385D02*
X274342424Y-193999814D01*
X276270995Y-192999814D02*
X276770995Y-192999814D01*
X276985281Y-193785528D02*
X276270995Y-193785528D01*
X276270995Y-193785528D02*
X276270995Y-192285528D01*
X276270995Y-192285528D02*
X276985281Y-192285528D01*
X277842424Y-193785528D02*
X277699567Y-193714100D01*
X277699567Y-193714100D02*
X277628138Y-193571242D01*
X277628138Y-193571242D02*
X277628138Y-192285528D01*
X278413852Y-193785528D02*
X278413852Y-192785528D01*
X278413852Y-192285528D02*
X278342424Y-192356957D01*
X278342424Y-192356957D02*
X278413852Y-192428385D01*
X278413852Y-192428385D02*
X278485281Y-192356957D01*
X278485281Y-192356957D02*
X278413852Y-192285528D01*
X278413852Y-192285528D02*
X278413852Y-192428385D01*
X279342424Y-193785528D02*
X279199567Y-193714100D01*
X279199567Y-193714100D02*
X279128138Y-193642671D01*
X279128138Y-193642671D02*
X279056710Y-193499814D01*
X279056710Y-193499814D02*
X279056710Y-193071242D01*
X279056710Y-193071242D02*
X279128138Y-192928385D01*
X279128138Y-192928385D02*
X279199567Y-192856957D01*
X279199567Y-192856957D02*
X279342424Y-192785528D01*
X279342424Y-192785528D02*
X279556710Y-192785528D01*
X279556710Y-192785528D02*
X279699567Y-192856957D01*
X279699567Y-192856957D02*
X279770996Y-192928385D01*
X279770996Y-192928385D02*
X279842424Y-193071242D01*
X279842424Y-193071242D02*
X279842424Y-193499814D01*
X279842424Y-193499814D02*
X279770996Y-193642671D01*
X279770996Y-193642671D02*
X279699567Y-193714100D01*
X279699567Y-193714100D02*
X279556710Y-193785528D01*
X279556710Y-193785528D02*
X279342424Y-193785528D01*
X280270996Y-192785528D02*
X280842424Y-192785528D01*
X280485281Y-192285528D02*
X280485281Y-193571242D01*
X280485281Y-193571242D02*
X280556710Y-193714100D01*
X280556710Y-193714100D02*
X280699567Y-193785528D01*
X280699567Y-193785528D02*
X280842424Y-193785528D01*
X281128139Y-192785528D02*
X281699567Y-192785528D01*
X281342424Y-192285528D02*
X281342424Y-193571242D01*
X281342424Y-193571242D02*
X281413853Y-193714100D01*
X281413853Y-193714100D02*
X281556710Y-193785528D01*
X281556710Y-193785528D02*
X281699567Y-193785528D01*
D10*
D11*
X178386598Y-193721900D02*
X178600884Y-193793328D01*
X178600884Y-193793328D02*
X178958026Y-193793328D01*
X178958026Y-193793328D02*
X179100884Y-193721900D01*
X179100884Y-193721900D02*
X179172312Y-193650471D01*
X179172312Y-193650471D02*
X179243741Y-193507614D01*
X179243741Y-193507614D02*
X179243741Y-193364757D01*
X179243741Y-193364757D02*
X179172312Y-193221900D01*
X179172312Y-193221900D02*
X179100884Y-193150471D01*
X179100884Y-193150471D02*
X178958026Y-193079042D01*
X178958026Y-193079042D02*
X178672312Y-193007614D01*
X178672312Y-193007614D02*
X178529455Y-192936185D01*
X178529455Y-192936185D02*
X178458026Y-192864757D01*
X178458026Y-192864757D02*
X178386598Y-192721900D01*
X178386598Y-192721900D02*
X178386598Y-192579042D01*
X178386598Y-192579042D02*
X178458026Y-192436185D01*
X178458026Y-192436185D02*
X178529455Y-192364757D01*
X178529455Y-192364757D02*
X178672312Y-192293328D01*
X178672312Y-192293328D02*
X179029455Y-192293328D01*
X179029455Y-192293328D02*
X179243741Y-192364757D01*
X179886597Y-193793328D02*
X179886597Y-192793328D01*
X179886597Y-192293328D02*
X179815169Y-192364757D01*
X179815169Y-192364757D02*
X179886597Y-192436185D01*
X179886597Y-192436185D02*
X179958026Y-192364757D01*
X179958026Y-192364757D02*
X179886597Y-192293328D01*
X179886597Y-192293328D02*
X179886597Y-192436185D01*
X180458026Y-192793328D02*
X181243741Y-192793328D01*
X181243741Y-192793328D02*
X180458026Y-193793328D01*
X180458026Y-193793328D02*
X181243741Y-193793328D01*
X182386598Y-193721900D02*
X182243741Y-193793328D01*
X182243741Y-193793328D02*
X181958027Y-193793328D01*
X181958027Y-193793328D02*
X181815169Y-193721900D01*
X181815169Y-193721900D02*
X181743741Y-193579042D01*
X181743741Y-193579042D02*
X181743741Y-193007614D01*
X181743741Y-193007614D02*
X181815169Y-192864757D01*
X181815169Y-192864757D02*
X181958027Y-192793328D01*
X181958027Y-192793328D02*
X182243741Y-192793328D01*
X182243741Y-192793328D02*
X182386598Y-192864757D01*
X182386598Y-192864757D02*
X182458027Y-193007614D01*
X182458027Y-193007614D02*
X182458027Y-193150471D01*
X182458027Y-193150471D02*
X181743741Y-193293328D01*
X183100883Y-193650471D02*
X183172312Y-193721900D01*
X183172312Y-193721900D02*
X183100883Y-193793328D01*
X183100883Y-193793328D02*
X183029455Y-193721900D01*
X183029455Y-193721900D02*
X183100883Y-193650471D01*
X183100883Y-193650471D02*
X183100883Y-193793328D01*
X183100883Y-192864757D02*
X183172312Y-192936185D01*
X183172312Y-192936185D02*
X183100883Y-193007614D01*
X183100883Y-193007614D02*
X183029455Y-192936185D01*
X183029455Y-192936185D02*
X183100883Y-192864757D01*
X183100883Y-192864757D02*
X183100883Y-193007614D01*
X184886598Y-193364757D02*
X185600884Y-193364757D01*
X184743741Y-193793328D02*
X185243741Y-192293328D01*
X185243741Y-192293328D02*
X185743741Y-193793328D01*
X186886598Y-192793328D02*
X186886598Y-193793328D01*
X186529455Y-192221900D02*
X186172312Y-193293328D01*
X186172312Y-193293328D02*
X187100883Y-193293328D01*
D10*
D11*
X263458026Y-196593328D02*
X263458026Y-195093328D01*
X264815170Y-196593328D02*
X264815170Y-195093328D01*
X264815170Y-196521900D02*
X264672312Y-196593328D01*
X264672312Y-196593328D02*
X264386598Y-196593328D01*
X264386598Y-196593328D02*
X264243741Y-196521900D01*
X264243741Y-196521900D02*
X264172312Y-196450471D01*
X264172312Y-196450471D02*
X264100884Y-196307614D01*
X264100884Y-196307614D02*
X264100884Y-195879042D01*
X264100884Y-195879042D02*
X264172312Y-195736185D01*
X264172312Y-195736185D02*
X264243741Y-195664757D01*
X264243741Y-195664757D02*
X264386598Y-195593328D01*
X264386598Y-195593328D02*
X264672312Y-195593328D01*
X264672312Y-195593328D02*
X264815170Y-195664757D01*
X265529455Y-196450471D02*
X265600884Y-196521900D01*
X265600884Y-196521900D02*
X265529455Y-196593328D01*
X265529455Y-196593328D02*
X265458027Y-196521900D01*
X265458027Y-196521900D02*
X265529455Y-196450471D01*
X265529455Y-196450471D02*
X265529455Y-196593328D01*
X265529455Y-195664757D02*
X265600884Y-195736185D01*
X265600884Y-195736185D02*
X265529455Y-195807614D01*
X265529455Y-195807614D02*
X265458027Y-195736185D01*
X265458027Y-195736185D02*
X265529455Y-195664757D01*
X265529455Y-195664757D02*
X265529455Y-195807614D01*
X268172313Y-196593328D02*
X267315170Y-196593328D01*
X267743741Y-196593328D02*
X267743741Y-195093328D01*
X267743741Y-195093328D02*
X267600884Y-195307614D01*
X267600884Y-195307614D02*
X267458027Y-195450471D01*
X267458027Y-195450471D02*
X267315170Y-195521900D01*
X269886598Y-195021900D02*
X268600884Y-196950471D01*
X271172313Y-196593328D02*
X270315170Y-196593328D01*
X270743741Y-196593328D02*
X270743741Y-195093328D01*
X270743741Y-195093328D02*
X270600884Y-195307614D01*
X270600884Y-195307614D02*
X270458027Y-195450471D01*
X270458027Y-195450471D02*
X270315170Y-195521900D01*
D10*
D11*
X177002200Y-187507200D02*
X285002200Y-187507200D01*
D10*
D13*
X178693928Y-188211638D02*
X179836785Y-188211638D01*
X179015357Y-190211638D02*
X179265357Y-188211638D01*
X180253452Y-190211638D02*
X180420119Y-188878304D01*
X180503452Y-188211638D02*
X180396309Y-188306876D01*
X180396309Y-188306876D02*
X180479643Y-188402114D01*
X180479643Y-188402114D02*
X180586786Y-188306876D01*
X180586786Y-188306876D02*
X180503452Y-188211638D01*
X180503452Y-188211638D02*
X180479643Y-188402114D01*
X181086786Y-188878304D02*
X181848690Y-188878304D01*
X181455833Y-188211638D02*
X181241548Y-189925923D01*
X181241548Y-189925923D02*
X181312976Y-190116400D01*
X181312976Y-190116400D02*
X181491548Y-190211638D01*
X181491548Y-190211638D02*
X181682024Y-190211638D01*
X182634405Y-190211638D02*
X182455833Y-190116400D01*
X182455833Y-190116400D02*
X182384405Y-189925923D01*
X182384405Y-189925923D02*
X182598690Y-188211638D01*
X184170119Y-190116400D02*
X183967738Y-190211638D01*
X183967738Y-190211638D02*
X183586785Y-190211638D01*
X183586785Y-190211638D02*
X183408214Y-190116400D01*
X183408214Y-190116400D02*
X183336785Y-189925923D01*
X183336785Y-189925923D02*
X183432024Y-189164019D01*
X183432024Y-189164019D02*
X183551071Y-188973542D01*
X183551071Y-188973542D02*
X183753452Y-188878304D01*
X183753452Y-188878304D02*
X184134404Y-188878304D01*
X184134404Y-188878304D02*
X184312976Y-188973542D01*
X184312976Y-188973542D02*
X184384404Y-189164019D01*
X184384404Y-189164019D02*
X184360595Y-189354495D01*
X184360595Y-189354495D02*
X183384404Y-189544971D01*
X185134405Y-190021161D02*
X185217738Y-190116400D01*
X185217738Y-190116400D02*
X185110595Y-190211638D01*
X185110595Y-190211638D02*
X185027262Y-190116400D01*
X185027262Y-190116400D02*
X185134405Y-190021161D01*
X185134405Y-190021161D02*
X185110595Y-190211638D01*
X185265357Y-188973542D02*
X185348690Y-189068780D01*
X185348690Y-189068780D02*
X185241548Y-189164019D01*
X185241548Y-189164019D02*
X185158214Y-189068780D01*
X185158214Y-189068780D02*
X185265357Y-188973542D01*
X185265357Y-188973542D02*
X185241548Y-189164019D01*
X188753453Y-190021161D02*
X188646310Y-190116400D01*
X188646310Y-190116400D02*
X188348691Y-190211638D01*
X188348691Y-190211638D02*
X188158215Y-190211638D01*
X188158215Y-190211638D02*
X187884405Y-190116400D01*
X187884405Y-190116400D02*
X187717739Y-189925923D01*
X187717739Y-189925923D02*
X187646310Y-189735447D01*
X187646310Y-189735447D02*
X187598691Y-189354495D01*
X187598691Y-189354495D02*
X187634405Y-189068780D01*
X187634405Y-189068780D02*
X187777262Y-188687828D01*
X187777262Y-188687828D02*
X187896310Y-188497352D01*
X187896310Y-188497352D02*
X188110596Y-188306876D01*
X188110596Y-188306876D02*
X188408215Y-188211638D01*
X188408215Y-188211638D02*
X188598691Y-188211638D01*
X188598691Y-188211638D02*
X188872501Y-188306876D01*
X188872501Y-188306876D02*
X188955834Y-188402114D01*
X190443929Y-190211638D02*
X190574881Y-189164019D01*
X190574881Y-189164019D02*
X190503453Y-188973542D01*
X190503453Y-188973542D02*
X190324881Y-188878304D01*
X190324881Y-188878304D02*
X189943929Y-188878304D01*
X189943929Y-188878304D02*
X189741548Y-188973542D01*
X190455834Y-190116400D02*
X190253453Y-190211638D01*
X190253453Y-190211638D02*
X189777262Y-190211638D01*
X189777262Y-190211638D02*
X189598691Y-190116400D01*
X189598691Y-190116400D02*
X189527262Y-189925923D01*
X189527262Y-189925923D02*
X189551072Y-189735447D01*
X189551072Y-189735447D02*
X189670120Y-189544971D01*
X189670120Y-189544971D02*
X189872501Y-189449733D01*
X189872501Y-189449733D02*
X190348691Y-189449733D01*
X190348691Y-189449733D02*
X190551072Y-189354495D01*
X191396310Y-190211638D02*
X191562977Y-188878304D01*
X191515358Y-189259257D02*
X191634405Y-189068780D01*
X191634405Y-189068780D02*
X191741548Y-188973542D01*
X191741548Y-188973542D02*
X191943929Y-188878304D01*
X191943929Y-188878304D02*
X192134405Y-188878304D01*
X192515358Y-188878304D02*
X193277262Y-188878304D01*
X192884405Y-188211638D02*
X192670120Y-189925923D01*
X192670120Y-189925923D02*
X192741548Y-190116400D01*
X192741548Y-190116400D02*
X192920120Y-190211638D01*
X192920120Y-190211638D02*
X193110596Y-190211638D01*
X194551072Y-190116400D02*
X194348691Y-190211638D01*
X194348691Y-190211638D02*
X193967738Y-190211638D01*
X193967738Y-190211638D02*
X193789167Y-190116400D01*
X193789167Y-190116400D02*
X193717738Y-189925923D01*
X193717738Y-189925923D02*
X193812977Y-189164019D01*
X193812977Y-189164019D02*
X193932024Y-188973542D01*
X193932024Y-188973542D02*
X194134405Y-188878304D01*
X194134405Y-188878304D02*
X194515357Y-188878304D01*
X194515357Y-188878304D02*
X194693929Y-188973542D01*
X194693929Y-188973542D02*
X194765357Y-189164019D01*
X194765357Y-189164019D02*
X194741548Y-189354495D01*
X194741548Y-189354495D02*
X193765357Y-189544971D01*
X197872501Y-190211638D02*
X198122501Y-188211638D01*
X197884406Y-190116400D02*
X197682025Y-190211638D01*
X197682025Y-190211638D02*
X197301073Y-190211638D01*
X197301073Y-190211638D02*
X197122501Y-190116400D01*
X197122501Y-190116400D02*
X197039168Y-190021161D01*
X197039168Y-190021161D02*
X196967739Y-189830685D01*
X196967739Y-189830685D02*
X197039168Y-189259257D01*
X197039168Y-189259257D02*
X197158215Y-189068780D01*
X197158215Y-189068780D02*
X197265358Y-188973542D01*
X197265358Y-188973542D02*
X197467739Y-188878304D01*
X197467739Y-188878304D02*
X197848692Y-188878304D01*
X197848692Y-188878304D02*
X198027263Y-188973542D01*
X199170120Y-188211638D02*
X198932025Y-188592590D01*
X200634406Y-190211638D02*
X200765358Y-189164019D01*
X200765358Y-189164019D02*
X200693930Y-188973542D01*
X200693930Y-188973542D02*
X200515358Y-188878304D01*
X200515358Y-188878304D02*
X200134406Y-188878304D01*
X200134406Y-188878304D02*
X199932025Y-188973542D01*
X200646311Y-190116400D02*
X200443930Y-190211638D01*
X200443930Y-190211638D02*
X199967739Y-190211638D01*
X199967739Y-190211638D02*
X199789168Y-190116400D01*
X199789168Y-190116400D02*
X199717739Y-189925923D01*
X199717739Y-189925923D02*
X199741549Y-189735447D01*
X199741549Y-189735447D02*
X199860597Y-189544971D01*
X199860597Y-189544971D02*
X200062978Y-189449733D01*
X200062978Y-189449733D02*
X200539168Y-189449733D01*
X200539168Y-189449733D02*
X200741549Y-189354495D01*
X201872502Y-190211638D02*
X201693930Y-190116400D01*
X201693930Y-190116400D02*
X201622502Y-189925923D01*
X201622502Y-189925923D02*
X201836787Y-188211638D01*
X202634406Y-190211638D02*
X202801073Y-188878304D01*
X202884406Y-188211638D02*
X202777263Y-188306876D01*
X202777263Y-188306876D02*
X202860597Y-188402114D01*
X202860597Y-188402114D02*
X202967740Y-188306876D01*
X202967740Y-188306876D02*
X202884406Y-188211638D01*
X202884406Y-188211638D02*
X202860597Y-188402114D01*
X203586787Y-190211638D02*
X203753454Y-188878304D01*
X203729644Y-189068780D02*
X203836787Y-188973542D01*
X203836787Y-188973542D02*
X204039168Y-188878304D01*
X204039168Y-188878304D02*
X204324882Y-188878304D01*
X204324882Y-188878304D02*
X204503454Y-188973542D01*
X204503454Y-188973542D02*
X204574882Y-189164019D01*
X204574882Y-189164019D02*
X204443930Y-190211638D01*
X204574882Y-189164019D02*
X204693930Y-188973542D01*
X204693930Y-188973542D02*
X204896311Y-188878304D01*
X204896311Y-188878304D02*
X205182025Y-188878304D01*
X205182025Y-188878304D02*
X205360597Y-188973542D01*
X205360597Y-188973542D02*
X205432025Y-189164019D01*
X205432025Y-189164019D02*
X205301073Y-190211638D01*
X207027264Y-190116400D02*
X206824883Y-190211638D01*
X206824883Y-190211638D02*
X206443930Y-190211638D01*
X206443930Y-190211638D02*
X206265359Y-190116400D01*
X206265359Y-190116400D02*
X206193930Y-189925923D01*
X206193930Y-189925923D02*
X206289169Y-189164019D01*
X206289169Y-189164019D02*
X206408216Y-188973542D01*
X206408216Y-188973542D02*
X206610597Y-188878304D01*
X206610597Y-188878304D02*
X206991549Y-188878304D01*
X206991549Y-188878304D02*
X207170121Y-188973542D01*
X207170121Y-188973542D02*
X207241549Y-189164019D01*
X207241549Y-189164019D02*
X207217740Y-189354495D01*
X207217740Y-189354495D02*
X206241549Y-189544971D01*
X208134407Y-188878304D02*
X207967740Y-190211638D01*
X208110597Y-189068780D02*
X208217740Y-188973542D01*
X208217740Y-188973542D02*
X208420121Y-188878304D01*
X208420121Y-188878304D02*
X208705835Y-188878304D01*
X208705835Y-188878304D02*
X208884407Y-188973542D01*
X208884407Y-188973542D02*
X208955835Y-189164019D01*
X208955835Y-189164019D02*
X208824883Y-190211638D01*
X209658217Y-188878304D02*
X210420121Y-188878304D01*
X210027264Y-188211638D02*
X209812979Y-189925923D01*
X209812979Y-189925923D02*
X209884407Y-190116400D01*
X209884407Y-190116400D02*
X210062979Y-190211638D01*
X210062979Y-190211638D02*
X210253455Y-190211638D01*
X211777264Y-190211638D02*
X211908216Y-189164019D01*
X211908216Y-189164019D02*
X211836788Y-188973542D01*
X211836788Y-188973542D02*
X211658216Y-188878304D01*
X211658216Y-188878304D02*
X211277264Y-188878304D01*
X211277264Y-188878304D02*
X211074883Y-188973542D01*
X211789169Y-190116400D02*
X211586788Y-190211638D01*
X211586788Y-190211638D02*
X211110597Y-190211638D01*
X211110597Y-190211638D02*
X210932026Y-190116400D01*
X210932026Y-190116400D02*
X210860597Y-189925923D01*
X210860597Y-189925923D02*
X210884407Y-189735447D01*
X210884407Y-189735447D02*
X211003455Y-189544971D01*
X211003455Y-189544971D02*
X211205836Y-189449733D01*
X211205836Y-189449733D02*
X211682026Y-189449733D01*
X211682026Y-189449733D02*
X211884407Y-189354495D01*
X212610598Y-188878304D02*
X213372502Y-188878304D01*
X212979645Y-188211638D02*
X212765360Y-189925923D01*
X212765360Y-189925923D02*
X212836788Y-190116400D01*
X212836788Y-190116400D02*
X213015360Y-190211638D01*
X213015360Y-190211638D02*
X213205836Y-190211638D01*
X213872502Y-190211638D02*
X214039169Y-188878304D01*
X214122502Y-188211638D02*
X214015359Y-188306876D01*
X214015359Y-188306876D02*
X214098693Y-188402114D01*
X214098693Y-188402114D02*
X214205836Y-188306876D01*
X214205836Y-188306876D02*
X214122502Y-188211638D01*
X214122502Y-188211638D02*
X214098693Y-188402114D01*
X215110598Y-190211638D02*
X214932026Y-190116400D01*
X214932026Y-190116400D02*
X214848693Y-190021161D01*
X214848693Y-190021161D02*
X214777264Y-189830685D01*
X214777264Y-189830685D02*
X214848693Y-189259257D01*
X214848693Y-189259257D02*
X214967740Y-189068780D01*
X214967740Y-189068780D02*
X215074883Y-188973542D01*
X215074883Y-188973542D02*
X215277264Y-188878304D01*
X215277264Y-188878304D02*
X215562978Y-188878304D01*
X215562978Y-188878304D02*
X215741550Y-188973542D01*
X215741550Y-188973542D02*
X215824883Y-189068780D01*
X215824883Y-189068780D02*
X215896312Y-189259257D01*
X215896312Y-189259257D02*
X215824883Y-189830685D01*
X215824883Y-189830685D02*
X215705836Y-190021161D01*
X215705836Y-190021161D02*
X215598693Y-190116400D01*
X215598693Y-190116400D02*
X215396312Y-190211638D01*
X215396312Y-190211638D02*
X215110598Y-190211638D01*
X216801074Y-188878304D02*
X216634407Y-190211638D01*
X216777264Y-189068780D02*
X216884407Y-188973542D01*
X216884407Y-188973542D02*
X217086788Y-188878304D01*
X217086788Y-188878304D02*
X217372502Y-188878304D01*
X217372502Y-188878304D02*
X217551074Y-188973542D01*
X217551074Y-188973542D02*
X217622502Y-189164019D01*
X217622502Y-189164019D02*
X217491550Y-190211638D01*
X220098694Y-188402114D02*
X220205836Y-188306876D01*
X220205836Y-188306876D02*
X220408217Y-188211638D01*
X220408217Y-188211638D02*
X220884408Y-188211638D01*
X220884408Y-188211638D02*
X221062979Y-188306876D01*
X221062979Y-188306876D02*
X221146313Y-188402114D01*
X221146313Y-188402114D02*
X221217741Y-188592590D01*
X221217741Y-188592590D02*
X221193932Y-188783066D01*
X221193932Y-188783066D02*
X221062979Y-189068780D01*
X221062979Y-189068780D02*
X219777265Y-190211638D01*
X219777265Y-190211638D02*
X221015360Y-190211638D01*
X222503456Y-188211638D02*
X222693932Y-188211638D01*
X222693932Y-188211638D02*
X222872503Y-188306876D01*
X222872503Y-188306876D02*
X222955837Y-188402114D01*
X222955837Y-188402114D02*
X223027265Y-188592590D01*
X223027265Y-188592590D02*
X223074884Y-188973542D01*
X223074884Y-188973542D02*
X223015360Y-189449733D01*
X223015360Y-189449733D02*
X222872503Y-189830685D01*
X222872503Y-189830685D02*
X222753456Y-190021161D01*
X222753456Y-190021161D02*
X222646313Y-190116400D01*
X222646313Y-190116400D02*
X222443932Y-190211638D01*
X222443932Y-190211638D02*
X222253456Y-190211638D01*
X222253456Y-190211638D02*
X222074884Y-190116400D01*
X222074884Y-190116400D02*
X221991551Y-190021161D01*
X221991551Y-190021161D02*
X221920122Y-189830685D01*
X221920122Y-189830685D02*
X221872503Y-189449733D01*
X221872503Y-189449733D02*
X221932027Y-188973542D01*
X221932027Y-188973542D02*
X222074884Y-188592590D01*
X222074884Y-188592590D02*
X222193932Y-188402114D01*
X222193932Y-188402114D02*
X222301075Y-188306876D01*
X222301075Y-188306876D02*
X222503456Y-188211638D01*
X223908218Y-188402114D02*
X224015360Y-188306876D01*
X224015360Y-188306876D02*
X224217741Y-188211638D01*
X224217741Y-188211638D02*
X224693932Y-188211638D01*
X224693932Y-188211638D02*
X224872503Y-188306876D01*
X224872503Y-188306876D02*
X224955837Y-188402114D01*
X224955837Y-188402114D02*
X225027265Y-188592590D01*
X225027265Y-188592590D02*
X225003456Y-188783066D01*
X225003456Y-188783066D02*
X224872503Y-189068780D01*
X224872503Y-189068780D02*
X223586789Y-190211638D01*
X223586789Y-190211638D02*
X224824884Y-190211638D01*
X226705837Y-188878304D02*
X226539170Y-190211638D01*
X226324884Y-188116400D02*
X225670122Y-189544971D01*
X225670122Y-189544971D02*
X226908218Y-189544971D01*
D10*
D11*
X178958026Y-185607614D02*
X178458026Y-185607614D01*
X178458026Y-186393328D02*
X178458026Y-184893328D01*
X178458026Y-184893328D02*
X179172312Y-184893328D01*
X179743740Y-186393328D02*
X179743740Y-185393328D01*
X179743740Y-184893328D02*
X179672312Y-184964757D01*
X179672312Y-184964757D02*
X179743740Y-185036185D01*
X179743740Y-185036185D02*
X179815169Y-184964757D01*
X179815169Y-184964757D02*
X179743740Y-184893328D01*
X179743740Y-184893328D02*
X179743740Y-185036185D01*
X180672312Y-186393328D02*
X180529455Y-186321900D01*
X180529455Y-186321900D02*
X180458026Y-186179042D01*
X180458026Y-186179042D02*
X180458026Y-184893328D01*
X181815169Y-186321900D02*
X181672312Y-186393328D01*
X181672312Y-186393328D02*
X181386598Y-186393328D01*
X181386598Y-186393328D02*
X181243740Y-186321900D01*
X181243740Y-186321900D02*
X181172312Y-186179042D01*
X181172312Y-186179042D02*
X181172312Y-185607614D01*
X181172312Y-185607614D02*
X181243740Y-185464757D01*
X181243740Y-185464757D02*
X181386598Y-185393328D01*
X181386598Y-185393328D02*
X181672312Y-185393328D01*
X181672312Y-185393328D02*
X181815169Y-185464757D01*
X181815169Y-185464757D02*
X181886598Y-185607614D01*
X181886598Y-185607614D02*
X181886598Y-185750471D01*
X181886598Y-185750471D02*
X181172312Y-185893328D01*
X182529454Y-186250471D02*
X182600883Y-186321900D01*
X182600883Y-186321900D02*
X182529454Y-186393328D01*
X182529454Y-186393328D02*
X182458026Y-186321900D01*
X182458026Y-186321900D02*
X182529454Y-186250471D01*
X182529454Y-186250471D02*
X182529454Y-186393328D01*
X182529454Y-185464757D02*
X182600883Y-185536185D01*
X182600883Y-185536185D02*
X182529454Y-185607614D01*
X182529454Y-185607614D02*
X182458026Y-185536185D01*
X182458026Y-185536185D02*
X182529454Y-185464757D01*
X182529454Y-185464757D02*
X182529454Y-185607614D01*
X184386597Y-185393328D02*
X184386597Y-186893328D01*
X184386597Y-185464757D02*
X184529455Y-185393328D01*
X184529455Y-185393328D02*
X184815169Y-185393328D01*
X184815169Y-185393328D02*
X184958026Y-185464757D01*
X184958026Y-185464757D02*
X185029455Y-185536185D01*
X185029455Y-185536185D02*
X185100883Y-185679042D01*
X185100883Y-185679042D02*
X185100883Y-186107614D01*
X185100883Y-186107614D02*
X185029455Y-186250471D01*
X185029455Y-186250471D02*
X184958026Y-186321900D01*
X184958026Y-186321900D02*
X184815169Y-186393328D01*
X184815169Y-186393328D02*
X184529455Y-186393328D01*
X184529455Y-186393328D02*
X184386597Y-186321900D01*
X185958026Y-186393328D02*
X185815169Y-186321900D01*
X185815169Y-186321900D02*
X185743740Y-186250471D01*
X185743740Y-186250471D02*
X185672312Y-186107614D01*
X185672312Y-186107614D02*
X185672312Y-185679042D01*
X185672312Y-185679042D02*
X185743740Y-185536185D01*
X185743740Y-185536185D02*
X185815169Y-185464757D01*
X185815169Y-185464757D02*
X185958026Y-185393328D01*
X185958026Y-185393328D02*
X186172312Y-185393328D01*
X186172312Y-185393328D02*
X186315169Y-185464757D01*
X186315169Y-185464757D02*
X186386598Y-185536185D01*
X186386598Y-185536185D02*
X186458026Y-185679042D01*
X186458026Y-185679042D02*
X186458026Y-186107614D01*
X186458026Y-186107614D02*
X186386598Y-186250471D01*
X186386598Y-186250471D02*
X186315169Y-186321900D01*
X186315169Y-186321900D02*
X186172312Y-186393328D01*
X186172312Y-186393328D02*
X185958026Y-186393328D01*
X186958026Y-185393328D02*
X187243741Y-186393328D01*
X187243741Y-186393328D02*
X187529455Y-185679042D01*
X187529455Y-185679042D02*
X187815169Y-186393328D01*
X187815169Y-186393328D02*
X188100883Y-185393328D01*
X189243741Y-186321900D02*
X189100884Y-186393328D01*
X189100884Y-186393328D02*
X188815170Y-186393328D01*
X188815170Y-186393328D02*
X188672312Y-186321900D01*
X188672312Y-186321900D02*
X188600884Y-186179042D01*
X188600884Y-186179042D02*
X188600884Y-185607614D01*
X188600884Y-185607614D02*
X188672312Y-185464757D01*
X188672312Y-185464757D02*
X188815170Y-185393328D01*
X188815170Y-185393328D02*
X189100884Y-185393328D01*
X189100884Y-185393328D02*
X189243741Y-185464757D01*
X189243741Y-185464757D02*
X189315170Y-185607614D01*
X189315170Y-185607614D02*
X189315170Y-185750471D01*
X189315170Y-185750471D02*
X188600884Y-185893328D01*
X189958026Y-186393328D02*
X189958026Y-185393328D01*
X189958026Y-185679042D02*
X190029455Y-185536185D01*
X190029455Y-185536185D02*
X190100884Y-185464757D01*
X190100884Y-185464757D02*
X190243741Y-185393328D01*
X190243741Y-185393328D02*
X190386598Y-185393328D01*
X190529455Y-186536185D02*
X191672312Y-186536185D01*
X191958026Y-186321900D02*
X192100883Y-186393328D01*
X192100883Y-186393328D02*
X192386597Y-186393328D01*
X192386597Y-186393328D02*
X192529454Y-186321900D01*
X192529454Y-186321900D02*
X192600883Y-186179042D01*
X192600883Y-186179042D02*
X192600883Y-186107614D01*
X192600883Y-186107614D02*
X192529454Y-185964757D01*
X192529454Y-185964757D02*
X192386597Y-185893328D01*
X192386597Y-185893328D02*
X192172312Y-185893328D01*
X192172312Y-185893328D02*
X192029454Y-185821900D01*
X192029454Y-185821900D02*
X191958026Y-185679042D01*
X191958026Y-185679042D02*
X191958026Y-185607614D01*
X191958026Y-185607614D02*
X192029454Y-185464757D01*
X192029454Y-185464757D02*
X192172312Y-185393328D01*
X192172312Y-185393328D02*
X192386597Y-185393328D01*
X192386597Y-185393328D02*
X192529454Y-185464757D01*
X193886598Y-185393328D02*
X193886598Y-186393328D01*
X193243740Y-185393328D02*
X193243740Y-186179042D01*
X193243740Y-186179042D02*
X193315169Y-186321900D01*
X193315169Y-186321900D02*
X193458026Y-186393328D01*
X193458026Y-186393328D02*
X193672312Y-186393328D01*
X193672312Y-186393328D02*
X193815169Y-186321900D01*
X193815169Y-186321900D02*
X193886598Y-186250471D01*
X194600883Y-185393328D02*
X194600883Y-186893328D01*
X194600883Y-185464757D02*
X194743741Y-185393328D01*
X194743741Y-185393328D02*
X195029455Y-185393328D01*
X195029455Y-185393328D02*
X195172312Y-185464757D01*
X195172312Y-185464757D02*
X195243741Y-185536185D01*
X195243741Y-185536185D02*
X195315169Y-185679042D01*
X195315169Y-185679042D02*
X195315169Y-186107614D01*
X195315169Y-186107614D02*
X195243741Y-186250471D01*
X195243741Y-186250471D02*
X195172312Y-186321900D01*
X195172312Y-186321900D02*
X195029455Y-186393328D01*
X195029455Y-186393328D02*
X194743741Y-186393328D01*
X194743741Y-186393328D02*
X194600883Y-186321900D01*
X195958026Y-185393328D02*
X195958026Y-186893328D01*
X195958026Y-185464757D02*
X196100884Y-185393328D01*
X196100884Y-185393328D02*
X196386598Y-185393328D01*
X196386598Y-185393328D02*
X196529455Y-185464757D01*
X196529455Y-185464757D02*
X196600884Y-185536185D01*
X196600884Y-185536185D02*
X196672312Y-185679042D01*
X196672312Y-185679042D02*
X196672312Y-186107614D01*
X196672312Y-186107614D02*
X196600884Y-186250471D01*
X196600884Y-186250471D02*
X196529455Y-186321900D01*
X196529455Y-186321900D02*
X196386598Y-186393328D01*
X196386598Y-186393328D02*
X196100884Y-186393328D01*
X196100884Y-186393328D02*
X195958026Y-186321900D01*
X197529455Y-186393328D02*
X197386598Y-186321900D01*
X197386598Y-186321900D02*
X197315169Y-186179042D01*
X197315169Y-186179042D02*
X197315169Y-184893328D01*
X197958026Y-185393328D02*
X198315169Y-186393328D01*
X198672312Y-185393328D02*
X198315169Y-186393328D01*
X198315169Y-186393328D02*
X198172312Y-186750471D01*
X198172312Y-186750471D02*
X198100883Y-186821900D01*
X198100883Y-186821900D02*
X197958026Y-186893328D01*
X198886598Y-186536185D02*
X200029455Y-186536185D01*
X201100883Y-184893328D02*
X200386597Y-184893328D01*
X200386597Y-184893328D02*
X200315169Y-185607614D01*
X200315169Y-185607614D02*
X200386597Y-185536185D01*
X200386597Y-185536185D02*
X200529455Y-185464757D01*
X200529455Y-185464757D02*
X200886597Y-185464757D01*
X200886597Y-185464757D02*
X201029455Y-185536185D01*
X201029455Y-185536185D02*
X201100883Y-185607614D01*
X201100883Y-185607614D02*
X201172312Y-185750471D01*
X201172312Y-185750471D02*
X201172312Y-186107614D01*
X201172312Y-186107614D02*
X201100883Y-186250471D01*
X201100883Y-186250471D02*
X201029455Y-186321900D01*
X201029455Y-186321900D02*
X200886597Y-186393328D01*
X200886597Y-186393328D02*
X200529455Y-186393328D01*
X200529455Y-186393328D02*
X200386597Y-186321900D01*
X200386597Y-186321900D02*
X200315169Y-186250471D01*
X201600883Y-184893328D02*
X202100883Y-186393328D01*
X202100883Y-186393328D02*
X202600883Y-184893328D01*
X203100882Y-186250471D02*
X203172311Y-186321900D01*
X203172311Y-186321900D02*
X203100882Y-186393328D01*
X203100882Y-186393328D02*
X203029454Y-186321900D01*
X203029454Y-186321900D02*
X203100882Y-186250471D01*
X203100882Y-186250471D02*
X203100882Y-186393328D01*
X203815168Y-186393328D02*
X203815168Y-184893328D01*
X203958026Y-185821900D02*
X204386597Y-186393328D01*
X204386597Y-185393328D02*
X203815168Y-185964757D01*
X205029454Y-186393328D02*
X205029454Y-185393328D01*
X205029454Y-184893328D02*
X204958026Y-184964757D01*
X204958026Y-184964757D02*
X205029454Y-185036185D01*
X205029454Y-185036185D02*
X205100883Y-184964757D01*
X205100883Y-184964757D02*
X205029454Y-184893328D01*
X205029454Y-184893328D02*
X205029454Y-185036185D01*
X206386598Y-186321900D02*
X206243740Y-186393328D01*
X206243740Y-186393328D02*
X205958026Y-186393328D01*
X205958026Y-186393328D02*
X205815169Y-186321900D01*
X205815169Y-186321900D02*
X205743740Y-186250471D01*
X205743740Y-186250471D02*
X205672312Y-186107614D01*
X205672312Y-186107614D02*
X205672312Y-185679042D01*
X205672312Y-185679042D02*
X205743740Y-185536185D01*
X205743740Y-185536185D02*
X205815169Y-185464757D01*
X205815169Y-185464757D02*
X205958026Y-185393328D01*
X205958026Y-185393328D02*
X206243740Y-185393328D01*
X206243740Y-185393328D02*
X206386598Y-185464757D01*
X207672312Y-186393328D02*
X207672312Y-185607614D01*
X207672312Y-185607614D02*
X207600883Y-185464757D01*
X207600883Y-185464757D02*
X207458026Y-185393328D01*
X207458026Y-185393328D02*
X207172312Y-185393328D01*
X207172312Y-185393328D02*
X207029454Y-185464757D01*
X207672312Y-186321900D02*
X207529454Y-186393328D01*
X207529454Y-186393328D02*
X207172312Y-186393328D01*
X207172312Y-186393328D02*
X207029454Y-186321900D01*
X207029454Y-186321900D02*
X206958026Y-186179042D01*
X206958026Y-186179042D02*
X206958026Y-186036185D01*
X206958026Y-186036185D02*
X207029454Y-185893328D01*
X207029454Y-185893328D02*
X207172312Y-185821900D01*
X207172312Y-185821900D02*
X207529454Y-185821900D01*
X207529454Y-185821900D02*
X207672312Y-185750471D01*
X209029455Y-186393328D02*
X209029455Y-184893328D01*
X209029455Y-186321900D02*
X208886597Y-186393328D01*
X208886597Y-186393328D02*
X208600883Y-186393328D01*
X208600883Y-186393328D02*
X208458026Y-186321900D01*
X208458026Y-186321900D02*
X208386597Y-186250471D01*
X208386597Y-186250471D02*
X208315169Y-186107614D01*
X208315169Y-186107614D02*
X208315169Y-185679042D01*
X208315169Y-185679042D02*
X208386597Y-185536185D01*
X208386597Y-185536185D02*
X208458026Y-185464757D01*
X208458026Y-185464757D02*
X208600883Y-185393328D01*
X208600883Y-185393328D02*
X208886597Y-185393328D01*
X208886597Y-185393328D02*
X209029455Y-185464757D01*
X209386598Y-186536185D02*
X210529455Y-186536185D01*
X210886597Y-185393328D02*
X210886597Y-186893328D01*
X210886597Y-185464757D02*
X211029455Y-185393328D01*
X211029455Y-185393328D02*
X211315169Y-185393328D01*
X211315169Y-185393328D02*
X211458026Y-185464757D01*
X211458026Y-185464757D02*
X211529455Y-185536185D01*
X211529455Y-185536185D02*
X211600883Y-185679042D01*
X211600883Y-185679042D02*
X211600883Y-186107614D01*
X211600883Y-186107614D02*
X211529455Y-186250471D01*
X211529455Y-186250471D02*
X211458026Y-186321900D01*
X211458026Y-186321900D02*
X211315169Y-186393328D01*
X211315169Y-186393328D02*
X211029455Y-186393328D01*
X211029455Y-186393328D02*
X210886597Y-186321900D01*
X212886598Y-186321900D02*
X212743740Y-186393328D01*
X212743740Y-186393328D02*
X212458026Y-186393328D01*
X212458026Y-186393328D02*
X212315169Y-186321900D01*
X212315169Y-186321900D02*
X212243740Y-186250471D01*
X212243740Y-186250471D02*
X212172312Y-186107614D01*
X212172312Y-186107614D02*
X212172312Y-185679042D01*
X212172312Y-185679042D02*
X212243740Y-185536185D01*
X212243740Y-185536185D02*
X212315169Y-185464757D01*
X212315169Y-185464757D02*
X212458026Y-185393328D01*
X212458026Y-185393328D02*
X212743740Y-185393328D01*
X212743740Y-185393328D02*
X212886598Y-185464757D01*
X213529454Y-186393328D02*
X213529454Y-184893328D01*
X213529454Y-185464757D02*
X213672312Y-185393328D01*
X213672312Y-185393328D02*
X213958026Y-185393328D01*
X213958026Y-185393328D02*
X214100883Y-185464757D01*
X214100883Y-185464757D02*
X214172312Y-185536185D01*
X214172312Y-185536185D02*
X214243740Y-185679042D01*
X214243740Y-185679042D02*
X214243740Y-186107614D01*
X214243740Y-186107614D02*
X214172312Y-186250471D01*
X214172312Y-186250471D02*
X214100883Y-186321900D01*
X214100883Y-186321900D02*
X213958026Y-186393328D01*
X213958026Y-186393328D02*
X213672312Y-186393328D01*
X213672312Y-186393328D02*
X213529454Y-186321900D01*
D10*
D11*
X177002200Y-181507200D02*
X285002200Y-181507200D01*
D10*
D11*
X178386598Y-183621900D02*
X178600884Y-183693328D01*
X178600884Y-183693328D02*
X178958026Y-183693328D01*
X178958026Y-183693328D02*
X179100884Y-183621900D01*
X179100884Y-183621900D02*
X179172312Y-183550471D01*
X179172312Y-183550471D02*
X179243741Y-183407614D01*
X179243741Y-183407614D02*
X179243741Y-183264757D01*
X179243741Y-183264757D02*
X179172312Y-183121900D01*
X179172312Y-183121900D02*
X179100884Y-183050471D01*
X179100884Y-183050471D02*
X178958026Y-182979042D01*
X178958026Y-182979042D02*
X178672312Y-182907614D01*
X178672312Y-182907614D02*
X178529455Y-182836185D01*
X178529455Y-182836185D02*
X178458026Y-182764757D01*
X178458026Y-182764757D02*
X178386598Y-182621900D01*
X178386598Y-182621900D02*
X178386598Y-182479042D01*
X178386598Y-182479042D02*
X178458026Y-182336185D01*
X178458026Y-182336185D02*
X178529455Y-182264757D01*
X178529455Y-182264757D02*
X178672312Y-182193328D01*
X178672312Y-182193328D02*
X179029455Y-182193328D01*
X179029455Y-182193328D02*
X179243741Y-182264757D01*
X179886597Y-183693328D02*
X179886597Y-182193328D01*
X180529455Y-183693328D02*
X180529455Y-182907614D01*
X180529455Y-182907614D02*
X180458026Y-182764757D01*
X180458026Y-182764757D02*
X180315169Y-182693328D01*
X180315169Y-182693328D02*
X180100883Y-182693328D01*
X180100883Y-182693328D02*
X179958026Y-182764757D01*
X179958026Y-182764757D02*
X179886597Y-182836185D01*
X181815169Y-183621900D02*
X181672312Y-183693328D01*
X181672312Y-183693328D02*
X181386598Y-183693328D01*
X181386598Y-183693328D02*
X181243740Y-183621900D01*
X181243740Y-183621900D02*
X181172312Y-183479042D01*
X181172312Y-183479042D02*
X181172312Y-182907614D01*
X181172312Y-182907614D02*
X181243740Y-182764757D01*
X181243740Y-182764757D02*
X181386598Y-182693328D01*
X181386598Y-182693328D02*
X181672312Y-182693328D01*
X181672312Y-182693328D02*
X181815169Y-182764757D01*
X181815169Y-182764757D02*
X181886598Y-182907614D01*
X181886598Y-182907614D02*
X181886598Y-183050471D01*
X181886598Y-183050471D02*
X181172312Y-183193328D01*
X183100883Y-183621900D02*
X182958026Y-183693328D01*
X182958026Y-183693328D02*
X182672312Y-183693328D01*
X182672312Y-183693328D02*
X182529454Y-183621900D01*
X182529454Y-183621900D02*
X182458026Y-183479042D01*
X182458026Y-183479042D02*
X182458026Y-182907614D01*
X182458026Y-182907614D02*
X182529454Y-182764757D01*
X182529454Y-182764757D02*
X182672312Y-182693328D01*
X182672312Y-182693328D02*
X182958026Y-182693328D01*
X182958026Y-182693328D02*
X183100883Y-182764757D01*
X183100883Y-182764757D02*
X183172312Y-182907614D01*
X183172312Y-182907614D02*
X183172312Y-183050471D01*
X183172312Y-183050471D02*
X182458026Y-183193328D01*
X183600883Y-182693328D02*
X184172311Y-182693328D01*
X183815168Y-182193328D02*
X183815168Y-183479042D01*
X183815168Y-183479042D02*
X183886597Y-183621900D01*
X183886597Y-183621900D02*
X184029454Y-183693328D01*
X184029454Y-183693328D02*
X184172311Y-183693328D01*
X184672311Y-183550471D02*
X184743740Y-183621900D01*
X184743740Y-183621900D02*
X184672311Y-183693328D01*
X184672311Y-183693328D02*
X184600883Y-183621900D01*
X184600883Y-183621900D02*
X184672311Y-183550471D01*
X184672311Y-183550471D02*
X184672311Y-183693328D01*
X184672311Y-182764757D02*
X184743740Y-182836185D01*
X184743740Y-182836185D02*
X184672311Y-182907614D01*
X184672311Y-182907614D02*
X184600883Y-182836185D01*
X184600883Y-182836185D02*
X184672311Y-182764757D01*
X184672311Y-182764757D02*
X184672311Y-182907614D01*
D10*
D12*
X178485282Y-180256957D02*
X179199568Y-180256957D01*
X178342425Y-180685528D02*
X178842425Y-179185528D01*
X178842425Y-179185528D02*
X179342425Y-180685528D01*
X180699567Y-180685528D02*
X180199567Y-179971242D01*
X179842424Y-180685528D02*
X179842424Y-179185528D01*
X179842424Y-179185528D02*
X180413853Y-179185528D01*
X180413853Y-179185528D02*
X180556710Y-179256957D01*
X180556710Y-179256957D02*
X180628139Y-179328385D01*
X180628139Y-179328385D02*
X180699567Y-179471242D01*
X180699567Y-179471242D02*
X180699567Y-179685528D01*
X180699567Y-179685528D02*
X180628139Y-179828385D01*
X180628139Y-179828385D02*
X180556710Y-179899814D01*
X180556710Y-179899814D02*
X180413853Y-179971242D01*
X180413853Y-179971242D02*
X179842424Y-179971242D01*
X181342424Y-179899814D02*
X181842424Y-179899814D01*
X182056710Y-180685528D02*
X181342424Y-180685528D01*
X181342424Y-180685528D02*
X181342424Y-179185528D01*
X181342424Y-179185528D02*
X182056710Y-179185528D01*
X182699567Y-180685528D02*
X182699567Y-179185528D01*
X182699567Y-179185528D02*
X183199567Y-180256957D01*
X183199567Y-180256957D02*
X183699567Y-179185528D01*
X183699567Y-179185528D02*
X183699567Y-180685528D01*
D10*
D11*
D10*
D11*
D10*
D11*
D10*
D11*
D10*
D11*
X197002200Y-191507200D02*
X197002200Y-194507200D01*
D10*
D11*
X261002200Y-191507200D02*
X261002200Y-198007200D01*
D14*
%TO.P,J10,1,Pin_1*%
%TO.N,GND*%
X83450000Y-44000000D03*
D15*
%TO.P,J10,2,Pin_2*%
%TO.N,VIN*%
X76250000Y-44000000D03*
D16*
%TO.P,J10,S1*%
%TO.N,N/C*%
X86600000Y-38000000D03*
%TO.P,J10,S2*%
X73100000Y-38000000D03*
%TD*%
D17*
%TO.P,J5,1,Pin_1*%
%TO.N,VOUT_1*%
X118900000Y-73400000D03*
D18*
%TO.P,J5,2,Pin_2*%
%TO.N,GND*%
X118900000Y-75900000D03*
%TD*%
D19*
%TO.P,J7,1,Pin_1*%
%TO.N,VOUT_2*%
X97500000Y-103700000D03*
D20*
%TO.P,J7,2,Pin_2*%
%TO.N,GND*%
X95000000Y-103700000D03*
%TD*%
D21*
%TO.P,U2,1,IN+*%
%TO.N,VIN*%
X69000000Y-75400000D03*
%TO.P,U2,2,IN-*%
%TO.N,GND*%
X69000000Y-93600000D03*
%TO.P,U2,3,OUT+*%
%TO.N,VOUT_2*%
X109850000Y-75400000D03*
%TO.P,U2,4,OUT-*%
%TO.N,GND*%
X109850000Y-93600000D03*
%TD*%
D19*
%TO.P,J6,1,Pin_1*%
%TO.N,VOUT_2*%
X107600000Y-103700000D03*
D20*
%TO.P,J6,2,Pin_2*%
%TO.N,GND*%
X105100000Y-103700000D03*
%TD*%
D22*
%TO.P,R1,1*%
%TO.N,VIN*%
X60912500Y-50300000D03*
%TO.P,R1,2*%
%TO.N,Net-(D1-A)*%
X55887500Y-50300000D03*
%TD*%
D23*
%TO.P,D1,1,K*%
%TO.N,GND*%
X48825000Y-50200000D03*
D24*
%TO.P,D1,2,A*%
%TO.N,Net-(D1-A)*%
X51365000Y-50200000D03*
%TD*%
D21*
%TO.P,U1,1,IN+*%
%TO.N,VIN*%
X69100000Y-48700000D03*
%TO.P,U1,2,IN-*%
%TO.N,GND*%
X69100000Y-66900000D03*
%TO.P,U1,3,OUT+*%
%TO.N,VOUT_1*%
X109950000Y-48700000D03*
%TO.P,U1,4,OUT-*%
%TO.N,GND*%
X109950000Y-66900000D03*
%TD*%
D19*
%TO.P,J9,1,Pin_1*%
%TO.N,VOUT_2*%
X77600000Y-103600000D03*
D20*
%TO.P,J9,2,Pin_2*%
%TO.N,GND*%
X75100000Y-103600000D03*
%TD*%
D25*
%TO.P,F1,1*%
%TO.N,Net-(J1-Pin_1)*%
X50600000Y-41150000D03*
%TO.P,F1,2*%
%TO.N,VIN*%
X60800000Y-43050000D03*
%TD*%
D19*
%TO.P,J8,1,Pin_1*%
%TO.N,VOUT_2*%
X87500000Y-103600000D03*
D20*
%TO.P,J8,2,Pin_2*%
%TO.N,GND*%
X85000000Y-103600000D03*
%TD*%
D17*
%TO.P,J2,1,Pin_1*%
%TO.N,VOUT_1*%
X119000000Y-43300000D03*
D18*
%TO.P,J2,2,Pin_2*%
%TO.N,GND*%
X119000000Y-45800000D03*
%TD*%
D26*
%TO.P,J1,1,Pin_1*%
%TO.N,Net-(J1-Pin_1)*%
X43600000Y-48442500D03*
D27*
%TO.P,J1,2,Pin_2*%
%TO.N,GND*%
X37600000Y-48442500D03*
D28*
%TO.P,J1,3*%
%TO.N,N/C*%
X40600000Y-53142500D03*
%TD*%
D17*
%TO.P,J3,1,Pin_1*%
%TO.N,VOUT_1*%
X118800000Y-53100000D03*
D18*
%TO.P,J3,2,Pin_2*%
%TO.N,GND*%
X118800000Y-55600000D03*
%TD*%
D17*
%TO.P,J4,1,Pin_1*%
%TO.N,VOUT_1*%
X118800000Y-63100000D03*
D18*
%TO.P,J4,2,Pin_2*%
%TO.N,GND*%
X118800000Y-65600000D03*
%TD*%
D29*
%TO.N,VIN*%
X71550000Y-48700000D02*
X76250000Y-44000000D01*
X69100000Y-48700000D02*
X71550000Y-48700000D01*
D30*
%TO.N,VOUT_2*%
X102600000Y-82600000D02*
X102600000Y-98700000D01*
X109800000Y-75400000D02*
X102600000Y-82600000D01*
X102600000Y-98700000D02*
X107600000Y-103700000D01*
X109850000Y-75400000D02*
X109800000Y-75400000D01*
%TO.N,VOUT_1*%
X113600000Y-48700000D02*
X119000000Y-43300000D01*
X109950000Y-48700000D02*
X113600000Y-48700000D01*
D31*
%TO.N,Net-(D1-A)*%
X55887500Y-50300000D02*
X55787500Y-50200000D01*
X55787500Y-50200000D02*
X51365000Y-50200000D01*
D29*
%TO.N,Net-(J1-Pin_1)*%
X43600000Y-48442500D02*
X43600000Y-48150000D01*
X43600000Y-48150000D02*
X50600000Y-41150000D01*
%TO.N,VIN*%
X60912500Y-50300000D02*
X62512500Y-48700000D01*
X60912500Y-67312500D02*
X69000000Y-75400000D01*
X60912500Y-50300000D02*
X60912500Y-67312500D01*
X62512500Y-48700000D02*
X69100000Y-48700000D01*
X60800000Y-43050000D02*
X60800000Y-50187500D01*
X60800000Y-50187500D02*
X60912500Y-50300000D01*
D30*
%TO.N,VOUT_1*%
X109950000Y-48700000D02*
X109950000Y-64450000D01*
X109950000Y-64450000D02*
X118900000Y-73400000D01*
X114400000Y-48700000D02*
X118800000Y-53100000D01*
X109950000Y-48700000D02*
X109950000Y-54250000D01*
X109950000Y-48700000D02*
X114400000Y-48700000D01*
X109950000Y-54250000D02*
X118800000Y-63100000D01*
%TO.N,VOUT_2*%
X109850000Y-75400000D02*
X93600000Y-75400000D01*
X93600000Y-75400000D02*
X87400000Y-81600000D01*
X109850000Y-75400000D02*
X85100000Y-75400000D01*
X81200000Y-79400000D02*
X77600000Y-83000000D01*
X85100000Y-75400000D02*
X81200000Y-79300000D01*
X97500000Y-82300000D02*
X97500000Y-103700000D01*
X77600000Y-83000000D02*
X77600000Y-103600000D01*
X87400000Y-103500000D02*
X87500000Y-103600000D01*
X104400000Y-75400000D02*
X97500000Y-82300000D01*
X81200000Y-79300000D02*
X81200000Y-79400000D01*
X87400000Y-81600000D02*
X87400000Y-103500000D01*
X109850000Y-75400000D02*
X104400000Y-75400000D01*
%TD*%
%TA.AperFunction,Conductor*%
%TO.N,GND*%
G36*
X87942539Y-27620185D02*
G01*
X87988294Y-27672989D01*
X87999500Y-27724500D01*
X87999500Y-35875467D01*
X87999416Y-35875889D01*
X87999459Y-35900001D01*
X87999500Y-35900099D01*
X87999616Y-35900382D01*
X87999618Y-35900384D01*
X87999808Y-35900462D01*
X88000000Y-35900541D01*
X88000002Y-35900539D01*
X88024616Y-35900524D01*
X88024616Y-35900528D01*
X88024760Y-35900500D01*
X123875500Y-35900500D01*
X123942539Y-35920185D01*
X123988294Y-35972989D01*
X123999500Y-36024500D01*
X123999500Y-108675500D01*
X123979815Y-108742539D01*
X123927011Y-108788294D01*
X123875500Y-108799500D01*
X27824500Y-108799500D01*
X27757461Y-108779815D01*
X27711706Y-108727011D01*
X27700500Y-108675500D01*
X27700500Y-103850000D01*
X73753592Y-103850000D01*
X73765430Y-103985315D01*
X73765432Y-103985326D01*
X73826566Y-104213483D01*
X73826570Y-104213492D01*
X73926399Y-104427577D01*
X73926400Y-104427579D01*
X74061886Y-104621073D01*
X74061891Y-104621079D01*
X74228917Y-104788105D01*
X74422421Y-104923600D01*
X74636507Y-105023429D01*
X74636516Y-105023433D01*
X74850000Y-105080634D01*
X74850000Y-104035501D01*
X74957685Y-104084680D01*
X75064237Y-104100000D01*
X75135763Y-104100000D01*
X75242315Y-104084680D01*
X75350000Y-104035501D01*
X75350000Y-105080633D01*
X75563483Y-105023433D01*
X75563492Y-105023429D01*
X75777577Y-104923600D01*
X75777579Y-104923599D01*
X75971073Y-104788113D01*
X75971079Y-104788108D01*
X76118331Y-104640857D01*
X76179654Y-104607372D01*
X76249346Y-104612356D01*
X76305279Y-104654228D01*
X76311551Y-104663441D01*
X76315186Y-104669334D01*
X76407288Y-104818656D01*
X76531344Y-104942712D01*
X76680666Y-105034814D01*
X76847203Y-105089999D01*
X76949991Y-105100500D01*
X78250008Y-105100499D01*
X78352797Y-105089999D01*
X78519334Y-105034814D01*
X78668656Y-104942712D01*
X78792712Y-104818656D01*
X78884814Y-104669334D01*
X78939999Y-104502797D01*
X78950500Y-104400009D01*
X78950499Y-102799992D01*
X78947682Y-102772420D01*
X78939999Y-102697203D01*
X78939998Y-102697200D01*
X78917950Y-102630663D01*
X78884814Y-102530666D01*
X78792712Y-102381344D01*
X78668656Y-102257288D01*
X78668655Y-102257287D01*
X78609402Y-102220739D01*
X78562678Y-102168791D01*
X78550500Y-102115201D01*
X78550500Y-83445071D01*
X78570185Y-83378032D01*
X78586814Y-83357395D01*
X81863582Y-80080627D01*
X81924919Y-80022323D01*
X81958161Y-79974562D01*
X81960962Y-79970846D01*
X81997734Y-79925751D01*
X82012758Y-79896986D01*
X82016819Y-79890283D01*
X82035353Y-79863658D01*
X82058299Y-79810184D01*
X82060295Y-79805980D01*
X82075635Y-79776614D01*
X82097859Y-79746349D01*
X85457390Y-76386819D01*
X85518714Y-76353334D01*
X85545072Y-76350500D01*
X91005928Y-76350500D01*
X91072967Y-76370185D01*
X91118722Y-76422989D01*
X91128666Y-76492147D01*
X91099641Y-76555703D01*
X91093609Y-76562180D01*
X88881540Y-78774249D01*
X86736417Y-80919372D01*
X86675084Y-80977672D01*
X86675082Y-80977675D01*
X86641855Y-81025411D01*
X86639020Y-81029172D01*
X86602265Y-81074250D01*
X86587248Y-81102998D01*
X86583179Y-81109714D01*
X86564646Y-81136342D01*
X86564646Y-81136343D01*
X86541711Y-81189789D01*
X86539689Y-81194046D01*
X86512764Y-81245591D01*
X86512762Y-81245595D01*
X86503839Y-81276776D01*
X86501206Y-81284172D01*
X86488412Y-81313987D01*
X86488412Y-81313988D01*
X86476703Y-81370960D01*
X86475580Y-81375534D01*
X86459583Y-81431448D01*
X86459581Y-81431454D01*
X86457120Y-81463791D01*
X86456029Y-81471572D01*
X86449500Y-81503343D01*
X86449500Y-81561502D01*
X86449321Y-81566211D01*
X86444904Y-81624201D01*
X86446804Y-81639120D01*
X86449003Y-81656385D01*
X86449500Y-81664214D01*
X86449500Y-102187769D01*
X86429815Y-102254808D01*
X86413182Y-102275450D01*
X86307285Y-102381347D01*
X86211550Y-102536558D01*
X86159602Y-102583283D01*
X86090640Y-102594504D01*
X86026558Y-102566661D01*
X86018331Y-102559143D01*
X85871078Y-102411891D01*
X85677578Y-102276399D01*
X85463492Y-102176570D01*
X85463486Y-102176567D01*
X85250000Y-102119364D01*
X85250000Y-103164498D01*
X85142315Y-103115320D01*
X85035763Y-103100000D01*
X84964237Y-103100000D01*
X84857685Y-103115320D01*
X84750000Y-103164498D01*
X84750000Y-102119364D01*
X84749999Y-102119364D01*
X84536513Y-102176567D01*
X84536507Y-102176570D01*
X84322422Y-102276399D01*
X84322420Y-102276400D01*
X84128926Y-102411886D01*
X84128920Y-102411891D01*
X83961891Y-102578920D01*
X83961886Y-102578926D01*
X83826400Y-102772420D01*
X83826399Y-102772422D01*
X83726570Y-102986507D01*
X83726566Y-102986516D01*
X83665432Y-103214673D01*
X83665430Y-103214684D01*
X83653592Y-103349999D01*
X83653593Y-103350000D01*
X84566314Y-103350000D01*
X84540507Y-103390156D01*
X84500000Y-103528111D01*
X84500000Y-103671889D01*
X84540507Y-103809844D01*
X84566314Y-103850000D01*
X83653592Y-103850000D01*
X83665430Y-103985315D01*
X83665432Y-103985326D01*
X83726566Y-104213483D01*
X83726570Y-104213492D01*
X83826399Y-104427577D01*
X83826400Y-104427579D01*
X83961886Y-104621073D01*
X83961891Y-104621079D01*
X84128917Y-104788105D01*
X84322421Y-104923600D01*
X84536507Y-105023429D01*
X84536516Y-105023433D01*
X84750000Y-105080634D01*
X84750000Y-104035501D01*
X84857685Y-104084680D01*
X84964237Y-104100000D01*
X85035763Y-104100000D01*
X85142315Y-104084680D01*
X85250000Y-104035501D01*
X85250000Y-105080633D01*
X85463483Y-105023433D01*
X85463492Y-105023429D01*
X85677577Y-104923600D01*
X85677579Y-104923599D01*
X85871073Y-104788113D01*
X85871079Y-104788108D01*
X86018331Y-104640857D01*
X86079654Y-104607372D01*
X86149346Y-104612356D01*
X86205279Y-104654228D01*
X86211551Y-104663441D01*
X86215186Y-104669334D01*
X86307288Y-104818656D01*
X86431344Y-104942712D01*
X86580666Y-105034814D01*
X86747203Y-105089999D01*
X86849991Y-105100500D01*
X88150008Y-105100499D01*
X88252797Y-105089999D01*
X88419334Y-105034814D01*
X88568656Y-104942712D01*
X88692712Y-104818656D01*
X88784814Y-104669334D01*
X88839999Y-104502797D01*
X88850500Y-104400009D01*
X88850499Y-102799992D01*
X88847682Y-102772420D01*
X88839999Y-102697203D01*
X88839998Y-102697200D01*
X88817950Y-102630663D01*
X88784814Y-102530666D01*
X88692712Y-102381344D01*
X88568656Y-102257288D01*
X88419334Y-102165186D01*
X88419332Y-102165185D01*
X88413187Y-102161395D01*
X88414290Y-102159605D01*
X88369649Y-102120290D01*
X88350500Y-102054091D01*
X88350500Y-82045072D01*
X88370185Y-81978033D01*
X88386819Y-81957391D01*
X93957391Y-76386819D01*
X94018714Y-76353334D01*
X94045072Y-76350500D01*
X101805928Y-76350500D01*
X101872967Y-76370185D01*
X101918722Y-76422989D01*
X101928666Y-76492147D01*
X101899641Y-76555703D01*
X101893609Y-76562181D01*
X96836417Y-81619372D01*
X96775084Y-81677672D01*
X96775082Y-81677675D01*
X96741855Y-81725411D01*
X96739020Y-81729172D01*
X96702265Y-81774250D01*
X96687248Y-81802998D01*
X96683179Y-81809714D01*
X96664646Y-81836342D01*
X96664646Y-81836343D01*
X96641711Y-81889789D01*
X96639689Y-81894046D01*
X96612764Y-81945591D01*
X96612762Y-81945595D01*
X96603839Y-81976776D01*
X96601206Y-81984172D01*
X96588412Y-82013987D01*
X96588412Y-82013988D01*
X96576703Y-82070960D01*
X96575580Y-82075534D01*
X96559583Y-82131448D01*
X96559581Y-82131454D01*
X96557120Y-82163791D01*
X96556029Y-82171572D01*
X96549500Y-82203343D01*
X96549500Y-82261502D01*
X96549321Y-82266211D01*
X96544904Y-82324201D01*
X96546804Y-82339120D01*
X96549003Y-82356385D01*
X96549500Y-82364214D01*
X96549500Y-102215201D01*
X96529815Y-102282240D01*
X96490598Y-102320739D01*
X96431344Y-102357287D01*
X96307288Y-102481343D01*
X96307285Y-102481347D01*
X96211550Y-102636558D01*
X96159602Y-102683283D01*
X96090640Y-102694504D01*
X96026558Y-102666661D01*
X96018331Y-102659143D01*
X95871078Y-102511891D01*
X95677578Y-102376399D01*
X95463492Y-102276570D01*
X95463486Y-102276567D01*
X95250000Y-102219364D01*
X95250000Y-103264498D01*
X95142315Y-103215320D01*
X95035763Y-103200000D01*
X94964237Y-103200000D01*
X94857685Y-103215320D01*
X94750000Y-103264498D01*
X94750000Y-102219364D01*
X94749999Y-102219364D01*
X94536513Y-102276567D01*
X94536507Y-102276570D01*
X94322422Y-102376399D01*
X94322420Y-102376400D01*
X94128926Y-102511886D01*
X94128920Y-102511891D01*
X93961891Y-102678920D01*
X93961886Y-102678926D01*
X93826400Y-102872420D01*
X93826399Y-102872422D01*
X93726570Y-103086507D01*
X93726566Y-103086516D01*
X93665432Y-103314673D01*
X93665430Y-103314684D01*
X93653592Y-103449999D01*
X93653593Y-103450000D01*
X94566314Y-103450000D01*
X94540507Y-103490156D01*
X94500000Y-103628111D01*
X94500000Y-103771889D01*
X94540507Y-103909844D01*
X94566314Y-103950000D01*
X93653592Y-103950000D01*
X93665430Y-104085315D01*
X93665432Y-104085326D01*
X93726566Y-104313483D01*
X93726570Y-104313492D01*
X93826399Y-104527577D01*
X93826400Y-104527579D01*
X93961886Y-104721073D01*
X93961891Y-104721079D01*
X94128917Y-104888105D01*
X94322421Y-105023600D01*
X94536507Y-105123429D01*
X94536516Y-105123433D01*
X94750000Y-105180634D01*
X94750000Y-104135501D01*
X94857685Y-104184680D01*
X94964237Y-104200000D01*
X95035763Y-104200000D01*
X95142315Y-104184680D01*
X95250000Y-104135501D01*
X95250000Y-105180633D01*
X95463483Y-105123433D01*
X95463492Y-105123429D01*
X95677577Y-105023600D01*
X95677579Y-105023599D01*
X95871073Y-104888113D01*
X95871079Y-104888108D01*
X96018331Y-104740857D01*
X96079654Y-104707372D01*
X96149346Y-104712356D01*
X96205279Y-104754228D01*
X96211551Y-104763441D01*
X96215186Y-104769334D01*
X96307288Y-104918656D01*
X96431344Y-105042712D01*
X96580666Y-105134814D01*
X96747203Y-105189999D01*
X96849991Y-105200500D01*
X98150008Y-105200499D01*
X98252797Y-105189999D01*
X98419334Y-105134814D01*
X98568656Y-105042712D01*
X98692712Y-104918656D01*
X98784814Y-104769334D01*
X98839999Y-104602797D01*
X98850500Y-104500009D01*
X98850499Y-102899992D01*
X98847682Y-102872420D01*
X98839999Y-102797203D01*
X98839998Y-102797200D01*
X98806861Y-102697200D01*
X98784814Y-102630666D01*
X98692712Y-102481344D01*
X98568656Y-102357288D01*
X98568655Y-102357287D01*
X98509402Y-102320739D01*
X98462678Y-102268791D01*
X98450500Y-102215201D01*
X98450500Y-82745072D01*
X98470185Y-82678033D01*
X98486819Y-82657391D01*
X104757391Y-76386819D01*
X104818714Y-76353334D01*
X104845072Y-76350500D01*
X107205928Y-76350500D01*
X107272967Y-76370185D01*
X107318722Y-76422989D01*
X107328666Y-76492147D01*
X107299641Y-76555703D01*
X107293609Y-76562181D01*
X101936417Y-81919372D01*
X101875084Y-81977672D01*
X101875082Y-81977675D01*
X101841855Y-82025411D01*
X101839020Y-82029172D01*
X101802265Y-82074250D01*
X101787248Y-82102998D01*
X101783179Y-82109714D01*
X101764646Y-82136342D01*
X101764646Y-82136343D01*
X101741711Y-82189789D01*
X101739689Y-82194046D01*
X101712764Y-82245591D01*
X101712762Y-82245595D01*
X101703839Y-82276776D01*
X101701206Y-82284172D01*
X101688412Y-82313987D01*
X101688412Y-82313988D01*
X101676703Y-82370960D01*
X101675580Y-82375534D01*
X101659583Y-82431448D01*
X101659581Y-82431454D01*
X101657120Y-82463791D01*
X101656029Y-82471572D01*
X101649500Y-82503343D01*
X101649500Y-82561502D01*
X101649321Y-82566211D01*
X101644904Y-82624201D01*
X101646804Y-82639120D01*
X101649003Y-82656385D01*
X101649500Y-82664214D01*
X101649500Y-98687937D01*
X101647355Y-98772545D01*
X101647355Y-98772546D01*
X101657615Y-98829787D01*
X101658269Y-98834452D01*
X101664154Y-98892318D01*
X101664156Y-98892326D01*
X101673865Y-98923269D01*
X101675737Y-98930898D01*
X101681460Y-98962828D01*
X101681461Y-98962830D01*
X101703032Y-99016833D01*
X101704613Y-99021272D01*
X101722025Y-99076768D01*
X101737765Y-99105125D01*
X101741135Y-99112221D01*
X101745163Y-99122303D01*
X101753170Y-99142348D01*
X101753172Y-99142351D01*
X101753173Y-99142353D01*
X101785174Y-99190908D01*
X101787605Y-99194920D01*
X101815841Y-99245791D01*
X101836972Y-99270406D01*
X101841703Y-99276680D01*
X101859547Y-99303757D01*
X101900667Y-99344877D01*
X101903870Y-99348333D01*
X101912751Y-99358677D01*
X101941760Y-99392468D01*
X101941764Y-99392471D01*
X101941765Y-99392472D01*
X101967407Y-99412320D01*
X101973303Y-99417513D01*
X104644854Y-102089064D01*
X104678339Y-102150387D01*
X104673355Y-102220079D01*
X104631483Y-102276012D01*
X104609578Y-102289127D01*
X104422422Y-102376399D01*
X104422420Y-102376400D01*
X104228926Y-102511886D01*
X104228920Y-102511891D01*
X104061891Y-102678920D01*
X104061886Y-102678926D01*
X103926400Y-102872420D01*
X103926399Y-102872422D01*
X103826570Y-103086507D01*
X103826566Y-103086516D01*
X103765432Y-103314673D01*
X103765430Y-103314684D01*
X103753592Y-103449999D01*
X103753593Y-103450000D01*
X104666314Y-103450000D01*
X104640507Y-103490156D01*
X104600000Y-103628111D01*
X104600000Y-103771889D01*
X104640507Y-103909844D01*
X104666314Y-103950000D01*
X103753592Y-103950000D01*
X103765430Y-104085315D01*
X103765432Y-104085326D01*
X103826566Y-104313483D01*
X103826570Y-104313492D01*
X103926399Y-104527577D01*
X103926400Y-104527579D01*
X104061886Y-104721073D01*
X104061891Y-104721079D01*
X104228917Y-104888105D01*
X104422421Y-105023600D01*
X104636507Y-105123429D01*
X104636516Y-105123433D01*
X104850000Y-105180634D01*
X104850000Y-104135501D01*
X104957685Y-104184680D01*
X105064237Y-104200000D01*
X105135763Y-104200000D01*
X105242315Y-104184680D01*
X105350000Y-104135501D01*
X105350000Y-105180633D01*
X105563483Y-105123433D01*
X105563492Y-105123429D01*
X105777577Y-105023600D01*
X105777579Y-105023599D01*
X105971073Y-104888113D01*
X105971079Y-104888108D01*
X106118331Y-104740857D01*
X106179654Y-104707372D01*
X106249346Y-104712356D01*
X106305279Y-104754228D01*
X106311551Y-104763441D01*
X106315186Y-104769334D01*
X106407288Y-104918656D01*
X106531344Y-105042712D01*
X106680666Y-105134814D01*
X106847203Y-105189999D01*
X106949991Y-105200500D01*
X108250008Y-105200499D01*
X108352797Y-105189999D01*
X108519334Y-105134814D01*
X108668656Y-105042712D01*
X108792712Y-104918656D01*
X108884814Y-104769334D01*
X108939999Y-104602797D01*
X108950500Y-104500009D01*
X108950499Y-102899992D01*
X108947682Y-102872420D01*
X108939999Y-102797203D01*
X108939998Y-102797200D01*
X108906861Y-102697200D01*
X108884814Y-102630666D01*
X108792712Y-102481344D01*
X108668656Y-102357288D01*
X108537515Y-102276400D01*
X108519336Y-102265187D01*
X108519331Y-102265185D01*
X108488015Y-102254808D01*
X108352797Y-102210001D01*
X108352795Y-102210000D01*
X108250016Y-102199500D01*
X108250009Y-102199500D01*
X107495072Y-102199500D01*
X107428033Y-102179815D01*
X107407391Y-102163181D01*
X103586819Y-98342608D01*
X103553334Y-98281285D01*
X103550500Y-98254927D01*
X103550500Y-94409844D01*
X108588000Y-94409844D01*
X108594401Y-94469372D01*
X108594403Y-94469379D01*
X108644645Y-94604086D01*
X108644649Y-94604093D01*
X108730809Y-94719187D01*
X108730812Y-94719190D01*
X108845906Y-94805350D01*
X108845913Y-94805354D01*
X108980620Y-94855596D01*
X108980627Y-94855598D01*
X109040155Y-94861999D01*
X109040172Y-94862000D01*
X109600000Y-94862000D01*
X109600000Y-93888220D01*
X109666157Y-93939713D01*
X109786422Y-93981000D01*
X109881569Y-93981000D01*
X109975421Y-93965339D01*
X110087251Y-93904820D01*
X110100000Y-93890970D01*
X110100000Y-94862000D01*
X110659828Y-94862000D01*
X110659844Y-94861999D01*
X110719372Y-94855598D01*
X110719379Y-94855596D01*
X110854086Y-94805354D01*
X110854093Y-94805350D01*
X110969187Y-94719190D01*
X110969190Y-94719187D01*
X111055350Y-94604093D01*
X111055354Y-94604086D01*
X111105596Y-94469379D01*
X111105598Y-94469372D01*
X111111999Y-94409844D01*
X111112000Y-94409827D01*
X111112000Y-93850000D01*
X110137717Y-93850000D01*
X110173371Y-93811269D01*
X110224448Y-93694823D01*
X110234949Y-93568102D01*
X110203734Y-93444838D01*
X110141773Y-93350000D01*
X111112000Y-93350000D01*
X111112000Y-92790172D01*
X111111999Y-92790155D01*
X111105598Y-92730627D01*
X111105596Y-92730620D01*
X111055354Y-92595913D01*
X111055350Y-92595906D01*
X110969190Y-92480812D01*
X110969187Y-92480809D01*
X110854093Y-92394649D01*
X110854086Y-92394645D01*
X110719379Y-92344403D01*
X110719372Y-92344401D01*
X110659844Y-92338000D01*
X110100000Y-92338000D01*
X110100000Y-93311779D01*
X110033843Y-93260287D01*
X109913578Y-93219000D01*
X109818431Y-93219000D01*
X109724579Y-93234661D01*
X109612749Y-93295180D01*
X109600000Y-93309029D01*
X109600000Y-92338000D01*
X109040155Y-92338000D01*
X108980627Y-92344401D01*
X108980620Y-92344403D01*
X108845913Y-92394645D01*
X108845906Y-92394649D01*
X108730812Y-92480809D01*
X108730809Y-92480812D01*
X108644649Y-92595906D01*
X108644645Y-92595913D01*
X108594403Y-92730620D01*
X108594401Y-92730627D01*
X108588000Y-92790155D01*
X108588000Y-93350000D01*
X109562283Y-93350000D01*
X109526629Y-93388731D01*
X109475552Y-93505177D01*
X109465051Y-93631898D01*
X109496266Y-93755162D01*
X109558227Y-93850000D01*
X108588000Y-93850000D01*
X108588000Y-94409844D01*
X103550500Y-94409844D01*
X103550500Y-83045071D01*
X103570185Y-82978032D01*
X103586814Y-82957395D01*
X109845391Y-76698817D01*
X109906714Y-76665333D01*
X109933072Y-76662499D01*
X110659871Y-76662499D01*
X110659872Y-76662499D01*
X110719483Y-76656091D01*
X110854331Y-76605796D01*
X110969546Y-76519546D01*
X111055796Y-76404331D01*
X111106091Y-76269483D01*
X111112500Y-76209873D01*
X111112499Y-74590128D01*
X111106091Y-74530517D01*
X111095841Y-74503036D01*
X111055797Y-74395671D01*
X111055793Y-74395664D01*
X110969547Y-74280455D01*
X110969544Y-74280452D01*
X110854335Y-74194206D01*
X110854328Y-74194202D01*
X110719482Y-74143908D01*
X110719483Y-74143908D01*
X110659883Y-74137501D01*
X110659881Y-74137500D01*
X110659873Y-74137500D01*
X110659864Y-74137500D01*
X109040129Y-74137500D01*
X109040123Y-74137501D01*
X108980516Y-74143908D01*
X108845671Y-74194202D01*
X108845664Y-74194206D01*
X108730455Y-74280452D01*
X108641102Y-74399812D01*
X108585168Y-74441682D01*
X108541836Y-74449500D01*
X104412063Y-74449500D01*
X104327460Y-74447355D01*
X104327454Y-74447356D01*
X104326334Y-74447556D01*
X104304469Y-74449500D01*
X93612045Y-74449500D01*
X93527460Y-74447355D01*
X93527454Y-74447356D01*
X93526334Y-74447556D01*
X93504469Y-74449500D01*
X85112064Y-74449500D01*
X85027455Y-74447356D01*
X85027450Y-74447356D01*
X84970212Y-74457614D01*
X84965548Y-74458268D01*
X84907685Y-74464154D01*
X84907681Y-74464154D01*
X84907679Y-74464155D01*
X84907676Y-74464155D01*
X84907671Y-74464157D01*
X84876733Y-74473864D01*
X84869106Y-74475735D01*
X84837176Y-74481458D01*
X84837170Y-74481460D01*
X84783154Y-74503036D01*
X84778716Y-74504616D01*
X84723233Y-74522025D01*
X84723226Y-74522028D01*
X84694875Y-74537764D01*
X84687781Y-74541133D01*
X84657650Y-74553170D01*
X84609091Y-74585173D01*
X84605062Y-74587614D01*
X84554207Y-74615841D01*
X84554206Y-74615843D01*
X84529596Y-74636970D01*
X84523324Y-74641699D01*
X84496239Y-74659549D01*
X84496236Y-74659551D01*
X84455120Y-74700668D01*
X84451666Y-74703870D01*
X84407529Y-74741762D01*
X84387675Y-74767410D01*
X84382484Y-74773304D01*
X80536417Y-78619372D01*
X80475084Y-78677672D01*
X80475082Y-78677675D01*
X80441855Y-78725411D01*
X80439020Y-78729172D01*
X80402265Y-78774250D01*
X80387248Y-78802998D01*
X80383179Y-78809714D01*
X80364646Y-78836342D01*
X80364643Y-78836348D01*
X80341712Y-78889783D01*
X80339691Y-78894039D01*
X80324364Y-78923382D01*
X80302136Y-78953652D01*
X76936417Y-82319372D01*
X76875084Y-82377672D01*
X76875082Y-82377675D01*
X76841855Y-82425411D01*
X76839020Y-82429172D01*
X76802265Y-82474250D01*
X76787248Y-82502998D01*
X76783179Y-82509714D01*
X76764646Y-82536342D01*
X76764646Y-82536343D01*
X76741711Y-82589789D01*
X76739689Y-82594046D01*
X76712764Y-82645591D01*
X76712762Y-82645595D01*
X76703839Y-82676776D01*
X76701206Y-82684172D01*
X76688412Y-82713987D01*
X76688412Y-82713988D01*
X76676703Y-82770960D01*
X76675580Y-82775534D01*
X76659583Y-82831448D01*
X76659581Y-82831454D01*
X76657120Y-82863791D01*
X76656029Y-82871572D01*
X76649500Y-82903343D01*
X76649500Y-82961502D01*
X76649321Y-82966211D01*
X76644904Y-83024201D01*
X76646804Y-83039120D01*
X76649003Y-83056385D01*
X76649500Y-83064214D01*
X76649500Y-102115201D01*
X76629815Y-102182240D01*
X76590598Y-102220739D01*
X76531344Y-102257287D01*
X76407288Y-102381343D01*
X76407285Y-102381347D01*
X76311550Y-102536558D01*
X76259602Y-102583283D01*
X76190640Y-102594504D01*
X76126558Y-102566661D01*
X76118331Y-102559143D01*
X75971078Y-102411891D01*
X75777578Y-102276399D01*
X75563492Y-102176570D01*
X75563486Y-102176567D01*
X75350000Y-102119364D01*
X75350000Y-103164498D01*
X75242315Y-103115320D01*
X75135763Y-103100000D01*
X75064237Y-103100000D01*
X74957685Y-103115320D01*
X74850000Y-103164498D01*
X74850000Y-102119364D01*
X74849999Y-102119364D01*
X74636513Y-102176567D01*
X74636507Y-102176570D01*
X74422422Y-102276399D01*
X74422420Y-102276400D01*
X74228926Y-102411886D01*
X74228920Y-102411891D01*
X74061891Y-102578920D01*
X74061886Y-102578926D01*
X73926400Y-102772420D01*
X73926399Y-102772422D01*
X73826570Y-102986507D01*
X73826566Y-102986516D01*
X73765432Y-103214673D01*
X73765430Y-103214684D01*
X73753592Y-103349999D01*
X73753593Y-103350000D01*
X74666314Y-103350000D01*
X74640507Y-103390156D01*
X74600000Y-103528111D01*
X74600000Y-103671889D01*
X74640507Y-103809844D01*
X74666314Y-103850000D01*
X73753592Y-103850000D01*
X27700500Y-103850000D01*
X27700500Y-100131187D01*
X38249500Y-100131187D01*
X38269794Y-100265823D01*
X38288604Y-100390615D01*
X38288605Y-100390617D01*
X38288606Y-100390623D01*
X38365938Y-100641326D01*
X38479767Y-100877696D01*
X38479768Y-100877697D01*
X38479770Y-100877700D01*
X38479772Y-100877704D01*
X38627566Y-101094479D01*
X38627567Y-101094479D01*
X38806014Y-101286801D01*
X38806018Y-101286804D01*
X38806019Y-101286805D01*
X39011143Y-101450386D01*
X39238357Y-101581568D01*
X39482584Y-101677420D01*
X39738370Y-101735802D01*
X39738376Y-101735802D01*
X39738379Y-101735803D01*
X39934500Y-101750500D01*
X39934506Y-101750500D01*
X40065500Y-101750500D01*
X40261620Y-101735803D01*
X40261622Y-101735802D01*
X40261630Y-101735802D01*
X40517416Y-101677420D01*
X40761643Y-101581568D01*
X40988857Y-101450386D01*
X41193981Y-101286805D01*
X41372433Y-101094479D01*
X41520228Y-100877704D01*
X41634063Y-100641323D01*
X41711396Y-100390615D01*
X41750500Y-100131182D01*
X41750500Y-99868818D01*
X41711396Y-99609385D01*
X41634063Y-99358677D01*
X41607615Y-99303757D01*
X41520232Y-99122303D01*
X41520231Y-99122302D01*
X41520230Y-99122301D01*
X41520228Y-99122296D01*
X41372433Y-98905521D01*
X41304321Y-98832113D01*
X41193985Y-98713198D01*
X41154533Y-98681736D01*
X40988857Y-98549614D01*
X40761643Y-98418432D01*
X40517416Y-98322580D01*
X40517411Y-98322578D01*
X40517402Y-98322576D01*
X40299818Y-98272914D01*
X40261630Y-98264198D01*
X40261629Y-98264197D01*
X40261625Y-98264197D01*
X40261620Y-98264196D01*
X40065500Y-98249500D01*
X40065494Y-98249500D01*
X39934506Y-98249500D01*
X39934500Y-98249500D01*
X39738379Y-98264196D01*
X39738374Y-98264197D01*
X39482597Y-98322576D01*
X39482578Y-98322582D01*
X39238356Y-98418432D01*
X39011143Y-98549614D01*
X38806014Y-98713198D01*
X38627567Y-98905520D01*
X38479768Y-99122302D01*
X38479767Y-99122303D01*
X38365938Y-99358673D01*
X38288606Y-99609376D01*
X38288605Y-99609381D01*
X38288604Y-99609385D01*
X38273853Y-99707247D01*
X38249500Y-99868812D01*
X38249500Y-100131187D01*
X27700500Y-100131187D01*
X27700500Y-94409844D01*
X67738000Y-94409844D01*
X67744401Y-94469372D01*
X67744403Y-94469379D01*
X67794645Y-94604086D01*
X67794649Y-94604093D01*
X67880809Y-94719187D01*
X67880812Y-94719190D01*
X67995906Y-94805350D01*
X67995913Y-94805354D01*
X68130620Y-94855596D01*
X68130627Y-94855598D01*
X68190155Y-94861999D01*
X68190172Y-94862000D01*
X68750000Y-94862000D01*
X68750000Y-93888220D01*
X68816157Y-93939713D01*
X68936422Y-93981000D01*
X69031569Y-93981000D01*
X69125421Y-93965339D01*
X69237251Y-93904820D01*
X69250000Y-93890970D01*
X69250000Y-94862000D01*
X69809828Y-94862000D01*
X69809844Y-94861999D01*
X69869372Y-94855598D01*
X69869379Y-94855596D01*
X70004086Y-94805354D01*
X70004093Y-94805350D01*
X70119187Y-94719190D01*
X70119190Y-94719187D01*
X70205350Y-94604093D01*
X70205354Y-94604086D01*
X70255596Y-94469379D01*
X70255598Y-94469372D01*
X70261999Y-94409844D01*
X70262000Y-94409827D01*
X70262000Y-93850000D01*
X69287717Y-93850000D01*
X69323371Y-93811269D01*
X69374448Y-93694823D01*
X69384949Y-93568102D01*
X69353734Y-93444838D01*
X69291773Y-93350000D01*
X70262000Y-93350000D01*
X70262000Y-92790172D01*
X70261999Y-92790155D01*
X70255598Y-92730627D01*
X70255596Y-92730620D01*
X70205354Y-92595913D01*
X70205350Y-92595906D01*
X70119190Y-92480812D01*
X70119187Y-92480809D01*
X70004093Y-92394649D01*
X70004086Y-92394645D01*
X69869379Y-92344403D01*
X69869372Y-92344401D01*
X69809844Y-92338000D01*
X69250000Y-92338000D01*
X69250000Y-93311779D01*
X69183843Y-93260287D01*
X69063578Y-93219000D01*
X68968431Y-93219000D01*
X68874579Y-93234661D01*
X68762749Y-93295180D01*
X68750000Y-93309029D01*
X68750000Y-92338000D01*
X68190155Y-92338000D01*
X68130627Y-92344401D01*
X68130620Y-92344403D01*
X67995913Y-92394645D01*
X67995906Y-92394649D01*
X67880812Y-92480809D01*
X67880809Y-92480812D01*
X67794649Y-92595906D01*
X67794645Y-92595913D01*
X67744403Y-92730620D01*
X67744401Y-92730627D01*
X67738000Y-92790155D01*
X67738000Y-93350000D01*
X68712283Y-93350000D01*
X68676629Y-93388731D01*
X68625552Y-93505177D01*
X68615051Y-93631898D01*
X68646266Y-93755162D01*
X68708227Y-93850000D01*
X67738000Y-93850000D01*
X67738000Y-94409844D01*
X27700500Y-94409844D01*
X27700500Y-54111126D01*
X38349500Y-54111126D01*
X38352295Y-54163743D01*
X38352295Y-54163744D01*
X38387453Y-54345530D01*
X38396755Y-54393626D01*
X38440430Y-54509358D01*
X38479425Y-54612689D01*
X38597929Y-54814631D01*
X38597934Y-54814638D01*
X38748856Y-54993641D01*
X38748858Y-54993643D01*
X38927861Y-55144565D01*
X38927868Y-55144570D01*
X39129810Y-55263074D01*
X39348874Y-55345745D01*
X39578759Y-55390205D01*
X39620193Y-55392405D01*
X39631374Y-55393000D01*
X39631378Y-55393000D01*
X41568626Y-55393000D01*
X41578731Y-55392462D01*
X41621241Y-55390205D01*
X41851126Y-55345745D01*
X42070190Y-55263074D01*
X42272132Y-55144570D01*
X42451142Y-54993642D01*
X42511190Y-54922422D01*
X42602065Y-54814638D01*
X42602065Y-54814637D01*
X42602070Y-54814632D01*
X42720574Y-54612690D01*
X42803245Y-54393626D01*
X42847705Y-54163741D01*
X42850500Y-54111122D01*
X42850500Y-52173878D01*
X42847705Y-52121259D01*
X42803245Y-51891374D01*
X42720574Y-51672310D01*
X42602070Y-51470368D01*
X42602065Y-51470361D01*
X42451143Y-51291358D01*
X42451141Y-51291356D01*
X42280927Y-51147844D01*
X47425000Y-51147844D01*
X47431401Y-51207372D01*
X47431403Y-51207379D01*
X47481645Y-51342086D01*
X47481649Y-51342093D01*
X47567809Y-51457187D01*
X47567812Y-51457190D01*
X47682906Y-51543350D01*
X47682913Y-51543354D01*
X47817620Y-51593596D01*
X47817627Y-51593598D01*
X47877155Y-51599999D01*
X47877172Y-51600000D01*
X48575000Y-51600000D01*
X48575000Y-50574189D01*
X48627547Y-50610016D01*
X48757173Y-50650000D01*
X48858724Y-50650000D01*
X48959138Y-50634865D01*
X49075000Y-50579068D01*
X49075000Y-51600000D01*
X49772828Y-51600000D01*
X49772844Y-51599999D01*
X49832372Y-51593598D01*
X49832379Y-51593596D01*
X49967086Y-51543354D01*
X49967093Y-51543350D01*
X50082187Y-51457190D01*
X50082190Y-51457187D01*
X50168350Y-51342093D01*
X50168355Y-51342084D01*
X50197075Y-51265081D01*
X50238945Y-51209147D01*
X50304409Y-51184729D01*
X50372682Y-51199580D01*
X50404484Y-51224428D01*
X50413216Y-51233913D01*
X50413219Y-51233915D01*
X50413222Y-51233918D01*
X50596365Y-51376464D01*
X50596371Y-51376468D01*
X50596374Y-51376470D01*
X50800497Y-51486936D01*
X50914487Y-51526068D01*
X51020015Y-51562297D01*
X51020017Y-51562297D01*
X51020019Y-51562298D01*
X51248951Y-51600500D01*
X51248952Y-51600500D01*
X51481048Y-51600500D01*
X51481049Y-51600500D01*
X51709981Y-51562298D01*
X51929503Y-51486936D01*
X52133626Y-51376470D01*
X52316784Y-51233913D01*
X52473979Y-51063153D01*
X52500914Y-51021926D01*
X52543542Y-50956679D01*
X52596688Y-50911322D01*
X52647351Y-50900500D01*
X53750500Y-50900500D01*
X53817539Y-50920185D01*
X53863294Y-50972989D01*
X53874500Y-51024500D01*
X53874500Y-52325015D01*
X53885000Y-52427795D01*
X53885001Y-52427796D01*
X53940186Y-52594335D01*
X53940187Y-52594337D01*
X54032286Y-52743651D01*
X54032289Y-52743655D01*
X54156344Y-52867710D01*
X54156348Y-52867713D01*
X54305662Y-52959812D01*
X54305664Y-52959813D01*
X54305666Y-52959814D01*
X54472203Y-53014999D01*
X54574992Y-53025500D01*
X54574997Y-53025500D01*
X57200003Y-53025500D01*
X57200008Y-53025500D01*
X57302797Y-53014999D01*
X57469334Y-52959814D01*
X57618655Y-52867711D01*
X57742711Y-52743655D01*
X57834814Y-52594334D01*
X57889999Y-52427797D01*
X57900499Y-52325015D01*
X58899500Y-52325015D01*
X58910000Y-52427795D01*
X58910001Y-52427796D01*
X58965186Y-52594335D01*
X58965187Y-52594337D01*
X59057286Y-52743651D01*
X59057289Y-52743655D01*
X59181344Y-52867710D01*
X59181348Y-52867713D01*
X59330662Y-52959812D01*
X59330664Y-52959813D01*
X59330666Y-52959814D01*
X59427004Y-52991737D01*
X59484449Y-53031509D01*
X59511272Y-53096025D01*
X59512000Y-53109443D01*
X59512000Y-67265908D01*
X59511874Y-67269854D01*
X59507253Y-67342333D01*
X59507253Y-67342336D01*
X59518305Y-67446077D01*
X59527152Y-67550034D01*
X59527153Y-67550038D01*
X59528599Y-67555592D01*
X59531899Y-67573685D01*
X59532507Y-67579389D01*
X59532507Y-67579390D01*
X59560937Y-67679791D01*
X59587222Y-67780742D01*
X59587223Y-67780743D01*
X59587225Y-67780749D01*
X59589587Y-67785974D01*
X59595897Y-67803250D01*
X59597459Y-67808765D01*
X59597460Y-67808770D01*
X59642456Y-67902936D01*
X59642457Y-67902936D01*
X59685423Y-67997986D01*
X59688631Y-68002732D01*
X59697777Y-68018705D01*
X59700247Y-68023876D01*
X59727537Y-68062461D01*
X59760504Y-68109073D01*
X59791950Y-68155598D01*
X59818921Y-68195503D01*
X59818924Y-68195507D01*
X59822891Y-68199646D01*
X59834597Y-68213833D01*
X59837908Y-68218514D01*
X59837909Y-68218515D01*
X59837910Y-68218516D01*
X59911668Y-68292274D01*
X59983879Y-68367618D01*
X59988490Y-68371028D01*
X60002438Y-68383044D01*
X67701181Y-76081787D01*
X67734666Y-76143110D01*
X67737500Y-76169465D01*
X67737500Y-76209868D01*
X67737501Y-76209876D01*
X67743908Y-76269483D01*
X67794202Y-76404328D01*
X67794206Y-76404335D01*
X67880452Y-76519544D01*
X67880455Y-76519547D01*
X67995664Y-76605793D01*
X67995671Y-76605797D01*
X68040618Y-76622560D01*
X68130517Y-76656091D01*
X68190127Y-76662500D01*
X68356231Y-76662499D01*
X68400009Y-76670484D01*
X68617037Y-76752386D01*
X68851100Y-76797654D01*
X69061452Y-76802120D01*
X69089441Y-76802715D01*
X69089441Y-76802714D01*
X69089447Y-76802715D01*
X69325221Y-76767421D01*
X69551637Y-76692790D01*
X69573368Y-76681248D01*
X69581394Y-76676986D01*
X69639556Y-76662499D01*
X69809871Y-76662499D01*
X69809872Y-76662499D01*
X69869483Y-76656091D01*
X70004331Y-76605796D01*
X70119546Y-76519546D01*
X70205796Y-76404331D01*
X70256091Y-76269483D01*
X70262500Y-76209873D01*
X70262499Y-76035071D01*
X70272448Y-75986405D01*
X70278642Y-75971889D01*
X70334914Y-75840014D01*
X70390076Y-75608083D01*
X70405247Y-75370166D01*
X70379992Y-75133107D01*
X70315037Y-74903727D01*
X70274616Y-74819135D01*
X70262499Y-74765673D01*
X70262499Y-74590129D01*
X70262498Y-74590123D01*
X70262228Y-74587614D01*
X70256091Y-74530517D01*
X70245841Y-74503036D01*
X70205797Y-74395671D01*
X70205793Y-74395664D01*
X70119547Y-74280455D01*
X70119544Y-74280452D01*
X70004335Y-74194206D01*
X70004328Y-74194202D01*
X69869482Y-74143908D01*
X69869483Y-74143908D01*
X69809883Y-74137501D01*
X69809881Y-74137500D01*
X69809873Y-74137500D01*
X69809865Y-74137500D01*
X69769468Y-74137500D01*
X69702429Y-74117815D01*
X69681787Y-74101181D01*
X63290450Y-67709844D01*
X67838000Y-67709844D01*
X67844401Y-67769372D01*
X67844403Y-67769379D01*
X67894645Y-67904086D01*
X67894649Y-67904093D01*
X67980809Y-68019187D01*
X67980812Y-68019190D01*
X68095906Y-68105350D01*
X68095913Y-68105354D01*
X68230620Y-68155596D01*
X68230627Y-68155598D01*
X68290155Y-68161999D01*
X68290172Y-68162000D01*
X68850000Y-68162000D01*
X68850000Y-67188220D01*
X68916157Y-67239713D01*
X69036422Y-67281000D01*
X69131569Y-67281000D01*
X69225421Y-67265339D01*
X69337251Y-67204820D01*
X69350000Y-67190970D01*
X69350000Y-68162000D01*
X69909828Y-68162000D01*
X69909844Y-68161999D01*
X69969372Y-68155598D01*
X69969379Y-68155596D01*
X70104086Y-68105354D01*
X70104093Y-68105350D01*
X70219187Y-68019190D01*
X70219190Y-68019187D01*
X70305350Y-67904093D01*
X70305354Y-67904086D01*
X70355596Y-67769379D01*
X70355598Y-67769372D01*
X70361999Y-67709844D01*
X70362000Y-67709827D01*
X70362000Y-67150000D01*
X69387717Y-67150000D01*
X69423371Y-67111269D01*
X69474448Y-66994823D01*
X69484949Y-66868102D01*
X69453734Y-66744838D01*
X69391773Y-66650000D01*
X70362000Y-66650000D01*
X70362000Y-66090172D01*
X70361999Y-66090155D01*
X70355598Y-66030627D01*
X70355596Y-66030620D01*
X70305354Y-65895913D01*
X70305350Y-65895906D01*
X70219190Y-65780812D01*
X70219187Y-65780809D01*
X70104093Y-65694649D01*
X70104086Y-65694645D01*
X69969379Y-65644403D01*
X69969372Y-65644401D01*
X69909844Y-65638000D01*
X69350000Y-65638000D01*
X69350000Y-66611779D01*
X69283843Y-66560287D01*
X69163578Y-66519000D01*
X69068431Y-66519000D01*
X68974579Y-66534661D01*
X68862749Y-66595180D01*
X68850000Y-66609029D01*
X68850000Y-65638000D01*
X68290155Y-65638000D01*
X68230627Y-65644401D01*
X68230620Y-65644403D01*
X68095913Y-65694645D01*
X68095906Y-65694649D01*
X67980812Y-65780809D01*
X67980809Y-65780812D01*
X67894649Y-65895906D01*
X67894645Y-65895913D01*
X67844403Y-66030620D01*
X67844401Y-66030627D01*
X67838000Y-66090155D01*
X67838000Y-66650000D01*
X68812283Y-66650000D01*
X68776629Y-66688731D01*
X68725552Y-66805177D01*
X68715051Y-66931898D01*
X68746266Y-67055162D01*
X68808227Y-67150000D01*
X67838000Y-67150000D01*
X67838000Y-67709844D01*
X63290450Y-67709844D01*
X62349318Y-66768712D01*
X62315833Y-66707389D01*
X62312999Y-66681040D01*
X62312999Y-53109442D01*
X62332684Y-53042404D01*
X62385488Y-52996649D01*
X62397990Y-52991738D01*
X62494334Y-52959814D01*
X62643655Y-52867711D01*
X62767711Y-52743655D01*
X62859814Y-52594334D01*
X62914999Y-52427797D01*
X62925500Y-52325008D01*
X62925500Y-50318967D01*
X62945185Y-50251929D01*
X62961819Y-50231286D01*
X63056288Y-50136818D01*
X63117612Y-50103334D01*
X63143969Y-50100500D01*
X68980800Y-50100500D01*
X71503409Y-50100500D01*
X71507355Y-50100626D01*
X71537191Y-50102527D01*
X71579834Y-50105247D01*
X71683577Y-50094194D01*
X71787541Y-50085346D01*
X71793072Y-50083905D01*
X71811198Y-50080598D01*
X71816893Y-50079992D01*
X71917290Y-50051562D01*
X72018249Y-50025275D01*
X72023452Y-50022922D01*
X72040760Y-50016598D01*
X72046273Y-50015038D01*
X72140436Y-49970042D01*
X72235486Y-49927077D01*
X72240223Y-49923874D01*
X72256205Y-49914722D01*
X72261378Y-49912251D01*
X72346573Y-49851995D01*
X72433003Y-49793579D01*
X72437136Y-49789616D01*
X72451336Y-49777899D01*
X72456016Y-49774590D01*
X72529774Y-49700831D01*
X72605118Y-49628621D01*
X72608527Y-49624010D01*
X72620539Y-49610065D01*
X72720734Y-49509870D01*
X108687500Y-49509870D01*
X108687501Y-49509876D01*
X108693908Y-49569483D01*
X108744202Y-49704328D01*
X108744206Y-49704335D01*
X108808051Y-49789619D01*
X108830454Y-49819546D01*
X108945669Y-49905796D01*
X108945670Y-49905796D01*
X108949811Y-49908896D01*
X108991682Y-49964830D01*
X108999500Y-50008163D01*
X108999500Y-54237937D01*
X108997355Y-54322540D01*
X108997555Y-54323654D01*
X108999500Y-54345530D01*
X108999500Y-64437937D01*
X108997355Y-64522545D01*
X108997355Y-64522546D01*
X109007615Y-64579787D01*
X109008269Y-64584452D01*
X109014154Y-64642318D01*
X109014156Y-64642326D01*
X109023865Y-64673269D01*
X109025737Y-64680898D01*
X109031460Y-64712828D01*
X109031461Y-64712830D01*
X109053032Y-64766833D01*
X109054613Y-64771272D01*
X109072025Y-64826768D01*
X109087765Y-64855125D01*
X109091135Y-64862221D01*
X109103168Y-64892343D01*
X109103170Y-64892348D01*
X109103172Y-64892351D01*
X109103173Y-64892353D01*
X109135174Y-64940908D01*
X109137605Y-64944920D01*
X109165840Y-64995790D01*
X109165841Y-64995791D01*
X109186972Y-65020406D01*
X109191703Y-65026680D01*
X109209547Y-65053757D01*
X109250667Y-65094877D01*
X109253870Y-65098333D01*
X109268454Y-65115320D01*
X109291760Y-65142468D01*
X109291764Y-65142471D01*
X109291765Y-65142472D01*
X109317407Y-65162320D01*
X109323303Y-65167513D01*
X109582109Y-65426319D01*
X109615594Y-65487642D01*
X109610610Y-65557334D01*
X109568738Y-65613267D01*
X109503274Y-65637684D01*
X109494428Y-65638000D01*
X109140155Y-65638000D01*
X109080627Y-65644401D01*
X109080620Y-65644403D01*
X108945913Y-65694645D01*
X108945906Y-65694649D01*
X108830812Y-65780809D01*
X108830809Y-65780812D01*
X108744649Y-65895906D01*
X108744645Y-65895913D01*
X108694403Y-66030620D01*
X108694401Y-66030627D01*
X108688000Y-66090155D01*
X108688000Y-66650000D01*
X109662283Y-66650000D01*
X109626629Y-66688731D01*
X109575552Y-66805177D01*
X109565051Y-66931898D01*
X109596266Y-67055162D01*
X109658227Y-67150000D01*
X108688000Y-67150000D01*
X108688000Y-67709844D01*
X108694401Y-67769372D01*
X108694403Y-67769379D01*
X108744645Y-67904086D01*
X108744649Y-67904093D01*
X108830809Y-68019187D01*
X108830812Y-68019190D01*
X108945906Y-68105350D01*
X108945913Y-68105354D01*
X109080620Y-68155596D01*
X109080627Y-68155598D01*
X109140155Y-68161999D01*
X109140172Y-68162000D01*
X109700000Y-68162000D01*
X109700000Y-67188220D01*
X109766157Y-67239713D01*
X109886422Y-67281000D01*
X109981569Y-67281000D01*
X110075421Y-67265339D01*
X110187251Y-67204820D01*
X110200000Y-67190970D01*
X110200000Y-68162000D01*
X110759828Y-68162000D01*
X110759844Y-68161999D01*
X110819372Y-68155598D01*
X110819379Y-68155596D01*
X110954086Y-68105354D01*
X110954093Y-68105350D01*
X111069187Y-68019190D01*
X111069190Y-68019187D01*
X111155350Y-67904093D01*
X111155354Y-67904086D01*
X111205596Y-67769379D01*
X111205598Y-67769372D01*
X111211999Y-67709844D01*
X111212000Y-67709827D01*
X111212000Y-67355571D01*
X111231685Y-67288532D01*
X111284489Y-67242777D01*
X111353647Y-67232833D01*
X111417203Y-67261858D01*
X111423666Y-67267876D01*
X116168971Y-72013181D01*
X117363181Y-73207391D01*
X117396666Y-73268714D01*
X117399500Y-73295072D01*
X117399500Y-74050001D01*
X117399501Y-74050019D01*
X117410000Y-74152796D01*
X117410001Y-74152799D01*
X117452302Y-74280452D01*
X117465186Y-74319334D01*
X117554511Y-74464154D01*
X117557289Y-74468657D01*
X117681344Y-74592712D01*
X117836558Y-74688448D01*
X117883283Y-74740396D01*
X117894506Y-74809358D01*
X117866663Y-74873441D01*
X117859144Y-74881668D01*
X117711891Y-75028921D01*
X117576399Y-75222421D01*
X117476570Y-75436507D01*
X117476567Y-75436513D01*
X117419364Y-75649999D01*
X117419364Y-75650000D01*
X118466314Y-75650000D01*
X118440507Y-75690156D01*
X118400000Y-75828111D01*
X118400000Y-75971889D01*
X118440507Y-76109844D01*
X118466314Y-76150000D01*
X117419364Y-76150000D01*
X117476567Y-76363486D01*
X117476570Y-76363492D01*
X117576399Y-76577577D01*
X117576400Y-76577579D01*
X117711886Y-76771073D01*
X117711891Y-76771079D01*
X117878920Y-76938108D01*
X117878926Y-76938113D01*
X118072420Y-77073599D01*
X118072422Y-77073600D01*
X118286507Y-77173429D01*
X118286516Y-77173433D01*
X118514673Y-77234567D01*
X118514684Y-77234569D01*
X118649999Y-77246407D01*
X118650000Y-77246407D01*
X118650000Y-76335501D01*
X118757685Y-76384680D01*
X118864237Y-76400000D01*
X118935763Y-76400000D01*
X119042315Y-76384680D01*
X119150000Y-76335501D01*
X119150000Y-77246407D01*
X119285315Y-77234569D01*
X119285326Y-77234567D01*
X119513483Y-77173433D01*
X119513492Y-77173429D01*
X119727577Y-77073600D01*
X119727579Y-77073599D01*
X119921073Y-76938113D01*
X119921079Y-76938108D01*
X120088105Y-76771082D01*
X120223600Y-76577578D01*
X120323429Y-76363492D01*
X120323432Y-76363486D01*
X120380636Y-76150000D01*
X119333686Y-76150000D01*
X119359493Y-76109844D01*
X119400000Y-75971889D01*
X119400000Y-75828111D01*
X119359493Y-75690156D01*
X119333686Y-75650000D01*
X120380636Y-75650000D01*
X120380635Y-75649999D01*
X120323432Y-75436513D01*
X120323429Y-75436507D01*
X120223600Y-75222422D01*
X120223599Y-75222420D01*
X120088113Y-75028926D01*
X119940856Y-74881668D01*
X119907372Y-74820345D01*
X119912356Y-74750653D01*
X119954228Y-74694720D01*
X119963442Y-74688448D01*
X120010295Y-74659549D01*
X120118656Y-74592712D01*
X120242712Y-74468656D01*
X120334814Y-74319334D01*
X120389999Y-74152797D01*
X120400500Y-74050009D01*
X120400499Y-72749992D01*
X120389999Y-72647203D01*
X120334814Y-72480666D01*
X120242712Y-72331344D01*
X120118656Y-72207288D01*
X119969334Y-72115186D01*
X119802797Y-72060001D01*
X119802795Y-72060000D01*
X119700016Y-72049500D01*
X119700009Y-72049500D01*
X118945072Y-72049500D01*
X118878033Y-72029815D01*
X118857391Y-72013181D01*
X110936819Y-64092608D01*
X110903334Y-64031285D01*
X110900500Y-64004927D01*
X110900500Y-56844071D01*
X110920185Y-56777032D01*
X110972989Y-56731277D01*
X111042147Y-56721333D01*
X111105703Y-56750358D01*
X111112181Y-56756390D01*
X117263181Y-62907391D01*
X117296666Y-62968714D01*
X117299500Y-62995072D01*
X117299500Y-63750001D01*
X117299501Y-63750019D01*
X117310000Y-63852796D01*
X117310001Y-63852799D01*
X117365185Y-64019331D01*
X117365187Y-64019336D01*
X117400068Y-64075888D01*
X117410381Y-64092608D01*
X117457289Y-64168657D01*
X117581344Y-64292712D01*
X117736558Y-64388448D01*
X117783283Y-64440396D01*
X117794506Y-64509358D01*
X117766663Y-64573441D01*
X117759144Y-64581668D01*
X117611891Y-64728921D01*
X117476399Y-64922421D01*
X117376570Y-65136507D01*
X117376567Y-65136513D01*
X117319364Y-65349999D01*
X117319364Y-65350000D01*
X118366314Y-65350000D01*
X118340507Y-65390156D01*
X118300000Y-65528111D01*
X118300000Y-65671889D01*
X118340507Y-65809844D01*
X118366314Y-65850000D01*
X117319364Y-65850000D01*
X117376567Y-66063486D01*
X117376570Y-66063492D01*
X117476399Y-66277577D01*
X117476400Y-66277579D01*
X117611886Y-66471073D01*
X117611891Y-66471079D01*
X117778920Y-66638108D01*
X117778926Y-66638113D01*
X117972420Y-66773599D01*
X117972422Y-66773600D01*
X118186507Y-66873429D01*
X118186516Y-66873433D01*
X118414673Y-66934567D01*
X118414684Y-66934569D01*
X118549999Y-66946407D01*
X118550000Y-66946406D01*
X118550000Y-66035501D01*
X118657685Y-66084680D01*
X118764237Y-66100000D01*
X118835763Y-66100000D01*
X118942315Y-66084680D01*
X119050000Y-66035501D01*
X119050000Y-66946407D01*
X119185315Y-66934569D01*
X119185326Y-66934567D01*
X119413483Y-66873433D01*
X119413492Y-66873429D01*
X119627577Y-66773600D01*
X119627579Y-66773599D01*
X119821073Y-66638113D01*
X119821079Y-66638108D01*
X119988105Y-66471082D01*
X120123600Y-66277578D01*
X120223429Y-66063492D01*
X120223432Y-66063486D01*
X120280636Y-65850000D01*
X119233686Y-65850000D01*
X119259493Y-65809844D01*
X119300000Y-65671889D01*
X119300000Y-65528111D01*
X119259493Y-65390156D01*
X119233686Y-65350000D01*
X120280636Y-65350000D01*
X120280635Y-65349999D01*
X120223432Y-65136513D01*
X120223429Y-65136507D01*
X120123600Y-64922422D01*
X120123599Y-64922420D01*
X119988113Y-64728926D01*
X119840856Y-64581668D01*
X119807372Y-64520345D01*
X119812356Y-64450653D01*
X119854228Y-64394720D01*
X119863442Y-64388448D01*
X119869334Y-64384814D01*
X120018656Y-64292712D01*
X120142712Y-64168656D01*
X120234814Y-64019334D01*
X120289999Y-63852797D01*
X120300500Y-63750009D01*
X120300499Y-62449992D01*
X120289999Y-62347203D01*
X120234814Y-62180666D01*
X120142712Y-62031344D01*
X120018656Y-61907288D01*
X119869334Y-61815186D01*
X119702797Y-61760001D01*
X119702795Y-61760000D01*
X119600016Y-61749500D01*
X119600009Y-61749500D01*
X118845072Y-61749500D01*
X118778033Y-61729815D01*
X118757391Y-61713181D01*
X110936819Y-53892609D01*
X110903334Y-53831286D01*
X110900500Y-53804928D01*
X110900500Y-50008163D01*
X110920185Y-49941124D01*
X110950189Y-49908896D01*
X110954329Y-49905796D01*
X110954331Y-49905796D01*
X111069546Y-49819546D01*
X111147360Y-49715600D01*
X111158898Y-49700188D01*
X111214832Y-49658318D01*
X111258164Y-49650500D01*
X113587937Y-49650500D01*
X113672539Y-49652644D01*
X113672539Y-49652643D01*
X113672546Y-49652644D01*
X113673665Y-49652443D01*
X113695531Y-49650500D01*
X113954928Y-49650500D01*
X114021967Y-49670185D01*
X114042609Y-49686819D01*
X117263181Y-52907391D01*
X117296666Y-52968714D01*
X117299500Y-52995072D01*
X117299500Y-53750001D01*
X117299501Y-53750019D01*
X117310000Y-53852796D01*
X117310001Y-53852799D01*
X117311158Y-53856290D01*
X117365186Y-54019334D01*
X117454258Y-54163744D01*
X117457289Y-54168657D01*
X117581344Y-54292712D01*
X117736558Y-54388448D01*
X117783283Y-54440396D01*
X117794506Y-54509358D01*
X117766663Y-54573441D01*
X117759144Y-54581668D01*
X117611891Y-54728921D01*
X117476399Y-54922421D01*
X117376570Y-55136507D01*
X117376567Y-55136513D01*
X117319364Y-55349999D01*
X117319364Y-55350000D01*
X118366314Y-55350000D01*
X118340507Y-55390156D01*
X118300000Y-55528111D01*
X118300000Y-55671889D01*
X118340507Y-55809844D01*
X118366314Y-55850000D01*
X117319364Y-55850000D01*
X117376567Y-56063486D01*
X117376570Y-56063492D01*
X117476399Y-56277577D01*
X117476400Y-56277579D01*
X117611886Y-56471073D01*
X117611891Y-56471079D01*
X117778920Y-56638108D01*
X117778926Y-56638113D01*
X117972420Y-56773599D01*
X117972422Y-56773600D01*
X118186507Y-56873429D01*
X118186516Y-56873433D01*
X118414673Y-56934567D01*
X118414684Y-56934569D01*
X118549999Y-56946407D01*
X118550000Y-56946406D01*
X118550000Y-56035501D01*
X118657685Y-56084680D01*
X118764237Y-56100000D01*
X118835763Y-56100000D01*
X118942315Y-56084680D01*
X119050000Y-56035501D01*
X119050000Y-56946407D01*
X119185315Y-56934569D01*
X119185326Y-56934567D01*
X119413483Y-56873433D01*
X119413492Y-56873429D01*
X119627577Y-56773600D01*
X119627579Y-56773599D01*
X119821073Y-56638113D01*
X119821079Y-56638108D01*
X119988105Y-56471082D01*
X120123600Y-56277578D01*
X120223429Y-56063492D01*
X120223432Y-56063486D01*
X120280636Y-55850000D01*
X119233686Y-55850000D01*
X119259493Y-55809844D01*
X119300000Y-55671889D01*
X119300000Y-55528111D01*
X119259493Y-55390156D01*
X119233686Y-55350000D01*
X120280636Y-55350000D01*
X120280635Y-55349999D01*
X120223432Y-55136513D01*
X120223429Y-55136507D01*
X120123600Y-54922422D01*
X120123599Y-54922420D01*
X119988113Y-54728926D01*
X119840856Y-54581668D01*
X119807372Y-54520345D01*
X119812356Y-54450653D01*
X119854228Y-54394720D01*
X119863442Y-54388448D01*
X119869334Y-54384814D01*
X120018656Y-54292712D01*
X120142712Y-54168656D01*
X120234814Y-54019334D01*
X120289999Y-53852797D01*
X120300500Y-53750009D01*
X120300499Y-52449992D01*
X120289999Y-52347203D01*
X120234814Y-52180666D01*
X120142712Y-52031344D01*
X120018656Y-51907288D01*
X119869334Y-51815186D01*
X119702797Y-51760001D01*
X119702795Y-51760000D01*
X119600016Y-51749500D01*
X119600009Y-51749500D01*
X118845072Y-51749500D01*
X118778033Y-51729815D01*
X118757391Y-51713181D01*
X115431890Y-48387679D01*
X115398405Y-48326356D01*
X115403389Y-48256664D01*
X115431886Y-48212322D01*
X117389067Y-46255141D01*
X117450386Y-46221659D01*
X117520078Y-46226643D01*
X117576011Y-46268515D01*
X117589126Y-46290420D01*
X117676399Y-46477577D01*
X117676400Y-46477579D01*
X117811886Y-46671073D01*
X117811891Y-46671079D01*
X117978920Y-46838108D01*
X117978926Y-46838113D01*
X118172420Y-46973599D01*
X118172422Y-46973600D01*
X118386507Y-47073429D01*
X118386516Y-47073433D01*
X118614673Y-47134567D01*
X118614684Y-47134569D01*
X118749999Y-47146407D01*
X118750000Y-47146407D01*
X118750000Y-46235501D01*
X118857685Y-46284680D01*
X118964237Y-46300000D01*
X119035763Y-46300000D01*
X119142315Y-46284680D01*
X119250000Y-46235501D01*
X119250000Y-47146407D01*
X119385315Y-47134569D01*
X119385326Y-47134567D01*
X119613483Y-47073433D01*
X119613492Y-47073429D01*
X119827577Y-46973600D01*
X119827579Y-46973599D01*
X120021073Y-46838113D01*
X120021079Y-46838108D01*
X120188105Y-46671082D01*
X120323600Y-46477578D01*
X120423429Y-46263492D01*
X120423432Y-46263486D01*
X120480636Y-46050000D01*
X119433686Y-46050000D01*
X119459493Y-46009844D01*
X119500000Y-45871889D01*
X119500000Y-45728111D01*
X119459493Y-45590156D01*
X119433686Y-45550000D01*
X120480636Y-45550000D01*
X120480635Y-45549999D01*
X120423432Y-45336513D01*
X120423429Y-45336507D01*
X120323600Y-45122422D01*
X120323599Y-45122420D01*
X120188113Y-44928926D01*
X120040856Y-44781668D01*
X120007372Y-44720345D01*
X120012356Y-44650653D01*
X120054228Y-44594720D01*
X120063442Y-44588448D01*
X120069334Y-44584814D01*
X120218656Y-44492712D01*
X120342712Y-44368656D01*
X120434814Y-44219334D01*
X120489999Y-44052797D01*
X120500500Y-43950009D01*
X120500499Y-42649992D01*
X120489999Y-42547203D01*
X120434814Y-42380666D01*
X120342712Y-42231344D01*
X120218656Y-42107288D01*
X120069334Y-42015186D01*
X119902797Y-41960001D01*
X119902795Y-41960000D01*
X119800010Y-41949500D01*
X118199998Y-41949500D01*
X118199981Y-41949501D01*
X118097203Y-41960000D01*
X118097200Y-41960001D01*
X117930668Y-42015185D01*
X117930663Y-42015187D01*
X117781342Y-42107289D01*
X117657289Y-42231342D01*
X117565187Y-42380663D01*
X117565185Y-42380666D01*
X117565186Y-42380666D01*
X117510001Y-42547203D01*
X117510001Y-42547204D01*
X117510000Y-42547204D01*
X117499500Y-42649983D01*
X117499500Y-43404927D01*
X117479815Y-43471966D01*
X117463181Y-43492608D01*
X113242609Y-47713181D01*
X113181286Y-47746666D01*
X113154928Y-47749500D01*
X111258164Y-47749500D01*
X111191125Y-47729815D01*
X111158898Y-47699812D01*
X111081281Y-47596130D01*
X111069546Y-47580454D01*
X111069544Y-47580453D01*
X111069544Y-47580452D01*
X110954335Y-47494206D01*
X110954328Y-47494202D01*
X110819482Y-47443908D01*
X110819483Y-47443908D01*
X110759883Y-47437501D01*
X110759881Y-47437500D01*
X110759873Y-47437500D01*
X110759864Y-47437500D01*
X109140129Y-47437500D01*
X109140123Y-47437501D01*
X109080516Y-47443908D01*
X108945671Y-47494202D01*
X108945664Y-47494206D01*
X108830455Y-47580452D01*
X108830452Y-47580455D01*
X108744206Y-47695664D01*
X108744202Y-47695671D01*
X108693908Y-47830517D01*
X108687501Y-47890116D01*
X108687500Y-47890135D01*
X108687500Y-49509870D01*
X72720734Y-49509870D01*
X75850874Y-46379730D01*
X75912195Y-46346247D01*
X75946663Y-46343679D01*
X76249993Y-46363561D01*
X76250000Y-46363561D01*
X76250007Y-46363561D01*
X76496984Y-46347372D01*
X76558507Y-46343340D01*
X76861735Y-46283025D01*
X77154496Y-46183646D01*
X77431781Y-46046904D01*
X77642892Y-45905844D01*
X81092000Y-45905844D01*
X81098401Y-45965372D01*
X81098403Y-45965379D01*
X81148645Y-46100086D01*
X81148649Y-46100093D01*
X81234809Y-46215187D01*
X81234812Y-46215190D01*
X81349906Y-46301350D01*
X81349913Y-46301354D01*
X81484620Y-46351596D01*
X81484627Y-46351598D01*
X81544155Y-46357999D01*
X81544172Y-46358000D01*
X83200000Y-46358000D01*
X83200000Y-45330635D01*
X83214679Y-45334569D01*
X83391055Y-45350000D01*
X83508945Y-45350000D01*
X83685321Y-45334569D01*
X83700000Y-45330635D01*
X83700000Y-46358000D01*
X85355828Y-46358000D01*
X85355844Y-46357999D01*
X85415372Y-46351598D01*
X85415379Y-46351596D01*
X85550086Y-46301354D01*
X85550093Y-46301350D01*
X85665187Y-46215190D01*
X85665190Y-46215187D01*
X85751350Y-46100093D01*
X85751354Y-46100086D01*
X85801596Y-45965379D01*
X85801598Y-45965372D01*
X85807999Y-45905844D01*
X85808000Y-45905827D01*
X85808000Y-44250000D01*
X84780636Y-44250000D01*
X84784569Y-44235321D01*
X84805157Y-44000000D01*
X84784569Y-43764679D01*
X84780636Y-43750000D01*
X85808000Y-43750000D01*
X85808000Y-42094172D01*
X85807999Y-42094155D01*
X85801598Y-42034627D01*
X85801596Y-42034620D01*
X85751354Y-41899913D01*
X85751350Y-41899906D01*
X85665190Y-41784812D01*
X85665187Y-41784809D01*
X85550093Y-41698649D01*
X85550086Y-41698645D01*
X85415379Y-41648403D01*
X85415372Y-41648401D01*
X85355844Y-41642000D01*
X83700000Y-41642000D01*
X83700000Y-42669364D01*
X83685321Y-42665431D01*
X83508945Y-42650000D01*
X83391055Y-42650000D01*
X83214679Y-42665431D01*
X83200000Y-42669364D01*
X83200000Y-41642000D01*
X81544155Y-41642000D01*
X81484627Y-41648401D01*
X81484620Y-41648403D01*
X81349913Y-41698645D01*
X81349906Y-41698649D01*
X81234812Y-41784809D01*
X81234809Y-41784812D01*
X81148649Y-41899906D01*
X81148645Y-41899913D01*
X81098403Y-42034620D01*
X81098401Y-42034627D01*
X81092000Y-42094155D01*
X81092000Y-43750000D01*
X82119364Y-43750000D01*
X82115431Y-43764679D01*
X82094843Y-44000000D01*
X82115431Y-44235321D01*
X82119364Y-44250000D01*
X81092000Y-44250000D01*
X81092000Y-45905844D01*
X77642892Y-45905844D01*
X77688845Y-45875139D01*
X77921290Y-45671290D01*
X78125139Y-45438845D01*
X78296904Y-45181781D01*
X78433646Y-44904496D01*
X78533025Y-44611735D01*
X78593340Y-44308507D01*
X78599185Y-44219331D01*
X78613561Y-44000007D01*
X78613561Y-43999992D01*
X78593341Y-43691509D01*
X78593340Y-43691493D01*
X78533025Y-43388265D01*
X78433646Y-43095504D01*
X78300938Y-42826400D01*
X78296908Y-42818227D01*
X78296906Y-42818224D01*
X78296904Y-42818220D01*
X78125139Y-42561155D01*
X78112904Y-42547204D01*
X77921290Y-42328709D01*
X77688846Y-42124862D01*
X77662546Y-42107289D01*
X77431781Y-41953096D01*
X77431782Y-41953096D01*
X77431777Y-41953093D01*
X77154512Y-41816361D01*
X77154491Y-41816352D01*
X76861743Y-41716977D01*
X76861737Y-41716975D01*
X76861735Y-41716975D01*
X76558507Y-41656660D01*
X76558500Y-41656659D01*
X76558490Y-41656658D01*
X76250007Y-41636439D01*
X76249993Y-41636439D01*
X75941509Y-41656658D01*
X75941497Y-41656659D01*
X75941493Y-41656660D01*
X75941485Y-41656661D01*
X75941482Y-41656662D01*
X75638270Y-41716974D01*
X75638256Y-41716977D01*
X75345508Y-41816352D01*
X75345487Y-41816361D01*
X75068227Y-41953091D01*
X75068220Y-41953096D01*
X74811156Y-42124859D01*
X74578709Y-42328709D01*
X74374859Y-42561156D01*
X74203096Y-42818220D01*
X74203091Y-42818227D01*
X74066361Y-43095487D01*
X74066352Y-43095508D01*
X73966977Y-43388256D01*
X73966974Y-43388270D01*
X73906662Y-43691482D01*
X73906658Y-43691509D01*
X73886439Y-43999992D01*
X73886439Y-43999996D01*
X73886439Y-44000000D01*
X73901863Y-44235321D01*
X73906321Y-44303334D01*
X73891063Y-44371517D01*
X73870267Y-44399125D01*
X71006213Y-47263181D01*
X70944890Y-47296666D01*
X70918532Y-47299500D01*
X62559092Y-47299500D01*
X62555145Y-47299374D01*
X62482667Y-47294753D01*
X62482664Y-47294753D01*
X62378927Y-47305804D01*
X62335017Y-47309541D01*
X62266549Y-47295613D01*
X62216481Y-47246880D01*
X62200500Y-47185988D01*
X62200500Y-42990498D01*
X62185347Y-42812463D01*
X62143040Y-42649981D01*
X62125275Y-42581751D01*
X62075232Y-42471044D01*
X62027080Y-42364519D01*
X62027075Y-42364511D01*
X61893586Y-42167006D01*
X61893582Y-42167001D01*
X61893579Y-42166997D01*
X61728621Y-41994882D01*
X61536947Y-41853121D01*
X61324074Y-41745793D01*
X61194283Y-41706045D01*
X61096121Y-41675983D01*
X60859647Y-41645701D01*
X60621471Y-41655819D01*
X60621467Y-41655819D01*
X60388419Y-41706045D01*
X60167211Y-41794935D01*
X59964203Y-41919932D01*
X59785245Y-42077435D01*
X59746952Y-42124861D01*
X59635477Y-42262920D01*
X59635475Y-42262922D01*
X59635476Y-42262922D01*
X59519210Y-42471044D01*
X59439788Y-42695829D01*
X59399500Y-42930790D01*
X59399500Y-47529091D01*
X59379815Y-47596130D01*
X59335729Y-47634638D01*
X59336813Y-47636394D01*
X59181345Y-47732288D01*
X59057289Y-47856344D01*
X59057286Y-47856348D01*
X58965187Y-48005662D01*
X58965186Y-48005664D01*
X58910001Y-48172203D01*
X58910000Y-48172204D01*
X58899500Y-48274984D01*
X58899500Y-52325015D01*
X57900499Y-52325015D01*
X57900500Y-52325008D01*
X57900500Y-48274992D01*
X57889999Y-48172203D01*
X57834814Y-48005666D01*
X57763541Y-47890116D01*
X57742713Y-47856348D01*
X57742710Y-47856344D01*
X57618655Y-47732289D01*
X57618651Y-47732286D01*
X57469337Y-47640187D01*
X57469335Y-47640186D01*
X57386065Y-47612593D01*
X57302797Y-47585001D01*
X57302795Y-47585000D01*
X57200015Y-47574500D01*
X57200008Y-47574500D01*
X54574992Y-47574500D01*
X54574984Y-47574500D01*
X54472204Y-47585000D01*
X54472203Y-47585001D01*
X54305664Y-47640186D01*
X54305662Y-47640187D01*
X54156348Y-47732286D01*
X54156344Y-47732289D01*
X54032289Y-47856344D01*
X54032286Y-47856348D01*
X53940187Y-48005662D01*
X53940186Y-48005664D01*
X53885001Y-48172203D01*
X53885000Y-48172204D01*
X53874500Y-48274984D01*
X53874500Y-49375500D01*
X53854815Y-49442539D01*
X53802011Y-49488294D01*
X53750500Y-49499500D01*
X52647351Y-49499500D01*
X52580312Y-49479815D01*
X52543542Y-49443321D01*
X52473983Y-49336852D01*
X52473980Y-49336849D01*
X52473979Y-49336847D01*
X52316784Y-49166087D01*
X52316779Y-49166083D01*
X52316777Y-49166081D01*
X52133634Y-49023535D01*
X52133628Y-49023531D01*
X51929504Y-48913064D01*
X51929495Y-48913061D01*
X51709984Y-48837702D01*
X51522404Y-48806401D01*
X51481049Y-48799500D01*
X51248951Y-48799500D01*
X51207596Y-48806401D01*
X51020015Y-48837702D01*
X50800504Y-48913061D01*
X50800495Y-48913064D01*
X50596371Y-49023531D01*
X50596365Y-49023535D01*
X50413222Y-49166081D01*
X50413215Y-49166087D01*
X50404484Y-49175572D01*
X50344595Y-49211561D01*
X50274757Y-49209458D01*
X50217143Y-49169932D01*
X50197075Y-49134918D01*
X50168355Y-49057915D01*
X50168350Y-49057906D01*
X50082190Y-48942812D01*
X50082187Y-48942809D01*
X49967093Y-48856649D01*
X49967086Y-48856645D01*
X49832379Y-48806403D01*
X49832372Y-48806401D01*
X49772844Y-48800000D01*
X49075000Y-48800000D01*
X49075000Y-49825810D01*
X49022453Y-49789984D01*
X48892827Y-49750000D01*
X48791276Y-49750000D01*
X48690862Y-49765135D01*
X48575000Y-49820931D01*
X48575000Y-48800000D01*
X47877155Y-48800000D01*
X47817627Y-48806401D01*
X47817620Y-48806403D01*
X47682913Y-48856645D01*
X47682906Y-48856649D01*
X47567812Y-48942809D01*
X47567809Y-48942812D01*
X47481649Y-49057906D01*
X47481645Y-49057913D01*
X47431403Y-49192620D01*
X47431401Y-49192627D01*
X47425000Y-49252155D01*
X47425000Y-49950000D01*
X48449722Y-49950000D01*
X48401375Y-50033740D01*
X48371190Y-50165992D01*
X48381327Y-50301265D01*
X48430887Y-50427541D01*
X48448797Y-50450000D01*
X47425000Y-50450000D01*
X47425000Y-51147844D01*
X42280927Y-51147844D01*
X42272138Y-51140434D01*
X42272131Y-51140429D01*
X42070189Y-51021925D01*
X41940515Y-50972989D01*
X41851126Y-50939255D01*
X41851121Y-50939254D01*
X41851116Y-50939252D01*
X41848470Y-50938740D01*
X41847451Y-50938213D01*
X41846050Y-50937817D01*
X41846130Y-50937531D01*
X41786392Y-50906677D01*
X41751503Y-50846141D01*
X41754881Y-50776353D01*
X41795452Y-50719470D01*
X41860337Y-50693552D01*
X41872009Y-50692999D01*
X45397872Y-50692999D01*
X45457483Y-50686591D01*
X45592331Y-50636296D01*
X45707546Y-50550046D01*
X45793796Y-50434831D01*
X45844091Y-50299983D01*
X45850500Y-50240373D01*
X45850499Y-47931466D01*
X45870184Y-47864428D01*
X45886813Y-47843791D01*
X51632374Y-42098232D01*
X51747554Y-41961621D01*
X51868213Y-41756009D01*
X51952386Y-41532963D01*
X51997655Y-41298900D01*
X52002715Y-41060553D01*
X51967422Y-40824779D01*
X51892790Y-40598363D01*
X51780967Y-40387815D01*
X51780963Y-40387809D01*
X51635173Y-40199197D01*
X51635170Y-40199193D01*
X51635165Y-40199188D01*
X51561131Y-40131187D01*
X98249500Y-40131187D01*
X98269794Y-40265823D01*
X98288604Y-40390615D01*
X98288605Y-40390617D01*
X98288606Y-40390623D01*
X98365938Y-40641326D01*
X98479767Y-40877696D01*
X98479768Y-40877697D01*
X98479770Y-40877700D01*
X98479772Y-40877704D01*
X98604437Y-41060553D01*
X98627567Y-41094479D01*
X98806014Y-41286801D01*
X98806018Y-41286804D01*
X98806019Y-41286805D01*
X99011143Y-41450386D01*
X99238357Y-41581568D01*
X99482584Y-41677420D01*
X99738370Y-41735802D01*
X99738376Y-41735802D01*
X99738379Y-41735803D01*
X99934500Y-41750500D01*
X99934506Y-41750500D01*
X100065500Y-41750500D01*
X100261620Y-41735803D01*
X100261622Y-41735802D01*
X100261630Y-41735802D01*
X100517416Y-41677420D01*
X100761643Y-41581568D01*
X100988857Y-41450386D01*
X101193981Y-41286805D01*
X101372433Y-41094479D01*
X101520228Y-40877704D01*
X101634063Y-40641323D01*
X101711396Y-40390615D01*
X101750500Y-40131182D01*
X101750500Y-39868818D01*
X101711396Y-39609385D01*
X101634063Y-39358677D01*
X101622121Y-39333880D01*
X101520232Y-39122303D01*
X101520231Y-39122302D01*
X101520230Y-39122301D01*
X101520228Y-39122296D01*
X101372433Y-38905521D01*
X101283080Y-38809221D01*
X101193985Y-38713198D01*
X101117770Y-38652419D01*
X100988857Y-38549614D01*
X100761643Y-38418432D01*
X100517416Y-38322580D01*
X100517411Y-38322578D01*
X100517402Y-38322576D01*
X100299818Y-38272914D01*
X100261630Y-38264198D01*
X100261629Y-38264197D01*
X100261625Y-38264197D01*
X100261620Y-38264196D01*
X100065500Y-38249500D01*
X100065494Y-38249500D01*
X99934506Y-38249500D01*
X99934500Y-38249500D01*
X99738379Y-38264196D01*
X99738374Y-38264197D01*
X99482597Y-38322576D01*
X99482578Y-38322582D01*
X99238356Y-38418432D01*
X99011143Y-38549614D01*
X98806014Y-38713198D01*
X98627567Y-38905520D01*
X98479768Y-39122302D01*
X98479767Y-39122303D01*
X98365938Y-39358673D01*
X98288606Y-39609376D01*
X98288605Y-39609381D01*
X98288604Y-39609385D01*
X98278813Y-39674343D01*
X98249500Y-39868812D01*
X98249500Y-40131187D01*
X51561131Y-40131187D01*
X51459602Y-40037932D01*
X51459599Y-40037930D01*
X51459597Y-40037928D01*
X51459593Y-40037925D01*
X51259287Y-39908649D01*
X51259282Y-39908647D01*
X51259281Y-39908646D01*
X51040020Y-39815088D01*
X51040011Y-39815085D01*
X50808087Y-39759925D01*
X50808083Y-39759924D01*
X50570167Y-39744753D01*
X50570166Y-39744753D01*
X50570165Y-39744753D01*
X50333109Y-39770007D01*
X50333107Y-39770008D01*
X50103728Y-39834961D01*
X49888617Y-39937751D01*
X49693981Y-40075412D01*
X49693979Y-40075413D01*
X43613711Y-46155681D01*
X43552388Y-46189166D01*
X43526030Y-46192000D01*
X41802129Y-46192000D01*
X41802123Y-46192001D01*
X41742516Y-46198408D01*
X41607671Y-46248702D01*
X41607664Y-46248706D01*
X41492455Y-46334952D01*
X41492452Y-46334955D01*
X41406206Y-46450164D01*
X41406202Y-46450171D01*
X41355908Y-46585017D01*
X41349501Y-46644616D01*
X41349500Y-46644635D01*
X41349500Y-50240370D01*
X41349501Y-50240376D01*
X41355908Y-50299983D01*
X41406202Y-50434828D01*
X41406206Y-50434835D01*
X41492452Y-50550044D01*
X41492455Y-50550047D01*
X41607664Y-50636293D01*
X41607673Y-50636298D01*
X41654937Y-50653926D01*
X41710871Y-50695796D01*
X41735289Y-50761260D01*
X41720438Y-50829533D01*
X41671033Y-50878939D01*
X41605028Y-50893933D01*
X41568627Y-50892000D01*
X41568622Y-50892000D01*
X39631378Y-50892000D01*
X39631374Y-50892000D01*
X39578756Y-50894795D01*
X39578755Y-50894795D01*
X39348878Y-50939254D01*
X39348876Y-50939254D01*
X39348874Y-50939255D01*
X39274933Y-50967158D01*
X39129810Y-51021925D01*
X38927868Y-51140429D01*
X38927861Y-51140434D01*
X38748858Y-51291356D01*
X38748856Y-51291358D01*
X38597934Y-51470361D01*
X38597929Y-51470368D01*
X38479425Y-51672310D01*
X38446333Y-51760000D01*
X38396755Y-51891374D01*
X38396754Y-51891376D01*
X38396754Y-51891378D01*
X38352295Y-52121255D01*
X38352295Y-52121256D01*
X38349500Y-52173874D01*
X38349500Y-54111126D01*
X27700500Y-54111126D01*
X27700500Y-48192500D01*
X35600000Y-48192500D01*
X37100000Y-48192500D01*
X37100000Y-48692500D01*
X35600001Y-48692500D01*
X35600001Y-49506692D01*
X35610400Y-49638832D01*
X35665377Y-49857019D01*
X35758428Y-50061874D01*
X35758431Y-50061880D01*
X35886559Y-50246823D01*
X35886569Y-50246835D01*
X36045664Y-50405930D01*
X36045676Y-50405940D01*
X36230619Y-50534068D01*
X36230625Y-50534071D01*
X36435480Y-50627122D01*
X36653667Y-50682099D01*
X36785807Y-50692500D01*
X37349999Y-50692499D01*
X37350000Y-50692498D01*
X37350000Y-49876186D01*
X37390156Y-49901993D01*
X37528111Y-49942500D01*
X37671889Y-49942500D01*
X37809844Y-49901993D01*
X37850000Y-49876186D01*
X37850000Y-50692499D01*
X38414192Y-50692499D01*
X38546332Y-50682099D01*
X38764519Y-50627122D01*
X38969374Y-50534071D01*
X38969380Y-50534068D01*
X39154323Y-50405940D01*
X39154335Y-50405930D01*
X39313430Y-50246835D01*
X39313440Y-50246823D01*
X39441568Y-50061880D01*
X39441571Y-50061874D01*
X39534622Y-49857019D01*
X39589599Y-49638832D01*
X39600000Y-49506694D01*
X39600000Y-48692500D01*
X38100000Y-48692500D01*
X38100000Y-48192500D01*
X39599999Y-48192500D01*
X39599999Y-47378308D01*
X39589599Y-47246167D01*
X39534622Y-47027980D01*
X39441571Y-46823125D01*
X39441568Y-46823119D01*
X39313440Y-46638176D01*
X39313430Y-46638164D01*
X39154335Y-46479069D01*
X39154323Y-46479059D01*
X38969380Y-46350931D01*
X38969374Y-46350928D01*
X38764519Y-46257877D01*
X38546332Y-46202900D01*
X38414194Y-46192500D01*
X37850000Y-46192500D01*
X37850000Y-47008813D01*
X37809844Y-46983007D01*
X37671889Y-46942500D01*
X37528111Y-46942500D01*
X37390156Y-46983007D01*
X37350000Y-47008813D01*
X37350000Y-46192500D01*
X37349999Y-46192500D01*
X36785808Y-46192501D01*
X36653667Y-46202900D01*
X36435480Y-46257877D01*
X36230625Y-46350928D01*
X36230619Y-46350931D01*
X36045676Y-46479059D01*
X36045664Y-46479069D01*
X35886569Y-46638164D01*
X35886559Y-46638176D01*
X35758431Y-46823119D01*
X35758428Y-46823125D01*
X35665377Y-47027980D01*
X35610400Y-47246167D01*
X35600000Y-47378306D01*
X35600000Y-48192500D01*
X27700500Y-48192500D01*
X27700500Y-40131187D01*
X38249500Y-40131187D01*
X38269794Y-40265823D01*
X38288604Y-40390615D01*
X38288605Y-40390617D01*
X38288606Y-40390623D01*
X38365938Y-40641326D01*
X38479767Y-40877696D01*
X38479768Y-40877697D01*
X38479770Y-40877700D01*
X38479772Y-40877704D01*
X38604437Y-41060553D01*
X38627567Y-41094479D01*
X38806014Y-41286801D01*
X38806018Y-41286804D01*
X38806019Y-41286805D01*
X39011143Y-41450386D01*
X39238357Y-41581568D01*
X39482584Y-41677420D01*
X39738370Y-41735802D01*
X39738376Y-41735802D01*
X39738379Y-41735803D01*
X39934500Y-41750500D01*
X39934506Y-41750500D01*
X40065500Y-41750500D01*
X40261620Y-41735803D01*
X40261622Y-41735802D01*
X40261630Y-41735802D01*
X40517416Y-41677420D01*
X40761643Y-41581568D01*
X40988857Y-41450386D01*
X41193981Y-41286805D01*
X41372433Y-41094479D01*
X41520228Y-40877704D01*
X41634063Y-40641323D01*
X41711396Y-40390615D01*
X41750500Y-40131182D01*
X41750500Y-39868818D01*
X41711396Y-39609385D01*
X41634063Y-39358677D01*
X41622121Y-39333880D01*
X41520232Y-39122303D01*
X41520231Y-39122302D01*
X41520230Y-39122301D01*
X41520228Y-39122296D01*
X41372433Y-38905521D01*
X41283080Y-38809221D01*
X41193985Y-38713198D01*
X41117778Y-38652425D01*
X71999500Y-38652425D01*
X72014472Y-38809218D01*
X72073684Y-39010875D01*
X72123019Y-39106572D01*
X72169991Y-39197686D01*
X72299905Y-39362883D01*
X72299909Y-39362887D01*
X72458746Y-39500521D01*
X72640750Y-39605601D01*
X72640752Y-39605601D01*
X72640756Y-39605604D01*
X72839367Y-39674344D01*
X73047398Y-39704254D01*
X73257330Y-39694254D01*
X73461576Y-39644704D01*
X73533267Y-39611963D01*
X73652743Y-39557401D01*
X73652746Y-39557399D01*
X73652753Y-39557396D01*
X73823952Y-39435486D01*
X73893179Y-39362883D01*
X73968985Y-39283379D01*
X74024057Y-39197686D01*
X74082613Y-39106572D01*
X74160725Y-38911457D01*
X74200500Y-38705085D01*
X74200500Y-38652425D01*
X85499500Y-38652425D01*
X85514472Y-38809218D01*
X85573684Y-39010875D01*
X85623019Y-39106572D01*
X85669991Y-39197686D01*
X85799905Y-39362883D01*
X85799909Y-39362887D01*
X85958746Y-39500521D01*
X86140750Y-39605601D01*
X86140752Y-39605601D01*
X86140756Y-39605604D01*
X86339367Y-39674344D01*
X86547398Y-39704254D01*
X86757330Y-39694254D01*
X86961576Y-39644704D01*
X87033267Y-39611963D01*
X87152743Y-39557401D01*
X87152746Y-39557399D01*
X87152753Y-39557396D01*
X87323952Y-39435486D01*
X87393179Y-39362883D01*
X87468985Y-39283379D01*
X87524057Y-39197686D01*
X87582613Y-39106572D01*
X87660725Y-38911457D01*
X87700500Y-38705085D01*
X87700500Y-37347575D01*
X87685528Y-37190782D01*
X87626316Y-36989125D01*
X87530011Y-36802318D01*
X87530009Y-36802316D01*
X87530008Y-36802313D01*
X87400094Y-36637116D01*
X87400090Y-36637112D01*
X87241253Y-36499478D01*
X87059249Y-36394398D01*
X87059245Y-36394396D01*
X87059244Y-36394396D01*
X86860633Y-36325656D01*
X86652602Y-36295746D01*
X86652598Y-36295746D01*
X86442672Y-36305745D01*
X86238421Y-36355296D01*
X86238417Y-36355298D01*
X86047256Y-36442598D01*
X86047251Y-36442601D01*
X85876046Y-36564515D01*
X85876040Y-36564520D01*
X85731014Y-36716620D01*
X85617388Y-36893425D01*
X85539274Y-37088544D01*
X85519570Y-37190782D01*
X85499500Y-37294915D01*
X85499500Y-38652425D01*
X74200500Y-38652425D01*
X74200500Y-37347575D01*
X74185528Y-37190782D01*
X74126316Y-36989125D01*
X74030011Y-36802318D01*
X74030009Y-36802316D01*
X74030008Y-36802313D01*
X73900094Y-36637116D01*
X73900090Y-36637112D01*
X73741253Y-36499478D01*
X73559249Y-36394398D01*
X73559245Y-36394396D01*
X73559244Y-36394396D01*
X73360633Y-36325656D01*
X73152602Y-36295746D01*
X73152598Y-36295746D01*
X72942672Y-36305745D01*
X72738421Y-36355296D01*
X72738417Y-36355298D01*
X72547256Y-36442598D01*
X72547251Y-36442601D01*
X72376046Y-36564515D01*
X72376040Y-36564520D01*
X72231014Y-36716620D01*
X72117388Y-36893425D01*
X72039274Y-37088544D01*
X72019570Y-37190782D01*
X71999500Y-37294915D01*
X71999500Y-38652425D01*
X41117778Y-38652425D01*
X41117770Y-38652419D01*
X40988857Y-38549614D01*
X40761643Y-38418432D01*
X40517416Y-38322580D01*
X40517411Y-38322578D01*
X40517402Y-38322576D01*
X40299818Y-38272914D01*
X40261630Y-38264198D01*
X40261629Y-38264197D01*
X40261625Y-38264197D01*
X40261620Y-38264196D01*
X40065500Y-38249500D01*
X40065494Y-38249500D01*
X39934506Y-38249500D01*
X39934500Y-38249500D01*
X39738379Y-38264196D01*
X39738374Y-38264197D01*
X39482597Y-38322576D01*
X39482578Y-38322582D01*
X39238356Y-38418432D01*
X39011143Y-38549614D01*
X38806014Y-38713198D01*
X38627567Y-38905520D01*
X38479768Y-39122302D01*
X38479767Y-39122303D01*
X38365938Y-39358673D01*
X38288606Y-39609376D01*
X38288605Y-39609381D01*
X38288604Y-39609385D01*
X38278813Y-39674343D01*
X38249500Y-39868812D01*
X38249500Y-40131187D01*
X27700500Y-40131187D01*
X27700500Y-36024500D01*
X27720185Y-35957461D01*
X27772989Y-35911706D01*
X27824500Y-35900500D01*
X71675240Y-35900500D01*
X71675383Y-35900528D01*
X71675384Y-35900524D01*
X71699997Y-35900539D01*
X71700000Y-35900541D01*
X71700383Y-35900383D01*
X71700500Y-35900099D01*
X71700541Y-35900000D01*
X71700540Y-35899997D01*
X71700583Y-35875889D01*
X71700500Y-35875467D01*
X71700500Y-27724500D01*
X71720185Y-27657461D01*
X71772989Y-27611706D01*
X71824500Y-27600500D01*
X87875500Y-27600500D01*
X87942539Y-27620185D01*
G37*
%TD.AperFunction*%
%TD*%
M02*
