M48
; DRILL file {KiCad 8.0.0} date 2024-03-29T20:49:21+0100
; FORMAT={-:-/ absolute / inch / decimal}
; #@! TF.CreationDate,2024-03-29T20:49:21+01:00
; #@! TF.GenerationSoftware,Kicad,Pcbnew,8.0.0
; #@! TF.FileFunction,Plated,1,2,PTH
FMAT,2
INCH
; #@! TA.AperFunction,Plated,PTH,ComponentDrill
T1C0.0236
; #@! TA.AperFunction,Plated,PTH,ComponentDrill
T2C0.0300
; #@! TA.AperFunction,Plated,PTH,ComponentDrill
T3C0.0354
; #@! TA.AperFunction,Plated,PTH,ComponentDrill
T4C0.0394
; #@! TA.AperFunction,Plated,PTH,ComponentDrill
T5C0.0398
; #@! TA.AperFunction,Plated,PTH,ComponentDrill
T6C0.1063
%
G90
G05
T2
X2.7165Y-2.9685
X2.7165Y-3.685
X2.7205Y-1.9173
X2.7205Y-2.6339
X4.3248Y-2.9685
X4.3248Y-3.685
X4.3287Y-1.9173
X4.3287Y-2.6339
T3
X1.9222Y-1.9764
X2.0222Y-1.9764
T4
X2.9567Y-4.0787
X3.0551Y-4.0787
X3.3465Y-4.0787
X3.4449Y-4.0787
X3.7402Y-4.0827
X3.8386Y-4.0827
X4.1378Y-4.0827
X4.2362Y-4.0827
X4.6772Y-2.0906
X4.6772Y-2.189
X4.6772Y-2.4843
X4.6772Y-2.5827
X4.6811Y-2.8898
X4.6811Y-2.9882
X4.685Y-1.7047
X4.685Y-1.8031
T5
X1.9921Y-1.6201
X2.3937Y-1.6949
T6
X3.002Y-1.7323
X3.2854Y-1.7323
T1
G00X2.878Y-1.4744
M15
G01X2.878Y-1.5177
M16
G05
G00X3.4094Y-1.4744
M15
G01X3.4094Y-1.5177
M16
G05
T4
G00X1.4803Y-1.8678
M15
G01X1.4803Y-1.9466
M16
G05
G00X1.5591Y-2.0922
M15
G01X1.6378Y-2.0922
M16
G05
G00X1.7165Y-1.8678
M15
G01X1.7165Y-1.9466
M16
G05
M30
