%TF.GenerationSoftware,KiCad,Pcbnew,8.0.0*%
%TF.CreationDate,2024-03-29T20:49:13+01:00*%
%TF.ProjectId,power_supply_5V,706f7765-725f-4737-9570-706c795f3556,Cyril_ Eliott*%
%TF.SameCoordinates,Original*%
%TF.FileFunction,Copper,L1,Top*%
%TF.FilePolarity,Positive*%
%FSLAX46Y46*%
G04 Gerber Fmt 4.6, Leading zero omitted, Abs format (unit mm)*
G04 Created by KiCad (PCBNEW 8.0.0) date 2024-03-29 20:49:13*
%MOMM*%
%LPD*%
G01*
G04 APERTURE LIST*
G04 Aperture macros list*
%AMRoundRect*
0 Rectangle with rounded corners*
0 $1 Rounding radius*
0 $2 $3 $4 $5 $6 $7 $8 $9 X,Y pos of 4 corners*
0 Add a 4 corners polygon primitive as box body*
4,1,4,$2,$3,$4,$5,$6,$7,$8,$9,$2,$3,0*
0 Add four circle primitives for the rounded corners*
1,1,$1+$1,$2,$3*
1,1,$1+$1,$4,$5*
1,1,$1+$1,$6,$7*
1,1,$1+$1,$8,$9*
0 Add four rect primitives between the rounded corners*
20,1,$1+$1,$2,$3,$4,$5,0*
20,1,$1+$1,$4,$5,$6,$7,0*
20,1,$1+$1,$6,$7,$8,$9,0*
20,1,$1+$1,$8,$9,$2,$3,0*%
G04 Aperture macros list end*
%ADD10C,0.100000*%
%ADD11C,0.150000*%
%ADD12C,0.300000*%
%ADD13C,0.400000*%
%TA.AperFunction,ComponentPad*%
%ADD14RoundRect,0.250000X-0.750000X0.600000X-0.750000X-0.600000X0.750000X-0.600000X0.750000X0.600000X0*%
%TD*%
%TA.AperFunction,ComponentPad*%
%ADD15O,2.000000X1.700000*%
%TD*%
%TA.AperFunction,ComponentPad*%
%ADD16RoundRect,0.250000X0.600000X0.750000X-0.600000X0.750000X-0.600000X-0.750000X0.600000X-0.750000X0*%
%TD*%
%TA.AperFunction,ComponentPad*%
%ADD17O,1.700000X2.000000*%
%TD*%
%TA.AperFunction,ComponentPad*%
%ADD18R,1.524000X1.524000*%
%TD*%
%TA.AperFunction,SMDPad,CuDef*%
%ADD19RoundRect,0.250001X1.262499X1.974999X-1.262499X1.974999X-1.262499X-1.974999X1.262499X-1.974999X0*%
%TD*%
%TA.AperFunction,ComponentPad*%
%ADD20R,1.800000X1.800000*%
%TD*%
%TA.AperFunction,ComponentPad*%
%ADD21C,1.800000*%
%TD*%
%TA.AperFunction,ComponentPad*%
%ADD22C,1.560000*%
%TD*%
%TA.AperFunction,ComponentPad*%
%ADD23R,3.500000X3.500000*%
%TD*%
%TA.AperFunction,ComponentPad*%
%ADD24RoundRect,0.750000X-0.750000X-1.000000X0.750000X-1.000000X0.750000X1.000000X-0.750000X1.000000X0*%
%TD*%
%TA.AperFunction,ComponentPad*%
%ADD25RoundRect,0.875000X-0.875000X-0.875000X0.875000X-0.875000X0.875000X0.875000X-0.875000X0.875000X0*%
%TD*%
%TA.AperFunction,ComponentPad*%
%ADD26R,3.716000X3.716000*%
%TD*%
%TA.AperFunction,ComponentPad*%
%ADD27C,3.716000*%
%TD*%
%TA.AperFunction,ComponentPad*%
%ADD28O,1.200000X2.400000*%
%TD*%
%TA.AperFunction,Conductor*%
%ADD29C,0.400000*%
%TD*%
%TA.AperFunction,Conductor*%
%ADD30C,1.800000*%
%TD*%
%TA.AperFunction,Conductor*%
%ADD31C,0.900000*%
%TD*%
G04 APERTURE END LIST*
D10*
D11*
X177002200Y-166007200D02*
X285002200Y-166007200D01*
X285002200Y-198007200D01*
X177002200Y-198007200D01*
X177002200Y-166007200D01*
D10*
D11*
X10000000Y-10000000D02*
X287002200Y-10000000D01*
X287002200Y-200007200D01*
X10000000Y-200007200D01*
X10000000Y-10000000D01*
D10*
D11*
X12000000Y-12000000D02*
X285002200Y-12000000D01*
X285002200Y-198007200D01*
X12000000Y-198007200D01*
X12000000Y-12000000D01*
D10*
D11*
X60000000Y-12000000D02*
X60000000Y-10000000D01*
D10*
D11*
X110000000Y-12000000D02*
X110000000Y-10000000D01*
D10*
D11*
X160000000Y-12000000D02*
X160000000Y-10000000D01*
D10*
D11*
X210000000Y-12000000D02*
X210000000Y-10000000D01*
D10*
D11*
X260000000Y-12000000D02*
X260000000Y-10000000D01*
D10*
D11*
X36089160Y-11593604D02*
X35346303Y-11593604D01*
X35717731Y-11593604D02*
X35717731Y-10293604D01*
X35717731Y-10293604D02*
X35593922Y-10479319D01*
X35593922Y-10479319D02*
X35470112Y-10603128D01*
X35470112Y-10603128D02*
X35346303Y-10665033D01*
D10*
D11*
X85346303Y-10417414D02*
X85408207Y-10355509D01*
X85408207Y-10355509D02*
X85532017Y-10293604D01*
X85532017Y-10293604D02*
X85841541Y-10293604D01*
X85841541Y-10293604D02*
X85965350Y-10355509D01*
X85965350Y-10355509D02*
X86027255Y-10417414D01*
X86027255Y-10417414D02*
X86089160Y-10541223D01*
X86089160Y-10541223D02*
X86089160Y-10665033D01*
X86089160Y-10665033D02*
X86027255Y-10850747D01*
X86027255Y-10850747D02*
X85284398Y-11593604D01*
X85284398Y-11593604D02*
X86089160Y-11593604D01*
D10*
D11*
X135284398Y-10293604D02*
X136089160Y-10293604D01*
X136089160Y-10293604D02*
X135655826Y-10788842D01*
X135655826Y-10788842D02*
X135841541Y-10788842D01*
X135841541Y-10788842D02*
X135965350Y-10850747D01*
X135965350Y-10850747D02*
X136027255Y-10912652D01*
X136027255Y-10912652D02*
X136089160Y-11036461D01*
X136089160Y-11036461D02*
X136089160Y-11345985D01*
X136089160Y-11345985D02*
X136027255Y-11469795D01*
X136027255Y-11469795D02*
X135965350Y-11531700D01*
X135965350Y-11531700D02*
X135841541Y-11593604D01*
X135841541Y-11593604D02*
X135470112Y-11593604D01*
X135470112Y-11593604D02*
X135346303Y-11531700D01*
X135346303Y-11531700D02*
X135284398Y-11469795D01*
D10*
D11*
X185965350Y-10726938D02*
X185965350Y-11593604D01*
X185655826Y-10231700D02*
X185346303Y-11160271D01*
X185346303Y-11160271D02*
X186151064Y-11160271D01*
D10*
D11*
X236027255Y-10293604D02*
X235408207Y-10293604D01*
X235408207Y-10293604D02*
X235346303Y-10912652D01*
X235346303Y-10912652D02*
X235408207Y-10850747D01*
X235408207Y-10850747D02*
X235532017Y-10788842D01*
X235532017Y-10788842D02*
X235841541Y-10788842D01*
X235841541Y-10788842D02*
X235965350Y-10850747D01*
X235965350Y-10850747D02*
X236027255Y-10912652D01*
X236027255Y-10912652D02*
X236089160Y-11036461D01*
X236089160Y-11036461D02*
X236089160Y-11345985D01*
X236089160Y-11345985D02*
X236027255Y-11469795D01*
X236027255Y-11469795D02*
X235965350Y-11531700D01*
X235965350Y-11531700D02*
X235841541Y-11593604D01*
X235841541Y-11593604D02*
X235532017Y-11593604D01*
X235532017Y-11593604D02*
X235408207Y-11531700D01*
X235408207Y-11531700D02*
X235346303Y-11469795D01*
D10*
D11*
X285965350Y-10293604D02*
X285717731Y-10293604D01*
X285717731Y-10293604D02*
X285593922Y-10355509D01*
X285593922Y-10355509D02*
X285532017Y-10417414D01*
X285532017Y-10417414D02*
X285408207Y-10603128D01*
X285408207Y-10603128D02*
X285346303Y-10850747D01*
X285346303Y-10850747D02*
X285346303Y-11345985D01*
X285346303Y-11345985D02*
X285408207Y-11469795D01*
X285408207Y-11469795D02*
X285470112Y-11531700D01*
X285470112Y-11531700D02*
X285593922Y-11593604D01*
X285593922Y-11593604D02*
X285841541Y-11593604D01*
X285841541Y-11593604D02*
X285965350Y-11531700D01*
X285965350Y-11531700D02*
X286027255Y-11469795D01*
X286027255Y-11469795D02*
X286089160Y-11345985D01*
X286089160Y-11345985D02*
X286089160Y-11036461D01*
X286089160Y-11036461D02*
X286027255Y-10912652D01*
X286027255Y-10912652D02*
X285965350Y-10850747D01*
X285965350Y-10850747D02*
X285841541Y-10788842D01*
X285841541Y-10788842D02*
X285593922Y-10788842D01*
X285593922Y-10788842D02*
X285470112Y-10850747D01*
X285470112Y-10850747D02*
X285408207Y-10912652D01*
X285408207Y-10912652D02*
X285346303Y-11036461D01*
D10*
D11*
X60000000Y-198007200D02*
X60000000Y-200007200D01*
D10*
D11*
X110000000Y-198007200D02*
X110000000Y-200007200D01*
D10*
D11*
X160000000Y-198007200D02*
X160000000Y-200007200D01*
D10*
D11*
X210000000Y-198007200D02*
X210000000Y-200007200D01*
D10*
D11*
X260000000Y-198007200D02*
X260000000Y-200007200D01*
D10*
D11*
X36089160Y-199600804D02*
X35346303Y-199600804D01*
X35717731Y-199600804D02*
X35717731Y-198300804D01*
X35717731Y-198300804D02*
X35593922Y-198486519D01*
X35593922Y-198486519D02*
X35470112Y-198610328D01*
X35470112Y-198610328D02*
X35346303Y-198672233D01*
D10*
D11*
X85346303Y-198424614D02*
X85408207Y-198362709D01*
X85408207Y-198362709D02*
X85532017Y-198300804D01*
X85532017Y-198300804D02*
X85841541Y-198300804D01*
X85841541Y-198300804D02*
X85965350Y-198362709D01*
X85965350Y-198362709D02*
X86027255Y-198424614D01*
X86027255Y-198424614D02*
X86089160Y-198548423D01*
X86089160Y-198548423D02*
X86089160Y-198672233D01*
X86089160Y-198672233D02*
X86027255Y-198857947D01*
X86027255Y-198857947D02*
X85284398Y-199600804D01*
X85284398Y-199600804D02*
X86089160Y-199600804D01*
D10*
D11*
X135284398Y-198300804D02*
X136089160Y-198300804D01*
X136089160Y-198300804D02*
X135655826Y-198796042D01*
X135655826Y-198796042D02*
X135841541Y-198796042D01*
X135841541Y-198796042D02*
X135965350Y-198857947D01*
X135965350Y-198857947D02*
X136027255Y-198919852D01*
X136027255Y-198919852D02*
X136089160Y-199043661D01*
X136089160Y-199043661D02*
X136089160Y-199353185D01*
X136089160Y-199353185D02*
X136027255Y-199476995D01*
X136027255Y-199476995D02*
X135965350Y-199538900D01*
X135965350Y-199538900D02*
X135841541Y-199600804D01*
X135841541Y-199600804D02*
X135470112Y-199600804D01*
X135470112Y-199600804D02*
X135346303Y-199538900D01*
X135346303Y-199538900D02*
X135284398Y-199476995D01*
D10*
D11*
X185965350Y-198734138D02*
X185965350Y-199600804D01*
X185655826Y-198238900D02*
X185346303Y-199167471D01*
X185346303Y-199167471D02*
X186151064Y-199167471D01*
D10*
D11*
X236027255Y-198300804D02*
X235408207Y-198300804D01*
X235408207Y-198300804D02*
X235346303Y-198919852D01*
X235346303Y-198919852D02*
X235408207Y-198857947D01*
X235408207Y-198857947D02*
X235532017Y-198796042D01*
X235532017Y-198796042D02*
X235841541Y-198796042D01*
X235841541Y-198796042D02*
X235965350Y-198857947D01*
X235965350Y-198857947D02*
X236027255Y-198919852D01*
X236027255Y-198919852D02*
X236089160Y-199043661D01*
X236089160Y-199043661D02*
X236089160Y-199353185D01*
X236089160Y-199353185D02*
X236027255Y-199476995D01*
X236027255Y-199476995D02*
X235965350Y-199538900D01*
X235965350Y-199538900D02*
X235841541Y-199600804D01*
X235841541Y-199600804D02*
X235532017Y-199600804D01*
X235532017Y-199600804D02*
X235408207Y-199538900D01*
X235408207Y-199538900D02*
X235346303Y-199476995D01*
D10*
D11*
X285965350Y-198300804D02*
X285717731Y-198300804D01*
X285717731Y-198300804D02*
X285593922Y-198362709D01*
X285593922Y-198362709D02*
X285532017Y-198424614D01*
X285532017Y-198424614D02*
X285408207Y-198610328D01*
X285408207Y-198610328D02*
X285346303Y-198857947D01*
X285346303Y-198857947D02*
X285346303Y-199353185D01*
X285346303Y-199353185D02*
X285408207Y-199476995D01*
X285408207Y-199476995D02*
X285470112Y-199538900D01*
X285470112Y-199538900D02*
X285593922Y-199600804D01*
X285593922Y-199600804D02*
X285841541Y-199600804D01*
X285841541Y-199600804D02*
X285965350Y-199538900D01*
X285965350Y-199538900D02*
X286027255Y-199476995D01*
X286027255Y-199476995D02*
X286089160Y-199353185D01*
X286089160Y-199353185D02*
X286089160Y-199043661D01*
X286089160Y-199043661D02*
X286027255Y-198919852D01*
X286027255Y-198919852D02*
X285965350Y-198857947D01*
X285965350Y-198857947D02*
X285841541Y-198796042D01*
X285841541Y-198796042D02*
X285593922Y-198796042D01*
X285593922Y-198796042D02*
X285470112Y-198857947D01*
X285470112Y-198857947D02*
X285408207Y-198919852D01*
X285408207Y-198919852D02*
X285346303Y-199043661D01*
D10*
D11*
X10000000Y-60000000D02*
X12000000Y-60000000D01*
D10*
D11*
X10000000Y-110000000D02*
X12000000Y-110000000D01*
D10*
D11*
X10000000Y-160000000D02*
X12000000Y-160000000D01*
D10*
D11*
X10690476Y-35222176D02*
X11309523Y-35222176D01*
X10566666Y-35593604D02*
X10999999Y-34293604D01*
X10999999Y-34293604D02*
X11433333Y-35593604D01*
D10*
D11*
X11092857Y-84912652D02*
X11278571Y-84974557D01*
X11278571Y-84974557D02*
X11340476Y-85036461D01*
X11340476Y-85036461D02*
X11402380Y-85160271D01*
X11402380Y-85160271D02*
X11402380Y-85345985D01*
X11402380Y-85345985D02*
X11340476Y-85469795D01*
X11340476Y-85469795D02*
X11278571Y-85531700D01*
X11278571Y-85531700D02*
X11154761Y-85593604D01*
X11154761Y-85593604D02*
X10659523Y-85593604D01*
X10659523Y-85593604D02*
X10659523Y-84293604D01*
X10659523Y-84293604D02*
X11092857Y-84293604D01*
X11092857Y-84293604D02*
X11216666Y-84355509D01*
X11216666Y-84355509D02*
X11278571Y-84417414D01*
X11278571Y-84417414D02*
X11340476Y-84541223D01*
X11340476Y-84541223D02*
X11340476Y-84665033D01*
X11340476Y-84665033D02*
X11278571Y-84788842D01*
X11278571Y-84788842D02*
X11216666Y-84850747D01*
X11216666Y-84850747D02*
X11092857Y-84912652D01*
X11092857Y-84912652D02*
X10659523Y-84912652D01*
D10*
D11*
X11402380Y-135469795D02*
X11340476Y-135531700D01*
X11340476Y-135531700D02*
X11154761Y-135593604D01*
X11154761Y-135593604D02*
X11030952Y-135593604D01*
X11030952Y-135593604D02*
X10845238Y-135531700D01*
X10845238Y-135531700D02*
X10721428Y-135407890D01*
X10721428Y-135407890D02*
X10659523Y-135284080D01*
X10659523Y-135284080D02*
X10597619Y-135036461D01*
X10597619Y-135036461D02*
X10597619Y-134850747D01*
X10597619Y-134850747D02*
X10659523Y-134603128D01*
X10659523Y-134603128D02*
X10721428Y-134479319D01*
X10721428Y-134479319D02*
X10845238Y-134355509D01*
X10845238Y-134355509D02*
X11030952Y-134293604D01*
X11030952Y-134293604D02*
X11154761Y-134293604D01*
X11154761Y-134293604D02*
X11340476Y-134355509D01*
X11340476Y-134355509D02*
X11402380Y-134417414D01*
D10*
D11*
X10659523Y-185593604D02*
X10659523Y-184293604D01*
X10659523Y-184293604D02*
X10969047Y-184293604D01*
X10969047Y-184293604D02*
X11154761Y-184355509D01*
X11154761Y-184355509D02*
X11278571Y-184479319D01*
X11278571Y-184479319D02*
X11340476Y-184603128D01*
X11340476Y-184603128D02*
X11402380Y-184850747D01*
X11402380Y-184850747D02*
X11402380Y-185036461D01*
X11402380Y-185036461D02*
X11340476Y-185284080D01*
X11340476Y-185284080D02*
X11278571Y-185407890D01*
X11278571Y-185407890D02*
X11154761Y-185531700D01*
X11154761Y-185531700D02*
X10969047Y-185593604D01*
X10969047Y-185593604D02*
X10659523Y-185593604D01*
D10*
D11*
X287002200Y-60000000D02*
X285002200Y-60000000D01*
D10*
D11*
X287002200Y-110000000D02*
X285002200Y-110000000D01*
D10*
D11*
X287002200Y-160000000D02*
X285002200Y-160000000D01*
D10*
D11*
X285692676Y-35222176D02*
X286311723Y-35222176D01*
X285568866Y-35593604D02*
X286002199Y-34293604D01*
X286002199Y-34293604D02*
X286435533Y-35593604D01*
D10*
D11*
X286095057Y-84912652D02*
X286280771Y-84974557D01*
X286280771Y-84974557D02*
X286342676Y-85036461D01*
X286342676Y-85036461D02*
X286404580Y-85160271D01*
X286404580Y-85160271D02*
X286404580Y-85345985D01*
X286404580Y-85345985D02*
X286342676Y-85469795D01*
X286342676Y-85469795D02*
X286280771Y-85531700D01*
X286280771Y-85531700D02*
X286156961Y-85593604D01*
X286156961Y-85593604D02*
X285661723Y-85593604D01*
X285661723Y-85593604D02*
X285661723Y-84293604D01*
X285661723Y-84293604D02*
X286095057Y-84293604D01*
X286095057Y-84293604D02*
X286218866Y-84355509D01*
X286218866Y-84355509D02*
X286280771Y-84417414D01*
X286280771Y-84417414D02*
X286342676Y-84541223D01*
X286342676Y-84541223D02*
X286342676Y-84665033D01*
X286342676Y-84665033D02*
X286280771Y-84788842D01*
X286280771Y-84788842D02*
X286218866Y-84850747D01*
X286218866Y-84850747D02*
X286095057Y-84912652D01*
X286095057Y-84912652D02*
X285661723Y-84912652D01*
D10*
D11*
X286404580Y-135469795D02*
X286342676Y-135531700D01*
X286342676Y-135531700D02*
X286156961Y-135593604D01*
X286156961Y-135593604D02*
X286033152Y-135593604D01*
X286033152Y-135593604D02*
X285847438Y-135531700D01*
X285847438Y-135531700D02*
X285723628Y-135407890D01*
X285723628Y-135407890D02*
X285661723Y-135284080D01*
X285661723Y-135284080D02*
X285599819Y-135036461D01*
X285599819Y-135036461D02*
X285599819Y-134850747D01*
X285599819Y-134850747D02*
X285661723Y-134603128D01*
X285661723Y-134603128D02*
X285723628Y-134479319D01*
X285723628Y-134479319D02*
X285847438Y-134355509D01*
X285847438Y-134355509D02*
X286033152Y-134293604D01*
X286033152Y-134293604D02*
X286156961Y-134293604D01*
X286156961Y-134293604D02*
X286342676Y-134355509D01*
X286342676Y-134355509D02*
X286404580Y-134417414D01*
D10*
D11*
X285661723Y-185593604D02*
X285661723Y-184293604D01*
X285661723Y-184293604D02*
X285971247Y-184293604D01*
X285971247Y-184293604D02*
X286156961Y-184355509D01*
X286156961Y-184355509D02*
X286280771Y-184479319D01*
X286280771Y-184479319D02*
X286342676Y-184603128D01*
X286342676Y-184603128D02*
X286404580Y-184850747D01*
X286404580Y-184850747D02*
X286404580Y-185036461D01*
X286404580Y-185036461D02*
X286342676Y-185284080D01*
X286342676Y-185284080D02*
X286280771Y-185407890D01*
X286280771Y-185407890D02*
X286156961Y-185531700D01*
X286156961Y-185531700D02*
X285971247Y-185593604D01*
X285971247Y-185593604D02*
X285661723Y-185593604D01*
D10*
D11*
X200458026Y-193793328D02*
X200458026Y-192293328D01*
X200458026Y-192293328D02*
X200815169Y-192293328D01*
X200815169Y-192293328D02*
X201029455Y-192364757D01*
X201029455Y-192364757D02*
X201172312Y-192507614D01*
X201172312Y-192507614D02*
X201243741Y-192650471D01*
X201243741Y-192650471D02*
X201315169Y-192936185D01*
X201315169Y-192936185D02*
X201315169Y-193150471D01*
X201315169Y-193150471D02*
X201243741Y-193436185D01*
X201243741Y-193436185D02*
X201172312Y-193579042D01*
X201172312Y-193579042D02*
X201029455Y-193721900D01*
X201029455Y-193721900D02*
X200815169Y-193793328D01*
X200815169Y-193793328D02*
X200458026Y-193793328D01*
X202600884Y-193793328D02*
X202600884Y-193007614D01*
X202600884Y-193007614D02*
X202529455Y-192864757D01*
X202529455Y-192864757D02*
X202386598Y-192793328D01*
X202386598Y-192793328D02*
X202100884Y-192793328D01*
X202100884Y-192793328D02*
X201958026Y-192864757D01*
X202600884Y-193721900D02*
X202458026Y-193793328D01*
X202458026Y-193793328D02*
X202100884Y-193793328D01*
X202100884Y-193793328D02*
X201958026Y-193721900D01*
X201958026Y-193721900D02*
X201886598Y-193579042D01*
X201886598Y-193579042D02*
X201886598Y-193436185D01*
X201886598Y-193436185D02*
X201958026Y-193293328D01*
X201958026Y-193293328D02*
X202100884Y-193221900D01*
X202100884Y-193221900D02*
X202458026Y-193221900D01*
X202458026Y-193221900D02*
X202600884Y-193150471D01*
X203100884Y-192793328D02*
X203672312Y-192793328D01*
X203315169Y-192293328D02*
X203315169Y-193579042D01*
X203315169Y-193579042D02*
X203386598Y-193721900D01*
X203386598Y-193721900D02*
X203529455Y-193793328D01*
X203529455Y-193793328D02*
X203672312Y-193793328D01*
X204743741Y-193721900D02*
X204600884Y-193793328D01*
X204600884Y-193793328D02*
X204315170Y-193793328D01*
X204315170Y-193793328D02*
X204172312Y-193721900D01*
X204172312Y-193721900D02*
X204100884Y-193579042D01*
X204100884Y-193579042D02*
X204100884Y-193007614D01*
X204100884Y-193007614D02*
X204172312Y-192864757D01*
X204172312Y-192864757D02*
X204315170Y-192793328D01*
X204315170Y-192793328D02*
X204600884Y-192793328D01*
X204600884Y-192793328D02*
X204743741Y-192864757D01*
X204743741Y-192864757D02*
X204815170Y-193007614D01*
X204815170Y-193007614D02*
X204815170Y-193150471D01*
X204815170Y-193150471D02*
X204100884Y-193293328D01*
X205458026Y-193650471D02*
X205529455Y-193721900D01*
X205529455Y-193721900D02*
X205458026Y-193793328D01*
X205458026Y-193793328D02*
X205386598Y-193721900D01*
X205386598Y-193721900D02*
X205458026Y-193650471D01*
X205458026Y-193650471D02*
X205458026Y-193793328D01*
X205458026Y-192864757D02*
X205529455Y-192936185D01*
X205529455Y-192936185D02*
X205458026Y-193007614D01*
X205458026Y-193007614D02*
X205386598Y-192936185D01*
X205386598Y-192936185D02*
X205458026Y-192864757D01*
X205458026Y-192864757D02*
X205458026Y-193007614D01*
X207243741Y-192436185D02*
X207315169Y-192364757D01*
X207315169Y-192364757D02*
X207458027Y-192293328D01*
X207458027Y-192293328D02*
X207815169Y-192293328D01*
X207815169Y-192293328D02*
X207958027Y-192364757D01*
X207958027Y-192364757D02*
X208029455Y-192436185D01*
X208029455Y-192436185D02*
X208100884Y-192579042D01*
X208100884Y-192579042D02*
X208100884Y-192721900D01*
X208100884Y-192721900D02*
X208029455Y-192936185D01*
X208029455Y-192936185D02*
X207172312Y-193793328D01*
X207172312Y-193793328D02*
X208100884Y-193793328D01*
X209029455Y-192293328D02*
X209172312Y-192293328D01*
X209172312Y-192293328D02*
X209315169Y-192364757D01*
X209315169Y-192364757D02*
X209386598Y-192436185D01*
X209386598Y-192436185D02*
X209458026Y-192579042D01*
X209458026Y-192579042D02*
X209529455Y-192864757D01*
X209529455Y-192864757D02*
X209529455Y-193221900D01*
X209529455Y-193221900D02*
X209458026Y-193507614D01*
X209458026Y-193507614D02*
X209386598Y-193650471D01*
X209386598Y-193650471D02*
X209315169Y-193721900D01*
X209315169Y-193721900D02*
X209172312Y-193793328D01*
X209172312Y-193793328D02*
X209029455Y-193793328D01*
X209029455Y-193793328D02*
X208886598Y-193721900D01*
X208886598Y-193721900D02*
X208815169Y-193650471D01*
X208815169Y-193650471D02*
X208743740Y-193507614D01*
X208743740Y-193507614D02*
X208672312Y-193221900D01*
X208672312Y-193221900D02*
X208672312Y-192864757D01*
X208672312Y-192864757D02*
X208743740Y-192579042D01*
X208743740Y-192579042D02*
X208815169Y-192436185D01*
X208815169Y-192436185D02*
X208886598Y-192364757D01*
X208886598Y-192364757D02*
X209029455Y-192293328D01*
X210100883Y-192436185D02*
X210172311Y-192364757D01*
X210172311Y-192364757D02*
X210315169Y-192293328D01*
X210315169Y-192293328D02*
X210672311Y-192293328D01*
X210672311Y-192293328D02*
X210815169Y-192364757D01*
X210815169Y-192364757D02*
X210886597Y-192436185D01*
X210886597Y-192436185D02*
X210958026Y-192579042D01*
X210958026Y-192579042D02*
X210958026Y-192721900D01*
X210958026Y-192721900D02*
X210886597Y-192936185D01*
X210886597Y-192936185D02*
X210029454Y-193793328D01*
X210029454Y-193793328D02*
X210958026Y-193793328D01*
X212243740Y-192793328D02*
X212243740Y-193793328D01*
X211886597Y-192221900D02*
X211529454Y-193293328D01*
X211529454Y-193293328D02*
X212458025Y-193293328D01*
X213029453Y-193221900D02*
X214172311Y-193221900D01*
X215172311Y-192293328D02*
X215315168Y-192293328D01*
X215315168Y-192293328D02*
X215458025Y-192364757D01*
X215458025Y-192364757D02*
X215529454Y-192436185D01*
X215529454Y-192436185D02*
X215600882Y-192579042D01*
X215600882Y-192579042D02*
X215672311Y-192864757D01*
X215672311Y-192864757D02*
X215672311Y-193221900D01*
X215672311Y-193221900D02*
X215600882Y-193507614D01*
X215600882Y-193507614D02*
X215529454Y-193650471D01*
X215529454Y-193650471D02*
X215458025Y-193721900D01*
X215458025Y-193721900D02*
X215315168Y-193793328D01*
X215315168Y-193793328D02*
X215172311Y-193793328D01*
X215172311Y-193793328D02*
X215029454Y-193721900D01*
X215029454Y-193721900D02*
X214958025Y-193650471D01*
X214958025Y-193650471D02*
X214886596Y-193507614D01*
X214886596Y-193507614D02*
X214815168Y-193221900D01*
X214815168Y-193221900D02*
X214815168Y-192864757D01*
X214815168Y-192864757D02*
X214886596Y-192579042D01*
X214886596Y-192579042D02*
X214958025Y-192436185D01*
X214958025Y-192436185D02*
X215029454Y-192364757D01*
X215029454Y-192364757D02*
X215172311Y-192293328D01*
X216243739Y-192436185D02*
X216315167Y-192364757D01*
X216315167Y-192364757D02*
X216458025Y-192293328D01*
X216458025Y-192293328D02*
X216815167Y-192293328D01*
X216815167Y-192293328D02*
X216958025Y-192364757D01*
X216958025Y-192364757D02*
X217029453Y-192436185D01*
X217029453Y-192436185D02*
X217100882Y-192579042D01*
X217100882Y-192579042D02*
X217100882Y-192721900D01*
X217100882Y-192721900D02*
X217029453Y-192936185D01*
X217029453Y-192936185D02*
X216172310Y-193793328D01*
X216172310Y-193793328D02*
X217100882Y-193793328D01*
X217743738Y-193221900D02*
X218886596Y-193221900D01*
X219886596Y-192293328D02*
X220029453Y-192293328D01*
X220029453Y-192293328D02*
X220172310Y-192364757D01*
X220172310Y-192364757D02*
X220243739Y-192436185D01*
X220243739Y-192436185D02*
X220315167Y-192579042D01*
X220315167Y-192579042D02*
X220386596Y-192864757D01*
X220386596Y-192864757D02*
X220386596Y-193221900D01*
X220386596Y-193221900D02*
X220315167Y-193507614D01*
X220315167Y-193507614D02*
X220243739Y-193650471D01*
X220243739Y-193650471D02*
X220172310Y-193721900D01*
X220172310Y-193721900D02*
X220029453Y-193793328D01*
X220029453Y-193793328D02*
X219886596Y-193793328D01*
X219886596Y-193793328D02*
X219743739Y-193721900D01*
X219743739Y-193721900D02*
X219672310Y-193650471D01*
X219672310Y-193650471D02*
X219600881Y-193507614D01*
X219600881Y-193507614D02*
X219529453Y-193221900D01*
X219529453Y-193221900D02*
X219529453Y-192864757D01*
X219529453Y-192864757D02*
X219600881Y-192579042D01*
X219600881Y-192579042D02*
X219672310Y-192436185D01*
X219672310Y-192436185D02*
X219743739Y-192364757D01*
X219743739Y-192364757D02*
X219886596Y-192293328D01*
X221243738Y-192936185D02*
X221100881Y-192864757D01*
X221100881Y-192864757D02*
X221029452Y-192793328D01*
X221029452Y-192793328D02*
X220958024Y-192650471D01*
X220958024Y-192650471D02*
X220958024Y-192579042D01*
X220958024Y-192579042D02*
X221029452Y-192436185D01*
X221029452Y-192436185D02*
X221100881Y-192364757D01*
X221100881Y-192364757D02*
X221243738Y-192293328D01*
X221243738Y-192293328D02*
X221529452Y-192293328D01*
X221529452Y-192293328D02*
X221672310Y-192364757D01*
X221672310Y-192364757D02*
X221743738Y-192436185D01*
X221743738Y-192436185D02*
X221815167Y-192579042D01*
X221815167Y-192579042D02*
X221815167Y-192650471D01*
X221815167Y-192650471D02*
X221743738Y-192793328D01*
X221743738Y-192793328D02*
X221672310Y-192864757D01*
X221672310Y-192864757D02*
X221529452Y-192936185D01*
X221529452Y-192936185D02*
X221243738Y-192936185D01*
X221243738Y-192936185D02*
X221100881Y-193007614D01*
X221100881Y-193007614D02*
X221029452Y-193079042D01*
X221029452Y-193079042D02*
X220958024Y-193221900D01*
X220958024Y-193221900D02*
X220958024Y-193507614D01*
X220958024Y-193507614D02*
X221029452Y-193650471D01*
X221029452Y-193650471D02*
X221100881Y-193721900D01*
X221100881Y-193721900D02*
X221243738Y-193793328D01*
X221243738Y-193793328D02*
X221529452Y-193793328D01*
X221529452Y-193793328D02*
X221672310Y-193721900D01*
X221672310Y-193721900D02*
X221743738Y-193650471D01*
X221743738Y-193650471D02*
X221815167Y-193507614D01*
X221815167Y-193507614D02*
X221815167Y-193221900D01*
X221815167Y-193221900D02*
X221743738Y-193079042D01*
X221743738Y-193079042D02*
X221672310Y-193007614D01*
X221672310Y-193007614D02*
X221529452Y-192936185D01*
D10*
D11*
X177002200Y-194507200D02*
X285002200Y-194507200D01*
D10*
D11*
X178458026Y-196593328D02*
X178458026Y-195093328D01*
X179315169Y-196593328D02*
X178672312Y-195736185D01*
X179315169Y-195093328D02*
X178458026Y-195950471D01*
X179958026Y-196593328D02*
X179958026Y-195593328D01*
X179958026Y-195093328D02*
X179886598Y-195164757D01*
X179886598Y-195164757D02*
X179958026Y-195236185D01*
X179958026Y-195236185D02*
X180029455Y-195164757D01*
X180029455Y-195164757D02*
X179958026Y-195093328D01*
X179958026Y-195093328D02*
X179958026Y-195236185D01*
X181529455Y-196450471D02*
X181458027Y-196521900D01*
X181458027Y-196521900D02*
X181243741Y-196593328D01*
X181243741Y-196593328D02*
X181100884Y-196593328D01*
X181100884Y-196593328D02*
X180886598Y-196521900D01*
X180886598Y-196521900D02*
X180743741Y-196379042D01*
X180743741Y-196379042D02*
X180672312Y-196236185D01*
X180672312Y-196236185D02*
X180600884Y-195950471D01*
X180600884Y-195950471D02*
X180600884Y-195736185D01*
X180600884Y-195736185D02*
X180672312Y-195450471D01*
X180672312Y-195450471D02*
X180743741Y-195307614D01*
X180743741Y-195307614D02*
X180886598Y-195164757D01*
X180886598Y-195164757D02*
X181100884Y-195093328D01*
X181100884Y-195093328D02*
X181243741Y-195093328D01*
X181243741Y-195093328D02*
X181458027Y-195164757D01*
X181458027Y-195164757D02*
X181529455Y-195236185D01*
X182815170Y-196593328D02*
X182815170Y-195807614D01*
X182815170Y-195807614D02*
X182743741Y-195664757D01*
X182743741Y-195664757D02*
X182600884Y-195593328D01*
X182600884Y-195593328D02*
X182315170Y-195593328D01*
X182315170Y-195593328D02*
X182172312Y-195664757D01*
X182815170Y-196521900D02*
X182672312Y-196593328D01*
X182672312Y-196593328D02*
X182315170Y-196593328D01*
X182315170Y-196593328D02*
X182172312Y-196521900D01*
X182172312Y-196521900D02*
X182100884Y-196379042D01*
X182100884Y-196379042D02*
X182100884Y-196236185D01*
X182100884Y-196236185D02*
X182172312Y-196093328D01*
X182172312Y-196093328D02*
X182315170Y-196021900D01*
X182315170Y-196021900D02*
X182672312Y-196021900D01*
X182672312Y-196021900D02*
X182815170Y-195950471D01*
X184172313Y-196593328D02*
X184172313Y-195093328D01*
X184172313Y-196521900D02*
X184029455Y-196593328D01*
X184029455Y-196593328D02*
X183743741Y-196593328D01*
X183743741Y-196593328D02*
X183600884Y-196521900D01*
X183600884Y-196521900D02*
X183529455Y-196450471D01*
X183529455Y-196450471D02*
X183458027Y-196307614D01*
X183458027Y-196307614D02*
X183458027Y-195879042D01*
X183458027Y-195879042D02*
X183529455Y-195736185D01*
X183529455Y-195736185D02*
X183600884Y-195664757D01*
X183600884Y-195664757D02*
X183743741Y-195593328D01*
X183743741Y-195593328D02*
X184029455Y-195593328D01*
X184029455Y-195593328D02*
X184172313Y-195664757D01*
X186029455Y-195807614D02*
X186529455Y-195807614D01*
X186743741Y-196593328D02*
X186029455Y-196593328D01*
X186029455Y-196593328D02*
X186029455Y-195093328D01*
X186029455Y-195093328D02*
X186743741Y-195093328D01*
X187386598Y-196450471D02*
X187458027Y-196521900D01*
X187458027Y-196521900D02*
X187386598Y-196593328D01*
X187386598Y-196593328D02*
X187315170Y-196521900D01*
X187315170Y-196521900D02*
X187386598Y-196450471D01*
X187386598Y-196450471D02*
X187386598Y-196593328D01*
X188100884Y-196593328D02*
X188100884Y-195093328D01*
X188100884Y-195093328D02*
X188458027Y-195093328D01*
X188458027Y-195093328D02*
X188672313Y-195164757D01*
X188672313Y-195164757D02*
X188815170Y-195307614D01*
X188815170Y-195307614D02*
X188886599Y-195450471D01*
X188886599Y-195450471D02*
X188958027Y-195736185D01*
X188958027Y-195736185D02*
X188958027Y-195950471D01*
X188958027Y-195950471D02*
X188886599Y-196236185D01*
X188886599Y-196236185D02*
X188815170Y-196379042D01*
X188815170Y-196379042D02*
X188672313Y-196521900D01*
X188672313Y-196521900D02*
X188458027Y-196593328D01*
X188458027Y-196593328D02*
X188100884Y-196593328D01*
X189600884Y-196450471D02*
X189672313Y-196521900D01*
X189672313Y-196521900D02*
X189600884Y-196593328D01*
X189600884Y-196593328D02*
X189529456Y-196521900D01*
X189529456Y-196521900D02*
X189600884Y-196450471D01*
X189600884Y-196450471D02*
X189600884Y-196593328D01*
X190243742Y-196164757D02*
X190958028Y-196164757D01*
X190100885Y-196593328D02*
X190600885Y-195093328D01*
X190600885Y-195093328D02*
X191100885Y-196593328D01*
X191600884Y-196450471D02*
X191672313Y-196521900D01*
X191672313Y-196521900D02*
X191600884Y-196593328D01*
X191600884Y-196593328D02*
X191529456Y-196521900D01*
X191529456Y-196521900D02*
X191600884Y-196450471D01*
X191600884Y-196450471D02*
X191600884Y-196593328D01*
X193672313Y-195736185D02*
X193529456Y-195664757D01*
X193529456Y-195664757D02*
X193458027Y-195593328D01*
X193458027Y-195593328D02*
X193386599Y-195450471D01*
X193386599Y-195450471D02*
X193386599Y-195379042D01*
X193386599Y-195379042D02*
X193458027Y-195236185D01*
X193458027Y-195236185D02*
X193529456Y-195164757D01*
X193529456Y-195164757D02*
X193672313Y-195093328D01*
X193672313Y-195093328D02*
X193958027Y-195093328D01*
X193958027Y-195093328D02*
X194100885Y-195164757D01*
X194100885Y-195164757D02*
X194172313Y-195236185D01*
X194172313Y-195236185D02*
X194243742Y-195379042D01*
X194243742Y-195379042D02*
X194243742Y-195450471D01*
X194243742Y-195450471D02*
X194172313Y-195593328D01*
X194172313Y-195593328D02*
X194100885Y-195664757D01*
X194100885Y-195664757D02*
X193958027Y-195736185D01*
X193958027Y-195736185D02*
X193672313Y-195736185D01*
X193672313Y-195736185D02*
X193529456Y-195807614D01*
X193529456Y-195807614D02*
X193458027Y-195879042D01*
X193458027Y-195879042D02*
X193386599Y-196021900D01*
X193386599Y-196021900D02*
X193386599Y-196307614D01*
X193386599Y-196307614D02*
X193458027Y-196450471D01*
X193458027Y-196450471D02*
X193529456Y-196521900D01*
X193529456Y-196521900D02*
X193672313Y-196593328D01*
X193672313Y-196593328D02*
X193958027Y-196593328D01*
X193958027Y-196593328D02*
X194100885Y-196521900D01*
X194100885Y-196521900D02*
X194172313Y-196450471D01*
X194172313Y-196450471D02*
X194243742Y-196307614D01*
X194243742Y-196307614D02*
X194243742Y-196021900D01*
X194243742Y-196021900D02*
X194172313Y-195879042D01*
X194172313Y-195879042D02*
X194100885Y-195807614D01*
X194100885Y-195807614D02*
X193958027Y-195736185D01*
X194886598Y-196450471D02*
X194958027Y-196521900D01*
X194958027Y-196521900D02*
X194886598Y-196593328D01*
X194886598Y-196593328D02*
X194815170Y-196521900D01*
X194815170Y-196521900D02*
X194886598Y-196450471D01*
X194886598Y-196450471D02*
X194886598Y-196593328D01*
X195886599Y-195093328D02*
X196029456Y-195093328D01*
X196029456Y-195093328D02*
X196172313Y-195164757D01*
X196172313Y-195164757D02*
X196243742Y-195236185D01*
X196243742Y-195236185D02*
X196315170Y-195379042D01*
X196315170Y-195379042D02*
X196386599Y-195664757D01*
X196386599Y-195664757D02*
X196386599Y-196021900D01*
X196386599Y-196021900D02*
X196315170Y-196307614D01*
X196315170Y-196307614D02*
X196243742Y-196450471D01*
X196243742Y-196450471D02*
X196172313Y-196521900D01*
X196172313Y-196521900D02*
X196029456Y-196593328D01*
X196029456Y-196593328D02*
X195886599Y-196593328D01*
X195886599Y-196593328D02*
X195743742Y-196521900D01*
X195743742Y-196521900D02*
X195672313Y-196450471D01*
X195672313Y-196450471D02*
X195600884Y-196307614D01*
X195600884Y-196307614D02*
X195529456Y-196021900D01*
X195529456Y-196021900D02*
X195529456Y-195664757D01*
X195529456Y-195664757D02*
X195600884Y-195379042D01*
X195600884Y-195379042D02*
X195672313Y-195236185D01*
X195672313Y-195236185D02*
X195743742Y-195164757D01*
X195743742Y-195164757D02*
X195886599Y-195093328D01*
X197029455Y-196450471D02*
X197100884Y-196521900D01*
X197100884Y-196521900D02*
X197029455Y-196593328D01*
X197029455Y-196593328D02*
X196958027Y-196521900D01*
X196958027Y-196521900D02*
X197029455Y-196450471D01*
X197029455Y-196450471D02*
X197029455Y-196593328D01*
X198029456Y-195093328D02*
X198172313Y-195093328D01*
X198172313Y-195093328D02*
X198315170Y-195164757D01*
X198315170Y-195164757D02*
X198386599Y-195236185D01*
X198386599Y-195236185D02*
X198458027Y-195379042D01*
X198458027Y-195379042D02*
X198529456Y-195664757D01*
X198529456Y-195664757D02*
X198529456Y-196021900D01*
X198529456Y-196021900D02*
X198458027Y-196307614D01*
X198458027Y-196307614D02*
X198386599Y-196450471D01*
X198386599Y-196450471D02*
X198315170Y-196521900D01*
X198315170Y-196521900D02*
X198172313Y-196593328D01*
X198172313Y-196593328D02*
X198029456Y-196593328D01*
X198029456Y-196593328D02*
X197886599Y-196521900D01*
X197886599Y-196521900D02*
X197815170Y-196450471D01*
X197815170Y-196450471D02*
X197743741Y-196307614D01*
X197743741Y-196307614D02*
X197672313Y-196021900D01*
X197672313Y-196021900D02*
X197672313Y-195664757D01*
X197672313Y-195664757D02*
X197743741Y-195379042D01*
X197743741Y-195379042D02*
X197815170Y-195236185D01*
X197815170Y-195236185D02*
X197886599Y-195164757D01*
X197886599Y-195164757D02*
X198029456Y-195093328D01*
D10*
D11*
X177002200Y-191507200D02*
X285002200Y-191507200D01*
D10*
D12*
X264413853Y-193785528D02*
X263913853Y-193071242D01*
X263556710Y-193785528D02*
X263556710Y-192285528D01*
X263556710Y-192285528D02*
X264128139Y-192285528D01*
X264128139Y-192285528D02*
X264270996Y-192356957D01*
X264270996Y-192356957D02*
X264342425Y-192428385D01*
X264342425Y-192428385D02*
X264413853Y-192571242D01*
X264413853Y-192571242D02*
X264413853Y-192785528D01*
X264413853Y-192785528D02*
X264342425Y-192928385D01*
X264342425Y-192928385D02*
X264270996Y-192999814D01*
X264270996Y-192999814D02*
X264128139Y-193071242D01*
X264128139Y-193071242D02*
X263556710Y-193071242D01*
X265628139Y-193714100D02*
X265485282Y-193785528D01*
X265485282Y-193785528D02*
X265199568Y-193785528D01*
X265199568Y-193785528D02*
X265056710Y-193714100D01*
X265056710Y-193714100D02*
X264985282Y-193571242D01*
X264985282Y-193571242D02*
X264985282Y-192999814D01*
X264985282Y-192999814D02*
X265056710Y-192856957D01*
X265056710Y-192856957D02*
X265199568Y-192785528D01*
X265199568Y-192785528D02*
X265485282Y-192785528D01*
X265485282Y-192785528D02*
X265628139Y-192856957D01*
X265628139Y-192856957D02*
X265699568Y-192999814D01*
X265699568Y-192999814D02*
X265699568Y-193142671D01*
X265699568Y-193142671D02*
X264985282Y-193285528D01*
X266199567Y-192785528D02*
X266556710Y-193785528D01*
X266556710Y-193785528D02*
X266913853Y-192785528D01*
X267485281Y-193642671D02*
X267556710Y-193714100D01*
X267556710Y-193714100D02*
X267485281Y-193785528D01*
X267485281Y-193785528D02*
X267413853Y-193714100D01*
X267413853Y-193714100D02*
X267485281Y-193642671D01*
X267485281Y-193642671D02*
X267485281Y-193785528D01*
X267485281Y-192856957D02*
X267556710Y-192928385D01*
X267556710Y-192928385D02*
X267485281Y-192999814D01*
X267485281Y-192999814D02*
X267413853Y-192928385D01*
X267413853Y-192928385D02*
X267485281Y-192856957D01*
X267485281Y-192856957D02*
X267485281Y-192999814D01*
X270199567Y-193642671D02*
X270128139Y-193714100D01*
X270128139Y-193714100D02*
X269913853Y-193785528D01*
X269913853Y-193785528D02*
X269770996Y-193785528D01*
X269770996Y-193785528D02*
X269556710Y-193714100D01*
X269556710Y-193714100D02*
X269413853Y-193571242D01*
X269413853Y-193571242D02*
X269342424Y-193428385D01*
X269342424Y-193428385D02*
X269270996Y-193142671D01*
X269270996Y-193142671D02*
X269270996Y-192928385D01*
X269270996Y-192928385D02*
X269342424Y-192642671D01*
X269342424Y-192642671D02*
X269413853Y-192499814D01*
X269413853Y-192499814D02*
X269556710Y-192356957D01*
X269556710Y-192356957D02*
X269770996Y-192285528D01*
X269770996Y-192285528D02*
X269913853Y-192285528D01*
X269913853Y-192285528D02*
X270128139Y-192356957D01*
X270128139Y-192356957D02*
X270199567Y-192428385D01*
X270699567Y-192785528D02*
X271056710Y-193785528D01*
X271413853Y-192785528D02*
X271056710Y-193785528D01*
X271056710Y-193785528D02*
X270913853Y-194142671D01*
X270913853Y-194142671D02*
X270842424Y-194214100D01*
X270842424Y-194214100D02*
X270699567Y-194285528D01*
X271985281Y-193785528D02*
X271985281Y-192785528D01*
X271985281Y-193071242D02*
X272056710Y-192928385D01*
X272056710Y-192928385D02*
X272128139Y-192856957D01*
X272128139Y-192856957D02*
X272270996Y-192785528D01*
X272270996Y-192785528D02*
X272413853Y-192785528D01*
X272913852Y-193785528D02*
X272913852Y-192785528D01*
X272913852Y-192285528D02*
X272842424Y-192356957D01*
X272842424Y-192356957D02*
X272913852Y-192428385D01*
X272913852Y-192428385D02*
X272985281Y-192356957D01*
X272985281Y-192356957D02*
X272913852Y-192285528D01*
X272913852Y-192285528D02*
X272913852Y-192428385D01*
X273842424Y-193785528D02*
X273699567Y-193714100D01*
X273699567Y-193714100D02*
X273628138Y-193571242D01*
X273628138Y-193571242D02*
X273628138Y-192285528D01*
X274485281Y-193714100D02*
X274485281Y-193785528D01*
X274485281Y-193785528D02*
X274413852Y-193928385D01*
X274413852Y-193928385D02*
X274342424Y-193999814D01*
X276270995Y-192999814D02*
X276770995Y-192999814D01*
X276985281Y-193785528D02*
X276270995Y-193785528D01*
X276270995Y-193785528D02*
X276270995Y-192285528D01*
X276270995Y-192285528D02*
X276985281Y-192285528D01*
X277842424Y-193785528D02*
X277699567Y-193714100D01*
X277699567Y-193714100D02*
X277628138Y-193571242D01*
X277628138Y-193571242D02*
X277628138Y-192285528D01*
X278413852Y-193785528D02*
X278413852Y-192785528D01*
X278413852Y-192285528D02*
X278342424Y-192356957D01*
X278342424Y-192356957D02*
X278413852Y-192428385D01*
X278413852Y-192428385D02*
X278485281Y-192356957D01*
X278485281Y-192356957D02*
X278413852Y-192285528D01*
X278413852Y-192285528D02*
X278413852Y-192428385D01*
X279342424Y-193785528D02*
X279199567Y-193714100D01*
X279199567Y-193714100D02*
X279128138Y-193642671D01*
X279128138Y-193642671D02*
X279056710Y-193499814D01*
X279056710Y-193499814D02*
X279056710Y-193071242D01*
X279056710Y-193071242D02*
X279128138Y-192928385D01*
X279128138Y-192928385D02*
X279199567Y-192856957D01*
X279199567Y-192856957D02*
X279342424Y-192785528D01*
X279342424Y-192785528D02*
X279556710Y-192785528D01*
X279556710Y-192785528D02*
X279699567Y-192856957D01*
X279699567Y-192856957D02*
X279770996Y-192928385D01*
X279770996Y-192928385D02*
X279842424Y-193071242D01*
X279842424Y-193071242D02*
X279842424Y-193499814D01*
X279842424Y-193499814D02*
X279770996Y-193642671D01*
X279770996Y-193642671D02*
X279699567Y-193714100D01*
X279699567Y-193714100D02*
X279556710Y-193785528D01*
X279556710Y-193785528D02*
X279342424Y-193785528D01*
X280270996Y-192785528D02*
X280842424Y-192785528D01*
X280485281Y-192285528D02*
X280485281Y-193571242D01*
X280485281Y-193571242D02*
X280556710Y-193714100D01*
X280556710Y-193714100D02*
X280699567Y-193785528D01*
X280699567Y-193785528D02*
X280842424Y-193785528D01*
X281128139Y-192785528D02*
X281699567Y-192785528D01*
X281342424Y-192285528D02*
X281342424Y-193571242D01*
X281342424Y-193571242D02*
X281413853Y-193714100D01*
X281413853Y-193714100D02*
X281556710Y-193785528D01*
X281556710Y-193785528D02*
X281699567Y-193785528D01*
D10*
D11*
X178386598Y-193721900D02*
X178600884Y-193793328D01*
X178600884Y-193793328D02*
X178958026Y-193793328D01*
X178958026Y-193793328D02*
X179100884Y-193721900D01*
X179100884Y-193721900D02*
X179172312Y-193650471D01*
X179172312Y-193650471D02*
X179243741Y-193507614D01*
X179243741Y-193507614D02*
X179243741Y-193364757D01*
X179243741Y-193364757D02*
X179172312Y-193221900D01*
X179172312Y-193221900D02*
X179100884Y-193150471D01*
X179100884Y-193150471D02*
X178958026Y-193079042D01*
X178958026Y-193079042D02*
X178672312Y-193007614D01*
X178672312Y-193007614D02*
X178529455Y-192936185D01*
X178529455Y-192936185D02*
X178458026Y-192864757D01*
X178458026Y-192864757D02*
X178386598Y-192721900D01*
X178386598Y-192721900D02*
X178386598Y-192579042D01*
X178386598Y-192579042D02*
X178458026Y-192436185D01*
X178458026Y-192436185D02*
X178529455Y-192364757D01*
X178529455Y-192364757D02*
X178672312Y-192293328D01*
X178672312Y-192293328D02*
X179029455Y-192293328D01*
X179029455Y-192293328D02*
X179243741Y-192364757D01*
X179886597Y-193793328D02*
X179886597Y-192793328D01*
X179886597Y-192293328D02*
X179815169Y-192364757D01*
X179815169Y-192364757D02*
X179886597Y-192436185D01*
X179886597Y-192436185D02*
X179958026Y-192364757D01*
X179958026Y-192364757D02*
X179886597Y-192293328D01*
X179886597Y-192293328D02*
X179886597Y-192436185D01*
X180458026Y-192793328D02*
X181243741Y-192793328D01*
X181243741Y-192793328D02*
X180458026Y-193793328D01*
X180458026Y-193793328D02*
X181243741Y-193793328D01*
X182386598Y-193721900D02*
X182243741Y-193793328D01*
X182243741Y-193793328D02*
X181958027Y-193793328D01*
X181958027Y-193793328D02*
X181815169Y-193721900D01*
X181815169Y-193721900D02*
X181743741Y-193579042D01*
X181743741Y-193579042D02*
X181743741Y-193007614D01*
X181743741Y-193007614D02*
X181815169Y-192864757D01*
X181815169Y-192864757D02*
X181958027Y-192793328D01*
X181958027Y-192793328D02*
X182243741Y-192793328D01*
X182243741Y-192793328D02*
X182386598Y-192864757D01*
X182386598Y-192864757D02*
X182458027Y-193007614D01*
X182458027Y-193007614D02*
X182458027Y-193150471D01*
X182458027Y-193150471D02*
X181743741Y-193293328D01*
X183100883Y-193650471D02*
X183172312Y-193721900D01*
X183172312Y-193721900D02*
X183100883Y-193793328D01*
X183100883Y-193793328D02*
X183029455Y-193721900D01*
X183029455Y-193721900D02*
X183100883Y-193650471D01*
X183100883Y-193650471D02*
X183100883Y-193793328D01*
X183100883Y-192864757D02*
X183172312Y-192936185D01*
X183172312Y-192936185D02*
X183100883Y-193007614D01*
X183100883Y-193007614D02*
X183029455Y-192936185D01*
X183029455Y-192936185D02*
X183100883Y-192864757D01*
X183100883Y-192864757D02*
X183100883Y-193007614D01*
X184886598Y-193364757D02*
X185600884Y-193364757D01*
X184743741Y-193793328D02*
X185243741Y-192293328D01*
X185243741Y-192293328D02*
X185743741Y-193793328D01*
X186886598Y-192793328D02*
X186886598Y-193793328D01*
X186529455Y-192221900D02*
X186172312Y-193293328D01*
X186172312Y-193293328D02*
X187100883Y-193293328D01*
D10*
D11*
X263458026Y-196593328D02*
X263458026Y-195093328D01*
X264815170Y-196593328D02*
X264815170Y-195093328D01*
X264815170Y-196521900D02*
X264672312Y-196593328D01*
X264672312Y-196593328D02*
X264386598Y-196593328D01*
X264386598Y-196593328D02*
X264243741Y-196521900D01*
X264243741Y-196521900D02*
X264172312Y-196450471D01*
X264172312Y-196450471D02*
X264100884Y-196307614D01*
X264100884Y-196307614D02*
X264100884Y-195879042D01*
X264100884Y-195879042D02*
X264172312Y-195736185D01*
X264172312Y-195736185D02*
X264243741Y-195664757D01*
X264243741Y-195664757D02*
X264386598Y-195593328D01*
X264386598Y-195593328D02*
X264672312Y-195593328D01*
X264672312Y-195593328D02*
X264815170Y-195664757D01*
X265529455Y-196450471D02*
X265600884Y-196521900D01*
X265600884Y-196521900D02*
X265529455Y-196593328D01*
X265529455Y-196593328D02*
X265458027Y-196521900D01*
X265458027Y-196521900D02*
X265529455Y-196450471D01*
X265529455Y-196450471D02*
X265529455Y-196593328D01*
X265529455Y-195664757D02*
X265600884Y-195736185D01*
X265600884Y-195736185D02*
X265529455Y-195807614D01*
X265529455Y-195807614D02*
X265458027Y-195736185D01*
X265458027Y-195736185D02*
X265529455Y-195664757D01*
X265529455Y-195664757D02*
X265529455Y-195807614D01*
X268172313Y-196593328D02*
X267315170Y-196593328D01*
X267743741Y-196593328D02*
X267743741Y-195093328D01*
X267743741Y-195093328D02*
X267600884Y-195307614D01*
X267600884Y-195307614D02*
X267458027Y-195450471D01*
X267458027Y-195450471D02*
X267315170Y-195521900D01*
X269886598Y-195021900D02*
X268600884Y-196950471D01*
X271172313Y-196593328D02*
X270315170Y-196593328D01*
X270743741Y-196593328D02*
X270743741Y-195093328D01*
X270743741Y-195093328D02*
X270600884Y-195307614D01*
X270600884Y-195307614D02*
X270458027Y-195450471D01*
X270458027Y-195450471D02*
X270315170Y-195521900D01*
D10*
D11*
X177002200Y-187507200D02*
X285002200Y-187507200D01*
D10*
D13*
X178693928Y-188211638D02*
X179836785Y-188211638D01*
X179015357Y-190211638D02*
X179265357Y-188211638D01*
X180253452Y-190211638D02*
X180420119Y-188878304D01*
X180503452Y-188211638D02*
X180396309Y-188306876D01*
X180396309Y-188306876D02*
X180479643Y-188402114D01*
X180479643Y-188402114D02*
X180586786Y-188306876D01*
X180586786Y-188306876D02*
X180503452Y-188211638D01*
X180503452Y-188211638D02*
X180479643Y-188402114D01*
X181086786Y-188878304D02*
X181848690Y-188878304D01*
X181455833Y-188211638D02*
X181241548Y-189925923D01*
X181241548Y-189925923D02*
X181312976Y-190116400D01*
X181312976Y-190116400D02*
X181491548Y-190211638D01*
X181491548Y-190211638D02*
X181682024Y-190211638D01*
X182634405Y-190211638D02*
X182455833Y-190116400D01*
X182455833Y-190116400D02*
X182384405Y-189925923D01*
X182384405Y-189925923D02*
X182598690Y-188211638D01*
X184170119Y-190116400D02*
X183967738Y-190211638D01*
X183967738Y-190211638D02*
X183586785Y-190211638D01*
X183586785Y-190211638D02*
X183408214Y-190116400D01*
X183408214Y-190116400D02*
X183336785Y-189925923D01*
X183336785Y-189925923D02*
X183432024Y-189164019D01*
X183432024Y-189164019D02*
X183551071Y-188973542D01*
X183551071Y-188973542D02*
X183753452Y-188878304D01*
X183753452Y-188878304D02*
X184134404Y-188878304D01*
X184134404Y-188878304D02*
X184312976Y-188973542D01*
X184312976Y-188973542D02*
X184384404Y-189164019D01*
X184384404Y-189164019D02*
X184360595Y-189354495D01*
X184360595Y-189354495D02*
X183384404Y-189544971D01*
X185134405Y-190021161D02*
X185217738Y-190116400D01*
X185217738Y-190116400D02*
X185110595Y-190211638D01*
X185110595Y-190211638D02*
X185027262Y-190116400D01*
X185027262Y-190116400D02*
X185134405Y-190021161D01*
X185134405Y-190021161D02*
X185110595Y-190211638D01*
X185265357Y-188973542D02*
X185348690Y-189068780D01*
X185348690Y-189068780D02*
X185241548Y-189164019D01*
X185241548Y-189164019D02*
X185158214Y-189068780D01*
X185158214Y-189068780D02*
X185265357Y-188973542D01*
X185265357Y-188973542D02*
X185241548Y-189164019D01*
X188753453Y-190021161D02*
X188646310Y-190116400D01*
X188646310Y-190116400D02*
X188348691Y-190211638D01*
X188348691Y-190211638D02*
X188158215Y-190211638D01*
X188158215Y-190211638D02*
X187884405Y-190116400D01*
X187884405Y-190116400D02*
X187717739Y-189925923D01*
X187717739Y-189925923D02*
X187646310Y-189735447D01*
X187646310Y-189735447D02*
X187598691Y-189354495D01*
X187598691Y-189354495D02*
X187634405Y-189068780D01*
X187634405Y-189068780D02*
X187777262Y-188687828D01*
X187777262Y-188687828D02*
X187896310Y-188497352D01*
X187896310Y-188497352D02*
X188110596Y-188306876D01*
X188110596Y-188306876D02*
X188408215Y-188211638D01*
X188408215Y-188211638D02*
X188598691Y-188211638D01*
X188598691Y-188211638D02*
X188872501Y-188306876D01*
X188872501Y-188306876D02*
X188955834Y-188402114D01*
X190443929Y-190211638D02*
X190574881Y-189164019D01*
X190574881Y-189164019D02*
X190503453Y-188973542D01*
X190503453Y-188973542D02*
X190324881Y-188878304D01*
X190324881Y-188878304D02*
X189943929Y-188878304D01*
X189943929Y-188878304D02*
X189741548Y-188973542D01*
X190455834Y-190116400D02*
X190253453Y-190211638D01*
X190253453Y-190211638D02*
X189777262Y-190211638D01*
X189777262Y-190211638D02*
X189598691Y-190116400D01*
X189598691Y-190116400D02*
X189527262Y-189925923D01*
X189527262Y-189925923D02*
X189551072Y-189735447D01*
X189551072Y-189735447D02*
X189670120Y-189544971D01*
X189670120Y-189544971D02*
X189872501Y-189449733D01*
X189872501Y-189449733D02*
X190348691Y-189449733D01*
X190348691Y-189449733D02*
X190551072Y-189354495D01*
X191396310Y-190211638D02*
X191562977Y-188878304D01*
X191515358Y-189259257D02*
X191634405Y-189068780D01*
X191634405Y-189068780D02*
X191741548Y-188973542D01*
X191741548Y-188973542D02*
X191943929Y-188878304D01*
X191943929Y-188878304D02*
X192134405Y-188878304D01*
X192515358Y-188878304D02*
X193277262Y-188878304D01*
X192884405Y-188211638D02*
X192670120Y-189925923D01*
X192670120Y-189925923D02*
X192741548Y-190116400D01*
X192741548Y-190116400D02*
X192920120Y-190211638D01*
X192920120Y-190211638D02*
X193110596Y-190211638D01*
X194551072Y-190116400D02*
X194348691Y-190211638D01*
X194348691Y-190211638D02*
X193967738Y-190211638D01*
X193967738Y-190211638D02*
X193789167Y-190116400D01*
X193789167Y-190116400D02*
X193717738Y-189925923D01*
X193717738Y-189925923D02*
X193812977Y-189164019D01*
X193812977Y-189164019D02*
X193932024Y-188973542D01*
X193932024Y-188973542D02*
X194134405Y-188878304D01*
X194134405Y-188878304D02*
X194515357Y-188878304D01*
X194515357Y-188878304D02*
X194693929Y-188973542D01*
X194693929Y-188973542D02*
X194765357Y-189164019D01*
X194765357Y-189164019D02*
X194741548Y-189354495D01*
X194741548Y-189354495D02*
X193765357Y-189544971D01*
X197872501Y-190211638D02*
X198122501Y-188211638D01*
X197884406Y-190116400D02*
X197682025Y-190211638D01*
X197682025Y-190211638D02*
X197301073Y-190211638D01*
X197301073Y-190211638D02*
X197122501Y-190116400D01*
X197122501Y-190116400D02*
X197039168Y-190021161D01*
X197039168Y-190021161D02*
X196967739Y-189830685D01*
X196967739Y-189830685D02*
X197039168Y-189259257D01*
X197039168Y-189259257D02*
X197158215Y-189068780D01*
X197158215Y-189068780D02*
X197265358Y-188973542D01*
X197265358Y-188973542D02*
X197467739Y-188878304D01*
X197467739Y-188878304D02*
X197848692Y-188878304D01*
X197848692Y-188878304D02*
X198027263Y-188973542D01*
X199170120Y-188211638D02*
X198932025Y-188592590D01*
X200634406Y-190211638D02*
X200765358Y-189164019D01*
X200765358Y-189164019D02*
X200693930Y-188973542D01*
X200693930Y-188973542D02*
X200515358Y-188878304D01*
X200515358Y-188878304D02*
X200134406Y-188878304D01*
X200134406Y-188878304D02*
X199932025Y-188973542D01*
X200646311Y-190116400D02*
X200443930Y-190211638D01*
X200443930Y-190211638D02*
X199967739Y-190211638D01*
X199967739Y-190211638D02*
X199789168Y-190116400D01*
X199789168Y-190116400D02*
X199717739Y-189925923D01*
X199717739Y-189925923D02*
X199741549Y-189735447D01*
X199741549Y-189735447D02*
X199860597Y-189544971D01*
X199860597Y-189544971D02*
X200062978Y-189449733D01*
X200062978Y-189449733D02*
X200539168Y-189449733D01*
X200539168Y-189449733D02*
X200741549Y-189354495D01*
X201872502Y-190211638D02*
X201693930Y-190116400D01*
X201693930Y-190116400D02*
X201622502Y-189925923D01*
X201622502Y-189925923D02*
X201836787Y-188211638D01*
X202634406Y-190211638D02*
X202801073Y-188878304D01*
X202884406Y-188211638D02*
X202777263Y-188306876D01*
X202777263Y-188306876D02*
X202860597Y-188402114D01*
X202860597Y-188402114D02*
X202967740Y-188306876D01*
X202967740Y-188306876D02*
X202884406Y-188211638D01*
X202884406Y-188211638D02*
X202860597Y-188402114D01*
X203586787Y-190211638D02*
X203753454Y-188878304D01*
X203729644Y-189068780D02*
X203836787Y-188973542D01*
X203836787Y-188973542D02*
X204039168Y-188878304D01*
X204039168Y-188878304D02*
X204324882Y-188878304D01*
X204324882Y-188878304D02*
X204503454Y-188973542D01*
X204503454Y-188973542D02*
X204574882Y-189164019D01*
X204574882Y-189164019D02*
X204443930Y-190211638D01*
X204574882Y-189164019D02*
X204693930Y-188973542D01*
X204693930Y-188973542D02*
X204896311Y-188878304D01*
X204896311Y-188878304D02*
X205182025Y-188878304D01*
X205182025Y-188878304D02*
X205360597Y-188973542D01*
X205360597Y-188973542D02*
X205432025Y-189164019D01*
X205432025Y-189164019D02*
X205301073Y-190211638D01*
X207027264Y-190116400D02*
X206824883Y-190211638D01*
X206824883Y-190211638D02*
X206443930Y-190211638D01*
X206443930Y-190211638D02*
X206265359Y-190116400D01*
X206265359Y-190116400D02*
X206193930Y-189925923D01*
X206193930Y-189925923D02*
X206289169Y-189164019D01*
X206289169Y-189164019D02*
X206408216Y-188973542D01*
X206408216Y-188973542D02*
X206610597Y-188878304D01*
X206610597Y-188878304D02*
X206991549Y-188878304D01*
X206991549Y-188878304D02*
X207170121Y-188973542D01*
X207170121Y-188973542D02*
X207241549Y-189164019D01*
X207241549Y-189164019D02*
X207217740Y-189354495D01*
X207217740Y-189354495D02*
X206241549Y-189544971D01*
X208134407Y-188878304D02*
X207967740Y-190211638D01*
X208110597Y-189068780D02*
X208217740Y-188973542D01*
X208217740Y-188973542D02*
X208420121Y-188878304D01*
X208420121Y-188878304D02*
X208705835Y-188878304D01*
X208705835Y-188878304D02*
X208884407Y-188973542D01*
X208884407Y-188973542D02*
X208955835Y-189164019D01*
X208955835Y-189164019D02*
X208824883Y-190211638D01*
X209658217Y-188878304D02*
X210420121Y-188878304D01*
X210027264Y-188211638D02*
X209812979Y-189925923D01*
X209812979Y-189925923D02*
X209884407Y-190116400D01*
X209884407Y-190116400D02*
X210062979Y-190211638D01*
X210062979Y-190211638D02*
X210253455Y-190211638D01*
X211777264Y-190211638D02*
X211908216Y-189164019D01*
X211908216Y-189164019D02*
X211836788Y-188973542D01*
X211836788Y-188973542D02*
X211658216Y-188878304D01*
X211658216Y-188878304D02*
X211277264Y-188878304D01*
X211277264Y-188878304D02*
X211074883Y-188973542D01*
X211789169Y-190116400D02*
X211586788Y-190211638D01*
X211586788Y-190211638D02*
X211110597Y-190211638D01*
X211110597Y-190211638D02*
X210932026Y-190116400D01*
X210932026Y-190116400D02*
X210860597Y-189925923D01*
X210860597Y-189925923D02*
X210884407Y-189735447D01*
X210884407Y-189735447D02*
X211003455Y-189544971D01*
X211003455Y-189544971D02*
X211205836Y-189449733D01*
X211205836Y-189449733D02*
X211682026Y-189449733D01*
X211682026Y-189449733D02*
X211884407Y-189354495D01*
X212610598Y-188878304D02*
X213372502Y-188878304D01*
X212979645Y-188211638D02*
X212765360Y-189925923D01*
X212765360Y-189925923D02*
X212836788Y-190116400D01*
X212836788Y-190116400D02*
X213015360Y-190211638D01*
X213015360Y-190211638D02*
X213205836Y-190211638D01*
X213872502Y-190211638D02*
X214039169Y-188878304D01*
X214122502Y-188211638D02*
X214015359Y-188306876D01*
X214015359Y-188306876D02*
X214098693Y-188402114D01*
X214098693Y-188402114D02*
X214205836Y-188306876D01*
X214205836Y-188306876D02*
X214122502Y-188211638D01*
X214122502Y-188211638D02*
X214098693Y-188402114D01*
X215110598Y-190211638D02*
X214932026Y-190116400D01*
X214932026Y-190116400D02*
X214848693Y-190021161D01*
X214848693Y-190021161D02*
X214777264Y-189830685D01*
X214777264Y-189830685D02*
X214848693Y-189259257D01*
X214848693Y-189259257D02*
X214967740Y-189068780D01*
X214967740Y-189068780D02*
X215074883Y-188973542D01*
X215074883Y-188973542D02*
X215277264Y-188878304D01*
X215277264Y-188878304D02*
X215562978Y-188878304D01*
X215562978Y-188878304D02*
X215741550Y-188973542D01*
X215741550Y-188973542D02*
X215824883Y-189068780D01*
X215824883Y-189068780D02*
X215896312Y-189259257D01*
X215896312Y-189259257D02*
X215824883Y-189830685D01*
X215824883Y-189830685D02*
X215705836Y-190021161D01*
X215705836Y-190021161D02*
X215598693Y-190116400D01*
X215598693Y-190116400D02*
X215396312Y-190211638D01*
X215396312Y-190211638D02*
X215110598Y-190211638D01*
X216801074Y-188878304D02*
X216634407Y-190211638D01*
X216777264Y-189068780D02*
X216884407Y-188973542D01*
X216884407Y-188973542D02*
X217086788Y-188878304D01*
X217086788Y-188878304D02*
X217372502Y-188878304D01*
X217372502Y-188878304D02*
X217551074Y-188973542D01*
X217551074Y-188973542D02*
X217622502Y-189164019D01*
X217622502Y-189164019D02*
X217491550Y-190211638D01*
X220098694Y-188402114D02*
X220205836Y-188306876D01*
X220205836Y-188306876D02*
X220408217Y-188211638D01*
X220408217Y-188211638D02*
X220884408Y-188211638D01*
X220884408Y-188211638D02*
X221062979Y-188306876D01*
X221062979Y-188306876D02*
X221146313Y-188402114D01*
X221146313Y-188402114D02*
X221217741Y-188592590D01*
X221217741Y-188592590D02*
X221193932Y-188783066D01*
X221193932Y-188783066D02*
X221062979Y-189068780D01*
X221062979Y-189068780D02*
X219777265Y-190211638D01*
X219777265Y-190211638D02*
X221015360Y-190211638D01*
X222503456Y-188211638D02*
X222693932Y-188211638D01*
X222693932Y-188211638D02*
X222872503Y-188306876D01*
X222872503Y-188306876D02*
X222955837Y-188402114D01*
X222955837Y-188402114D02*
X223027265Y-188592590D01*
X223027265Y-188592590D02*
X223074884Y-188973542D01*
X223074884Y-188973542D02*
X223015360Y-189449733D01*
X223015360Y-189449733D02*
X222872503Y-189830685D01*
X222872503Y-189830685D02*
X222753456Y-190021161D01*
X222753456Y-190021161D02*
X222646313Y-190116400D01*
X222646313Y-190116400D02*
X222443932Y-190211638D01*
X222443932Y-190211638D02*
X222253456Y-190211638D01*
X222253456Y-190211638D02*
X222074884Y-190116400D01*
X222074884Y-190116400D02*
X221991551Y-190021161D01*
X221991551Y-190021161D02*
X221920122Y-189830685D01*
X221920122Y-189830685D02*
X221872503Y-189449733D01*
X221872503Y-189449733D02*
X221932027Y-188973542D01*
X221932027Y-188973542D02*
X222074884Y-188592590D01*
X222074884Y-188592590D02*
X222193932Y-188402114D01*
X222193932Y-188402114D02*
X222301075Y-188306876D01*
X222301075Y-188306876D02*
X222503456Y-188211638D01*
X223908218Y-188402114D02*
X224015360Y-188306876D01*
X224015360Y-188306876D02*
X224217741Y-188211638D01*
X224217741Y-188211638D02*
X224693932Y-188211638D01*
X224693932Y-188211638D02*
X224872503Y-188306876D01*
X224872503Y-188306876D02*
X224955837Y-188402114D01*
X224955837Y-188402114D02*
X225027265Y-188592590D01*
X225027265Y-188592590D02*
X225003456Y-188783066D01*
X225003456Y-188783066D02*
X224872503Y-189068780D01*
X224872503Y-189068780D02*
X223586789Y-190211638D01*
X223586789Y-190211638D02*
X224824884Y-190211638D01*
X226705837Y-188878304D02*
X226539170Y-190211638D01*
X226324884Y-188116400D02*
X225670122Y-189544971D01*
X225670122Y-189544971D02*
X226908218Y-189544971D01*
D10*
D11*
X178958026Y-185607614D02*
X178458026Y-185607614D01*
X178458026Y-186393328D02*
X178458026Y-184893328D01*
X178458026Y-184893328D02*
X179172312Y-184893328D01*
X179743740Y-186393328D02*
X179743740Y-185393328D01*
X179743740Y-184893328D02*
X179672312Y-184964757D01*
X179672312Y-184964757D02*
X179743740Y-185036185D01*
X179743740Y-185036185D02*
X179815169Y-184964757D01*
X179815169Y-184964757D02*
X179743740Y-184893328D01*
X179743740Y-184893328D02*
X179743740Y-185036185D01*
X180672312Y-186393328D02*
X180529455Y-186321900D01*
X180529455Y-186321900D02*
X180458026Y-186179042D01*
X180458026Y-186179042D02*
X180458026Y-184893328D01*
X181815169Y-186321900D02*
X181672312Y-186393328D01*
X181672312Y-186393328D02*
X181386598Y-186393328D01*
X181386598Y-186393328D02*
X181243740Y-186321900D01*
X181243740Y-186321900D02*
X181172312Y-186179042D01*
X181172312Y-186179042D02*
X181172312Y-185607614D01*
X181172312Y-185607614D02*
X181243740Y-185464757D01*
X181243740Y-185464757D02*
X181386598Y-185393328D01*
X181386598Y-185393328D02*
X181672312Y-185393328D01*
X181672312Y-185393328D02*
X181815169Y-185464757D01*
X181815169Y-185464757D02*
X181886598Y-185607614D01*
X181886598Y-185607614D02*
X181886598Y-185750471D01*
X181886598Y-185750471D02*
X181172312Y-185893328D01*
X182529454Y-186250471D02*
X182600883Y-186321900D01*
X182600883Y-186321900D02*
X182529454Y-186393328D01*
X182529454Y-186393328D02*
X182458026Y-186321900D01*
X182458026Y-186321900D02*
X182529454Y-186250471D01*
X182529454Y-186250471D02*
X182529454Y-186393328D01*
X182529454Y-185464757D02*
X182600883Y-185536185D01*
X182600883Y-185536185D02*
X182529454Y-185607614D01*
X182529454Y-185607614D02*
X182458026Y-185536185D01*
X182458026Y-185536185D02*
X182529454Y-185464757D01*
X182529454Y-185464757D02*
X182529454Y-185607614D01*
X184386597Y-185393328D02*
X184386597Y-186893328D01*
X184386597Y-185464757D02*
X184529455Y-185393328D01*
X184529455Y-185393328D02*
X184815169Y-185393328D01*
X184815169Y-185393328D02*
X184958026Y-185464757D01*
X184958026Y-185464757D02*
X185029455Y-185536185D01*
X185029455Y-185536185D02*
X185100883Y-185679042D01*
X185100883Y-185679042D02*
X185100883Y-186107614D01*
X185100883Y-186107614D02*
X185029455Y-186250471D01*
X185029455Y-186250471D02*
X184958026Y-186321900D01*
X184958026Y-186321900D02*
X184815169Y-186393328D01*
X184815169Y-186393328D02*
X184529455Y-186393328D01*
X184529455Y-186393328D02*
X184386597Y-186321900D01*
X185958026Y-186393328D02*
X185815169Y-186321900D01*
X185815169Y-186321900D02*
X185743740Y-186250471D01*
X185743740Y-186250471D02*
X185672312Y-186107614D01*
X185672312Y-186107614D02*
X185672312Y-185679042D01*
X185672312Y-185679042D02*
X185743740Y-185536185D01*
X185743740Y-185536185D02*
X185815169Y-185464757D01*
X185815169Y-185464757D02*
X185958026Y-185393328D01*
X185958026Y-185393328D02*
X186172312Y-185393328D01*
X186172312Y-185393328D02*
X186315169Y-185464757D01*
X186315169Y-185464757D02*
X186386598Y-185536185D01*
X186386598Y-185536185D02*
X186458026Y-185679042D01*
X186458026Y-185679042D02*
X186458026Y-186107614D01*
X186458026Y-186107614D02*
X186386598Y-186250471D01*
X186386598Y-186250471D02*
X186315169Y-186321900D01*
X186315169Y-186321900D02*
X186172312Y-186393328D01*
X186172312Y-186393328D02*
X185958026Y-186393328D01*
X186958026Y-185393328D02*
X187243741Y-186393328D01*
X187243741Y-186393328D02*
X187529455Y-185679042D01*
X187529455Y-185679042D02*
X187815169Y-186393328D01*
X187815169Y-186393328D02*
X188100883Y-185393328D01*
X189243741Y-186321900D02*
X189100884Y-186393328D01*
X189100884Y-186393328D02*
X188815170Y-186393328D01*
X188815170Y-186393328D02*
X188672312Y-186321900D01*
X188672312Y-186321900D02*
X188600884Y-186179042D01*
X188600884Y-186179042D02*
X188600884Y-185607614D01*
X188600884Y-185607614D02*
X188672312Y-185464757D01*
X188672312Y-185464757D02*
X188815170Y-185393328D01*
X188815170Y-185393328D02*
X189100884Y-185393328D01*
X189100884Y-185393328D02*
X189243741Y-185464757D01*
X189243741Y-185464757D02*
X189315170Y-185607614D01*
X189315170Y-185607614D02*
X189315170Y-185750471D01*
X189315170Y-185750471D02*
X188600884Y-185893328D01*
X189958026Y-186393328D02*
X189958026Y-185393328D01*
X189958026Y-185679042D02*
X190029455Y-185536185D01*
X190029455Y-185536185D02*
X190100884Y-185464757D01*
X190100884Y-185464757D02*
X190243741Y-185393328D01*
X190243741Y-185393328D02*
X190386598Y-185393328D01*
X190529455Y-186536185D02*
X191672312Y-186536185D01*
X191958026Y-186321900D02*
X192100883Y-186393328D01*
X192100883Y-186393328D02*
X192386597Y-186393328D01*
X192386597Y-186393328D02*
X192529454Y-186321900D01*
X192529454Y-186321900D02*
X192600883Y-186179042D01*
X192600883Y-186179042D02*
X192600883Y-186107614D01*
X192600883Y-186107614D02*
X192529454Y-185964757D01*
X192529454Y-185964757D02*
X192386597Y-185893328D01*
X192386597Y-185893328D02*
X192172312Y-185893328D01*
X192172312Y-185893328D02*
X192029454Y-185821900D01*
X192029454Y-185821900D02*
X191958026Y-185679042D01*
X191958026Y-185679042D02*
X191958026Y-185607614D01*
X191958026Y-185607614D02*
X192029454Y-185464757D01*
X192029454Y-185464757D02*
X192172312Y-185393328D01*
X192172312Y-185393328D02*
X192386597Y-185393328D01*
X192386597Y-185393328D02*
X192529454Y-185464757D01*
X193886598Y-185393328D02*
X193886598Y-186393328D01*
X193243740Y-185393328D02*
X193243740Y-186179042D01*
X193243740Y-186179042D02*
X193315169Y-186321900D01*
X193315169Y-186321900D02*
X193458026Y-186393328D01*
X193458026Y-186393328D02*
X193672312Y-186393328D01*
X193672312Y-186393328D02*
X193815169Y-186321900D01*
X193815169Y-186321900D02*
X193886598Y-186250471D01*
X194600883Y-185393328D02*
X194600883Y-186893328D01*
X194600883Y-185464757D02*
X194743741Y-185393328D01*
X194743741Y-185393328D02*
X195029455Y-185393328D01*
X195029455Y-185393328D02*
X195172312Y-185464757D01*
X195172312Y-185464757D02*
X195243741Y-185536185D01*
X195243741Y-185536185D02*
X195315169Y-185679042D01*
X195315169Y-185679042D02*
X195315169Y-186107614D01*
X195315169Y-186107614D02*
X195243741Y-186250471D01*
X195243741Y-186250471D02*
X195172312Y-186321900D01*
X195172312Y-186321900D02*
X195029455Y-186393328D01*
X195029455Y-186393328D02*
X194743741Y-186393328D01*
X194743741Y-186393328D02*
X194600883Y-186321900D01*
X195958026Y-185393328D02*
X195958026Y-186893328D01*
X195958026Y-185464757D02*
X196100884Y-185393328D01*
X196100884Y-185393328D02*
X196386598Y-185393328D01*
X196386598Y-185393328D02*
X196529455Y-185464757D01*
X196529455Y-185464757D02*
X196600884Y-185536185D01*
X196600884Y-185536185D02*
X196672312Y-185679042D01*
X196672312Y-185679042D02*
X196672312Y-186107614D01*
X196672312Y-186107614D02*
X196600884Y-186250471D01*
X196600884Y-186250471D02*
X196529455Y-186321900D01*
X196529455Y-186321900D02*
X196386598Y-186393328D01*
X196386598Y-186393328D02*
X196100884Y-186393328D01*
X196100884Y-186393328D02*
X195958026Y-186321900D01*
X197529455Y-186393328D02*
X197386598Y-186321900D01*
X197386598Y-186321900D02*
X197315169Y-186179042D01*
X197315169Y-186179042D02*
X197315169Y-184893328D01*
X197958026Y-185393328D02*
X198315169Y-186393328D01*
X198672312Y-185393328D02*
X198315169Y-186393328D01*
X198315169Y-186393328D02*
X198172312Y-186750471D01*
X198172312Y-186750471D02*
X198100883Y-186821900D01*
X198100883Y-186821900D02*
X197958026Y-186893328D01*
X198886598Y-186536185D02*
X200029455Y-186536185D01*
X201100883Y-184893328D02*
X200386597Y-184893328D01*
X200386597Y-184893328D02*
X200315169Y-185607614D01*
X200315169Y-185607614D02*
X200386597Y-185536185D01*
X200386597Y-185536185D02*
X200529455Y-185464757D01*
X200529455Y-185464757D02*
X200886597Y-185464757D01*
X200886597Y-185464757D02*
X201029455Y-185536185D01*
X201029455Y-185536185D02*
X201100883Y-185607614D01*
X201100883Y-185607614D02*
X201172312Y-185750471D01*
X201172312Y-185750471D02*
X201172312Y-186107614D01*
X201172312Y-186107614D02*
X201100883Y-186250471D01*
X201100883Y-186250471D02*
X201029455Y-186321900D01*
X201029455Y-186321900D02*
X200886597Y-186393328D01*
X200886597Y-186393328D02*
X200529455Y-186393328D01*
X200529455Y-186393328D02*
X200386597Y-186321900D01*
X200386597Y-186321900D02*
X200315169Y-186250471D01*
X201600883Y-184893328D02*
X202100883Y-186393328D01*
X202100883Y-186393328D02*
X202600883Y-184893328D01*
X203100882Y-186250471D02*
X203172311Y-186321900D01*
X203172311Y-186321900D02*
X203100882Y-186393328D01*
X203100882Y-186393328D02*
X203029454Y-186321900D01*
X203029454Y-186321900D02*
X203100882Y-186250471D01*
X203100882Y-186250471D02*
X203100882Y-186393328D01*
X203815168Y-186393328D02*
X203815168Y-184893328D01*
X203958026Y-185821900D02*
X204386597Y-186393328D01*
X204386597Y-185393328D02*
X203815168Y-185964757D01*
X205029454Y-186393328D02*
X205029454Y-185393328D01*
X205029454Y-184893328D02*
X204958026Y-184964757D01*
X204958026Y-184964757D02*
X205029454Y-185036185D01*
X205029454Y-185036185D02*
X205100883Y-184964757D01*
X205100883Y-184964757D02*
X205029454Y-184893328D01*
X205029454Y-184893328D02*
X205029454Y-185036185D01*
X206386598Y-186321900D02*
X206243740Y-186393328D01*
X206243740Y-186393328D02*
X205958026Y-186393328D01*
X205958026Y-186393328D02*
X205815169Y-186321900D01*
X205815169Y-186321900D02*
X205743740Y-186250471D01*
X205743740Y-186250471D02*
X205672312Y-186107614D01*
X205672312Y-186107614D02*
X205672312Y-185679042D01*
X205672312Y-185679042D02*
X205743740Y-185536185D01*
X205743740Y-185536185D02*
X205815169Y-185464757D01*
X205815169Y-185464757D02*
X205958026Y-185393328D01*
X205958026Y-185393328D02*
X206243740Y-185393328D01*
X206243740Y-185393328D02*
X206386598Y-185464757D01*
X207672312Y-186393328D02*
X207672312Y-185607614D01*
X207672312Y-185607614D02*
X207600883Y-185464757D01*
X207600883Y-185464757D02*
X207458026Y-185393328D01*
X207458026Y-185393328D02*
X207172312Y-185393328D01*
X207172312Y-185393328D02*
X207029454Y-185464757D01*
X207672312Y-186321900D02*
X207529454Y-186393328D01*
X207529454Y-186393328D02*
X207172312Y-186393328D01*
X207172312Y-186393328D02*
X207029454Y-186321900D01*
X207029454Y-186321900D02*
X206958026Y-186179042D01*
X206958026Y-186179042D02*
X206958026Y-186036185D01*
X206958026Y-186036185D02*
X207029454Y-185893328D01*
X207029454Y-185893328D02*
X207172312Y-185821900D01*
X207172312Y-185821900D02*
X207529454Y-185821900D01*
X207529454Y-185821900D02*
X207672312Y-185750471D01*
X209029455Y-186393328D02*
X209029455Y-184893328D01*
X209029455Y-186321900D02*
X208886597Y-186393328D01*
X208886597Y-186393328D02*
X208600883Y-186393328D01*
X208600883Y-186393328D02*
X208458026Y-186321900D01*
X208458026Y-186321900D02*
X208386597Y-186250471D01*
X208386597Y-186250471D02*
X208315169Y-186107614D01*
X208315169Y-186107614D02*
X208315169Y-185679042D01*
X208315169Y-185679042D02*
X208386597Y-185536185D01*
X208386597Y-185536185D02*
X208458026Y-185464757D01*
X208458026Y-185464757D02*
X208600883Y-185393328D01*
X208600883Y-185393328D02*
X208886597Y-185393328D01*
X208886597Y-185393328D02*
X209029455Y-185464757D01*
X209386598Y-186536185D02*
X210529455Y-186536185D01*
X210886597Y-185393328D02*
X210886597Y-186893328D01*
X210886597Y-185464757D02*
X211029455Y-185393328D01*
X211029455Y-185393328D02*
X211315169Y-185393328D01*
X211315169Y-185393328D02*
X211458026Y-185464757D01*
X211458026Y-185464757D02*
X211529455Y-185536185D01*
X211529455Y-185536185D02*
X211600883Y-185679042D01*
X211600883Y-185679042D02*
X211600883Y-186107614D01*
X211600883Y-186107614D02*
X211529455Y-186250471D01*
X211529455Y-186250471D02*
X211458026Y-186321900D01*
X211458026Y-186321900D02*
X211315169Y-186393328D01*
X211315169Y-186393328D02*
X211029455Y-186393328D01*
X211029455Y-186393328D02*
X210886597Y-186321900D01*
X212886598Y-186321900D02*
X212743740Y-186393328D01*
X212743740Y-186393328D02*
X212458026Y-186393328D01*
X212458026Y-186393328D02*
X212315169Y-186321900D01*
X212315169Y-186321900D02*
X212243740Y-186250471D01*
X212243740Y-186250471D02*
X212172312Y-186107614D01*
X212172312Y-186107614D02*
X212172312Y-185679042D01*
X212172312Y-185679042D02*
X212243740Y-185536185D01*
X212243740Y-185536185D02*
X212315169Y-185464757D01*
X212315169Y-185464757D02*
X212458026Y-185393328D01*
X212458026Y-185393328D02*
X212743740Y-185393328D01*
X212743740Y-185393328D02*
X212886598Y-185464757D01*
X213529454Y-186393328D02*
X213529454Y-184893328D01*
X213529454Y-185464757D02*
X213672312Y-185393328D01*
X213672312Y-185393328D02*
X213958026Y-185393328D01*
X213958026Y-185393328D02*
X214100883Y-185464757D01*
X214100883Y-185464757D02*
X214172312Y-185536185D01*
X214172312Y-185536185D02*
X214243740Y-185679042D01*
X214243740Y-185679042D02*
X214243740Y-186107614D01*
X214243740Y-186107614D02*
X214172312Y-186250471D01*
X214172312Y-186250471D02*
X214100883Y-186321900D01*
X214100883Y-186321900D02*
X213958026Y-186393328D01*
X213958026Y-186393328D02*
X213672312Y-186393328D01*
X213672312Y-186393328D02*
X213529454Y-186321900D01*
D10*
D11*
X177002200Y-181507200D02*
X285002200Y-181507200D01*
D10*
D11*
X178386598Y-183621900D02*
X178600884Y-183693328D01*
X178600884Y-183693328D02*
X178958026Y-183693328D01*
X178958026Y-183693328D02*
X179100884Y-183621900D01*
X179100884Y-183621900D02*
X179172312Y-183550471D01*
X179172312Y-183550471D02*
X179243741Y-183407614D01*
X179243741Y-183407614D02*
X179243741Y-183264757D01*
X179243741Y-183264757D02*
X179172312Y-183121900D01*
X179172312Y-183121900D02*
X179100884Y-183050471D01*
X179100884Y-183050471D02*
X178958026Y-182979042D01*
X178958026Y-182979042D02*
X178672312Y-182907614D01*
X178672312Y-182907614D02*
X178529455Y-182836185D01*
X178529455Y-182836185D02*
X178458026Y-182764757D01*
X178458026Y-182764757D02*
X178386598Y-182621900D01*
X178386598Y-182621900D02*
X178386598Y-182479042D01*
X178386598Y-182479042D02*
X178458026Y-182336185D01*
X178458026Y-182336185D02*
X178529455Y-182264757D01*
X178529455Y-182264757D02*
X178672312Y-182193328D01*
X178672312Y-182193328D02*
X179029455Y-182193328D01*
X179029455Y-182193328D02*
X179243741Y-182264757D01*
X179886597Y-183693328D02*
X179886597Y-182193328D01*
X180529455Y-183693328D02*
X180529455Y-182907614D01*
X180529455Y-182907614D02*
X180458026Y-182764757D01*
X180458026Y-182764757D02*
X180315169Y-182693328D01*
X180315169Y-182693328D02*
X180100883Y-182693328D01*
X180100883Y-182693328D02*
X179958026Y-182764757D01*
X179958026Y-182764757D02*
X179886597Y-182836185D01*
X181815169Y-183621900D02*
X181672312Y-183693328D01*
X181672312Y-183693328D02*
X181386598Y-183693328D01*
X181386598Y-183693328D02*
X181243740Y-183621900D01*
X181243740Y-183621900D02*
X181172312Y-183479042D01*
X181172312Y-183479042D02*
X181172312Y-182907614D01*
X181172312Y-182907614D02*
X181243740Y-182764757D01*
X181243740Y-182764757D02*
X181386598Y-182693328D01*
X181386598Y-182693328D02*
X181672312Y-182693328D01*
X181672312Y-182693328D02*
X181815169Y-182764757D01*
X181815169Y-182764757D02*
X181886598Y-182907614D01*
X181886598Y-182907614D02*
X181886598Y-183050471D01*
X181886598Y-183050471D02*
X181172312Y-183193328D01*
X183100883Y-183621900D02*
X182958026Y-183693328D01*
X182958026Y-183693328D02*
X182672312Y-183693328D01*
X182672312Y-183693328D02*
X182529454Y-183621900D01*
X182529454Y-183621900D02*
X182458026Y-183479042D01*
X182458026Y-183479042D02*
X182458026Y-182907614D01*
X182458026Y-182907614D02*
X182529454Y-182764757D01*
X182529454Y-182764757D02*
X182672312Y-182693328D01*
X182672312Y-182693328D02*
X182958026Y-182693328D01*
X182958026Y-182693328D02*
X183100883Y-182764757D01*
X183100883Y-182764757D02*
X183172312Y-182907614D01*
X183172312Y-182907614D02*
X183172312Y-183050471D01*
X183172312Y-183050471D02*
X182458026Y-183193328D01*
X183600883Y-182693328D02*
X184172311Y-182693328D01*
X183815168Y-182193328D02*
X183815168Y-183479042D01*
X183815168Y-183479042D02*
X183886597Y-183621900D01*
X183886597Y-183621900D02*
X184029454Y-183693328D01*
X184029454Y-183693328D02*
X184172311Y-183693328D01*
X184672311Y-183550471D02*
X184743740Y-183621900D01*
X184743740Y-183621900D02*
X184672311Y-183693328D01*
X184672311Y-183693328D02*
X184600883Y-183621900D01*
X184600883Y-183621900D02*
X184672311Y-183550471D01*
X184672311Y-183550471D02*
X184672311Y-183693328D01*
X184672311Y-182764757D02*
X184743740Y-182836185D01*
X184743740Y-182836185D02*
X184672311Y-182907614D01*
X184672311Y-182907614D02*
X184600883Y-182836185D01*
X184600883Y-182836185D02*
X184672311Y-182764757D01*
X184672311Y-182764757D02*
X184672311Y-182907614D01*
D10*
D12*
X178485282Y-180256957D02*
X179199568Y-180256957D01*
X178342425Y-180685528D02*
X178842425Y-179185528D01*
X178842425Y-179185528D02*
X179342425Y-180685528D01*
X180699567Y-180685528D02*
X180199567Y-179971242D01*
X179842424Y-180685528D02*
X179842424Y-179185528D01*
X179842424Y-179185528D02*
X180413853Y-179185528D01*
X180413853Y-179185528D02*
X180556710Y-179256957D01*
X180556710Y-179256957D02*
X180628139Y-179328385D01*
X180628139Y-179328385D02*
X180699567Y-179471242D01*
X180699567Y-179471242D02*
X180699567Y-179685528D01*
X180699567Y-179685528D02*
X180628139Y-179828385D01*
X180628139Y-179828385D02*
X180556710Y-179899814D01*
X180556710Y-179899814D02*
X180413853Y-179971242D01*
X180413853Y-179971242D02*
X179842424Y-179971242D01*
X181342424Y-179899814D02*
X181842424Y-179899814D01*
X182056710Y-180685528D02*
X181342424Y-180685528D01*
X181342424Y-180685528D02*
X181342424Y-179185528D01*
X181342424Y-179185528D02*
X182056710Y-179185528D01*
X182699567Y-180685528D02*
X182699567Y-179185528D01*
X182699567Y-179185528D02*
X183199567Y-180256957D01*
X183199567Y-180256957D02*
X183699567Y-179185528D01*
X183699567Y-179185528D02*
X183699567Y-180685528D01*
D10*
D11*
D10*
D11*
D10*
D11*
D10*
D11*
D10*
D11*
X197002200Y-191507200D02*
X197002200Y-194507200D01*
D10*
D11*
X261002200Y-191507200D02*
X261002200Y-198007200D01*
D14*
%TO.P,J5,1,Pin_1*%
%TO.N,VOUT_1*%
X118900000Y-73400000D03*
D15*
%TO.P,J5,2,Pin_2*%
%TO.N,GND*%
X118900000Y-75900000D03*
%TD*%
D16*
%TO.P,J7,1,Pin_1*%
%TO.N,VOUT_2*%
X97500000Y-103700000D03*
D17*
%TO.P,J7,2,Pin_2*%
%TO.N,GND*%
X95000000Y-103700000D03*
%TD*%
D18*
%TO.P,U2,1,IN+*%
%TO.N,VIN*%
X69000000Y-75400000D03*
%TO.P,U2,2,IN-*%
%TO.N,GND*%
X69000000Y-93600000D03*
%TO.P,U2,3,OUT+*%
%TO.N,VOUT_2*%
X109850000Y-75400000D03*
%TO.P,U2,4,OUT-*%
%TO.N,GND*%
X109850000Y-93600000D03*
%TD*%
D16*
%TO.P,J6,1,Pin_1*%
%TO.N,VOUT_2*%
X107600000Y-103700000D03*
D17*
%TO.P,J6,2,Pin_2*%
%TO.N,GND*%
X105100000Y-103700000D03*
%TD*%
D19*
%TO.P,R1,1*%
%TO.N,VIN*%
X60912500Y-50300000D03*
%TO.P,R1,2*%
%TO.N,Net-(D1-A)*%
X55887500Y-50300000D03*
%TD*%
D20*
%TO.P,D1,1,K*%
%TO.N,GND*%
X48825000Y-50200000D03*
D21*
%TO.P,D1,2,A*%
%TO.N,Net-(D1-A)*%
X51365000Y-50200000D03*
%TD*%
D18*
%TO.P,U1,1,IN+*%
%TO.N,VIN*%
X69100000Y-48700000D03*
%TO.P,U1,2,IN-*%
%TO.N,GND*%
X69100000Y-66900000D03*
%TO.P,U1,3,OUT+*%
%TO.N,VOUT_1*%
X109950000Y-48700000D03*
%TO.P,U1,4,OUT-*%
%TO.N,GND*%
X109950000Y-66900000D03*
%TD*%
D16*
%TO.P,J9,1,Pin_1*%
%TO.N,VOUT_2*%
X77600000Y-103600000D03*
D17*
%TO.P,J9,2,Pin_2*%
%TO.N,GND*%
X75100000Y-103600000D03*
%TD*%
D22*
%TO.P,F1,1*%
%TO.N,Net-(J1-Pin_1)*%
X50600000Y-41150000D03*
%TO.P,F1,2*%
%TO.N,VIN*%
X60800000Y-43050000D03*
%TD*%
D16*
%TO.P,J8,1,Pin_1*%
%TO.N,VOUT_2*%
X87500000Y-103600000D03*
D17*
%TO.P,J8,2,Pin_2*%
%TO.N,GND*%
X85000000Y-103600000D03*
%TD*%
D14*
%TO.P,J2,1,Pin_1*%
%TO.N,VOUT_1*%
X119000000Y-43300000D03*
D15*
%TO.P,J2,2,Pin_2*%
%TO.N,GND*%
X119000000Y-45800000D03*
%TD*%
D23*
%TO.P,J1,1,Pin_1*%
%TO.N,Net-(J1-Pin_1)*%
X43600000Y-48442500D03*
D24*
%TO.P,J1,2,Pin_2*%
%TO.N,GND*%
X37600000Y-48442500D03*
D25*
%TO.P,J1,3*%
%TO.N,N/C*%
X40600000Y-53142500D03*
%TD*%
D14*
%TO.P,J3,1,Pin_1*%
%TO.N,VOUT_1*%
X118800000Y-53100000D03*
D15*
%TO.P,J3,2,Pin_2*%
%TO.N,GND*%
X118800000Y-55600000D03*
%TD*%
D26*
%TO.P,J10,1,Pin_1*%
%TO.N,GND*%
X83450000Y-44000000D03*
D27*
%TO.P,J10,2,Pin_2*%
%TO.N,VIN*%
X76250000Y-44000000D03*
D28*
%TO.P,J10,S1*%
%TO.N,N/C*%
X86600000Y-38000000D03*
%TO.P,J10,S2*%
X73100000Y-38000000D03*
%TD*%
D14*
%TO.P,J4,1,Pin_1*%
%TO.N,VOUT_1*%
X118800000Y-63100000D03*
D15*
%TO.P,J4,2,Pin_2*%
%TO.N,GND*%
X118800000Y-65600000D03*
%TD*%
D29*
%TO.N,Net-(D1-A)*%
X55887500Y-50300000D02*
X55787500Y-50200000D01*
X55787500Y-50200000D02*
X51365000Y-50200000D01*
D30*
%TO.N,Net-(J1-Pin_1)*%
X43600000Y-48442500D02*
X43600000Y-48150000D01*
X43600000Y-48150000D02*
X50600000Y-41150000D01*
%TO.N,VIN*%
X60912500Y-50300000D02*
X62512500Y-48700000D01*
X60912500Y-67312500D02*
X69000000Y-75400000D01*
X60912500Y-50300000D02*
X60912500Y-67312500D01*
X62512500Y-48700000D02*
X69100000Y-48700000D01*
X60800000Y-43050000D02*
X60800000Y-50187500D01*
X71550000Y-48700000D02*
X76250000Y-44000000D01*
X69100000Y-48700000D02*
X71550000Y-48700000D01*
X60800000Y-50187500D02*
X60912500Y-50300000D01*
D31*
%TO.N,VOUT_1*%
X109950000Y-48700000D02*
X109950000Y-64450000D01*
X109950000Y-64450000D02*
X118900000Y-73400000D01*
X113600000Y-48700000D02*
X119000000Y-43300000D01*
X114400000Y-48700000D02*
X118800000Y-53100000D01*
X109950000Y-48700000D02*
X109950000Y-54250000D01*
X109950000Y-48700000D02*
X113600000Y-48700000D01*
X109950000Y-48700000D02*
X114400000Y-48700000D01*
X109950000Y-54250000D02*
X118800000Y-63100000D01*
%TO.N,VOUT_2*%
X109850000Y-75400000D02*
X93600000Y-75400000D01*
X93600000Y-75400000D02*
X87400000Y-81600000D01*
X102600000Y-98700000D02*
X107600000Y-103700000D01*
X109850000Y-75400000D02*
X85100000Y-75400000D01*
X102600000Y-82600000D02*
X102600000Y-98700000D01*
X81200000Y-79400000D02*
X77600000Y-83000000D01*
X85100000Y-75400000D02*
X81200000Y-79300000D01*
X97500000Y-82300000D02*
X97500000Y-103700000D01*
X77600000Y-83000000D02*
X77600000Y-103600000D01*
X109850000Y-75400000D02*
X109800000Y-75400000D01*
X87400000Y-103500000D02*
X87500000Y-103600000D01*
X104400000Y-75400000D02*
X97500000Y-82300000D01*
X81200000Y-79300000D02*
X81200000Y-79400000D01*
X87400000Y-81600000D02*
X87400000Y-103500000D01*
X109850000Y-75400000D02*
X104400000Y-75400000D01*
X109800000Y-75400000D02*
X102600000Y-82600000D01*
%TD*%
%TA.AperFunction,Conductor*%
%TO.N,GND*%
G36*
X87943039Y-27619685D02*
G01*
X87988794Y-27672489D01*
X88000000Y-27724000D01*
X88000000Y-35900000D01*
X123876000Y-35900000D01*
X123943039Y-35919685D01*
X123988794Y-35972489D01*
X124000000Y-36024000D01*
X124000000Y-108676000D01*
X123980315Y-108743039D01*
X123927511Y-108788794D01*
X123876000Y-108800000D01*
X27824000Y-108800000D01*
X27756961Y-108780315D01*
X27711206Y-108727511D01*
X27700000Y-108676000D01*
X27700000Y-103856246D01*
X73750000Y-103856246D01*
X73783242Y-104066127D01*
X73783242Y-104066130D01*
X73848904Y-104268217D01*
X73945379Y-104457557D01*
X74070272Y-104629459D01*
X74070276Y-104629464D01*
X74220535Y-104779723D01*
X74220540Y-104779727D01*
X74392442Y-104904620D01*
X74581782Y-105001095D01*
X74783871Y-105066757D01*
X74850000Y-105077231D01*
X74850000Y-104033012D01*
X74907007Y-104065925D01*
X75034174Y-104100000D01*
X75165826Y-104100000D01*
X75292993Y-104065925D01*
X75350000Y-104033012D01*
X75350000Y-105077230D01*
X75416126Y-105066757D01*
X75416129Y-105066757D01*
X75618217Y-105001095D01*
X75807557Y-104904620D01*
X75979458Y-104779728D01*
X76118330Y-104640856D01*
X76179653Y-104607371D01*
X76249345Y-104612355D01*
X76305279Y-104654226D01*
X76311551Y-104663440D01*
X76315185Y-104669331D01*
X76315186Y-104669334D01*
X76407288Y-104818656D01*
X76531344Y-104942712D01*
X76680666Y-105034814D01*
X76847203Y-105089999D01*
X76949991Y-105100500D01*
X78250008Y-105100499D01*
X78352797Y-105089999D01*
X78519334Y-105034814D01*
X78668656Y-104942712D01*
X78792712Y-104818656D01*
X78884814Y-104669334D01*
X78939999Y-104502797D01*
X78950500Y-104400009D01*
X78950499Y-102799992D01*
X78939999Y-102697203D01*
X78884814Y-102530666D01*
X78792712Y-102381344D01*
X78668656Y-102257288D01*
X78668655Y-102257287D01*
X78609402Y-102220739D01*
X78562678Y-102168791D01*
X78550500Y-102115201D01*
X78550500Y-83445072D01*
X78570185Y-83378033D01*
X78586819Y-83357391D01*
X81938299Y-80005911D01*
X81938302Y-80005908D01*
X82042323Y-79850230D01*
X82067068Y-79790486D01*
X82093944Y-79750264D01*
X85457391Y-76386819D01*
X85518714Y-76353334D01*
X85545072Y-76350500D01*
X91005928Y-76350500D01*
X91072967Y-76370185D01*
X91118722Y-76422989D01*
X91128666Y-76492147D01*
X91099641Y-76555703D01*
X91093609Y-76562181D01*
X86661700Y-80994088D01*
X86661697Y-80994092D01*
X86557680Y-81149763D01*
X86557675Y-81149772D01*
X86515705Y-81251096D01*
X86515706Y-81251097D01*
X86486026Y-81322752D01*
X86486024Y-81322756D01*
X86449500Y-81506379D01*
X86449500Y-102187769D01*
X86429815Y-102254808D01*
X86413182Y-102275450D01*
X86307287Y-102381345D01*
X86211551Y-102536559D01*
X86159603Y-102583283D01*
X86090640Y-102594506D01*
X86026558Y-102566662D01*
X86018331Y-102559143D01*
X85879464Y-102420276D01*
X85879459Y-102420272D01*
X85707557Y-102295379D01*
X85518215Y-102198903D01*
X85316124Y-102133241D01*
X85250000Y-102122768D01*
X85250000Y-103166988D01*
X85192993Y-103134075D01*
X85065826Y-103100000D01*
X84934174Y-103100000D01*
X84807007Y-103134075D01*
X84750000Y-103166988D01*
X84750000Y-102122768D01*
X84749999Y-102122768D01*
X84683875Y-102133241D01*
X84481784Y-102198903D01*
X84292442Y-102295379D01*
X84120540Y-102420272D01*
X84120535Y-102420276D01*
X83970276Y-102570535D01*
X83970272Y-102570540D01*
X83845379Y-102742442D01*
X83748904Y-102931782D01*
X83683242Y-103133869D01*
X83683242Y-103133872D01*
X83650000Y-103343753D01*
X83650000Y-103350000D01*
X84566988Y-103350000D01*
X84534075Y-103407007D01*
X84500000Y-103534174D01*
X84500000Y-103665826D01*
X84534075Y-103792993D01*
X84566988Y-103850000D01*
X83650000Y-103850000D01*
X83650000Y-103856246D01*
X83683242Y-104066127D01*
X83683242Y-104066130D01*
X83748904Y-104268217D01*
X83845379Y-104457557D01*
X83970272Y-104629459D01*
X83970276Y-104629464D01*
X84120535Y-104779723D01*
X84120540Y-104779727D01*
X84292442Y-104904620D01*
X84481782Y-105001095D01*
X84683871Y-105066757D01*
X84750000Y-105077231D01*
X84750000Y-104033012D01*
X84807007Y-104065925D01*
X84934174Y-104100000D01*
X85065826Y-104100000D01*
X85192993Y-104065925D01*
X85250000Y-104033012D01*
X85250000Y-105077230D01*
X85316126Y-105066757D01*
X85316129Y-105066757D01*
X85518217Y-105001095D01*
X85707557Y-104904620D01*
X85879458Y-104779728D01*
X86018330Y-104640856D01*
X86079653Y-104607371D01*
X86149345Y-104612355D01*
X86205279Y-104654226D01*
X86211551Y-104663440D01*
X86215185Y-104669331D01*
X86215186Y-104669334D01*
X86307288Y-104818656D01*
X86431344Y-104942712D01*
X86580666Y-105034814D01*
X86747203Y-105089999D01*
X86849991Y-105100500D01*
X88150008Y-105100499D01*
X88252797Y-105089999D01*
X88419334Y-105034814D01*
X88568656Y-104942712D01*
X88692712Y-104818656D01*
X88784814Y-104669334D01*
X88839999Y-104502797D01*
X88850500Y-104400009D01*
X88850499Y-102799992D01*
X88839999Y-102697203D01*
X88784814Y-102530666D01*
X88692712Y-102381344D01*
X88568656Y-102257288D01*
X88419334Y-102165186D01*
X88419332Y-102165185D01*
X88413187Y-102161395D01*
X88414290Y-102159605D01*
X88369649Y-102120290D01*
X88350500Y-102054091D01*
X88350500Y-82045072D01*
X88370185Y-81978033D01*
X88386819Y-81957391D01*
X93957391Y-76386819D01*
X94018714Y-76353334D01*
X94045072Y-76350500D01*
X101805928Y-76350500D01*
X101872967Y-76370185D01*
X101918722Y-76422989D01*
X101928666Y-76492147D01*
X101899641Y-76555703D01*
X101893609Y-76562181D01*
X96761700Y-81694088D01*
X96761697Y-81694092D01*
X96657680Y-81849763D01*
X96657673Y-81849776D01*
X96586027Y-82022748D01*
X96586024Y-82022757D01*
X96549610Y-82205830D01*
X96549595Y-82205907D01*
X96549500Y-82206382D01*
X96549500Y-102215201D01*
X96529815Y-102282240D01*
X96490598Y-102320739D01*
X96431344Y-102357287D01*
X96307289Y-102481342D01*
X96211551Y-102636559D01*
X96159603Y-102683283D01*
X96090640Y-102694506D01*
X96026558Y-102666662D01*
X96018331Y-102659143D01*
X95879464Y-102520276D01*
X95879459Y-102520272D01*
X95707557Y-102395379D01*
X95518215Y-102298903D01*
X95316124Y-102233241D01*
X95250000Y-102222768D01*
X95250000Y-103266988D01*
X95192993Y-103234075D01*
X95065826Y-103200000D01*
X94934174Y-103200000D01*
X94807007Y-103234075D01*
X94750000Y-103266988D01*
X94750000Y-102222768D01*
X94749999Y-102222768D01*
X94683875Y-102233241D01*
X94481784Y-102298903D01*
X94292442Y-102395379D01*
X94120540Y-102520272D01*
X94120535Y-102520276D01*
X93970276Y-102670535D01*
X93970272Y-102670540D01*
X93845379Y-102842442D01*
X93748904Y-103031782D01*
X93683242Y-103233869D01*
X93683242Y-103233872D01*
X93650000Y-103443753D01*
X93650000Y-103450000D01*
X94566988Y-103450000D01*
X94534075Y-103507007D01*
X94500000Y-103634174D01*
X94500000Y-103765826D01*
X94534075Y-103892993D01*
X94566988Y-103950000D01*
X93650000Y-103950000D01*
X93650000Y-103956246D01*
X93683242Y-104166127D01*
X93683242Y-104166130D01*
X93748904Y-104368217D01*
X93845379Y-104557557D01*
X93970272Y-104729459D01*
X93970276Y-104729464D01*
X94120535Y-104879723D01*
X94120540Y-104879727D01*
X94292442Y-105004620D01*
X94481782Y-105101095D01*
X94683871Y-105166757D01*
X94750000Y-105177231D01*
X94750000Y-104133012D01*
X94807007Y-104165925D01*
X94934174Y-104200000D01*
X95065826Y-104200000D01*
X95192993Y-104165925D01*
X95250000Y-104133012D01*
X95250000Y-105177230D01*
X95316126Y-105166757D01*
X95316129Y-105166757D01*
X95518217Y-105101095D01*
X95707557Y-105004620D01*
X95879458Y-104879728D01*
X96018330Y-104740856D01*
X96079653Y-104707371D01*
X96149345Y-104712355D01*
X96205279Y-104754226D01*
X96211551Y-104763440D01*
X96215185Y-104769331D01*
X96215186Y-104769334D01*
X96307288Y-104918656D01*
X96431344Y-105042712D01*
X96580666Y-105134814D01*
X96747203Y-105189999D01*
X96849991Y-105200500D01*
X98150008Y-105200499D01*
X98252797Y-105189999D01*
X98419334Y-105134814D01*
X98568656Y-105042712D01*
X98692712Y-104918656D01*
X98784814Y-104769334D01*
X98839999Y-104602797D01*
X98850500Y-104500009D01*
X98850499Y-102899992D01*
X98839999Y-102797203D01*
X98784814Y-102630666D01*
X98692712Y-102481344D01*
X98568656Y-102357288D01*
X98568655Y-102357287D01*
X98509402Y-102320739D01*
X98462678Y-102268791D01*
X98450500Y-102215201D01*
X98450500Y-82745072D01*
X98470185Y-82678033D01*
X98486819Y-82657391D01*
X104757391Y-76386819D01*
X104818714Y-76353334D01*
X104845072Y-76350500D01*
X107205928Y-76350500D01*
X107272967Y-76370185D01*
X107318722Y-76422989D01*
X107328666Y-76492147D01*
X107299641Y-76555703D01*
X107293609Y-76562181D01*
X101861700Y-81994088D01*
X101861697Y-81994092D01*
X101757678Y-82149766D01*
X101734227Y-82206384D01*
X101686027Y-82322748D01*
X101686025Y-82322756D01*
X101649500Y-82506379D01*
X101649500Y-98793621D01*
X101686024Y-98977242D01*
X101686027Y-98977251D01*
X101757673Y-99150223D01*
X101757680Y-99150236D01*
X101861697Y-99305907D01*
X101861700Y-99305911D01*
X104644683Y-102088893D01*
X104678168Y-102150216D01*
X104673184Y-102219908D01*
X104631312Y-102275841D01*
X104595325Y-102294503D01*
X104581786Y-102298902D01*
X104581785Y-102298902D01*
X104392442Y-102395379D01*
X104220540Y-102520272D01*
X104220535Y-102520276D01*
X104070276Y-102670535D01*
X104070272Y-102670540D01*
X103945379Y-102842442D01*
X103848904Y-103031782D01*
X103783242Y-103233869D01*
X103783242Y-103233872D01*
X103750000Y-103443753D01*
X103750000Y-103450000D01*
X104666988Y-103450000D01*
X104634075Y-103507007D01*
X104600000Y-103634174D01*
X104600000Y-103765826D01*
X104634075Y-103892993D01*
X104666988Y-103950000D01*
X103750000Y-103950000D01*
X103750000Y-103956246D01*
X103783242Y-104166127D01*
X103783242Y-104166130D01*
X103848904Y-104368217D01*
X103945379Y-104557557D01*
X104070272Y-104729459D01*
X104070276Y-104729464D01*
X104220535Y-104879723D01*
X104220540Y-104879727D01*
X104392442Y-105004620D01*
X104581782Y-105101095D01*
X104783871Y-105166757D01*
X104850000Y-105177231D01*
X104850000Y-104133012D01*
X104907007Y-104165925D01*
X105034174Y-104200000D01*
X105165826Y-104200000D01*
X105292993Y-104165925D01*
X105350000Y-104133012D01*
X105350000Y-105177230D01*
X105416126Y-105166757D01*
X105416129Y-105166757D01*
X105618217Y-105101095D01*
X105807557Y-105004620D01*
X105979458Y-104879728D01*
X106118330Y-104740856D01*
X106179653Y-104707371D01*
X106249345Y-104712355D01*
X106305279Y-104754226D01*
X106311551Y-104763440D01*
X106315185Y-104769331D01*
X106315186Y-104769334D01*
X106407288Y-104918656D01*
X106531344Y-105042712D01*
X106680666Y-105134814D01*
X106847203Y-105189999D01*
X106949991Y-105200500D01*
X108250008Y-105200499D01*
X108352797Y-105189999D01*
X108519334Y-105134814D01*
X108668656Y-105042712D01*
X108792712Y-104918656D01*
X108884814Y-104769334D01*
X108939999Y-104602797D01*
X108950500Y-104500009D01*
X108950499Y-102899992D01*
X108939999Y-102797203D01*
X108884814Y-102630666D01*
X108792712Y-102481344D01*
X108668656Y-102357288D01*
X108519334Y-102265186D01*
X108352797Y-102210001D01*
X108352795Y-102210000D01*
X108250016Y-102199500D01*
X108250009Y-102199500D01*
X107495072Y-102199500D01*
X107428033Y-102179815D01*
X107407391Y-102163181D01*
X103586819Y-98342609D01*
X103553334Y-98281286D01*
X103550500Y-98254928D01*
X103550500Y-94409844D01*
X108588000Y-94409844D01*
X108594401Y-94469372D01*
X108594403Y-94469379D01*
X108644645Y-94604086D01*
X108644649Y-94604093D01*
X108730809Y-94719187D01*
X108730812Y-94719190D01*
X108845906Y-94805350D01*
X108845913Y-94805354D01*
X108980620Y-94855596D01*
X108980627Y-94855598D01*
X109040155Y-94861999D01*
X109040172Y-94862000D01*
X109600000Y-94862000D01*
X109600000Y-93888816D01*
X109616060Y-93904876D01*
X109702939Y-93955036D01*
X109799840Y-93981000D01*
X109900160Y-93981000D01*
X109997061Y-93955036D01*
X110083940Y-93904876D01*
X110100000Y-93888816D01*
X110100000Y-94862000D01*
X110659828Y-94862000D01*
X110659844Y-94861999D01*
X110719372Y-94855598D01*
X110719379Y-94855596D01*
X110854086Y-94805354D01*
X110854093Y-94805350D01*
X110969187Y-94719190D01*
X110969190Y-94719187D01*
X111055350Y-94604093D01*
X111055354Y-94604086D01*
X111105596Y-94469379D01*
X111105598Y-94469372D01*
X111111999Y-94409844D01*
X111112000Y-94409827D01*
X111112000Y-93850000D01*
X110138816Y-93850000D01*
X110154876Y-93833940D01*
X110205036Y-93747061D01*
X110231000Y-93650160D01*
X110231000Y-93549840D01*
X110205036Y-93452939D01*
X110154876Y-93366060D01*
X110138816Y-93350000D01*
X111112000Y-93350000D01*
X111112000Y-92790172D01*
X111111999Y-92790155D01*
X111105598Y-92730627D01*
X111105596Y-92730620D01*
X111055354Y-92595913D01*
X111055350Y-92595906D01*
X110969190Y-92480812D01*
X110969187Y-92480809D01*
X110854093Y-92394649D01*
X110854086Y-92394645D01*
X110719379Y-92344403D01*
X110719372Y-92344401D01*
X110659844Y-92338000D01*
X110100000Y-92338000D01*
X110100000Y-93311184D01*
X110083940Y-93295124D01*
X109997061Y-93244964D01*
X109900160Y-93219000D01*
X109799840Y-93219000D01*
X109702939Y-93244964D01*
X109616060Y-93295124D01*
X109600000Y-93311184D01*
X109600000Y-92338000D01*
X109040155Y-92338000D01*
X108980627Y-92344401D01*
X108980620Y-92344403D01*
X108845913Y-92394645D01*
X108845906Y-92394649D01*
X108730812Y-92480809D01*
X108730809Y-92480812D01*
X108644649Y-92595906D01*
X108644645Y-92595913D01*
X108594403Y-92730620D01*
X108594401Y-92730627D01*
X108588000Y-92790155D01*
X108588000Y-93350000D01*
X109561184Y-93350000D01*
X109545124Y-93366060D01*
X109494964Y-93452939D01*
X109469000Y-93549840D01*
X109469000Y-93650160D01*
X109494964Y-93747061D01*
X109545124Y-93833940D01*
X109561184Y-93850000D01*
X108588000Y-93850000D01*
X108588000Y-94409844D01*
X103550500Y-94409844D01*
X103550500Y-83045071D01*
X103570185Y-82978032D01*
X103586814Y-82957395D01*
X109845391Y-76698817D01*
X109906714Y-76665333D01*
X109933072Y-76662499D01*
X110659871Y-76662499D01*
X110659872Y-76662499D01*
X110719483Y-76656091D01*
X110854331Y-76605796D01*
X110969546Y-76519546D01*
X111055796Y-76404331D01*
X111106091Y-76269483D01*
X111112500Y-76209873D01*
X111112499Y-74590128D01*
X111106091Y-74530517D01*
X111090098Y-74487638D01*
X111055797Y-74395671D01*
X111055793Y-74395664D01*
X110969547Y-74280455D01*
X110969544Y-74280452D01*
X110854335Y-74194206D01*
X110854328Y-74194202D01*
X110719482Y-74143908D01*
X110719483Y-74143908D01*
X110659883Y-74137501D01*
X110659881Y-74137500D01*
X110659873Y-74137500D01*
X110659864Y-74137500D01*
X109040129Y-74137500D01*
X109040123Y-74137501D01*
X108980516Y-74143908D01*
X108845671Y-74194202D01*
X108845664Y-74194206D01*
X108730455Y-74280452D01*
X108641102Y-74399812D01*
X108585168Y-74441682D01*
X108541836Y-74449500D01*
X85006378Y-74449500D01*
X84914566Y-74467763D01*
X84822757Y-74486024D01*
X84822751Y-74486026D01*
X84822749Y-74486027D01*
X84818865Y-74487636D01*
X84818862Y-74487636D01*
X84818859Y-74487638D01*
X84649776Y-74557673D01*
X84649763Y-74557680D01*
X84494092Y-74661697D01*
X84494088Y-74661700D01*
X80461697Y-78694091D01*
X80357675Y-78849772D01*
X80357673Y-78849776D01*
X80332930Y-78909510D01*
X80306051Y-78949737D01*
X76861700Y-82394088D01*
X76861697Y-82394092D01*
X76757680Y-82549763D01*
X76757673Y-82549776D01*
X76686027Y-82722748D01*
X76686024Y-82722757D01*
X76649610Y-82905830D01*
X76649595Y-82905907D01*
X76649500Y-82906382D01*
X76649500Y-102115201D01*
X76629815Y-102182240D01*
X76590598Y-102220739D01*
X76531344Y-102257287D01*
X76407289Y-102381342D01*
X76311551Y-102536559D01*
X76259603Y-102583283D01*
X76190640Y-102594506D01*
X76126558Y-102566662D01*
X76118331Y-102559143D01*
X75979464Y-102420276D01*
X75979459Y-102420272D01*
X75807557Y-102295379D01*
X75618215Y-102198903D01*
X75416124Y-102133241D01*
X75350000Y-102122768D01*
X75350000Y-103166988D01*
X75292993Y-103134075D01*
X75165826Y-103100000D01*
X75034174Y-103100000D01*
X74907007Y-103134075D01*
X74850000Y-103166988D01*
X74850000Y-102122768D01*
X74849999Y-102122768D01*
X74783875Y-102133241D01*
X74581784Y-102198903D01*
X74392442Y-102295379D01*
X74220540Y-102420272D01*
X74220535Y-102420276D01*
X74070276Y-102570535D01*
X74070272Y-102570540D01*
X73945379Y-102742442D01*
X73848904Y-102931782D01*
X73783242Y-103133869D01*
X73783242Y-103133872D01*
X73750000Y-103343753D01*
X73750000Y-103350000D01*
X74666988Y-103350000D01*
X74634075Y-103407007D01*
X74600000Y-103534174D01*
X74600000Y-103665826D01*
X74634075Y-103792993D01*
X74666988Y-103850000D01*
X73750000Y-103850000D01*
X73750000Y-103856246D01*
X27700000Y-103856246D01*
X27700000Y-100114741D01*
X38249500Y-100114741D01*
X38274446Y-100304215D01*
X38279452Y-100342238D01*
X38279453Y-100342240D01*
X38338842Y-100563887D01*
X38426650Y-100775876D01*
X38426657Y-100775890D01*
X38541392Y-100974617D01*
X38681081Y-101156661D01*
X38681089Y-101156670D01*
X38843330Y-101318911D01*
X38843338Y-101318918D01*
X39025382Y-101458607D01*
X39025385Y-101458608D01*
X39025388Y-101458611D01*
X39224112Y-101573344D01*
X39224117Y-101573346D01*
X39224123Y-101573349D01*
X39315480Y-101611190D01*
X39436113Y-101661158D01*
X39657762Y-101720548D01*
X39885266Y-101750500D01*
X39885273Y-101750500D01*
X40114727Y-101750500D01*
X40114734Y-101750500D01*
X40342238Y-101720548D01*
X40563887Y-101661158D01*
X40775888Y-101573344D01*
X40974612Y-101458611D01*
X41156661Y-101318919D01*
X41156665Y-101318914D01*
X41156670Y-101318911D01*
X41318911Y-101156670D01*
X41318914Y-101156665D01*
X41318919Y-101156661D01*
X41458611Y-100974612D01*
X41573344Y-100775888D01*
X41661158Y-100563887D01*
X41720548Y-100342238D01*
X41750500Y-100114734D01*
X41750500Y-99885266D01*
X41720548Y-99657762D01*
X41661158Y-99436113D01*
X41573344Y-99224112D01*
X41458611Y-99025388D01*
X41458608Y-99025385D01*
X41458607Y-99025382D01*
X41318918Y-98843338D01*
X41318911Y-98843330D01*
X41156670Y-98681089D01*
X41156661Y-98681081D01*
X40974617Y-98541392D01*
X40775890Y-98426657D01*
X40775876Y-98426650D01*
X40563887Y-98338842D01*
X40342238Y-98279452D01*
X40304215Y-98274446D01*
X40114741Y-98249500D01*
X40114734Y-98249500D01*
X39885266Y-98249500D01*
X39885258Y-98249500D01*
X39668715Y-98278009D01*
X39657762Y-98279452D01*
X39564076Y-98304554D01*
X39436112Y-98338842D01*
X39224123Y-98426650D01*
X39224109Y-98426657D01*
X39025382Y-98541392D01*
X38843338Y-98681081D01*
X38681081Y-98843338D01*
X38541392Y-99025382D01*
X38426657Y-99224109D01*
X38426650Y-99224123D01*
X38338842Y-99436112D01*
X38279453Y-99657759D01*
X38279451Y-99657770D01*
X38249500Y-99885258D01*
X38249500Y-100114741D01*
X27700000Y-100114741D01*
X27700000Y-94409844D01*
X67738000Y-94409844D01*
X67744401Y-94469372D01*
X67744403Y-94469379D01*
X67794645Y-94604086D01*
X67794649Y-94604093D01*
X67880809Y-94719187D01*
X67880812Y-94719190D01*
X67995906Y-94805350D01*
X67995913Y-94805354D01*
X68130620Y-94855596D01*
X68130627Y-94855598D01*
X68190155Y-94861999D01*
X68190172Y-94862000D01*
X68750000Y-94862000D01*
X68750000Y-93888816D01*
X68766060Y-93904876D01*
X68852939Y-93955036D01*
X68949840Y-93981000D01*
X69050160Y-93981000D01*
X69147061Y-93955036D01*
X69233940Y-93904876D01*
X69250000Y-93888816D01*
X69250000Y-94862000D01*
X69809828Y-94862000D01*
X69809844Y-94861999D01*
X69869372Y-94855598D01*
X69869379Y-94855596D01*
X70004086Y-94805354D01*
X70004093Y-94805350D01*
X70119187Y-94719190D01*
X70119190Y-94719187D01*
X70205350Y-94604093D01*
X70205354Y-94604086D01*
X70255596Y-94469379D01*
X70255598Y-94469372D01*
X70261999Y-94409844D01*
X70262000Y-94409827D01*
X70262000Y-93850000D01*
X69288816Y-93850000D01*
X69304876Y-93833940D01*
X69355036Y-93747061D01*
X69381000Y-93650160D01*
X69381000Y-93549840D01*
X69355036Y-93452939D01*
X69304876Y-93366060D01*
X69288816Y-93350000D01*
X70262000Y-93350000D01*
X70262000Y-92790172D01*
X70261999Y-92790155D01*
X70255598Y-92730627D01*
X70255596Y-92730620D01*
X70205354Y-92595913D01*
X70205350Y-92595906D01*
X70119190Y-92480812D01*
X70119187Y-92480809D01*
X70004093Y-92394649D01*
X70004086Y-92394645D01*
X69869379Y-92344403D01*
X69869372Y-92344401D01*
X69809844Y-92338000D01*
X69250000Y-92338000D01*
X69250000Y-93311184D01*
X69233940Y-93295124D01*
X69147061Y-93244964D01*
X69050160Y-93219000D01*
X68949840Y-93219000D01*
X68852939Y-93244964D01*
X68766060Y-93295124D01*
X68750000Y-93311184D01*
X68750000Y-92338000D01*
X68190155Y-92338000D01*
X68130627Y-92344401D01*
X68130620Y-92344403D01*
X67995913Y-92394645D01*
X67995906Y-92394649D01*
X67880812Y-92480809D01*
X67880809Y-92480812D01*
X67794649Y-92595906D01*
X67794645Y-92595913D01*
X67744403Y-92730620D01*
X67744401Y-92730627D01*
X67738000Y-92790155D01*
X67738000Y-93350000D01*
X68711184Y-93350000D01*
X68695124Y-93366060D01*
X68644964Y-93452939D01*
X68619000Y-93549840D01*
X68619000Y-93650160D01*
X68644964Y-93747061D01*
X68695124Y-93833940D01*
X68711184Y-93850000D01*
X67738000Y-93850000D01*
X67738000Y-94409844D01*
X27700000Y-94409844D01*
X27700000Y-54111113D01*
X38349500Y-54111113D01*
X38349501Y-54111152D01*
X38352295Y-54163743D01*
X38352295Y-54163744D01*
X38377238Y-54292712D01*
X38396755Y-54393626D01*
X38440430Y-54509358D01*
X38479425Y-54612689D01*
X38597929Y-54814631D01*
X38597934Y-54814638D01*
X38748856Y-54993641D01*
X38748858Y-54993643D01*
X38927861Y-55144565D01*
X38927868Y-55144570D01*
X39129810Y-55263074D01*
X39348874Y-55345745D01*
X39578759Y-55390205D01*
X39631378Y-55393000D01*
X39631386Y-55393000D01*
X41568614Y-55393000D01*
X41568622Y-55393000D01*
X41621241Y-55390205D01*
X41851126Y-55345745D01*
X42070190Y-55263074D01*
X42272132Y-55144570D01*
X42324995Y-55100000D01*
X42451141Y-54993643D01*
X42451143Y-54993641D01*
X42602065Y-54814638D01*
X42602065Y-54814637D01*
X42602070Y-54814632D01*
X42720574Y-54612690D01*
X42803245Y-54393626D01*
X42847705Y-54163741D01*
X42850500Y-54111122D01*
X42850500Y-52173878D01*
X42847705Y-52121259D01*
X42803245Y-51891374D01*
X42720574Y-51672310D01*
X42602070Y-51470368D01*
X42602065Y-51470361D01*
X42451143Y-51291358D01*
X42451141Y-51291356D01*
X42280927Y-51147844D01*
X47425000Y-51147844D01*
X47431401Y-51207372D01*
X47431403Y-51207379D01*
X47481645Y-51342086D01*
X47481649Y-51342093D01*
X47567809Y-51457187D01*
X47567812Y-51457190D01*
X47682906Y-51543350D01*
X47682913Y-51543354D01*
X47817620Y-51593596D01*
X47817627Y-51593598D01*
X47877155Y-51599999D01*
X47877172Y-51600000D01*
X48575000Y-51600000D01*
X48575000Y-50575277D01*
X48651306Y-50619333D01*
X48765756Y-50650000D01*
X48884244Y-50650000D01*
X48998694Y-50619333D01*
X49075000Y-50575277D01*
X49075000Y-51600000D01*
X49772828Y-51600000D01*
X49772844Y-51599999D01*
X49832372Y-51593598D01*
X49832379Y-51593596D01*
X49967086Y-51543354D01*
X49967093Y-51543350D01*
X50082187Y-51457190D01*
X50082190Y-51457187D01*
X50168350Y-51342093D01*
X50168355Y-51342084D01*
X50197075Y-51265081D01*
X50238945Y-51209147D01*
X50304409Y-51184729D01*
X50372682Y-51199580D01*
X50404484Y-51224428D01*
X50413216Y-51233913D01*
X50413219Y-51233915D01*
X50413222Y-51233918D01*
X50596365Y-51376464D01*
X50596371Y-51376468D01*
X50596374Y-51376470D01*
X50800497Y-51486936D01*
X50914487Y-51526068D01*
X51020015Y-51562297D01*
X51020017Y-51562297D01*
X51020019Y-51562298D01*
X51248951Y-51600500D01*
X51248952Y-51600500D01*
X51481048Y-51600500D01*
X51481049Y-51600500D01*
X51709981Y-51562298D01*
X51929503Y-51486936D01*
X52133626Y-51376470D01*
X52316784Y-51233913D01*
X52473979Y-51063153D01*
X52500914Y-51021926D01*
X52543542Y-50956679D01*
X52596688Y-50911322D01*
X52647351Y-50900500D01*
X53750500Y-50900500D01*
X53817539Y-50920185D01*
X53863294Y-50972989D01*
X53874500Y-51024500D01*
X53874500Y-52325015D01*
X53885000Y-52427795D01*
X53885001Y-52427796D01*
X53940186Y-52594335D01*
X53940187Y-52594337D01*
X54032286Y-52743651D01*
X54032289Y-52743655D01*
X54156344Y-52867710D01*
X54156348Y-52867713D01*
X54305662Y-52959812D01*
X54305664Y-52959813D01*
X54305666Y-52959814D01*
X54472203Y-53014999D01*
X54574992Y-53025500D01*
X54574997Y-53025500D01*
X57200003Y-53025500D01*
X57200008Y-53025500D01*
X57302797Y-53014999D01*
X57469334Y-52959814D01*
X57618655Y-52867711D01*
X57742711Y-52743655D01*
X57834814Y-52594334D01*
X57889999Y-52427797D01*
X57900499Y-52325015D01*
X58899500Y-52325015D01*
X58910000Y-52427795D01*
X58910001Y-52427796D01*
X58965186Y-52594335D01*
X58965187Y-52594337D01*
X59057286Y-52743651D01*
X59057289Y-52743655D01*
X59181344Y-52867710D01*
X59181348Y-52867713D01*
X59330662Y-52959812D01*
X59330664Y-52959813D01*
X59330666Y-52959814D01*
X59427004Y-52991737D01*
X59484449Y-53031509D01*
X59511272Y-53096025D01*
X59512000Y-53109443D01*
X59512000Y-67197862D01*
X59511999Y-67197877D01*
X59511999Y-67422720D01*
X59546485Y-67640452D01*
X59614603Y-67850103D01*
X59614604Y-67850106D01*
X59714687Y-68046525D01*
X59844251Y-68224857D01*
X59844255Y-68224861D01*
X59844258Y-68224865D01*
X60000135Y-68380742D01*
X60004465Y-68385072D01*
X60004476Y-68385082D01*
X67701181Y-76081787D01*
X67734666Y-76143110D01*
X67737500Y-76169465D01*
X67737500Y-76209868D01*
X67737501Y-76209876D01*
X67743908Y-76269483D01*
X67794202Y-76404328D01*
X67794206Y-76404335D01*
X67880452Y-76519544D01*
X67880455Y-76519547D01*
X67995664Y-76605793D01*
X67995671Y-76605797D01*
X68000390Y-76607557D01*
X68130517Y-76656091D01*
X68190127Y-76662500D01*
X68363156Y-76662499D01*
X68419453Y-76676015D01*
X68462398Y-76697897D01*
X68672046Y-76766014D01*
X68672049Y-76766015D01*
X68889778Y-76800501D01*
X68889779Y-76800501D01*
X69110221Y-76800501D01*
X69110222Y-76800501D01*
X69327951Y-76766015D01*
X69537605Y-76697895D01*
X69580546Y-76676015D01*
X69636842Y-76662499D01*
X69809871Y-76662499D01*
X69809872Y-76662499D01*
X69869483Y-76656091D01*
X70004331Y-76605796D01*
X70119546Y-76519546D01*
X70205796Y-76404331D01*
X70256091Y-76269483D01*
X70262500Y-76209873D01*
X70262499Y-76036841D01*
X70276014Y-75980546D01*
X70297895Y-75937605D01*
X70366015Y-75727951D01*
X70400501Y-75510222D01*
X70400501Y-75289778D01*
X70366015Y-75072049D01*
X70331955Y-74967221D01*
X70297896Y-74862396D01*
X70297895Y-74862393D01*
X70276014Y-74819450D01*
X70262499Y-74763155D01*
X70262499Y-74590129D01*
X70262498Y-74590123D01*
X70259010Y-74557677D01*
X70256091Y-74530517D01*
X70240098Y-74487638D01*
X70205797Y-74395671D01*
X70205793Y-74395664D01*
X70119547Y-74280455D01*
X70119544Y-74280452D01*
X70004335Y-74194206D01*
X70004328Y-74194202D01*
X69869482Y-74143908D01*
X69869483Y-74143908D01*
X69809883Y-74137501D01*
X69809881Y-74137500D01*
X69809873Y-74137500D01*
X69809865Y-74137500D01*
X69769468Y-74137500D01*
X69702429Y-74117815D01*
X69681787Y-74101181D01*
X63290450Y-67709844D01*
X67838000Y-67709844D01*
X67844401Y-67769372D01*
X67844403Y-67769379D01*
X67894645Y-67904086D01*
X67894649Y-67904093D01*
X67980809Y-68019187D01*
X67980812Y-68019190D01*
X68095906Y-68105350D01*
X68095913Y-68105354D01*
X68230620Y-68155596D01*
X68230627Y-68155598D01*
X68290155Y-68161999D01*
X68290172Y-68162000D01*
X68850000Y-68162000D01*
X68850000Y-67188816D01*
X68866060Y-67204876D01*
X68952939Y-67255036D01*
X69049840Y-67281000D01*
X69150160Y-67281000D01*
X69247061Y-67255036D01*
X69333940Y-67204876D01*
X69350000Y-67188816D01*
X69350000Y-68162000D01*
X69909828Y-68162000D01*
X69909844Y-68161999D01*
X69969372Y-68155598D01*
X69969379Y-68155596D01*
X70104086Y-68105354D01*
X70104093Y-68105350D01*
X70219187Y-68019190D01*
X70219190Y-68019187D01*
X70305350Y-67904093D01*
X70305354Y-67904086D01*
X70355596Y-67769379D01*
X70355598Y-67769372D01*
X70361999Y-67709844D01*
X70362000Y-67709827D01*
X70362000Y-67150000D01*
X69388816Y-67150000D01*
X69404876Y-67133940D01*
X69455036Y-67047061D01*
X69481000Y-66950160D01*
X69481000Y-66849840D01*
X69455036Y-66752939D01*
X69404876Y-66666060D01*
X69388816Y-66650000D01*
X70362000Y-66650000D01*
X70362000Y-66090172D01*
X70361999Y-66090155D01*
X70355598Y-66030627D01*
X70355596Y-66030620D01*
X70305354Y-65895913D01*
X70305350Y-65895906D01*
X70219190Y-65780812D01*
X70219187Y-65780809D01*
X70104093Y-65694649D01*
X70104086Y-65694645D01*
X69969379Y-65644403D01*
X69969372Y-65644401D01*
X69909844Y-65638000D01*
X69350000Y-65638000D01*
X69350000Y-66611184D01*
X69333940Y-66595124D01*
X69247061Y-66544964D01*
X69150160Y-66519000D01*
X69049840Y-66519000D01*
X68952939Y-66544964D01*
X68866060Y-66595124D01*
X68850000Y-66611184D01*
X68850000Y-65638000D01*
X68290155Y-65638000D01*
X68230627Y-65644401D01*
X68230620Y-65644403D01*
X68095913Y-65694645D01*
X68095906Y-65694649D01*
X67980812Y-65780809D01*
X67980809Y-65780812D01*
X67894649Y-65895906D01*
X67894645Y-65895913D01*
X67844403Y-66030620D01*
X67844401Y-66030627D01*
X67838000Y-66090155D01*
X67838000Y-66650000D01*
X68811184Y-66650000D01*
X68795124Y-66666060D01*
X68744964Y-66752939D01*
X68719000Y-66849840D01*
X68719000Y-66950160D01*
X68744964Y-67047061D01*
X68795124Y-67133940D01*
X68811184Y-67150000D01*
X67838000Y-67150000D01*
X67838000Y-67709844D01*
X63290450Y-67709844D01*
X62349319Y-66768713D01*
X62315834Y-66707390D01*
X62313000Y-66681032D01*
X62313000Y-53109443D01*
X62332685Y-53042404D01*
X62385489Y-52996649D01*
X62397990Y-52991738D01*
X62494334Y-52959814D01*
X62643655Y-52867711D01*
X62767711Y-52743655D01*
X62859814Y-52594334D01*
X62914999Y-52427797D01*
X62925500Y-52325008D01*
X62925500Y-50318968D01*
X62945185Y-50251929D01*
X62961819Y-50231287D01*
X63056287Y-50136819D01*
X63117610Y-50103334D01*
X63143968Y-50100500D01*
X68989778Y-50100500D01*
X71434643Y-50100500D01*
X71434667Y-50100501D01*
X71439778Y-50100501D01*
X71660221Y-50100501D01*
X71660222Y-50100501D01*
X71877951Y-50066015D01*
X72087606Y-49997895D01*
X72284022Y-49897815D01*
X72345076Y-49853457D01*
X72462365Y-49768242D01*
X72618242Y-49612365D01*
X72618243Y-49612363D01*
X72625303Y-49605303D01*
X72625309Y-49605296D01*
X72720735Y-49509870D01*
X108687500Y-49509870D01*
X108687501Y-49509876D01*
X108693908Y-49569483D01*
X108744202Y-49704328D01*
X108744206Y-49704335D01*
X108801349Y-49780667D01*
X108830454Y-49819546D01*
X108945669Y-49905796D01*
X108945670Y-49905796D01*
X108949811Y-49908896D01*
X108991682Y-49964830D01*
X108999500Y-50008163D01*
X108999500Y-64543621D01*
X109036024Y-64727242D01*
X109036027Y-64727251D01*
X109107673Y-64900223D01*
X109107680Y-64900236D01*
X109211697Y-65055907D01*
X109211700Y-65055911D01*
X109582109Y-65426319D01*
X109615594Y-65487642D01*
X109610610Y-65557333D01*
X109568739Y-65613267D01*
X109503274Y-65637684D01*
X109494428Y-65638000D01*
X109140155Y-65638000D01*
X109080627Y-65644401D01*
X109080620Y-65644403D01*
X108945913Y-65694645D01*
X108945906Y-65694649D01*
X108830812Y-65780809D01*
X108830809Y-65780812D01*
X108744649Y-65895906D01*
X108744645Y-65895913D01*
X108694403Y-66030620D01*
X108694401Y-66030627D01*
X108688000Y-66090155D01*
X108688000Y-66650000D01*
X109661184Y-66650000D01*
X109645124Y-66666060D01*
X109594964Y-66752939D01*
X109569000Y-66849840D01*
X109569000Y-66950160D01*
X109594964Y-67047061D01*
X109645124Y-67133940D01*
X109661184Y-67150000D01*
X108688000Y-67150000D01*
X108688000Y-67709844D01*
X108694401Y-67769372D01*
X108694403Y-67769379D01*
X108744645Y-67904086D01*
X108744649Y-67904093D01*
X108830809Y-68019187D01*
X108830812Y-68019190D01*
X108945906Y-68105350D01*
X108945913Y-68105354D01*
X109080620Y-68155596D01*
X109080627Y-68155598D01*
X109140155Y-68161999D01*
X109140172Y-68162000D01*
X109700000Y-68162000D01*
X109700000Y-67188816D01*
X109716060Y-67204876D01*
X109802939Y-67255036D01*
X109899840Y-67281000D01*
X110000160Y-67281000D01*
X110097061Y-67255036D01*
X110183940Y-67204876D01*
X110200000Y-67188816D01*
X110200000Y-68162000D01*
X110759828Y-68162000D01*
X110759844Y-68161999D01*
X110819372Y-68155598D01*
X110819379Y-68155596D01*
X110954086Y-68105354D01*
X110954093Y-68105350D01*
X111069187Y-68019190D01*
X111069190Y-68019187D01*
X111155350Y-67904093D01*
X111155354Y-67904086D01*
X111205596Y-67769379D01*
X111205598Y-67769372D01*
X111211999Y-67709844D01*
X111212000Y-67709827D01*
X111212000Y-67355572D01*
X111231685Y-67288533D01*
X111284489Y-67242778D01*
X111353647Y-67232834D01*
X111417203Y-67261859D01*
X111423681Y-67267891D01*
X117363181Y-73207391D01*
X117396666Y-73268714D01*
X117399500Y-73295072D01*
X117399500Y-74050001D01*
X117399501Y-74050019D01*
X117410000Y-74152796D01*
X117410001Y-74152799D01*
X117452302Y-74280452D01*
X117465186Y-74319334D01*
X117556737Y-74467763D01*
X117557289Y-74468657D01*
X117681344Y-74592712D01*
X117836558Y-74688448D01*
X117883283Y-74740396D01*
X117894506Y-74809358D01*
X117866663Y-74873441D01*
X117859144Y-74881668D01*
X117720271Y-75020541D01*
X117595379Y-75192442D01*
X117498904Y-75381782D01*
X117433242Y-75583870D01*
X117433242Y-75583873D01*
X117422769Y-75650000D01*
X118466988Y-75650000D01*
X118434075Y-75707007D01*
X118400000Y-75834174D01*
X118400000Y-75965826D01*
X118434075Y-76092993D01*
X118466988Y-76150000D01*
X117422769Y-76150000D01*
X117433242Y-76216126D01*
X117433242Y-76216129D01*
X117498904Y-76418217D01*
X117595379Y-76607557D01*
X117720272Y-76779459D01*
X117720276Y-76779464D01*
X117870535Y-76929723D01*
X117870540Y-76929727D01*
X118042442Y-77054620D01*
X118231782Y-77151095D01*
X118433870Y-77216757D01*
X118643754Y-77250000D01*
X118650000Y-77250000D01*
X118650000Y-76333012D01*
X118707007Y-76365925D01*
X118834174Y-76400000D01*
X118965826Y-76400000D01*
X119092993Y-76365925D01*
X119150000Y-76333012D01*
X119150000Y-77250000D01*
X119156246Y-77250000D01*
X119366127Y-77216757D01*
X119366130Y-77216757D01*
X119568217Y-77151095D01*
X119757557Y-77054620D01*
X119929459Y-76929727D01*
X119929464Y-76929723D01*
X120079723Y-76779464D01*
X120079727Y-76779459D01*
X120204620Y-76607557D01*
X120301095Y-76418217D01*
X120366757Y-76216129D01*
X120366757Y-76216126D01*
X120377231Y-76150000D01*
X119333012Y-76150000D01*
X119365925Y-76092993D01*
X119400000Y-75965826D01*
X119400000Y-75834174D01*
X119365925Y-75707007D01*
X119333012Y-75650000D01*
X120377231Y-75650000D01*
X120366757Y-75583873D01*
X120366757Y-75583870D01*
X120301095Y-75381782D01*
X120204620Y-75192442D01*
X120079727Y-75020540D01*
X120079723Y-75020535D01*
X119940856Y-74881668D01*
X119907371Y-74820345D01*
X119912355Y-74750653D01*
X119954227Y-74694720D01*
X119963441Y-74688448D01*
X119969331Y-74684814D01*
X119969334Y-74684814D01*
X120118656Y-74592712D01*
X120242712Y-74468656D01*
X120334814Y-74319334D01*
X120389999Y-74152797D01*
X120400500Y-74050009D01*
X120400499Y-72749992D01*
X120389999Y-72647203D01*
X120334814Y-72480666D01*
X120242712Y-72331344D01*
X120118656Y-72207288D01*
X119969334Y-72115186D01*
X119802797Y-72060001D01*
X119802795Y-72060000D01*
X119700016Y-72049500D01*
X119700009Y-72049500D01*
X118945072Y-72049500D01*
X118878033Y-72029815D01*
X118857391Y-72013181D01*
X110936819Y-64092609D01*
X110903334Y-64031286D01*
X110900500Y-64004928D01*
X110900500Y-56844072D01*
X110920185Y-56777033D01*
X110972989Y-56731278D01*
X111042147Y-56721334D01*
X111105703Y-56750359D01*
X111112181Y-56756391D01*
X117263181Y-62907391D01*
X117296666Y-62968714D01*
X117299500Y-62995072D01*
X117299500Y-63750001D01*
X117299501Y-63750019D01*
X117310000Y-63852796D01*
X117310001Y-63852799D01*
X117365185Y-64019331D01*
X117365187Y-64019336D01*
X117457289Y-64168657D01*
X117581344Y-64292712D01*
X117736558Y-64388448D01*
X117783283Y-64440396D01*
X117794506Y-64509358D01*
X117766663Y-64573441D01*
X117759144Y-64581668D01*
X117620271Y-64720541D01*
X117495379Y-64892442D01*
X117398904Y-65081782D01*
X117333242Y-65283870D01*
X117333242Y-65283873D01*
X117322769Y-65350000D01*
X118366988Y-65350000D01*
X118334075Y-65407007D01*
X118300000Y-65534174D01*
X118300000Y-65665826D01*
X118334075Y-65792993D01*
X118366988Y-65850000D01*
X117322769Y-65850000D01*
X117333242Y-65916126D01*
X117333242Y-65916129D01*
X117398904Y-66118217D01*
X117495379Y-66307557D01*
X117620272Y-66479459D01*
X117620276Y-66479464D01*
X117770535Y-66629723D01*
X117770540Y-66629727D01*
X117942442Y-66754620D01*
X118131782Y-66851095D01*
X118333870Y-66916757D01*
X118543754Y-66950000D01*
X118550000Y-66950000D01*
X118550000Y-66033012D01*
X118607007Y-66065925D01*
X118734174Y-66100000D01*
X118865826Y-66100000D01*
X118992993Y-66065925D01*
X119050000Y-66033012D01*
X119050000Y-66950000D01*
X119056246Y-66950000D01*
X119266127Y-66916757D01*
X119266130Y-66916757D01*
X119468217Y-66851095D01*
X119657557Y-66754620D01*
X119829459Y-66629727D01*
X119829464Y-66629723D01*
X119979723Y-66479464D01*
X119979727Y-66479459D01*
X120104620Y-66307557D01*
X120201095Y-66118217D01*
X120266757Y-65916129D01*
X120266757Y-65916126D01*
X120277231Y-65850000D01*
X119233012Y-65850000D01*
X119265925Y-65792993D01*
X119300000Y-65665826D01*
X119300000Y-65534174D01*
X119265925Y-65407007D01*
X119233012Y-65350000D01*
X120277231Y-65350000D01*
X120266757Y-65283873D01*
X120266757Y-65283870D01*
X120201095Y-65081782D01*
X120104620Y-64892442D01*
X119979727Y-64720540D01*
X119979723Y-64720535D01*
X119840856Y-64581668D01*
X119807371Y-64520345D01*
X119812355Y-64450653D01*
X119854227Y-64394720D01*
X119863441Y-64388448D01*
X119869331Y-64384814D01*
X119869334Y-64384814D01*
X120018656Y-64292712D01*
X120142712Y-64168656D01*
X120234814Y-64019334D01*
X120289999Y-63852797D01*
X120300500Y-63750009D01*
X120300499Y-62449992D01*
X120289999Y-62347203D01*
X120234814Y-62180666D01*
X120142712Y-62031344D01*
X120018656Y-61907288D01*
X119869334Y-61815186D01*
X119702797Y-61760001D01*
X119702795Y-61760000D01*
X119600016Y-61749500D01*
X119600009Y-61749500D01*
X118845072Y-61749500D01*
X118778033Y-61729815D01*
X118757391Y-61713181D01*
X110936819Y-53892609D01*
X110903334Y-53831286D01*
X110900500Y-53804928D01*
X110900500Y-50008163D01*
X110920185Y-49941124D01*
X110950189Y-49908896D01*
X110954329Y-49905796D01*
X110954331Y-49905796D01*
X111069546Y-49819546D01*
X111126324Y-49743700D01*
X111158898Y-49700188D01*
X111214832Y-49658318D01*
X111258164Y-49650500D01*
X113506383Y-49650500D01*
X113693617Y-49650500D01*
X113954928Y-49650500D01*
X114021967Y-49670185D01*
X114042609Y-49686819D01*
X117263181Y-52907391D01*
X117296666Y-52968714D01*
X117299500Y-52995072D01*
X117299500Y-53750001D01*
X117299501Y-53750019D01*
X117310000Y-53852796D01*
X117310001Y-53852799D01*
X117311158Y-53856290D01*
X117365186Y-54019334D01*
X117454258Y-54163744D01*
X117457289Y-54168657D01*
X117581344Y-54292712D01*
X117736558Y-54388448D01*
X117783283Y-54440396D01*
X117794506Y-54509358D01*
X117766663Y-54573441D01*
X117759144Y-54581668D01*
X117620271Y-54720541D01*
X117495379Y-54892442D01*
X117398904Y-55081782D01*
X117333242Y-55283870D01*
X117333242Y-55283873D01*
X117322769Y-55350000D01*
X118366988Y-55350000D01*
X118334075Y-55407007D01*
X118300000Y-55534174D01*
X118300000Y-55665826D01*
X118334075Y-55792993D01*
X118366988Y-55850000D01*
X117322769Y-55850000D01*
X117333242Y-55916126D01*
X117333242Y-55916129D01*
X117398904Y-56118217D01*
X117495379Y-56307557D01*
X117620272Y-56479459D01*
X117620276Y-56479464D01*
X117770535Y-56629723D01*
X117770540Y-56629727D01*
X117942442Y-56754620D01*
X118131782Y-56851095D01*
X118333870Y-56916757D01*
X118543754Y-56950000D01*
X118550000Y-56950000D01*
X118550000Y-56033012D01*
X118607007Y-56065925D01*
X118734174Y-56100000D01*
X118865826Y-56100000D01*
X118992993Y-56065925D01*
X119050000Y-56033012D01*
X119050000Y-56950000D01*
X119056246Y-56950000D01*
X119266127Y-56916757D01*
X119266130Y-56916757D01*
X119468217Y-56851095D01*
X119657557Y-56754620D01*
X119829459Y-56629727D01*
X119829464Y-56629723D01*
X119979723Y-56479464D01*
X119979727Y-56479459D01*
X120104620Y-56307557D01*
X120201095Y-56118217D01*
X120266757Y-55916129D01*
X120266757Y-55916126D01*
X120277231Y-55850000D01*
X119233012Y-55850000D01*
X119265925Y-55792993D01*
X119300000Y-55665826D01*
X119300000Y-55534174D01*
X119265925Y-55407007D01*
X119233012Y-55350000D01*
X120277231Y-55350000D01*
X120266757Y-55283873D01*
X120266757Y-55283870D01*
X120201095Y-55081782D01*
X120104620Y-54892442D01*
X119979727Y-54720540D01*
X119979723Y-54720535D01*
X119840856Y-54581668D01*
X119807371Y-54520345D01*
X119812355Y-54450653D01*
X119854227Y-54394720D01*
X119863441Y-54388448D01*
X119869331Y-54384814D01*
X119869334Y-54384814D01*
X120018656Y-54292712D01*
X120142712Y-54168656D01*
X120234814Y-54019334D01*
X120289999Y-53852797D01*
X120300500Y-53750009D01*
X120300499Y-52449992D01*
X120289999Y-52347203D01*
X120234814Y-52180666D01*
X120142712Y-52031344D01*
X120018656Y-51907288D01*
X119869334Y-51815186D01*
X119702797Y-51760001D01*
X119702795Y-51760000D01*
X119600016Y-51749500D01*
X119600009Y-51749500D01*
X118845072Y-51749500D01*
X118778033Y-51729815D01*
X118757391Y-51713181D01*
X115431890Y-48387680D01*
X115398405Y-48326357D01*
X115403389Y-48256665D01*
X115431886Y-48212323D01*
X117388898Y-46255311D01*
X117450216Y-46221829D01*
X117519908Y-46226813D01*
X117575841Y-46268685D01*
X117594505Y-46304677D01*
X117598904Y-46318217D01*
X117695379Y-46507557D01*
X117820272Y-46679459D01*
X117820276Y-46679464D01*
X117970535Y-46829723D01*
X117970540Y-46829727D01*
X118142442Y-46954620D01*
X118331782Y-47051095D01*
X118533870Y-47116757D01*
X118743754Y-47150000D01*
X118750000Y-47150000D01*
X118750000Y-46233012D01*
X118807007Y-46265925D01*
X118934174Y-46300000D01*
X119065826Y-46300000D01*
X119192993Y-46265925D01*
X119250000Y-46233012D01*
X119250000Y-47150000D01*
X119256246Y-47150000D01*
X119466127Y-47116757D01*
X119466130Y-47116757D01*
X119668217Y-47051095D01*
X119857557Y-46954620D01*
X120029459Y-46829727D01*
X120029464Y-46829723D01*
X120179723Y-46679464D01*
X120179727Y-46679459D01*
X120304620Y-46507557D01*
X120401095Y-46318217D01*
X120466757Y-46116129D01*
X120466757Y-46116126D01*
X120477231Y-46050000D01*
X119433012Y-46050000D01*
X119465925Y-45992993D01*
X119500000Y-45865826D01*
X119500000Y-45734174D01*
X119465925Y-45607007D01*
X119433012Y-45550000D01*
X120477231Y-45550000D01*
X120466757Y-45483873D01*
X120466757Y-45483870D01*
X120401095Y-45281782D01*
X120304620Y-45092442D01*
X120179727Y-44920540D01*
X120179723Y-44920535D01*
X120040856Y-44781668D01*
X120007371Y-44720345D01*
X120012355Y-44650653D01*
X120054227Y-44594720D01*
X120063441Y-44588448D01*
X120069331Y-44584814D01*
X120069334Y-44584814D01*
X120218656Y-44492712D01*
X120342712Y-44368656D01*
X120434814Y-44219334D01*
X120489999Y-44052797D01*
X120500500Y-43950009D01*
X120500499Y-42649992D01*
X120489999Y-42547203D01*
X120434814Y-42380666D01*
X120342712Y-42231344D01*
X120218656Y-42107288D01*
X120069334Y-42015186D01*
X119902797Y-41960001D01*
X119902795Y-41960000D01*
X119800010Y-41949500D01*
X118199998Y-41949500D01*
X118199981Y-41949501D01*
X118097203Y-41960000D01*
X118097200Y-41960001D01*
X117930668Y-42015185D01*
X117930663Y-42015187D01*
X117781342Y-42107289D01*
X117657289Y-42231342D01*
X117565187Y-42380663D01*
X117565186Y-42380666D01*
X117510001Y-42547203D01*
X117510001Y-42547204D01*
X117510000Y-42547204D01*
X117499500Y-42649983D01*
X117499500Y-43404927D01*
X117479815Y-43471966D01*
X117463181Y-43492608D01*
X113242609Y-47713181D01*
X113181286Y-47746666D01*
X113154928Y-47749500D01*
X111258164Y-47749500D01*
X111191125Y-47729815D01*
X111158898Y-47699812D01*
X111081281Y-47596130D01*
X111069546Y-47580454D01*
X111069544Y-47580453D01*
X111069544Y-47580452D01*
X110954335Y-47494206D01*
X110954328Y-47494202D01*
X110819482Y-47443908D01*
X110819483Y-47443908D01*
X110759883Y-47437501D01*
X110759881Y-47437500D01*
X110759873Y-47437500D01*
X110759864Y-47437500D01*
X109140129Y-47437500D01*
X109140123Y-47437501D01*
X109080516Y-47443908D01*
X108945671Y-47494202D01*
X108945664Y-47494206D01*
X108830455Y-47580452D01*
X108830452Y-47580455D01*
X108744206Y-47695664D01*
X108744202Y-47695671D01*
X108693908Y-47830517D01*
X108687501Y-47890116D01*
X108687500Y-47890135D01*
X108687500Y-49509870D01*
X72720735Y-49509870D01*
X75850874Y-46379730D01*
X75912195Y-46346247D01*
X75946663Y-46343679D01*
X76249993Y-46363561D01*
X76250000Y-46363561D01*
X76250007Y-46363561D01*
X76496984Y-46347372D01*
X76558507Y-46343340D01*
X76861735Y-46283025D01*
X77154496Y-46183646D01*
X77431781Y-46046904D01*
X77642892Y-45905844D01*
X81092000Y-45905844D01*
X81098401Y-45965372D01*
X81098403Y-45965379D01*
X81148645Y-46100086D01*
X81148649Y-46100093D01*
X81234809Y-46215187D01*
X81234812Y-46215190D01*
X81349906Y-46301350D01*
X81349913Y-46301354D01*
X81484620Y-46351596D01*
X81484627Y-46351598D01*
X81544155Y-46357999D01*
X81544172Y-46358000D01*
X83200000Y-46358000D01*
X83200000Y-45327231D01*
X83343753Y-45350000D01*
X83556247Y-45350000D01*
X83700000Y-45327231D01*
X83700000Y-46358000D01*
X85355828Y-46358000D01*
X85355844Y-46357999D01*
X85415372Y-46351598D01*
X85415379Y-46351596D01*
X85550086Y-46301354D01*
X85550093Y-46301350D01*
X85665187Y-46215190D01*
X85665190Y-46215187D01*
X85751350Y-46100093D01*
X85751354Y-46100086D01*
X85801596Y-45965379D01*
X85801598Y-45965372D01*
X85807999Y-45905844D01*
X85808000Y-45905827D01*
X85808000Y-44250000D01*
X84777231Y-44250000D01*
X84800000Y-44106247D01*
X84800000Y-43893753D01*
X84777231Y-43750000D01*
X85808000Y-43750000D01*
X85808000Y-42094172D01*
X85807999Y-42094155D01*
X85801598Y-42034627D01*
X85801596Y-42034620D01*
X85751354Y-41899913D01*
X85751350Y-41899906D01*
X85665190Y-41784812D01*
X85665187Y-41784809D01*
X85550093Y-41698649D01*
X85550086Y-41698645D01*
X85415379Y-41648403D01*
X85415372Y-41648401D01*
X85355844Y-41642000D01*
X83700000Y-41642000D01*
X83700000Y-42672768D01*
X83556247Y-42650000D01*
X83343753Y-42650000D01*
X83200000Y-42672768D01*
X83200000Y-41642000D01*
X81544155Y-41642000D01*
X81484627Y-41648401D01*
X81484620Y-41648403D01*
X81349913Y-41698645D01*
X81349906Y-41698649D01*
X81234812Y-41784809D01*
X81234809Y-41784812D01*
X81148649Y-41899906D01*
X81148645Y-41899913D01*
X81098403Y-42034620D01*
X81098401Y-42034627D01*
X81092000Y-42094155D01*
X81092000Y-43750000D01*
X82122769Y-43750000D01*
X82100000Y-43893753D01*
X82100000Y-44106247D01*
X82122769Y-44250000D01*
X81092000Y-44250000D01*
X81092000Y-45905844D01*
X77642892Y-45905844D01*
X77688845Y-45875139D01*
X77921290Y-45671290D01*
X78125139Y-45438845D01*
X78296904Y-45181781D01*
X78433646Y-44904496D01*
X78533025Y-44611735D01*
X78593340Y-44308507D01*
X78606597Y-44106247D01*
X78613561Y-44000007D01*
X78613561Y-43999992D01*
X78593341Y-43691509D01*
X78593340Y-43691493D01*
X78533025Y-43388265D01*
X78433646Y-43095504D01*
X78433638Y-43095487D01*
X78296908Y-42818227D01*
X78296906Y-42818224D01*
X78296904Y-42818220D01*
X78125139Y-42561155D01*
X78112904Y-42547204D01*
X77921290Y-42328709D01*
X77688846Y-42124862D01*
X77662546Y-42107289D01*
X77431781Y-41953096D01*
X77431782Y-41953096D01*
X77431777Y-41953093D01*
X77154512Y-41816361D01*
X77154491Y-41816352D01*
X76861743Y-41716977D01*
X76861737Y-41716975D01*
X76861735Y-41716975D01*
X76558507Y-41656660D01*
X76558500Y-41656659D01*
X76558490Y-41656658D01*
X76250007Y-41636439D01*
X76249993Y-41636439D01*
X75941509Y-41656658D01*
X75941497Y-41656659D01*
X75941493Y-41656660D01*
X75941485Y-41656661D01*
X75941482Y-41656662D01*
X75638270Y-41716974D01*
X75638256Y-41716977D01*
X75345508Y-41816352D01*
X75345487Y-41816361D01*
X75068227Y-41953091D01*
X75068220Y-41953096D01*
X74811156Y-42124859D01*
X74578709Y-42328709D01*
X74374859Y-42561156D01*
X74203096Y-42818220D01*
X74203091Y-42818227D01*
X74066361Y-43095487D01*
X74066352Y-43095508D01*
X73966977Y-43388256D01*
X73966974Y-43388270D01*
X73906662Y-43691482D01*
X73906658Y-43691509D01*
X73886439Y-43999992D01*
X73886439Y-43999996D01*
X73886439Y-44000000D01*
X73902825Y-44250000D01*
X73906321Y-44303334D01*
X73891063Y-44371517D01*
X73870267Y-44399125D01*
X71006213Y-47263181D01*
X70944890Y-47296666D01*
X70918532Y-47299500D01*
X62627857Y-47299500D01*
X62627833Y-47299499D01*
X62622722Y-47299499D01*
X62402279Y-47299499D01*
X62343896Y-47308746D01*
X62274603Y-47299790D01*
X62221152Y-47254793D01*
X62200513Y-47188041D01*
X62200500Y-47186272D01*
X62200500Y-42939778D01*
X62181247Y-42818220D01*
X62166015Y-42722049D01*
X62131955Y-42617221D01*
X62097896Y-42512396D01*
X62097895Y-42512393D01*
X62063237Y-42444375D01*
X61997815Y-42315978D01*
X61936324Y-42231342D01*
X61868247Y-42137641D01*
X61868243Y-42137636D01*
X61712363Y-41981756D01*
X61712358Y-41981752D01*
X61534025Y-41852187D01*
X61534024Y-41852186D01*
X61534022Y-41852185D01*
X61463714Y-41816361D01*
X61337606Y-41752104D01*
X61337603Y-41752103D01*
X61127952Y-41683985D01*
X60983821Y-41661157D01*
X60910222Y-41649500D01*
X60689778Y-41649500D01*
X60644572Y-41656660D01*
X60472047Y-41683985D01*
X60262396Y-41752103D01*
X60262393Y-41752104D01*
X60065974Y-41852187D01*
X59887641Y-41981752D01*
X59887636Y-41981756D01*
X59731756Y-42137636D01*
X59731752Y-42137641D01*
X59602187Y-42315974D01*
X59502104Y-42512393D01*
X59502103Y-42512396D01*
X59433985Y-42722047D01*
X59399500Y-42939778D01*
X59399500Y-47529091D01*
X59379815Y-47596130D01*
X59335729Y-47634638D01*
X59336813Y-47636394D01*
X59181345Y-47732288D01*
X59057289Y-47856344D01*
X59057286Y-47856348D01*
X58965187Y-48005662D01*
X58965186Y-48005664D01*
X58910001Y-48172203D01*
X58910000Y-48172204D01*
X58899500Y-48274984D01*
X58899500Y-52325015D01*
X57900499Y-52325015D01*
X57900500Y-52325008D01*
X57900500Y-48274992D01*
X57889999Y-48172203D01*
X57834814Y-48005666D01*
X57763541Y-47890116D01*
X57742713Y-47856348D01*
X57742710Y-47856344D01*
X57618655Y-47732289D01*
X57618651Y-47732286D01*
X57469337Y-47640187D01*
X57469335Y-47640186D01*
X57386065Y-47612593D01*
X57302797Y-47585001D01*
X57302795Y-47585000D01*
X57200015Y-47574500D01*
X57200008Y-47574500D01*
X54574992Y-47574500D01*
X54574984Y-47574500D01*
X54472204Y-47585000D01*
X54472203Y-47585001D01*
X54305664Y-47640186D01*
X54305662Y-47640187D01*
X54156348Y-47732286D01*
X54156344Y-47732289D01*
X54032289Y-47856344D01*
X54032286Y-47856348D01*
X53940187Y-48005662D01*
X53940186Y-48005664D01*
X53885001Y-48172203D01*
X53885000Y-48172204D01*
X53874500Y-48274984D01*
X53874500Y-49375500D01*
X53854815Y-49442539D01*
X53802011Y-49488294D01*
X53750500Y-49499500D01*
X52647351Y-49499500D01*
X52580312Y-49479815D01*
X52543542Y-49443321D01*
X52473983Y-49336852D01*
X52473980Y-49336849D01*
X52473979Y-49336847D01*
X52316784Y-49166087D01*
X52316779Y-49166083D01*
X52316777Y-49166081D01*
X52133634Y-49023535D01*
X52133628Y-49023531D01*
X51929504Y-48913064D01*
X51929495Y-48913061D01*
X51709984Y-48837702D01*
X51522404Y-48806401D01*
X51481049Y-48799500D01*
X51248951Y-48799500D01*
X51207596Y-48806401D01*
X51020015Y-48837702D01*
X50800504Y-48913061D01*
X50800495Y-48913064D01*
X50596371Y-49023531D01*
X50596365Y-49023535D01*
X50413222Y-49166081D01*
X50413215Y-49166087D01*
X50404484Y-49175572D01*
X50344595Y-49211561D01*
X50274757Y-49209458D01*
X50217143Y-49169932D01*
X50197075Y-49134918D01*
X50168355Y-49057915D01*
X50168350Y-49057906D01*
X50082190Y-48942812D01*
X50082187Y-48942809D01*
X49967093Y-48856649D01*
X49967086Y-48856645D01*
X49832379Y-48806403D01*
X49832372Y-48806401D01*
X49772844Y-48800000D01*
X49075000Y-48800000D01*
X49075000Y-49824722D01*
X48998694Y-49780667D01*
X48884244Y-49750000D01*
X48765756Y-49750000D01*
X48651306Y-49780667D01*
X48575000Y-49824722D01*
X48575000Y-48800000D01*
X47877155Y-48800000D01*
X47817627Y-48806401D01*
X47817620Y-48806403D01*
X47682913Y-48856645D01*
X47682906Y-48856649D01*
X47567812Y-48942809D01*
X47567809Y-48942812D01*
X47481649Y-49057906D01*
X47481645Y-49057913D01*
X47431403Y-49192620D01*
X47431401Y-49192627D01*
X47425000Y-49252155D01*
X47425000Y-49950000D01*
X48449722Y-49950000D01*
X48405667Y-50026306D01*
X48375000Y-50140756D01*
X48375000Y-50259244D01*
X48405667Y-50373694D01*
X48449722Y-50450000D01*
X47425000Y-50450000D01*
X47425000Y-51147844D01*
X42280927Y-51147844D01*
X42272138Y-51140434D01*
X42272131Y-51140429D01*
X42070189Y-51021925D01*
X41940515Y-50972989D01*
X41851126Y-50939255D01*
X41851121Y-50939254D01*
X41851116Y-50939252D01*
X41848470Y-50938740D01*
X41847451Y-50938213D01*
X41846050Y-50937817D01*
X41846130Y-50937531D01*
X41786392Y-50906677D01*
X41751503Y-50846141D01*
X41754881Y-50776353D01*
X41795452Y-50719470D01*
X41860337Y-50693552D01*
X41872009Y-50692999D01*
X45397872Y-50692999D01*
X45457483Y-50686591D01*
X45592331Y-50636296D01*
X45707546Y-50550046D01*
X45793796Y-50434831D01*
X45844091Y-50299983D01*
X45850500Y-50240373D01*
X45850499Y-47931466D01*
X45870184Y-47864428D01*
X45886813Y-47843791D01*
X51668242Y-42062364D01*
X51797815Y-41884022D01*
X51897895Y-41687605D01*
X51966015Y-41477951D01*
X52000501Y-41260222D01*
X52000501Y-41039778D01*
X51966015Y-40822049D01*
X51897895Y-40612394D01*
X51897895Y-40612393D01*
X51797814Y-40415977D01*
X51744241Y-40342240D01*
X51668242Y-40237636D01*
X51545347Y-40114741D01*
X98249500Y-40114741D01*
X98274446Y-40304215D01*
X98279452Y-40342238D01*
X98338842Y-40563887D01*
X98426650Y-40775876D01*
X98426657Y-40775890D01*
X98541392Y-40974617D01*
X98681081Y-41156661D01*
X98681089Y-41156670D01*
X98843330Y-41318911D01*
X98843338Y-41318918D01*
X99025382Y-41458607D01*
X99025385Y-41458608D01*
X99025388Y-41458611D01*
X99224112Y-41573344D01*
X99224117Y-41573346D01*
X99224123Y-41573349D01*
X99315480Y-41611190D01*
X99436113Y-41661158D01*
X99657762Y-41720548D01*
X99885266Y-41750500D01*
X99885273Y-41750500D01*
X100114727Y-41750500D01*
X100114734Y-41750500D01*
X100342238Y-41720548D01*
X100563887Y-41661158D01*
X100775888Y-41573344D01*
X100974612Y-41458611D01*
X101156661Y-41318919D01*
X101156665Y-41318914D01*
X101156670Y-41318911D01*
X101318911Y-41156670D01*
X101318914Y-41156665D01*
X101318919Y-41156661D01*
X101458611Y-40974612D01*
X101573344Y-40775888D01*
X101661158Y-40563887D01*
X101720548Y-40342238D01*
X101750500Y-40114734D01*
X101750500Y-39885266D01*
X101720548Y-39657762D01*
X101661158Y-39436113D01*
X101573344Y-39224112D01*
X101458611Y-39025388D01*
X101458608Y-39025385D01*
X101458607Y-39025382D01*
X101318918Y-38843338D01*
X101318911Y-38843330D01*
X101156670Y-38681089D01*
X101156661Y-38681081D01*
X100974617Y-38541392D01*
X100775890Y-38426657D01*
X100775876Y-38426650D01*
X100563887Y-38338842D01*
X100342238Y-38279452D01*
X100304215Y-38274446D01*
X100114741Y-38249500D01*
X100114734Y-38249500D01*
X99885266Y-38249500D01*
X99885258Y-38249500D01*
X99668715Y-38278009D01*
X99657762Y-38279452D01*
X99564076Y-38304554D01*
X99436112Y-38338842D01*
X99224123Y-38426650D01*
X99224109Y-38426657D01*
X99025382Y-38541392D01*
X98843338Y-38681081D01*
X98681081Y-38843338D01*
X98541392Y-39025382D01*
X98426657Y-39224109D01*
X98426650Y-39224123D01*
X98338842Y-39436112D01*
X98279453Y-39657759D01*
X98279451Y-39657770D01*
X98249500Y-39885258D01*
X98249500Y-40114741D01*
X51545347Y-40114741D01*
X51512364Y-40081758D01*
X51334022Y-39952185D01*
X51137606Y-39852104D01*
X51137603Y-39852103D01*
X50927952Y-39783985D01*
X50819086Y-39766742D01*
X50710222Y-39749499D01*
X50489778Y-39749499D01*
X50417201Y-39760994D01*
X50272047Y-39783985D01*
X50062397Y-39852103D01*
X50062394Y-39852104D01*
X49865977Y-39952185D01*
X49687633Y-40081760D01*
X43613711Y-46155681D01*
X43552388Y-46189166D01*
X43526030Y-46192000D01*
X41802129Y-46192000D01*
X41802123Y-46192001D01*
X41742516Y-46198408D01*
X41607671Y-46248702D01*
X41607664Y-46248706D01*
X41492455Y-46334952D01*
X41492452Y-46334955D01*
X41406206Y-46450164D01*
X41406202Y-46450171D01*
X41355908Y-46585017D01*
X41349501Y-46644616D01*
X41349500Y-46644635D01*
X41349500Y-50240370D01*
X41349501Y-50240376D01*
X41355908Y-50299983D01*
X41406202Y-50434828D01*
X41406206Y-50434835D01*
X41492452Y-50550044D01*
X41492455Y-50550047D01*
X41607664Y-50636293D01*
X41607673Y-50636298D01*
X41654937Y-50653926D01*
X41710871Y-50695796D01*
X41735289Y-50761260D01*
X41720438Y-50829533D01*
X41671033Y-50878939D01*
X41605028Y-50893933D01*
X41568657Y-50892001D01*
X41568628Y-50892000D01*
X41568622Y-50892000D01*
X39631378Y-50892000D01*
X39631370Y-50892000D01*
X39631347Y-50892001D01*
X39578756Y-50894795D01*
X39578755Y-50894795D01*
X39348878Y-50939254D01*
X39348876Y-50939254D01*
X39348874Y-50939255D01*
X39274933Y-50967159D01*
X39129810Y-51021925D01*
X38927868Y-51140429D01*
X38927861Y-51140434D01*
X38748858Y-51291356D01*
X38748856Y-51291358D01*
X38597934Y-51470361D01*
X38597929Y-51470368D01*
X38479425Y-51672310D01*
X38446333Y-51760000D01*
X38396755Y-51891374D01*
X38396754Y-51891376D01*
X38396754Y-51891378D01*
X38352295Y-52121255D01*
X38352295Y-52121256D01*
X38349501Y-52173847D01*
X38349500Y-52173886D01*
X38349500Y-54111113D01*
X27700000Y-54111113D01*
X27700000Y-48192500D01*
X35600000Y-48192500D01*
X37100000Y-48192500D01*
X37100000Y-48692500D01*
X35600001Y-48692500D01*
X35600001Y-49506697D01*
X35610400Y-49638832D01*
X35665377Y-49857019D01*
X35758428Y-50061874D01*
X35758431Y-50061880D01*
X35886559Y-50246823D01*
X35886569Y-50246835D01*
X36045664Y-50405930D01*
X36045676Y-50405940D01*
X36230619Y-50534068D01*
X36230625Y-50534071D01*
X36435480Y-50627122D01*
X36653667Y-50682099D01*
X36785810Y-50692499D01*
X37349999Y-50692499D01*
X37350000Y-50692498D01*
X37350000Y-49875512D01*
X37407007Y-49908425D01*
X37534174Y-49942500D01*
X37665826Y-49942500D01*
X37792993Y-49908425D01*
X37850000Y-49875512D01*
X37850000Y-50692499D01*
X38414182Y-50692499D01*
X38414197Y-50692498D01*
X38546332Y-50682099D01*
X38764519Y-50627122D01*
X38969374Y-50534071D01*
X38969380Y-50534068D01*
X39154323Y-50405940D01*
X39154335Y-50405930D01*
X39313430Y-50246835D01*
X39313440Y-50246823D01*
X39441568Y-50061880D01*
X39441571Y-50061874D01*
X39534622Y-49857019D01*
X39589599Y-49638832D01*
X39599999Y-49506696D01*
X39600000Y-49506684D01*
X39600000Y-48692500D01*
X38100000Y-48692500D01*
X38100000Y-48192500D01*
X39599999Y-48192500D01*
X39599999Y-47378317D01*
X39599998Y-47378302D01*
X39589599Y-47246167D01*
X39534622Y-47027980D01*
X39441571Y-46823125D01*
X39441568Y-46823119D01*
X39313440Y-46638176D01*
X39313430Y-46638164D01*
X39154335Y-46479069D01*
X39154323Y-46479059D01*
X38969380Y-46350931D01*
X38969374Y-46350928D01*
X38764519Y-46257877D01*
X38546332Y-46202900D01*
X38414196Y-46192500D01*
X37850000Y-46192500D01*
X37850000Y-47009488D01*
X37792993Y-46976575D01*
X37665826Y-46942500D01*
X37534174Y-46942500D01*
X37407007Y-46976575D01*
X37350000Y-47009488D01*
X37350000Y-46192500D01*
X36785817Y-46192500D01*
X36785802Y-46192501D01*
X36653667Y-46202900D01*
X36435480Y-46257877D01*
X36230625Y-46350928D01*
X36230619Y-46350931D01*
X36045676Y-46479059D01*
X36045664Y-46479069D01*
X35886569Y-46638164D01*
X35886559Y-46638176D01*
X35758431Y-46823119D01*
X35758428Y-46823125D01*
X35665377Y-47027980D01*
X35610400Y-47246167D01*
X35600000Y-47378303D01*
X35600000Y-48192500D01*
X27700000Y-48192500D01*
X27700000Y-40114741D01*
X38249500Y-40114741D01*
X38274446Y-40304215D01*
X38279452Y-40342238D01*
X38338842Y-40563887D01*
X38426650Y-40775876D01*
X38426657Y-40775890D01*
X38541392Y-40974617D01*
X38681081Y-41156661D01*
X38681089Y-41156670D01*
X38843330Y-41318911D01*
X38843338Y-41318918D01*
X39025382Y-41458607D01*
X39025385Y-41458608D01*
X39025388Y-41458611D01*
X39224112Y-41573344D01*
X39224117Y-41573346D01*
X39224123Y-41573349D01*
X39315480Y-41611190D01*
X39436113Y-41661158D01*
X39657762Y-41720548D01*
X39885266Y-41750500D01*
X39885273Y-41750500D01*
X40114727Y-41750500D01*
X40114734Y-41750500D01*
X40342238Y-41720548D01*
X40563887Y-41661158D01*
X40775888Y-41573344D01*
X40974612Y-41458611D01*
X41156661Y-41318919D01*
X41156665Y-41318914D01*
X41156670Y-41318911D01*
X41318911Y-41156670D01*
X41318914Y-41156665D01*
X41318919Y-41156661D01*
X41458611Y-40974612D01*
X41573344Y-40775888D01*
X41661158Y-40563887D01*
X41720548Y-40342238D01*
X41750500Y-40114734D01*
X41750500Y-39885266D01*
X41720548Y-39657762D01*
X41661158Y-39436113D01*
X41573344Y-39224112D01*
X41458611Y-39025388D01*
X41458608Y-39025385D01*
X41458607Y-39025382D01*
X41318918Y-38843338D01*
X41318911Y-38843330D01*
X41162192Y-38686611D01*
X71999500Y-38686611D01*
X72026598Y-38857701D01*
X72080127Y-39022445D01*
X72158768Y-39176788D01*
X72260586Y-39316928D01*
X72383072Y-39439414D01*
X72523212Y-39541232D01*
X72677555Y-39619873D01*
X72842299Y-39673402D01*
X73013389Y-39700500D01*
X73013390Y-39700500D01*
X73186610Y-39700500D01*
X73186611Y-39700500D01*
X73357701Y-39673402D01*
X73522445Y-39619873D01*
X73676788Y-39541232D01*
X73816928Y-39439414D01*
X73939414Y-39316928D01*
X74041232Y-39176788D01*
X74119873Y-39022445D01*
X74173402Y-38857701D01*
X74200500Y-38686611D01*
X85499500Y-38686611D01*
X85526598Y-38857701D01*
X85580127Y-39022445D01*
X85658768Y-39176788D01*
X85760586Y-39316928D01*
X85883072Y-39439414D01*
X86023212Y-39541232D01*
X86177555Y-39619873D01*
X86342299Y-39673402D01*
X86513389Y-39700500D01*
X86513390Y-39700500D01*
X86686610Y-39700500D01*
X86686611Y-39700500D01*
X86857701Y-39673402D01*
X87022445Y-39619873D01*
X87176788Y-39541232D01*
X87316928Y-39439414D01*
X87439414Y-39316928D01*
X87541232Y-39176788D01*
X87619873Y-39022445D01*
X87673402Y-38857701D01*
X87700500Y-38686611D01*
X87700500Y-37313389D01*
X87673402Y-37142299D01*
X87619873Y-36977555D01*
X87541232Y-36823212D01*
X87439414Y-36683072D01*
X87316928Y-36560586D01*
X87176788Y-36458768D01*
X87022445Y-36380127D01*
X86857701Y-36326598D01*
X86857699Y-36326597D01*
X86857698Y-36326597D01*
X86726271Y-36305781D01*
X86686611Y-36299500D01*
X86513389Y-36299500D01*
X86473728Y-36305781D01*
X86342302Y-36326597D01*
X86177552Y-36380128D01*
X86023211Y-36458768D01*
X85943256Y-36516859D01*
X85883072Y-36560586D01*
X85883070Y-36560588D01*
X85883069Y-36560588D01*
X85760588Y-36683069D01*
X85760588Y-36683070D01*
X85760586Y-36683072D01*
X85716859Y-36743256D01*
X85658768Y-36823211D01*
X85580128Y-36977552D01*
X85526597Y-37142302D01*
X85499500Y-37313389D01*
X85499500Y-38686611D01*
X74200500Y-38686611D01*
X74200500Y-37313389D01*
X74173402Y-37142299D01*
X74119873Y-36977555D01*
X74041232Y-36823212D01*
X73939414Y-36683072D01*
X73816928Y-36560586D01*
X73676788Y-36458768D01*
X73522445Y-36380127D01*
X73357701Y-36326598D01*
X73357699Y-36326597D01*
X73357698Y-36326597D01*
X73226271Y-36305781D01*
X73186611Y-36299500D01*
X73013389Y-36299500D01*
X72973728Y-36305781D01*
X72842302Y-36326597D01*
X72677552Y-36380128D01*
X72523211Y-36458768D01*
X72443256Y-36516859D01*
X72383072Y-36560586D01*
X72383070Y-36560588D01*
X72383069Y-36560588D01*
X72260588Y-36683069D01*
X72260588Y-36683070D01*
X72260586Y-36683072D01*
X72216859Y-36743256D01*
X72158768Y-36823211D01*
X72080128Y-36977552D01*
X72026597Y-37142302D01*
X71999500Y-37313389D01*
X71999500Y-38686611D01*
X41162192Y-38686611D01*
X41156670Y-38681089D01*
X41156661Y-38681081D01*
X40974617Y-38541392D01*
X40775890Y-38426657D01*
X40775876Y-38426650D01*
X40563887Y-38338842D01*
X40342238Y-38279452D01*
X40304215Y-38274446D01*
X40114741Y-38249500D01*
X40114734Y-38249500D01*
X39885266Y-38249500D01*
X39885258Y-38249500D01*
X39668715Y-38278009D01*
X39657762Y-38279452D01*
X39564076Y-38304554D01*
X39436112Y-38338842D01*
X39224123Y-38426650D01*
X39224109Y-38426657D01*
X39025382Y-38541392D01*
X38843338Y-38681081D01*
X38681081Y-38843338D01*
X38541392Y-39025382D01*
X38426657Y-39224109D01*
X38426650Y-39224123D01*
X38338842Y-39436112D01*
X38279453Y-39657759D01*
X38279451Y-39657770D01*
X38249500Y-39885258D01*
X38249500Y-40114741D01*
X27700000Y-40114741D01*
X27700000Y-36024000D01*
X27719685Y-35956961D01*
X27772489Y-35911206D01*
X27824000Y-35900000D01*
X71700000Y-35900000D01*
X71700000Y-27724000D01*
X71719685Y-27656961D01*
X71772489Y-27611206D01*
X71824000Y-27600000D01*
X87876000Y-27600000D01*
X87943039Y-27619685D01*
G37*
%TD.AperFunction*%
%TD*%
M02*
