%TF.GenerationSoftware,KiCad,Pcbnew,8.0.0*%
%TF.CreationDate,2024-03-29T22:46:43+01:00*%
%TF.ProjectId,carte_generale,63617274-655f-4676-956e-6572616c652e,Cyril_ Eliott*%
%TF.SameCoordinates,Original*%
%TF.FileFunction,Copper,L2,Bot*%
%TF.FilePolarity,Positive*%
%FSLAX46Y46*%
G04 Gerber Fmt 4.6, Leading zero omitted, Abs format (unit mm)*
G04 Created by KiCad (PCBNEW 8.0.0) date 2024-03-29 22:46:43*
%MOMM*%
%LPD*%
G01*
G04 APERTURE LIST*
G04 Aperture macros list*
%AMRoundRect*
0 Rectangle with rounded corners*
0 $1 Rounding radius*
0 $2 $3 $4 $5 $6 $7 $8 $9 X,Y pos of 4 corners*
0 Add a 4 corners polygon primitive as box body*
4,1,4,$2,$3,$4,$5,$6,$7,$8,$9,$2,$3,0*
0 Add four circle primitives for the rounded corners*
1,1,$1+$1,$2,$3*
1,1,$1+$1,$4,$5*
1,1,$1+$1,$6,$7*
1,1,$1+$1,$8,$9*
0 Add four rect primitives between the rounded corners*
20,1,$1+$1,$2,$3,$4,$5,0*
20,1,$1+$1,$4,$5,$6,$7,0*
20,1,$1+$1,$6,$7,$8,$9,0*
20,1,$1+$1,$8,$9,$2,$3,0*%
G04 Aperture macros list end*
%TA.AperFunction,ComponentPad*%
%ADD10R,1.524000X1.524000*%
%TD*%
%TA.AperFunction,ComponentPad*%
%ADD11RoundRect,0.250000X-0.600000X-0.750000X0.600000X-0.750000X0.600000X0.750000X-0.600000X0.750000X0*%
%TD*%
%TA.AperFunction,ComponentPad*%
%ADD12O,1.700000X2.000000*%
%TD*%
%TA.AperFunction,ComponentPad*%
%ADD13R,1.530000X1.530000*%
%TD*%
%TA.AperFunction,ComponentPad*%
%ADD14C,1.530000*%
%TD*%
%TA.AperFunction,ComponentPad*%
%ADD15RoundRect,0.250000X-0.725000X0.600000X-0.725000X-0.600000X0.725000X-0.600000X0.725000X0.600000X0*%
%TD*%
%TA.AperFunction,ComponentPad*%
%ADD16O,1.950000X1.700000*%
%TD*%
%TA.AperFunction,ComponentPad*%
%ADD17RoundRect,0.250000X-0.600000X-0.725000X0.600000X-0.725000X0.600000X0.725000X-0.600000X0.725000X0*%
%TD*%
%TA.AperFunction,ComponentPad*%
%ADD18O,1.700000X1.950000*%
%TD*%
%TA.AperFunction,ComponentPad*%
%ADD19RoundRect,0.250000X-0.750000X0.600000X-0.750000X-0.600000X0.750000X-0.600000X0.750000X0.600000X0*%
%TD*%
%TA.AperFunction,ComponentPad*%
%ADD20O,2.000000X1.700000*%
%TD*%
%TA.AperFunction,ComponentPad*%
%ADD21R,1.800000X1.800000*%
%TD*%
%TA.AperFunction,ComponentPad*%
%ADD22C,1.800000*%
%TD*%
%TA.AperFunction,ComponentPad*%
%ADD23RoundRect,0.425000X-0.425000X-0.550000X0.425000X-0.550000X0.425000X0.550000X-0.425000X0.550000X0*%
%TD*%
%TA.AperFunction,ComponentPad*%
%ADD24RoundRect,0.425000X0.425000X0.550000X-0.425000X0.550000X-0.425000X-0.550000X0.425000X-0.550000X0*%
%TD*%
%TA.AperFunction,ViaPad*%
%ADD25C,0.800000*%
%TD*%
%TA.AperFunction,Conductor*%
%ADD26C,0.250000*%
%TD*%
%TA.AperFunction,Conductor*%
%ADD27C,0.300000*%
%TD*%
%TA.AperFunction,Conductor*%
%ADD28C,1.000000*%
%TD*%
G04 APERTURE END LIST*
D10*
%TO.P,U1,1,IN+*%
%TO.N,V_5V*%
X167640000Y-65507600D03*
%TO.P,U1,2,IN-*%
%TO.N,GND*%
X148240000Y-65507600D03*
%TO.P,U1,3,OUT+*%
%TO.N,V_9V*%
X167640000Y-106907600D03*
%TO.P,U1,4,OUT-*%
%TO.N,GND*%
X148240000Y-106907600D03*
%TD*%
%TO.P,U5,1*%
%TO.N,BINARY_1*%
X202692000Y-108839000D03*
%TO.P,U5,2*%
%TO.N,BINARY_2*%
X205232000Y-108839000D03*
%TO.P,U5,3*%
%TO.N,BINARY_3*%
X207772000Y-108839000D03*
%TO.P,U5,4*%
%TO.N,SELECT_EQUIPE*%
X210312000Y-108839000D03*
%TO.P,U5,5*%
%TO.N,Net-(R2-Pad1)*%
X210312000Y-101219000D03*
%TO.P,U5,6*%
X207772000Y-101219000D03*
%TO.P,U5,7*%
X205232000Y-101219000D03*
%TO.P,U5,8*%
X202692000Y-101219000D03*
%TD*%
D11*
%TO.P,J1,1,Pin_1*%
%TO.N,V_5V*%
X171896400Y-64109600D03*
D12*
%TO.P,J1,2,Pin_2*%
%TO.N,GND*%
X174396400Y-64109600D03*
%TD*%
D13*
%TO.P,U3,1,~ENABLE*%
%TO.N,unconnected-(U3-~ENABLE-Pad1)*%
X172085000Y-83185000D03*
D14*
%TO.P,U3,2,MS1*%
%TO.N,unconnected-(U3-MS1-Pad2)*%
X174625000Y-83185000D03*
%TO.P,U3,3,MS2*%
%TO.N,unconnected-(U3-MS2-Pad3)*%
X177165000Y-83185000D03*
%TO.P,U3,4,MS3*%
%TO.N,unconnected-(U3-MS3-Pad4)*%
X179705000Y-83185000D03*
%TO.P,U3,5,~RESET*%
%TO.N,Net-(U3-~RESET)*%
X182245000Y-83185000D03*
%TO.P,U3,6,~SLEEP*%
X184785000Y-83185000D03*
%TO.P,U3,7,STEP*%
%TO.N,STEP2*%
X187325000Y-83185000D03*
%TO.P,U3,8,DIRECTION*%
%TO.N,DIR2*%
X189865000Y-83185000D03*
%TO.P,U3,9,VMOT*%
%TO.N,V_9V*%
X189865000Y-70485000D03*
%TO.P,U3,10,GND*%
%TO.N,GND*%
X187325000Y-70485000D03*
%TO.P,U3,11,2B*%
%TO.N,M2_B-*%
X184785000Y-70485000D03*
%TO.P,U3,12,2A*%
%TO.N,M2_B+*%
X182245000Y-70485000D03*
%TO.P,U3,13,1A*%
%TO.N,M2_A+*%
X179705000Y-70485000D03*
%TO.P,U3,14,1B*%
%TO.N,M2_A-*%
X177165000Y-70485000D03*
%TO.P,U3,15,VDD*%
%TO.N,V_5V*%
X174625000Y-70485000D03*
%TO.P,U3,16,GND*%
%TO.N,GND*%
X172085000Y-70485000D03*
%TD*%
D15*
%TO.P,J7,1,Pin_1*%
%TO.N,V_5V*%
X243459000Y-64262000D03*
D16*
%TO.P,J7,2,Pin_2*%
%TO.N,UART2_RX*%
X243459000Y-66762000D03*
%TO.P,J7,3,Pin_3*%
%TO.N,UART2_TX*%
X243459000Y-69262000D03*
%TO.P,J7,4,Pin_4*%
%TO.N,GND*%
X243459000Y-71762000D03*
%TD*%
D17*
%TO.P,J2,1,Pin_1*%
%TO.N,V_5V*%
X210947000Y-64135000D03*
D18*
%TO.P,J2,2,Pin_2*%
%TO.N,I2C1_SCL*%
X213447000Y-64135000D03*
%TO.P,J2,3,Pin_3*%
%TO.N,I2C1_SDA*%
X215947000Y-64135000D03*
%TO.P,J2,4,Pin_4*%
%TO.N,XSDN1*%
X218447000Y-64135000D03*
%TO.P,J2,5,Pin_5*%
%TO.N,GND*%
X220947000Y-64135000D03*
%TD*%
D19*
%TO.P,J8,1,Pin_1*%
%TO.N,V_5V*%
X243500000Y-103500000D03*
D20*
%TO.P,J8,2,Pin_2*%
%TO.N,TIRETTE*%
X243500000Y-106000000D03*
%TD*%
D21*
%TO.P,D2,1,K*%
%TO.N,MUX_INPUT_2*%
X233045000Y-106045000D03*
D22*
%TO.P,D2,2,A*%
%TO.N,V_5V*%
X233045000Y-103505000D03*
%TD*%
D13*
%TO.P,U2,1,~ENABLE*%
%TO.N,unconnected-(U2-~ENABLE-Pad1)*%
X189865000Y-87630000D03*
D14*
%TO.P,U2,2,MS1*%
%TO.N,unconnected-(U2-MS1-Pad2)*%
X187325000Y-87630000D03*
%TO.P,U2,3,MS2*%
%TO.N,unconnected-(U2-MS2-Pad3)*%
X184785000Y-87630000D03*
%TO.P,U2,4,MS3*%
%TO.N,unconnected-(U2-MS3-Pad4)*%
X182245000Y-87630000D03*
%TO.P,U2,5,~RESET*%
%TO.N,Net-(U2-~RESET)*%
X179705000Y-87630000D03*
%TO.P,U2,6,~SLEEP*%
X177165000Y-87630000D03*
%TO.P,U2,7,STEP*%
%TO.N,STEP1*%
X174625000Y-87630000D03*
%TO.P,U2,8,DIRECTION*%
%TO.N,DIR1*%
X172085000Y-87630000D03*
%TO.P,U2,9,VMOT*%
%TO.N,V_9V*%
X172085000Y-100330000D03*
%TO.P,U2,10,GND*%
%TO.N,GND*%
X174625000Y-100330000D03*
%TO.P,U2,11,2B*%
%TO.N,M1_B-*%
X177165000Y-100330000D03*
%TO.P,U2,12,2A*%
%TO.N,M1_B+*%
X179705000Y-100330000D03*
%TO.P,U2,13,1A*%
%TO.N,M1_A+*%
X182245000Y-100330000D03*
%TO.P,U2,14,1B*%
%TO.N,M1_A-*%
X184785000Y-100330000D03*
%TO.P,U2,15,VDD*%
%TO.N,V_5V*%
X187325000Y-100330000D03*
%TO.P,U2,16,GND*%
%TO.N,GND*%
X189865000Y-100330000D03*
%TD*%
D21*
%TO.P,D1,1,K*%
%TO.N,MUX_INPUT_1*%
X224790000Y-106045000D03*
D22*
%TO.P,D1,2,A*%
%TO.N,V_5V*%
X224790000Y-103505000D03*
%TD*%
D23*
%TO.P,J6,1,Pin_1*%
%TO.N,M2_B-*%
X188195600Y-64135000D03*
D18*
%TO.P,J6,2,Pin_2*%
%TO.N,M2_B+*%
X185695600Y-64135000D03*
%TO.P,J6,3,Pin_3*%
%TO.N,M2_A+*%
X183195600Y-64135000D03*
%TO.P,J6,4,Pin_4*%
%TO.N,M2_A-*%
X180695600Y-64135000D03*
%TD*%
D17*
%TO.P,J4,1,Pin_1*%
%TO.N,V_5V*%
X194771000Y-64135000D03*
D18*
%TO.P,J4,2,Pin_2*%
%TO.N,I2C1_SCL*%
X197271000Y-64135000D03*
%TO.P,J4,3,Pin_3*%
%TO.N,I2C1_SDA*%
X199771000Y-64135000D03*
%TO.P,J4,4,Pin_4*%
%TO.N,XSDN2*%
X202271000Y-64135000D03*
%TO.P,J4,5,Pin_5*%
%TO.N,GND*%
X204771000Y-64135000D03*
%TD*%
D24*
%TO.P,J5,1,Pin_1*%
%TO.N,M1_B-*%
X177225000Y-107696000D03*
D18*
%TO.P,J5,2,Pin_2*%
%TO.N,M1_B+*%
X179725000Y-107696000D03*
%TO.P,J5,3,Pin_3*%
%TO.N,M1_A+*%
X182225000Y-107696000D03*
%TO.P,J5,4,Pin_4*%
%TO.N,M1_A-*%
X184725000Y-107696000D03*
%TD*%
D13*
%TO.P,U4,1,D1/TX*%
%TO.N,STEP2*%
X234655000Y-81280000D03*
D14*
%TO.P,U4,2,D0/RX*%
%TO.N,STEP1*%
X232115000Y-81280000D03*
%TO.P,U4,3,RST*%
%TO.N,unconnected-(U4-RST-Pad3)*%
X229575000Y-81280000D03*
%TO.P,U4,4,GND*%
%TO.N,GND*%
X227035000Y-81280000D03*
%TO.P,U4,5,D2*%
%TO.N,XSDN1*%
X224495000Y-81280000D03*
%TO.P,U4,6,D3*%
%TO.N,XSDN2*%
X221955000Y-81280000D03*
%TO.P,U4,7,D4*%
%TO.N,I2C1_SDA*%
X219415000Y-81280000D03*
%TO.P,U4,8,D5*%
%TO.N,I2C1_SCL*%
X216875000Y-81280000D03*
%TO.P,U4,9,D6*%
%TO.N,unconnected-(U4-D6-Pad9)*%
X214335000Y-81280000D03*
%TO.P,U4,10,D7*%
%TO.N,unconnected-(U4-D7-Pad10)*%
X211795000Y-81280000D03*
%TO.P,U4,11,D8*%
%TO.N,unconnected-(U4-D8-Pad11)*%
X209255000Y-81280000D03*
%TO.P,U4,12,D9*%
%TO.N,DIR1*%
X206715000Y-81280000D03*
%TO.P,U4,13,D10*%
%TO.N,DIR2*%
X204175000Y-81280000D03*
%TO.P,U4,14,D11*%
%TO.N,unconnected-(U4-D11-Pad14)*%
X201635000Y-81280000D03*
%TO.P,U4,15,D12*%
%TO.N,unconnected-(U4-D12-Pad15)*%
X199095000Y-81280000D03*
%TO.P,U4,16,D13*%
%TO.N,unconnected-(U4-D13-Pad16)*%
X199095000Y-96520000D03*
%TO.P,U4,17,3V3*%
%TO.N,V_3.3V*%
X201635000Y-96520000D03*
%TO.P,U4,18,REF*%
%TO.N,unconnected-(U4-REF-Pad18)*%
X204175000Y-96520000D03*
%TO.P,U4,19,A0*%
%TO.N,unconnected-(U4-A0-Pad19)*%
X206715000Y-96520000D03*
%TO.P,U4,20,A1*%
%TO.N,TIRETTE*%
X209255000Y-96520000D03*
%TO.P,U4,21,A2*%
%TO.N,UART2_RX*%
X211795000Y-96520000D03*
%TO.P,U4,22,A3*%
%TO.N,BINARY_1*%
X214335000Y-96520000D03*
%TO.P,U4,23,A4*%
%TO.N,BINARY_2*%
X216875000Y-96520000D03*
%TO.P,U4,24,A5*%
%TO.N,BINARY_3*%
X219415000Y-96520000D03*
%TO.P,U4,25,A6*%
%TO.N,SELECT_EQUIPE*%
X221955000Y-96520000D03*
%TO.P,U4,26,A7*%
%TO.N,UART2_TX*%
X224495000Y-96520000D03*
%TO.P,U4,27,5V*%
%TO.N,unconnected-(U4-5V-Pad27)*%
X227035000Y-96520000D03*
%TO.P,U4,28,RST*%
%TO.N,unconnected-(U4-RST-Pad28)*%
X229575000Y-96520000D03*
%TO.P,U4,29,GND*%
%TO.N,GND*%
X232115000Y-96520000D03*
D13*
%TO.P,U4,30,VIN*%
%TO.N,V_5V*%
X234655000Y-96520000D03*
%TD*%
D17*
%TO.P,J3,1,Pin_1*%
%TO.N,V_5V*%
X227136000Y-64118000D03*
D18*
%TO.P,J3,2,Pin_2*%
%TO.N,I2C1_SCL*%
X229636000Y-64118000D03*
%TO.P,J3,3,Pin_3*%
%TO.N,I2C1_SDA*%
X232136000Y-64118000D03*
%TO.P,J3,4,Pin_4*%
%TO.N,GND*%
X234636000Y-64118000D03*
%TD*%
D25*
%TO.N,GND*%
X216000000Y-110000000D03*
%TO.N,V_5V*%
X216000000Y-108000000D03*
%TO.N,GND*%
X195834000Y-101346000D03*
X226000000Y-108500000D03*
%TD*%
D26*
%TO.N,I2C1_SDA*%
X201406000Y-62500000D02*
X199771000Y-64135000D01*
X230518000Y-62500000D02*
X232136000Y-64118000D01*
X215947000Y-64135000D02*
X214312000Y-62500000D01*
X214312000Y-62500000D02*
X201406000Y-62500000D01*
X217582000Y-62500000D02*
X230518000Y-62500000D01*
X215947000Y-64135000D02*
X217582000Y-62500000D01*
D27*
%TO.N,STEP2*%
X187325000Y-83185000D02*
X189140000Y-85000000D01*
X189140000Y-85000000D02*
X230935000Y-85000000D01*
X230935000Y-85000000D02*
X234655000Y-81280000D01*
D26*
%TO.N,XSDN1*%
X218447000Y-64135000D02*
X218447000Y-75232000D01*
X218447000Y-75232000D02*
X224495000Y-81280000D01*
%TO.N,XSDN2*%
X202271000Y-65771000D02*
X215748000Y-79248000D01*
X202271000Y-64135000D02*
X202271000Y-65771000D01*
X219923000Y-79248000D02*
X221955000Y-81280000D01*
X215748000Y-79248000D02*
X219923000Y-79248000D01*
%TO.N,TIRETTE*%
X210000000Y-98500000D02*
X209255000Y-97755000D01*
X235000000Y-100500000D02*
X213500000Y-100500000D01*
X211500000Y-98500000D02*
X210000000Y-98500000D01*
X213500000Y-100500000D02*
X211500000Y-98500000D01*
X243500000Y-106000000D02*
X240500000Y-106000000D01*
X240500000Y-106000000D02*
X235000000Y-100500000D01*
X209255000Y-97755000D02*
X209255000Y-96520000D01*
D28*
%TO.N,Net-(R2-Pad1)*%
X210312000Y-101219000D02*
X202692000Y-101219000D01*
%TD*%
%TA.AperFunction,Conductor*%
%TO.N,GND*%
G36*
X209550181Y-63145185D02*
G01*
X209595936Y-63197989D01*
X209606500Y-63262102D01*
X209596500Y-63359981D01*
X209596500Y-64910001D01*
X209596501Y-64910018D01*
X209607000Y-65012796D01*
X209607001Y-65012799D01*
X209662185Y-65179331D01*
X209662187Y-65179336D01*
X209663421Y-65181336D01*
X209754288Y-65328656D01*
X209878344Y-65452712D01*
X210027666Y-65544814D01*
X210194203Y-65599999D01*
X210296991Y-65610500D01*
X211597008Y-65610499D01*
X211699797Y-65599999D01*
X211866334Y-65544814D01*
X212015656Y-65452712D01*
X212139712Y-65328656D01*
X212231814Y-65179334D01*
X212231814Y-65179331D01*
X212235178Y-65173879D01*
X212287126Y-65127154D01*
X212356088Y-65115931D01*
X212420170Y-65143774D01*
X212428398Y-65151294D01*
X212567213Y-65290109D01*
X212739179Y-65415048D01*
X212739181Y-65415049D01*
X212739184Y-65415051D01*
X212928588Y-65511557D01*
X213130757Y-65577246D01*
X213340713Y-65610500D01*
X213340714Y-65610500D01*
X213553286Y-65610500D01*
X213553287Y-65610500D01*
X213763243Y-65577246D01*
X213965412Y-65511557D01*
X214154816Y-65415051D01*
X214229846Y-65360539D01*
X214326786Y-65290109D01*
X214326788Y-65290106D01*
X214326792Y-65290104D01*
X214477104Y-65139792D01*
X214596683Y-64975204D01*
X214652011Y-64932540D01*
X214721624Y-64926561D01*
X214783420Y-64959166D01*
X214797313Y-64975199D01*
X214916363Y-65139059D01*
X214916896Y-65139792D01*
X215067213Y-65290109D01*
X215239179Y-65415048D01*
X215239181Y-65415049D01*
X215239184Y-65415051D01*
X215428588Y-65511557D01*
X215630757Y-65577246D01*
X215840713Y-65610500D01*
X215840714Y-65610500D01*
X216053286Y-65610500D01*
X216053287Y-65610500D01*
X216263243Y-65577246D01*
X216465412Y-65511557D01*
X216654816Y-65415051D01*
X216729846Y-65360539D01*
X216826786Y-65290109D01*
X216826788Y-65290106D01*
X216826792Y-65290104D01*
X216977104Y-65139792D01*
X217096683Y-64975204D01*
X217152011Y-64932540D01*
X217221624Y-64926561D01*
X217283420Y-64959166D01*
X217297313Y-64975199D01*
X217416363Y-65139059D01*
X217416896Y-65139792D01*
X217567213Y-65290109D01*
X217739181Y-65415050D01*
X217753792Y-65422494D01*
X217804589Y-65470467D01*
X217821500Y-65532980D01*
X217821500Y-75293610D01*
X217845535Y-75414444D01*
X217845538Y-75414454D01*
X217859347Y-75447792D01*
X217859347Y-75447793D01*
X217892685Y-75528280D01*
X217892690Y-75528289D01*
X217926914Y-75579507D01*
X217926915Y-75579509D01*
X217961140Y-75630731D01*
X217961141Y-75630732D01*
X217961142Y-75630733D01*
X218048267Y-75717858D01*
X218048268Y-75717858D01*
X218055335Y-75724925D01*
X218055334Y-75724925D01*
X218055338Y-75724928D01*
X222136093Y-79805683D01*
X222169578Y-79867006D01*
X222164594Y-79936698D01*
X222122722Y-79992631D01*
X222057258Y-80017048D01*
X222037606Y-80016892D01*
X221955004Y-80009666D01*
X221954998Y-80009666D01*
X221807939Y-80022532D01*
X221734409Y-80028965D01*
X221734407Y-80028965D01*
X221734403Y-80028966D01*
X221688527Y-80041258D01*
X221618677Y-80039594D01*
X221568754Y-80009164D01*
X220413198Y-78853608D01*
X220413178Y-78853586D01*
X220321733Y-78762141D01*
X220270509Y-78727915D01*
X220219287Y-78693689D01*
X220219286Y-78693688D01*
X220219283Y-78693686D01*
X220219280Y-78693685D01*
X220138792Y-78660347D01*
X220105453Y-78646537D01*
X220095427Y-78644543D01*
X220045029Y-78634518D01*
X219984610Y-78622500D01*
X219984607Y-78622500D01*
X219984606Y-78622500D01*
X216058452Y-78622500D01*
X215991413Y-78602815D01*
X215970771Y-78586181D01*
X202977700Y-65593110D01*
X202944215Y-65531787D01*
X202949199Y-65462095D01*
X202991071Y-65406162D01*
X202992386Y-65405191D01*
X203150792Y-65290104D01*
X203301104Y-65139792D01*
X203420991Y-64974779D01*
X203476320Y-64932115D01*
X203545933Y-64926136D01*
X203607729Y-64958741D01*
X203621627Y-64974781D01*
X203741272Y-65139459D01*
X203741276Y-65139464D01*
X203891535Y-65289723D01*
X203891540Y-65289727D01*
X204063442Y-65414620D01*
X204252782Y-65511095D01*
X204454871Y-65576757D01*
X204521000Y-65587231D01*
X204521000Y-64539145D01*
X204587657Y-64577630D01*
X204708465Y-64610000D01*
X204833535Y-64610000D01*
X204954343Y-64577630D01*
X205021000Y-64539145D01*
X205021000Y-65587230D01*
X205087126Y-65576757D01*
X205087129Y-65576757D01*
X205289217Y-65511095D01*
X205478557Y-65414620D01*
X205650459Y-65289727D01*
X205650464Y-65289723D01*
X205800723Y-65139464D01*
X205800727Y-65139459D01*
X205925620Y-64967557D01*
X206022095Y-64778217D01*
X206087757Y-64576130D01*
X206087757Y-64576127D01*
X206118030Y-64385000D01*
X205175146Y-64385000D01*
X205213630Y-64318343D01*
X205246000Y-64197535D01*
X205246000Y-64072465D01*
X205213630Y-63951657D01*
X205175146Y-63885000D01*
X206118030Y-63885000D01*
X206087757Y-63693872D01*
X206087757Y-63693869D01*
X206022095Y-63491782D01*
X205927329Y-63305795D01*
X205914433Y-63237126D01*
X205940709Y-63172386D01*
X205997815Y-63132128D01*
X206037814Y-63125500D01*
X209483142Y-63125500D01*
X209550181Y-63145185D01*
G37*
%TD.AperFunction*%
%TA.AperFunction,Conductor*%
G36*
X246627839Y-60979685D02*
G01*
X246673594Y-61032489D01*
X246684800Y-61084000D01*
X246684800Y-110823200D01*
X246665115Y-110890239D01*
X246612311Y-110935994D01*
X246560800Y-110947200D01*
X146834400Y-110947200D01*
X146767361Y-110927515D01*
X146721606Y-110874711D01*
X146710400Y-110823200D01*
X146710400Y-109648870D01*
X201429500Y-109648870D01*
X201429501Y-109648876D01*
X201435908Y-109708483D01*
X201486202Y-109843328D01*
X201486206Y-109843335D01*
X201572452Y-109958544D01*
X201572455Y-109958547D01*
X201687664Y-110044793D01*
X201687671Y-110044797D01*
X201822517Y-110095091D01*
X201822516Y-110095091D01*
X201829444Y-110095835D01*
X201882127Y-110101500D01*
X203501872Y-110101499D01*
X203561483Y-110095091D01*
X203696331Y-110044796D01*
X203811546Y-109958546D01*
X203862734Y-109890166D01*
X203918667Y-109848297D01*
X203988359Y-109843313D01*
X204049682Y-109876798D01*
X204061261Y-109890161D01*
X204112454Y-109958546D01*
X204158643Y-109993123D01*
X204227664Y-110044793D01*
X204227671Y-110044797D01*
X204362517Y-110095091D01*
X204362516Y-110095091D01*
X204369444Y-110095835D01*
X204422127Y-110101500D01*
X206041872Y-110101499D01*
X206101483Y-110095091D01*
X206236331Y-110044796D01*
X206351546Y-109958546D01*
X206402734Y-109890166D01*
X206458667Y-109848297D01*
X206528359Y-109843313D01*
X206589682Y-109876798D01*
X206601261Y-109890161D01*
X206652454Y-109958546D01*
X206698643Y-109993123D01*
X206767664Y-110044793D01*
X206767671Y-110044797D01*
X206902517Y-110095091D01*
X206902516Y-110095091D01*
X206909444Y-110095835D01*
X206962127Y-110101500D01*
X208581872Y-110101499D01*
X208641483Y-110095091D01*
X208776331Y-110044796D01*
X208891546Y-109958546D01*
X208942734Y-109890166D01*
X208998667Y-109848297D01*
X209068359Y-109843313D01*
X209129682Y-109876798D01*
X209141261Y-109890161D01*
X209192454Y-109958546D01*
X209238643Y-109993123D01*
X209307664Y-110044793D01*
X209307671Y-110044797D01*
X209442517Y-110095091D01*
X209442516Y-110095091D01*
X209449444Y-110095835D01*
X209502127Y-110101500D01*
X211121872Y-110101499D01*
X211181483Y-110095091D01*
X211316331Y-110044796D01*
X211431546Y-109958546D01*
X211517796Y-109843331D01*
X211568091Y-109708483D01*
X211574500Y-109648873D01*
X211574499Y-108029128D01*
X211571368Y-108000000D01*
X215094540Y-108000000D01*
X215114326Y-108188256D01*
X215114327Y-108188259D01*
X215172818Y-108368277D01*
X215172821Y-108368284D01*
X215267467Y-108532216D01*
X215347428Y-108621021D01*
X215394129Y-108672888D01*
X215547265Y-108784148D01*
X215547270Y-108784151D01*
X215720192Y-108861142D01*
X215720197Y-108861144D01*
X215905354Y-108900500D01*
X215905355Y-108900500D01*
X216094644Y-108900500D01*
X216094646Y-108900500D01*
X216279803Y-108861144D01*
X216452730Y-108784151D01*
X216605871Y-108672888D01*
X216732533Y-108532216D01*
X216827179Y-108368284D01*
X216885674Y-108188256D01*
X216905460Y-108000000D01*
X216885674Y-107811744D01*
X216827663Y-107633206D01*
X216827181Y-107631722D01*
X216827180Y-107631721D01*
X216827179Y-107631716D01*
X216732533Y-107467784D01*
X216605871Y-107327112D01*
X216605870Y-107327111D01*
X216452734Y-107215851D01*
X216452729Y-107215848D01*
X216279807Y-107138857D01*
X216279802Y-107138855D01*
X216134001Y-107107865D01*
X216094646Y-107099500D01*
X215905354Y-107099500D01*
X215872897Y-107106398D01*
X215720197Y-107138855D01*
X215720192Y-107138857D01*
X215547270Y-107215848D01*
X215547265Y-107215851D01*
X215394129Y-107327111D01*
X215267466Y-107467785D01*
X215172821Y-107631715D01*
X215172818Y-107631722D01*
X215117752Y-107801200D01*
X215114326Y-107811744D01*
X215094540Y-108000000D01*
X211571368Y-108000000D01*
X211568091Y-107969517D01*
X211552340Y-107927287D01*
X211517797Y-107834671D01*
X211517793Y-107834664D01*
X211431547Y-107719455D01*
X211431544Y-107719452D01*
X211316335Y-107633206D01*
X211316328Y-107633202D01*
X211181482Y-107582908D01*
X211181483Y-107582908D01*
X211121883Y-107576501D01*
X211121881Y-107576500D01*
X211121873Y-107576500D01*
X211121864Y-107576500D01*
X209502129Y-107576500D01*
X209502123Y-107576501D01*
X209442516Y-107582908D01*
X209307671Y-107633202D01*
X209307664Y-107633206D01*
X209192455Y-107719452D01*
X209141266Y-107787832D01*
X209085332Y-107829702D01*
X209015640Y-107834686D01*
X208954318Y-107801200D01*
X208942734Y-107787832D01*
X208914786Y-107750499D01*
X208891546Y-107719454D01*
X208891544Y-107719453D01*
X208891544Y-107719452D01*
X208776335Y-107633206D01*
X208776328Y-107633202D01*
X208641482Y-107582908D01*
X208641483Y-107582908D01*
X208581883Y-107576501D01*
X208581881Y-107576500D01*
X208581873Y-107576500D01*
X208581864Y-107576500D01*
X206962129Y-107576500D01*
X206962123Y-107576501D01*
X206902516Y-107582908D01*
X206767671Y-107633202D01*
X206767664Y-107633206D01*
X206652455Y-107719452D01*
X206601266Y-107787832D01*
X206545332Y-107829702D01*
X206475640Y-107834686D01*
X206414318Y-107801200D01*
X206402734Y-107787832D01*
X206374786Y-107750499D01*
X206351546Y-107719454D01*
X206351544Y-107719453D01*
X206351544Y-107719452D01*
X206236335Y-107633206D01*
X206236328Y-107633202D01*
X206101482Y-107582908D01*
X206101483Y-107582908D01*
X206041883Y-107576501D01*
X206041881Y-107576500D01*
X206041873Y-107576500D01*
X206041864Y-107576500D01*
X204422129Y-107576500D01*
X204422123Y-107576501D01*
X204362516Y-107582908D01*
X204227671Y-107633202D01*
X204227664Y-107633206D01*
X204112455Y-107719452D01*
X204061266Y-107787832D01*
X204005332Y-107829702D01*
X203935640Y-107834686D01*
X203874318Y-107801200D01*
X203862734Y-107787832D01*
X203834786Y-107750499D01*
X203811546Y-107719454D01*
X203811544Y-107719453D01*
X203811544Y-107719452D01*
X203696335Y-107633206D01*
X203696328Y-107633202D01*
X203561482Y-107582908D01*
X203561483Y-107582908D01*
X203501883Y-107576501D01*
X203501881Y-107576500D01*
X203501873Y-107576500D01*
X203501864Y-107576500D01*
X201882129Y-107576500D01*
X201882123Y-107576501D01*
X201822516Y-107582908D01*
X201687671Y-107633202D01*
X201687664Y-107633206D01*
X201572455Y-107719452D01*
X201572452Y-107719455D01*
X201486206Y-107834664D01*
X201486202Y-107834671D01*
X201435908Y-107969517D01*
X201429751Y-108026790D01*
X201429501Y-108029123D01*
X201429500Y-108029135D01*
X201429500Y-109648870D01*
X146710400Y-109648870D01*
X146710400Y-108310783D01*
X175874500Y-108310783D01*
X175880858Y-108391574D01*
X175880858Y-108391577D01*
X175880859Y-108391578D01*
X175931212Y-108579496D01*
X176019535Y-108752840D01*
X176141968Y-108904032D01*
X176293160Y-109026465D01*
X176466504Y-109114788D01*
X176654422Y-109165141D01*
X176735222Y-109171500D01*
X176735230Y-109171500D01*
X177714770Y-109171500D01*
X177714778Y-109171500D01*
X177795578Y-109165141D01*
X177983496Y-109114788D01*
X178156840Y-109026465D01*
X178308032Y-108904032D01*
X178430465Y-108752840D01*
X178463190Y-108688612D01*
X178511163Y-108637817D01*
X178578984Y-108621021D01*
X178645119Y-108643558D01*
X178673994Y-108672023D01*
X178694892Y-108700788D01*
X178845213Y-108851109D01*
X179017179Y-108976048D01*
X179017181Y-108976049D01*
X179017184Y-108976051D01*
X179206588Y-109072557D01*
X179408757Y-109138246D01*
X179618713Y-109171500D01*
X179618714Y-109171500D01*
X179831286Y-109171500D01*
X179831287Y-109171500D01*
X180041243Y-109138246D01*
X180243412Y-109072557D01*
X180432816Y-108976051D01*
X180454789Y-108960086D01*
X180604786Y-108851109D01*
X180604788Y-108851106D01*
X180604792Y-108851104D01*
X180755104Y-108700792D01*
X180874683Y-108536204D01*
X180930011Y-108493540D01*
X180999624Y-108487561D01*
X181061420Y-108520166D01*
X181075313Y-108536199D01*
X181173994Y-108672023D01*
X181194896Y-108700792D01*
X181345213Y-108851109D01*
X181517179Y-108976048D01*
X181517181Y-108976049D01*
X181517184Y-108976051D01*
X181706588Y-109072557D01*
X181908757Y-109138246D01*
X182118713Y-109171500D01*
X182118714Y-109171500D01*
X182331286Y-109171500D01*
X182331287Y-109171500D01*
X182541243Y-109138246D01*
X182743412Y-109072557D01*
X182932816Y-108976051D01*
X182954789Y-108960086D01*
X183104786Y-108851109D01*
X183104788Y-108851106D01*
X183104792Y-108851104D01*
X183255104Y-108700792D01*
X183374683Y-108536204D01*
X183430011Y-108493540D01*
X183499624Y-108487561D01*
X183561420Y-108520166D01*
X183575313Y-108536199D01*
X183673994Y-108672023D01*
X183694896Y-108700792D01*
X183845213Y-108851109D01*
X184017179Y-108976048D01*
X184017181Y-108976049D01*
X184017184Y-108976051D01*
X184206588Y-109072557D01*
X184408757Y-109138246D01*
X184618713Y-109171500D01*
X184618714Y-109171500D01*
X184831286Y-109171500D01*
X184831287Y-109171500D01*
X185041243Y-109138246D01*
X185243412Y-109072557D01*
X185432816Y-108976051D01*
X185454789Y-108960086D01*
X185604786Y-108851109D01*
X185604788Y-108851106D01*
X185604792Y-108851104D01*
X185755104Y-108700792D01*
X185755106Y-108700788D01*
X185755109Y-108700786D01*
X185880048Y-108528820D01*
X185880047Y-108528820D01*
X185880051Y-108528816D01*
X185976557Y-108339412D01*
X186042246Y-108137243D01*
X186075500Y-107927287D01*
X186075500Y-107464713D01*
X186042246Y-107254757D01*
X185976557Y-107052588D01*
X185880051Y-106863184D01*
X185880049Y-106863181D01*
X185880048Y-106863179D01*
X185755109Y-106691213D01*
X185604786Y-106540890D01*
X185432820Y-106415951D01*
X185243414Y-106319444D01*
X185243413Y-106319443D01*
X185243412Y-106319443D01*
X185041243Y-106253754D01*
X185041241Y-106253753D01*
X185041240Y-106253753D01*
X184871436Y-106226859D01*
X184831287Y-106220500D01*
X184618713Y-106220500D01*
X184578564Y-106226859D01*
X184408760Y-106253753D01*
X184206585Y-106319444D01*
X184017179Y-106415951D01*
X183845213Y-106540890D01*
X183694894Y-106691209D01*
X183694890Y-106691214D01*
X183575318Y-106855793D01*
X183519989Y-106898459D01*
X183450375Y-106904438D01*
X183388580Y-106871833D01*
X183374682Y-106855793D01*
X183255109Y-106691214D01*
X183255105Y-106691209D01*
X183104786Y-106540890D01*
X182932820Y-106415951D01*
X182743414Y-106319444D01*
X182743413Y-106319443D01*
X182743412Y-106319443D01*
X182541243Y-106253754D01*
X182541241Y-106253753D01*
X182541240Y-106253753D01*
X182371436Y-106226859D01*
X182331287Y-106220500D01*
X182118713Y-106220500D01*
X182078564Y-106226859D01*
X181908760Y-106253753D01*
X181706585Y-106319444D01*
X181517179Y-106415951D01*
X181345213Y-106540890D01*
X181194894Y-106691209D01*
X181194890Y-106691214D01*
X181075318Y-106855793D01*
X181019989Y-106898459D01*
X180950375Y-106904438D01*
X180888580Y-106871833D01*
X180874682Y-106855793D01*
X180755109Y-106691214D01*
X180755105Y-106691209D01*
X180604786Y-106540890D01*
X180432820Y-106415951D01*
X180243414Y-106319444D01*
X180243413Y-106319443D01*
X180243412Y-106319443D01*
X180041243Y-106253754D01*
X180041241Y-106253753D01*
X180041240Y-106253753D01*
X179871436Y-106226859D01*
X179831287Y-106220500D01*
X179618713Y-106220500D01*
X179578564Y-106226859D01*
X179408760Y-106253753D01*
X179206585Y-106319444D01*
X179017179Y-106415951D01*
X178845213Y-106540890D01*
X178694894Y-106691209D01*
X178673993Y-106719978D01*
X178618663Y-106762643D01*
X178549050Y-106768622D01*
X178487255Y-106736016D01*
X178463190Y-106703386D01*
X178430467Y-106639162D01*
X178384123Y-106581933D01*
X178308032Y-106487968D01*
X178156840Y-106365535D01*
X177983496Y-106277212D01*
X177795578Y-106226859D01*
X177795577Y-106226858D01*
X177795574Y-106226858D01*
X177714783Y-106220500D01*
X177714778Y-106220500D01*
X176735222Y-106220500D01*
X176735216Y-106220500D01*
X176654425Y-106226858D01*
X176466504Y-106277212D01*
X176293161Y-106365534D01*
X176141968Y-106487968D01*
X176019534Y-106639161D01*
X175931212Y-106812504D01*
X175880858Y-107000425D01*
X175874500Y-107081216D01*
X175874500Y-108310783D01*
X146710400Y-108310783D01*
X146710400Y-107717444D01*
X146978000Y-107717444D01*
X146984401Y-107776972D01*
X146984403Y-107776979D01*
X147034645Y-107911686D01*
X147034649Y-107911693D01*
X147120809Y-108026787D01*
X147120812Y-108026790D01*
X147235906Y-108112950D01*
X147235913Y-108112954D01*
X147370620Y-108163196D01*
X147370627Y-108163198D01*
X147430155Y-108169599D01*
X147430172Y-108169600D01*
X147990000Y-108169600D01*
X147990000Y-107196416D01*
X148006060Y-107212476D01*
X148092939Y-107262636D01*
X148189840Y-107288600D01*
X148290160Y-107288600D01*
X148387061Y-107262636D01*
X148473940Y-107212476D01*
X148490000Y-107196416D01*
X148490000Y-108169600D01*
X149049828Y-108169600D01*
X149049844Y-108169599D01*
X149109372Y-108163198D01*
X149109379Y-108163196D01*
X149244086Y-108112954D01*
X149244093Y-108112950D01*
X149359187Y-108026790D01*
X149359190Y-108026787D01*
X149445350Y-107911693D01*
X149445354Y-107911686D01*
X149495596Y-107776979D01*
X149495598Y-107776972D01*
X149501996Y-107717470D01*
X166377500Y-107717470D01*
X166377501Y-107717476D01*
X166383908Y-107777083D01*
X166434202Y-107911928D01*
X166434206Y-107911935D01*
X166520452Y-108027144D01*
X166520455Y-108027147D01*
X166635664Y-108113393D01*
X166635671Y-108113397D01*
X166770517Y-108163691D01*
X166770516Y-108163691D01*
X166777444Y-108164435D01*
X166830127Y-108170100D01*
X168449872Y-108170099D01*
X168509483Y-108163691D01*
X168644331Y-108113396D01*
X168759546Y-108027146D01*
X168845796Y-107911931D01*
X168896091Y-107777083D01*
X168902500Y-107717473D01*
X168902499Y-106114741D01*
X193249500Y-106114741D01*
X193270891Y-106277212D01*
X193279452Y-106342238D01*
X193318500Y-106487968D01*
X193338842Y-106563887D01*
X193426650Y-106775876D01*
X193426657Y-106775890D01*
X193541392Y-106974617D01*
X193681081Y-107156661D01*
X193681089Y-107156670D01*
X193843330Y-107318911D01*
X193843338Y-107318918D01*
X194025382Y-107458607D01*
X194025385Y-107458608D01*
X194025388Y-107458611D01*
X194224112Y-107573344D01*
X194224117Y-107573346D01*
X194224123Y-107573349D01*
X194315480Y-107611190D01*
X194436113Y-107661158D01*
X194657762Y-107720548D01*
X194885266Y-107750500D01*
X194885273Y-107750500D01*
X195114727Y-107750500D01*
X195114734Y-107750500D01*
X195342238Y-107720548D01*
X195563887Y-107661158D01*
X195775888Y-107573344D01*
X195974612Y-107458611D01*
X196156661Y-107318919D01*
X196156665Y-107318914D01*
X196156670Y-107318911D01*
X196318911Y-107156670D01*
X196318914Y-107156665D01*
X196318919Y-107156661D01*
X196458611Y-106974612D01*
X196573344Y-106775888D01*
X196661158Y-106563887D01*
X196720548Y-106342238D01*
X196750500Y-106114734D01*
X196750500Y-105885266D01*
X196720548Y-105657762D01*
X196661158Y-105436113D01*
X196607593Y-105306797D01*
X196573349Y-105224123D01*
X196573346Y-105224117D01*
X196573344Y-105224112D01*
X196458611Y-105025388D01*
X196458608Y-105025385D01*
X196458607Y-105025382D01*
X196318918Y-104843338D01*
X196318911Y-104843330D01*
X196156670Y-104681089D01*
X196156661Y-104681081D01*
X195974617Y-104541392D01*
X195775890Y-104426657D01*
X195775876Y-104426650D01*
X195563887Y-104338842D01*
X195342238Y-104279452D01*
X195304215Y-104274446D01*
X195114741Y-104249500D01*
X195114734Y-104249500D01*
X194885266Y-104249500D01*
X194885258Y-104249500D01*
X194668715Y-104278009D01*
X194657762Y-104279452D01*
X194564076Y-104304554D01*
X194436112Y-104338842D01*
X194224123Y-104426650D01*
X194224109Y-104426657D01*
X194025382Y-104541392D01*
X193843338Y-104681081D01*
X193681081Y-104843338D01*
X193541392Y-105025382D01*
X193426657Y-105224109D01*
X193426650Y-105224123D01*
X193338842Y-105436112D01*
X193338842Y-105436113D01*
X193281128Y-105651509D01*
X193279453Y-105657759D01*
X193279451Y-105657770D01*
X193249500Y-105885258D01*
X193249500Y-106114741D01*
X168902499Y-106114741D01*
X168902499Y-106097728D01*
X168896091Y-106038117D01*
X168845884Y-105903506D01*
X168845797Y-105903271D01*
X168845793Y-105903264D01*
X168759547Y-105788055D01*
X168759544Y-105788052D01*
X168644335Y-105701806D01*
X168644328Y-105701802D01*
X168509482Y-105651508D01*
X168509483Y-105651508D01*
X168449883Y-105645101D01*
X168449881Y-105645100D01*
X168449873Y-105645100D01*
X168449864Y-105645100D01*
X166830129Y-105645100D01*
X166830123Y-105645101D01*
X166770516Y-105651508D01*
X166635671Y-105701802D01*
X166635664Y-105701806D01*
X166520455Y-105788052D01*
X166520452Y-105788055D01*
X166434206Y-105903264D01*
X166434202Y-105903271D01*
X166383908Y-106038117D01*
X166377501Y-106097716D01*
X166377501Y-106097723D01*
X166377500Y-106097735D01*
X166377500Y-107717470D01*
X149501996Y-107717470D01*
X149501999Y-107717444D01*
X149502000Y-107717427D01*
X149502000Y-107157600D01*
X148528816Y-107157600D01*
X148544876Y-107141540D01*
X148595036Y-107054661D01*
X148621000Y-106957760D01*
X148621000Y-106857440D01*
X148595036Y-106760539D01*
X148544876Y-106673660D01*
X148528816Y-106657600D01*
X149502000Y-106657600D01*
X149502000Y-106097772D01*
X149501999Y-106097755D01*
X149495598Y-106038227D01*
X149495596Y-106038220D01*
X149445354Y-105903513D01*
X149445350Y-105903506D01*
X149359190Y-105788412D01*
X149359187Y-105788409D01*
X149244093Y-105702249D01*
X149244086Y-105702245D01*
X149109379Y-105652003D01*
X149109372Y-105652001D01*
X149049844Y-105645600D01*
X148490000Y-105645600D01*
X148490000Y-106618784D01*
X148473940Y-106602724D01*
X148387061Y-106552564D01*
X148290160Y-106526600D01*
X148189840Y-106526600D01*
X148092939Y-106552564D01*
X148006060Y-106602724D01*
X147990000Y-106618784D01*
X147990000Y-105645600D01*
X147430155Y-105645600D01*
X147370627Y-105652001D01*
X147370620Y-105652003D01*
X147235913Y-105702245D01*
X147235906Y-105702249D01*
X147120812Y-105788409D01*
X147120809Y-105788412D01*
X147034649Y-105903506D01*
X147034645Y-105903513D01*
X146984403Y-106038220D01*
X146984401Y-106038227D01*
X146978000Y-106097755D01*
X146978000Y-106657600D01*
X147951184Y-106657600D01*
X147935124Y-106673660D01*
X147884964Y-106760539D01*
X147859000Y-106857440D01*
X147859000Y-106957760D01*
X147884964Y-107054661D01*
X147935124Y-107141540D01*
X147951184Y-107157600D01*
X146978000Y-107157600D01*
X146978000Y-107717444D01*
X146710400Y-107717444D01*
X146710400Y-103505006D01*
X223384700Y-103505006D01*
X223403864Y-103736297D01*
X223403866Y-103736308D01*
X223460842Y-103961300D01*
X223554075Y-104173848D01*
X223681016Y-104368147D01*
X223681019Y-104368151D01*
X223681021Y-104368153D01*
X223775803Y-104471114D01*
X223806724Y-104533767D01*
X223798864Y-104603193D01*
X223754716Y-104657348D01*
X223727906Y-104671277D01*
X223647669Y-104701203D01*
X223647664Y-104701206D01*
X223532455Y-104787452D01*
X223532452Y-104787455D01*
X223446206Y-104902664D01*
X223446202Y-104902671D01*
X223395908Y-105037517D01*
X223389501Y-105097116D01*
X223389501Y-105097123D01*
X223389500Y-105097135D01*
X223389500Y-106992870D01*
X223389501Y-106992876D01*
X223395908Y-107052483D01*
X223446202Y-107187328D01*
X223446206Y-107187335D01*
X223532452Y-107302544D01*
X223532455Y-107302547D01*
X223647664Y-107388793D01*
X223647671Y-107388797D01*
X223782517Y-107439091D01*
X223782516Y-107439091D01*
X223789444Y-107439835D01*
X223842127Y-107445500D01*
X225737872Y-107445499D01*
X225797483Y-107439091D01*
X225932331Y-107388796D01*
X226047546Y-107302546D01*
X226133796Y-107187331D01*
X226184091Y-107052483D01*
X226190500Y-106992873D01*
X226190499Y-105097128D01*
X226184091Y-105037517D01*
X226179567Y-105025388D01*
X226133797Y-104902671D01*
X226133793Y-104902664D01*
X226047547Y-104787455D01*
X226047544Y-104787452D01*
X225932335Y-104701206D01*
X225932328Y-104701202D01*
X225852094Y-104671277D01*
X225796160Y-104629406D01*
X225771743Y-104563941D01*
X225786595Y-104495668D01*
X225804190Y-104471121D01*
X225898979Y-104368153D01*
X226025924Y-104173849D01*
X226119157Y-103961300D01*
X226176134Y-103736305D01*
X226195300Y-103505006D01*
X231639700Y-103505006D01*
X231658864Y-103736297D01*
X231658866Y-103736308D01*
X231715842Y-103961300D01*
X231809075Y-104173848D01*
X231936016Y-104368147D01*
X231936019Y-104368151D01*
X231936021Y-104368153D01*
X232030803Y-104471114D01*
X232061724Y-104533767D01*
X232053864Y-104603193D01*
X232009716Y-104657348D01*
X231982906Y-104671277D01*
X231902669Y-104701203D01*
X231902664Y-104701206D01*
X231787455Y-104787452D01*
X231787452Y-104787455D01*
X231701206Y-104902664D01*
X231701202Y-104902671D01*
X231650908Y-105037517D01*
X231644501Y-105097116D01*
X231644501Y-105097123D01*
X231644500Y-105097135D01*
X231644500Y-106992870D01*
X231644501Y-106992876D01*
X231650908Y-107052483D01*
X231701202Y-107187328D01*
X231701206Y-107187335D01*
X231787452Y-107302544D01*
X231787455Y-107302547D01*
X231902664Y-107388793D01*
X231902671Y-107388797D01*
X232037517Y-107439091D01*
X232037516Y-107439091D01*
X232044444Y-107439835D01*
X232097127Y-107445500D01*
X233992872Y-107445499D01*
X234052483Y-107439091D01*
X234187331Y-107388796D01*
X234302546Y-107302546D01*
X234388796Y-107187331D01*
X234439091Y-107052483D01*
X234445500Y-106992873D01*
X234445499Y-105097128D01*
X234439091Y-105037517D01*
X234434567Y-105025388D01*
X234388797Y-104902671D01*
X234388793Y-104902664D01*
X234302547Y-104787455D01*
X234302544Y-104787452D01*
X234187335Y-104701206D01*
X234187328Y-104701202D01*
X234107094Y-104671277D01*
X234051160Y-104629406D01*
X234026743Y-104563941D01*
X234041595Y-104495668D01*
X234059190Y-104471121D01*
X234153979Y-104368153D01*
X234280924Y-104173849D01*
X234374157Y-103961300D01*
X234431134Y-103736305D01*
X234450300Y-103505000D01*
X234450300Y-103504993D01*
X234431135Y-103273702D01*
X234431133Y-103273691D01*
X234374157Y-103048699D01*
X234280924Y-102836151D01*
X234153983Y-102641852D01*
X234153980Y-102641849D01*
X234153979Y-102641847D01*
X233996784Y-102471087D01*
X233996779Y-102471083D01*
X233996777Y-102471081D01*
X233813634Y-102328535D01*
X233813628Y-102328531D01*
X233609504Y-102218064D01*
X233609495Y-102218061D01*
X233389984Y-102142702D01*
X233218282Y-102114050D01*
X233161049Y-102104500D01*
X232928951Y-102104500D01*
X232883164Y-102112140D01*
X232700015Y-102142702D01*
X232480504Y-102218061D01*
X232480495Y-102218064D01*
X232276371Y-102328531D01*
X232276365Y-102328535D01*
X232093222Y-102471081D01*
X232093219Y-102471084D01*
X231936016Y-102641852D01*
X231809075Y-102836151D01*
X231715842Y-103048699D01*
X231658866Y-103273691D01*
X231658864Y-103273702D01*
X231639700Y-103504993D01*
X231639700Y-103505006D01*
X226195300Y-103505006D01*
X226195300Y-103505000D01*
X226195300Y-103504993D01*
X226176135Y-103273702D01*
X226176133Y-103273691D01*
X226119157Y-103048699D01*
X226025924Y-102836151D01*
X225898983Y-102641852D01*
X225898980Y-102641849D01*
X225898979Y-102641847D01*
X225741784Y-102471087D01*
X225741779Y-102471083D01*
X225741777Y-102471081D01*
X225558634Y-102328535D01*
X225558628Y-102328531D01*
X225354504Y-102218064D01*
X225354495Y-102218061D01*
X225134984Y-102142702D01*
X224963282Y-102114050D01*
X224906049Y-102104500D01*
X224673951Y-102104500D01*
X224628164Y-102112140D01*
X224445015Y-102142702D01*
X224225504Y-102218061D01*
X224225495Y-102218064D01*
X224021371Y-102328531D01*
X224021365Y-102328535D01*
X223838222Y-102471081D01*
X223838219Y-102471084D01*
X223681016Y-102641852D01*
X223554075Y-102836151D01*
X223460842Y-103048699D01*
X223403866Y-103273691D01*
X223403864Y-103273702D01*
X223384700Y-103504993D01*
X223384700Y-103505006D01*
X146710400Y-103505006D01*
X146710400Y-102028870D01*
X201429500Y-102028870D01*
X201429501Y-102028876D01*
X201435908Y-102088483D01*
X201486202Y-102223328D01*
X201486206Y-102223335D01*
X201572452Y-102338544D01*
X201572455Y-102338547D01*
X201687664Y-102424793D01*
X201687671Y-102424797D01*
X201822517Y-102475091D01*
X201822516Y-102475091D01*
X201829444Y-102475835D01*
X201882127Y-102481500D01*
X203501872Y-102481499D01*
X203561483Y-102475091D01*
X203696331Y-102424796D01*
X203811546Y-102338546D01*
X203862734Y-102270166D01*
X203918667Y-102228297D01*
X203988359Y-102223313D01*
X204049682Y-102256798D01*
X204061261Y-102270161D01*
X204112454Y-102338546D01*
X204158643Y-102373123D01*
X204227664Y-102424793D01*
X204227671Y-102424797D01*
X204362517Y-102475091D01*
X204362516Y-102475091D01*
X204369444Y-102475835D01*
X204422127Y-102481500D01*
X206041872Y-102481499D01*
X206101483Y-102475091D01*
X206236331Y-102424796D01*
X206351546Y-102338546D01*
X206402734Y-102270166D01*
X206458667Y-102228297D01*
X206528359Y-102223313D01*
X206589682Y-102256798D01*
X206601261Y-102270161D01*
X206652454Y-102338546D01*
X206698643Y-102373123D01*
X206767664Y-102424793D01*
X206767671Y-102424797D01*
X206902517Y-102475091D01*
X206902516Y-102475091D01*
X206909444Y-102475835D01*
X206962127Y-102481500D01*
X208581872Y-102481499D01*
X208641483Y-102475091D01*
X208776331Y-102424796D01*
X208891546Y-102338546D01*
X208942734Y-102270166D01*
X208998667Y-102228297D01*
X209068359Y-102223313D01*
X209129682Y-102256798D01*
X209141261Y-102270161D01*
X209192454Y-102338546D01*
X209238643Y-102373123D01*
X209307664Y-102424793D01*
X209307671Y-102424797D01*
X209442517Y-102475091D01*
X209442516Y-102475091D01*
X209449444Y-102475835D01*
X209502127Y-102481500D01*
X211121872Y-102481499D01*
X211181483Y-102475091D01*
X211316331Y-102424796D01*
X211431546Y-102338546D01*
X211517796Y-102223331D01*
X211568091Y-102088483D01*
X211574500Y-102028873D01*
X211574499Y-100409128D01*
X211568091Y-100349517D01*
X211562235Y-100333817D01*
X211517797Y-100214671D01*
X211517793Y-100214664D01*
X211431547Y-100099455D01*
X211431544Y-100099452D01*
X211316335Y-100013206D01*
X211316328Y-100013202D01*
X211181482Y-99962908D01*
X211181483Y-99962908D01*
X211121883Y-99956501D01*
X211121881Y-99956500D01*
X211121873Y-99956500D01*
X211121864Y-99956500D01*
X209502129Y-99956500D01*
X209502123Y-99956501D01*
X209442516Y-99962908D01*
X209307671Y-100013202D01*
X209307664Y-100013206D01*
X209192455Y-100099452D01*
X209141266Y-100167832D01*
X209085332Y-100209702D01*
X209015640Y-100214686D01*
X208954318Y-100181200D01*
X208942734Y-100167832D01*
X208928222Y-100148447D01*
X208891546Y-100099454D01*
X208891544Y-100099453D01*
X208891544Y-100099452D01*
X208776335Y-100013206D01*
X208776328Y-100013202D01*
X208641482Y-99962908D01*
X208641483Y-99962908D01*
X208581883Y-99956501D01*
X208581881Y-99956500D01*
X208581873Y-99956500D01*
X208581864Y-99956500D01*
X206962129Y-99956500D01*
X206962123Y-99956501D01*
X206902516Y-99962908D01*
X206767671Y-100013202D01*
X206767664Y-100013206D01*
X206652455Y-100099452D01*
X206601266Y-100167832D01*
X206545332Y-100209702D01*
X206475640Y-100214686D01*
X206414318Y-100181200D01*
X206402734Y-100167832D01*
X206388222Y-100148447D01*
X206351546Y-100099454D01*
X206351544Y-100099453D01*
X206351544Y-100099452D01*
X206236335Y-100013206D01*
X206236328Y-100013202D01*
X206101482Y-99962908D01*
X206101483Y-99962908D01*
X206041883Y-99956501D01*
X206041881Y-99956500D01*
X206041873Y-99956500D01*
X206041864Y-99956500D01*
X204422129Y-99956500D01*
X204422123Y-99956501D01*
X204362516Y-99962908D01*
X204227671Y-100013202D01*
X204227664Y-100013206D01*
X204112455Y-100099452D01*
X204061266Y-100167832D01*
X204005332Y-100209702D01*
X203935640Y-100214686D01*
X203874318Y-100181200D01*
X203862734Y-100167832D01*
X203848222Y-100148447D01*
X203811546Y-100099454D01*
X203811544Y-100099453D01*
X203811544Y-100099452D01*
X203696335Y-100013206D01*
X203696328Y-100013202D01*
X203561482Y-99962908D01*
X203561483Y-99962908D01*
X203501883Y-99956501D01*
X203501881Y-99956500D01*
X203501873Y-99956500D01*
X203501864Y-99956500D01*
X201882129Y-99956500D01*
X201882123Y-99956501D01*
X201822516Y-99962908D01*
X201687671Y-100013202D01*
X201687664Y-100013206D01*
X201572455Y-100099452D01*
X201572452Y-100099455D01*
X201486206Y-100214664D01*
X201486202Y-100214671D01*
X201435908Y-100349517D01*
X201430788Y-100397143D01*
X201429501Y-100409123D01*
X201429500Y-100409135D01*
X201429500Y-102028870D01*
X146710400Y-102028870D01*
X146710400Y-100330001D01*
X170814666Y-100330001D01*
X170833964Y-100550585D01*
X170833965Y-100550592D01*
X170891275Y-100764475D01*
X170891279Y-100764486D01*
X170984739Y-100964912D01*
X170984858Y-100965167D01*
X171111868Y-101146555D01*
X171268445Y-101303132D01*
X171449833Y-101430142D01*
X171570572Y-101486443D01*
X171650513Y-101523720D01*
X171650515Y-101523720D01*
X171650520Y-101523723D01*
X171864409Y-101581035D01*
X172021974Y-101594820D01*
X172084998Y-101600334D01*
X172085000Y-101600334D01*
X172085002Y-101600334D01*
X172140147Y-101595509D01*
X172305591Y-101581035D01*
X172519480Y-101523723D01*
X172720167Y-101430142D01*
X172901555Y-101303132D01*
X173058132Y-101146555D01*
X173185142Y-100965167D01*
X173242895Y-100841312D01*
X173289064Y-100788878D01*
X173356258Y-100769725D01*
X173423139Y-100789940D01*
X173467657Y-100841316D01*
X173525295Y-100964919D01*
X173571103Y-101030341D01*
X173571105Y-101030342D01*
X174133871Y-100467575D01*
X174149755Y-100526853D01*
X174216898Y-100643147D01*
X174311853Y-100738102D01*
X174428147Y-100805245D01*
X174487424Y-100821128D01*
X173924656Y-101383894D01*
X173990083Y-101429706D01*
X173990085Y-101429707D01*
X174190690Y-101523250D01*
X174190699Y-101523254D01*
X174404490Y-101580538D01*
X174404500Y-101580540D01*
X174624999Y-101599832D01*
X174625001Y-101599832D01*
X174845499Y-101580540D01*
X174845509Y-101580538D01*
X175059300Y-101523254D01*
X175059309Y-101523250D01*
X175259915Y-101429706D01*
X175325342Y-101383894D01*
X174762575Y-100821127D01*
X174821853Y-100805245D01*
X174938147Y-100738102D01*
X175033102Y-100643147D01*
X175100245Y-100526853D01*
X175116128Y-100467575D01*
X175678894Y-101030342D01*
X175724707Y-100964914D01*
X175724708Y-100964912D01*
X175782342Y-100841317D01*
X175828514Y-100788877D01*
X175895707Y-100769725D01*
X175962589Y-100789941D01*
X176007106Y-100841317D01*
X176064739Y-100964912D01*
X176064858Y-100965167D01*
X176191868Y-101146555D01*
X176348445Y-101303132D01*
X176529833Y-101430142D01*
X176650572Y-101486443D01*
X176730513Y-101523720D01*
X176730515Y-101523720D01*
X176730520Y-101523723D01*
X176944409Y-101581035D01*
X177101974Y-101594820D01*
X177164998Y-101600334D01*
X177165000Y-101600334D01*
X177165002Y-101600334D01*
X177220147Y-101595509D01*
X177385591Y-101581035D01*
X177599480Y-101523723D01*
X177800167Y-101430142D01*
X177981555Y-101303132D01*
X178138132Y-101146555D01*
X178265142Y-100965167D01*
X178322618Y-100841907D01*
X178368790Y-100789468D01*
X178435983Y-100770316D01*
X178502864Y-100790531D01*
X178547381Y-100841907D01*
X178604858Y-100965167D01*
X178731868Y-101146555D01*
X178888445Y-101303132D01*
X179069833Y-101430142D01*
X179190572Y-101486443D01*
X179270513Y-101523720D01*
X179270515Y-101523720D01*
X179270520Y-101523723D01*
X179484409Y-101581035D01*
X179641974Y-101594820D01*
X179704998Y-101600334D01*
X179705000Y-101600334D01*
X179705002Y-101600334D01*
X179760147Y-101595509D01*
X179925591Y-101581035D01*
X180139480Y-101523723D01*
X180340167Y-101430142D01*
X180521555Y-101303132D01*
X180678132Y-101146555D01*
X180805142Y-100965167D01*
X180862618Y-100841907D01*
X180908790Y-100789468D01*
X180975983Y-100770316D01*
X181042864Y-100790531D01*
X181087381Y-100841907D01*
X181144858Y-100965167D01*
X181271868Y-101146555D01*
X181428445Y-101303132D01*
X181609833Y-101430142D01*
X181730572Y-101486443D01*
X181810513Y-101523720D01*
X181810515Y-101523720D01*
X181810520Y-101523723D01*
X182024409Y-101581035D01*
X182181974Y-101594820D01*
X182244998Y-101600334D01*
X182245000Y-101600334D01*
X182245002Y-101600334D01*
X182300147Y-101595509D01*
X182465591Y-101581035D01*
X182679480Y-101523723D01*
X182880167Y-101430142D01*
X183061555Y-101303132D01*
X183218132Y-101146555D01*
X183345142Y-100965167D01*
X183402618Y-100841907D01*
X183448790Y-100789468D01*
X183515983Y-100770316D01*
X183582864Y-100790531D01*
X183627381Y-100841907D01*
X183684858Y-100965167D01*
X183811868Y-101146555D01*
X183968445Y-101303132D01*
X184149833Y-101430142D01*
X184270572Y-101486443D01*
X184350513Y-101523720D01*
X184350515Y-101523720D01*
X184350520Y-101523723D01*
X184564409Y-101581035D01*
X184721974Y-101594820D01*
X184784998Y-101600334D01*
X184785000Y-101600334D01*
X184785002Y-101600334D01*
X184840147Y-101595509D01*
X185005591Y-101581035D01*
X185219480Y-101523723D01*
X185420167Y-101430142D01*
X185601555Y-101303132D01*
X185758132Y-101146555D01*
X185885142Y-100965167D01*
X185942618Y-100841907D01*
X185988790Y-100789468D01*
X186055983Y-100770316D01*
X186122864Y-100790531D01*
X186167381Y-100841907D01*
X186224858Y-100965167D01*
X186351868Y-101146555D01*
X186508445Y-101303132D01*
X186689833Y-101430142D01*
X186810572Y-101486443D01*
X186890513Y-101523720D01*
X186890515Y-101523720D01*
X186890520Y-101523723D01*
X187104409Y-101581035D01*
X187261974Y-101594820D01*
X187324998Y-101600334D01*
X187325000Y-101600334D01*
X187325002Y-101600334D01*
X187380147Y-101595509D01*
X187545591Y-101581035D01*
X187759480Y-101523723D01*
X187960167Y-101430142D01*
X188141555Y-101303132D01*
X188298132Y-101146555D01*
X188425142Y-100965167D01*
X188482895Y-100841312D01*
X188529064Y-100788878D01*
X188596258Y-100769725D01*
X188663139Y-100789940D01*
X188707657Y-100841316D01*
X188765295Y-100964919D01*
X188811103Y-101030341D01*
X188811105Y-101030342D01*
X189373871Y-100467575D01*
X189389755Y-100526853D01*
X189456898Y-100643147D01*
X189551853Y-100738102D01*
X189668147Y-100805245D01*
X189727424Y-100821128D01*
X189164656Y-101383894D01*
X189230083Y-101429706D01*
X189230085Y-101429707D01*
X189430690Y-101523250D01*
X189430699Y-101523254D01*
X189644490Y-101580538D01*
X189644500Y-101580540D01*
X189864999Y-101599832D01*
X189865001Y-101599832D01*
X190085499Y-101580540D01*
X190085509Y-101580538D01*
X190299300Y-101523254D01*
X190299309Y-101523250D01*
X190499915Y-101429706D01*
X190565342Y-101383894D01*
X190002575Y-100821127D01*
X190061853Y-100805245D01*
X190178147Y-100738102D01*
X190273102Y-100643147D01*
X190340245Y-100526853D01*
X190356128Y-100467575D01*
X190918894Y-101030342D01*
X190964706Y-100964915D01*
X191058250Y-100764309D01*
X191058254Y-100764300D01*
X191115538Y-100550509D01*
X191115540Y-100550499D01*
X191134832Y-100330000D01*
X191134832Y-100329999D01*
X191115540Y-100109500D01*
X191115538Y-100109490D01*
X191058254Y-99895699D01*
X191058250Y-99895690D01*
X190964707Y-99695085D01*
X190964706Y-99695083D01*
X190918894Y-99629657D01*
X190918894Y-99629656D01*
X190356127Y-100192423D01*
X190340245Y-100133147D01*
X190273102Y-100016853D01*
X190178147Y-99921898D01*
X190061853Y-99854755D01*
X190002575Y-99838872D01*
X190565342Y-99276105D01*
X190565341Y-99276103D01*
X190499919Y-99230295D01*
X190299309Y-99136749D01*
X190299300Y-99136745D01*
X190085509Y-99079461D01*
X190085499Y-99079459D01*
X189865001Y-99060168D01*
X189864999Y-99060168D01*
X189644500Y-99079459D01*
X189644490Y-99079461D01*
X189430699Y-99136745D01*
X189430690Y-99136749D01*
X189230084Y-99230293D01*
X189164657Y-99276104D01*
X189727424Y-99838871D01*
X189668147Y-99854755D01*
X189551853Y-99921898D01*
X189456898Y-100016853D01*
X189389755Y-100133147D01*
X189373871Y-100192424D01*
X188811104Y-99629657D01*
X188765293Y-99695084D01*
X188707657Y-99818683D01*
X188661484Y-99871122D01*
X188594290Y-99890274D01*
X188527409Y-99870058D01*
X188482893Y-99818682D01*
X188425142Y-99694833D01*
X188298132Y-99513445D01*
X188141555Y-99356868D01*
X187960167Y-99229858D01*
X187960163Y-99229856D01*
X187759486Y-99136279D01*
X187759475Y-99136275D01*
X187545592Y-99078965D01*
X187545585Y-99078964D01*
X187325002Y-99059666D01*
X187324998Y-99059666D01*
X187104414Y-99078964D01*
X187104407Y-99078965D01*
X186890524Y-99136275D01*
X186890513Y-99136279D01*
X186689836Y-99229856D01*
X186689834Y-99229857D01*
X186508444Y-99356868D01*
X186351868Y-99513444D01*
X186224857Y-99694834D01*
X186224856Y-99694836D01*
X186167382Y-99818091D01*
X186121210Y-99870531D01*
X186054017Y-99889683D01*
X185987135Y-99869467D01*
X185942618Y-99818091D01*
X185914050Y-99756828D01*
X185885142Y-99694833D01*
X185758132Y-99513445D01*
X185601555Y-99356868D01*
X185420167Y-99229858D01*
X185420163Y-99229856D01*
X185219486Y-99136279D01*
X185219475Y-99136275D01*
X185005592Y-99078965D01*
X185005585Y-99078964D01*
X184785002Y-99059666D01*
X184784998Y-99059666D01*
X184564414Y-99078964D01*
X184564407Y-99078965D01*
X184350524Y-99136275D01*
X184350513Y-99136279D01*
X184149836Y-99229856D01*
X184149834Y-99229857D01*
X183968444Y-99356868D01*
X183811868Y-99513444D01*
X183684857Y-99694834D01*
X183684856Y-99694836D01*
X183627382Y-99818091D01*
X183581210Y-99870531D01*
X183514017Y-99889683D01*
X183447135Y-99869467D01*
X183402618Y-99818091D01*
X183374050Y-99756828D01*
X183345142Y-99694833D01*
X183218132Y-99513445D01*
X183061555Y-99356868D01*
X182880167Y-99229858D01*
X182880163Y-99229856D01*
X182679486Y-99136279D01*
X182679475Y-99136275D01*
X182465592Y-99078965D01*
X182465585Y-99078964D01*
X182245002Y-99059666D01*
X182244998Y-99059666D01*
X182024414Y-99078964D01*
X182024407Y-99078965D01*
X181810524Y-99136275D01*
X181810513Y-99136279D01*
X181609836Y-99229856D01*
X181609834Y-99229857D01*
X181428444Y-99356868D01*
X181271868Y-99513444D01*
X181144857Y-99694834D01*
X181144856Y-99694836D01*
X181087382Y-99818091D01*
X181041210Y-99870531D01*
X180974017Y-99889683D01*
X180907135Y-99869467D01*
X180862618Y-99818091D01*
X180834050Y-99756828D01*
X180805142Y-99694833D01*
X180678132Y-99513445D01*
X180521555Y-99356868D01*
X180340167Y-99229858D01*
X180340163Y-99229856D01*
X180139486Y-99136279D01*
X180139475Y-99136275D01*
X179925592Y-99078965D01*
X179925585Y-99078964D01*
X179705002Y-99059666D01*
X179704998Y-99059666D01*
X179484414Y-99078964D01*
X179484407Y-99078965D01*
X179270524Y-99136275D01*
X179270513Y-99136279D01*
X179069836Y-99229856D01*
X179069834Y-99229857D01*
X178888444Y-99356868D01*
X178731868Y-99513444D01*
X178604857Y-99694834D01*
X178604856Y-99694836D01*
X178547382Y-99818091D01*
X178501210Y-99870531D01*
X178434017Y-99889683D01*
X178367135Y-99869467D01*
X178322618Y-99818091D01*
X178294050Y-99756828D01*
X178265142Y-99694833D01*
X178138132Y-99513445D01*
X177981555Y-99356868D01*
X177800167Y-99229858D01*
X177800163Y-99229856D01*
X177599486Y-99136279D01*
X177599475Y-99136275D01*
X177385592Y-99078965D01*
X177385585Y-99078964D01*
X177165002Y-99059666D01*
X177164998Y-99059666D01*
X176944414Y-99078964D01*
X176944407Y-99078965D01*
X176730524Y-99136275D01*
X176730513Y-99136279D01*
X176529836Y-99229856D01*
X176529834Y-99229857D01*
X176348444Y-99356868D01*
X176191868Y-99513444D01*
X176064857Y-99694833D01*
X176007106Y-99818683D01*
X175960934Y-99871122D01*
X175893740Y-99890274D01*
X175826859Y-99870058D01*
X175782342Y-99818683D01*
X175724707Y-99695085D01*
X175724706Y-99695083D01*
X175678894Y-99629657D01*
X175678894Y-99629656D01*
X175116127Y-100192423D01*
X175100245Y-100133147D01*
X175033102Y-100016853D01*
X174938147Y-99921898D01*
X174821853Y-99854755D01*
X174762575Y-99838872D01*
X175325342Y-99276105D01*
X175325341Y-99276103D01*
X175259919Y-99230295D01*
X175059309Y-99136749D01*
X175059300Y-99136745D01*
X174845509Y-99079461D01*
X174845499Y-99079459D01*
X174625001Y-99060168D01*
X174624999Y-99060168D01*
X174404500Y-99079459D01*
X174404490Y-99079461D01*
X174190699Y-99136745D01*
X174190690Y-99136749D01*
X173990084Y-99230293D01*
X173924657Y-99276104D01*
X174487424Y-99838871D01*
X174428147Y-99854755D01*
X174311853Y-99921898D01*
X174216898Y-100016853D01*
X174149755Y-100133147D01*
X174133871Y-100192424D01*
X173571104Y-99629657D01*
X173525293Y-99695084D01*
X173467657Y-99818683D01*
X173421484Y-99871122D01*
X173354290Y-99890274D01*
X173287409Y-99870058D01*
X173242893Y-99818682D01*
X173185142Y-99694833D01*
X173058132Y-99513445D01*
X172901555Y-99356868D01*
X172720167Y-99229858D01*
X172720163Y-99229856D01*
X172519486Y-99136279D01*
X172519475Y-99136275D01*
X172305592Y-99078965D01*
X172305585Y-99078964D01*
X172085002Y-99059666D01*
X172084998Y-99059666D01*
X171864414Y-99078964D01*
X171864407Y-99078965D01*
X171650524Y-99136275D01*
X171650513Y-99136279D01*
X171449836Y-99229856D01*
X171449834Y-99229857D01*
X171268444Y-99356868D01*
X171111868Y-99513444D01*
X170984857Y-99694834D01*
X170984856Y-99694836D01*
X170891279Y-99895513D01*
X170891275Y-99895524D01*
X170833965Y-100109407D01*
X170833964Y-100109414D01*
X170814666Y-100329998D01*
X170814666Y-100330001D01*
X146710400Y-100330001D01*
X146710400Y-96520001D01*
X197824666Y-96520001D01*
X197843964Y-96740585D01*
X197843965Y-96740592D01*
X197901275Y-96954475D01*
X197901279Y-96954486D01*
X197994742Y-97154919D01*
X197994858Y-97155167D01*
X198121868Y-97336555D01*
X198278445Y-97493132D01*
X198459833Y-97620142D01*
X198511988Y-97644462D01*
X198660513Y-97713720D01*
X198660515Y-97713720D01*
X198660520Y-97713723D01*
X198874409Y-97771035D01*
X199031974Y-97784820D01*
X199094998Y-97790334D01*
X199095000Y-97790334D01*
X199095002Y-97790334D01*
X199150276Y-97785498D01*
X199315591Y-97771035D01*
X199529480Y-97713723D01*
X199730167Y-97620142D01*
X199911555Y-97493132D01*
X200068132Y-97336555D01*
X200195142Y-97155167D01*
X200252618Y-97031907D01*
X200298790Y-96979468D01*
X200365983Y-96960316D01*
X200432864Y-96980531D01*
X200477381Y-97031907D01*
X200534858Y-97155167D01*
X200661868Y-97336555D01*
X200818445Y-97493132D01*
X200999833Y-97620142D01*
X201051988Y-97644462D01*
X201200513Y-97713720D01*
X201200515Y-97713720D01*
X201200520Y-97713723D01*
X201414409Y-97771035D01*
X201571974Y-97784820D01*
X201634998Y-97790334D01*
X201635000Y-97790334D01*
X201635002Y-97790334D01*
X201690276Y-97785498D01*
X201855591Y-97771035D01*
X202069480Y-97713723D01*
X202270167Y-97620142D01*
X202451555Y-97493132D01*
X202608132Y-97336555D01*
X202735142Y-97155167D01*
X202792618Y-97031907D01*
X202838790Y-96979468D01*
X202905983Y-96960316D01*
X202972864Y-96980531D01*
X203017381Y-97031907D01*
X203074858Y-97155167D01*
X203201868Y-97336555D01*
X203358445Y-97493132D01*
X203539833Y-97620142D01*
X203591988Y-97644462D01*
X203740513Y-97713720D01*
X203740515Y-97713720D01*
X203740520Y-97713723D01*
X203954409Y-97771035D01*
X204111974Y-97784820D01*
X204174998Y-97790334D01*
X204175000Y-97790334D01*
X204175002Y-97790334D01*
X204230276Y-97785498D01*
X204395591Y-97771035D01*
X204609480Y-97713723D01*
X204810167Y-97620142D01*
X204991555Y-97493132D01*
X205148132Y-97336555D01*
X205275142Y-97155167D01*
X205332618Y-97031907D01*
X205378790Y-96979468D01*
X205445983Y-96960316D01*
X205512864Y-96980531D01*
X205557381Y-97031907D01*
X205614858Y-97155167D01*
X205741868Y-97336555D01*
X205898445Y-97493132D01*
X206079833Y-97620142D01*
X206131988Y-97644462D01*
X206280513Y-97713720D01*
X206280515Y-97713720D01*
X206280520Y-97713723D01*
X206494409Y-97771035D01*
X206651974Y-97784820D01*
X206714998Y-97790334D01*
X206715000Y-97790334D01*
X206715002Y-97790334D01*
X206770276Y-97785498D01*
X206935591Y-97771035D01*
X207149480Y-97713723D01*
X207350167Y-97620142D01*
X207531555Y-97493132D01*
X207688132Y-97336555D01*
X207815142Y-97155167D01*
X207872618Y-97031907D01*
X207918790Y-96979468D01*
X207985983Y-96960316D01*
X208052864Y-96980531D01*
X208097381Y-97031907D01*
X208154858Y-97155167D01*
X208281868Y-97336555D01*
X208438445Y-97493132D01*
X208438447Y-97493134D01*
X208438449Y-97493135D01*
X208464617Y-97511458D01*
X208576624Y-97589886D01*
X208620248Y-97644462D01*
X208629500Y-97691460D01*
X208629500Y-97816606D01*
X208653537Y-97937452D01*
X208656947Y-97945684D01*
X208656948Y-97945689D01*
X208656949Y-97945689D01*
X208671126Y-97979915D01*
X208700689Y-98051289D01*
X208734079Y-98101260D01*
X208734085Y-98101267D01*
X208769141Y-98153732D01*
X208769144Y-98153736D01*
X208860586Y-98245178D01*
X208860608Y-98245198D01*
X209511016Y-98895606D01*
X209511045Y-98895637D01*
X209601264Y-98985856D01*
X209601267Y-98985858D01*
X209652490Y-99020084D01*
X209703714Y-99054312D01*
X209763231Y-99078964D01*
X209763232Y-99078965D01*
X209792936Y-99091268D01*
X209817548Y-99101463D01*
X209877971Y-99113481D01*
X209938393Y-99125500D01*
X209938394Y-99125500D01*
X211189548Y-99125500D01*
X211256587Y-99145185D01*
X211277229Y-99161819D01*
X213011016Y-100895606D01*
X213011045Y-100895637D01*
X213101264Y-100985856D01*
X213101267Y-100985858D01*
X213152490Y-101020084D01*
X213203714Y-101054312D01*
X213284207Y-101087652D01*
X213317548Y-101101463D01*
X213377971Y-101113481D01*
X213438393Y-101125500D01*
X213438394Y-101125500D01*
X234689548Y-101125500D01*
X234756587Y-101145185D01*
X234777229Y-101161819D01*
X240101263Y-106485855D01*
X240101267Y-106485858D01*
X240203710Y-106554309D01*
X240203711Y-106554309D01*
X240203715Y-106554312D01*
X240270396Y-106581931D01*
X240270398Y-106581933D01*
X240317543Y-106601461D01*
X240317548Y-106601463D01*
X240337597Y-106605451D01*
X240371196Y-106612134D01*
X240438392Y-106625501D01*
X240438394Y-106625501D01*
X240567721Y-106625501D01*
X240567741Y-106625500D01*
X242077019Y-106625500D01*
X242144058Y-106645185D01*
X242187503Y-106693203D01*
X242194950Y-106707819D01*
X242319890Y-106879786D01*
X242470213Y-107030109D01*
X242642179Y-107155048D01*
X242642181Y-107155049D01*
X242642184Y-107155051D01*
X242831588Y-107251557D01*
X243033757Y-107317246D01*
X243243713Y-107350500D01*
X243243714Y-107350500D01*
X243756286Y-107350500D01*
X243756287Y-107350500D01*
X243966243Y-107317246D01*
X244168412Y-107251557D01*
X244357816Y-107155051D01*
X244459442Y-107081216D01*
X244529786Y-107030109D01*
X244529788Y-107030106D01*
X244529792Y-107030104D01*
X244680104Y-106879792D01*
X244680106Y-106879788D01*
X244680109Y-106879786D01*
X244805048Y-106707820D01*
X244805049Y-106707819D01*
X244805051Y-106707816D01*
X244901557Y-106518412D01*
X244967246Y-106316243D01*
X245000500Y-106106287D01*
X245000500Y-105893713D01*
X244967246Y-105683757D01*
X244901557Y-105481588D01*
X244805051Y-105292184D01*
X244805049Y-105292181D01*
X244805048Y-105292179D01*
X244680109Y-105120213D01*
X244541294Y-104981398D01*
X244507809Y-104920075D01*
X244512793Y-104850383D01*
X244554665Y-104794450D01*
X244563879Y-104788178D01*
X244569331Y-104784814D01*
X244569334Y-104784814D01*
X244718656Y-104692712D01*
X244842712Y-104568656D01*
X244934814Y-104419334D01*
X244989999Y-104252797D01*
X245000500Y-104150009D01*
X245000499Y-102849992D01*
X244989999Y-102747203D01*
X244934814Y-102580666D01*
X244842712Y-102431344D01*
X244718656Y-102307288D01*
X244625888Y-102250069D01*
X244569336Y-102215187D01*
X244569331Y-102215185D01*
X244567862Y-102214698D01*
X244402797Y-102160001D01*
X244402795Y-102160000D01*
X244300010Y-102149500D01*
X242699998Y-102149500D01*
X242699981Y-102149501D01*
X242597203Y-102160000D01*
X242597200Y-102160001D01*
X242430668Y-102215185D01*
X242430663Y-102215187D01*
X242281342Y-102307289D01*
X242157289Y-102431342D01*
X242065187Y-102580663D01*
X242065185Y-102580668D01*
X242044911Y-102641852D01*
X242010001Y-102747203D01*
X242010001Y-102747204D01*
X242010000Y-102747204D01*
X241999500Y-102849983D01*
X241999500Y-104150001D01*
X241999501Y-104150018D01*
X242010000Y-104252796D01*
X242010001Y-104252799D01*
X242065185Y-104419331D01*
X242065187Y-104419336D01*
X242069702Y-104426656D01*
X242138942Y-104538913D01*
X242157289Y-104568657D01*
X242281344Y-104692712D01*
X242436120Y-104788178D01*
X242482845Y-104840126D01*
X242494068Y-104909088D01*
X242466224Y-104973171D01*
X242458706Y-104981398D01*
X242319889Y-105120215D01*
X242194950Y-105292180D01*
X242187503Y-105306797D01*
X242139527Y-105357592D01*
X242077019Y-105374500D01*
X240810453Y-105374500D01*
X240743414Y-105354815D01*
X240722772Y-105338181D01*
X235492928Y-100108338D01*
X235492925Y-100108334D01*
X235492925Y-100108335D01*
X235485859Y-100101269D01*
X235485858Y-100101267D01*
X235398733Y-100014142D01*
X235398729Y-100014139D01*
X235398728Y-100014138D01*
X235322060Y-99962910D01*
X235322059Y-99962909D01*
X235296290Y-99945690D01*
X235296286Y-99945688D01*
X235215792Y-99912347D01*
X235182453Y-99898537D01*
X235172427Y-99896543D01*
X235122029Y-99886518D01*
X235061610Y-99874500D01*
X235061607Y-99874500D01*
X235061606Y-99874500D01*
X213810452Y-99874500D01*
X213743413Y-99854815D01*
X213722771Y-99838181D01*
X211990198Y-98105608D01*
X211990178Y-98105586D01*
X211898736Y-98014144D01*
X211898732Y-98014141D01*
X211883733Y-98004119D01*
X211838928Y-97950507D01*
X211830221Y-97881182D01*
X211860375Y-97818155D01*
X211919818Y-97781435D01*
X211941813Y-97777489D01*
X212015591Y-97771035D01*
X212229480Y-97713723D01*
X212430167Y-97620142D01*
X212611555Y-97493132D01*
X212768132Y-97336555D01*
X212895142Y-97155167D01*
X212952618Y-97031907D01*
X212998790Y-96979468D01*
X213065983Y-96960316D01*
X213132864Y-96980531D01*
X213177381Y-97031907D01*
X213234858Y-97155167D01*
X213361868Y-97336555D01*
X213518445Y-97493132D01*
X213699833Y-97620142D01*
X213751988Y-97644462D01*
X213900513Y-97713720D01*
X213900515Y-97713720D01*
X213900520Y-97713723D01*
X214114409Y-97771035D01*
X214271974Y-97784820D01*
X214334998Y-97790334D01*
X214335000Y-97790334D01*
X214335002Y-97790334D01*
X214390276Y-97785498D01*
X214555591Y-97771035D01*
X214769480Y-97713723D01*
X214970167Y-97620142D01*
X215151555Y-97493132D01*
X215308132Y-97336555D01*
X215435142Y-97155167D01*
X215492618Y-97031907D01*
X215538790Y-96979468D01*
X215605983Y-96960316D01*
X215672864Y-96980531D01*
X215717381Y-97031907D01*
X215774858Y-97155167D01*
X215901868Y-97336555D01*
X216058445Y-97493132D01*
X216239833Y-97620142D01*
X216291988Y-97644462D01*
X216440513Y-97713720D01*
X216440515Y-97713720D01*
X216440520Y-97713723D01*
X216654409Y-97771035D01*
X216811974Y-97784820D01*
X216874998Y-97790334D01*
X216875000Y-97790334D01*
X216875002Y-97790334D01*
X216930276Y-97785498D01*
X217095591Y-97771035D01*
X217309480Y-97713723D01*
X217510167Y-97620142D01*
X217691555Y-97493132D01*
X217848132Y-97336555D01*
X217975142Y-97155167D01*
X218032618Y-97031907D01*
X218078790Y-96979468D01*
X218145983Y-96960316D01*
X218212864Y-96980531D01*
X218257381Y-97031907D01*
X218314858Y-97155167D01*
X218441868Y-97336555D01*
X218598445Y-97493132D01*
X218779833Y-97620142D01*
X218831988Y-97644462D01*
X218980513Y-97713720D01*
X218980515Y-97713720D01*
X218980520Y-97713723D01*
X219194409Y-97771035D01*
X219351974Y-97784820D01*
X219414998Y-97790334D01*
X219415000Y-97790334D01*
X219415002Y-97790334D01*
X219470276Y-97785498D01*
X219635591Y-97771035D01*
X219849480Y-97713723D01*
X220050167Y-97620142D01*
X220231555Y-97493132D01*
X220388132Y-97336555D01*
X220515142Y-97155167D01*
X220572618Y-97031907D01*
X220618790Y-96979468D01*
X220685983Y-96960316D01*
X220752864Y-96980531D01*
X220797381Y-97031907D01*
X220854858Y-97155167D01*
X220981868Y-97336555D01*
X221138445Y-97493132D01*
X221319833Y-97620142D01*
X221371988Y-97644462D01*
X221520513Y-97713720D01*
X221520515Y-97713720D01*
X221520520Y-97713723D01*
X221734409Y-97771035D01*
X221891974Y-97784820D01*
X221954998Y-97790334D01*
X221955000Y-97790334D01*
X221955002Y-97790334D01*
X222010276Y-97785498D01*
X222175591Y-97771035D01*
X222389480Y-97713723D01*
X222590167Y-97620142D01*
X222771555Y-97493132D01*
X222928132Y-97336555D01*
X223055142Y-97155167D01*
X223112618Y-97031907D01*
X223158790Y-96979468D01*
X223225983Y-96960316D01*
X223292864Y-96980531D01*
X223337381Y-97031907D01*
X223394858Y-97155167D01*
X223521868Y-97336555D01*
X223678445Y-97493132D01*
X223859833Y-97620142D01*
X223911988Y-97644462D01*
X224060513Y-97713720D01*
X224060515Y-97713720D01*
X224060520Y-97713723D01*
X224274409Y-97771035D01*
X224431974Y-97784820D01*
X224494998Y-97790334D01*
X224495000Y-97790334D01*
X224495002Y-97790334D01*
X224550276Y-97785498D01*
X224715591Y-97771035D01*
X224929480Y-97713723D01*
X225130167Y-97620142D01*
X225311555Y-97493132D01*
X225468132Y-97336555D01*
X225595142Y-97155167D01*
X225652618Y-97031907D01*
X225698790Y-96979468D01*
X225765983Y-96960316D01*
X225832864Y-96980531D01*
X225877381Y-97031907D01*
X225934858Y-97155167D01*
X226061868Y-97336555D01*
X226218445Y-97493132D01*
X226399833Y-97620142D01*
X226451988Y-97644462D01*
X226600513Y-97713720D01*
X226600515Y-97713720D01*
X226600520Y-97713723D01*
X226814409Y-97771035D01*
X226971974Y-97784820D01*
X227034998Y-97790334D01*
X227035000Y-97790334D01*
X227035002Y-97790334D01*
X227090276Y-97785498D01*
X227255591Y-97771035D01*
X227469480Y-97713723D01*
X227670167Y-97620142D01*
X227851555Y-97493132D01*
X228008132Y-97336555D01*
X228135142Y-97155167D01*
X228192618Y-97031907D01*
X228238790Y-96979468D01*
X228305983Y-96960316D01*
X228372864Y-96980531D01*
X228417381Y-97031907D01*
X228474858Y-97155167D01*
X228601868Y-97336555D01*
X228758445Y-97493132D01*
X228939833Y-97620142D01*
X228991988Y-97644462D01*
X229140513Y-97713720D01*
X229140515Y-97713720D01*
X229140520Y-97713723D01*
X229354409Y-97771035D01*
X229511974Y-97784820D01*
X229574998Y-97790334D01*
X229575000Y-97790334D01*
X229575002Y-97790334D01*
X229630276Y-97785498D01*
X229795591Y-97771035D01*
X230009480Y-97713723D01*
X230210167Y-97620142D01*
X230391555Y-97493132D01*
X230548132Y-97336555D01*
X230675142Y-97155167D01*
X230732895Y-97031312D01*
X230779064Y-96978878D01*
X230846258Y-96959725D01*
X230913139Y-96979940D01*
X230957657Y-97031316D01*
X231015295Y-97154919D01*
X231061103Y-97220341D01*
X231061105Y-97220342D01*
X231623871Y-96657575D01*
X231639755Y-96716853D01*
X231706898Y-96833147D01*
X231801853Y-96928102D01*
X231918147Y-96995245D01*
X231977424Y-97011128D01*
X231414656Y-97573894D01*
X231480083Y-97619706D01*
X231480085Y-97619707D01*
X231680690Y-97713250D01*
X231680699Y-97713254D01*
X231894490Y-97770538D01*
X231894500Y-97770540D01*
X232114999Y-97789832D01*
X232115001Y-97789832D01*
X232335499Y-97770540D01*
X232335509Y-97770538D01*
X232549300Y-97713254D01*
X232549309Y-97713250D01*
X232749915Y-97619706D01*
X232815342Y-97573894D01*
X232252575Y-97011127D01*
X232311853Y-96995245D01*
X232428147Y-96928102D01*
X232523102Y-96833147D01*
X232590245Y-96716853D01*
X232606128Y-96657575D01*
X233168894Y-97220342D01*
X233173283Y-97219958D01*
X233218499Y-97183814D01*
X233287998Y-97176619D01*
X233350353Y-97208140D01*
X233385768Y-97268369D01*
X233389500Y-97298558D01*
X233389500Y-97332868D01*
X233389501Y-97332876D01*
X233395908Y-97392483D01*
X233446202Y-97527328D01*
X233446206Y-97527335D01*
X233532452Y-97642544D01*
X233532455Y-97642547D01*
X233647664Y-97728793D01*
X233647671Y-97728797D01*
X233782517Y-97779091D01*
X233782516Y-97779091D01*
X233789444Y-97779835D01*
X233842127Y-97785500D01*
X235467872Y-97785499D01*
X235527483Y-97779091D01*
X235662331Y-97728796D01*
X235777546Y-97642546D01*
X235863796Y-97527331D01*
X235914091Y-97392483D01*
X235920500Y-97332873D01*
X235920499Y-95707128D01*
X235914091Y-95647517D01*
X235876551Y-95546868D01*
X235863797Y-95512671D01*
X235863793Y-95512664D01*
X235777547Y-95397455D01*
X235777544Y-95397452D01*
X235662335Y-95311206D01*
X235662328Y-95311202D01*
X235527482Y-95260908D01*
X235527483Y-95260908D01*
X235467883Y-95254501D01*
X235467881Y-95254500D01*
X235467873Y-95254500D01*
X235467864Y-95254500D01*
X233842129Y-95254500D01*
X233842123Y-95254501D01*
X233782516Y-95260908D01*
X233647671Y-95311202D01*
X233647664Y-95311206D01*
X233532455Y-95397452D01*
X233532452Y-95397455D01*
X233446206Y-95512664D01*
X233446202Y-95512671D01*
X233395908Y-95647517D01*
X233389896Y-95703444D01*
X233389501Y-95707123D01*
X233389500Y-95707135D01*
X233389500Y-95741436D01*
X233369815Y-95808475D01*
X233317011Y-95854230D01*
X233247853Y-95864174D01*
X233184297Y-95835149D01*
X233170448Y-95819792D01*
X233168894Y-95819656D01*
X232606127Y-96382423D01*
X232590245Y-96323147D01*
X232523102Y-96206853D01*
X232428147Y-96111898D01*
X232311853Y-96044755D01*
X232252575Y-96028872D01*
X232815342Y-95466105D01*
X232815341Y-95466103D01*
X232749919Y-95420295D01*
X232549309Y-95326749D01*
X232549300Y-95326745D01*
X232335509Y-95269461D01*
X232335499Y-95269459D01*
X232115001Y-95250168D01*
X232114999Y-95250168D01*
X231894500Y-95269459D01*
X231894490Y-95269461D01*
X231680699Y-95326745D01*
X231680690Y-95326749D01*
X231480084Y-95420293D01*
X231414657Y-95466104D01*
X231977424Y-96028871D01*
X231918147Y-96044755D01*
X231801853Y-96111898D01*
X231706898Y-96206853D01*
X231639755Y-96323147D01*
X231623871Y-96382424D01*
X231061104Y-95819657D01*
X231015293Y-95885084D01*
X230957657Y-96008683D01*
X230911484Y-96061122D01*
X230844290Y-96080274D01*
X230777409Y-96060058D01*
X230732893Y-96008682D01*
X230675142Y-95884833D01*
X230548132Y-95703445D01*
X230391555Y-95546868D01*
X230210167Y-95419858D01*
X230210163Y-95419856D01*
X230009486Y-95326279D01*
X230009475Y-95326275D01*
X229795592Y-95268965D01*
X229795585Y-95268964D01*
X229575002Y-95249666D01*
X229574998Y-95249666D01*
X229354414Y-95268964D01*
X229354407Y-95268965D01*
X229140524Y-95326275D01*
X229140513Y-95326279D01*
X228939836Y-95419856D01*
X228939834Y-95419857D01*
X228758444Y-95546868D01*
X228601868Y-95703444D01*
X228474857Y-95884834D01*
X228474856Y-95884836D01*
X228417382Y-96008091D01*
X228371210Y-96060531D01*
X228304017Y-96079683D01*
X228237135Y-96059467D01*
X228192618Y-96008091D01*
X228135143Y-95884836D01*
X228135142Y-95884834D01*
X228135142Y-95884833D01*
X228008132Y-95703445D01*
X227851555Y-95546868D01*
X227670167Y-95419858D01*
X227670163Y-95419856D01*
X227469486Y-95326279D01*
X227469475Y-95326275D01*
X227255592Y-95268965D01*
X227255585Y-95268964D01*
X227035002Y-95249666D01*
X227034998Y-95249666D01*
X226814414Y-95268964D01*
X226814407Y-95268965D01*
X226600524Y-95326275D01*
X226600513Y-95326279D01*
X226399836Y-95419856D01*
X226399834Y-95419857D01*
X226218444Y-95546868D01*
X226061868Y-95703444D01*
X225934857Y-95884834D01*
X225934856Y-95884836D01*
X225877382Y-96008091D01*
X225831210Y-96060531D01*
X225764017Y-96079683D01*
X225697135Y-96059467D01*
X225652618Y-96008091D01*
X225595143Y-95884836D01*
X225595142Y-95884834D01*
X225595142Y-95884833D01*
X225468132Y-95703445D01*
X225311555Y-95546868D01*
X225130167Y-95419858D01*
X225130163Y-95419856D01*
X224929486Y-95326279D01*
X224929475Y-95326275D01*
X224715592Y-95268965D01*
X224715585Y-95268964D01*
X224495002Y-95249666D01*
X224494998Y-95249666D01*
X224274414Y-95268964D01*
X224274407Y-95268965D01*
X224060524Y-95326275D01*
X224060513Y-95326279D01*
X223859836Y-95419856D01*
X223859834Y-95419857D01*
X223678444Y-95546868D01*
X223521868Y-95703444D01*
X223394857Y-95884834D01*
X223394856Y-95884836D01*
X223337382Y-96008091D01*
X223291210Y-96060531D01*
X223224017Y-96079683D01*
X223157135Y-96059467D01*
X223112618Y-96008091D01*
X223055143Y-95884836D01*
X223055142Y-95884834D01*
X223055142Y-95884833D01*
X222928132Y-95703445D01*
X222771555Y-95546868D01*
X222590167Y-95419858D01*
X222590163Y-95419856D01*
X222389486Y-95326279D01*
X222389475Y-95326275D01*
X222175592Y-95268965D01*
X222175585Y-95268964D01*
X221955002Y-95249666D01*
X221954998Y-95249666D01*
X221734414Y-95268964D01*
X221734407Y-95268965D01*
X221520524Y-95326275D01*
X221520513Y-95326279D01*
X221319836Y-95419856D01*
X221319834Y-95419857D01*
X221138444Y-95546868D01*
X220981868Y-95703444D01*
X220854857Y-95884834D01*
X220854856Y-95884836D01*
X220797382Y-96008091D01*
X220751210Y-96060531D01*
X220684017Y-96079683D01*
X220617135Y-96059467D01*
X220572618Y-96008091D01*
X220515143Y-95884836D01*
X220515142Y-95884834D01*
X220515142Y-95884833D01*
X220388132Y-95703445D01*
X220231555Y-95546868D01*
X220050167Y-95419858D01*
X220050163Y-95419856D01*
X219849486Y-95326279D01*
X219849475Y-95326275D01*
X219635592Y-95268965D01*
X219635585Y-95268964D01*
X219415002Y-95249666D01*
X219414998Y-95249666D01*
X219194414Y-95268964D01*
X219194407Y-95268965D01*
X218980524Y-95326275D01*
X218980513Y-95326279D01*
X218779836Y-95419856D01*
X218779834Y-95419857D01*
X218598444Y-95546868D01*
X218441868Y-95703444D01*
X218314857Y-95884834D01*
X218314856Y-95884836D01*
X218257382Y-96008091D01*
X218211210Y-96060531D01*
X218144017Y-96079683D01*
X218077135Y-96059467D01*
X218032618Y-96008091D01*
X217975143Y-95884836D01*
X217975142Y-95884834D01*
X217975142Y-95884833D01*
X217848132Y-95703445D01*
X217691555Y-95546868D01*
X217510167Y-95419858D01*
X217510163Y-95419856D01*
X217309486Y-95326279D01*
X217309475Y-95326275D01*
X217095592Y-95268965D01*
X217095585Y-95268964D01*
X216875002Y-95249666D01*
X216874998Y-95249666D01*
X216654414Y-95268964D01*
X216654407Y-95268965D01*
X216440524Y-95326275D01*
X216440513Y-95326279D01*
X216239836Y-95419856D01*
X216239834Y-95419857D01*
X216058444Y-95546868D01*
X215901868Y-95703444D01*
X215774857Y-95884834D01*
X215774856Y-95884836D01*
X215717382Y-96008091D01*
X215671210Y-96060531D01*
X215604017Y-96079683D01*
X215537135Y-96059467D01*
X215492618Y-96008091D01*
X215435143Y-95884836D01*
X215435142Y-95884834D01*
X215435142Y-95884833D01*
X215308132Y-95703445D01*
X215151555Y-95546868D01*
X214970167Y-95419858D01*
X214970163Y-95419856D01*
X214769486Y-95326279D01*
X214769475Y-95326275D01*
X214555592Y-95268965D01*
X214555585Y-95268964D01*
X214335002Y-95249666D01*
X214334998Y-95249666D01*
X214114414Y-95268964D01*
X214114407Y-95268965D01*
X213900524Y-95326275D01*
X213900513Y-95326279D01*
X213699836Y-95419856D01*
X213699834Y-95419857D01*
X213518444Y-95546868D01*
X213361868Y-95703444D01*
X213234857Y-95884834D01*
X213234856Y-95884836D01*
X213177382Y-96008091D01*
X213131210Y-96060531D01*
X213064017Y-96079683D01*
X212997135Y-96059467D01*
X212952618Y-96008091D01*
X212895143Y-95884836D01*
X212895142Y-95884834D01*
X212895142Y-95884833D01*
X212768132Y-95703445D01*
X212611555Y-95546868D01*
X212430167Y-95419858D01*
X212430163Y-95419856D01*
X212229486Y-95326279D01*
X212229475Y-95326275D01*
X212015592Y-95268965D01*
X212015585Y-95268964D01*
X211795002Y-95249666D01*
X211794998Y-95249666D01*
X211574414Y-95268964D01*
X211574407Y-95268965D01*
X211360524Y-95326275D01*
X211360513Y-95326279D01*
X211159836Y-95419856D01*
X211159834Y-95419857D01*
X210978444Y-95546868D01*
X210821868Y-95703444D01*
X210694857Y-95884834D01*
X210694856Y-95884836D01*
X210637382Y-96008091D01*
X210591210Y-96060531D01*
X210524017Y-96079683D01*
X210457135Y-96059467D01*
X210412618Y-96008091D01*
X210355143Y-95884836D01*
X210355142Y-95884834D01*
X210355142Y-95884833D01*
X210228132Y-95703445D01*
X210071555Y-95546868D01*
X209890167Y-95419858D01*
X209890163Y-95419856D01*
X209689486Y-95326279D01*
X209689475Y-95326275D01*
X209475592Y-95268965D01*
X209475585Y-95268964D01*
X209255002Y-95249666D01*
X209254998Y-95249666D01*
X209034414Y-95268964D01*
X209034407Y-95268965D01*
X208820524Y-95326275D01*
X208820513Y-95326279D01*
X208619836Y-95419856D01*
X208619834Y-95419857D01*
X208438444Y-95546868D01*
X208281868Y-95703444D01*
X208154857Y-95884834D01*
X208154856Y-95884836D01*
X208097382Y-96008091D01*
X208051210Y-96060531D01*
X207984017Y-96079683D01*
X207917135Y-96059467D01*
X207872618Y-96008091D01*
X207815143Y-95884836D01*
X207815142Y-95884834D01*
X207815142Y-95884833D01*
X207688132Y-95703445D01*
X207531555Y-95546868D01*
X207350167Y-95419858D01*
X207350163Y-95419856D01*
X207149486Y-95326279D01*
X207149475Y-95326275D01*
X206935592Y-95268965D01*
X206935585Y-95268964D01*
X206715002Y-95249666D01*
X206714998Y-95249666D01*
X206494414Y-95268964D01*
X206494407Y-95268965D01*
X206280524Y-95326275D01*
X206280513Y-95326279D01*
X206079836Y-95419856D01*
X206079834Y-95419857D01*
X205898444Y-95546868D01*
X205741868Y-95703444D01*
X205614857Y-95884834D01*
X205614856Y-95884836D01*
X205557382Y-96008091D01*
X205511210Y-96060531D01*
X205444017Y-96079683D01*
X205377135Y-96059467D01*
X205332618Y-96008091D01*
X205275143Y-95884836D01*
X205275142Y-95884834D01*
X205275142Y-95884833D01*
X205148132Y-95703445D01*
X204991555Y-95546868D01*
X204810167Y-95419858D01*
X204810163Y-95419856D01*
X204609486Y-95326279D01*
X204609475Y-95326275D01*
X204395592Y-95268965D01*
X204395585Y-95268964D01*
X204175002Y-95249666D01*
X204174998Y-95249666D01*
X203954414Y-95268964D01*
X203954407Y-95268965D01*
X203740524Y-95326275D01*
X203740513Y-95326279D01*
X203539836Y-95419856D01*
X203539834Y-95419857D01*
X203358444Y-95546868D01*
X203201868Y-95703444D01*
X203074857Y-95884834D01*
X203074856Y-95884836D01*
X203017382Y-96008091D01*
X202971210Y-96060531D01*
X202904017Y-96079683D01*
X202837135Y-96059467D01*
X202792618Y-96008091D01*
X202735143Y-95884836D01*
X202735142Y-95884834D01*
X202735142Y-95884833D01*
X202608132Y-95703445D01*
X202451555Y-95546868D01*
X202270167Y-95419858D01*
X202270163Y-95419856D01*
X202069486Y-95326279D01*
X202069475Y-95326275D01*
X201855592Y-95268965D01*
X201855585Y-95268964D01*
X201635002Y-95249666D01*
X201634998Y-95249666D01*
X201414414Y-95268964D01*
X201414407Y-95268965D01*
X201200524Y-95326275D01*
X201200513Y-95326279D01*
X200999836Y-95419856D01*
X200999834Y-95419857D01*
X200818444Y-95546868D01*
X200661868Y-95703444D01*
X200534857Y-95884834D01*
X200534856Y-95884836D01*
X200477382Y-96008091D01*
X200431210Y-96060531D01*
X200364017Y-96079683D01*
X200297135Y-96059467D01*
X200252618Y-96008091D01*
X200195143Y-95884836D01*
X200195142Y-95884834D01*
X200195142Y-95884833D01*
X200068132Y-95703445D01*
X199911555Y-95546868D01*
X199730167Y-95419858D01*
X199730163Y-95419856D01*
X199529486Y-95326279D01*
X199529475Y-95326275D01*
X199315592Y-95268965D01*
X199315585Y-95268964D01*
X199095002Y-95249666D01*
X199094998Y-95249666D01*
X198874414Y-95268964D01*
X198874407Y-95268965D01*
X198660524Y-95326275D01*
X198660513Y-95326279D01*
X198459836Y-95419856D01*
X198459834Y-95419857D01*
X198278444Y-95546868D01*
X198121868Y-95703444D01*
X197994857Y-95884834D01*
X197994856Y-95884836D01*
X197901279Y-96085513D01*
X197901275Y-96085524D01*
X197843965Y-96299407D01*
X197843964Y-96299414D01*
X197824666Y-96519998D01*
X197824666Y-96520001D01*
X146710400Y-96520001D01*
X146710400Y-87630001D01*
X170814666Y-87630001D01*
X170833964Y-87850585D01*
X170833965Y-87850592D01*
X170891275Y-88064475D01*
X170891279Y-88064486D01*
X170984856Y-88265163D01*
X170984858Y-88265167D01*
X171111868Y-88446555D01*
X171268445Y-88603132D01*
X171449833Y-88730142D01*
X171570572Y-88786443D01*
X171650513Y-88823720D01*
X171650515Y-88823720D01*
X171650520Y-88823723D01*
X171864409Y-88881035D01*
X172021974Y-88894820D01*
X172084998Y-88900334D01*
X172085000Y-88900334D01*
X172085002Y-88900334D01*
X172140276Y-88895498D01*
X172305591Y-88881035D01*
X172519480Y-88823723D01*
X172720167Y-88730142D01*
X172901555Y-88603132D01*
X173058132Y-88446555D01*
X173185142Y-88265167D01*
X173242618Y-88141907D01*
X173288790Y-88089468D01*
X173355983Y-88070316D01*
X173422864Y-88090531D01*
X173467381Y-88141907D01*
X173524858Y-88265167D01*
X173651868Y-88446555D01*
X173808445Y-88603132D01*
X173989833Y-88730142D01*
X174110572Y-88786443D01*
X174190513Y-88823720D01*
X174190515Y-88823720D01*
X174190520Y-88823723D01*
X174404409Y-88881035D01*
X174561974Y-88894820D01*
X174624998Y-88900334D01*
X174625000Y-88900334D01*
X174625002Y-88900334D01*
X174680276Y-88895498D01*
X174845591Y-88881035D01*
X175059480Y-88823723D01*
X175260167Y-88730142D01*
X175441555Y-88603132D01*
X175598132Y-88446555D01*
X175725142Y-88265167D01*
X175782618Y-88141907D01*
X175828790Y-88089468D01*
X175895983Y-88070316D01*
X175962864Y-88090531D01*
X176007381Y-88141907D01*
X176064858Y-88265167D01*
X176191868Y-88446555D01*
X176348445Y-88603132D01*
X176529833Y-88730142D01*
X176650572Y-88786443D01*
X176730513Y-88823720D01*
X176730515Y-88823720D01*
X176730520Y-88823723D01*
X176944409Y-88881035D01*
X177101974Y-88894820D01*
X177164998Y-88900334D01*
X177165000Y-88900334D01*
X177165002Y-88900334D01*
X177220276Y-88895498D01*
X177385591Y-88881035D01*
X177599480Y-88823723D01*
X177800167Y-88730142D01*
X177981555Y-88603132D01*
X178138132Y-88446555D01*
X178265142Y-88265167D01*
X178322618Y-88141907D01*
X178368790Y-88089468D01*
X178435983Y-88070316D01*
X178502864Y-88090531D01*
X178547381Y-88141907D01*
X178604858Y-88265167D01*
X178731868Y-88446555D01*
X178888445Y-88603132D01*
X179069833Y-88730142D01*
X179190572Y-88786443D01*
X179270513Y-88823720D01*
X179270515Y-88823720D01*
X179270520Y-88823723D01*
X179484409Y-88881035D01*
X179641974Y-88894820D01*
X179704998Y-88900334D01*
X179705000Y-88900334D01*
X179705002Y-88900334D01*
X179760276Y-88895498D01*
X179925591Y-88881035D01*
X180139480Y-88823723D01*
X180340167Y-88730142D01*
X180521555Y-88603132D01*
X180678132Y-88446555D01*
X180805142Y-88265167D01*
X180862618Y-88141907D01*
X180908790Y-88089468D01*
X180975983Y-88070316D01*
X181042864Y-88090531D01*
X181087381Y-88141907D01*
X181144858Y-88265167D01*
X181271868Y-88446555D01*
X181428445Y-88603132D01*
X181609833Y-88730142D01*
X181730572Y-88786443D01*
X181810513Y-88823720D01*
X181810515Y-88823720D01*
X181810520Y-88823723D01*
X182024409Y-88881035D01*
X182181974Y-88894820D01*
X182244998Y-88900334D01*
X182245000Y-88900334D01*
X182245002Y-88900334D01*
X182300276Y-88895498D01*
X182465591Y-88881035D01*
X182679480Y-88823723D01*
X182880167Y-88730142D01*
X183061555Y-88603132D01*
X183218132Y-88446555D01*
X183345142Y-88265167D01*
X183402618Y-88141907D01*
X183448790Y-88089468D01*
X183515983Y-88070316D01*
X183582864Y-88090531D01*
X183627381Y-88141907D01*
X183684858Y-88265167D01*
X183811868Y-88446555D01*
X183968445Y-88603132D01*
X184149833Y-88730142D01*
X184270572Y-88786443D01*
X184350513Y-88823720D01*
X184350515Y-88823720D01*
X184350520Y-88823723D01*
X184564409Y-88881035D01*
X184721974Y-88894820D01*
X184784998Y-88900334D01*
X184785000Y-88900334D01*
X184785002Y-88900334D01*
X184840276Y-88895498D01*
X185005591Y-88881035D01*
X185219480Y-88823723D01*
X185420167Y-88730142D01*
X185601555Y-88603132D01*
X185758132Y-88446555D01*
X185885142Y-88265167D01*
X185942618Y-88141907D01*
X185988790Y-88089468D01*
X186055983Y-88070316D01*
X186122864Y-88090531D01*
X186167381Y-88141907D01*
X186224858Y-88265167D01*
X186351868Y-88446555D01*
X186508445Y-88603132D01*
X186689833Y-88730142D01*
X186810572Y-88786443D01*
X186890513Y-88823720D01*
X186890515Y-88823720D01*
X186890520Y-88823723D01*
X187104409Y-88881035D01*
X187261974Y-88894820D01*
X187324998Y-88900334D01*
X187325000Y-88900334D01*
X187325002Y-88900334D01*
X187380276Y-88895498D01*
X187545591Y-88881035D01*
X187759480Y-88823723D01*
X187960167Y-88730142D01*
X188141555Y-88603132D01*
X188298132Y-88446555D01*
X188373928Y-88338307D01*
X188428501Y-88294685D01*
X188498000Y-88287491D01*
X188560355Y-88319013D01*
X188595769Y-88379243D01*
X188599500Y-88409430D01*
X188599500Y-88442868D01*
X188599501Y-88442876D01*
X188605908Y-88502483D01*
X188656202Y-88637328D01*
X188656206Y-88637335D01*
X188742452Y-88752544D01*
X188742455Y-88752547D01*
X188857664Y-88838793D01*
X188857671Y-88838797D01*
X188992517Y-88889091D01*
X188992516Y-88889091D01*
X188999444Y-88889835D01*
X189052127Y-88895500D01*
X190677872Y-88895499D01*
X190737483Y-88889091D01*
X190872331Y-88838796D01*
X190987546Y-88752546D01*
X191073796Y-88637331D01*
X191124091Y-88502483D01*
X191130500Y-88442873D01*
X191130499Y-86817128D01*
X191124091Y-86757517D01*
X191086551Y-86656868D01*
X191073797Y-86622671D01*
X191073793Y-86622664D01*
X190987547Y-86507455D01*
X190987544Y-86507452D01*
X190872335Y-86421206D01*
X190872328Y-86421202D01*
X190737482Y-86370908D01*
X190737483Y-86370908D01*
X190677883Y-86364501D01*
X190677881Y-86364500D01*
X190677873Y-86364500D01*
X190677864Y-86364500D01*
X189052129Y-86364500D01*
X189052123Y-86364501D01*
X188992516Y-86370908D01*
X188857671Y-86421202D01*
X188857664Y-86421206D01*
X188742455Y-86507452D01*
X188742452Y-86507455D01*
X188656206Y-86622664D01*
X188656202Y-86622671D01*
X188605908Y-86757517D01*
X188599896Y-86813441D01*
X188599501Y-86817123D01*
X188599500Y-86817135D01*
X188599500Y-86850564D01*
X188579815Y-86917603D01*
X188527011Y-86963358D01*
X188457853Y-86973302D01*
X188394297Y-86944277D01*
X188373926Y-86921688D01*
X188298137Y-86813452D01*
X188298136Y-86813451D01*
X188298132Y-86813445D01*
X188141555Y-86656868D01*
X187960167Y-86529858D01*
X187960163Y-86529856D01*
X187759486Y-86436279D01*
X187759475Y-86436275D01*
X187545592Y-86378965D01*
X187545585Y-86378964D01*
X187325002Y-86359666D01*
X187324998Y-86359666D01*
X187104414Y-86378964D01*
X187104407Y-86378965D01*
X186890524Y-86436275D01*
X186890513Y-86436279D01*
X186689836Y-86529856D01*
X186689834Y-86529857D01*
X186508444Y-86656868D01*
X186351868Y-86813444D01*
X186224857Y-86994834D01*
X186224856Y-86994836D01*
X186167382Y-87118091D01*
X186121210Y-87170531D01*
X186054017Y-87189683D01*
X185987135Y-87169467D01*
X185942618Y-87118091D01*
X185885143Y-86994836D01*
X185885142Y-86994834D01*
X185885142Y-86994833D01*
X185758132Y-86813445D01*
X185601555Y-86656868D01*
X185420167Y-86529858D01*
X185420163Y-86529856D01*
X185219486Y-86436279D01*
X185219475Y-86436275D01*
X185005592Y-86378965D01*
X185005585Y-86378964D01*
X184785002Y-86359666D01*
X184784998Y-86359666D01*
X184564414Y-86378964D01*
X184564407Y-86378965D01*
X184350524Y-86436275D01*
X184350513Y-86436279D01*
X184149836Y-86529856D01*
X184149834Y-86529857D01*
X183968444Y-86656868D01*
X183811868Y-86813444D01*
X183684857Y-86994834D01*
X183684856Y-86994836D01*
X183627382Y-87118091D01*
X183581210Y-87170531D01*
X183514017Y-87189683D01*
X183447135Y-87169467D01*
X183402618Y-87118091D01*
X183345143Y-86994836D01*
X183345142Y-86994834D01*
X183345142Y-86994833D01*
X183218132Y-86813445D01*
X183061555Y-86656868D01*
X182880167Y-86529858D01*
X182880163Y-86529856D01*
X182679486Y-86436279D01*
X182679475Y-86436275D01*
X182465592Y-86378965D01*
X182465585Y-86378964D01*
X182245002Y-86359666D01*
X182244998Y-86359666D01*
X182024414Y-86378964D01*
X182024407Y-86378965D01*
X181810524Y-86436275D01*
X181810513Y-86436279D01*
X181609836Y-86529856D01*
X181609834Y-86529857D01*
X181428444Y-86656868D01*
X181271868Y-86813444D01*
X181144857Y-86994834D01*
X181144856Y-86994836D01*
X181087382Y-87118091D01*
X181041210Y-87170531D01*
X180974017Y-87189683D01*
X180907135Y-87169467D01*
X180862618Y-87118091D01*
X180805143Y-86994836D01*
X180805142Y-86994834D01*
X180805142Y-86994833D01*
X180678132Y-86813445D01*
X180521555Y-86656868D01*
X180340167Y-86529858D01*
X180340163Y-86529856D01*
X180139486Y-86436279D01*
X180139475Y-86436275D01*
X179925592Y-86378965D01*
X179925585Y-86378964D01*
X179705002Y-86359666D01*
X179704998Y-86359666D01*
X179484414Y-86378964D01*
X179484407Y-86378965D01*
X179270524Y-86436275D01*
X179270513Y-86436279D01*
X179069836Y-86529856D01*
X179069834Y-86529857D01*
X178888444Y-86656868D01*
X178731868Y-86813444D01*
X178604857Y-86994834D01*
X178604856Y-86994836D01*
X178547382Y-87118091D01*
X178501210Y-87170531D01*
X178434017Y-87189683D01*
X178367135Y-87169467D01*
X178322618Y-87118091D01*
X178265143Y-86994836D01*
X178265142Y-86994834D01*
X178265142Y-86994833D01*
X178138132Y-86813445D01*
X177981555Y-86656868D01*
X177800167Y-86529858D01*
X177800163Y-86529856D01*
X177599486Y-86436279D01*
X177599475Y-86436275D01*
X177385592Y-86378965D01*
X177385585Y-86378964D01*
X177165002Y-86359666D01*
X177164998Y-86359666D01*
X176944414Y-86378964D01*
X176944407Y-86378965D01*
X176730524Y-86436275D01*
X176730513Y-86436279D01*
X176529836Y-86529856D01*
X176529834Y-86529857D01*
X176348444Y-86656868D01*
X176191868Y-86813444D01*
X176064857Y-86994834D01*
X176064856Y-86994836D01*
X176007382Y-87118091D01*
X175961210Y-87170531D01*
X175894017Y-87189683D01*
X175827135Y-87169467D01*
X175782618Y-87118091D01*
X175725143Y-86994836D01*
X175725142Y-86994834D01*
X175725142Y-86994833D01*
X175598132Y-86813445D01*
X175441555Y-86656868D01*
X175260167Y-86529858D01*
X175260163Y-86529856D01*
X175059486Y-86436279D01*
X175059475Y-86436275D01*
X174845592Y-86378965D01*
X174845585Y-86378964D01*
X174625002Y-86359666D01*
X174624998Y-86359666D01*
X174404414Y-86378964D01*
X174404407Y-86378965D01*
X174190524Y-86436275D01*
X174190513Y-86436279D01*
X173989836Y-86529856D01*
X173989834Y-86529857D01*
X173808444Y-86656868D01*
X173651868Y-86813444D01*
X173524857Y-86994834D01*
X173524856Y-86994836D01*
X173467382Y-87118091D01*
X173421210Y-87170531D01*
X173354017Y-87189683D01*
X173287135Y-87169467D01*
X173242618Y-87118091D01*
X173185143Y-86994836D01*
X173185142Y-86994834D01*
X173185142Y-86994833D01*
X173058132Y-86813445D01*
X172901555Y-86656868D01*
X172720167Y-86529858D01*
X172720163Y-86529856D01*
X172519486Y-86436279D01*
X172519475Y-86436275D01*
X172305592Y-86378965D01*
X172305585Y-86378964D01*
X172085002Y-86359666D01*
X172084998Y-86359666D01*
X171864414Y-86378964D01*
X171864407Y-86378965D01*
X171650524Y-86436275D01*
X171650513Y-86436279D01*
X171449836Y-86529856D01*
X171449834Y-86529857D01*
X171268444Y-86656868D01*
X171111868Y-86813444D01*
X170984857Y-86994834D01*
X170984856Y-86994836D01*
X170891279Y-87195513D01*
X170891275Y-87195524D01*
X170833965Y-87409407D01*
X170833964Y-87409414D01*
X170814666Y-87629998D01*
X170814666Y-87630001D01*
X146710400Y-87630001D01*
X146710400Y-83997870D01*
X170819500Y-83997870D01*
X170819501Y-83997876D01*
X170825908Y-84057483D01*
X170876202Y-84192328D01*
X170876206Y-84192335D01*
X170962452Y-84307544D01*
X170962455Y-84307547D01*
X171077664Y-84393793D01*
X171077671Y-84393797D01*
X171212517Y-84444091D01*
X171212516Y-84444091D01*
X171219444Y-84444835D01*
X171272127Y-84450500D01*
X172897872Y-84450499D01*
X172957483Y-84444091D01*
X173092331Y-84393796D01*
X173207546Y-84307546D01*
X173293796Y-84192331D01*
X173344091Y-84057483D01*
X173350500Y-83997873D01*
X173350499Y-83964434D01*
X173370182Y-83897398D01*
X173422984Y-83851642D01*
X173492143Y-83841697D01*
X173555699Y-83870720D01*
X173576073Y-83893311D01*
X173651862Y-84001547D01*
X173651868Y-84001555D01*
X173808445Y-84158132D01*
X173989833Y-84285142D01*
X174110572Y-84341443D01*
X174190513Y-84378720D01*
X174190515Y-84378720D01*
X174190520Y-84378723D01*
X174404409Y-84436035D01*
X174561974Y-84449820D01*
X174624998Y-84455334D01*
X174625000Y-84455334D01*
X174625002Y-84455334D01*
X174680276Y-84450498D01*
X174845591Y-84436035D01*
X175059480Y-84378723D01*
X175260167Y-84285142D01*
X175441555Y-84158132D01*
X175598132Y-84001555D01*
X175725142Y-83820167D01*
X175782618Y-83696907D01*
X175828790Y-83644468D01*
X175895983Y-83625316D01*
X175962864Y-83645531D01*
X176007381Y-83696907D01*
X176064858Y-83820167D01*
X176191868Y-84001555D01*
X176348445Y-84158132D01*
X176529833Y-84285142D01*
X176650572Y-84341443D01*
X176730513Y-84378720D01*
X176730515Y-84378720D01*
X176730520Y-84378723D01*
X176944409Y-84436035D01*
X177101974Y-84449820D01*
X177164998Y-84455334D01*
X177165000Y-84455334D01*
X177165002Y-84455334D01*
X177220276Y-84450498D01*
X177385591Y-84436035D01*
X177599480Y-84378723D01*
X177800167Y-84285142D01*
X177981555Y-84158132D01*
X178138132Y-84001555D01*
X178265142Y-83820167D01*
X178322618Y-83696907D01*
X178368790Y-83644468D01*
X178435983Y-83625316D01*
X178502864Y-83645531D01*
X178547381Y-83696907D01*
X178604858Y-83820167D01*
X178731868Y-84001555D01*
X178888445Y-84158132D01*
X179069833Y-84285142D01*
X179190572Y-84341443D01*
X179270513Y-84378720D01*
X179270515Y-84378720D01*
X179270520Y-84378723D01*
X179484409Y-84436035D01*
X179641974Y-84449820D01*
X179704998Y-84455334D01*
X179705000Y-84455334D01*
X179705002Y-84455334D01*
X179760276Y-84450498D01*
X179925591Y-84436035D01*
X180139480Y-84378723D01*
X180340167Y-84285142D01*
X180521555Y-84158132D01*
X180678132Y-84001555D01*
X180805142Y-83820167D01*
X180862618Y-83696907D01*
X180908790Y-83644468D01*
X180975983Y-83625316D01*
X181042864Y-83645531D01*
X181087381Y-83696907D01*
X181144858Y-83820167D01*
X181271868Y-84001555D01*
X181428445Y-84158132D01*
X181609833Y-84285142D01*
X181730572Y-84341443D01*
X181810513Y-84378720D01*
X181810515Y-84378720D01*
X181810520Y-84378723D01*
X182024409Y-84436035D01*
X182181974Y-84449820D01*
X182244998Y-84455334D01*
X182245000Y-84455334D01*
X182245002Y-84455334D01*
X182300276Y-84450498D01*
X182465591Y-84436035D01*
X182679480Y-84378723D01*
X182880167Y-84285142D01*
X183061555Y-84158132D01*
X183218132Y-84001555D01*
X183345142Y-83820167D01*
X183402618Y-83696907D01*
X183448790Y-83644468D01*
X183515983Y-83625316D01*
X183582864Y-83645531D01*
X183627381Y-83696907D01*
X183684858Y-83820167D01*
X183811868Y-84001555D01*
X183968445Y-84158132D01*
X184149833Y-84285142D01*
X184270572Y-84341443D01*
X184350513Y-84378720D01*
X184350515Y-84378720D01*
X184350520Y-84378723D01*
X184564409Y-84436035D01*
X184721974Y-84449820D01*
X184784998Y-84455334D01*
X184785000Y-84455334D01*
X184785002Y-84455334D01*
X184840276Y-84450498D01*
X185005591Y-84436035D01*
X185219480Y-84378723D01*
X185420167Y-84285142D01*
X185601555Y-84158132D01*
X185758132Y-84001555D01*
X185885142Y-83820167D01*
X185942618Y-83696907D01*
X185988790Y-83644468D01*
X186055983Y-83625316D01*
X186122864Y-83645531D01*
X186167381Y-83696907D01*
X186224858Y-83820167D01*
X186351868Y-84001555D01*
X186508445Y-84158132D01*
X186689833Y-84285142D01*
X186810572Y-84341443D01*
X186890513Y-84378720D01*
X186890515Y-84378720D01*
X186890520Y-84378723D01*
X187104409Y-84436035D01*
X187261974Y-84449820D01*
X187324998Y-84455334D01*
X187325000Y-84455334D01*
X187325002Y-84455334D01*
X187355575Y-84452659D01*
X187545591Y-84436035D01*
X187563581Y-84431214D01*
X187633429Y-84432873D01*
X187683360Y-84463306D01*
X188725325Y-85505272D01*
X188725331Y-85505277D01*
X188831874Y-85576466D01*
X188901221Y-85605189D01*
X188950256Y-85625501D01*
X188950259Y-85625501D01*
X188950260Y-85625502D01*
X189075928Y-85650500D01*
X189075931Y-85650500D01*
X230999071Y-85650500D01*
X231083615Y-85633682D01*
X231124744Y-85625501D01*
X231243127Y-85576465D01*
X231349669Y-85505277D01*
X234273127Y-82581817D01*
X234334450Y-82548333D01*
X234360808Y-82545499D01*
X235467871Y-82545499D01*
X235467872Y-82545499D01*
X235527483Y-82539091D01*
X235662331Y-82488796D01*
X235777546Y-82402546D01*
X235863796Y-82287331D01*
X235914091Y-82152483D01*
X235920500Y-82092873D01*
X235920499Y-80467128D01*
X235914091Y-80407517D01*
X235876551Y-80306868D01*
X235863797Y-80272671D01*
X235863793Y-80272664D01*
X235777547Y-80157455D01*
X235777544Y-80157452D01*
X235662335Y-80071206D01*
X235662328Y-80071202D01*
X235527482Y-80020908D01*
X235527483Y-80020908D01*
X235467883Y-80014501D01*
X235467881Y-80014500D01*
X235467873Y-80014500D01*
X235467864Y-80014500D01*
X233842129Y-80014500D01*
X233842123Y-80014501D01*
X233782516Y-80020908D01*
X233647671Y-80071202D01*
X233647664Y-80071206D01*
X233532455Y-80157452D01*
X233532452Y-80157455D01*
X233446206Y-80272664D01*
X233446202Y-80272671D01*
X233395908Y-80407517D01*
X233389896Y-80463441D01*
X233389501Y-80467123D01*
X233389500Y-80467135D01*
X233389500Y-80500564D01*
X233369815Y-80567603D01*
X233317011Y-80613358D01*
X233247853Y-80623302D01*
X233184297Y-80594277D01*
X233163926Y-80571688D01*
X233088137Y-80463452D01*
X233088136Y-80463451D01*
X233088132Y-80463445D01*
X232931555Y-80306868D01*
X232750167Y-80179858D01*
X232750163Y-80179856D01*
X232549486Y-80086279D01*
X232549475Y-80086275D01*
X232335592Y-80028965D01*
X232335585Y-80028964D01*
X232115002Y-80009666D01*
X232114998Y-80009666D01*
X231894414Y-80028964D01*
X231894407Y-80028965D01*
X231680524Y-80086275D01*
X231680513Y-80086279D01*
X231479836Y-80179856D01*
X231479834Y-80179857D01*
X231298444Y-80306868D01*
X231141868Y-80463444D01*
X231014857Y-80644834D01*
X231014856Y-80644836D01*
X230957382Y-80768091D01*
X230911210Y-80820531D01*
X230844017Y-80839683D01*
X230777135Y-80819467D01*
X230732618Y-80768091D01*
X230704050Y-80706828D01*
X230675142Y-80644833D01*
X230548132Y-80463445D01*
X230391555Y-80306868D01*
X230210167Y-80179858D01*
X230210163Y-80179856D01*
X230009486Y-80086279D01*
X230009475Y-80086275D01*
X229795592Y-80028965D01*
X229795585Y-80028964D01*
X229575002Y-80009666D01*
X229574998Y-80009666D01*
X229354414Y-80028964D01*
X229354407Y-80028965D01*
X229140524Y-80086275D01*
X229140513Y-80086279D01*
X228939836Y-80179856D01*
X228939834Y-80179857D01*
X228758444Y-80306868D01*
X228601868Y-80463444D01*
X228474857Y-80644833D01*
X228417106Y-80768683D01*
X228370934Y-80821122D01*
X228303740Y-80840274D01*
X228236859Y-80820058D01*
X228192342Y-80768683D01*
X228134707Y-80645085D01*
X228134706Y-80645083D01*
X228088894Y-80579657D01*
X228088894Y-80579656D01*
X227526127Y-81142423D01*
X227510245Y-81083147D01*
X227443102Y-80966853D01*
X227348147Y-80871898D01*
X227231853Y-80804755D01*
X227172575Y-80788872D01*
X227735342Y-80226105D01*
X227735341Y-80226103D01*
X227669919Y-80180295D01*
X227469309Y-80086749D01*
X227469300Y-80086745D01*
X227255509Y-80029461D01*
X227255499Y-80029459D01*
X227035001Y-80010168D01*
X227034999Y-80010168D01*
X226814500Y-80029459D01*
X226814490Y-80029461D01*
X226600699Y-80086745D01*
X226600690Y-80086749D01*
X226400084Y-80180293D01*
X226334657Y-80226104D01*
X226897424Y-80788871D01*
X226838147Y-80804755D01*
X226721853Y-80871898D01*
X226626898Y-80966853D01*
X226559755Y-81083147D01*
X226543871Y-81142424D01*
X225981104Y-80579657D01*
X225935293Y-80645084D01*
X225877657Y-80768683D01*
X225831484Y-80821122D01*
X225764290Y-80840274D01*
X225697409Y-80820058D01*
X225652893Y-80768682D01*
X225595142Y-80644833D01*
X225468132Y-80463445D01*
X225311555Y-80306868D01*
X225130167Y-80179858D01*
X225130163Y-80179856D01*
X224929486Y-80086279D01*
X224929475Y-80086275D01*
X224715592Y-80028965D01*
X224715585Y-80028964D01*
X224495002Y-80009666D01*
X224494998Y-80009666D01*
X224347939Y-80022532D01*
X224274409Y-80028965D01*
X224274407Y-80028965D01*
X224274403Y-80028966D01*
X224228528Y-80041258D01*
X224158678Y-80039595D01*
X224108755Y-80009164D01*
X219108819Y-75009228D01*
X219075334Y-74947905D01*
X219072500Y-74921547D01*
X219072500Y-69368287D01*
X241983500Y-69368287D01*
X242016754Y-69578243D01*
X242046062Y-69668444D01*
X242082444Y-69780414D01*
X242178951Y-69969820D01*
X242303890Y-70141786D01*
X242454209Y-70292105D01*
X242454214Y-70292109D01*
X242619218Y-70411991D01*
X242661884Y-70467320D01*
X242667863Y-70536934D01*
X242635258Y-70598729D01*
X242619218Y-70612627D01*
X242454540Y-70732272D01*
X242454535Y-70732276D01*
X242304276Y-70882535D01*
X242304272Y-70882540D01*
X242179379Y-71054442D01*
X242082904Y-71243782D01*
X242017242Y-71445870D01*
X242017242Y-71445873D01*
X242006769Y-71512000D01*
X243054854Y-71512000D01*
X243016370Y-71578657D01*
X242984000Y-71699465D01*
X242984000Y-71824535D01*
X243016370Y-71945343D01*
X243054854Y-72012000D01*
X242006769Y-72012000D01*
X242017242Y-72078126D01*
X242017242Y-72078129D01*
X242082904Y-72280217D01*
X242179379Y-72469557D01*
X242304272Y-72641459D01*
X242304276Y-72641464D01*
X242454535Y-72791723D01*
X242454540Y-72791727D01*
X242626442Y-72916620D01*
X242815782Y-73013095D01*
X243017872Y-73078757D01*
X243209000Y-73109029D01*
X243209000Y-72166145D01*
X243275657Y-72204630D01*
X243396465Y-72237000D01*
X243521535Y-72237000D01*
X243642343Y-72204630D01*
X243709000Y-72166145D01*
X243709000Y-73109028D01*
X243900127Y-73078757D01*
X244102217Y-73013095D01*
X244291557Y-72916620D01*
X244463459Y-72791727D01*
X244463464Y-72791723D01*
X244613723Y-72641464D01*
X244613727Y-72641459D01*
X244738620Y-72469557D01*
X244835095Y-72280217D01*
X244900757Y-72078129D01*
X244900757Y-72078126D01*
X244911231Y-72012000D01*
X243863146Y-72012000D01*
X243901630Y-71945343D01*
X243934000Y-71824535D01*
X243934000Y-71699465D01*
X243901630Y-71578657D01*
X243863146Y-71512000D01*
X244911231Y-71512000D01*
X244900757Y-71445873D01*
X244900757Y-71445870D01*
X244835095Y-71243782D01*
X244738620Y-71054442D01*
X244613727Y-70882540D01*
X244613723Y-70882535D01*
X244463464Y-70732276D01*
X244463459Y-70732272D01*
X244298781Y-70612627D01*
X244256115Y-70557297D01*
X244250136Y-70487684D01*
X244282741Y-70425889D01*
X244298776Y-70411994D01*
X244463792Y-70292104D01*
X244614104Y-70141792D01*
X244614106Y-70141788D01*
X244614109Y-70141786D01*
X244739048Y-69969820D01*
X244739047Y-69969820D01*
X244739051Y-69969816D01*
X244835557Y-69780412D01*
X244901246Y-69578243D01*
X244934500Y-69368287D01*
X244934500Y-69155713D01*
X244901246Y-68945757D01*
X244835557Y-68743588D01*
X244739051Y-68554184D01*
X244739049Y-68554181D01*
X244739048Y-68554179D01*
X244614109Y-68382213D01*
X244463792Y-68231896D01*
X244463784Y-68231890D01*
X244299204Y-68112316D01*
X244256540Y-68056989D01*
X244250561Y-67987376D01*
X244283166Y-67925580D01*
X244299199Y-67911686D01*
X244463792Y-67792104D01*
X244614104Y-67641792D01*
X244614106Y-67641788D01*
X244614109Y-67641786D01*
X244739048Y-67469820D01*
X244739047Y-67469820D01*
X244739051Y-67469816D01*
X244835557Y-67280412D01*
X244901246Y-67078243D01*
X244934500Y-66868287D01*
X244934500Y-66655713D01*
X244901246Y-66445757D01*
X244835557Y-66243588D01*
X244739051Y-66054184D01*
X244739049Y-66054181D01*
X244739048Y-66054179D01*
X244614109Y-65882213D01*
X244475294Y-65743398D01*
X244441809Y-65682075D01*
X244446793Y-65612383D01*
X244488665Y-65556450D01*
X244497879Y-65550178D01*
X244503331Y-65546814D01*
X244503334Y-65546814D01*
X244652656Y-65454712D01*
X244776712Y-65330656D01*
X244868814Y-65181334D01*
X244923999Y-65014797D01*
X244934500Y-64912009D01*
X244934499Y-63611992D01*
X244923999Y-63509203D01*
X244868814Y-63342666D01*
X244776712Y-63193344D01*
X244652656Y-63069288D01*
X244507718Y-62979890D01*
X244503336Y-62977187D01*
X244503331Y-62977185D01*
X244461344Y-62963272D01*
X244336797Y-62922001D01*
X244336795Y-62922000D01*
X244234010Y-62911500D01*
X242683998Y-62911500D01*
X242683981Y-62911501D01*
X242581203Y-62922000D01*
X242581200Y-62922001D01*
X242414668Y-62977185D01*
X242414663Y-62977187D01*
X242265342Y-63069289D01*
X242141289Y-63193342D01*
X242049187Y-63342663D01*
X242049185Y-63342668D01*
X242043445Y-63359991D01*
X241994001Y-63509203D01*
X241994001Y-63509204D01*
X241994000Y-63509204D01*
X241983500Y-63611983D01*
X241983500Y-64912001D01*
X241983501Y-64912018D01*
X241994000Y-65014796D01*
X241994001Y-65014799D01*
X242041082Y-65156879D01*
X242049186Y-65181334D01*
X242141288Y-65330656D01*
X242265344Y-65454712D01*
X242411423Y-65544814D01*
X242420120Y-65550178D01*
X242466845Y-65602126D01*
X242478068Y-65671088D01*
X242450224Y-65735171D01*
X242442706Y-65743398D01*
X242303889Y-65882215D01*
X242178951Y-66054179D01*
X242082444Y-66243585D01*
X242016753Y-66445760D01*
X241983500Y-66655713D01*
X241983500Y-66868286D01*
X242016753Y-67078239D01*
X242082444Y-67280414D01*
X242178951Y-67469820D01*
X242303890Y-67641786D01*
X242454209Y-67792105D01*
X242454214Y-67792109D01*
X242618793Y-67911682D01*
X242661459Y-67967011D01*
X242667438Y-68036625D01*
X242634833Y-68098420D01*
X242618793Y-68112318D01*
X242454214Y-68231890D01*
X242454209Y-68231894D01*
X242303890Y-68382213D01*
X242178951Y-68554179D01*
X242082444Y-68743585D01*
X242016753Y-68945760D01*
X241983500Y-69155713D01*
X241983500Y-69368287D01*
X219072500Y-69368287D01*
X219072500Y-65532980D01*
X219092185Y-65465941D01*
X219140208Y-65422494D01*
X219154818Y-65415050D01*
X219326786Y-65290109D01*
X219326788Y-65290106D01*
X219326792Y-65290104D01*
X219477104Y-65139792D01*
X219596991Y-64974779D01*
X219652320Y-64932115D01*
X219721933Y-64926136D01*
X219783729Y-64958741D01*
X219797627Y-64974781D01*
X219917272Y-65139459D01*
X219917276Y-65139464D01*
X220067535Y-65289723D01*
X220067540Y-65289727D01*
X220239442Y-65414620D01*
X220428782Y-65511095D01*
X220630871Y-65576757D01*
X220697000Y-65587231D01*
X220697000Y-64539145D01*
X220763657Y-64577630D01*
X220884465Y-64610000D01*
X221009535Y-64610000D01*
X221130343Y-64577630D01*
X221197000Y-64539145D01*
X221197000Y-65587230D01*
X221263126Y-65576757D01*
X221263129Y-65576757D01*
X221465217Y-65511095D01*
X221654557Y-65414620D01*
X221826459Y-65289727D01*
X221826464Y-65289723D01*
X221976723Y-65139464D01*
X221976727Y-65139459D01*
X222101620Y-64967557D01*
X222198095Y-64778217D01*
X222263757Y-64576130D01*
X222263757Y-64576127D01*
X222294030Y-64385000D01*
X221351146Y-64385000D01*
X221389630Y-64318343D01*
X221422000Y-64197535D01*
X221422000Y-64072465D01*
X221389630Y-63951657D01*
X221351146Y-63885000D01*
X222294030Y-63885000D01*
X222263757Y-63693872D01*
X222263757Y-63693869D01*
X222198095Y-63491782D01*
X222103329Y-63305795D01*
X222090433Y-63237126D01*
X222116709Y-63172386D01*
X222173815Y-63132128D01*
X222213814Y-63125500D01*
X225670406Y-63125500D01*
X225737445Y-63145185D01*
X225783200Y-63197989D01*
X225793764Y-63262103D01*
X225785500Y-63342983D01*
X225785500Y-64893001D01*
X225785501Y-64893018D01*
X225796000Y-64995796D01*
X225796001Y-64995799D01*
X225851185Y-65162331D01*
X225851187Y-65162336D01*
X225861673Y-65179336D01*
X225943288Y-65311656D01*
X226067344Y-65435712D01*
X226216666Y-65527814D01*
X226383203Y-65582999D01*
X226485991Y-65593500D01*
X227786008Y-65593499D01*
X227888797Y-65582999D01*
X228055334Y-65527814D01*
X228204656Y-65435712D01*
X228328712Y-65311656D01*
X228420814Y-65162334D01*
X228420814Y-65162331D01*
X228424178Y-65156879D01*
X228476126Y-65110154D01*
X228545088Y-65098931D01*
X228609170Y-65126774D01*
X228617398Y-65134294D01*
X228756213Y-65273109D01*
X228928179Y-65398048D01*
X228928181Y-65398049D01*
X228928184Y-65398051D01*
X229117588Y-65494557D01*
X229319757Y-65560246D01*
X229529713Y-65593500D01*
X229529714Y-65593500D01*
X229742286Y-65593500D01*
X229742287Y-65593500D01*
X229952243Y-65560246D01*
X230154412Y-65494557D01*
X230343816Y-65398051D01*
X230436578Y-65330656D01*
X230515786Y-65273109D01*
X230515788Y-65273106D01*
X230515792Y-65273104D01*
X230666104Y-65122792D01*
X230785683Y-64958204D01*
X230841011Y-64915540D01*
X230910624Y-64909561D01*
X230972420Y-64942166D01*
X230986313Y-64958199D01*
X231062002Y-65062376D01*
X231105896Y-65122792D01*
X231256213Y-65273109D01*
X231428179Y-65398048D01*
X231428181Y-65398049D01*
X231428184Y-65398051D01*
X231617588Y-65494557D01*
X231819757Y-65560246D01*
X232029713Y-65593500D01*
X232029714Y-65593500D01*
X232242286Y-65593500D01*
X232242287Y-65593500D01*
X232452243Y-65560246D01*
X232654412Y-65494557D01*
X232843816Y-65398051D01*
X232936578Y-65330656D01*
X233015786Y-65273109D01*
X233015788Y-65273106D01*
X233015792Y-65273104D01*
X233166104Y-65122792D01*
X233285991Y-64957779D01*
X233341320Y-64915115D01*
X233410933Y-64909136D01*
X233472729Y-64941741D01*
X233486627Y-64957781D01*
X233606272Y-65122459D01*
X233606276Y-65122464D01*
X233756535Y-65272723D01*
X233756540Y-65272727D01*
X233928442Y-65397620D01*
X234117782Y-65494095D01*
X234319871Y-65559757D01*
X234386000Y-65570231D01*
X234386000Y-64522145D01*
X234452657Y-64560630D01*
X234573465Y-64593000D01*
X234698535Y-64593000D01*
X234819343Y-64560630D01*
X234886000Y-64522145D01*
X234886000Y-65570230D01*
X234952126Y-65559757D01*
X234952129Y-65559757D01*
X235154217Y-65494095D01*
X235343557Y-65397620D01*
X235515459Y-65272727D01*
X235515464Y-65272723D01*
X235665723Y-65122464D01*
X235665727Y-65122459D01*
X235790620Y-64950557D01*
X235887095Y-64761217D01*
X235952757Y-64559130D01*
X235952757Y-64559127D01*
X235983030Y-64368000D01*
X235040146Y-64368000D01*
X235078630Y-64301343D01*
X235111000Y-64180535D01*
X235111000Y-64055465D01*
X235078630Y-63934657D01*
X235040146Y-63868000D01*
X235983030Y-63868000D01*
X235952757Y-63676872D01*
X235952757Y-63676869D01*
X235887095Y-63474782D01*
X235790620Y-63285442D01*
X235665727Y-63113540D01*
X235665723Y-63113535D01*
X235515464Y-62963276D01*
X235515459Y-62963272D01*
X235343557Y-62838379D01*
X235154215Y-62741903D01*
X234952124Y-62676241D01*
X234886000Y-62665768D01*
X234886000Y-63713854D01*
X234819343Y-63675370D01*
X234698535Y-63643000D01*
X234573465Y-63643000D01*
X234452657Y-63675370D01*
X234386000Y-63713854D01*
X234386000Y-62665768D01*
X234385999Y-62665768D01*
X234319875Y-62676241D01*
X234117784Y-62741903D01*
X233928442Y-62838379D01*
X233756540Y-62963272D01*
X233756535Y-62963276D01*
X233606276Y-63113535D01*
X233606272Y-63113540D01*
X233486627Y-63278218D01*
X233431297Y-63320884D01*
X233361684Y-63326863D01*
X233299889Y-63294257D01*
X233285991Y-63278218D01*
X233166109Y-63113214D01*
X233166105Y-63113209D01*
X233015786Y-62962890D01*
X232843820Y-62837951D01*
X232654414Y-62741444D01*
X232654413Y-62741443D01*
X232654412Y-62741443D01*
X232452243Y-62675754D01*
X232452241Y-62675753D01*
X232452240Y-62675753D01*
X232290957Y-62650208D01*
X232242287Y-62642500D01*
X232029713Y-62642500D01*
X231987721Y-62649150D01*
X231819753Y-62675754D01*
X231709813Y-62711475D01*
X231639972Y-62713470D01*
X231583815Y-62681225D01*
X231010928Y-62108338D01*
X231010925Y-62108334D01*
X231010925Y-62108335D01*
X231003858Y-62101268D01*
X231003858Y-62101267D01*
X230916733Y-62014142D01*
X230916732Y-62014141D01*
X230916731Y-62014140D01*
X230865509Y-61979915D01*
X230814286Y-61945688D01*
X230814283Y-61945686D01*
X230814280Y-61945685D01*
X230733792Y-61912347D01*
X230700453Y-61898537D01*
X230690427Y-61896543D01*
X230640029Y-61886518D01*
X230579610Y-61874500D01*
X230579607Y-61874500D01*
X230579606Y-61874500D01*
X217643607Y-61874500D01*
X217520393Y-61874500D01*
X217520389Y-61874500D01*
X217459971Y-61886518D01*
X217416743Y-61895116D01*
X217399546Y-61898537D01*
X217285716Y-61945687D01*
X217285707Y-61945692D01*
X217183268Y-62014140D01*
X217139705Y-62057703D01*
X217096142Y-62101267D01*
X217096139Y-62101270D01*
X216499183Y-62698225D01*
X216437860Y-62731710D01*
X216373185Y-62728475D01*
X216263245Y-62692754D01*
X216263246Y-62692754D01*
X216093436Y-62665859D01*
X216053287Y-62659500D01*
X215840713Y-62659500D01*
X215801139Y-62665768D01*
X215630753Y-62692754D01*
X215520813Y-62728475D01*
X215450972Y-62730470D01*
X215394815Y-62698225D01*
X214802198Y-62105608D01*
X214802178Y-62105586D01*
X214710733Y-62014141D01*
X214659509Y-61979915D01*
X214608286Y-61945688D01*
X214608283Y-61945686D01*
X214608280Y-61945685D01*
X214527792Y-61912347D01*
X214494453Y-61898537D01*
X214484427Y-61896543D01*
X214434029Y-61886518D01*
X214373610Y-61874500D01*
X214373607Y-61874500D01*
X214373606Y-61874500D01*
X201467607Y-61874500D01*
X201344393Y-61874500D01*
X201344389Y-61874500D01*
X201283971Y-61886518D01*
X201240743Y-61895116D01*
X201223546Y-61898537D01*
X201109716Y-61945687D01*
X201109707Y-61945692D01*
X201007268Y-62014140D01*
X200963705Y-62057703D01*
X200920142Y-62101267D01*
X200920139Y-62101270D01*
X200323183Y-62698225D01*
X200261860Y-62731710D01*
X200197185Y-62728475D01*
X200087245Y-62692754D01*
X200087246Y-62692754D01*
X199917436Y-62665859D01*
X199877287Y-62659500D01*
X199664713Y-62659500D01*
X199624564Y-62665859D01*
X199454760Y-62692753D01*
X199252585Y-62758444D01*
X199063179Y-62854951D01*
X198891213Y-62979890D01*
X198740894Y-63130209D01*
X198740890Y-63130214D01*
X198621318Y-63294793D01*
X198565989Y-63337459D01*
X198496375Y-63343438D01*
X198434580Y-63310833D01*
X198420682Y-63294793D01*
X198301109Y-63130214D01*
X198301105Y-63130209D01*
X198150786Y-62979890D01*
X197978820Y-62854951D01*
X197789414Y-62758444D01*
X197789413Y-62758443D01*
X197789412Y-62758443D01*
X197587243Y-62692754D01*
X197587241Y-62692753D01*
X197587240Y-62692753D01*
X197417436Y-62665859D01*
X197377287Y-62659500D01*
X197164713Y-62659500D01*
X197124564Y-62665859D01*
X196954760Y-62692753D01*
X196752585Y-62758444D01*
X196563179Y-62854951D01*
X196391215Y-62979889D01*
X196252398Y-63118706D01*
X196191075Y-63152190D01*
X196121383Y-63147206D01*
X196065450Y-63105334D01*
X196059178Y-63096120D01*
X195963712Y-62941344D01*
X195839657Y-62817289D01*
X195839656Y-62817288D01*
X195716691Y-62741443D01*
X195690336Y-62725187D01*
X195690331Y-62725185D01*
X195663252Y-62716212D01*
X195523797Y-62670001D01*
X195523795Y-62670000D01*
X195421010Y-62659500D01*
X194120998Y-62659500D01*
X194120981Y-62659501D01*
X194018203Y-62670000D01*
X194018200Y-62670001D01*
X193851668Y-62725185D01*
X193851663Y-62725187D01*
X193702342Y-62817289D01*
X193578289Y-62941342D01*
X193486187Y-63090663D01*
X193486185Y-63090668D01*
X193481325Y-63105334D01*
X193431001Y-63257203D01*
X193431001Y-63257204D01*
X193431000Y-63257204D01*
X193420500Y-63359983D01*
X193420500Y-64910001D01*
X193420501Y-64910018D01*
X193431000Y-65012796D01*
X193431001Y-65012799D01*
X193486185Y-65179331D01*
X193486187Y-65179336D01*
X193487421Y-65181336D01*
X193578288Y-65328656D01*
X193702344Y-65452712D01*
X193851666Y-65544814D01*
X194018203Y-65599999D01*
X194120991Y-65610500D01*
X195421008Y-65610499D01*
X195523797Y-65599999D01*
X195690334Y-65544814D01*
X195839656Y-65452712D01*
X195963712Y-65328656D01*
X196055814Y-65179334D01*
X196055814Y-65179331D01*
X196059178Y-65173879D01*
X196111126Y-65127154D01*
X196180088Y-65115931D01*
X196244170Y-65143774D01*
X196252398Y-65151294D01*
X196391213Y-65290109D01*
X196563179Y-65415048D01*
X196563181Y-65415049D01*
X196563184Y-65415051D01*
X196752588Y-65511557D01*
X196954757Y-65577246D01*
X197164713Y-65610500D01*
X197164714Y-65610500D01*
X197377286Y-65610500D01*
X197377287Y-65610500D01*
X197587243Y-65577246D01*
X197789412Y-65511557D01*
X197978816Y-65415051D01*
X198053846Y-65360539D01*
X198150786Y-65290109D01*
X198150788Y-65290106D01*
X198150792Y-65290104D01*
X198301104Y-65139792D01*
X198420683Y-64975204D01*
X198476011Y-64932540D01*
X198545624Y-64926561D01*
X198607420Y-64959166D01*
X198621313Y-64975199D01*
X198740363Y-65139059D01*
X198740896Y-65139792D01*
X198891213Y-65290109D01*
X199063179Y-65415048D01*
X199063181Y-65415049D01*
X199063184Y-65415051D01*
X199252588Y-65511557D01*
X199454757Y-65577246D01*
X199664713Y-65610500D01*
X199664714Y-65610500D01*
X199877286Y-65610500D01*
X199877287Y-65610500D01*
X200087243Y-65577246D01*
X200289412Y-65511557D01*
X200478816Y-65415051D01*
X200553846Y-65360539D01*
X200650786Y-65290109D01*
X200650788Y-65290106D01*
X200650792Y-65290104D01*
X200801104Y-65139792D01*
X200920683Y-64975204D01*
X200976011Y-64932540D01*
X201045624Y-64926561D01*
X201107420Y-64959166D01*
X201121313Y-64975199D01*
X201240363Y-65139059D01*
X201240896Y-65139792D01*
X201391213Y-65290109D01*
X201563181Y-65415050D01*
X201577792Y-65422494D01*
X201628589Y-65470467D01*
X201645500Y-65532980D01*
X201645500Y-65832611D01*
X201669535Y-65953444D01*
X201669540Y-65953461D01*
X201716685Y-66067280D01*
X201716690Y-66067289D01*
X201750914Y-66118507D01*
X201750915Y-66118509D01*
X201785141Y-66169733D01*
X201876586Y-66261178D01*
X201876608Y-66261198D01*
X215259016Y-79643606D01*
X215259045Y-79643637D01*
X215349263Y-79733855D01*
X215349267Y-79733858D01*
X215451707Y-79802307D01*
X215451716Y-79802312D01*
X215472739Y-79811020D01*
X215565548Y-79849463D01*
X215625971Y-79861481D01*
X215686393Y-79873500D01*
X215686394Y-79873500D01*
X216337494Y-79873500D01*
X216404533Y-79893185D01*
X216450288Y-79945989D01*
X216460232Y-80015147D01*
X216431207Y-80078703D01*
X216389898Y-80109882D01*
X216239836Y-80179856D01*
X216239834Y-80179857D01*
X216058444Y-80306868D01*
X215901868Y-80463444D01*
X215774857Y-80644834D01*
X215774856Y-80644836D01*
X215717382Y-80768091D01*
X215671210Y-80820531D01*
X215604017Y-80839683D01*
X215537135Y-80819467D01*
X215492618Y-80768091D01*
X215464050Y-80706828D01*
X215435142Y-80644833D01*
X215308132Y-80463445D01*
X215151555Y-80306868D01*
X214970167Y-80179858D01*
X214970163Y-80179856D01*
X214769486Y-80086279D01*
X214769475Y-80086275D01*
X214555592Y-80028965D01*
X214555585Y-80028964D01*
X214335002Y-80009666D01*
X214334998Y-80009666D01*
X214114414Y-80028964D01*
X214114407Y-80028965D01*
X213900524Y-80086275D01*
X213900513Y-80086279D01*
X213699836Y-80179856D01*
X213699834Y-80179857D01*
X213518444Y-80306868D01*
X213361868Y-80463444D01*
X213234857Y-80644834D01*
X213234856Y-80644836D01*
X213177382Y-80768091D01*
X213131210Y-80820531D01*
X213064017Y-80839683D01*
X212997135Y-80819467D01*
X212952618Y-80768091D01*
X212924050Y-80706828D01*
X212895142Y-80644833D01*
X212768132Y-80463445D01*
X212611555Y-80306868D01*
X212430167Y-80179858D01*
X212430163Y-80179856D01*
X212229486Y-80086279D01*
X212229475Y-80086275D01*
X212015592Y-80028965D01*
X212015585Y-80028964D01*
X211795002Y-80009666D01*
X211794998Y-80009666D01*
X211574414Y-80028964D01*
X211574407Y-80028965D01*
X211360524Y-80086275D01*
X211360513Y-80086279D01*
X211159836Y-80179856D01*
X211159834Y-80179857D01*
X210978444Y-80306868D01*
X210821868Y-80463444D01*
X210694857Y-80644834D01*
X210694856Y-80644836D01*
X210637382Y-80768091D01*
X210591210Y-80820531D01*
X210524017Y-80839683D01*
X210457135Y-80819467D01*
X210412618Y-80768091D01*
X210384050Y-80706828D01*
X210355142Y-80644833D01*
X210228132Y-80463445D01*
X210071555Y-80306868D01*
X209890167Y-80179858D01*
X209890163Y-80179856D01*
X209689486Y-80086279D01*
X209689475Y-80086275D01*
X209475592Y-80028965D01*
X209475585Y-80028964D01*
X209255002Y-80009666D01*
X209254998Y-80009666D01*
X209034414Y-80028964D01*
X209034407Y-80028965D01*
X208820524Y-80086275D01*
X208820513Y-80086279D01*
X208619836Y-80179856D01*
X208619834Y-80179857D01*
X208438444Y-80306868D01*
X208281868Y-80463444D01*
X208154857Y-80644834D01*
X208154856Y-80644836D01*
X208097382Y-80768091D01*
X208051210Y-80820531D01*
X207984017Y-80839683D01*
X207917135Y-80819467D01*
X207872618Y-80768091D01*
X207844050Y-80706828D01*
X207815142Y-80644833D01*
X207688132Y-80463445D01*
X207531555Y-80306868D01*
X207350167Y-80179858D01*
X207350163Y-80179856D01*
X207149486Y-80086279D01*
X207149475Y-80086275D01*
X206935592Y-80028965D01*
X206935585Y-80028964D01*
X206715002Y-80009666D01*
X206714998Y-80009666D01*
X206494414Y-80028964D01*
X206494407Y-80028965D01*
X206280524Y-80086275D01*
X206280513Y-80086279D01*
X206079836Y-80179856D01*
X206079834Y-80179857D01*
X205898444Y-80306868D01*
X205741868Y-80463444D01*
X205614857Y-80644834D01*
X205614856Y-80644836D01*
X205557382Y-80768091D01*
X205511210Y-80820531D01*
X205444017Y-80839683D01*
X205377135Y-80819467D01*
X205332618Y-80768091D01*
X205304050Y-80706828D01*
X205275142Y-80644833D01*
X205148132Y-80463445D01*
X204991555Y-80306868D01*
X204810167Y-80179858D01*
X204810163Y-80179856D01*
X204609486Y-80086279D01*
X204609475Y-80086275D01*
X204395592Y-80028965D01*
X204395585Y-80028964D01*
X204175002Y-80009666D01*
X204174998Y-80009666D01*
X203954414Y-80028964D01*
X203954407Y-80028965D01*
X203740524Y-80086275D01*
X203740513Y-80086279D01*
X203539836Y-80179856D01*
X203539834Y-80179857D01*
X203358444Y-80306868D01*
X203201868Y-80463444D01*
X203074857Y-80644834D01*
X203074856Y-80644836D01*
X203017382Y-80768091D01*
X202971210Y-80820531D01*
X202904017Y-80839683D01*
X202837135Y-80819467D01*
X202792618Y-80768091D01*
X202764050Y-80706828D01*
X202735142Y-80644833D01*
X202608132Y-80463445D01*
X202451555Y-80306868D01*
X202270167Y-80179858D01*
X202270163Y-80179856D01*
X202069486Y-80086279D01*
X202069475Y-80086275D01*
X201855592Y-80028965D01*
X201855585Y-80028964D01*
X201635002Y-80009666D01*
X201634998Y-80009666D01*
X201414414Y-80028964D01*
X201414407Y-80028965D01*
X201200524Y-80086275D01*
X201200513Y-80086279D01*
X200999836Y-80179856D01*
X200999834Y-80179857D01*
X200818444Y-80306868D01*
X200661868Y-80463444D01*
X200534857Y-80644834D01*
X200534856Y-80644836D01*
X200477382Y-80768091D01*
X200431210Y-80820531D01*
X200364017Y-80839683D01*
X200297135Y-80819467D01*
X200252618Y-80768091D01*
X200224050Y-80706828D01*
X200195142Y-80644833D01*
X200068132Y-80463445D01*
X199911555Y-80306868D01*
X199730167Y-80179858D01*
X199730163Y-80179856D01*
X199529486Y-80086279D01*
X199529475Y-80086275D01*
X199315592Y-80028965D01*
X199315585Y-80028964D01*
X199095002Y-80009666D01*
X199094998Y-80009666D01*
X198874414Y-80028964D01*
X198874407Y-80028965D01*
X198660524Y-80086275D01*
X198660513Y-80086279D01*
X198459836Y-80179856D01*
X198459834Y-80179857D01*
X198278444Y-80306868D01*
X198121868Y-80463444D01*
X197994857Y-80644834D01*
X197994856Y-80644836D01*
X197901279Y-80845513D01*
X197901275Y-80845524D01*
X197843965Y-81059407D01*
X197843964Y-81059414D01*
X197824666Y-81279998D01*
X197824666Y-81280001D01*
X197843964Y-81500585D01*
X197843965Y-81500592D01*
X197901275Y-81714475D01*
X197901279Y-81714486D01*
X197994624Y-81914666D01*
X197994858Y-81915167D01*
X198121868Y-82096555D01*
X198278445Y-82253132D01*
X198459833Y-82380142D01*
X198579097Y-82435755D01*
X198660513Y-82473720D01*
X198660515Y-82473720D01*
X198660520Y-82473723D01*
X198874409Y-82531035D01*
X199031974Y-82544820D01*
X199094998Y-82550334D01*
X199095000Y-82550334D01*
X199095002Y-82550334D01*
X199150276Y-82545498D01*
X199315591Y-82531035D01*
X199529480Y-82473723D01*
X199730167Y-82380142D01*
X199911555Y-82253132D01*
X200068132Y-82096555D01*
X200195142Y-81915167D01*
X200252618Y-81791907D01*
X200298790Y-81739468D01*
X200365983Y-81720316D01*
X200432864Y-81740531D01*
X200477381Y-81791907D01*
X200534858Y-81915167D01*
X200661868Y-82096555D01*
X200818445Y-82253132D01*
X200999833Y-82380142D01*
X201119097Y-82435755D01*
X201200513Y-82473720D01*
X201200515Y-82473720D01*
X201200520Y-82473723D01*
X201414409Y-82531035D01*
X201571974Y-82544820D01*
X201634998Y-82550334D01*
X201635000Y-82550334D01*
X201635002Y-82550334D01*
X201690276Y-82545498D01*
X201855591Y-82531035D01*
X202069480Y-82473723D01*
X202270167Y-82380142D01*
X202451555Y-82253132D01*
X202608132Y-82096555D01*
X202735142Y-81915167D01*
X202792618Y-81791907D01*
X202838790Y-81739468D01*
X202905983Y-81720316D01*
X202972864Y-81740531D01*
X203017381Y-81791907D01*
X203074858Y-81915167D01*
X203201868Y-82096555D01*
X203358445Y-82253132D01*
X203539833Y-82380142D01*
X203659097Y-82435755D01*
X203740513Y-82473720D01*
X203740515Y-82473720D01*
X203740520Y-82473723D01*
X203954409Y-82531035D01*
X204111974Y-82544820D01*
X204174998Y-82550334D01*
X204175000Y-82550334D01*
X204175002Y-82550334D01*
X204230276Y-82545498D01*
X204395591Y-82531035D01*
X204609480Y-82473723D01*
X204810167Y-82380142D01*
X204991555Y-82253132D01*
X205148132Y-82096555D01*
X205275142Y-81915167D01*
X205332618Y-81791907D01*
X205378790Y-81739468D01*
X205445983Y-81720316D01*
X205512864Y-81740531D01*
X205557381Y-81791907D01*
X205614858Y-81915167D01*
X205741868Y-82096555D01*
X205898445Y-82253132D01*
X206079833Y-82380142D01*
X206199097Y-82435755D01*
X206280513Y-82473720D01*
X206280515Y-82473720D01*
X206280520Y-82473723D01*
X206494409Y-82531035D01*
X206651974Y-82544820D01*
X206714998Y-82550334D01*
X206715000Y-82550334D01*
X206715002Y-82550334D01*
X206770276Y-82545498D01*
X206935591Y-82531035D01*
X207149480Y-82473723D01*
X207350167Y-82380142D01*
X207531555Y-82253132D01*
X207688132Y-82096555D01*
X207815142Y-81915167D01*
X207872618Y-81791907D01*
X207918790Y-81739468D01*
X207985983Y-81720316D01*
X208052864Y-81740531D01*
X208097381Y-81791907D01*
X208154858Y-81915167D01*
X208281868Y-82096555D01*
X208438445Y-82253132D01*
X208619833Y-82380142D01*
X208739097Y-82435755D01*
X208820513Y-82473720D01*
X208820515Y-82473720D01*
X208820520Y-82473723D01*
X209034409Y-82531035D01*
X209191974Y-82544820D01*
X209254998Y-82550334D01*
X209255000Y-82550334D01*
X209255002Y-82550334D01*
X209310276Y-82545498D01*
X209475591Y-82531035D01*
X209689480Y-82473723D01*
X209890167Y-82380142D01*
X210071555Y-82253132D01*
X210228132Y-82096555D01*
X210355142Y-81915167D01*
X210412618Y-81791907D01*
X210458790Y-81739468D01*
X210525983Y-81720316D01*
X210592864Y-81740531D01*
X210637381Y-81791907D01*
X210694858Y-81915167D01*
X210821868Y-82096555D01*
X210978445Y-82253132D01*
X211159833Y-82380142D01*
X211279097Y-82435755D01*
X211360513Y-82473720D01*
X211360515Y-82473720D01*
X211360520Y-82473723D01*
X211574409Y-82531035D01*
X211731974Y-82544820D01*
X211794998Y-82550334D01*
X211795000Y-82550334D01*
X211795002Y-82550334D01*
X211850276Y-82545498D01*
X212015591Y-82531035D01*
X212229480Y-82473723D01*
X212430167Y-82380142D01*
X212611555Y-82253132D01*
X212768132Y-82096555D01*
X212895142Y-81915167D01*
X212952618Y-81791907D01*
X212998790Y-81739468D01*
X213065983Y-81720316D01*
X213132864Y-81740531D01*
X213177381Y-81791907D01*
X213234858Y-81915167D01*
X213361868Y-82096555D01*
X213518445Y-82253132D01*
X213699833Y-82380142D01*
X213819097Y-82435755D01*
X213900513Y-82473720D01*
X213900515Y-82473720D01*
X213900520Y-82473723D01*
X214114409Y-82531035D01*
X214271974Y-82544820D01*
X214334998Y-82550334D01*
X214335000Y-82550334D01*
X214335002Y-82550334D01*
X214390276Y-82545498D01*
X214555591Y-82531035D01*
X214769480Y-82473723D01*
X214970167Y-82380142D01*
X215151555Y-82253132D01*
X215308132Y-82096555D01*
X215435142Y-81915167D01*
X215492618Y-81791907D01*
X215538790Y-81739468D01*
X215605983Y-81720316D01*
X215672864Y-81740531D01*
X215717381Y-81791907D01*
X215774858Y-81915167D01*
X215901868Y-82096555D01*
X216058445Y-82253132D01*
X216239833Y-82380142D01*
X216359097Y-82435755D01*
X216440513Y-82473720D01*
X216440515Y-82473720D01*
X216440520Y-82473723D01*
X216654409Y-82531035D01*
X216811974Y-82544820D01*
X216874998Y-82550334D01*
X216875000Y-82550334D01*
X216875002Y-82550334D01*
X216930276Y-82545498D01*
X217095591Y-82531035D01*
X217309480Y-82473723D01*
X217510167Y-82380142D01*
X217691555Y-82253132D01*
X217848132Y-82096555D01*
X217975142Y-81915167D01*
X218032618Y-81791907D01*
X218078790Y-81739468D01*
X218145983Y-81720316D01*
X218212864Y-81740531D01*
X218257381Y-81791907D01*
X218314858Y-81915167D01*
X218441868Y-82096555D01*
X218598445Y-82253132D01*
X218779833Y-82380142D01*
X218899097Y-82435755D01*
X218980513Y-82473720D01*
X218980515Y-82473720D01*
X218980520Y-82473723D01*
X219194409Y-82531035D01*
X219351974Y-82544820D01*
X219414998Y-82550334D01*
X219415000Y-82550334D01*
X219415002Y-82550334D01*
X219470276Y-82545498D01*
X219635591Y-82531035D01*
X219849480Y-82473723D01*
X220050167Y-82380142D01*
X220231555Y-82253132D01*
X220388132Y-82096555D01*
X220515142Y-81915167D01*
X220572618Y-81791907D01*
X220618790Y-81739468D01*
X220685983Y-81720316D01*
X220752864Y-81740531D01*
X220797381Y-81791907D01*
X220854858Y-81915167D01*
X220981868Y-82096555D01*
X221138445Y-82253132D01*
X221319833Y-82380142D01*
X221439097Y-82435755D01*
X221520513Y-82473720D01*
X221520515Y-82473720D01*
X221520520Y-82473723D01*
X221734409Y-82531035D01*
X221891974Y-82544820D01*
X221954998Y-82550334D01*
X221955000Y-82550334D01*
X221955002Y-82550334D01*
X222010276Y-82545498D01*
X222175591Y-82531035D01*
X222389480Y-82473723D01*
X222590167Y-82380142D01*
X222771555Y-82253132D01*
X222928132Y-82096555D01*
X223055142Y-81915167D01*
X223112618Y-81791907D01*
X223158790Y-81739468D01*
X223225983Y-81720316D01*
X223292864Y-81740531D01*
X223337381Y-81791907D01*
X223394858Y-81915167D01*
X223521868Y-82096555D01*
X223678445Y-82253132D01*
X223859833Y-82380142D01*
X223979097Y-82435755D01*
X224060513Y-82473720D01*
X224060515Y-82473720D01*
X224060520Y-82473723D01*
X224274409Y-82531035D01*
X224431974Y-82544820D01*
X224494998Y-82550334D01*
X224495000Y-82550334D01*
X224495002Y-82550334D01*
X224550276Y-82545498D01*
X224715591Y-82531035D01*
X224929480Y-82473723D01*
X225130167Y-82380142D01*
X225311555Y-82253132D01*
X225468132Y-82096555D01*
X225595142Y-81915167D01*
X225652895Y-81791312D01*
X225699064Y-81738878D01*
X225766258Y-81719725D01*
X225833139Y-81739940D01*
X225877657Y-81791316D01*
X225935295Y-81914919D01*
X225981103Y-81980341D01*
X225981105Y-81980342D01*
X226543871Y-81417575D01*
X226559755Y-81476853D01*
X226626898Y-81593147D01*
X226721853Y-81688102D01*
X226838147Y-81755245D01*
X226897424Y-81771128D01*
X226334656Y-82333894D01*
X226400083Y-82379706D01*
X226400085Y-82379707D01*
X226600690Y-82473250D01*
X226600699Y-82473254D01*
X226814490Y-82530538D01*
X226814500Y-82530540D01*
X227034999Y-82549832D01*
X227035001Y-82549832D01*
X227255499Y-82530540D01*
X227255509Y-82530538D01*
X227469300Y-82473254D01*
X227469309Y-82473250D01*
X227669915Y-82379706D01*
X227735342Y-82333894D01*
X227172575Y-81771127D01*
X227231853Y-81755245D01*
X227348147Y-81688102D01*
X227443102Y-81593147D01*
X227510245Y-81476853D01*
X227526128Y-81417575D01*
X228088894Y-81980342D01*
X228134707Y-81914914D01*
X228134708Y-81914912D01*
X228192342Y-81791317D01*
X228238514Y-81738877D01*
X228305707Y-81719725D01*
X228372589Y-81739941D01*
X228417106Y-81791317D01*
X228474858Y-81915167D01*
X228601868Y-82096555D01*
X228758445Y-82253132D01*
X228939833Y-82380142D01*
X229059097Y-82435755D01*
X229140513Y-82473720D01*
X229140515Y-82473720D01*
X229140520Y-82473723D01*
X229354409Y-82531035D01*
X229511974Y-82544820D01*
X229574998Y-82550334D01*
X229575000Y-82550334D01*
X229575002Y-82550334D01*
X229630276Y-82545498D01*
X229795591Y-82531035D01*
X230009480Y-82473723D01*
X230210167Y-82380142D01*
X230391555Y-82253132D01*
X230548132Y-82096555D01*
X230675142Y-81915167D01*
X230732618Y-81791907D01*
X230778790Y-81739468D01*
X230845983Y-81720316D01*
X230912864Y-81740531D01*
X230957381Y-81791907D01*
X231014858Y-81915167D01*
X231141868Y-82096555D01*
X231298445Y-82253132D01*
X231479833Y-82380142D01*
X231599097Y-82435755D01*
X231680513Y-82473720D01*
X231680515Y-82473720D01*
X231680520Y-82473723D01*
X231894409Y-82531035D01*
X232115000Y-82550334D01*
X232158859Y-82546496D01*
X232227356Y-82560261D01*
X232277540Y-82608876D01*
X232293475Y-82676904D01*
X232270101Y-82742748D01*
X232257347Y-82757705D01*
X230701873Y-84313181D01*
X230640550Y-84346666D01*
X230614192Y-84349500D01*
X190789549Y-84349500D01*
X190722510Y-84329815D01*
X190676755Y-84277011D01*
X190666811Y-84207853D01*
X190695836Y-84144297D01*
X190701868Y-84137819D01*
X190838132Y-84001555D01*
X190965142Y-83820167D01*
X191058723Y-83619480D01*
X191116035Y-83405591D01*
X191135334Y-83185000D01*
X191116035Y-82964409D01*
X191058723Y-82750520D01*
X191046574Y-82724467D01*
X190992674Y-82608876D01*
X190965142Y-82549833D01*
X190838132Y-82368445D01*
X190681555Y-82211868D01*
X190500167Y-82084858D01*
X190500163Y-82084856D01*
X190299486Y-81991279D01*
X190299475Y-81991275D01*
X190085592Y-81933965D01*
X190085585Y-81933964D01*
X189865002Y-81914666D01*
X189864998Y-81914666D01*
X189644414Y-81933964D01*
X189644407Y-81933965D01*
X189430524Y-81991275D01*
X189430513Y-81991279D01*
X189229836Y-82084856D01*
X189229834Y-82084857D01*
X189048444Y-82211868D01*
X188891868Y-82368444D01*
X188816063Y-82476705D01*
X188765909Y-82548333D01*
X188764859Y-82549832D01*
X188764856Y-82549836D01*
X188707382Y-82673091D01*
X188661210Y-82725531D01*
X188594017Y-82744683D01*
X188527135Y-82724467D01*
X188482618Y-82673091D01*
X188440057Y-82581818D01*
X188425142Y-82549833D01*
X188298132Y-82368445D01*
X188141555Y-82211868D01*
X187960167Y-82084858D01*
X187960163Y-82084856D01*
X187759486Y-81991279D01*
X187759475Y-81991275D01*
X187545592Y-81933965D01*
X187545585Y-81933964D01*
X187325002Y-81914666D01*
X187324998Y-81914666D01*
X187104414Y-81933964D01*
X187104407Y-81933965D01*
X186890524Y-81991275D01*
X186890513Y-81991279D01*
X186689836Y-82084856D01*
X186689834Y-82084857D01*
X186508444Y-82211868D01*
X186351868Y-82368444D01*
X186276063Y-82476705D01*
X186225909Y-82548333D01*
X186224859Y-82549832D01*
X186224856Y-82549836D01*
X186167382Y-82673091D01*
X186121210Y-82725531D01*
X186054017Y-82744683D01*
X185987135Y-82724467D01*
X185942618Y-82673091D01*
X185900057Y-82581818D01*
X185885142Y-82549833D01*
X185758132Y-82368445D01*
X185601555Y-82211868D01*
X185420167Y-82084858D01*
X185420163Y-82084856D01*
X185219486Y-81991279D01*
X185219475Y-81991275D01*
X185005592Y-81933965D01*
X185005585Y-81933964D01*
X184785002Y-81914666D01*
X184784998Y-81914666D01*
X184564414Y-81933964D01*
X184564407Y-81933965D01*
X184350524Y-81991275D01*
X184350513Y-81991279D01*
X184149836Y-82084856D01*
X184149834Y-82084857D01*
X183968444Y-82211868D01*
X183811868Y-82368444D01*
X183736063Y-82476705D01*
X183685909Y-82548333D01*
X183684859Y-82549832D01*
X183684856Y-82549836D01*
X183627382Y-82673091D01*
X183581210Y-82725531D01*
X183514017Y-82744683D01*
X183447135Y-82724467D01*
X183402618Y-82673091D01*
X183360057Y-82581818D01*
X183345142Y-82549833D01*
X183218132Y-82368445D01*
X183061555Y-82211868D01*
X182880167Y-82084858D01*
X182880163Y-82084856D01*
X182679486Y-81991279D01*
X182679475Y-81991275D01*
X182465592Y-81933965D01*
X182465585Y-81933964D01*
X182245002Y-81914666D01*
X182244998Y-81914666D01*
X182024414Y-81933964D01*
X182024407Y-81933965D01*
X181810524Y-81991275D01*
X181810513Y-81991279D01*
X181609836Y-82084856D01*
X181609834Y-82084857D01*
X181428444Y-82211868D01*
X181271868Y-82368444D01*
X181196063Y-82476705D01*
X181145909Y-82548333D01*
X181144859Y-82549832D01*
X181144856Y-82549836D01*
X181087382Y-82673091D01*
X181041210Y-82725531D01*
X180974017Y-82744683D01*
X180907135Y-82724467D01*
X180862618Y-82673091D01*
X180820057Y-82581818D01*
X180805142Y-82549833D01*
X180678132Y-82368445D01*
X180521555Y-82211868D01*
X180340167Y-82084858D01*
X180340163Y-82084856D01*
X180139486Y-81991279D01*
X180139475Y-81991275D01*
X179925592Y-81933965D01*
X179925585Y-81933964D01*
X179705002Y-81914666D01*
X179704998Y-81914666D01*
X179484414Y-81933964D01*
X179484407Y-81933965D01*
X179270524Y-81991275D01*
X179270513Y-81991279D01*
X179069836Y-82084856D01*
X179069834Y-82084857D01*
X178888444Y-82211868D01*
X178731868Y-82368444D01*
X178656063Y-82476705D01*
X178605909Y-82548333D01*
X178604859Y-82549832D01*
X178604856Y-82549836D01*
X178547382Y-82673091D01*
X178501210Y-82725531D01*
X178434017Y-82744683D01*
X178367135Y-82724467D01*
X178322618Y-82673091D01*
X178280057Y-82581818D01*
X178265142Y-82549833D01*
X178138132Y-82368445D01*
X177981555Y-82211868D01*
X177800167Y-82084858D01*
X177800163Y-82084856D01*
X177599486Y-81991279D01*
X177599475Y-81991275D01*
X177385592Y-81933965D01*
X177385585Y-81933964D01*
X177165002Y-81914666D01*
X177164998Y-81914666D01*
X176944414Y-81933964D01*
X176944407Y-81933965D01*
X176730524Y-81991275D01*
X176730513Y-81991279D01*
X176529836Y-82084856D01*
X176529834Y-82084857D01*
X176348444Y-82211868D01*
X176191868Y-82368444D01*
X176116063Y-82476705D01*
X176065909Y-82548333D01*
X176064859Y-82549832D01*
X176064856Y-82549836D01*
X176007382Y-82673091D01*
X175961210Y-82725531D01*
X175894017Y-82744683D01*
X175827135Y-82724467D01*
X175782618Y-82673091D01*
X175740057Y-82581818D01*
X175725142Y-82549833D01*
X175598132Y-82368445D01*
X175441555Y-82211868D01*
X175260167Y-82084858D01*
X175260163Y-82084856D01*
X175059486Y-81991279D01*
X175059475Y-81991275D01*
X174845592Y-81933965D01*
X174845585Y-81933964D01*
X174625002Y-81914666D01*
X174624998Y-81914666D01*
X174404414Y-81933964D01*
X174404407Y-81933965D01*
X174190524Y-81991275D01*
X174190513Y-81991279D01*
X173989836Y-82084856D01*
X173989834Y-82084857D01*
X173808444Y-82211868D01*
X173651868Y-82368444D01*
X173627991Y-82402544D01*
X173578151Y-82473724D01*
X173576074Y-82476690D01*
X173521497Y-82520315D01*
X173451998Y-82527507D01*
X173389644Y-82495985D01*
X173354230Y-82435755D01*
X173350499Y-82405566D01*
X173350499Y-82372129D01*
X173350498Y-82372123D01*
X173350497Y-82372116D01*
X173344091Y-82312517D01*
X173334697Y-82287331D01*
X173293797Y-82177671D01*
X173293793Y-82177664D01*
X173207547Y-82062455D01*
X173207544Y-82062452D01*
X173092335Y-81976206D01*
X173092328Y-81976202D01*
X172957482Y-81925908D01*
X172957483Y-81925908D01*
X172897883Y-81919501D01*
X172897881Y-81919500D01*
X172897873Y-81919500D01*
X172897864Y-81919500D01*
X171272129Y-81919500D01*
X171272123Y-81919501D01*
X171212516Y-81925908D01*
X171077671Y-81976202D01*
X171077664Y-81976206D01*
X170962455Y-82062452D01*
X170962452Y-82062455D01*
X170876206Y-82177664D01*
X170876202Y-82177671D01*
X170825908Y-82312517D01*
X170819896Y-82368444D01*
X170819501Y-82372123D01*
X170819500Y-82372135D01*
X170819500Y-83997870D01*
X146710400Y-83997870D01*
X146710400Y-76114741D01*
X193249500Y-76114741D01*
X193274446Y-76304215D01*
X193279452Y-76342238D01*
X193279453Y-76342240D01*
X193338842Y-76563887D01*
X193426650Y-76775876D01*
X193426657Y-76775890D01*
X193541392Y-76974617D01*
X193681081Y-77156661D01*
X193681089Y-77156670D01*
X193843330Y-77318911D01*
X193843338Y-77318918D01*
X194025382Y-77458607D01*
X194025385Y-77458608D01*
X194025388Y-77458611D01*
X194224112Y-77573344D01*
X194224117Y-77573346D01*
X194224123Y-77573349D01*
X194315480Y-77611190D01*
X194436113Y-77661158D01*
X194657762Y-77720548D01*
X194885266Y-77750500D01*
X194885273Y-77750500D01*
X195114727Y-77750500D01*
X195114734Y-77750500D01*
X195342238Y-77720548D01*
X195563887Y-77661158D01*
X195775888Y-77573344D01*
X195974612Y-77458611D01*
X196156661Y-77318919D01*
X196156665Y-77318914D01*
X196156670Y-77318911D01*
X196318911Y-77156670D01*
X196318914Y-77156665D01*
X196318919Y-77156661D01*
X196458611Y-76974612D01*
X196573344Y-76775888D01*
X196661158Y-76563887D01*
X196720548Y-76342238D01*
X196750500Y-76114734D01*
X196750500Y-75885266D01*
X196720548Y-75657762D01*
X196661158Y-75436113D01*
X196602131Y-75293610D01*
X196573349Y-75224123D01*
X196573346Y-75224117D01*
X196573344Y-75224112D01*
X196458611Y-75025388D01*
X196458608Y-75025385D01*
X196458607Y-75025382D01*
X196318918Y-74843338D01*
X196318911Y-74843330D01*
X196156670Y-74681089D01*
X196156661Y-74681081D01*
X195974617Y-74541392D01*
X195775890Y-74426657D01*
X195775876Y-74426650D01*
X195563887Y-74338842D01*
X195342238Y-74279452D01*
X195304215Y-74274446D01*
X195114741Y-74249500D01*
X195114734Y-74249500D01*
X194885266Y-74249500D01*
X194885258Y-74249500D01*
X194668715Y-74278009D01*
X194657762Y-74279452D01*
X194564076Y-74304554D01*
X194436112Y-74338842D01*
X194224123Y-74426650D01*
X194224109Y-74426657D01*
X194025382Y-74541392D01*
X193843338Y-74681081D01*
X193681081Y-74843338D01*
X193541392Y-75025382D01*
X193426657Y-75224109D01*
X193426650Y-75224123D01*
X193338842Y-75436112D01*
X193279453Y-75657759D01*
X193279451Y-75657770D01*
X193249500Y-75885258D01*
X193249500Y-76114741D01*
X146710400Y-76114741D01*
X146710400Y-70485000D01*
X170815168Y-70485000D01*
X170834459Y-70705499D01*
X170834461Y-70705509D01*
X170891745Y-70919300D01*
X170891749Y-70919309D01*
X170985295Y-71119919D01*
X171031103Y-71185341D01*
X171031105Y-71185342D01*
X171593871Y-70622575D01*
X171609755Y-70681853D01*
X171676898Y-70798147D01*
X171771853Y-70893102D01*
X171888147Y-70960245D01*
X171947424Y-70976128D01*
X171384656Y-71538894D01*
X171450083Y-71584706D01*
X171450085Y-71584707D01*
X171650690Y-71678250D01*
X171650699Y-71678254D01*
X171864490Y-71735538D01*
X171864500Y-71735540D01*
X172084999Y-71754832D01*
X172085001Y-71754832D01*
X172305499Y-71735540D01*
X172305509Y-71735538D01*
X172519300Y-71678254D01*
X172519309Y-71678250D01*
X172719915Y-71584706D01*
X172785342Y-71538894D01*
X172222575Y-70976127D01*
X172281853Y-70960245D01*
X172398147Y-70893102D01*
X172493102Y-70798147D01*
X172560245Y-70681853D01*
X172576128Y-70622575D01*
X173138894Y-71185342D01*
X173184707Y-71119914D01*
X173184708Y-71119912D01*
X173242342Y-70996317D01*
X173288514Y-70943877D01*
X173355707Y-70924725D01*
X173422589Y-70944941D01*
X173467106Y-70996317D01*
X173524858Y-71120167D01*
X173651868Y-71301555D01*
X173808445Y-71458132D01*
X173989833Y-71585142D01*
X174110572Y-71641443D01*
X174190513Y-71678720D01*
X174190515Y-71678720D01*
X174190520Y-71678723D01*
X174404409Y-71736035D01*
X174561974Y-71749820D01*
X174624998Y-71755334D01*
X174625000Y-71755334D01*
X174625002Y-71755334D01*
X174680147Y-71750509D01*
X174845591Y-71736035D01*
X175059480Y-71678723D01*
X175260167Y-71585142D01*
X175441555Y-71458132D01*
X175598132Y-71301555D01*
X175725142Y-71120167D01*
X175782618Y-70996907D01*
X175828790Y-70944468D01*
X175895983Y-70925316D01*
X175962864Y-70945531D01*
X176007381Y-70996907D01*
X176064858Y-71120167D01*
X176191868Y-71301555D01*
X176348445Y-71458132D01*
X176529833Y-71585142D01*
X176650572Y-71641443D01*
X176730513Y-71678720D01*
X176730515Y-71678720D01*
X176730520Y-71678723D01*
X176944409Y-71736035D01*
X177101974Y-71749820D01*
X177164998Y-71755334D01*
X177165000Y-71755334D01*
X177165002Y-71755334D01*
X177220147Y-71750509D01*
X177385591Y-71736035D01*
X177599480Y-71678723D01*
X177800167Y-71585142D01*
X177981555Y-71458132D01*
X178138132Y-71301555D01*
X178265142Y-71120167D01*
X178322618Y-70996907D01*
X178368790Y-70944468D01*
X178435983Y-70925316D01*
X178502864Y-70945531D01*
X178547381Y-70996907D01*
X178604858Y-71120167D01*
X178731868Y-71301555D01*
X178888445Y-71458132D01*
X179069833Y-71585142D01*
X179190572Y-71641443D01*
X179270513Y-71678720D01*
X179270515Y-71678720D01*
X179270520Y-71678723D01*
X179484409Y-71736035D01*
X179641974Y-71749820D01*
X179704998Y-71755334D01*
X179705000Y-71755334D01*
X179705002Y-71755334D01*
X179760147Y-71750509D01*
X179925591Y-71736035D01*
X180139480Y-71678723D01*
X180340167Y-71585142D01*
X180521555Y-71458132D01*
X180678132Y-71301555D01*
X180805142Y-71120167D01*
X180862618Y-70996907D01*
X180908790Y-70944468D01*
X180975983Y-70925316D01*
X181042864Y-70945531D01*
X181087381Y-70996907D01*
X181144858Y-71120167D01*
X181271868Y-71301555D01*
X181428445Y-71458132D01*
X181609833Y-71585142D01*
X181730572Y-71641443D01*
X181810513Y-71678720D01*
X181810515Y-71678720D01*
X181810520Y-71678723D01*
X182024409Y-71736035D01*
X182181974Y-71749820D01*
X182244998Y-71755334D01*
X182245000Y-71755334D01*
X182245002Y-71755334D01*
X182300147Y-71750509D01*
X182465591Y-71736035D01*
X182679480Y-71678723D01*
X182880167Y-71585142D01*
X183061555Y-71458132D01*
X183218132Y-71301555D01*
X183345142Y-71120167D01*
X183402618Y-70996907D01*
X183448790Y-70944468D01*
X183515983Y-70925316D01*
X183582864Y-70945531D01*
X183627381Y-70996907D01*
X183684858Y-71120167D01*
X183811868Y-71301555D01*
X183968445Y-71458132D01*
X184149833Y-71585142D01*
X184270572Y-71641443D01*
X184350513Y-71678720D01*
X184350515Y-71678720D01*
X184350520Y-71678723D01*
X184564409Y-71736035D01*
X184721974Y-71749820D01*
X184784998Y-71755334D01*
X184785000Y-71755334D01*
X184785002Y-71755334D01*
X184840147Y-71750509D01*
X185005591Y-71736035D01*
X185219480Y-71678723D01*
X185420167Y-71585142D01*
X185601555Y-71458132D01*
X185758132Y-71301555D01*
X185885142Y-71120167D01*
X185942895Y-70996312D01*
X185989064Y-70943878D01*
X186056258Y-70924725D01*
X186123139Y-70944940D01*
X186167657Y-70996316D01*
X186225295Y-71119919D01*
X186271103Y-71185341D01*
X186271105Y-71185342D01*
X186833871Y-70622575D01*
X186849755Y-70681853D01*
X186916898Y-70798147D01*
X187011853Y-70893102D01*
X187128147Y-70960245D01*
X187187424Y-70976128D01*
X186624656Y-71538894D01*
X186690083Y-71584706D01*
X186690085Y-71584707D01*
X186890690Y-71678250D01*
X186890699Y-71678254D01*
X187104490Y-71735538D01*
X187104500Y-71735540D01*
X187324999Y-71754832D01*
X187325001Y-71754832D01*
X187545499Y-71735540D01*
X187545509Y-71735538D01*
X187759300Y-71678254D01*
X187759309Y-71678250D01*
X187959915Y-71584706D01*
X188025342Y-71538894D01*
X187462575Y-70976127D01*
X187521853Y-70960245D01*
X187638147Y-70893102D01*
X187733102Y-70798147D01*
X187800245Y-70681853D01*
X187816128Y-70622575D01*
X188378894Y-71185342D01*
X188424707Y-71119914D01*
X188424708Y-71119912D01*
X188482342Y-70996317D01*
X188528514Y-70943877D01*
X188595707Y-70924725D01*
X188662589Y-70944941D01*
X188707106Y-70996317D01*
X188764858Y-71120167D01*
X188891868Y-71301555D01*
X189048445Y-71458132D01*
X189229833Y-71585142D01*
X189350572Y-71641443D01*
X189430513Y-71678720D01*
X189430515Y-71678720D01*
X189430520Y-71678723D01*
X189644409Y-71736035D01*
X189801974Y-71749820D01*
X189864998Y-71755334D01*
X189865000Y-71755334D01*
X189865002Y-71755334D01*
X189920147Y-71750509D01*
X190085591Y-71736035D01*
X190299480Y-71678723D01*
X190500167Y-71585142D01*
X190681555Y-71458132D01*
X190838132Y-71301555D01*
X190965142Y-71120167D01*
X191058723Y-70919480D01*
X191116035Y-70705591D01*
X191135334Y-70485000D01*
X191116035Y-70264409D01*
X191058723Y-70050520D01*
X191046574Y-70024467D01*
X191021090Y-69969816D01*
X190965142Y-69849833D01*
X190838132Y-69668445D01*
X190681555Y-69511868D01*
X190500167Y-69384858D01*
X190500163Y-69384856D01*
X190299486Y-69291279D01*
X190299475Y-69291275D01*
X190085592Y-69233965D01*
X190085585Y-69233964D01*
X189865002Y-69214666D01*
X189864998Y-69214666D01*
X189644414Y-69233964D01*
X189644407Y-69233965D01*
X189430524Y-69291275D01*
X189430513Y-69291279D01*
X189229836Y-69384856D01*
X189229834Y-69384857D01*
X189048444Y-69511868D01*
X188891868Y-69668444D01*
X188764857Y-69849833D01*
X188707106Y-69973683D01*
X188660934Y-70026122D01*
X188593740Y-70045274D01*
X188526859Y-70025058D01*
X188482342Y-69973683D01*
X188424707Y-69850085D01*
X188424706Y-69850083D01*
X188378894Y-69784657D01*
X188378894Y-69784656D01*
X187816127Y-70347423D01*
X187800245Y-70288147D01*
X187733102Y-70171853D01*
X187638147Y-70076898D01*
X187521853Y-70009755D01*
X187462575Y-69993872D01*
X188025342Y-69431105D01*
X188025341Y-69431103D01*
X187959919Y-69385295D01*
X187759309Y-69291749D01*
X187759300Y-69291745D01*
X187545509Y-69234461D01*
X187545499Y-69234459D01*
X187325001Y-69215168D01*
X187324999Y-69215168D01*
X187104500Y-69234459D01*
X187104490Y-69234461D01*
X186890699Y-69291745D01*
X186890690Y-69291749D01*
X186690084Y-69385293D01*
X186624657Y-69431104D01*
X187187424Y-69993871D01*
X187128147Y-70009755D01*
X187011853Y-70076898D01*
X186916898Y-70171853D01*
X186849755Y-70288147D01*
X186833871Y-70347424D01*
X186271104Y-69784657D01*
X186225293Y-69850084D01*
X186167657Y-69973683D01*
X186121484Y-70026122D01*
X186054290Y-70045274D01*
X185987409Y-70025058D01*
X185942893Y-69973682D01*
X185885142Y-69849833D01*
X185758132Y-69668445D01*
X185601555Y-69511868D01*
X185420167Y-69384858D01*
X185420163Y-69384856D01*
X185219486Y-69291279D01*
X185219475Y-69291275D01*
X185005592Y-69233965D01*
X185005585Y-69233964D01*
X184785002Y-69214666D01*
X184784998Y-69214666D01*
X184564414Y-69233964D01*
X184564407Y-69233965D01*
X184350524Y-69291275D01*
X184350513Y-69291279D01*
X184149836Y-69384856D01*
X184149834Y-69384857D01*
X183968444Y-69511868D01*
X183811868Y-69668444D01*
X183684857Y-69849834D01*
X183684856Y-69849836D01*
X183627382Y-69973091D01*
X183581210Y-70025531D01*
X183514017Y-70044683D01*
X183447135Y-70024467D01*
X183402618Y-69973091D01*
X183374050Y-69911828D01*
X183345142Y-69849833D01*
X183218132Y-69668445D01*
X183061555Y-69511868D01*
X182880167Y-69384858D01*
X182880163Y-69384856D01*
X182679486Y-69291279D01*
X182679475Y-69291275D01*
X182465592Y-69233965D01*
X182465585Y-69233964D01*
X182245002Y-69214666D01*
X182244998Y-69214666D01*
X182024414Y-69233964D01*
X182024407Y-69233965D01*
X181810524Y-69291275D01*
X181810513Y-69291279D01*
X181609836Y-69384856D01*
X181609834Y-69384857D01*
X181428444Y-69511868D01*
X181271868Y-69668444D01*
X181144857Y-69849834D01*
X181144856Y-69849836D01*
X181087382Y-69973091D01*
X181041210Y-70025531D01*
X180974017Y-70044683D01*
X180907135Y-70024467D01*
X180862618Y-69973091D01*
X180834050Y-69911828D01*
X180805142Y-69849833D01*
X180678132Y-69668445D01*
X180521555Y-69511868D01*
X180340167Y-69384858D01*
X180340163Y-69384856D01*
X180139486Y-69291279D01*
X180139475Y-69291275D01*
X179925592Y-69233965D01*
X179925585Y-69233964D01*
X179705002Y-69214666D01*
X179704998Y-69214666D01*
X179484414Y-69233964D01*
X179484407Y-69233965D01*
X179270524Y-69291275D01*
X179270513Y-69291279D01*
X179069836Y-69384856D01*
X179069834Y-69384857D01*
X178888444Y-69511868D01*
X178731868Y-69668444D01*
X178604857Y-69849834D01*
X178604856Y-69849836D01*
X178547382Y-69973091D01*
X178501210Y-70025531D01*
X178434017Y-70044683D01*
X178367135Y-70024467D01*
X178322618Y-69973091D01*
X178294050Y-69911828D01*
X178265142Y-69849833D01*
X178138132Y-69668445D01*
X177981555Y-69511868D01*
X177800167Y-69384858D01*
X177800163Y-69384856D01*
X177599486Y-69291279D01*
X177599475Y-69291275D01*
X177385592Y-69233965D01*
X177385585Y-69233964D01*
X177165002Y-69214666D01*
X177164998Y-69214666D01*
X176944414Y-69233964D01*
X176944407Y-69233965D01*
X176730524Y-69291275D01*
X176730513Y-69291279D01*
X176529836Y-69384856D01*
X176529834Y-69384857D01*
X176348444Y-69511868D01*
X176191868Y-69668444D01*
X176064857Y-69849834D01*
X176064856Y-69849836D01*
X176007382Y-69973091D01*
X175961210Y-70025531D01*
X175894017Y-70044683D01*
X175827135Y-70024467D01*
X175782618Y-69973091D01*
X175754050Y-69911828D01*
X175725142Y-69849833D01*
X175598132Y-69668445D01*
X175441555Y-69511868D01*
X175260167Y-69384858D01*
X175260163Y-69384856D01*
X175059486Y-69291279D01*
X175059475Y-69291275D01*
X174845592Y-69233965D01*
X174845585Y-69233964D01*
X174625002Y-69214666D01*
X174624998Y-69214666D01*
X174404414Y-69233964D01*
X174404407Y-69233965D01*
X174190524Y-69291275D01*
X174190513Y-69291279D01*
X173989836Y-69384856D01*
X173989834Y-69384857D01*
X173808444Y-69511868D01*
X173651868Y-69668444D01*
X173524857Y-69849833D01*
X173467106Y-69973683D01*
X173420934Y-70026122D01*
X173353740Y-70045274D01*
X173286859Y-70025058D01*
X173242342Y-69973683D01*
X173184707Y-69850085D01*
X173184706Y-69850083D01*
X173138894Y-69784657D01*
X173138894Y-69784656D01*
X172576127Y-70347423D01*
X172560245Y-70288147D01*
X172493102Y-70171853D01*
X172398147Y-70076898D01*
X172281853Y-70009755D01*
X172222575Y-69993872D01*
X172785342Y-69431105D01*
X172785341Y-69431103D01*
X172719919Y-69385295D01*
X172519309Y-69291749D01*
X172519300Y-69291745D01*
X172305509Y-69234461D01*
X172305499Y-69234459D01*
X172085001Y-69215168D01*
X172084999Y-69215168D01*
X171864500Y-69234459D01*
X171864490Y-69234461D01*
X171650699Y-69291745D01*
X171650690Y-69291749D01*
X171450084Y-69385293D01*
X171384657Y-69431104D01*
X171947424Y-69993871D01*
X171888147Y-70009755D01*
X171771853Y-70076898D01*
X171676898Y-70171853D01*
X171609755Y-70288147D01*
X171593871Y-70347424D01*
X171031104Y-69784657D01*
X170985293Y-69850084D01*
X170891749Y-70050690D01*
X170891745Y-70050699D01*
X170834461Y-70264490D01*
X170834459Y-70264500D01*
X170815168Y-70484999D01*
X170815168Y-70485000D01*
X146710400Y-70485000D01*
X146710400Y-66317444D01*
X146978000Y-66317444D01*
X146984401Y-66376972D01*
X146984403Y-66376979D01*
X147034645Y-66511686D01*
X147034649Y-66511693D01*
X147120809Y-66626787D01*
X147120812Y-66626790D01*
X147235906Y-66712950D01*
X147235913Y-66712954D01*
X147370620Y-66763196D01*
X147370627Y-66763198D01*
X147430155Y-66769599D01*
X147430172Y-66769600D01*
X147990000Y-66769600D01*
X147990000Y-65796416D01*
X148006060Y-65812476D01*
X148092939Y-65862636D01*
X148189840Y-65888600D01*
X148290160Y-65888600D01*
X148387061Y-65862636D01*
X148473940Y-65812476D01*
X148490000Y-65796416D01*
X148490000Y-66769600D01*
X149049828Y-66769600D01*
X149049844Y-66769599D01*
X149109372Y-66763198D01*
X149109379Y-66763196D01*
X149244086Y-66712954D01*
X149244093Y-66712950D01*
X149359187Y-66626790D01*
X149359190Y-66626787D01*
X149445350Y-66511693D01*
X149445354Y-66511686D01*
X149495596Y-66376979D01*
X149495598Y-66376972D01*
X149501996Y-66317470D01*
X166377500Y-66317470D01*
X166377501Y-66317476D01*
X166383908Y-66377083D01*
X166434202Y-66511928D01*
X166434206Y-66511935D01*
X166520452Y-66627144D01*
X166520455Y-66627147D01*
X166635664Y-66713393D01*
X166635671Y-66713397D01*
X166770517Y-66763691D01*
X166770516Y-66763691D01*
X166777444Y-66764435D01*
X166830127Y-66770100D01*
X168449872Y-66770099D01*
X168509483Y-66763691D01*
X168644331Y-66713396D01*
X168759546Y-66627146D01*
X168845796Y-66511931D01*
X168896091Y-66377083D01*
X168902500Y-66317473D01*
X168902499Y-64909601D01*
X170545900Y-64909601D01*
X170545901Y-64909618D01*
X170556400Y-65012396D01*
X170556401Y-65012399D01*
X170611585Y-65178931D01*
X170611587Y-65178936D01*
X170619545Y-65191838D01*
X170703688Y-65328256D01*
X170827744Y-65452312D01*
X170977066Y-65544414D01*
X171143603Y-65599599D01*
X171246391Y-65610100D01*
X172546408Y-65610099D01*
X172649197Y-65599599D01*
X172815734Y-65544414D01*
X172965056Y-65452312D01*
X173089112Y-65328256D01*
X173181214Y-65178934D01*
X173181214Y-65178931D01*
X173184848Y-65173041D01*
X173236795Y-65126316D01*
X173305758Y-65115093D01*
X173369840Y-65142936D01*
X173378068Y-65150456D01*
X173516935Y-65289323D01*
X173516940Y-65289327D01*
X173688842Y-65414220D01*
X173878182Y-65510695D01*
X174080271Y-65576357D01*
X174146400Y-65586831D01*
X174146400Y-64542612D01*
X174203407Y-64575525D01*
X174330574Y-64609600D01*
X174462226Y-64609600D01*
X174589393Y-64575525D01*
X174646400Y-64542612D01*
X174646400Y-65586830D01*
X174712526Y-65576357D01*
X174712529Y-65576357D01*
X174914617Y-65510695D01*
X175103957Y-65414220D01*
X175275859Y-65289327D01*
X175275864Y-65289323D01*
X175426123Y-65139064D01*
X175426127Y-65139059D01*
X175551020Y-64967157D01*
X175647495Y-64777817D01*
X175713157Y-64575730D01*
X175713157Y-64575727D01*
X175746330Y-64366286D01*
X179345100Y-64366286D01*
X179378335Y-64576127D01*
X179378354Y-64576243D01*
X179438519Y-64761412D01*
X179444044Y-64778414D01*
X179540551Y-64967820D01*
X179665490Y-65139786D01*
X179815813Y-65290109D01*
X179987779Y-65415048D01*
X179987781Y-65415049D01*
X179987784Y-65415051D01*
X180177188Y-65511557D01*
X180379357Y-65577246D01*
X180589313Y-65610500D01*
X180589314Y-65610500D01*
X180801886Y-65610500D01*
X180801887Y-65610500D01*
X181011843Y-65577246D01*
X181214012Y-65511557D01*
X181403416Y-65415051D01*
X181478446Y-65360539D01*
X181575386Y-65290109D01*
X181575388Y-65290106D01*
X181575392Y-65290104D01*
X181725704Y-65139792D01*
X181845283Y-64975204D01*
X181900611Y-64932540D01*
X181970224Y-64926561D01*
X182032020Y-64959166D01*
X182045913Y-64975199D01*
X182164963Y-65139059D01*
X182165496Y-65139792D01*
X182315813Y-65290109D01*
X182487779Y-65415048D01*
X182487781Y-65415049D01*
X182487784Y-65415051D01*
X182677188Y-65511557D01*
X182879357Y-65577246D01*
X183089313Y-65610500D01*
X183089314Y-65610500D01*
X183301886Y-65610500D01*
X183301887Y-65610500D01*
X183511843Y-65577246D01*
X183714012Y-65511557D01*
X183903416Y-65415051D01*
X183978446Y-65360539D01*
X184075386Y-65290109D01*
X184075388Y-65290106D01*
X184075392Y-65290104D01*
X184225704Y-65139792D01*
X184345283Y-64975204D01*
X184400611Y-64932540D01*
X184470224Y-64926561D01*
X184532020Y-64959166D01*
X184545913Y-64975199D01*
X184664963Y-65139059D01*
X184665496Y-65139792D01*
X184815813Y-65290109D01*
X184987779Y-65415048D01*
X184987781Y-65415049D01*
X184987784Y-65415051D01*
X185177188Y-65511557D01*
X185379357Y-65577246D01*
X185589313Y-65610500D01*
X185589314Y-65610500D01*
X185801886Y-65610500D01*
X185801887Y-65610500D01*
X186011843Y-65577246D01*
X186214012Y-65511557D01*
X186403416Y-65415051D01*
X186478446Y-65360539D01*
X186575386Y-65290109D01*
X186575388Y-65290106D01*
X186575392Y-65290104D01*
X186725704Y-65139792D01*
X186746605Y-65111022D01*
X186801932Y-65068357D01*
X186871545Y-65062376D01*
X186933341Y-65094980D01*
X186957409Y-65127612D01*
X186975099Y-65162331D01*
X186990135Y-65191840D01*
X187112568Y-65343032D01*
X187263760Y-65465465D01*
X187437104Y-65553788D01*
X187625022Y-65604141D01*
X187705822Y-65610500D01*
X187705830Y-65610500D01*
X188685370Y-65610500D01*
X188685378Y-65610500D01*
X188766178Y-65604141D01*
X188954096Y-65553788D01*
X189127440Y-65465465D01*
X189278632Y-65343032D01*
X189401065Y-65191840D01*
X189489388Y-65018496D01*
X189539741Y-64830578D01*
X189546100Y-64749778D01*
X189546100Y-63520222D01*
X189539741Y-63439422D01*
X189489388Y-63251504D01*
X189401065Y-63078160D01*
X189278632Y-62926968D01*
X189127440Y-62804535D01*
X188954096Y-62716212D01*
X188766178Y-62665859D01*
X188766177Y-62665858D01*
X188766174Y-62665858D01*
X188685383Y-62659500D01*
X188685378Y-62659500D01*
X187705822Y-62659500D01*
X187705816Y-62659500D01*
X187625025Y-62665858D01*
X187437104Y-62716212D01*
X187263761Y-62804534D01*
X187112568Y-62926968D01*
X186990132Y-63078163D01*
X186957408Y-63142388D01*
X186909434Y-63193183D01*
X186841613Y-63209978D01*
X186775478Y-63187440D01*
X186746605Y-63158975D01*
X186725711Y-63130216D01*
X186725705Y-63130209D01*
X186575386Y-62979890D01*
X186403420Y-62854951D01*
X186214014Y-62758444D01*
X186214013Y-62758443D01*
X186214012Y-62758443D01*
X186011843Y-62692754D01*
X186011841Y-62692753D01*
X186011840Y-62692753D01*
X185842036Y-62665859D01*
X185801887Y-62659500D01*
X185589313Y-62659500D01*
X185549164Y-62665859D01*
X185379360Y-62692753D01*
X185177185Y-62758444D01*
X184987779Y-62854951D01*
X184815813Y-62979890D01*
X184665494Y-63130209D01*
X184665490Y-63130214D01*
X184545918Y-63294793D01*
X184490589Y-63337459D01*
X184420975Y-63343438D01*
X184359180Y-63310833D01*
X184345282Y-63294793D01*
X184225709Y-63130214D01*
X184225705Y-63130209D01*
X184075386Y-62979890D01*
X183903420Y-62854951D01*
X183714014Y-62758444D01*
X183714013Y-62758443D01*
X183714012Y-62758443D01*
X183511843Y-62692754D01*
X183511841Y-62692753D01*
X183511840Y-62692753D01*
X183342036Y-62665859D01*
X183301887Y-62659500D01*
X183089313Y-62659500D01*
X183049164Y-62665859D01*
X182879360Y-62692753D01*
X182677185Y-62758444D01*
X182487779Y-62854951D01*
X182315813Y-62979890D01*
X182165494Y-63130209D01*
X182165490Y-63130214D01*
X182045918Y-63294793D01*
X181990589Y-63337459D01*
X181920975Y-63343438D01*
X181859180Y-63310833D01*
X181845282Y-63294793D01*
X181725709Y-63130214D01*
X181725705Y-63130209D01*
X181575386Y-62979890D01*
X181403420Y-62854951D01*
X181214014Y-62758444D01*
X181214013Y-62758443D01*
X181214012Y-62758443D01*
X181011843Y-62692754D01*
X181011841Y-62692753D01*
X181011840Y-62692753D01*
X180842036Y-62665859D01*
X180801887Y-62659500D01*
X180589313Y-62659500D01*
X180549164Y-62665859D01*
X180379360Y-62692753D01*
X180177185Y-62758444D01*
X179987779Y-62854951D01*
X179815813Y-62979890D01*
X179665490Y-63130213D01*
X179540551Y-63302179D01*
X179444044Y-63491585D01*
X179444043Y-63491587D01*
X179444043Y-63491588D01*
X179438320Y-63509203D01*
X179378353Y-63693760D01*
X179345100Y-63903713D01*
X179345100Y-64366286D01*
X175746330Y-64366286D01*
X175746400Y-64365846D01*
X175746400Y-64359600D01*
X174829412Y-64359600D01*
X174862325Y-64302593D01*
X174896400Y-64175426D01*
X174896400Y-64043774D01*
X174862325Y-63916607D01*
X174829412Y-63859600D01*
X175746400Y-63859600D01*
X175746400Y-63853353D01*
X175713157Y-63643472D01*
X175713157Y-63643469D01*
X175647495Y-63441382D01*
X175551020Y-63252042D01*
X175426127Y-63080140D01*
X175426123Y-63080135D01*
X175275864Y-62929876D01*
X175275859Y-62929872D01*
X175103957Y-62804979D01*
X174914615Y-62708503D01*
X174712524Y-62642841D01*
X174646400Y-62632368D01*
X174646400Y-63676588D01*
X174589393Y-63643675D01*
X174462226Y-63609600D01*
X174330574Y-63609600D01*
X174203407Y-63643675D01*
X174146400Y-63676588D01*
X174146400Y-62632368D01*
X174146399Y-62632368D01*
X174080275Y-62642841D01*
X173878184Y-62708503D01*
X173688842Y-62804979D01*
X173516941Y-62929871D01*
X173378068Y-63068744D01*
X173316745Y-63102228D01*
X173247053Y-63097244D01*
X173191120Y-63055372D01*
X173184848Y-63046158D01*
X173142305Y-62977185D01*
X173089112Y-62890944D01*
X172965056Y-62766888D01*
X172844865Y-62692754D01*
X172815736Y-62674787D01*
X172815731Y-62674785D01*
X172788791Y-62665858D01*
X172649197Y-62619601D01*
X172649195Y-62619600D01*
X172546410Y-62609100D01*
X171246398Y-62609100D01*
X171246381Y-62609101D01*
X171143603Y-62619600D01*
X171143600Y-62619601D01*
X170977068Y-62674785D01*
X170977063Y-62674787D01*
X170827742Y-62766889D01*
X170703689Y-62890942D01*
X170611587Y-63040263D01*
X170611585Y-63040268D01*
X170583749Y-63124270D01*
X170556401Y-63206803D01*
X170556401Y-63206804D01*
X170556400Y-63206804D01*
X170545900Y-63309583D01*
X170545900Y-64909601D01*
X168902499Y-64909601D01*
X168902499Y-64697728D01*
X168896091Y-64638117D01*
X168879263Y-64593000D01*
X168845797Y-64503271D01*
X168845793Y-64503264D01*
X168759547Y-64388055D01*
X168759544Y-64388052D01*
X168644335Y-64301806D01*
X168644328Y-64301802D01*
X168509482Y-64251508D01*
X168509483Y-64251508D01*
X168449883Y-64245101D01*
X168449881Y-64245100D01*
X168449873Y-64245100D01*
X168449864Y-64245100D01*
X166830129Y-64245100D01*
X166830123Y-64245101D01*
X166770516Y-64251508D01*
X166635671Y-64301802D01*
X166635664Y-64301806D01*
X166520455Y-64388052D01*
X166520452Y-64388055D01*
X166434206Y-64503264D01*
X166434202Y-64503271D01*
X166383908Y-64638117D01*
X166377501Y-64697716D01*
X166377501Y-64697723D01*
X166377500Y-64697735D01*
X166377500Y-66317470D01*
X149501996Y-66317470D01*
X149501999Y-66317444D01*
X149502000Y-66317427D01*
X149502000Y-65757600D01*
X148528816Y-65757600D01*
X148544876Y-65741540D01*
X148595036Y-65654661D01*
X148621000Y-65557760D01*
X148621000Y-65457440D01*
X148595036Y-65360539D01*
X148544876Y-65273660D01*
X148528816Y-65257600D01*
X149502000Y-65257600D01*
X149502000Y-64697772D01*
X149501999Y-64697755D01*
X149495598Y-64638227D01*
X149495596Y-64638220D01*
X149445354Y-64503513D01*
X149445350Y-64503506D01*
X149359190Y-64388412D01*
X149359187Y-64388409D01*
X149244093Y-64302249D01*
X149244086Y-64302245D01*
X149109379Y-64252003D01*
X149109372Y-64252001D01*
X149049844Y-64245600D01*
X148490000Y-64245600D01*
X148490000Y-65218784D01*
X148473940Y-65202724D01*
X148387061Y-65152564D01*
X148290160Y-65126600D01*
X148189840Y-65126600D01*
X148092939Y-65152564D01*
X148006060Y-65202724D01*
X147990000Y-65218784D01*
X147990000Y-64245600D01*
X147430155Y-64245600D01*
X147370627Y-64252001D01*
X147370620Y-64252003D01*
X147235913Y-64302245D01*
X147235906Y-64302249D01*
X147120812Y-64388409D01*
X147120809Y-64388412D01*
X147034649Y-64503506D01*
X147034645Y-64503513D01*
X146984403Y-64638220D01*
X146984401Y-64638227D01*
X146978000Y-64697755D01*
X146978000Y-65257600D01*
X147951184Y-65257600D01*
X147935124Y-65273660D01*
X147884964Y-65360539D01*
X147859000Y-65457440D01*
X147859000Y-65557760D01*
X147884964Y-65654661D01*
X147935124Y-65741540D01*
X147951184Y-65757600D01*
X146978000Y-65757600D01*
X146978000Y-66317444D01*
X146710400Y-66317444D01*
X146710400Y-61084000D01*
X146730085Y-61016961D01*
X146782889Y-60971206D01*
X146834400Y-60960000D01*
X246560800Y-60960000D01*
X246627839Y-60979685D01*
G37*
%TD.AperFunction*%
%TD*%
M02*
