%TF.GenerationSoftware,KiCad,Pcbnew,7.0.1*%
%TF.CreationDate,2024-03-29T16:21:28+01:00*%
%TF.ProjectId,carte_generale,63617274-655f-4676-956e-6572616c652e,Cyril_ Eliott*%
%TF.SameCoordinates,Original*%
%TF.FileFunction,Copper,L2,Bot*%
%TF.FilePolarity,Positive*%
%FSLAX46Y46*%
G04 Gerber Fmt 4.6, Leading zero omitted, Abs format (unit mm)*
G04 Created by KiCad (PCBNEW 7.0.1) date 2024-03-29 16:21:28*
%MOMM*%
%LPD*%
G01*
G04 APERTURE LIST*
G04 Aperture macros list*
%AMRoundRect*
0 Rectangle with rounded corners*
0 $1 Rounding radius*
0 $2 $3 $4 $5 $6 $7 $8 $9 X,Y pos of 4 corners*
0 Add a 4 corners polygon primitive as box body*
4,1,4,$2,$3,$4,$5,$6,$7,$8,$9,$2,$3,0*
0 Add four circle primitives for the rounded corners*
1,1,$1+$1,$2,$3*
1,1,$1+$1,$4,$5*
1,1,$1+$1,$6,$7*
1,1,$1+$1,$8,$9*
0 Add four rect primitives between the rounded corners*
20,1,$1+$1,$2,$3,$4,$5,0*
20,1,$1+$1,$4,$5,$6,$7,0*
20,1,$1+$1,$6,$7,$8,$9,0*
20,1,$1+$1,$8,$9,$2,$3,0*%
G04 Aperture macros list end*
%TA.AperFunction,ComponentPad*%
%ADD10R,1.524000X1.524000*%
%TD*%
%TA.AperFunction,ComponentPad*%
%ADD11RoundRect,0.250000X-0.600000X-0.750000X0.600000X-0.750000X0.600000X0.750000X-0.600000X0.750000X0*%
%TD*%
%TA.AperFunction,ComponentPad*%
%ADD12O,1.700000X2.000000*%
%TD*%
%TA.AperFunction,ComponentPad*%
%ADD13R,1.530000X1.530000*%
%TD*%
%TA.AperFunction,ComponentPad*%
%ADD14C,1.530000*%
%TD*%
%TA.AperFunction,ComponentPad*%
%ADD15RoundRect,0.250000X-0.725000X0.600000X-0.725000X-0.600000X0.725000X-0.600000X0.725000X0.600000X0*%
%TD*%
%TA.AperFunction,ComponentPad*%
%ADD16O,1.950000X1.700000*%
%TD*%
%TA.AperFunction,ComponentPad*%
%ADD17RoundRect,0.250000X-0.600000X-0.725000X0.600000X-0.725000X0.600000X0.725000X-0.600000X0.725000X0*%
%TD*%
%TA.AperFunction,ComponentPad*%
%ADD18O,1.700000X1.950000*%
%TD*%
%TA.AperFunction,ComponentPad*%
%ADD19R,1.800000X1.800000*%
%TD*%
%TA.AperFunction,ComponentPad*%
%ADD20C,1.800000*%
%TD*%
%TA.AperFunction,ComponentPad*%
%ADD21RoundRect,0.425000X-0.425000X-0.550000X0.425000X-0.550000X0.425000X0.550000X-0.425000X0.550000X0*%
%TD*%
%TA.AperFunction,ComponentPad*%
%ADD22RoundRect,0.425000X0.425000X0.550000X-0.425000X0.550000X-0.425000X-0.550000X0.425000X-0.550000X0*%
%TD*%
%TA.AperFunction,ViaPad*%
%ADD23C,0.800000*%
%TD*%
%TA.AperFunction,Conductor*%
%ADD24C,0.250000*%
%TD*%
%TA.AperFunction,Conductor*%
%ADD25C,0.300000*%
%TD*%
%TA.AperFunction,Conductor*%
%ADD26C,1.000000*%
%TD*%
G04 APERTURE END LIST*
D10*
%TO.P,U1,1,IN+*%
%TO.N,V_5V*%
X167640000Y-65507600D03*
%TO.P,U1,2,IN-*%
%TO.N,GND*%
X148240000Y-65507600D03*
%TO.P,U1,3,OUT+*%
%TO.N,V_9V*%
X167640000Y-106907600D03*
%TO.P,U1,4,OUT-*%
%TO.N,GND*%
X148240000Y-106907600D03*
%TD*%
%TO.P,U5,1*%
%TO.N,BINARY_1*%
X202692000Y-108839000D03*
%TO.P,U5,2*%
%TO.N,BINARY_2*%
X205232000Y-108839000D03*
%TO.P,U5,3*%
%TO.N,BINARY_3*%
X207772000Y-108839000D03*
%TO.P,U5,4*%
%TO.N,SELECT_EQUIPE*%
X210312000Y-108839000D03*
%TO.P,U5,5*%
%TO.N,Net-(R2-Pad1)*%
X210312000Y-101219000D03*
%TO.P,U5,6*%
X207772000Y-101219000D03*
%TO.P,U5,7*%
X205232000Y-101219000D03*
%TO.P,U5,8*%
X202692000Y-101219000D03*
%TD*%
D11*
%TO.P,J1,1,Pin_1*%
%TO.N,V_5V*%
X171896400Y-64109600D03*
D12*
%TO.P,J1,2,Pin_2*%
%TO.N,GND*%
X174396400Y-64109600D03*
%TD*%
D13*
%TO.P,U3,1,~ENABLE*%
%TO.N,unconnected-(U3-~ENABLE-Pad1)*%
X172085000Y-83185000D03*
D14*
%TO.P,U3,2,MS1*%
%TO.N,unconnected-(U3-MS1-Pad2)*%
X174625000Y-83185000D03*
%TO.P,U3,3,MS2*%
%TO.N,unconnected-(U3-MS2-Pad3)*%
X177165000Y-83185000D03*
%TO.P,U3,4,MS3*%
%TO.N,unconnected-(U3-MS3-Pad4)*%
X179705000Y-83185000D03*
%TO.P,U3,5,~RESET*%
%TO.N,Net-(U3-~RESET)*%
X182245000Y-83185000D03*
%TO.P,U3,6,~SLEEP*%
X184785000Y-83185000D03*
%TO.P,U3,7,STEP*%
%TO.N,STEP2*%
X187325000Y-83185000D03*
%TO.P,U3,8,DIRECTION*%
%TO.N,DIR2*%
X189865000Y-83185000D03*
%TO.P,U3,9,VMOT*%
%TO.N,V_9V*%
X189865000Y-70485000D03*
%TO.P,U3,10,GND*%
%TO.N,GND*%
X187325000Y-70485000D03*
%TO.P,U3,11,2B*%
%TO.N,M2_B-*%
X184785000Y-70485000D03*
%TO.P,U3,12,2A*%
%TO.N,M2_B+*%
X182245000Y-70485000D03*
%TO.P,U3,13,1A*%
%TO.N,M2_A+*%
X179705000Y-70485000D03*
%TO.P,U3,14,1B*%
%TO.N,M2_A-*%
X177165000Y-70485000D03*
%TO.P,U3,15,VDD*%
%TO.N,V_5V*%
X174625000Y-70485000D03*
%TO.P,U3,16,GND*%
%TO.N,GND*%
X172085000Y-70485000D03*
%TD*%
D15*
%TO.P,J7,1,Pin_1*%
%TO.N,V_5V*%
X243459000Y-64262000D03*
D16*
%TO.P,J7,2,Pin_2*%
%TO.N,UART2_RX*%
X243459000Y-66762000D03*
%TO.P,J7,3,Pin_3*%
%TO.N,UART2_TX*%
X243459000Y-69262000D03*
%TO.P,J7,4,Pin_4*%
%TO.N,GND*%
X243459000Y-71762000D03*
%TD*%
D17*
%TO.P,J2,1,Pin_1*%
%TO.N,V_5V*%
X210947000Y-64135000D03*
D18*
%TO.P,J2,2,Pin_2*%
%TO.N,I2C1_SCL*%
X213447000Y-64135000D03*
%TO.P,J2,3,Pin_3*%
%TO.N,I2C1_SDA*%
X215947000Y-64135000D03*
%TO.P,J2,4,Pin_4*%
%TO.N,XSDN1*%
X218447000Y-64135000D03*
%TO.P,J2,5,Pin_5*%
%TO.N,GND*%
X220947000Y-64135000D03*
%TD*%
D19*
%TO.P,D2,1,K*%
%TO.N,MUX_INPUT_2*%
X233045000Y-106045000D03*
D20*
%TO.P,D2,2,A*%
%TO.N,V_5V*%
X233045000Y-103505000D03*
%TD*%
D13*
%TO.P,U2,1,~ENABLE*%
%TO.N,unconnected-(U2-~ENABLE-Pad1)*%
X189865000Y-87630000D03*
D14*
%TO.P,U2,2,MS1*%
%TO.N,unconnected-(U2-MS1-Pad2)*%
X187325000Y-87630000D03*
%TO.P,U2,3,MS2*%
%TO.N,unconnected-(U2-MS2-Pad3)*%
X184785000Y-87630000D03*
%TO.P,U2,4,MS3*%
%TO.N,unconnected-(U2-MS3-Pad4)*%
X182245000Y-87630000D03*
%TO.P,U2,5,~RESET*%
%TO.N,Net-(U2-~RESET)*%
X179705000Y-87630000D03*
%TO.P,U2,6,~SLEEP*%
X177165000Y-87630000D03*
%TO.P,U2,7,STEP*%
%TO.N,STEP1*%
X174625000Y-87630000D03*
%TO.P,U2,8,DIRECTION*%
%TO.N,DIR1*%
X172085000Y-87630000D03*
%TO.P,U2,9,VMOT*%
%TO.N,V_9V*%
X172085000Y-100330000D03*
%TO.P,U2,10,GND*%
%TO.N,GND*%
X174625000Y-100330000D03*
%TO.P,U2,11,2B*%
%TO.N,M1_B-*%
X177165000Y-100330000D03*
%TO.P,U2,12,2A*%
%TO.N,M1_B+*%
X179705000Y-100330000D03*
%TO.P,U2,13,1A*%
%TO.N,M1_A+*%
X182245000Y-100330000D03*
%TO.P,U2,14,1B*%
%TO.N,M1_A-*%
X184785000Y-100330000D03*
%TO.P,U2,15,VDD*%
%TO.N,V_5V*%
X187325000Y-100330000D03*
%TO.P,U2,16,GND*%
%TO.N,GND*%
X189865000Y-100330000D03*
%TD*%
D19*
%TO.P,D1,1,K*%
%TO.N,MUX_INPUT_1*%
X224790000Y-106045000D03*
D20*
%TO.P,D1,2,A*%
%TO.N,V_5V*%
X224790000Y-103505000D03*
%TD*%
D21*
%TO.P,J6,1,Pin_1*%
%TO.N,M2_B-*%
X188195600Y-64135000D03*
D18*
%TO.P,J6,2,Pin_2*%
%TO.N,M2_B+*%
X185695600Y-64135000D03*
%TO.P,J6,3,Pin_3*%
%TO.N,M2_A+*%
X183195600Y-64135000D03*
%TO.P,J6,4,Pin_4*%
%TO.N,M2_A-*%
X180695600Y-64135000D03*
%TD*%
D17*
%TO.P,J4,1,Pin_1*%
%TO.N,V_5V*%
X194771000Y-64135000D03*
D18*
%TO.P,J4,2,Pin_2*%
%TO.N,I2C1_SCL*%
X197271000Y-64135000D03*
%TO.P,J4,3,Pin_3*%
%TO.N,I2C1_SDA*%
X199771000Y-64135000D03*
%TO.P,J4,4,Pin_4*%
%TO.N,XSDN2*%
X202271000Y-64135000D03*
%TO.P,J4,5,Pin_5*%
%TO.N,GND*%
X204771000Y-64135000D03*
%TD*%
D22*
%TO.P,J5,1,Pin_1*%
%TO.N,M1_B-*%
X177225000Y-107696000D03*
D18*
%TO.P,J5,2,Pin_2*%
%TO.N,M1_B+*%
X179725000Y-107696000D03*
%TO.P,J5,3,Pin_3*%
%TO.N,M1_A+*%
X182225000Y-107696000D03*
%TO.P,J5,4,Pin_4*%
%TO.N,M1_A-*%
X184725000Y-107696000D03*
%TD*%
D13*
%TO.P,U4,1,D1/TX*%
%TO.N,STEP2*%
X234655000Y-81280000D03*
D14*
%TO.P,U4,2,D0/RX*%
%TO.N,STEP1*%
X232115000Y-81280000D03*
%TO.P,U4,3,RST*%
%TO.N,unconnected-(U4-RST-Pad3)*%
X229575000Y-81280000D03*
%TO.P,U4,4,GND*%
%TO.N,GND*%
X227035000Y-81280000D03*
%TO.P,U4,5,D2*%
%TO.N,XSDN1*%
X224495000Y-81280000D03*
%TO.P,U4,6,D3*%
%TO.N,XSDN2*%
X221955000Y-81280000D03*
%TO.P,U4,7,D4*%
%TO.N,I2C1_SDA*%
X219415000Y-81280000D03*
%TO.P,U4,8,D5*%
%TO.N,I2C1_SCL*%
X216875000Y-81280000D03*
%TO.P,U4,9,D6*%
%TO.N,unconnected-(U4-D6-Pad9)*%
X214335000Y-81280000D03*
%TO.P,U4,10,D7*%
%TO.N,unconnected-(U4-D7-Pad10)*%
X211795000Y-81280000D03*
%TO.P,U4,11,D8*%
%TO.N,unconnected-(U4-D8-Pad11)*%
X209255000Y-81280000D03*
%TO.P,U4,12,D9*%
%TO.N,DIR1*%
X206715000Y-81280000D03*
%TO.P,U4,13,D10*%
%TO.N,DIR2*%
X204175000Y-81280000D03*
%TO.P,U4,14,D11*%
%TO.N,unconnected-(U4-D11-Pad14)*%
X201635000Y-81280000D03*
%TO.P,U4,15,D12*%
%TO.N,unconnected-(U4-D12-Pad15)*%
X199095000Y-81280000D03*
%TO.P,U4,16,D13*%
%TO.N,unconnected-(U4-D13-Pad16)*%
X199095000Y-96520000D03*
%TO.P,U4,17,3V3*%
%TO.N,V_3.3V*%
X201635000Y-96520000D03*
%TO.P,U4,18,REF*%
%TO.N,unconnected-(U4-REF-Pad18)*%
X204175000Y-96520000D03*
%TO.P,U4,19,A0*%
%TO.N,unconnected-(U4-A0-Pad19)*%
X206715000Y-96520000D03*
%TO.P,U4,20,A1*%
%TO.N,unconnected-(U4-A1-Pad20)*%
X209255000Y-96520000D03*
%TO.P,U4,21,A2*%
%TO.N,UART2_RX*%
X211795000Y-96520000D03*
%TO.P,U4,22,A3*%
%TO.N,BINARY_1*%
X214335000Y-96520000D03*
%TO.P,U4,23,A4*%
%TO.N,BINARY_2*%
X216875000Y-96520000D03*
%TO.P,U4,24,A5*%
%TO.N,BINARY_3*%
X219415000Y-96520000D03*
%TO.P,U4,25,A6*%
%TO.N,SELECT_EQUIPE*%
X221955000Y-96520000D03*
%TO.P,U4,26,A7*%
%TO.N,UART2_TX*%
X224495000Y-96520000D03*
%TO.P,U4,27,5V*%
%TO.N,unconnected-(U4-5V-Pad27)*%
X227035000Y-96520000D03*
%TO.P,U4,28,RST*%
%TO.N,unconnected-(U4-RST-Pad28)*%
X229575000Y-96520000D03*
%TO.P,U4,29,GND*%
%TO.N,GND*%
X232115000Y-96520000D03*
D13*
%TO.P,U4,30,VIN*%
%TO.N,V_5V*%
X234655000Y-96520000D03*
%TD*%
D17*
%TO.P,J3,1,Pin_1*%
%TO.N,V_5V*%
X227136000Y-64118000D03*
D18*
%TO.P,J3,2,Pin_2*%
%TO.N,I2C1_SCL*%
X229636000Y-64118000D03*
%TO.P,J3,3,Pin_3*%
%TO.N,I2C1_SDA*%
X232136000Y-64118000D03*
%TO.P,J3,4,Pin_4*%
%TO.N,GND*%
X234636000Y-64118000D03*
%TD*%
D23*
%TO.N,V_5V*%
X217043000Y-109220000D03*
%TO.N,GND*%
X195834000Y-101346000D03*
%TO.N,Net-(R2-Pad1)*%
X199390000Y-101346000D03*
%TD*%
D24*
%TO.N,I2C1_SDA*%
X201071000Y-62835000D02*
X199771000Y-64135000D01*
X214647000Y-62835000D02*
X201071000Y-62835000D01*
X230836000Y-62818000D02*
X232136000Y-64118000D01*
X215947000Y-64135000D02*
X214647000Y-62835000D01*
X215947000Y-64135000D02*
X217264000Y-62818000D01*
X217264000Y-62818000D02*
X230836000Y-62818000D01*
D25*
%TO.N,STEP2*%
X187325000Y-83185000D02*
X188415000Y-84275000D01*
X231660000Y-84275000D02*
X234655000Y-81280000D01*
X188415000Y-84275000D02*
X231660000Y-84275000D01*
D24*
%TO.N,XSDN1*%
X218447000Y-64135000D02*
X218447000Y-75232000D01*
X218447000Y-75232000D02*
X224495000Y-81280000D01*
%TO.N,XSDN2*%
X219923000Y-79248000D02*
X221955000Y-81280000D01*
X217384000Y-79248000D02*
X219923000Y-79248000D01*
X202271000Y-64135000D02*
X217384000Y-79248000D01*
D26*
%TO.N,Net-(R2-Pad1)*%
X210312000Y-101219000D02*
X202692000Y-101219000D01*
%TD*%
%TA.AperFunction,Conductor*%
%TO.N,GND*%
G36*
X209534500Y-63477113D02*
G01*
X209579887Y-63522500D01*
X209596500Y-63584500D01*
X209596500Y-64910008D01*
X209607000Y-65012796D01*
X209662186Y-65179334D01*
X209754288Y-65328657D01*
X209878342Y-65452711D01*
X209899018Y-65465464D01*
X210027666Y-65544814D01*
X210128005Y-65578063D01*
X210194202Y-65599999D01*
X210204702Y-65601071D01*
X210296991Y-65610500D01*
X211597008Y-65610499D01*
X211699797Y-65599999D01*
X211866334Y-65544814D01*
X212015656Y-65452712D01*
X212139712Y-65328656D01*
X212231814Y-65179334D01*
X212231814Y-65179331D01*
X212235178Y-65173879D01*
X212274091Y-65134395D01*
X212326321Y-65115814D01*
X212381428Y-65121849D01*
X212428398Y-65151294D01*
X212575599Y-65298495D01*
X212769170Y-65434035D01*
X212983337Y-65533903D01*
X213211592Y-65595063D01*
X213447000Y-65615659D01*
X213682408Y-65595063D01*
X213910663Y-65533903D01*
X214124829Y-65434035D01*
X214318401Y-65298495D01*
X214485495Y-65131401D01*
X214595426Y-64974401D01*
X214639743Y-64935537D01*
X214697000Y-64921526D01*
X214754257Y-64935537D01*
X214798573Y-64974401D01*
X214908505Y-65131401D01*
X215075599Y-65298495D01*
X215269170Y-65434035D01*
X215483337Y-65533903D01*
X215711592Y-65595063D01*
X215947000Y-65615659D01*
X216182408Y-65595063D01*
X216410663Y-65533903D01*
X216624829Y-65434035D01*
X216818401Y-65298495D01*
X216985495Y-65131401D01*
X217095426Y-64974401D01*
X217139743Y-64935537D01*
X217197000Y-64921526D01*
X217254257Y-64935537D01*
X217298573Y-64974401D01*
X217408505Y-65131401D01*
X217575599Y-65298495D01*
X217768625Y-65433653D01*
X217807489Y-65477970D01*
X217821500Y-65535227D01*
X217821500Y-75149256D01*
X217819235Y-75169762D01*
X217821439Y-75239873D01*
X217821500Y-75243768D01*
X217821500Y-75271349D01*
X217822003Y-75275334D01*
X217822918Y-75286967D01*
X217824290Y-75330626D01*
X217829879Y-75349860D01*
X217833825Y-75368916D01*
X217836335Y-75388792D01*
X217852414Y-75429404D01*
X217856197Y-75440451D01*
X217868382Y-75482391D01*
X217878580Y-75499635D01*
X217887136Y-75517100D01*
X217894514Y-75535732D01*
X217894515Y-75535733D01*
X217920180Y-75571059D01*
X217926593Y-75580822D01*
X217948826Y-75618416D01*
X217948829Y-75618419D01*
X217948830Y-75618420D01*
X217962995Y-75632585D01*
X217975627Y-75647375D01*
X217987406Y-75663587D01*
X218021058Y-75691426D01*
X218029699Y-75699289D01*
X222136093Y-79805683D01*
X222166994Y-79857110D01*
X222170134Y-79917024D01*
X222144778Y-79971399D01*
X222096863Y-80007506D01*
X222037605Y-80016892D01*
X221955000Y-80009665D01*
X221734410Y-80028964D01*
X221688529Y-80041258D01*
X221624342Y-80041258D01*
X221568755Y-80009164D01*
X220423802Y-78864211D01*
X220410906Y-78848113D01*
X220359775Y-78800098D01*
X220356978Y-78797387D01*
X220337470Y-78777879D01*
X220334290Y-78775412D01*
X220325424Y-78767839D01*
X220293582Y-78737938D01*
X220276024Y-78728285D01*
X220259764Y-78717604D01*
X220243936Y-78705327D01*
X220203851Y-78687980D01*
X220193361Y-78682841D01*
X220155091Y-78661802D01*
X220135691Y-78656821D01*
X220117284Y-78650519D01*
X220098897Y-78642562D01*
X220055758Y-78635729D01*
X220044324Y-78633361D01*
X220002019Y-78622500D01*
X219981984Y-78622500D01*
X219962586Y-78620973D01*
X219955162Y-78619797D01*
X219942805Y-78617840D01*
X219942804Y-78617840D01*
X219909751Y-78620964D01*
X219899325Y-78621950D01*
X219887656Y-78622500D01*
X217694452Y-78622500D01*
X217646999Y-78613061D01*
X217606771Y-78586181D01*
X204834662Y-65814071D01*
X204801282Y-65753228D01*
X204805821Y-65683979D01*
X204846857Y-65628014D01*
X204911536Y-65602862D01*
X205006318Y-65594569D01*
X205234492Y-65533430D01*
X205448578Y-65433599D01*
X205642078Y-65298109D01*
X205809109Y-65131078D01*
X205944599Y-64937578D01*
X206044430Y-64723492D01*
X206105569Y-64495318D01*
X206115221Y-64385000D01*
X204645000Y-64385000D01*
X204583000Y-64368387D01*
X204537613Y-64323000D01*
X204521000Y-64261000D01*
X204521000Y-64009000D01*
X204537613Y-63947000D01*
X204583000Y-63901613D01*
X204645000Y-63885000D01*
X206115222Y-63885000D01*
X206115221Y-63884999D01*
X206105569Y-63774681D01*
X206063210Y-63616594D01*
X206061368Y-63560309D01*
X206084609Y-63509014D01*
X206128141Y-63473288D01*
X206182985Y-63460500D01*
X209472500Y-63460500D01*
X209534500Y-63477113D01*
G37*
%TD.AperFunction*%
%TA.AperFunction,Conductor*%
G36*
X246622500Y-60977113D02*
G01*
X246667887Y-61022500D01*
X246684500Y-61084500D01*
X246684500Y-110823200D01*
X246667887Y-110885200D01*
X246622500Y-110930587D01*
X246560500Y-110947200D01*
X146834400Y-110947200D01*
X146772400Y-110930587D01*
X146727013Y-110885200D01*
X146710400Y-110823200D01*
X146710400Y-109648869D01*
X201429500Y-109648869D01*
X201435909Y-109708483D01*
X201486204Y-109843331D01*
X201572454Y-109958546D01*
X201687669Y-110044796D01*
X201822517Y-110095091D01*
X201882127Y-110101500D01*
X203501872Y-110101499D01*
X203561483Y-110095091D01*
X203696331Y-110044796D01*
X203811546Y-109958546D01*
X203862733Y-109890168D01*
X203906495Y-109853595D01*
X203962000Y-109840479D01*
X204017505Y-109853595D01*
X204061267Y-109890169D01*
X204112452Y-109958544D01*
X204112453Y-109958544D01*
X204112454Y-109958546D01*
X204227669Y-110044796D01*
X204362517Y-110095091D01*
X204422127Y-110101500D01*
X206041872Y-110101499D01*
X206101483Y-110095091D01*
X206236331Y-110044796D01*
X206351546Y-109958546D01*
X206402733Y-109890168D01*
X206446495Y-109853595D01*
X206502000Y-109840479D01*
X206557505Y-109853595D01*
X206601267Y-109890169D01*
X206652452Y-109958544D01*
X206652453Y-109958544D01*
X206652454Y-109958546D01*
X206767669Y-110044796D01*
X206902517Y-110095091D01*
X206962127Y-110101500D01*
X208581872Y-110101499D01*
X208641483Y-110095091D01*
X208776331Y-110044796D01*
X208891546Y-109958546D01*
X208942733Y-109890168D01*
X208986495Y-109853595D01*
X209042000Y-109840479D01*
X209097505Y-109853595D01*
X209141267Y-109890169D01*
X209192452Y-109958544D01*
X209192453Y-109958544D01*
X209192454Y-109958546D01*
X209307669Y-110044796D01*
X209442517Y-110095091D01*
X209502127Y-110101500D01*
X211121872Y-110101499D01*
X211181483Y-110095091D01*
X211316331Y-110044796D01*
X211431546Y-109958546D01*
X211517796Y-109843331D01*
X211568091Y-109708483D01*
X211574500Y-109648873D01*
X211574500Y-109219999D01*
X216137540Y-109219999D01*
X216157326Y-109408257D01*
X216215820Y-109588284D01*
X216310466Y-109752216D01*
X216437129Y-109892889D01*
X216590269Y-110004151D01*
X216763197Y-110081144D01*
X216948352Y-110120500D01*
X216948354Y-110120500D01*
X217137646Y-110120500D01*
X217137648Y-110120500D01*
X217261084Y-110094262D01*
X217322803Y-110081144D01*
X217495730Y-110004151D01*
X217648871Y-109892888D01*
X217775533Y-109752216D01*
X217870179Y-109588284D01*
X217928674Y-109408256D01*
X217948460Y-109220000D01*
X217928674Y-109031744D01*
X217872707Y-108859495D01*
X217870179Y-108851715D01*
X217775533Y-108687783D01*
X217648870Y-108547110D01*
X217495730Y-108435848D01*
X217322802Y-108358855D01*
X217137648Y-108319500D01*
X217137646Y-108319500D01*
X216948354Y-108319500D01*
X216948352Y-108319500D01*
X216763197Y-108358855D01*
X216590269Y-108435848D01*
X216437129Y-108547110D01*
X216310466Y-108687783D01*
X216215820Y-108851715D01*
X216157326Y-109031742D01*
X216137540Y-109219999D01*
X211574500Y-109219999D01*
X211574499Y-108029128D01*
X211568091Y-107969517D01*
X211517796Y-107834669D01*
X211431546Y-107719454D01*
X211316331Y-107633204D01*
X211181483Y-107582909D01*
X211121873Y-107576500D01*
X211121869Y-107576500D01*
X209502130Y-107576500D01*
X209442515Y-107582909D01*
X209307669Y-107633204D01*
X209192453Y-107719454D01*
X209141267Y-107787831D01*
X209097504Y-107824404D01*
X209042000Y-107837520D01*
X208986496Y-107824404D01*
X208942733Y-107787831D01*
X208891546Y-107719454D01*
X208776331Y-107633204D01*
X208641483Y-107582909D01*
X208629010Y-107581568D01*
X208581873Y-107576500D01*
X208581869Y-107576500D01*
X206962130Y-107576500D01*
X206902515Y-107582909D01*
X206767669Y-107633204D01*
X206652453Y-107719454D01*
X206601267Y-107787831D01*
X206557504Y-107824404D01*
X206502000Y-107837520D01*
X206446496Y-107824404D01*
X206402733Y-107787831D01*
X206351546Y-107719454D01*
X206236331Y-107633204D01*
X206101483Y-107582909D01*
X206089010Y-107581568D01*
X206041873Y-107576500D01*
X206041869Y-107576500D01*
X204422130Y-107576500D01*
X204362515Y-107582909D01*
X204227669Y-107633204D01*
X204112453Y-107719454D01*
X204061267Y-107787831D01*
X204017504Y-107824404D01*
X203962000Y-107837520D01*
X203906496Y-107824404D01*
X203862733Y-107787831D01*
X203811546Y-107719454D01*
X203696331Y-107633204D01*
X203561483Y-107582909D01*
X203549010Y-107581568D01*
X203501873Y-107576500D01*
X203501869Y-107576500D01*
X201882130Y-107576500D01*
X201822515Y-107582909D01*
X201687669Y-107633204D01*
X201572454Y-107719454D01*
X201486204Y-107834668D01*
X201435909Y-107969515D01*
X201435909Y-107969517D01*
X201429752Y-108026788D01*
X201429500Y-108029130D01*
X201429500Y-109648869D01*
X146710400Y-109648869D01*
X146710400Y-108310778D01*
X175874500Y-108310778D01*
X175876479Y-108335922D01*
X175880859Y-108391577D01*
X175931211Y-108579495D01*
X175986387Y-108687783D01*
X176019535Y-108752840D01*
X176141968Y-108904032D01*
X176293160Y-109026465D01*
X176466504Y-109114788D01*
X176654422Y-109165141D01*
X176735222Y-109171500D01*
X177714775Y-109171500D01*
X177714778Y-109171500D01*
X177795578Y-109165141D01*
X177983496Y-109114788D01*
X178156840Y-109026465D01*
X178308032Y-108904032D01*
X178430465Y-108752840D01*
X178462440Y-108690084D01*
X178504484Y-108642977D01*
X178564275Y-108622681D01*
X178626308Y-108634458D01*
X178674499Y-108675255D01*
X178686505Y-108692401D01*
X178853599Y-108859495D01*
X179047170Y-108995035D01*
X179261337Y-109094903D01*
X179489592Y-109156063D01*
X179725000Y-109176659D01*
X179960408Y-109156063D01*
X180188663Y-109094903D01*
X180402829Y-108995035D01*
X180596401Y-108859495D01*
X180763495Y-108692401D01*
X180873426Y-108535401D01*
X180917743Y-108496537D01*
X180975000Y-108482526D01*
X181032257Y-108496537D01*
X181076573Y-108535401D01*
X181186505Y-108692401D01*
X181353599Y-108859495D01*
X181547170Y-108995035D01*
X181761337Y-109094903D01*
X181989592Y-109156063D01*
X182225000Y-109176659D01*
X182460408Y-109156063D01*
X182688663Y-109094903D01*
X182902829Y-108995035D01*
X183096401Y-108859495D01*
X183263495Y-108692401D01*
X183373426Y-108535401D01*
X183417743Y-108496537D01*
X183475000Y-108482526D01*
X183532257Y-108496537D01*
X183576573Y-108535401D01*
X183686505Y-108692401D01*
X183853599Y-108859495D01*
X184047170Y-108995035D01*
X184261337Y-109094903D01*
X184489592Y-109156063D01*
X184725000Y-109176659D01*
X184960408Y-109156063D01*
X185188663Y-109094903D01*
X185402829Y-108995035D01*
X185596401Y-108859495D01*
X185763495Y-108692401D01*
X185899035Y-108498829D01*
X185998903Y-108284663D01*
X186060063Y-108056408D01*
X186072703Y-107911931D01*
X186075500Y-107879968D01*
X186075500Y-107512032D01*
X186060063Y-107335592D01*
X186046991Y-107286805D01*
X185998903Y-107107337D01*
X185899035Y-106893171D01*
X185763495Y-106699599D01*
X185596401Y-106532505D01*
X185402830Y-106396965D01*
X185188663Y-106297097D01*
X185114447Y-106277211D01*
X184960407Y-106235936D01*
X184725000Y-106215340D01*
X184489592Y-106235936D01*
X184261336Y-106297097D01*
X184047170Y-106396965D01*
X183853598Y-106532505D01*
X183686505Y-106699598D01*
X183576575Y-106856596D01*
X183532257Y-106895462D01*
X183475000Y-106909473D01*
X183417743Y-106895462D01*
X183373425Y-106856596D01*
X183342552Y-106812504D01*
X183263495Y-106699599D01*
X183096401Y-106532505D01*
X182902830Y-106396965D01*
X182688663Y-106297097D01*
X182614447Y-106277211D01*
X182460407Y-106235936D01*
X182225000Y-106215340D01*
X181989592Y-106235936D01*
X181761336Y-106297097D01*
X181547170Y-106396965D01*
X181353598Y-106532505D01*
X181186505Y-106699598D01*
X181076575Y-106856596D01*
X181032257Y-106895462D01*
X180975000Y-106909473D01*
X180917743Y-106895462D01*
X180873425Y-106856596D01*
X180842552Y-106812504D01*
X180763495Y-106699599D01*
X180596401Y-106532505D01*
X180402830Y-106396965D01*
X180188663Y-106297097D01*
X180114447Y-106277211D01*
X179960407Y-106235936D01*
X179725000Y-106215340D01*
X179489592Y-106235936D01*
X179261336Y-106297097D01*
X179047170Y-106396965D01*
X178853598Y-106532505D01*
X178686505Y-106699598D01*
X178674498Y-106716746D01*
X178626306Y-106757541D01*
X178564274Y-106769318D01*
X178504484Y-106749022D01*
X178462440Y-106701915D01*
X178461260Y-106699599D01*
X178430465Y-106639160D01*
X178308032Y-106487968D01*
X178156840Y-106365535D01*
X178022523Y-106297097D01*
X177983495Y-106277211D01*
X177829453Y-106235936D01*
X177795578Y-106226859D01*
X177714778Y-106220500D01*
X176735222Y-106220500D01*
X176654421Y-106226859D01*
X176654422Y-106226859D01*
X176466504Y-106277211D01*
X176293159Y-106365535D01*
X176141968Y-106487968D01*
X176019535Y-106639159D01*
X175931211Y-106812504D01*
X175882883Y-106992869D01*
X175880859Y-107000422D01*
X175874500Y-107081222D01*
X175874500Y-108310778D01*
X146710400Y-108310778D01*
X146710400Y-107157600D01*
X146978000Y-107157600D01*
X146978000Y-107717424D01*
X146984402Y-107776975D01*
X147034647Y-107911689D01*
X147120811Y-108026788D01*
X147235910Y-108112952D01*
X147370624Y-108163197D01*
X147430176Y-108169600D01*
X147990000Y-108169600D01*
X147990000Y-107157600D01*
X148490000Y-107157600D01*
X148490000Y-108169600D01*
X149049824Y-108169600D01*
X149109375Y-108163197D01*
X149244089Y-108112952D01*
X149359188Y-108026788D01*
X149445352Y-107911689D01*
X149495597Y-107776975D01*
X149501995Y-107717469D01*
X166377500Y-107717469D01*
X166383909Y-107777084D01*
X166409056Y-107844506D01*
X166434204Y-107911931D01*
X166520454Y-108027146D01*
X166635669Y-108113396D01*
X166770517Y-108163691D01*
X166830127Y-108170100D01*
X168449872Y-108170099D01*
X168509483Y-108163691D01*
X168644331Y-108113396D01*
X168759546Y-108027146D01*
X168845796Y-107911931D01*
X168896091Y-107777083D01*
X168902500Y-107717473D01*
X168902499Y-106131182D01*
X193249500Y-106131182D01*
X193288604Y-106390615D01*
X193365937Y-106641323D01*
X193479772Y-106877704D01*
X193558293Y-106992873D01*
X193627571Y-107094485D01*
X193806015Y-107286801D01*
X193806019Y-107286805D01*
X194011143Y-107450386D01*
X194238357Y-107581568D01*
X194482584Y-107677420D01*
X194738370Y-107735802D01*
X194794408Y-107740001D01*
X194934501Y-107750500D01*
X194934506Y-107750500D01*
X195065494Y-107750500D01*
X195065499Y-107750500D01*
X195188078Y-107741313D01*
X195261630Y-107735802D01*
X195517416Y-107677420D01*
X195761643Y-107581568D01*
X195988857Y-107450386D01*
X196193981Y-107286805D01*
X196293273Y-107179792D01*
X196372428Y-107094485D01*
X196372429Y-107094482D01*
X196372433Y-107094479D01*
X196520228Y-106877704D01*
X196634063Y-106641323D01*
X196711396Y-106390615D01*
X196750500Y-106131182D01*
X196750500Y-105868818D01*
X196711396Y-105609385D01*
X196634063Y-105358677D01*
X196520228Y-105122296D01*
X196372433Y-104905521D01*
X196372432Y-104905520D01*
X196372428Y-104905514D01*
X196193984Y-104713198D01*
X196193983Y-104713197D01*
X196193981Y-104713195D01*
X195988857Y-104549614D01*
X195988856Y-104549613D01*
X195761641Y-104418431D01*
X195517418Y-104322580D01*
X195261627Y-104264197D01*
X195065499Y-104249500D01*
X195065494Y-104249500D01*
X194934506Y-104249500D01*
X194934501Y-104249500D01*
X194738372Y-104264197D01*
X194482581Y-104322580D01*
X194238358Y-104418431D01*
X194011143Y-104549613D01*
X193806015Y-104713198D01*
X193627571Y-104905514D01*
X193537575Y-105037515D01*
X193479772Y-105122296D01*
X193365937Y-105358677D01*
X193288604Y-105609385D01*
X193249500Y-105868818D01*
X193249500Y-106131182D01*
X168902499Y-106131182D01*
X168902499Y-106097728D01*
X168896091Y-106038117D01*
X168845796Y-105903269D01*
X168759546Y-105788054D01*
X168644331Y-105701804D01*
X168509483Y-105651509D01*
X168449873Y-105645100D01*
X168449869Y-105645100D01*
X166830130Y-105645100D01*
X166770515Y-105651509D01*
X166635669Y-105701804D01*
X166520454Y-105788054D01*
X166434204Y-105903268D01*
X166383909Y-106038116D01*
X166377500Y-106097730D01*
X166377500Y-107717469D01*
X149501995Y-107717469D01*
X149502000Y-107717424D01*
X149502000Y-107157600D01*
X148490000Y-107157600D01*
X147990000Y-107157600D01*
X146978000Y-107157600D01*
X146710400Y-107157600D01*
X146710400Y-106657600D01*
X146978000Y-106657600D01*
X147990000Y-106657600D01*
X147990000Y-105645600D01*
X148490000Y-105645600D01*
X148490000Y-106657600D01*
X149502000Y-106657600D01*
X149502000Y-106097776D01*
X149495597Y-106038224D01*
X149445352Y-105903510D01*
X149359188Y-105788411D01*
X149244089Y-105702247D01*
X149109375Y-105652002D01*
X149049824Y-105645600D01*
X148490000Y-105645600D01*
X147990000Y-105645600D01*
X147430176Y-105645600D01*
X147370624Y-105652002D01*
X147235910Y-105702247D01*
X147120811Y-105788411D01*
X147034647Y-105903510D01*
X146984402Y-106038224D01*
X146978000Y-106097776D01*
X146978000Y-106657600D01*
X146710400Y-106657600D01*
X146710400Y-103505000D01*
X223384699Y-103505000D01*
X223403865Y-103736299D01*
X223403865Y-103736301D01*
X223403866Y-103736305D01*
X223460843Y-103961300D01*
X223554076Y-104173849D01*
X223681021Y-104368153D01*
X223775803Y-104471114D01*
X223804575Y-104523865D01*
X223805168Y-104583951D01*
X223777441Y-104637261D01*
X223727906Y-104671276D01*
X223647671Y-104701202D01*
X223532454Y-104787454D01*
X223446204Y-104902668D01*
X223395909Y-105037516D01*
X223389500Y-105097130D01*
X223389500Y-106992869D01*
X223395909Y-107052483D01*
X223446204Y-107187331D01*
X223532454Y-107302546D01*
X223647669Y-107388796D01*
X223782517Y-107439091D01*
X223842127Y-107445500D01*
X225737872Y-107445499D01*
X225797483Y-107439091D01*
X225932331Y-107388796D01*
X226047546Y-107302546D01*
X226133796Y-107187331D01*
X226184091Y-107052483D01*
X226190500Y-106992873D01*
X226190499Y-105097128D01*
X226184091Y-105037517D01*
X226133796Y-104902669D01*
X226047546Y-104787454D01*
X225932331Y-104701204D01*
X225879357Y-104681446D01*
X225852093Y-104671277D01*
X225802558Y-104637261D01*
X225774831Y-104583951D01*
X225775424Y-104523864D01*
X225804196Y-104471114D01*
X225898979Y-104368153D01*
X226025924Y-104173849D01*
X226119157Y-103961300D01*
X226176134Y-103736305D01*
X226195300Y-103505000D01*
X231639699Y-103505000D01*
X231658865Y-103736299D01*
X231658865Y-103736301D01*
X231658866Y-103736305D01*
X231715843Y-103961300D01*
X231809076Y-104173849D01*
X231936021Y-104368153D01*
X232030803Y-104471114D01*
X232059575Y-104523865D01*
X232060168Y-104583951D01*
X232032441Y-104637261D01*
X231982906Y-104671276D01*
X231902671Y-104701202D01*
X231787454Y-104787454D01*
X231701204Y-104902668D01*
X231650909Y-105037516D01*
X231644500Y-105097130D01*
X231644500Y-106992869D01*
X231650909Y-107052483D01*
X231701204Y-107187331D01*
X231787454Y-107302546D01*
X231902669Y-107388796D01*
X232037517Y-107439091D01*
X232097127Y-107445500D01*
X233992872Y-107445499D01*
X234052483Y-107439091D01*
X234187331Y-107388796D01*
X234302546Y-107302546D01*
X234388796Y-107187331D01*
X234439091Y-107052483D01*
X234445500Y-106992873D01*
X234445499Y-105097128D01*
X234439091Y-105037517D01*
X234388796Y-104902669D01*
X234302546Y-104787454D01*
X234187331Y-104701204D01*
X234134357Y-104681446D01*
X234107093Y-104671277D01*
X234057558Y-104637261D01*
X234029831Y-104583951D01*
X234030424Y-104523864D01*
X234059196Y-104471114D01*
X234153979Y-104368153D01*
X234280924Y-104173849D01*
X234374157Y-103961300D01*
X234431134Y-103736305D01*
X234450300Y-103505000D01*
X234431134Y-103273695D01*
X234374157Y-103048700D01*
X234280924Y-102836151D01*
X234153979Y-102641847D01*
X233996784Y-102471087D01*
X233813626Y-102328530D01*
X233609503Y-102218064D01*
X233609499Y-102218062D01*
X233609498Y-102218062D01*
X233389984Y-102142702D01*
X233218282Y-102114050D01*
X233161049Y-102104500D01*
X232928951Y-102104500D01*
X232883164Y-102112140D01*
X232700015Y-102142702D01*
X232480501Y-102218062D01*
X232480497Y-102218063D01*
X232480497Y-102218064D01*
X232427952Y-102246500D01*
X232276372Y-102328531D01*
X232093215Y-102471087D01*
X231936020Y-102641848D01*
X231809076Y-102836150D01*
X231715844Y-103048696D01*
X231658865Y-103273700D01*
X231639699Y-103505000D01*
X226195300Y-103505000D01*
X226176134Y-103273695D01*
X226119157Y-103048700D01*
X226025924Y-102836151D01*
X225898979Y-102641847D01*
X225741784Y-102471087D01*
X225558626Y-102328530D01*
X225354503Y-102218064D01*
X225354499Y-102218062D01*
X225354498Y-102218062D01*
X225134984Y-102142702D01*
X224963282Y-102114050D01*
X224906049Y-102104500D01*
X224673951Y-102104500D01*
X224628164Y-102112140D01*
X224445015Y-102142702D01*
X224225501Y-102218062D01*
X224225497Y-102218063D01*
X224225497Y-102218064D01*
X224172952Y-102246500D01*
X224021372Y-102328531D01*
X223838215Y-102471087D01*
X223681020Y-102641848D01*
X223554076Y-102836150D01*
X223460844Y-103048696D01*
X223403865Y-103273700D01*
X223384699Y-103505000D01*
X146710400Y-103505000D01*
X146710400Y-100329999D01*
X170814665Y-100329999D01*
X170833964Y-100550588D01*
X170891278Y-100764483D01*
X170984855Y-100965162D01*
X170984856Y-100965163D01*
X170984858Y-100965167D01*
X171111868Y-101146555D01*
X171268445Y-101303132D01*
X171449833Y-101430142D01*
X171650520Y-101523723D01*
X171864409Y-101581035D01*
X172085000Y-101600334D01*
X172305591Y-101581035D01*
X172519480Y-101523723D01*
X172720167Y-101430142D01*
X172786216Y-101383894D01*
X173924656Y-101383894D01*
X173924657Y-101383895D01*
X173990082Y-101429706D01*
X174190690Y-101523251D01*
X174404498Y-101580540D01*
X174625000Y-101599832D01*
X174845501Y-101580540D01*
X175059309Y-101523251D01*
X175259913Y-101429707D01*
X175325342Y-101383894D01*
X174625001Y-100683553D01*
X174625000Y-100683553D01*
X173924656Y-101383894D01*
X172786216Y-101383894D01*
X172901555Y-101303132D01*
X173058132Y-101146555D01*
X173185142Y-100965167D01*
X173242895Y-100841312D01*
X173288649Y-100789141D01*
X173355274Y-100769721D01*
X173421900Y-100789140D01*
X173467657Y-100841316D01*
X173525292Y-100964916D01*
X173571103Y-101030341D01*
X173571105Y-101030342D01*
X174271447Y-100330001D01*
X174271447Y-100330000D01*
X174978553Y-100330000D01*
X175678894Y-101030342D01*
X175724709Y-100964912D01*
X175782342Y-100841317D01*
X175828099Y-100789141D01*
X175894724Y-100769721D01*
X175961349Y-100789141D01*
X176007106Y-100841317D01*
X176064855Y-100965162D01*
X176064856Y-100965163D01*
X176064858Y-100965167D01*
X176191868Y-101146555D01*
X176348445Y-101303132D01*
X176529833Y-101430142D01*
X176730520Y-101523723D01*
X176944409Y-101581035D01*
X177165000Y-101600334D01*
X177385591Y-101581035D01*
X177599480Y-101523723D01*
X177800167Y-101430142D01*
X177981555Y-101303132D01*
X178138132Y-101146555D01*
X178265142Y-100965167D01*
X178322618Y-100841907D01*
X178368375Y-100789732D01*
X178435000Y-100770312D01*
X178501625Y-100789732D01*
X178547382Y-100841908D01*
X178604739Y-100964913D01*
X178604858Y-100965167D01*
X178731868Y-101146555D01*
X178888445Y-101303132D01*
X179069833Y-101430142D01*
X179270520Y-101523723D01*
X179484409Y-101581035D01*
X179705000Y-101600334D01*
X179925591Y-101581035D01*
X180139480Y-101523723D01*
X180340167Y-101430142D01*
X180521555Y-101303132D01*
X180678132Y-101146555D01*
X180805142Y-100965167D01*
X180862618Y-100841907D01*
X180908375Y-100789732D01*
X180975000Y-100770312D01*
X181041625Y-100789732D01*
X181087382Y-100841908D01*
X181144739Y-100964913D01*
X181144858Y-100965167D01*
X181271868Y-101146555D01*
X181428445Y-101303132D01*
X181609833Y-101430142D01*
X181810520Y-101523723D01*
X182024409Y-101581035D01*
X182245000Y-101600334D01*
X182465591Y-101581035D01*
X182679480Y-101523723D01*
X182880167Y-101430142D01*
X183061555Y-101303132D01*
X183218132Y-101146555D01*
X183345142Y-100965167D01*
X183402618Y-100841907D01*
X183448375Y-100789732D01*
X183515000Y-100770312D01*
X183581625Y-100789732D01*
X183627382Y-100841908D01*
X183684739Y-100964913D01*
X183684858Y-100965167D01*
X183811868Y-101146555D01*
X183968445Y-101303132D01*
X184149833Y-101430142D01*
X184350520Y-101523723D01*
X184564409Y-101581035D01*
X184785000Y-101600334D01*
X185005591Y-101581035D01*
X185219480Y-101523723D01*
X185420167Y-101430142D01*
X185601555Y-101303132D01*
X185758132Y-101146555D01*
X185885142Y-100965167D01*
X185942618Y-100841907D01*
X185988375Y-100789732D01*
X186055000Y-100770312D01*
X186121625Y-100789732D01*
X186167382Y-100841908D01*
X186224739Y-100964913D01*
X186224858Y-100965167D01*
X186351868Y-101146555D01*
X186508445Y-101303132D01*
X186689833Y-101430142D01*
X186890520Y-101523723D01*
X187104409Y-101581035D01*
X187325000Y-101600334D01*
X187545591Y-101581035D01*
X187759480Y-101523723D01*
X187960167Y-101430142D01*
X188026216Y-101383894D01*
X189164656Y-101383894D01*
X189164657Y-101383895D01*
X189230082Y-101429706D01*
X189430690Y-101523251D01*
X189644498Y-101580540D01*
X189865000Y-101599832D01*
X190085501Y-101580540D01*
X190299309Y-101523251D01*
X190499913Y-101429707D01*
X190565342Y-101383894D01*
X190527447Y-101345999D01*
X198484540Y-101345999D01*
X198504326Y-101534257D01*
X198562820Y-101714284D01*
X198657466Y-101878216D01*
X198784129Y-102018889D01*
X198937269Y-102130151D01*
X199110197Y-102207144D01*
X199295352Y-102246500D01*
X199295354Y-102246500D01*
X199484646Y-102246500D01*
X199484648Y-102246500D01*
X199618437Y-102218062D01*
X199669803Y-102207144D01*
X199842730Y-102130151D01*
X199982129Y-102028872D01*
X199982133Y-102028869D01*
X201429500Y-102028869D01*
X201435909Y-102088483D01*
X201486204Y-102223331D01*
X201572454Y-102338546D01*
X201687669Y-102424796D01*
X201822517Y-102475091D01*
X201882127Y-102481500D01*
X203501872Y-102481499D01*
X203561483Y-102475091D01*
X203696331Y-102424796D01*
X203811546Y-102338546D01*
X203862733Y-102270168D01*
X203906495Y-102233595D01*
X203962000Y-102220479D01*
X204017505Y-102233595D01*
X204061267Y-102270169D01*
X204112452Y-102338544D01*
X204112453Y-102338544D01*
X204112454Y-102338546D01*
X204227669Y-102424796D01*
X204362517Y-102475091D01*
X204422127Y-102481500D01*
X206041872Y-102481499D01*
X206101483Y-102475091D01*
X206236331Y-102424796D01*
X206351546Y-102338546D01*
X206402733Y-102270168D01*
X206446495Y-102233595D01*
X206502000Y-102220479D01*
X206557505Y-102233595D01*
X206601267Y-102270169D01*
X206652452Y-102338544D01*
X206652453Y-102338544D01*
X206652454Y-102338546D01*
X206767669Y-102424796D01*
X206902517Y-102475091D01*
X206962127Y-102481500D01*
X208581872Y-102481499D01*
X208641483Y-102475091D01*
X208776331Y-102424796D01*
X208891546Y-102338546D01*
X208942733Y-102270168D01*
X208986495Y-102233595D01*
X209042000Y-102220479D01*
X209097505Y-102233595D01*
X209141267Y-102270169D01*
X209192452Y-102338544D01*
X209192453Y-102338544D01*
X209192454Y-102338546D01*
X209307669Y-102424796D01*
X209442517Y-102475091D01*
X209502127Y-102481500D01*
X211121872Y-102481499D01*
X211181483Y-102475091D01*
X211316331Y-102424796D01*
X211431546Y-102338546D01*
X211517796Y-102223331D01*
X211568091Y-102088483D01*
X211574500Y-102028873D01*
X211574499Y-100409128D01*
X211568091Y-100349517D01*
X211517796Y-100214669D01*
X211431546Y-100099454D01*
X211316331Y-100013204D01*
X211181483Y-99962909D01*
X211121873Y-99956500D01*
X211121869Y-99956500D01*
X209502130Y-99956500D01*
X209442515Y-99962909D01*
X209307669Y-100013204D01*
X209192453Y-100099454D01*
X209141267Y-100167831D01*
X209097504Y-100204404D01*
X209042000Y-100217520D01*
X208986496Y-100204404D01*
X208942733Y-100167831D01*
X208891546Y-100099454D01*
X208776331Y-100013204D01*
X208641483Y-99962909D01*
X208581873Y-99956500D01*
X208581869Y-99956500D01*
X206962130Y-99956500D01*
X206902515Y-99962909D01*
X206767669Y-100013204D01*
X206652453Y-100099454D01*
X206601267Y-100167831D01*
X206557504Y-100204404D01*
X206502000Y-100217520D01*
X206446496Y-100204404D01*
X206402733Y-100167831D01*
X206351546Y-100099454D01*
X206236331Y-100013204D01*
X206101483Y-99962909D01*
X206041873Y-99956500D01*
X206041869Y-99956500D01*
X204422130Y-99956500D01*
X204362515Y-99962909D01*
X204227669Y-100013204D01*
X204112453Y-100099454D01*
X204061267Y-100167831D01*
X204017504Y-100204404D01*
X203962000Y-100217520D01*
X203906496Y-100204404D01*
X203862733Y-100167831D01*
X203811546Y-100099454D01*
X203696331Y-100013204D01*
X203561483Y-99962909D01*
X203501873Y-99956500D01*
X203501869Y-99956500D01*
X201882130Y-99956500D01*
X201822515Y-99962909D01*
X201687669Y-100013204D01*
X201572454Y-100099454D01*
X201486204Y-100214668D01*
X201435909Y-100349516D01*
X201429500Y-100409130D01*
X201429500Y-102028869D01*
X199982133Y-102028869D01*
X199995870Y-102018889D01*
X200122533Y-101878216D01*
X200217179Y-101714284D01*
X200217179Y-101714283D01*
X200275674Y-101534256D01*
X200295460Y-101346000D01*
X200275674Y-101157744D01*
X200217179Y-100977716D01*
X200217179Y-100977715D01*
X200122533Y-100813783D01*
X199995870Y-100673110D01*
X199842730Y-100561848D01*
X199669802Y-100484855D01*
X199484648Y-100445500D01*
X199484646Y-100445500D01*
X199295354Y-100445500D01*
X199295352Y-100445500D01*
X199110197Y-100484855D01*
X198937269Y-100561848D01*
X198784129Y-100673110D01*
X198657466Y-100813783D01*
X198562820Y-100977715D01*
X198504326Y-101157742D01*
X198484540Y-101345999D01*
X190527447Y-101345999D01*
X189865001Y-100683553D01*
X189865000Y-100683553D01*
X189164656Y-101383894D01*
X188026216Y-101383894D01*
X188141555Y-101303132D01*
X188298132Y-101146555D01*
X188425142Y-100965167D01*
X188482895Y-100841312D01*
X188528649Y-100789141D01*
X188595274Y-100769721D01*
X188661900Y-100789140D01*
X188707657Y-100841316D01*
X188765292Y-100964916D01*
X188811103Y-101030341D01*
X188811105Y-101030342D01*
X189511447Y-100330001D01*
X189511447Y-100330000D01*
X190218553Y-100330000D01*
X190918894Y-101030342D01*
X190964707Y-100964913D01*
X191058251Y-100764309D01*
X191115540Y-100550501D01*
X191134832Y-100330000D01*
X191115540Y-100109498D01*
X191058251Y-99895690D01*
X190964706Y-99695082D01*
X190918895Y-99629657D01*
X190918894Y-99629656D01*
X190218553Y-100330000D01*
X189511447Y-100330000D01*
X188811103Y-99629656D01*
X188765292Y-99695084D01*
X188707657Y-99818683D01*
X188661900Y-99870859D01*
X188595274Y-99890278D01*
X188528649Y-99870858D01*
X188482893Y-99818682D01*
X188425142Y-99694833D01*
X188298132Y-99513445D01*
X188141555Y-99356868D01*
X188026211Y-99276103D01*
X189164656Y-99276103D01*
X189865000Y-99976447D01*
X189865001Y-99976447D01*
X190565342Y-99276105D01*
X190565341Y-99276103D01*
X190499914Y-99230291D01*
X190299311Y-99136749D01*
X190085501Y-99079459D01*
X189865000Y-99060167D01*
X189644498Y-99079459D01*
X189430688Y-99136749D01*
X189230086Y-99230291D01*
X189164656Y-99276103D01*
X188026211Y-99276103D01*
X187960167Y-99229858D01*
X187960164Y-99229857D01*
X187960162Y-99229855D01*
X187759483Y-99136278D01*
X187759480Y-99136277D01*
X187547435Y-99079459D01*
X187545588Y-99078964D01*
X187325000Y-99059665D01*
X187104411Y-99078964D01*
X186890516Y-99136278D01*
X186689837Y-99229855D01*
X186508441Y-99356871D01*
X186351871Y-99513441D01*
X186224855Y-99694837D01*
X186167382Y-99818091D01*
X186121625Y-99870267D01*
X186055000Y-99889687D01*
X185988375Y-99870267D01*
X185942618Y-99818091D01*
X185885144Y-99694837D01*
X185885143Y-99694835D01*
X185885142Y-99694833D01*
X185758132Y-99513445D01*
X185601555Y-99356868D01*
X185420167Y-99229858D01*
X185420164Y-99229857D01*
X185420162Y-99229855D01*
X185219483Y-99136278D01*
X185219480Y-99136277D01*
X185007435Y-99079459D01*
X185005588Y-99078964D01*
X184785000Y-99059665D01*
X184564411Y-99078964D01*
X184350516Y-99136278D01*
X184149837Y-99229855D01*
X183968441Y-99356871D01*
X183811871Y-99513441D01*
X183684855Y-99694837D01*
X183627382Y-99818091D01*
X183581625Y-99870267D01*
X183515000Y-99889687D01*
X183448375Y-99870267D01*
X183402618Y-99818091D01*
X183345144Y-99694837D01*
X183345143Y-99694835D01*
X183345142Y-99694833D01*
X183218132Y-99513445D01*
X183061555Y-99356868D01*
X182880167Y-99229858D01*
X182880164Y-99229857D01*
X182880162Y-99229855D01*
X182679483Y-99136278D01*
X182679480Y-99136277D01*
X182467435Y-99079459D01*
X182465588Y-99078964D01*
X182245000Y-99059665D01*
X182024411Y-99078964D01*
X181810516Y-99136278D01*
X181609837Y-99229855D01*
X181428441Y-99356871D01*
X181271871Y-99513441D01*
X181144855Y-99694837D01*
X181087382Y-99818091D01*
X181041625Y-99870267D01*
X180975000Y-99889687D01*
X180908375Y-99870267D01*
X180862618Y-99818091D01*
X180805144Y-99694837D01*
X180805143Y-99694835D01*
X180805142Y-99694833D01*
X180678132Y-99513445D01*
X180521555Y-99356868D01*
X180340167Y-99229858D01*
X180340164Y-99229857D01*
X180340162Y-99229855D01*
X180139483Y-99136278D01*
X180139480Y-99136277D01*
X179927435Y-99079459D01*
X179925588Y-99078964D01*
X179705000Y-99059665D01*
X179484411Y-99078964D01*
X179270516Y-99136278D01*
X179069837Y-99229855D01*
X178888441Y-99356871D01*
X178731871Y-99513441D01*
X178604855Y-99694837D01*
X178547382Y-99818091D01*
X178501625Y-99870267D01*
X178435000Y-99889687D01*
X178368375Y-99870267D01*
X178322618Y-99818091D01*
X178265144Y-99694837D01*
X178265143Y-99694835D01*
X178265142Y-99694833D01*
X178138132Y-99513445D01*
X177981555Y-99356868D01*
X177800167Y-99229858D01*
X177800164Y-99229857D01*
X177800162Y-99229855D01*
X177599483Y-99136278D01*
X177599480Y-99136277D01*
X177387435Y-99079459D01*
X177385588Y-99078964D01*
X177165000Y-99059665D01*
X176944411Y-99078964D01*
X176730516Y-99136278D01*
X176529837Y-99229855D01*
X176348441Y-99356871D01*
X176191871Y-99513441D01*
X176064857Y-99694835D01*
X176007106Y-99818683D01*
X175961349Y-99870859D01*
X175894724Y-99890278D01*
X175828099Y-99870859D01*
X175782342Y-99818683D01*
X175724706Y-99695082D01*
X175678895Y-99629657D01*
X175678894Y-99629656D01*
X174978553Y-100330000D01*
X174271447Y-100330000D01*
X173571103Y-99629656D01*
X173525292Y-99695084D01*
X173467657Y-99818683D01*
X173421900Y-99870859D01*
X173355274Y-99890278D01*
X173288649Y-99870858D01*
X173242893Y-99818682D01*
X173185142Y-99694833D01*
X173058132Y-99513445D01*
X172901555Y-99356868D01*
X172786211Y-99276103D01*
X173924656Y-99276103D01*
X174625000Y-99976447D01*
X174625001Y-99976447D01*
X175325342Y-99276105D01*
X175325341Y-99276103D01*
X175259914Y-99230291D01*
X175059311Y-99136749D01*
X174845501Y-99079459D01*
X174625000Y-99060167D01*
X174404498Y-99079459D01*
X174190688Y-99136749D01*
X173990086Y-99230291D01*
X173924656Y-99276103D01*
X172786211Y-99276103D01*
X172720167Y-99229858D01*
X172720164Y-99229857D01*
X172720162Y-99229855D01*
X172519483Y-99136278D01*
X172519480Y-99136277D01*
X172307435Y-99079459D01*
X172305588Y-99078964D01*
X172085000Y-99059665D01*
X171864411Y-99078964D01*
X171650516Y-99136278D01*
X171449837Y-99229855D01*
X171268441Y-99356871D01*
X171111871Y-99513441D01*
X170984855Y-99694837D01*
X170891278Y-99895516D01*
X170833964Y-100109411D01*
X170814665Y-100329999D01*
X146710400Y-100329999D01*
X146710400Y-96520000D01*
X197824665Y-96520000D01*
X197843964Y-96740588D01*
X197901278Y-96954483D01*
X197994855Y-97155162D01*
X197994856Y-97155163D01*
X197994858Y-97155167D01*
X198121868Y-97336555D01*
X198278445Y-97493132D01*
X198459833Y-97620142D01*
X198660520Y-97713723D01*
X198874409Y-97771035D01*
X199095000Y-97790334D01*
X199315591Y-97771035D01*
X199529480Y-97713723D01*
X199730167Y-97620142D01*
X199911555Y-97493132D01*
X200068132Y-97336555D01*
X200195142Y-97155167D01*
X200252618Y-97031907D01*
X200298375Y-96979732D01*
X200365000Y-96960312D01*
X200431625Y-96979732D01*
X200477381Y-97031907D01*
X200534858Y-97155167D01*
X200661868Y-97336555D01*
X200818445Y-97493132D01*
X200999833Y-97620142D01*
X201200520Y-97713723D01*
X201414409Y-97771035D01*
X201635000Y-97790334D01*
X201855591Y-97771035D01*
X202069480Y-97713723D01*
X202270167Y-97620142D01*
X202451555Y-97493132D01*
X202608132Y-97336555D01*
X202735142Y-97155167D01*
X202792618Y-97031907D01*
X202838375Y-96979732D01*
X202905000Y-96960312D01*
X202971625Y-96979732D01*
X203017381Y-97031907D01*
X203074858Y-97155167D01*
X203201868Y-97336555D01*
X203358445Y-97493132D01*
X203539833Y-97620142D01*
X203740520Y-97713723D01*
X203954409Y-97771035D01*
X204175000Y-97790334D01*
X204395591Y-97771035D01*
X204609480Y-97713723D01*
X204810167Y-97620142D01*
X204991555Y-97493132D01*
X205148132Y-97336555D01*
X205275142Y-97155167D01*
X205332618Y-97031907D01*
X205378375Y-96979732D01*
X205445000Y-96960312D01*
X205511625Y-96979732D01*
X205557381Y-97031907D01*
X205614858Y-97155167D01*
X205741868Y-97336555D01*
X205898445Y-97493132D01*
X206079833Y-97620142D01*
X206280520Y-97713723D01*
X206494409Y-97771035D01*
X206715000Y-97790334D01*
X206935591Y-97771035D01*
X207149480Y-97713723D01*
X207350167Y-97620142D01*
X207531555Y-97493132D01*
X207688132Y-97336555D01*
X207815142Y-97155167D01*
X207872618Y-97031907D01*
X207918375Y-96979732D01*
X207985000Y-96960312D01*
X208051625Y-96979732D01*
X208097381Y-97031907D01*
X208154858Y-97155167D01*
X208281868Y-97336555D01*
X208438445Y-97493132D01*
X208619833Y-97620142D01*
X208820520Y-97713723D01*
X209034409Y-97771035D01*
X209255000Y-97790334D01*
X209475591Y-97771035D01*
X209689480Y-97713723D01*
X209890167Y-97620142D01*
X210071555Y-97493132D01*
X210228132Y-97336555D01*
X210355142Y-97155167D01*
X210412618Y-97031907D01*
X210458375Y-96979732D01*
X210525000Y-96960312D01*
X210591625Y-96979732D01*
X210637381Y-97031907D01*
X210694858Y-97155167D01*
X210821868Y-97336555D01*
X210978445Y-97493132D01*
X211159833Y-97620142D01*
X211360520Y-97713723D01*
X211574409Y-97771035D01*
X211795000Y-97790334D01*
X212015591Y-97771035D01*
X212229480Y-97713723D01*
X212430167Y-97620142D01*
X212611555Y-97493132D01*
X212768132Y-97336555D01*
X212895142Y-97155167D01*
X212952618Y-97031907D01*
X212998375Y-96979732D01*
X213065000Y-96960312D01*
X213131625Y-96979732D01*
X213177381Y-97031907D01*
X213234858Y-97155167D01*
X213361868Y-97336555D01*
X213518445Y-97493132D01*
X213699833Y-97620142D01*
X213900520Y-97713723D01*
X214114409Y-97771035D01*
X214335000Y-97790334D01*
X214555591Y-97771035D01*
X214769480Y-97713723D01*
X214970167Y-97620142D01*
X215151555Y-97493132D01*
X215308132Y-97336555D01*
X215435142Y-97155167D01*
X215492618Y-97031907D01*
X215538375Y-96979732D01*
X215605000Y-96960312D01*
X215671625Y-96979732D01*
X215717381Y-97031907D01*
X215774858Y-97155167D01*
X215901868Y-97336555D01*
X216058445Y-97493132D01*
X216239833Y-97620142D01*
X216440520Y-97713723D01*
X216654409Y-97771035D01*
X216875000Y-97790334D01*
X217095591Y-97771035D01*
X217309480Y-97713723D01*
X217510167Y-97620142D01*
X217691555Y-97493132D01*
X217848132Y-97336555D01*
X217975142Y-97155167D01*
X218032618Y-97031907D01*
X218078375Y-96979732D01*
X218145000Y-96960312D01*
X218211625Y-96979732D01*
X218257381Y-97031907D01*
X218314858Y-97155167D01*
X218441868Y-97336555D01*
X218598445Y-97493132D01*
X218779833Y-97620142D01*
X218980520Y-97713723D01*
X219194409Y-97771035D01*
X219415000Y-97790334D01*
X219635591Y-97771035D01*
X219849480Y-97713723D01*
X220050167Y-97620142D01*
X220231555Y-97493132D01*
X220388132Y-97336555D01*
X220515142Y-97155167D01*
X220572618Y-97031907D01*
X220618375Y-96979732D01*
X220685000Y-96960312D01*
X220751625Y-96979732D01*
X220797381Y-97031907D01*
X220854858Y-97155167D01*
X220981868Y-97336555D01*
X221138445Y-97493132D01*
X221319833Y-97620142D01*
X221520520Y-97713723D01*
X221734409Y-97771035D01*
X221955000Y-97790334D01*
X222175591Y-97771035D01*
X222389480Y-97713723D01*
X222590167Y-97620142D01*
X222771555Y-97493132D01*
X222928132Y-97336555D01*
X223055142Y-97155167D01*
X223112618Y-97031907D01*
X223158375Y-96979732D01*
X223225000Y-96960312D01*
X223291625Y-96979732D01*
X223337381Y-97031907D01*
X223394858Y-97155167D01*
X223521868Y-97336555D01*
X223678445Y-97493132D01*
X223859833Y-97620142D01*
X224060520Y-97713723D01*
X224274409Y-97771035D01*
X224495000Y-97790334D01*
X224715591Y-97771035D01*
X224929480Y-97713723D01*
X225130167Y-97620142D01*
X225311555Y-97493132D01*
X225468132Y-97336555D01*
X225595142Y-97155167D01*
X225652618Y-97031907D01*
X225698375Y-96979732D01*
X225765000Y-96960312D01*
X225831625Y-96979732D01*
X225877381Y-97031907D01*
X225934858Y-97155167D01*
X226061868Y-97336555D01*
X226218445Y-97493132D01*
X226399833Y-97620142D01*
X226600520Y-97713723D01*
X226814409Y-97771035D01*
X227035000Y-97790334D01*
X227255591Y-97771035D01*
X227469480Y-97713723D01*
X227670167Y-97620142D01*
X227851555Y-97493132D01*
X228008132Y-97336555D01*
X228135142Y-97155167D01*
X228192618Y-97031907D01*
X228238375Y-96979732D01*
X228305000Y-96960312D01*
X228371625Y-96979732D01*
X228417381Y-97031907D01*
X228474858Y-97155167D01*
X228601868Y-97336555D01*
X228758445Y-97493132D01*
X228939833Y-97620142D01*
X229140520Y-97713723D01*
X229354409Y-97771035D01*
X229575000Y-97790334D01*
X229795591Y-97771035D01*
X230009480Y-97713723D01*
X230210167Y-97620142D01*
X230276216Y-97573894D01*
X231414656Y-97573894D01*
X231414657Y-97573895D01*
X231480082Y-97619706D01*
X231680690Y-97713251D01*
X231894498Y-97770540D01*
X232115000Y-97789832D01*
X232335501Y-97770540D01*
X232549309Y-97713251D01*
X232749913Y-97619707D01*
X232815342Y-97573894D01*
X232115001Y-96873553D01*
X232115000Y-96873553D01*
X231414656Y-97573894D01*
X230276216Y-97573894D01*
X230391555Y-97493132D01*
X230548132Y-97336555D01*
X230675142Y-97155167D01*
X230732895Y-97031312D01*
X230778649Y-96979141D01*
X230845274Y-96959721D01*
X230911900Y-96979140D01*
X230957657Y-97031316D01*
X231015292Y-97154916D01*
X231061103Y-97220341D01*
X231061105Y-97220342D01*
X231761447Y-96520001D01*
X231761447Y-96520000D01*
X232468553Y-96520000D01*
X233168894Y-97220342D01*
X233172614Y-97220017D01*
X233211139Y-97187112D01*
X233271987Y-97174731D01*
X233331207Y-97193401D01*
X233373951Y-97238442D01*
X233389500Y-97298558D01*
X233389500Y-97332868D01*
X233389897Y-97336558D01*
X233395909Y-97392483D01*
X233446204Y-97527331D01*
X233532454Y-97642546D01*
X233647669Y-97728796D01*
X233782517Y-97779091D01*
X233842127Y-97785500D01*
X235467872Y-97785499D01*
X235527483Y-97779091D01*
X235662331Y-97728796D01*
X235777546Y-97642546D01*
X235863796Y-97527331D01*
X235914091Y-97392483D01*
X235920500Y-97332873D01*
X235920499Y-95707128D01*
X235914091Y-95647517D01*
X235863796Y-95512669D01*
X235777546Y-95397454D01*
X235662331Y-95311204D01*
X235527483Y-95260909D01*
X235467873Y-95254500D01*
X235467869Y-95254500D01*
X233842130Y-95254500D01*
X233782515Y-95260909D01*
X233647669Y-95311204D01*
X233532454Y-95397454D01*
X233446204Y-95512668D01*
X233395909Y-95647515D01*
X233395909Y-95647517D01*
X233389897Y-95703441D01*
X233389500Y-95707131D01*
X233389500Y-95741436D01*
X233373953Y-95801552D01*
X233331210Y-95846594D01*
X233271989Y-95865266D01*
X233211142Y-95852886D01*
X233172617Y-95819982D01*
X233168894Y-95819656D01*
X232468553Y-96520000D01*
X231761447Y-96520000D01*
X231061103Y-95819656D01*
X231015292Y-95885084D01*
X230957657Y-96008683D01*
X230911900Y-96060859D01*
X230845274Y-96080278D01*
X230778649Y-96060858D01*
X230732893Y-96008682D01*
X230675142Y-95884833D01*
X230548132Y-95703445D01*
X230391555Y-95546868D01*
X230276211Y-95466103D01*
X231414656Y-95466103D01*
X232115000Y-96166447D01*
X232115001Y-96166447D01*
X232815342Y-95466105D01*
X232815341Y-95466103D01*
X232749914Y-95420291D01*
X232549311Y-95326749D01*
X232335501Y-95269459D01*
X232115000Y-95250167D01*
X231894498Y-95269459D01*
X231680688Y-95326749D01*
X231480086Y-95420291D01*
X231414656Y-95466103D01*
X230276211Y-95466103D01*
X230210167Y-95419858D01*
X230210164Y-95419857D01*
X230210162Y-95419855D01*
X230009483Y-95326278D01*
X230009480Y-95326277D01*
X229797435Y-95269459D01*
X229795588Y-95268964D01*
X229575000Y-95249665D01*
X229354411Y-95268964D01*
X229140516Y-95326278D01*
X228939837Y-95419855D01*
X228873789Y-95466103D01*
X228807288Y-95512668D01*
X228758441Y-95546871D01*
X228601871Y-95703441D01*
X228474855Y-95884837D01*
X228417382Y-96008091D01*
X228371625Y-96060267D01*
X228305000Y-96079687D01*
X228238375Y-96060267D01*
X228192618Y-96008091D01*
X228135144Y-95884837D01*
X228135143Y-95884836D01*
X228135142Y-95884833D01*
X228008132Y-95703445D01*
X227851555Y-95546868D01*
X227670167Y-95419858D01*
X227670164Y-95419857D01*
X227670162Y-95419855D01*
X227469483Y-95326278D01*
X227469480Y-95326277D01*
X227257435Y-95269459D01*
X227255588Y-95268964D01*
X227035000Y-95249665D01*
X226814411Y-95268964D01*
X226600516Y-95326278D01*
X226399837Y-95419855D01*
X226333789Y-95466103D01*
X226267288Y-95512668D01*
X226218441Y-95546871D01*
X226061871Y-95703441D01*
X225934855Y-95884837D01*
X225877382Y-96008091D01*
X225831625Y-96060267D01*
X225765000Y-96079687D01*
X225698375Y-96060267D01*
X225652618Y-96008091D01*
X225595144Y-95884837D01*
X225595143Y-95884836D01*
X225595142Y-95884833D01*
X225468132Y-95703445D01*
X225311555Y-95546868D01*
X225130167Y-95419858D01*
X225130164Y-95419857D01*
X225130162Y-95419855D01*
X224929483Y-95326278D01*
X224929480Y-95326277D01*
X224717435Y-95269459D01*
X224715588Y-95268964D01*
X224495000Y-95249665D01*
X224274411Y-95268964D01*
X224060516Y-95326278D01*
X223859837Y-95419855D01*
X223793789Y-95466103D01*
X223727288Y-95512668D01*
X223678441Y-95546871D01*
X223521871Y-95703441D01*
X223394855Y-95884837D01*
X223337382Y-96008091D01*
X223291625Y-96060267D01*
X223225000Y-96079687D01*
X223158375Y-96060267D01*
X223112618Y-96008091D01*
X223055144Y-95884837D01*
X223055143Y-95884836D01*
X223055142Y-95884833D01*
X222928132Y-95703445D01*
X222771555Y-95546868D01*
X222590167Y-95419858D01*
X222590164Y-95419857D01*
X222590162Y-95419855D01*
X222389483Y-95326278D01*
X222389480Y-95326277D01*
X222177435Y-95269459D01*
X222175588Y-95268964D01*
X221955000Y-95249665D01*
X221734411Y-95268964D01*
X221520516Y-95326278D01*
X221319837Y-95419855D01*
X221253789Y-95466103D01*
X221187288Y-95512668D01*
X221138441Y-95546871D01*
X220981871Y-95703441D01*
X220854855Y-95884837D01*
X220797382Y-96008091D01*
X220751625Y-96060267D01*
X220685000Y-96079687D01*
X220618375Y-96060267D01*
X220572618Y-96008091D01*
X220515144Y-95884837D01*
X220515143Y-95884836D01*
X220515142Y-95884833D01*
X220388132Y-95703445D01*
X220231555Y-95546868D01*
X220050167Y-95419858D01*
X220050164Y-95419857D01*
X220050162Y-95419855D01*
X219849483Y-95326278D01*
X219849480Y-95326277D01*
X219637435Y-95269459D01*
X219635588Y-95268964D01*
X219415000Y-95249665D01*
X219194411Y-95268964D01*
X218980516Y-95326278D01*
X218779837Y-95419855D01*
X218713789Y-95466103D01*
X218647288Y-95512668D01*
X218598441Y-95546871D01*
X218441871Y-95703441D01*
X218314855Y-95884837D01*
X218257382Y-96008091D01*
X218211625Y-96060267D01*
X218145000Y-96079687D01*
X218078375Y-96060267D01*
X218032618Y-96008091D01*
X217975144Y-95884837D01*
X217975143Y-95884836D01*
X217975142Y-95884833D01*
X217848132Y-95703445D01*
X217691555Y-95546868D01*
X217510167Y-95419858D01*
X217510164Y-95419857D01*
X217510162Y-95419855D01*
X217309483Y-95326278D01*
X217309480Y-95326277D01*
X217097435Y-95269459D01*
X217095588Y-95268964D01*
X216875000Y-95249665D01*
X216654411Y-95268964D01*
X216440516Y-95326278D01*
X216239837Y-95419855D01*
X216173789Y-95466103D01*
X216107288Y-95512668D01*
X216058441Y-95546871D01*
X215901871Y-95703441D01*
X215774855Y-95884837D01*
X215717382Y-96008091D01*
X215671625Y-96060267D01*
X215605000Y-96079687D01*
X215538375Y-96060267D01*
X215492618Y-96008091D01*
X215435144Y-95884837D01*
X215435143Y-95884836D01*
X215435142Y-95884833D01*
X215308132Y-95703445D01*
X215151555Y-95546868D01*
X214970167Y-95419858D01*
X214970164Y-95419857D01*
X214970162Y-95419855D01*
X214769483Y-95326278D01*
X214769480Y-95326277D01*
X214557435Y-95269459D01*
X214555588Y-95268964D01*
X214335000Y-95249665D01*
X214114411Y-95268964D01*
X213900516Y-95326278D01*
X213699837Y-95419855D01*
X213633789Y-95466103D01*
X213567288Y-95512668D01*
X213518441Y-95546871D01*
X213361871Y-95703441D01*
X213234855Y-95884837D01*
X213177382Y-96008091D01*
X213131625Y-96060267D01*
X213065000Y-96079687D01*
X212998375Y-96060267D01*
X212952618Y-96008091D01*
X212895144Y-95884837D01*
X212895143Y-95884836D01*
X212895142Y-95884833D01*
X212768132Y-95703445D01*
X212611555Y-95546868D01*
X212430167Y-95419858D01*
X212430164Y-95419857D01*
X212430162Y-95419855D01*
X212229483Y-95326278D01*
X212229480Y-95326277D01*
X212017435Y-95269459D01*
X212015588Y-95268964D01*
X211795000Y-95249665D01*
X211574411Y-95268964D01*
X211360516Y-95326278D01*
X211159837Y-95419855D01*
X211093789Y-95466103D01*
X211027288Y-95512668D01*
X210978441Y-95546871D01*
X210821871Y-95703441D01*
X210694855Y-95884837D01*
X210637382Y-96008091D01*
X210591625Y-96060267D01*
X210525000Y-96079687D01*
X210458375Y-96060267D01*
X210412618Y-96008091D01*
X210355144Y-95884837D01*
X210355143Y-95884836D01*
X210355142Y-95884833D01*
X210228132Y-95703445D01*
X210071555Y-95546868D01*
X209890167Y-95419858D01*
X209890164Y-95419857D01*
X209890162Y-95419855D01*
X209689483Y-95326278D01*
X209689480Y-95326277D01*
X209477435Y-95269459D01*
X209475588Y-95268964D01*
X209255000Y-95249665D01*
X209034411Y-95268964D01*
X208820516Y-95326278D01*
X208619837Y-95419855D01*
X208553789Y-95466103D01*
X208487288Y-95512668D01*
X208438441Y-95546871D01*
X208281871Y-95703441D01*
X208154855Y-95884837D01*
X208097382Y-96008091D01*
X208051625Y-96060267D01*
X207985000Y-96079687D01*
X207918375Y-96060267D01*
X207872618Y-96008091D01*
X207815144Y-95884837D01*
X207815143Y-95884836D01*
X207815142Y-95884833D01*
X207688132Y-95703445D01*
X207531555Y-95546868D01*
X207350167Y-95419858D01*
X207350164Y-95419857D01*
X207350162Y-95419855D01*
X207149483Y-95326278D01*
X207149480Y-95326277D01*
X206937435Y-95269459D01*
X206935588Y-95268964D01*
X206715000Y-95249665D01*
X206494411Y-95268964D01*
X206280516Y-95326278D01*
X206079837Y-95419855D01*
X206013789Y-95466103D01*
X205947288Y-95512668D01*
X205898441Y-95546871D01*
X205741871Y-95703441D01*
X205614855Y-95884837D01*
X205557382Y-96008091D01*
X205511625Y-96060267D01*
X205445000Y-96079687D01*
X205378375Y-96060267D01*
X205332618Y-96008091D01*
X205275144Y-95884837D01*
X205275143Y-95884836D01*
X205275142Y-95884833D01*
X205148132Y-95703445D01*
X204991555Y-95546868D01*
X204810167Y-95419858D01*
X204810164Y-95419857D01*
X204810162Y-95419855D01*
X204609483Y-95326278D01*
X204609480Y-95326277D01*
X204397435Y-95269459D01*
X204395588Y-95268964D01*
X204175000Y-95249665D01*
X203954411Y-95268964D01*
X203740516Y-95326278D01*
X203539837Y-95419855D01*
X203473789Y-95466103D01*
X203407288Y-95512668D01*
X203358441Y-95546871D01*
X203201871Y-95703441D01*
X203074855Y-95884837D01*
X203017382Y-96008091D01*
X202971625Y-96060267D01*
X202905000Y-96079687D01*
X202838375Y-96060267D01*
X202792618Y-96008091D01*
X202735144Y-95884837D01*
X202735143Y-95884836D01*
X202735142Y-95884833D01*
X202608132Y-95703445D01*
X202451555Y-95546868D01*
X202270167Y-95419858D01*
X202270164Y-95419857D01*
X202270162Y-95419855D01*
X202069483Y-95326278D01*
X202069480Y-95326277D01*
X201857435Y-95269459D01*
X201855588Y-95268964D01*
X201635000Y-95249665D01*
X201414411Y-95268964D01*
X201200516Y-95326278D01*
X200999837Y-95419855D01*
X200933789Y-95466103D01*
X200867288Y-95512668D01*
X200818441Y-95546871D01*
X200661871Y-95703441D01*
X200534855Y-95884837D01*
X200477382Y-96008091D01*
X200431625Y-96060267D01*
X200365000Y-96079687D01*
X200298375Y-96060267D01*
X200252618Y-96008091D01*
X200195144Y-95884837D01*
X200195143Y-95884836D01*
X200195142Y-95884833D01*
X200068132Y-95703445D01*
X199911555Y-95546868D01*
X199730167Y-95419858D01*
X199730164Y-95419857D01*
X199730162Y-95419855D01*
X199529483Y-95326278D01*
X199529480Y-95326277D01*
X199317435Y-95269459D01*
X199315588Y-95268964D01*
X199095000Y-95249665D01*
X198874411Y-95268964D01*
X198660516Y-95326278D01*
X198459837Y-95419855D01*
X198393789Y-95466103D01*
X198327288Y-95512668D01*
X198278441Y-95546871D01*
X198121871Y-95703441D01*
X197994855Y-95884837D01*
X197901278Y-96085516D01*
X197843964Y-96299411D01*
X197824665Y-96520000D01*
X146710400Y-96520000D01*
X146710400Y-87629999D01*
X170814665Y-87629999D01*
X170833964Y-87850588D01*
X170891278Y-88064483D01*
X170984855Y-88265162D01*
X170984856Y-88265163D01*
X170984858Y-88265167D01*
X171111868Y-88446555D01*
X171268445Y-88603132D01*
X171449833Y-88730142D01*
X171650520Y-88823723D01*
X171864409Y-88881035D01*
X172085000Y-88900334D01*
X172305591Y-88881035D01*
X172519480Y-88823723D01*
X172720167Y-88730142D01*
X172901555Y-88603132D01*
X173058132Y-88446555D01*
X173185142Y-88265167D01*
X173242618Y-88141907D01*
X173288375Y-88089732D01*
X173355000Y-88070312D01*
X173421625Y-88089732D01*
X173467381Y-88141907D01*
X173524858Y-88265167D01*
X173651868Y-88446555D01*
X173808445Y-88603132D01*
X173989833Y-88730142D01*
X174190520Y-88823723D01*
X174404409Y-88881035D01*
X174625000Y-88900334D01*
X174845591Y-88881035D01*
X175059480Y-88823723D01*
X175260167Y-88730142D01*
X175441555Y-88603132D01*
X175598132Y-88446555D01*
X175725142Y-88265167D01*
X175782618Y-88141907D01*
X175828375Y-88089732D01*
X175895000Y-88070312D01*
X175961625Y-88089732D01*
X176007381Y-88141907D01*
X176064858Y-88265167D01*
X176191868Y-88446555D01*
X176348445Y-88603132D01*
X176529833Y-88730142D01*
X176730520Y-88823723D01*
X176944409Y-88881035D01*
X177165000Y-88900334D01*
X177385591Y-88881035D01*
X177599480Y-88823723D01*
X177800167Y-88730142D01*
X177981555Y-88603132D01*
X178138132Y-88446555D01*
X178265142Y-88265167D01*
X178322618Y-88141907D01*
X178368375Y-88089732D01*
X178435000Y-88070312D01*
X178501625Y-88089732D01*
X178547381Y-88141907D01*
X178604858Y-88265167D01*
X178731868Y-88446555D01*
X178888445Y-88603132D01*
X179069833Y-88730142D01*
X179270520Y-88823723D01*
X179484409Y-88881035D01*
X179705000Y-88900334D01*
X179925591Y-88881035D01*
X180139480Y-88823723D01*
X180340167Y-88730142D01*
X180521555Y-88603132D01*
X180678132Y-88446555D01*
X180805142Y-88265167D01*
X180862618Y-88141907D01*
X180908375Y-88089732D01*
X180975000Y-88070312D01*
X181041625Y-88089732D01*
X181087381Y-88141907D01*
X181144858Y-88265167D01*
X181271868Y-88446555D01*
X181428445Y-88603132D01*
X181609833Y-88730142D01*
X181810520Y-88823723D01*
X182024409Y-88881035D01*
X182245000Y-88900334D01*
X182465591Y-88881035D01*
X182679480Y-88823723D01*
X182880167Y-88730142D01*
X183061555Y-88603132D01*
X183218132Y-88446555D01*
X183345142Y-88265167D01*
X183402618Y-88141907D01*
X183448375Y-88089732D01*
X183515000Y-88070312D01*
X183581625Y-88089732D01*
X183627381Y-88141907D01*
X183684858Y-88265167D01*
X183811868Y-88446555D01*
X183968445Y-88603132D01*
X184149833Y-88730142D01*
X184350520Y-88823723D01*
X184564409Y-88881035D01*
X184785000Y-88900334D01*
X185005591Y-88881035D01*
X185219480Y-88823723D01*
X185420167Y-88730142D01*
X185601555Y-88603132D01*
X185758132Y-88446555D01*
X185885142Y-88265167D01*
X185942618Y-88141907D01*
X185988375Y-88089732D01*
X186055000Y-88070312D01*
X186121625Y-88089732D01*
X186167381Y-88141907D01*
X186224858Y-88265167D01*
X186351868Y-88446555D01*
X186508445Y-88603132D01*
X186689833Y-88730142D01*
X186890520Y-88823723D01*
X187104409Y-88881035D01*
X187325000Y-88900334D01*
X187545591Y-88881035D01*
X187759480Y-88823723D01*
X187960167Y-88730142D01*
X188141555Y-88603132D01*
X188298132Y-88446555D01*
X188373928Y-88338306D01*
X188421141Y-88297983D01*
X188481988Y-88285603D01*
X188541208Y-88304274D01*
X188583952Y-88349314D01*
X188599500Y-88409430D01*
X188599500Y-88442868D01*
X188599897Y-88446558D01*
X188605909Y-88502483D01*
X188656204Y-88637331D01*
X188742454Y-88752546D01*
X188857669Y-88838796D01*
X188992517Y-88889091D01*
X189052127Y-88895500D01*
X190677872Y-88895499D01*
X190737483Y-88889091D01*
X190872331Y-88838796D01*
X190987546Y-88752546D01*
X191073796Y-88637331D01*
X191124091Y-88502483D01*
X191130500Y-88442873D01*
X191130499Y-86817128D01*
X191124091Y-86757517D01*
X191073796Y-86622669D01*
X190987546Y-86507454D01*
X190872331Y-86421204D01*
X190737483Y-86370909D01*
X190677873Y-86364500D01*
X190677869Y-86364500D01*
X189052130Y-86364500D01*
X188992515Y-86370909D01*
X188857669Y-86421204D01*
X188742454Y-86507454D01*
X188656204Y-86622668D01*
X188605909Y-86757515D01*
X188605909Y-86757517D01*
X188599897Y-86813441D01*
X188599500Y-86817131D01*
X188599500Y-86850565D01*
X188583953Y-86910681D01*
X188541210Y-86955723D01*
X188481990Y-86974395D01*
X188421142Y-86962016D01*
X188373926Y-86921690D01*
X188298132Y-86813445D01*
X188141555Y-86656868D01*
X187960167Y-86529858D01*
X187960164Y-86529857D01*
X187960162Y-86529855D01*
X187759483Y-86436278D01*
X187759480Y-86436277D01*
X187652535Y-86407621D01*
X187545588Y-86378964D01*
X187325000Y-86359665D01*
X187104411Y-86378964D01*
X186890516Y-86436278D01*
X186689837Y-86529855D01*
X186689832Y-86529858D01*
X186689833Y-86529858D01*
X186557288Y-86622668D01*
X186508441Y-86656871D01*
X186351871Y-86813441D01*
X186224855Y-86994837D01*
X186167382Y-87118091D01*
X186121625Y-87170267D01*
X186055000Y-87189687D01*
X185988375Y-87170267D01*
X185942618Y-87118091D01*
X185885144Y-86994837D01*
X185885143Y-86994836D01*
X185885142Y-86994833D01*
X185758132Y-86813445D01*
X185601555Y-86656868D01*
X185420167Y-86529858D01*
X185420164Y-86529857D01*
X185420162Y-86529855D01*
X185219483Y-86436278D01*
X185219480Y-86436277D01*
X185112535Y-86407621D01*
X185005588Y-86378964D01*
X184785000Y-86359665D01*
X184564411Y-86378964D01*
X184350516Y-86436278D01*
X184149837Y-86529855D01*
X184149832Y-86529858D01*
X184149833Y-86529858D01*
X184017288Y-86622668D01*
X183968441Y-86656871D01*
X183811871Y-86813441D01*
X183684855Y-86994837D01*
X183627382Y-87118091D01*
X183581625Y-87170267D01*
X183515000Y-87189687D01*
X183448375Y-87170267D01*
X183402618Y-87118091D01*
X183345144Y-86994837D01*
X183345143Y-86994836D01*
X183345142Y-86994833D01*
X183218132Y-86813445D01*
X183061555Y-86656868D01*
X182880167Y-86529858D01*
X182880164Y-86529857D01*
X182880162Y-86529855D01*
X182679483Y-86436278D01*
X182679480Y-86436277D01*
X182572535Y-86407621D01*
X182465588Y-86378964D01*
X182245000Y-86359665D01*
X182024411Y-86378964D01*
X181810516Y-86436278D01*
X181609837Y-86529855D01*
X181609832Y-86529858D01*
X181609833Y-86529858D01*
X181477288Y-86622668D01*
X181428441Y-86656871D01*
X181271871Y-86813441D01*
X181144855Y-86994837D01*
X181087382Y-87118091D01*
X181041625Y-87170267D01*
X180975000Y-87189687D01*
X180908375Y-87170267D01*
X180862618Y-87118091D01*
X180805144Y-86994837D01*
X180805143Y-86994836D01*
X180805142Y-86994833D01*
X180678132Y-86813445D01*
X180521555Y-86656868D01*
X180340167Y-86529858D01*
X180340164Y-86529857D01*
X180340162Y-86529855D01*
X180139483Y-86436278D01*
X180139480Y-86436277D01*
X180032535Y-86407621D01*
X179925588Y-86378964D01*
X179705000Y-86359665D01*
X179484411Y-86378964D01*
X179270516Y-86436278D01*
X179069837Y-86529855D01*
X179069832Y-86529858D01*
X179069833Y-86529858D01*
X178937288Y-86622668D01*
X178888441Y-86656871D01*
X178731871Y-86813441D01*
X178604855Y-86994837D01*
X178547382Y-87118091D01*
X178501625Y-87170267D01*
X178435000Y-87189687D01*
X178368375Y-87170267D01*
X178322618Y-87118091D01*
X178265144Y-86994837D01*
X178265143Y-86994836D01*
X178265142Y-86994833D01*
X178138132Y-86813445D01*
X177981555Y-86656868D01*
X177800167Y-86529858D01*
X177800164Y-86529857D01*
X177800162Y-86529855D01*
X177599483Y-86436278D01*
X177599480Y-86436277D01*
X177492535Y-86407621D01*
X177385588Y-86378964D01*
X177165000Y-86359665D01*
X176944411Y-86378964D01*
X176730516Y-86436278D01*
X176529837Y-86529855D01*
X176529832Y-86529858D01*
X176529833Y-86529858D01*
X176397288Y-86622668D01*
X176348441Y-86656871D01*
X176191871Y-86813441D01*
X176064855Y-86994837D01*
X176007382Y-87118091D01*
X175961625Y-87170267D01*
X175895000Y-87189687D01*
X175828375Y-87170267D01*
X175782618Y-87118091D01*
X175725144Y-86994837D01*
X175725143Y-86994836D01*
X175725142Y-86994833D01*
X175598132Y-86813445D01*
X175441555Y-86656868D01*
X175260167Y-86529858D01*
X175260164Y-86529857D01*
X175260162Y-86529855D01*
X175059483Y-86436278D01*
X175059480Y-86436277D01*
X174952535Y-86407621D01*
X174845588Y-86378964D01*
X174625000Y-86359665D01*
X174404411Y-86378964D01*
X174190516Y-86436278D01*
X173989837Y-86529855D01*
X173989832Y-86529858D01*
X173989833Y-86529858D01*
X173857288Y-86622668D01*
X173808441Y-86656871D01*
X173651871Y-86813441D01*
X173524855Y-86994837D01*
X173467382Y-87118091D01*
X173421625Y-87170267D01*
X173355000Y-87189687D01*
X173288375Y-87170267D01*
X173242618Y-87118091D01*
X173185144Y-86994837D01*
X173185143Y-86994836D01*
X173185142Y-86994833D01*
X173058132Y-86813445D01*
X172901555Y-86656868D01*
X172720167Y-86529858D01*
X172720164Y-86529857D01*
X172720162Y-86529855D01*
X172519483Y-86436278D01*
X172519480Y-86436277D01*
X172412535Y-86407621D01*
X172305588Y-86378964D01*
X172085000Y-86359665D01*
X171864411Y-86378964D01*
X171650516Y-86436278D01*
X171449837Y-86529855D01*
X171449832Y-86529858D01*
X171449833Y-86529858D01*
X171317288Y-86622668D01*
X171268441Y-86656871D01*
X171111871Y-86813441D01*
X170984855Y-86994837D01*
X170891278Y-87195516D01*
X170833964Y-87409411D01*
X170814665Y-87629999D01*
X146710400Y-87629999D01*
X146710400Y-83997869D01*
X170819500Y-83997869D01*
X170819897Y-84001558D01*
X170825909Y-84057483D01*
X170876204Y-84192331D01*
X170962454Y-84307546D01*
X171077669Y-84393796D01*
X171212517Y-84444091D01*
X171272127Y-84450500D01*
X172897872Y-84450499D01*
X172957483Y-84444091D01*
X173092331Y-84393796D01*
X173207546Y-84307546D01*
X173293796Y-84192331D01*
X173344091Y-84057483D01*
X173350500Y-83997873D01*
X173350499Y-83964433D01*
X173366045Y-83904320D01*
X173408787Y-83859277D01*
X173468008Y-83840604D01*
X173528856Y-83852983D01*
X173576073Y-83893310D01*
X173649289Y-83997872D01*
X173651868Y-84001555D01*
X173808445Y-84158132D01*
X173989833Y-84285142D01*
X174190520Y-84378723D01*
X174404409Y-84436035D01*
X174496491Y-84444091D01*
X174624999Y-84455334D01*
X174624999Y-84455333D01*
X174625000Y-84455334D01*
X174845591Y-84436035D01*
X175059480Y-84378723D01*
X175260167Y-84285142D01*
X175441555Y-84158132D01*
X175598132Y-84001555D01*
X175725142Y-83820167D01*
X175782618Y-83696907D01*
X175828375Y-83644732D01*
X175895000Y-83625312D01*
X175961625Y-83644732D01*
X176007381Y-83696907D01*
X176064858Y-83820167D01*
X176191868Y-84001555D01*
X176348445Y-84158132D01*
X176529833Y-84285142D01*
X176730520Y-84378723D01*
X176944409Y-84436035D01*
X177036491Y-84444091D01*
X177164999Y-84455334D01*
X177164999Y-84455333D01*
X177165000Y-84455334D01*
X177385591Y-84436035D01*
X177599480Y-84378723D01*
X177800167Y-84285142D01*
X177981555Y-84158132D01*
X178138132Y-84001555D01*
X178265142Y-83820167D01*
X178322618Y-83696907D01*
X178368375Y-83644732D01*
X178435000Y-83625312D01*
X178501625Y-83644732D01*
X178547381Y-83696907D01*
X178604858Y-83820167D01*
X178731868Y-84001555D01*
X178888445Y-84158132D01*
X179069833Y-84285142D01*
X179270520Y-84378723D01*
X179484409Y-84436035D01*
X179576491Y-84444091D01*
X179704999Y-84455334D01*
X179704999Y-84455333D01*
X179705000Y-84455334D01*
X179925591Y-84436035D01*
X180139480Y-84378723D01*
X180340167Y-84285142D01*
X180521555Y-84158132D01*
X180678132Y-84001555D01*
X180805142Y-83820167D01*
X180862618Y-83696907D01*
X180908375Y-83644732D01*
X180975000Y-83625312D01*
X181041625Y-83644732D01*
X181087381Y-83696907D01*
X181144858Y-83820167D01*
X181271868Y-84001555D01*
X181428445Y-84158132D01*
X181609833Y-84285142D01*
X181810520Y-84378723D01*
X182024409Y-84436035D01*
X182116491Y-84444091D01*
X182244999Y-84455334D01*
X182244999Y-84455333D01*
X182245000Y-84455334D01*
X182465591Y-84436035D01*
X182679480Y-84378723D01*
X182880167Y-84285142D01*
X183061555Y-84158132D01*
X183218132Y-84001555D01*
X183345142Y-83820167D01*
X183402618Y-83696907D01*
X183448375Y-83644732D01*
X183515000Y-83625312D01*
X183581625Y-83644732D01*
X183627381Y-83696907D01*
X183684858Y-83820167D01*
X183811868Y-84001555D01*
X183968445Y-84158132D01*
X184149833Y-84285142D01*
X184350520Y-84378723D01*
X184564409Y-84436035D01*
X184656491Y-84444091D01*
X184784999Y-84455334D01*
X184784999Y-84455333D01*
X184785000Y-84455334D01*
X185005591Y-84436035D01*
X185219480Y-84378723D01*
X185420167Y-84285142D01*
X185601555Y-84158132D01*
X185758132Y-84001555D01*
X185885142Y-83820167D01*
X185942618Y-83696907D01*
X185988375Y-83644732D01*
X186055000Y-83625312D01*
X186121625Y-83644732D01*
X186167381Y-83696907D01*
X186224858Y-83820167D01*
X186351868Y-84001555D01*
X186508445Y-84158132D01*
X186689833Y-84285142D01*
X186890520Y-84378723D01*
X187104409Y-84436035D01*
X187196491Y-84444091D01*
X187324999Y-84455334D01*
X187324999Y-84455333D01*
X187325000Y-84455334D01*
X187545591Y-84436035D01*
X187563582Y-84431213D01*
X187627771Y-84431211D01*
X187683361Y-84463306D01*
X187894564Y-84674509D01*
X187907909Y-84691167D01*
X187960848Y-84740879D01*
X187963645Y-84743590D01*
X187983966Y-84763911D01*
X187987442Y-84766607D01*
X187996320Y-84774190D01*
X188029607Y-84805448D01*
X188048212Y-84815676D01*
X188064466Y-84826353D01*
X188081237Y-84839363D01*
X188123144Y-84857497D01*
X188133618Y-84862628D01*
X188173632Y-84884627D01*
X188194197Y-84889906D01*
X188212593Y-84896205D01*
X188232074Y-84904636D01*
X188277178Y-84911779D01*
X188288597Y-84914144D01*
X188332823Y-84925500D01*
X188354045Y-84925500D01*
X188373443Y-84927026D01*
X188394405Y-84930347D01*
X188436319Y-84926384D01*
X188439861Y-84926050D01*
X188451530Y-84925500D01*
X231574495Y-84925500D01*
X231595704Y-84927841D01*
X231598294Y-84927759D01*
X231598296Y-84927760D01*
X231668262Y-84925560D01*
X231672157Y-84925500D01*
X231700920Y-84925500D01*
X231700925Y-84925500D01*
X231705302Y-84924946D01*
X231716941Y-84924030D01*
X231762569Y-84922597D01*
X231782949Y-84916675D01*
X231801989Y-84912732D01*
X231823058Y-84910071D01*
X231865520Y-84893258D01*
X231876557Y-84889480D01*
X231920398Y-84876744D01*
X231938670Y-84865936D01*
X231956136Y-84857380D01*
X231975871Y-84849568D01*
X232012816Y-84822725D01*
X232022548Y-84816332D01*
X232061865Y-84793081D01*
X232076874Y-84778071D01*
X232091663Y-84765439D01*
X232108837Y-84752963D01*
X232137946Y-84717774D01*
X232145790Y-84709154D01*
X234273127Y-82581817D01*
X234313355Y-82554938D01*
X234360808Y-82545499D01*
X235467870Y-82545499D01*
X235467872Y-82545499D01*
X235527483Y-82539091D01*
X235662331Y-82488796D01*
X235777546Y-82402546D01*
X235863796Y-82287331D01*
X235914091Y-82152483D01*
X235920500Y-82092873D01*
X235920499Y-80467128D01*
X235914091Y-80407517D01*
X235863796Y-80272669D01*
X235777546Y-80157454D01*
X235662331Y-80071204D01*
X235527483Y-80020909D01*
X235467873Y-80014500D01*
X235467869Y-80014500D01*
X233842130Y-80014500D01*
X233782515Y-80020909D01*
X233647669Y-80071204D01*
X233532454Y-80157454D01*
X233446204Y-80272668D01*
X233395909Y-80407515D01*
X233395909Y-80407517D01*
X233389897Y-80463441D01*
X233389500Y-80467131D01*
X233389500Y-80500565D01*
X233373953Y-80560681D01*
X233331210Y-80605723D01*
X233271990Y-80624395D01*
X233211142Y-80612016D01*
X233163926Y-80571690D01*
X233088132Y-80463445D01*
X232931555Y-80306868D01*
X232750167Y-80179858D01*
X232750164Y-80179857D01*
X232750162Y-80179855D01*
X232549483Y-80086278D01*
X232549480Y-80086277D01*
X232337435Y-80029459D01*
X232335588Y-80028964D01*
X232114999Y-80009665D01*
X231894411Y-80028964D01*
X231680516Y-80086278D01*
X231479837Y-80179855D01*
X231413789Y-80226103D01*
X231347288Y-80272668D01*
X231298441Y-80306871D01*
X231141871Y-80463441D01*
X231014855Y-80644837D01*
X230957382Y-80768091D01*
X230911625Y-80820267D01*
X230845000Y-80839687D01*
X230778375Y-80820267D01*
X230732618Y-80768091D01*
X230675144Y-80644837D01*
X230675143Y-80644835D01*
X230675142Y-80644833D01*
X230548132Y-80463445D01*
X230391555Y-80306868D01*
X230210167Y-80179858D01*
X230210164Y-80179857D01*
X230210162Y-80179855D01*
X230009483Y-80086278D01*
X230009480Y-80086277D01*
X229797435Y-80029459D01*
X229795588Y-80028964D01*
X229574999Y-80009665D01*
X229354411Y-80028964D01*
X229140516Y-80086278D01*
X228939837Y-80179855D01*
X228873789Y-80226103D01*
X228807288Y-80272668D01*
X228758441Y-80306871D01*
X228601871Y-80463441D01*
X228601868Y-80463444D01*
X228601868Y-80463445D01*
X228502244Y-80605723D01*
X228474857Y-80644835D01*
X228417106Y-80768683D01*
X228371349Y-80820859D01*
X228304724Y-80840278D01*
X228238099Y-80820859D01*
X228192342Y-80768683D01*
X228134706Y-80645082D01*
X228088895Y-80579657D01*
X228088894Y-80579656D01*
X227388553Y-81280000D01*
X228088894Y-81980342D01*
X228134709Y-81914912D01*
X228192342Y-81791317D01*
X228238099Y-81739141D01*
X228304724Y-81719721D01*
X228371349Y-81739141D01*
X228417106Y-81791317D01*
X228474855Y-81915162D01*
X228474856Y-81915163D01*
X228474858Y-81915167D01*
X228601868Y-82096555D01*
X228758445Y-82253132D01*
X228939833Y-82380142D01*
X229140520Y-82473723D01*
X229354409Y-82531035D01*
X229575000Y-82550334D01*
X229795591Y-82531035D01*
X230009480Y-82473723D01*
X230210167Y-82380142D01*
X230391555Y-82253132D01*
X230548132Y-82096555D01*
X230675142Y-81915167D01*
X230732618Y-81791907D01*
X230778375Y-81739732D01*
X230845000Y-81720312D01*
X230911625Y-81739732D01*
X230957381Y-81791907D01*
X231014858Y-81915167D01*
X231141868Y-82096555D01*
X231298445Y-82253132D01*
X231479833Y-82380142D01*
X231680520Y-82473723D01*
X231894409Y-82531035D01*
X231986479Y-82539090D01*
X232114998Y-82550334D01*
X232114999Y-82550333D01*
X232115000Y-82550334D01*
X232158857Y-82546497D01*
X232218115Y-82555882D01*
X232266031Y-82591989D01*
X232291387Y-82646364D01*
X232288247Y-82706279D01*
X232257346Y-82757706D01*
X231426873Y-83588181D01*
X231386645Y-83615061D01*
X231339192Y-83624500D01*
X191218979Y-83624500D01*
X191164135Y-83611712D01*
X191120603Y-83575986D01*
X191097362Y-83524691D01*
X191099204Y-83468407D01*
X191116035Y-83405590D01*
X191135334Y-83185000D01*
X191116035Y-82964411D01*
X191116035Y-82964409D01*
X191058723Y-82750520D01*
X191010155Y-82646364D01*
X190965144Y-82549837D01*
X190965143Y-82549836D01*
X190965142Y-82549833D01*
X190838132Y-82368445D01*
X190681555Y-82211868D01*
X190500167Y-82084858D01*
X190500164Y-82084857D01*
X190500162Y-82084855D01*
X190299483Y-81991278D01*
X190299480Y-81991277D01*
X190192535Y-81962620D01*
X190085588Y-81933964D01*
X189865000Y-81914665D01*
X189644411Y-81933964D01*
X189430516Y-81991278D01*
X189229837Y-82084855D01*
X189229832Y-82084858D01*
X189229833Y-82084858D01*
X189097288Y-82177668D01*
X189048441Y-82211871D01*
X188891871Y-82368441D01*
X188891868Y-82368444D01*
X188891868Y-82368445D01*
X188828362Y-82459139D01*
X188764855Y-82549837D01*
X188707382Y-82673091D01*
X188661625Y-82725267D01*
X188595000Y-82744687D01*
X188528375Y-82725267D01*
X188482618Y-82673091D01*
X188425144Y-82549837D01*
X188425143Y-82549836D01*
X188425142Y-82549833D01*
X188298132Y-82368445D01*
X188141555Y-82211868D01*
X187960167Y-82084858D01*
X187960164Y-82084857D01*
X187960162Y-82084855D01*
X187759483Y-81991278D01*
X187759480Y-81991277D01*
X187652535Y-81962620D01*
X187545588Y-81933964D01*
X187325000Y-81914665D01*
X187104411Y-81933964D01*
X186890516Y-81991278D01*
X186689837Y-82084855D01*
X186689832Y-82084858D01*
X186689833Y-82084858D01*
X186557288Y-82177668D01*
X186508441Y-82211871D01*
X186351871Y-82368441D01*
X186351868Y-82368444D01*
X186351868Y-82368445D01*
X186288362Y-82459139D01*
X186224855Y-82549837D01*
X186167382Y-82673091D01*
X186121625Y-82725267D01*
X186055000Y-82744687D01*
X185988375Y-82725267D01*
X185942618Y-82673091D01*
X185885144Y-82549837D01*
X185885143Y-82549836D01*
X185885142Y-82549833D01*
X185758132Y-82368445D01*
X185601555Y-82211868D01*
X185420167Y-82084858D01*
X185420164Y-82084857D01*
X185420162Y-82084855D01*
X185219483Y-81991278D01*
X185219480Y-81991277D01*
X185112535Y-81962620D01*
X185005588Y-81933964D01*
X184785000Y-81914665D01*
X184564411Y-81933964D01*
X184350516Y-81991278D01*
X184149837Y-82084855D01*
X184149832Y-82084858D01*
X184149833Y-82084858D01*
X184017288Y-82177668D01*
X183968441Y-82211871D01*
X183811871Y-82368441D01*
X183811868Y-82368444D01*
X183811868Y-82368445D01*
X183748362Y-82459139D01*
X183684855Y-82549837D01*
X183627382Y-82673091D01*
X183581625Y-82725267D01*
X183515000Y-82744687D01*
X183448375Y-82725267D01*
X183402618Y-82673091D01*
X183345144Y-82549837D01*
X183345143Y-82549836D01*
X183345142Y-82549833D01*
X183218132Y-82368445D01*
X183061555Y-82211868D01*
X182880167Y-82084858D01*
X182880164Y-82084857D01*
X182880162Y-82084855D01*
X182679483Y-81991278D01*
X182679480Y-81991277D01*
X182572535Y-81962620D01*
X182465588Y-81933964D01*
X182245000Y-81914665D01*
X182024411Y-81933964D01*
X181810516Y-81991278D01*
X181609837Y-82084855D01*
X181609832Y-82084858D01*
X181609833Y-82084858D01*
X181477288Y-82177668D01*
X181428441Y-82211871D01*
X181271871Y-82368441D01*
X181271868Y-82368444D01*
X181271868Y-82368445D01*
X181208362Y-82459139D01*
X181144855Y-82549837D01*
X181087382Y-82673091D01*
X181041625Y-82725267D01*
X180975000Y-82744687D01*
X180908375Y-82725267D01*
X180862618Y-82673091D01*
X180805144Y-82549837D01*
X180805143Y-82549836D01*
X180805142Y-82549833D01*
X180678132Y-82368445D01*
X180521555Y-82211868D01*
X180340167Y-82084858D01*
X180340164Y-82084857D01*
X180340162Y-82084855D01*
X180139483Y-81991278D01*
X180139480Y-81991277D01*
X180032535Y-81962620D01*
X179925588Y-81933964D01*
X179705000Y-81914665D01*
X179484411Y-81933964D01*
X179270516Y-81991278D01*
X179069837Y-82084855D01*
X179069832Y-82084858D01*
X179069833Y-82084858D01*
X178937288Y-82177668D01*
X178888441Y-82211871D01*
X178731871Y-82368441D01*
X178731868Y-82368444D01*
X178731868Y-82368445D01*
X178668362Y-82459139D01*
X178604855Y-82549837D01*
X178547382Y-82673091D01*
X178501625Y-82725267D01*
X178435000Y-82744687D01*
X178368375Y-82725267D01*
X178322618Y-82673091D01*
X178265144Y-82549837D01*
X178265143Y-82549836D01*
X178265142Y-82549833D01*
X178138132Y-82368445D01*
X177981555Y-82211868D01*
X177800167Y-82084858D01*
X177800164Y-82084857D01*
X177800162Y-82084855D01*
X177599483Y-81991278D01*
X177599480Y-81991277D01*
X177492535Y-81962620D01*
X177385588Y-81933964D01*
X177165000Y-81914665D01*
X176944411Y-81933964D01*
X176730516Y-81991278D01*
X176529837Y-82084855D01*
X176529832Y-82084858D01*
X176529833Y-82084858D01*
X176397288Y-82177668D01*
X176348441Y-82211871D01*
X176191871Y-82368441D01*
X176191868Y-82368444D01*
X176191868Y-82368445D01*
X176128362Y-82459139D01*
X176064855Y-82549837D01*
X176007382Y-82673091D01*
X175961625Y-82725267D01*
X175895000Y-82744687D01*
X175828375Y-82725267D01*
X175782618Y-82673091D01*
X175725144Y-82549837D01*
X175725143Y-82549836D01*
X175725142Y-82549833D01*
X175598132Y-82368445D01*
X175441555Y-82211868D01*
X175260167Y-82084858D01*
X175260164Y-82084857D01*
X175260162Y-82084855D01*
X175059483Y-81991278D01*
X175059480Y-81991277D01*
X174952535Y-81962620D01*
X174845588Y-81933964D01*
X174625000Y-81914665D01*
X174404411Y-81933964D01*
X174190516Y-81991278D01*
X173989837Y-82084855D01*
X173989832Y-82084858D01*
X173989833Y-82084858D01*
X173857288Y-82177668D01*
X173808441Y-82211871D01*
X173651867Y-82368445D01*
X173576073Y-82476690D01*
X173528857Y-82517017D01*
X173468009Y-82529396D01*
X173408789Y-82510724D01*
X173366046Y-82465682D01*
X173350499Y-82405566D01*
X173350499Y-82372130D01*
X173350103Y-82368445D01*
X173344091Y-82312517D01*
X173293796Y-82177669D01*
X173207546Y-82062454D01*
X173092331Y-81976204D01*
X172957483Y-81925909D01*
X172897873Y-81919500D01*
X172897869Y-81919500D01*
X171272130Y-81919500D01*
X171212515Y-81925909D01*
X171077669Y-81976204D01*
X170962454Y-82062454D01*
X170876204Y-82177668D01*
X170825909Y-82312515D01*
X170825909Y-82312517D01*
X170819897Y-82368441D01*
X170819500Y-82372130D01*
X170819500Y-83997869D01*
X146710400Y-83997869D01*
X146710400Y-76131182D01*
X193249500Y-76131182D01*
X193288604Y-76390615D01*
X193365937Y-76641323D01*
X193479772Y-76877704D01*
X193615766Y-77077170D01*
X193627571Y-77094485D01*
X193806015Y-77286801D01*
X193806019Y-77286805D01*
X194011143Y-77450386D01*
X194238357Y-77581568D01*
X194482584Y-77677420D01*
X194738370Y-77735802D01*
X194794408Y-77740001D01*
X194934501Y-77750500D01*
X194934506Y-77750500D01*
X195065494Y-77750500D01*
X195065499Y-77750500D01*
X195188079Y-77741313D01*
X195261630Y-77735802D01*
X195517416Y-77677420D01*
X195761643Y-77581568D01*
X195988857Y-77450386D01*
X196193981Y-77286805D01*
X196293273Y-77179792D01*
X196372428Y-77094485D01*
X196372429Y-77094482D01*
X196372433Y-77094479D01*
X196520228Y-76877704D01*
X196634063Y-76641323D01*
X196711396Y-76390615D01*
X196750500Y-76131182D01*
X196750500Y-75868818D01*
X196711396Y-75609385D01*
X196634063Y-75358677D01*
X196520228Y-75122296D01*
X196372433Y-74905521D01*
X196372432Y-74905520D01*
X196372428Y-74905514D01*
X196193984Y-74713198D01*
X196193983Y-74713197D01*
X196193981Y-74713195D01*
X195988857Y-74549614D01*
X195988856Y-74549613D01*
X195761641Y-74418431D01*
X195517418Y-74322580D01*
X195261627Y-74264197D01*
X195065499Y-74249500D01*
X195065494Y-74249500D01*
X194934506Y-74249500D01*
X194934501Y-74249500D01*
X194738372Y-74264197D01*
X194482581Y-74322580D01*
X194238358Y-74418431D01*
X194011143Y-74549613D01*
X193806015Y-74713198D01*
X193627571Y-74905514D01*
X193527070Y-75052922D01*
X193479772Y-75122296D01*
X193365937Y-75358677D01*
X193288604Y-75609385D01*
X193249500Y-75868818D01*
X193249500Y-76131182D01*
X146710400Y-76131182D01*
X146710400Y-71538894D01*
X171384656Y-71538894D01*
X171384657Y-71538895D01*
X171450082Y-71584706D01*
X171650690Y-71678251D01*
X171864498Y-71735540D01*
X172085000Y-71754832D01*
X172305501Y-71735540D01*
X172519309Y-71678251D01*
X172719913Y-71584707D01*
X172785342Y-71538894D01*
X172085001Y-70838553D01*
X172085000Y-70838553D01*
X171384656Y-71538894D01*
X146710400Y-71538894D01*
X146710400Y-70484999D01*
X170815167Y-70484999D01*
X170834459Y-70705501D01*
X170891749Y-70919311D01*
X170985291Y-71119914D01*
X171031103Y-71185341D01*
X171031105Y-71185342D01*
X171731447Y-70485001D01*
X171731447Y-70485000D01*
X172438553Y-70485000D01*
X173138894Y-71185342D01*
X173184709Y-71119912D01*
X173242342Y-70996317D01*
X173288099Y-70944141D01*
X173354724Y-70924721D01*
X173421349Y-70944141D01*
X173467106Y-70996317D01*
X173524855Y-71120162D01*
X173524856Y-71120163D01*
X173524858Y-71120167D01*
X173651868Y-71301555D01*
X173808445Y-71458132D01*
X173989833Y-71585142D01*
X174190520Y-71678723D01*
X174404409Y-71736035D01*
X174625000Y-71755334D01*
X174845591Y-71736035D01*
X175059480Y-71678723D01*
X175260167Y-71585142D01*
X175441555Y-71458132D01*
X175598132Y-71301555D01*
X175725142Y-71120167D01*
X175782618Y-70996907D01*
X175828375Y-70944732D01*
X175895000Y-70925312D01*
X175961625Y-70944732D01*
X176007382Y-70996908D01*
X176048189Y-71084421D01*
X176064858Y-71120167D01*
X176191868Y-71301555D01*
X176348445Y-71458132D01*
X176529833Y-71585142D01*
X176730520Y-71678723D01*
X176944409Y-71736035D01*
X177165000Y-71755334D01*
X177385591Y-71736035D01*
X177599480Y-71678723D01*
X177800167Y-71585142D01*
X177981555Y-71458132D01*
X178138132Y-71301555D01*
X178265142Y-71120167D01*
X178322618Y-70996907D01*
X178368375Y-70944732D01*
X178435000Y-70925312D01*
X178501625Y-70944732D01*
X178547382Y-70996908D01*
X178588189Y-71084421D01*
X178604858Y-71120167D01*
X178731868Y-71301555D01*
X178888445Y-71458132D01*
X179069833Y-71585142D01*
X179270520Y-71678723D01*
X179484409Y-71736035D01*
X179705000Y-71755334D01*
X179925591Y-71736035D01*
X180139480Y-71678723D01*
X180340167Y-71585142D01*
X180521555Y-71458132D01*
X180678132Y-71301555D01*
X180805142Y-71120167D01*
X180862618Y-70996907D01*
X180908375Y-70944732D01*
X180975000Y-70925312D01*
X181041625Y-70944732D01*
X181087382Y-70996908D01*
X181128189Y-71084421D01*
X181144858Y-71120167D01*
X181271868Y-71301555D01*
X181428445Y-71458132D01*
X181609833Y-71585142D01*
X181810520Y-71678723D01*
X182024409Y-71736035D01*
X182245000Y-71755334D01*
X182465591Y-71736035D01*
X182679480Y-71678723D01*
X182880167Y-71585142D01*
X183061555Y-71458132D01*
X183218132Y-71301555D01*
X183345142Y-71120167D01*
X183402618Y-70996907D01*
X183448375Y-70944732D01*
X183515000Y-70925312D01*
X183581625Y-70944732D01*
X183627382Y-70996908D01*
X183668189Y-71084421D01*
X183684858Y-71120167D01*
X183811868Y-71301555D01*
X183968445Y-71458132D01*
X184149833Y-71585142D01*
X184350520Y-71678723D01*
X184564409Y-71736035D01*
X184785000Y-71755334D01*
X185005591Y-71736035D01*
X185219480Y-71678723D01*
X185420167Y-71585142D01*
X185486216Y-71538894D01*
X186624656Y-71538894D01*
X186624657Y-71538895D01*
X186690082Y-71584706D01*
X186890690Y-71678251D01*
X187104498Y-71735540D01*
X187325000Y-71754832D01*
X187545501Y-71735540D01*
X187759309Y-71678251D01*
X187959913Y-71584707D01*
X188025342Y-71538894D01*
X187325001Y-70838553D01*
X187325000Y-70838553D01*
X186624656Y-71538894D01*
X185486216Y-71538894D01*
X185601555Y-71458132D01*
X185758132Y-71301555D01*
X185885142Y-71120167D01*
X185942895Y-70996312D01*
X185988649Y-70944141D01*
X186055274Y-70924721D01*
X186121900Y-70944140D01*
X186167657Y-70996316D01*
X186225292Y-71119916D01*
X186271103Y-71185341D01*
X186271105Y-71185342D01*
X186971447Y-70485001D01*
X186971447Y-70485000D01*
X187678553Y-70485000D01*
X188378894Y-71185342D01*
X188424709Y-71119912D01*
X188482342Y-70996317D01*
X188528099Y-70944141D01*
X188594724Y-70924721D01*
X188661349Y-70944141D01*
X188707106Y-70996317D01*
X188764855Y-71120162D01*
X188764856Y-71120163D01*
X188764858Y-71120167D01*
X188891868Y-71301555D01*
X189048445Y-71458132D01*
X189229833Y-71585142D01*
X189430520Y-71678723D01*
X189644409Y-71736035D01*
X189865000Y-71755334D01*
X190085591Y-71736035D01*
X190299480Y-71678723D01*
X190500167Y-71585142D01*
X190681555Y-71458132D01*
X190838132Y-71301555D01*
X190965142Y-71120167D01*
X191058723Y-70919480D01*
X191116035Y-70705591D01*
X191135334Y-70485000D01*
X191116035Y-70264409D01*
X191058723Y-70050520D01*
X191007107Y-69939829D01*
X190965144Y-69849837D01*
X190965143Y-69849835D01*
X190965142Y-69849833D01*
X190838132Y-69668445D01*
X190681555Y-69511868D01*
X190500167Y-69384858D01*
X190500164Y-69384857D01*
X190500162Y-69384855D01*
X190299483Y-69291278D01*
X190299480Y-69291277D01*
X190087435Y-69234459D01*
X190085588Y-69233964D01*
X189865000Y-69214665D01*
X189644411Y-69233964D01*
X189430516Y-69291278D01*
X189229837Y-69384855D01*
X189163789Y-69431103D01*
X189069098Y-69497407D01*
X189048441Y-69511871D01*
X188891871Y-69668441D01*
X188891868Y-69668444D01*
X188891868Y-69668445D01*
X188851804Y-69725663D01*
X188764857Y-69849835D01*
X188707106Y-69973683D01*
X188661349Y-70025859D01*
X188594724Y-70045278D01*
X188528099Y-70025859D01*
X188482342Y-69973683D01*
X188424706Y-69850082D01*
X188378895Y-69784657D01*
X188378894Y-69784656D01*
X187678553Y-70485000D01*
X186971447Y-70485000D01*
X186271103Y-69784656D01*
X186225292Y-69850084D01*
X186167657Y-69973683D01*
X186121900Y-70025859D01*
X186055274Y-70045278D01*
X185988649Y-70025858D01*
X185942893Y-69973682D01*
X185885142Y-69849833D01*
X185758132Y-69668445D01*
X185601555Y-69511868D01*
X185486211Y-69431103D01*
X186624656Y-69431103D01*
X187325000Y-70131447D01*
X187325001Y-70131447D01*
X188025342Y-69431105D01*
X188025341Y-69431103D01*
X187959914Y-69385291D01*
X187759311Y-69291749D01*
X187545501Y-69234459D01*
X187325000Y-69215167D01*
X187104498Y-69234459D01*
X186890688Y-69291749D01*
X186690086Y-69385291D01*
X186624656Y-69431103D01*
X185486211Y-69431103D01*
X185420167Y-69384858D01*
X185420164Y-69384857D01*
X185420162Y-69384855D01*
X185219483Y-69291278D01*
X185219480Y-69291277D01*
X185007435Y-69234459D01*
X185005588Y-69233964D01*
X184785000Y-69214665D01*
X184564411Y-69233964D01*
X184350516Y-69291278D01*
X184149837Y-69384855D01*
X184083789Y-69431103D01*
X183989098Y-69497407D01*
X183968441Y-69511871D01*
X183811871Y-69668441D01*
X183684855Y-69849837D01*
X183627382Y-69973091D01*
X183581625Y-70025267D01*
X183515000Y-70044687D01*
X183448375Y-70025267D01*
X183402618Y-69973091D01*
X183345144Y-69849837D01*
X183345143Y-69849835D01*
X183345142Y-69849833D01*
X183218132Y-69668445D01*
X183061555Y-69511868D01*
X182880167Y-69384858D01*
X182880164Y-69384857D01*
X182880162Y-69384855D01*
X182679483Y-69291278D01*
X182679480Y-69291277D01*
X182467435Y-69234459D01*
X182465588Y-69233964D01*
X182245000Y-69214665D01*
X182024411Y-69233964D01*
X181810516Y-69291278D01*
X181609837Y-69384855D01*
X181543789Y-69431103D01*
X181449098Y-69497407D01*
X181428441Y-69511871D01*
X181271871Y-69668441D01*
X181144855Y-69849837D01*
X181087382Y-69973091D01*
X181041625Y-70025267D01*
X180975000Y-70044687D01*
X180908375Y-70025267D01*
X180862618Y-69973091D01*
X180805144Y-69849837D01*
X180805143Y-69849835D01*
X180805142Y-69849833D01*
X180678132Y-69668445D01*
X180521555Y-69511868D01*
X180340167Y-69384858D01*
X180340164Y-69384857D01*
X180340162Y-69384855D01*
X180139483Y-69291278D01*
X180139480Y-69291277D01*
X179927435Y-69234459D01*
X179925588Y-69233964D01*
X179705000Y-69214665D01*
X179484411Y-69233964D01*
X179270516Y-69291278D01*
X179069837Y-69384855D01*
X179003789Y-69431103D01*
X178909098Y-69497407D01*
X178888441Y-69511871D01*
X178731871Y-69668441D01*
X178604855Y-69849837D01*
X178547382Y-69973091D01*
X178501625Y-70025267D01*
X178435000Y-70044687D01*
X178368375Y-70025267D01*
X178322618Y-69973091D01*
X178265144Y-69849837D01*
X178265143Y-69849835D01*
X178265142Y-69849833D01*
X178138132Y-69668445D01*
X177981555Y-69511868D01*
X177800167Y-69384858D01*
X177800164Y-69384857D01*
X177800162Y-69384855D01*
X177599483Y-69291278D01*
X177599480Y-69291277D01*
X177387435Y-69234459D01*
X177385588Y-69233964D01*
X177165000Y-69214665D01*
X176944411Y-69233964D01*
X176730516Y-69291278D01*
X176529837Y-69384855D01*
X176463789Y-69431103D01*
X176369098Y-69497407D01*
X176348441Y-69511871D01*
X176191871Y-69668441D01*
X176064855Y-69849837D01*
X176007382Y-69973091D01*
X175961625Y-70025267D01*
X175895000Y-70044687D01*
X175828375Y-70025267D01*
X175782618Y-69973091D01*
X175725144Y-69849837D01*
X175725143Y-69849835D01*
X175725142Y-69849833D01*
X175598132Y-69668445D01*
X175441555Y-69511868D01*
X175260167Y-69384858D01*
X175260164Y-69384857D01*
X175260162Y-69384855D01*
X175059483Y-69291278D01*
X175059480Y-69291277D01*
X174847435Y-69234459D01*
X174845588Y-69233964D01*
X174625000Y-69214665D01*
X174404411Y-69233964D01*
X174190516Y-69291278D01*
X173989837Y-69384855D01*
X173923789Y-69431103D01*
X173829098Y-69497407D01*
X173808441Y-69511871D01*
X173651871Y-69668441D01*
X173651868Y-69668444D01*
X173651868Y-69668445D01*
X173611804Y-69725663D01*
X173524857Y-69849835D01*
X173467106Y-69973683D01*
X173421349Y-70025859D01*
X173354724Y-70045278D01*
X173288099Y-70025859D01*
X173242342Y-69973683D01*
X173184706Y-69850082D01*
X173138895Y-69784657D01*
X173138894Y-69784656D01*
X172438553Y-70485000D01*
X171731447Y-70485000D01*
X171031103Y-69784656D01*
X170985291Y-69850086D01*
X170891749Y-70050688D01*
X170834459Y-70264498D01*
X170815167Y-70484999D01*
X146710400Y-70484999D01*
X146710400Y-69431103D01*
X171384656Y-69431103D01*
X172085000Y-70131447D01*
X172085001Y-70131447D01*
X172785342Y-69431105D01*
X172785341Y-69431103D01*
X172719914Y-69385291D01*
X172519311Y-69291749D01*
X172305501Y-69234459D01*
X172085000Y-69215167D01*
X171864498Y-69234459D01*
X171650688Y-69291749D01*
X171450086Y-69385291D01*
X171384656Y-69431103D01*
X146710400Y-69431103D01*
X146710400Y-65757600D01*
X146978000Y-65757600D01*
X146978000Y-66317424D01*
X146984402Y-66376975D01*
X147034647Y-66511689D01*
X147120811Y-66626788D01*
X147235910Y-66712952D01*
X147370624Y-66763197D01*
X147430176Y-66769600D01*
X147990000Y-66769600D01*
X147990000Y-65757600D01*
X148490000Y-65757600D01*
X148490000Y-66769600D01*
X149049824Y-66769600D01*
X149109375Y-66763197D01*
X149244089Y-66712952D01*
X149359188Y-66626788D01*
X149445352Y-66511689D01*
X149495597Y-66376975D01*
X149501995Y-66317469D01*
X166377500Y-66317469D01*
X166383897Y-66376975D01*
X166383909Y-66377083D01*
X166434204Y-66511931D01*
X166520454Y-66627146D01*
X166635669Y-66713396D01*
X166770517Y-66763691D01*
X166830127Y-66770100D01*
X168449872Y-66770099D01*
X168509483Y-66763691D01*
X168644331Y-66713396D01*
X168759546Y-66627146D01*
X168845796Y-66511931D01*
X168896091Y-66377083D01*
X168902500Y-66317473D01*
X168902499Y-64909608D01*
X170545900Y-64909608D01*
X170556400Y-65012396D01*
X170611586Y-65178934D01*
X170703688Y-65328257D01*
X170827742Y-65452311D01*
X170869341Y-65477969D01*
X170977066Y-65544414D01*
X171078612Y-65578063D01*
X171143602Y-65599599D01*
X171147518Y-65599999D01*
X171246391Y-65610100D01*
X172546408Y-65610099D01*
X172649197Y-65599599D01*
X172815734Y-65544414D01*
X172965056Y-65452312D01*
X173089112Y-65328256D01*
X173181214Y-65178934D01*
X173181214Y-65178931D01*
X173184848Y-65173041D01*
X173223761Y-65133557D01*
X173275991Y-65114976D01*
X173331098Y-65121011D01*
X173378068Y-65150456D01*
X173525318Y-65297706D01*
X173718823Y-65433200D01*
X173932907Y-65533030D01*
X174146399Y-65590235D01*
X174146400Y-65590236D01*
X174146400Y-64359600D01*
X174646400Y-64359600D01*
X174646400Y-65590235D01*
X174859892Y-65533030D01*
X175073978Y-65433199D01*
X175267478Y-65297709D01*
X175434509Y-65130678D01*
X175569999Y-64937178D01*
X175669830Y-64723092D01*
X175730969Y-64494918D01*
X175742807Y-64359600D01*
X174646400Y-64359600D01*
X174146400Y-64359600D01*
X174146400Y-64318968D01*
X179345100Y-64318968D01*
X179360536Y-64495407D01*
X179414748Y-64697728D01*
X179421697Y-64723663D01*
X179521565Y-64937829D01*
X179657105Y-65131401D01*
X179824199Y-65298495D01*
X180017770Y-65434035D01*
X180231937Y-65533903D01*
X180460192Y-65595063D01*
X180695600Y-65615659D01*
X180931008Y-65595063D01*
X181159263Y-65533903D01*
X181373429Y-65434035D01*
X181567001Y-65298495D01*
X181734095Y-65131401D01*
X181844026Y-64974401D01*
X181888343Y-64935537D01*
X181945600Y-64921526D01*
X182002857Y-64935537D01*
X182047173Y-64974401D01*
X182157105Y-65131401D01*
X182324199Y-65298495D01*
X182517770Y-65434035D01*
X182731937Y-65533903D01*
X182960192Y-65595063D01*
X183195600Y-65615659D01*
X183431008Y-65595063D01*
X183659263Y-65533903D01*
X183873429Y-65434035D01*
X184067001Y-65298495D01*
X184234095Y-65131401D01*
X184344026Y-64974401D01*
X184388343Y-64935537D01*
X184445600Y-64921526D01*
X184502857Y-64935537D01*
X184547173Y-64974401D01*
X184657105Y-65131401D01*
X184824199Y-65298495D01*
X185017770Y-65434035D01*
X185231937Y-65533903D01*
X185460192Y-65595063D01*
X185695600Y-65615659D01*
X185931008Y-65595063D01*
X186159263Y-65533903D01*
X186373429Y-65434035D01*
X186567001Y-65298495D01*
X186734095Y-65131401D01*
X186746102Y-65114252D01*
X186794287Y-65073459D01*
X186856321Y-65061680D01*
X186916113Y-65081975D01*
X186958158Y-65129082D01*
X186990135Y-65191840D01*
X187112568Y-65343032D01*
X187263760Y-65465465D01*
X187437104Y-65553788D01*
X187625022Y-65604141D01*
X187705822Y-65610500D01*
X188685375Y-65610500D01*
X188685378Y-65610500D01*
X188766178Y-65604141D01*
X188954096Y-65553788D01*
X189127440Y-65465465D01*
X189278632Y-65343032D01*
X189401065Y-65191840D01*
X189489388Y-65018496D01*
X189518458Y-64910008D01*
X193420500Y-64910008D01*
X193431000Y-65012796D01*
X193486186Y-65179334D01*
X193578288Y-65328657D01*
X193702342Y-65452711D01*
X193723018Y-65465464D01*
X193851666Y-65544814D01*
X193952005Y-65578063D01*
X194018202Y-65599999D01*
X194028702Y-65601071D01*
X194120991Y-65610500D01*
X195421008Y-65610499D01*
X195523797Y-65599999D01*
X195690334Y-65544814D01*
X195839656Y-65452712D01*
X195963712Y-65328656D01*
X196055814Y-65179334D01*
X196055814Y-65179331D01*
X196059178Y-65173879D01*
X196098091Y-65134395D01*
X196150321Y-65115814D01*
X196205428Y-65121849D01*
X196252398Y-65151294D01*
X196399599Y-65298495D01*
X196593170Y-65434035D01*
X196807337Y-65533903D01*
X197035592Y-65595063D01*
X197271000Y-65615659D01*
X197506408Y-65595063D01*
X197734663Y-65533903D01*
X197948829Y-65434035D01*
X198142401Y-65298495D01*
X198309495Y-65131401D01*
X198419426Y-64974401D01*
X198463743Y-64935537D01*
X198521000Y-64921526D01*
X198578257Y-64935537D01*
X198622573Y-64974401D01*
X198732505Y-65131401D01*
X198899599Y-65298495D01*
X199093170Y-65434035D01*
X199307337Y-65533903D01*
X199535592Y-65595063D01*
X199771000Y-65615659D01*
X200006408Y-65595063D01*
X200234663Y-65533903D01*
X200448829Y-65434035D01*
X200642401Y-65298495D01*
X200809495Y-65131401D01*
X200919426Y-64974401D01*
X200963743Y-64935537D01*
X201021000Y-64921526D01*
X201078257Y-64935537D01*
X201122573Y-64974401D01*
X201232505Y-65131401D01*
X201399599Y-65298495D01*
X201593170Y-65434035D01*
X201807337Y-65533903D01*
X202035592Y-65595063D01*
X202271000Y-65615659D01*
X202506408Y-65595063D01*
X202705459Y-65541728D01*
X202769645Y-65541728D01*
X202825232Y-65573822D01*
X216883197Y-79631787D01*
X216896098Y-79647889D01*
X216898212Y-79649874D01*
X216898214Y-79649877D01*
X216945561Y-79694339D01*
X216947240Y-79695916D01*
X216950035Y-79698625D01*
X216969530Y-79718120D01*
X216972704Y-79720582D01*
X216981568Y-79728153D01*
X217013418Y-79758062D01*
X217023914Y-79763832D01*
X217030974Y-79767714D01*
X217047231Y-79778392D01*
X217063064Y-79790674D01*
X217063065Y-79790674D01*
X217072281Y-79797823D01*
X217110625Y-79847830D01*
X217119438Y-79910226D01*
X217096445Y-79968897D01*
X217047584Y-80008691D01*
X216985473Y-80019330D01*
X216875000Y-80009665D01*
X216654411Y-80028964D01*
X216440516Y-80086278D01*
X216239837Y-80179855D01*
X216173789Y-80226103D01*
X216107288Y-80272668D01*
X216058441Y-80306871D01*
X215901871Y-80463441D01*
X215774855Y-80644837D01*
X215717382Y-80768091D01*
X215671625Y-80820267D01*
X215605000Y-80839687D01*
X215538375Y-80820267D01*
X215492618Y-80768091D01*
X215435144Y-80644837D01*
X215435143Y-80644835D01*
X215435142Y-80644833D01*
X215308132Y-80463445D01*
X215151555Y-80306868D01*
X214970167Y-80179858D01*
X214970164Y-80179857D01*
X214970162Y-80179855D01*
X214769483Y-80086278D01*
X214769480Y-80086277D01*
X214557435Y-80029459D01*
X214555588Y-80028964D01*
X214334999Y-80009665D01*
X214114411Y-80028964D01*
X213900516Y-80086278D01*
X213699837Y-80179855D01*
X213633789Y-80226103D01*
X213567288Y-80272668D01*
X213518441Y-80306871D01*
X213361871Y-80463441D01*
X213234855Y-80644837D01*
X213177382Y-80768091D01*
X213131625Y-80820267D01*
X213065000Y-80839687D01*
X212998375Y-80820267D01*
X212952618Y-80768091D01*
X212895144Y-80644837D01*
X212895143Y-80644835D01*
X212895142Y-80644833D01*
X212768132Y-80463445D01*
X212611555Y-80306868D01*
X212430167Y-80179858D01*
X212430164Y-80179857D01*
X212430162Y-80179855D01*
X212229483Y-80086278D01*
X212229480Y-80086277D01*
X212017435Y-80029459D01*
X212015588Y-80028964D01*
X211794999Y-80009665D01*
X211574411Y-80028964D01*
X211360516Y-80086278D01*
X211159837Y-80179855D01*
X211093789Y-80226103D01*
X211027288Y-80272668D01*
X210978441Y-80306871D01*
X210821871Y-80463441D01*
X210694855Y-80644837D01*
X210637382Y-80768091D01*
X210591625Y-80820267D01*
X210525000Y-80839687D01*
X210458375Y-80820267D01*
X210412618Y-80768091D01*
X210355144Y-80644837D01*
X210355143Y-80644835D01*
X210355142Y-80644833D01*
X210228132Y-80463445D01*
X210071555Y-80306868D01*
X209890167Y-80179858D01*
X209890164Y-80179857D01*
X209890162Y-80179855D01*
X209689483Y-80086278D01*
X209689480Y-80086277D01*
X209477435Y-80029459D01*
X209475588Y-80028964D01*
X209254999Y-80009665D01*
X209034411Y-80028964D01*
X208820516Y-80086278D01*
X208619837Y-80179855D01*
X208553789Y-80226103D01*
X208487288Y-80272668D01*
X208438441Y-80306871D01*
X208281871Y-80463441D01*
X208154855Y-80644837D01*
X208097382Y-80768091D01*
X208051625Y-80820267D01*
X207985000Y-80839687D01*
X207918375Y-80820267D01*
X207872618Y-80768091D01*
X207815144Y-80644837D01*
X207815143Y-80644835D01*
X207815142Y-80644833D01*
X207688132Y-80463445D01*
X207531555Y-80306868D01*
X207350167Y-80179858D01*
X207350164Y-80179857D01*
X207350162Y-80179855D01*
X207149483Y-80086278D01*
X207149480Y-80086277D01*
X206937435Y-80029459D01*
X206935588Y-80028964D01*
X206714999Y-80009665D01*
X206494411Y-80028964D01*
X206280516Y-80086278D01*
X206079837Y-80179855D01*
X206013789Y-80226103D01*
X205947288Y-80272668D01*
X205898441Y-80306871D01*
X205741871Y-80463441D01*
X205614855Y-80644837D01*
X205557382Y-80768091D01*
X205511625Y-80820267D01*
X205445000Y-80839687D01*
X205378375Y-80820267D01*
X205332618Y-80768091D01*
X205275144Y-80644837D01*
X205275143Y-80644835D01*
X205275142Y-80644833D01*
X205148132Y-80463445D01*
X204991555Y-80306868D01*
X204810167Y-80179858D01*
X204810164Y-80179857D01*
X204810162Y-80179855D01*
X204609483Y-80086278D01*
X204609480Y-80086277D01*
X204397435Y-80029459D01*
X204395588Y-80028964D01*
X204174999Y-80009665D01*
X203954411Y-80028964D01*
X203740516Y-80086278D01*
X203539837Y-80179855D01*
X203473789Y-80226103D01*
X203407288Y-80272668D01*
X203358441Y-80306871D01*
X203201871Y-80463441D01*
X203074855Y-80644837D01*
X203017382Y-80768091D01*
X202971625Y-80820267D01*
X202905000Y-80839687D01*
X202838375Y-80820267D01*
X202792618Y-80768091D01*
X202735144Y-80644837D01*
X202735143Y-80644835D01*
X202735142Y-80644833D01*
X202608132Y-80463445D01*
X202451555Y-80306868D01*
X202270167Y-80179858D01*
X202270164Y-80179857D01*
X202270162Y-80179855D01*
X202069483Y-80086278D01*
X202069480Y-80086277D01*
X201857435Y-80029459D01*
X201855588Y-80028964D01*
X201634999Y-80009665D01*
X201414411Y-80028964D01*
X201200516Y-80086278D01*
X200999837Y-80179855D01*
X200933789Y-80226103D01*
X200867288Y-80272668D01*
X200818441Y-80306871D01*
X200661871Y-80463441D01*
X200534855Y-80644837D01*
X200477382Y-80768091D01*
X200431625Y-80820267D01*
X200365000Y-80839687D01*
X200298375Y-80820267D01*
X200252618Y-80768091D01*
X200195144Y-80644837D01*
X200195143Y-80644835D01*
X200195142Y-80644833D01*
X200068132Y-80463445D01*
X199911555Y-80306868D01*
X199730167Y-80179858D01*
X199730164Y-80179857D01*
X199730162Y-80179855D01*
X199529483Y-80086278D01*
X199529480Y-80086277D01*
X199317435Y-80029459D01*
X199315588Y-80028964D01*
X199094999Y-80009665D01*
X198874411Y-80028964D01*
X198660516Y-80086278D01*
X198459837Y-80179855D01*
X198393789Y-80226103D01*
X198327288Y-80272668D01*
X198278441Y-80306871D01*
X198121871Y-80463441D01*
X197994855Y-80644837D01*
X197901278Y-80845516D01*
X197843964Y-81059411D01*
X197824665Y-81279999D01*
X197843964Y-81500588D01*
X197901278Y-81714483D01*
X197994855Y-81915162D01*
X197994856Y-81915163D01*
X197994858Y-81915167D01*
X198121868Y-82096555D01*
X198278445Y-82253132D01*
X198459833Y-82380142D01*
X198660520Y-82473723D01*
X198874409Y-82531035D01*
X199095000Y-82550334D01*
X199315591Y-82531035D01*
X199529480Y-82473723D01*
X199730167Y-82380142D01*
X199911555Y-82253132D01*
X200068132Y-82096555D01*
X200195142Y-81915167D01*
X200252618Y-81791907D01*
X200298375Y-81739732D01*
X200365000Y-81720312D01*
X200431625Y-81739732D01*
X200477381Y-81791907D01*
X200534858Y-81915167D01*
X200661868Y-82096555D01*
X200818445Y-82253132D01*
X200999833Y-82380142D01*
X201200520Y-82473723D01*
X201414409Y-82531035D01*
X201635000Y-82550334D01*
X201855591Y-82531035D01*
X202069480Y-82473723D01*
X202270167Y-82380142D01*
X202451555Y-82253132D01*
X202608132Y-82096555D01*
X202735142Y-81915167D01*
X202792618Y-81791907D01*
X202838375Y-81739732D01*
X202905000Y-81720312D01*
X202971625Y-81739732D01*
X203017381Y-81791907D01*
X203074858Y-81915167D01*
X203201868Y-82096555D01*
X203358445Y-82253132D01*
X203539833Y-82380142D01*
X203740520Y-82473723D01*
X203954409Y-82531035D01*
X204175000Y-82550334D01*
X204395591Y-82531035D01*
X204609480Y-82473723D01*
X204810167Y-82380142D01*
X204991555Y-82253132D01*
X205148132Y-82096555D01*
X205275142Y-81915167D01*
X205332618Y-81791907D01*
X205378375Y-81739732D01*
X205445000Y-81720312D01*
X205511625Y-81739732D01*
X205557381Y-81791907D01*
X205614858Y-81915167D01*
X205741868Y-82096555D01*
X205898445Y-82253132D01*
X206079833Y-82380142D01*
X206280520Y-82473723D01*
X206494409Y-82531035D01*
X206715000Y-82550334D01*
X206935591Y-82531035D01*
X207149480Y-82473723D01*
X207350167Y-82380142D01*
X207531555Y-82253132D01*
X207688132Y-82096555D01*
X207815142Y-81915167D01*
X207872618Y-81791907D01*
X207918375Y-81739732D01*
X207985000Y-81720312D01*
X208051625Y-81739732D01*
X208097381Y-81791907D01*
X208154858Y-81915167D01*
X208281868Y-82096555D01*
X208438445Y-82253132D01*
X208619833Y-82380142D01*
X208820520Y-82473723D01*
X209034409Y-82531035D01*
X209255000Y-82550334D01*
X209475591Y-82531035D01*
X209689480Y-82473723D01*
X209890167Y-82380142D01*
X210071555Y-82253132D01*
X210228132Y-82096555D01*
X210355142Y-81915167D01*
X210412618Y-81791907D01*
X210458375Y-81739732D01*
X210525000Y-81720312D01*
X210591625Y-81739732D01*
X210637381Y-81791907D01*
X210694858Y-81915167D01*
X210821868Y-82096555D01*
X210978445Y-82253132D01*
X211159833Y-82380142D01*
X211360520Y-82473723D01*
X211574409Y-82531035D01*
X211795000Y-82550334D01*
X212015591Y-82531035D01*
X212229480Y-82473723D01*
X212430167Y-82380142D01*
X212611555Y-82253132D01*
X212768132Y-82096555D01*
X212895142Y-81915167D01*
X212952618Y-81791907D01*
X212998375Y-81739732D01*
X213065000Y-81720312D01*
X213131625Y-81739732D01*
X213177381Y-81791907D01*
X213234858Y-81915167D01*
X213361868Y-82096555D01*
X213518445Y-82253132D01*
X213699833Y-82380142D01*
X213900520Y-82473723D01*
X214114409Y-82531035D01*
X214335000Y-82550334D01*
X214555591Y-82531035D01*
X214769480Y-82473723D01*
X214970167Y-82380142D01*
X215151555Y-82253132D01*
X215308132Y-82096555D01*
X215435142Y-81915167D01*
X215492618Y-81791907D01*
X215538375Y-81739732D01*
X215605000Y-81720312D01*
X215671625Y-81739732D01*
X215717381Y-81791907D01*
X215774858Y-81915167D01*
X215901868Y-82096555D01*
X216058445Y-82253132D01*
X216239833Y-82380142D01*
X216440520Y-82473723D01*
X216654409Y-82531035D01*
X216875000Y-82550334D01*
X217095591Y-82531035D01*
X217309480Y-82473723D01*
X217510167Y-82380142D01*
X217691555Y-82253132D01*
X217848132Y-82096555D01*
X217975142Y-81915167D01*
X218032618Y-81791907D01*
X218078375Y-81739732D01*
X218145000Y-81720312D01*
X218211625Y-81739732D01*
X218257381Y-81791907D01*
X218314858Y-81915167D01*
X218441868Y-82096555D01*
X218598445Y-82253132D01*
X218779833Y-82380142D01*
X218980520Y-82473723D01*
X219194409Y-82531035D01*
X219415000Y-82550334D01*
X219635591Y-82531035D01*
X219849480Y-82473723D01*
X220050167Y-82380142D01*
X220231555Y-82253132D01*
X220388132Y-82096555D01*
X220515142Y-81915167D01*
X220572618Y-81791907D01*
X220618375Y-81739732D01*
X220685000Y-81720312D01*
X220751625Y-81739732D01*
X220797381Y-81791907D01*
X220854858Y-81915167D01*
X220981868Y-82096555D01*
X221138445Y-82253132D01*
X221319833Y-82380142D01*
X221520520Y-82473723D01*
X221734409Y-82531035D01*
X221955000Y-82550334D01*
X222175591Y-82531035D01*
X222389480Y-82473723D01*
X222590167Y-82380142D01*
X222771555Y-82253132D01*
X222928132Y-82096555D01*
X223055142Y-81915167D01*
X223112618Y-81791907D01*
X223158375Y-81739732D01*
X223225000Y-81720312D01*
X223291625Y-81739732D01*
X223337381Y-81791907D01*
X223394858Y-81915167D01*
X223521868Y-82096555D01*
X223678445Y-82253132D01*
X223859833Y-82380142D01*
X224060520Y-82473723D01*
X224274409Y-82531035D01*
X224495000Y-82550334D01*
X224715591Y-82531035D01*
X224929480Y-82473723D01*
X225130167Y-82380142D01*
X225196216Y-82333894D01*
X226334656Y-82333894D01*
X226334657Y-82333895D01*
X226400082Y-82379706D01*
X226600690Y-82473251D01*
X226814498Y-82530540D01*
X227035000Y-82549832D01*
X227255501Y-82530540D01*
X227469309Y-82473251D01*
X227669913Y-82379707D01*
X227735342Y-82333894D01*
X227035001Y-81633553D01*
X227035000Y-81633553D01*
X226334656Y-82333894D01*
X225196216Y-82333894D01*
X225311555Y-82253132D01*
X225468132Y-82096555D01*
X225595142Y-81915167D01*
X225652895Y-81791312D01*
X225698649Y-81739141D01*
X225765274Y-81719721D01*
X225831900Y-81739140D01*
X225877657Y-81791316D01*
X225935292Y-81914916D01*
X225981103Y-81980341D01*
X225981105Y-81980342D01*
X226681447Y-81280001D01*
X226681447Y-81280000D01*
X225981103Y-80579656D01*
X225935292Y-80645084D01*
X225877657Y-80768683D01*
X225831900Y-80820859D01*
X225765274Y-80840278D01*
X225698649Y-80820858D01*
X225652893Y-80768682D01*
X225595142Y-80644833D01*
X225468132Y-80463445D01*
X225311555Y-80306868D01*
X225196211Y-80226103D01*
X226334656Y-80226103D01*
X227035000Y-80926447D01*
X227035001Y-80926447D01*
X227735342Y-80226105D01*
X227735341Y-80226103D01*
X227669914Y-80180291D01*
X227469311Y-80086749D01*
X227255501Y-80029459D01*
X227035000Y-80010167D01*
X226814498Y-80029459D01*
X226600688Y-80086749D01*
X226400086Y-80180291D01*
X226334656Y-80226103D01*
X225196211Y-80226103D01*
X225130167Y-80179858D01*
X225130164Y-80179857D01*
X225130162Y-80179855D01*
X224929483Y-80086278D01*
X224929480Y-80086277D01*
X224717435Y-80029459D01*
X224715588Y-80028964D01*
X224495000Y-80009665D01*
X224274408Y-80028964D01*
X224228527Y-80041258D01*
X224164341Y-80041258D01*
X224108754Y-80009164D01*
X219108819Y-75009228D01*
X219081939Y-74969000D01*
X219072500Y-74921547D01*
X219072500Y-72012000D01*
X242003364Y-72012000D01*
X242060569Y-72225492D01*
X242160400Y-72439578D01*
X242295890Y-72633078D01*
X242462921Y-72800109D01*
X242656421Y-72935599D01*
X242870507Y-73035430D01*
X243098681Y-73096569D01*
X243208999Y-73106221D01*
X243209000Y-73106221D01*
X243209000Y-72012000D01*
X243709000Y-72012000D01*
X243709000Y-73106221D01*
X243819318Y-73096569D01*
X244047492Y-73035430D01*
X244261578Y-72935599D01*
X244455078Y-72800109D01*
X244622106Y-72633081D01*
X244757600Y-72439576D01*
X244857430Y-72225492D01*
X244914636Y-72012000D01*
X243709000Y-72012000D01*
X243209000Y-72012000D01*
X242003364Y-72012000D01*
X219072500Y-72012000D01*
X219072500Y-69261999D01*
X241978340Y-69261999D01*
X241998936Y-69497407D01*
X242060097Y-69725663D01*
X242159965Y-69939829D01*
X242295505Y-70133401D01*
X242462598Y-70300494D01*
X242620032Y-70410730D01*
X242658898Y-70455048D01*
X242672909Y-70512305D01*
X242658898Y-70569562D01*
X242620033Y-70613880D01*
X242462918Y-70723893D01*
X242295893Y-70890918D01*
X242160399Y-71084423D01*
X242060569Y-71298507D01*
X242003364Y-71511999D01*
X242003364Y-71512000D01*
X244914636Y-71512000D01*
X244914635Y-71511999D01*
X244857430Y-71298507D01*
X244757599Y-71084421D01*
X244622109Y-70890921D01*
X244455078Y-70723890D01*
X244297967Y-70613880D01*
X244259101Y-70569562D01*
X244245090Y-70512305D01*
X244259101Y-70455048D01*
X244297964Y-70410732D01*
X244455401Y-70300495D01*
X244622495Y-70133401D01*
X244758035Y-69939830D01*
X244857903Y-69725663D01*
X244919063Y-69497408D01*
X244939659Y-69262000D01*
X244919063Y-69026592D01*
X244857903Y-68798337D01*
X244758035Y-68584171D01*
X244622495Y-68390599D01*
X244455401Y-68223505D01*
X244298401Y-68113573D01*
X244259537Y-68069257D01*
X244245526Y-68012000D01*
X244259537Y-67954743D01*
X244298401Y-67910426D01*
X244455401Y-67800495D01*
X244622495Y-67633401D01*
X244758035Y-67439830D01*
X244857903Y-67225663D01*
X244919063Y-66997408D01*
X244939659Y-66762000D01*
X244919063Y-66526592D01*
X244857903Y-66298337D01*
X244758035Y-66084171D01*
X244622495Y-65890599D01*
X244475293Y-65743397D01*
X244445849Y-65696428D01*
X244439814Y-65641321D01*
X244458395Y-65589091D01*
X244497879Y-65550178D01*
X244503331Y-65546814D01*
X244503334Y-65546814D01*
X244652656Y-65454712D01*
X244776712Y-65330656D01*
X244868814Y-65181334D01*
X244923999Y-65014797D01*
X244934500Y-64912009D01*
X244934499Y-63611992D01*
X244923999Y-63509203D01*
X244868814Y-63342666D01*
X244785013Y-63206802D01*
X244776711Y-63193342D01*
X244652657Y-63069288D01*
X244503334Y-62977186D01*
X244336797Y-62922000D01*
X244234009Y-62911500D01*
X242683991Y-62911500D01*
X242581203Y-62922000D01*
X242414665Y-62977186D01*
X242265342Y-63069288D01*
X242141288Y-63193342D01*
X242049186Y-63342665D01*
X241994000Y-63509202D01*
X241983500Y-63611990D01*
X241983500Y-64912008D01*
X241994000Y-65014796D01*
X242049186Y-65181334D01*
X242141288Y-65330657D01*
X242265342Y-65454711D01*
X242420120Y-65550178D01*
X242459604Y-65589091D01*
X242478185Y-65641321D01*
X242472151Y-65696428D01*
X242442706Y-65743398D01*
X242295505Y-65890599D01*
X242159964Y-66084172D01*
X242060097Y-66298337D01*
X241998936Y-66526592D01*
X241978340Y-66762000D01*
X241998936Y-66997407D01*
X242060097Y-67225663D01*
X242159965Y-67439829D01*
X242295505Y-67633401D01*
X242462598Y-67800494D01*
X242619596Y-67910425D01*
X242658462Y-67954743D01*
X242672473Y-68012000D01*
X242658462Y-68069257D01*
X242619596Y-68113575D01*
X242462598Y-68223505D01*
X242295508Y-68390595D01*
X242159964Y-68584172D01*
X242060097Y-68798337D01*
X241998936Y-69026592D01*
X241978340Y-69261999D01*
X219072500Y-69261999D01*
X219072500Y-65535226D01*
X219086511Y-65477969D01*
X219125377Y-65433651D01*
X219125450Y-65433600D01*
X219318401Y-65298495D01*
X219485495Y-65131401D01*
X219595732Y-64973964D01*
X219640048Y-64935101D01*
X219697305Y-64921090D01*
X219754562Y-64935101D01*
X219798880Y-64973967D01*
X219908890Y-65131078D01*
X220075918Y-65298106D01*
X220269423Y-65433600D01*
X220483507Y-65533430D01*
X220696999Y-65590635D01*
X220697000Y-65590636D01*
X220697000Y-64385000D01*
X221197000Y-64385000D01*
X221197000Y-65590635D01*
X221410492Y-65533430D01*
X221624578Y-65433599D01*
X221818078Y-65298109D01*
X221985109Y-65131078D01*
X222120599Y-64937578D01*
X222220430Y-64723492D01*
X222281569Y-64495318D01*
X222291221Y-64385000D01*
X221197000Y-64385000D01*
X220697000Y-64385000D01*
X220697000Y-64009000D01*
X220713613Y-63947000D01*
X220759000Y-63901613D01*
X220821000Y-63885000D01*
X222291222Y-63885000D01*
X222291221Y-63884999D01*
X222281569Y-63774681D01*
X222234655Y-63599594D01*
X222232813Y-63543309D01*
X222256054Y-63492014D01*
X222299586Y-63456288D01*
X222354430Y-63443500D01*
X225661500Y-63443500D01*
X225723500Y-63460113D01*
X225768887Y-63505500D01*
X225785500Y-63567500D01*
X225785500Y-64893008D01*
X225796000Y-64995796D01*
X225851186Y-65162334D01*
X225943288Y-65311657D01*
X226067342Y-65435711D01*
X226098146Y-65454711D01*
X226216666Y-65527814D01*
X226328016Y-65564712D01*
X226383202Y-65582999D01*
X226393702Y-65584071D01*
X226485991Y-65593500D01*
X227786008Y-65593499D01*
X227888797Y-65582999D01*
X228055334Y-65527814D01*
X228204656Y-65435712D01*
X228328712Y-65311656D01*
X228420814Y-65162334D01*
X228420814Y-65162331D01*
X228424178Y-65156879D01*
X228463091Y-65117395D01*
X228515321Y-65098814D01*
X228570428Y-65104849D01*
X228617398Y-65134293D01*
X228764599Y-65281495D01*
X228958170Y-65417035D01*
X229172337Y-65516903D01*
X229400592Y-65578063D01*
X229636000Y-65598659D01*
X229871408Y-65578063D01*
X230099663Y-65516903D01*
X230313829Y-65417035D01*
X230507401Y-65281495D01*
X230674495Y-65114401D01*
X230784426Y-64957401D01*
X230828743Y-64918537D01*
X230886000Y-64904526D01*
X230943257Y-64918537D01*
X230987573Y-64957401D01*
X231097505Y-65114401D01*
X231264599Y-65281495D01*
X231458170Y-65417035D01*
X231672337Y-65516903D01*
X231900592Y-65578063D01*
X232136000Y-65598659D01*
X232371408Y-65578063D01*
X232599663Y-65516903D01*
X232813829Y-65417035D01*
X233007401Y-65281495D01*
X233174495Y-65114401D01*
X233284732Y-64956964D01*
X233329048Y-64918101D01*
X233386305Y-64904090D01*
X233443562Y-64918101D01*
X233487880Y-64956967D01*
X233597890Y-65114078D01*
X233764918Y-65281106D01*
X233958423Y-65416600D01*
X234172507Y-65516430D01*
X234385999Y-65573635D01*
X234386000Y-65573636D01*
X234386000Y-64368000D01*
X234886000Y-64368000D01*
X234886000Y-65573635D01*
X235099492Y-65516430D01*
X235313578Y-65416599D01*
X235507078Y-65281109D01*
X235674109Y-65114078D01*
X235809599Y-64920578D01*
X235909430Y-64706492D01*
X235970569Y-64478318D01*
X235980221Y-64368000D01*
X234886000Y-64368000D01*
X234386000Y-64368000D01*
X234386000Y-62662364D01*
X234886000Y-62662364D01*
X234886000Y-63868000D01*
X235980222Y-63868000D01*
X235980221Y-63867999D01*
X235970569Y-63757681D01*
X235909430Y-63529507D01*
X235809599Y-63315421D01*
X235674109Y-63121921D01*
X235507081Y-62954893D01*
X235313576Y-62819399D01*
X235099492Y-62719569D01*
X234886000Y-62662364D01*
X234386000Y-62662364D01*
X234385999Y-62662364D01*
X234172507Y-62719569D01*
X233958421Y-62819400D01*
X233764921Y-62954890D01*
X233597893Y-63121918D01*
X233487880Y-63279033D01*
X233443562Y-63317898D01*
X233386305Y-63331909D01*
X233329048Y-63317898D01*
X233284730Y-63279032D01*
X233269445Y-63257203D01*
X233174495Y-63121599D01*
X233007401Y-62954505D01*
X232813830Y-62818965D01*
X232599663Y-62719097D01*
X232538501Y-62702709D01*
X232371407Y-62657936D01*
X232136000Y-62637340D01*
X231900592Y-62657936D01*
X231701542Y-62711271D01*
X231637355Y-62711271D01*
X231581768Y-62679177D01*
X231336802Y-62434211D01*
X231323906Y-62418113D01*
X231272775Y-62370098D01*
X231269978Y-62367387D01*
X231250470Y-62347879D01*
X231247290Y-62345412D01*
X231238424Y-62337839D01*
X231206582Y-62307938D01*
X231189024Y-62298285D01*
X231172764Y-62287604D01*
X231156936Y-62275327D01*
X231116851Y-62257980D01*
X231106361Y-62252841D01*
X231068091Y-62231802D01*
X231048691Y-62226821D01*
X231030284Y-62220519D01*
X231011897Y-62212562D01*
X230968758Y-62205729D01*
X230957324Y-62203361D01*
X230915019Y-62192500D01*
X230894984Y-62192500D01*
X230875586Y-62190973D01*
X230868162Y-62189797D01*
X230855805Y-62187840D01*
X230855804Y-62187840D01*
X230829484Y-62190328D01*
X230812325Y-62191950D01*
X230800656Y-62192500D01*
X217346740Y-62192500D01*
X217326236Y-62190236D01*
X217256144Y-62192439D01*
X217252250Y-62192500D01*
X217224648Y-62192500D01*
X217220653Y-62193004D01*
X217209029Y-62193918D01*
X217165368Y-62195290D01*
X217146128Y-62200880D01*
X217127081Y-62204825D01*
X217107209Y-62207335D01*
X217066599Y-62223413D01*
X217055554Y-62227194D01*
X217013611Y-62239380D01*
X216996369Y-62249578D01*
X216978897Y-62258138D01*
X216960266Y-62265514D01*
X216924938Y-62291181D01*
X216915180Y-62297591D01*
X216877579Y-62319829D01*
X216863410Y-62333998D01*
X216848622Y-62346628D01*
X216832413Y-62358405D01*
X216804572Y-62392058D01*
X216796711Y-62400696D01*
X216501230Y-62696177D01*
X216445643Y-62728271D01*
X216381456Y-62728271D01*
X216182407Y-62674936D01*
X215947000Y-62654340D01*
X215711592Y-62674936D01*
X215512542Y-62728271D01*
X215448355Y-62728271D01*
X215392768Y-62696177D01*
X215147802Y-62451211D01*
X215134906Y-62435113D01*
X215083775Y-62387098D01*
X215080978Y-62384387D01*
X215061470Y-62364879D01*
X215058290Y-62362412D01*
X215049424Y-62354839D01*
X215017582Y-62324938D01*
X215000024Y-62315285D01*
X214983764Y-62304604D01*
X214967936Y-62292327D01*
X214927851Y-62274980D01*
X214917361Y-62269841D01*
X214879091Y-62248802D01*
X214859691Y-62243821D01*
X214841284Y-62237519D01*
X214822897Y-62229562D01*
X214779758Y-62222729D01*
X214768324Y-62220361D01*
X214726019Y-62209500D01*
X214705984Y-62209500D01*
X214686586Y-62207973D01*
X214679162Y-62206797D01*
X214666805Y-62204840D01*
X214666804Y-62204840D01*
X214633751Y-62207964D01*
X214623325Y-62208950D01*
X214611656Y-62209500D01*
X201153744Y-62209500D01*
X201133236Y-62207235D01*
X201063113Y-62209439D01*
X201059219Y-62209500D01*
X201031650Y-62209500D01*
X201027671Y-62210002D01*
X201016041Y-62210917D01*
X200972372Y-62212289D01*
X200953128Y-62217880D01*
X200934084Y-62221824D01*
X200914208Y-62224335D01*
X200873600Y-62240413D01*
X200862554Y-62244194D01*
X200826926Y-62254547D01*
X200820607Y-62256383D01*
X200803365Y-62266579D01*
X200785904Y-62275133D01*
X200767267Y-62282512D01*
X200731931Y-62308185D01*
X200722174Y-62314595D01*
X200684580Y-62336829D01*
X200670413Y-62350996D01*
X200655624Y-62363626D01*
X200639413Y-62375404D01*
X200611572Y-62409058D01*
X200603711Y-62417697D01*
X200325231Y-62696177D01*
X200269644Y-62728271D01*
X200205457Y-62728271D01*
X200006407Y-62674936D01*
X199771000Y-62654340D01*
X199535592Y-62674936D01*
X199307336Y-62736097D01*
X199093170Y-62835965D01*
X198899598Y-62971505D01*
X198732505Y-63138598D01*
X198622575Y-63295596D01*
X198578257Y-63334462D01*
X198521000Y-63348473D01*
X198463743Y-63334462D01*
X198419425Y-63295596D01*
X198409920Y-63282021D01*
X198309495Y-63138599D01*
X198142401Y-62971505D01*
X197948830Y-62835965D01*
X197734663Y-62736097D01*
X197642010Y-62711271D01*
X197506407Y-62674936D01*
X197271000Y-62654340D01*
X197035592Y-62674936D01*
X196807336Y-62736097D01*
X196593170Y-62835965D01*
X196399601Y-62971503D01*
X196252398Y-63118706D01*
X196205428Y-63148151D01*
X196150321Y-63154185D01*
X196098091Y-63135604D01*
X196059178Y-63096120D01*
X195963711Y-62941342D01*
X195839657Y-62817288D01*
X195690334Y-62725186D01*
X195523797Y-62670000D01*
X195421009Y-62659500D01*
X194120991Y-62659500D01*
X194018203Y-62670000D01*
X193851665Y-62725186D01*
X193702342Y-62817288D01*
X193578288Y-62941342D01*
X193486186Y-63090665D01*
X193431000Y-63257202D01*
X193420500Y-63359990D01*
X193420500Y-64910008D01*
X189518458Y-64910008D01*
X189539741Y-64830578D01*
X189546100Y-64749778D01*
X189546100Y-63520222D01*
X189539741Y-63439422D01*
X189489388Y-63251504D01*
X189401065Y-63078160D01*
X189278632Y-62926968D01*
X189127440Y-62804535D01*
X189091061Y-62785999D01*
X188954095Y-62716211D01*
X188800053Y-62674936D01*
X188766178Y-62665859D01*
X188685378Y-62659500D01*
X187705822Y-62659500D01*
X187625022Y-62665858D01*
X187625022Y-62665859D01*
X187437104Y-62716211D01*
X187263759Y-62804535D01*
X187112568Y-62926968D01*
X186990133Y-63078161D01*
X186958158Y-63140916D01*
X186916113Y-63188023D01*
X186856323Y-63208318D01*
X186794290Y-63196540D01*
X186746099Y-63155743D01*
X186734094Y-63138598D01*
X186567004Y-62971508D01*
X186567001Y-62971505D01*
X186373430Y-62835965D01*
X186159263Y-62736097D01*
X186066610Y-62711271D01*
X185931007Y-62674936D01*
X185695600Y-62654340D01*
X185460192Y-62674936D01*
X185231936Y-62736097D01*
X185017770Y-62835965D01*
X184824198Y-62971505D01*
X184657105Y-63138598D01*
X184547175Y-63295596D01*
X184502857Y-63334462D01*
X184445600Y-63348473D01*
X184388343Y-63334462D01*
X184344025Y-63295596D01*
X184334520Y-63282021D01*
X184234095Y-63138599D01*
X184067001Y-62971505D01*
X183873430Y-62835965D01*
X183659263Y-62736097D01*
X183566610Y-62711271D01*
X183431007Y-62674936D01*
X183195600Y-62654340D01*
X182960192Y-62674936D01*
X182731936Y-62736097D01*
X182517770Y-62835965D01*
X182324198Y-62971505D01*
X182157105Y-63138598D01*
X182047175Y-63295596D01*
X182002857Y-63334462D01*
X181945600Y-63348473D01*
X181888343Y-63334462D01*
X181844025Y-63295596D01*
X181834520Y-63282021D01*
X181734095Y-63138599D01*
X181567001Y-62971505D01*
X181373430Y-62835965D01*
X181159263Y-62736097D01*
X181066610Y-62711271D01*
X180931007Y-62674936D01*
X180695600Y-62654340D01*
X180460192Y-62674936D01*
X180231936Y-62736097D01*
X180017770Y-62835965D01*
X179824198Y-62971505D01*
X179657105Y-63138598D01*
X179521565Y-63332170D01*
X179421697Y-63546336D01*
X179360536Y-63774592D01*
X179345100Y-63951032D01*
X179345100Y-64318968D01*
X174146400Y-64318968D01*
X174146400Y-62628964D01*
X174646400Y-62628964D01*
X174646400Y-63859600D01*
X175742807Y-63859600D01*
X175742807Y-63859599D01*
X175730969Y-63724281D01*
X175669830Y-63496107D01*
X175569999Y-63282021D01*
X175434509Y-63088521D01*
X175267481Y-62921493D01*
X175073976Y-62785999D01*
X174859892Y-62686169D01*
X174646400Y-62628964D01*
X174146400Y-62628964D01*
X174146399Y-62628964D01*
X173932907Y-62686169D01*
X173718821Y-62786000D01*
X173525324Y-62921488D01*
X173378068Y-63068744D01*
X173331098Y-63098189D01*
X173275991Y-63104223D01*
X173223761Y-63085642D01*
X173184848Y-63046158D01*
X173089111Y-62890942D01*
X172965057Y-62766888D01*
X172815734Y-62674786D01*
X172649197Y-62619600D01*
X172546409Y-62609100D01*
X171246391Y-62609100D01*
X171143603Y-62619600D01*
X170977065Y-62674786D01*
X170827742Y-62766888D01*
X170703688Y-62890942D01*
X170611586Y-63040265D01*
X170556400Y-63206802D01*
X170545900Y-63309590D01*
X170545900Y-64909608D01*
X168902499Y-64909608D01*
X168902499Y-64697728D01*
X168896091Y-64638117D01*
X168845796Y-64503269D01*
X168759546Y-64388054D01*
X168644331Y-64301804D01*
X168509483Y-64251509D01*
X168449873Y-64245100D01*
X168449869Y-64245100D01*
X166830130Y-64245100D01*
X166770515Y-64251509D01*
X166635669Y-64301804D01*
X166520454Y-64388054D01*
X166434204Y-64503268D01*
X166383909Y-64638116D01*
X166377500Y-64697730D01*
X166377500Y-66317469D01*
X149501995Y-66317469D01*
X149502000Y-66317424D01*
X149502000Y-65757600D01*
X148490000Y-65757600D01*
X147990000Y-65757600D01*
X146978000Y-65757600D01*
X146710400Y-65757600D01*
X146710400Y-65257600D01*
X146978000Y-65257600D01*
X147990000Y-65257600D01*
X147990000Y-64245600D01*
X148490000Y-64245600D01*
X148490000Y-65257600D01*
X149502000Y-65257600D01*
X149502000Y-64697776D01*
X149495597Y-64638224D01*
X149445352Y-64503510D01*
X149359188Y-64388411D01*
X149244089Y-64302247D01*
X149109375Y-64252002D01*
X149049824Y-64245600D01*
X148490000Y-64245600D01*
X147990000Y-64245600D01*
X147430176Y-64245600D01*
X147370624Y-64252002D01*
X147235910Y-64302247D01*
X147120811Y-64388411D01*
X147034647Y-64503510D01*
X146984402Y-64638224D01*
X146978000Y-64697776D01*
X146978000Y-65257600D01*
X146710400Y-65257600D01*
X146710400Y-61084500D01*
X146727013Y-61022500D01*
X146772400Y-60977113D01*
X146834400Y-60960500D01*
X246560500Y-60960500D01*
X246622500Y-60977113D01*
G37*
%TD.AperFunction*%
%TD*%
M02*
