%TF.GenerationSoftware,KiCad,Pcbnew,7.0.1*%
%TF.CreationDate,2024-03-29T16:21:10+01:00*%
%TF.ProjectId,carte_generale,63617274-655f-4676-956e-6572616c652e,Cyril_ Eliott*%
%TF.SameCoordinates,Original*%
%TF.FileFunction,Drillmap*%
%TF.FilePolarity,Positive*%
%FSLAX45Y45*%
G04 Gerber Fmt 4.5, Leading zero omitted, Abs format (unit mm)*
G04 Created by KiCad (PCBNEW 7.0.1) date 2024-03-29 16:21:10*
%MOMM*%
%LPD*%
G01*
G04 APERTURE LIST*
%ADD10C,0.100000*%
%ADD11C,0.200000*%
%ADD12C,0.300000*%
G04 APERTURE END LIST*
D10*
X14668500Y-6096000D02*
X24668500Y-6096000D01*
X24668500Y-11096000D01*
X14668500Y-11096000D01*
X14668500Y-6096000D01*
D11*
D12*
X19350000Y-7450000D02*
X19650000Y-7750000D01*
X19650000Y-7450000D02*
X19350000Y-7750000D01*
X19350000Y-10450000D02*
X19650000Y-10750000D01*
X19650000Y-10450000D02*
X19350000Y-10750000D01*
D11*
X14911119Y-11413524D02*
X14911119Y-11213524D01*
X14911119Y-11213524D02*
X14958738Y-11213524D01*
X14958738Y-11213524D02*
X14987309Y-11223048D01*
X14987309Y-11223048D02*
X15006357Y-11242095D01*
X15006357Y-11242095D02*
X15015881Y-11261143D01*
X15015881Y-11261143D02*
X15025405Y-11299238D01*
X15025405Y-11299238D02*
X15025405Y-11327809D01*
X15025405Y-11327809D02*
X15015881Y-11365905D01*
X15015881Y-11365905D02*
X15006357Y-11384952D01*
X15006357Y-11384952D02*
X14987309Y-11404000D01*
X14987309Y-11404000D02*
X14958738Y-11413524D01*
X14958738Y-11413524D02*
X14911119Y-11413524D01*
X15111119Y-11413524D02*
X15111119Y-11280190D01*
X15111119Y-11318286D02*
X15120643Y-11299238D01*
X15120643Y-11299238D02*
X15130167Y-11289714D01*
X15130167Y-11289714D02*
X15149214Y-11280190D01*
X15149214Y-11280190D02*
X15168262Y-11280190D01*
X15234928Y-11413524D02*
X15234928Y-11280190D01*
X15234928Y-11213524D02*
X15225405Y-11223048D01*
X15225405Y-11223048D02*
X15234928Y-11232571D01*
X15234928Y-11232571D02*
X15244452Y-11223048D01*
X15244452Y-11223048D02*
X15234928Y-11213524D01*
X15234928Y-11213524D02*
X15234928Y-11232571D01*
X15358738Y-11413524D02*
X15339690Y-11404000D01*
X15339690Y-11404000D02*
X15330167Y-11384952D01*
X15330167Y-11384952D02*
X15330167Y-11213524D01*
X15463500Y-11413524D02*
X15444452Y-11404000D01*
X15444452Y-11404000D02*
X15434928Y-11384952D01*
X15434928Y-11384952D02*
X15434928Y-11213524D01*
X15692071Y-11413524D02*
X15692071Y-11213524D01*
X15692071Y-11213524D02*
X15758738Y-11356381D01*
X15758738Y-11356381D02*
X15825405Y-11213524D01*
X15825405Y-11213524D02*
X15825405Y-11413524D01*
X16006357Y-11413524D02*
X16006357Y-11308762D01*
X16006357Y-11308762D02*
X15996833Y-11289714D01*
X15996833Y-11289714D02*
X15977786Y-11280190D01*
X15977786Y-11280190D02*
X15939690Y-11280190D01*
X15939690Y-11280190D02*
X15920643Y-11289714D01*
X16006357Y-11404000D02*
X15987309Y-11413524D01*
X15987309Y-11413524D02*
X15939690Y-11413524D01*
X15939690Y-11413524D02*
X15920643Y-11404000D01*
X15920643Y-11404000D02*
X15911119Y-11384952D01*
X15911119Y-11384952D02*
X15911119Y-11365905D01*
X15911119Y-11365905D02*
X15920643Y-11346857D01*
X15920643Y-11346857D02*
X15939690Y-11337333D01*
X15939690Y-11337333D02*
X15987309Y-11337333D01*
X15987309Y-11337333D02*
X16006357Y-11327809D01*
X16101595Y-11280190D02*
X16101595Y-11480190D01*
X16101595Y-11289714D02*
X16120643Y-11280190D01*
X16120643Y-11280190D02*
X16158738Y-11280190D01*
X16158738Y-11280190D02*
X16177786Y-11289714D01*
X16177786Y-11289714D02*
X16187309Y-11299238D01*
X16187309Y-11299238D02*
X16196833Y-11318286D01*
X16196833Y-11318286D02*
X16196833Y-11375428D01*
X16196833Y-11375428D02*
X16187309Y-11394476D01*
X16187309Y-11394476D02*
X16177786Y-11404000D01*
X16177786Y-11404000D02*
X16158738Y-11413524D01*
X16158738Y-11413524D02*
X16120643Y-11413524D01*
X16120643Y-11413524D02*
X16101595Y-11404000D01*
X16282548Y-11394476D02*
X16292071Y-11404000D01*
X16292071Y-11404000D02*
X16282548Y-11413524D01*
X16282548Y-11413524D02*
X16273024Y-11404000D01*
X16273024Y-11404000D02*
X16282548Y-11394476D01*
X16282548Y-11394476D02*
X16282548Y-11413524D01*
X16282548Y-11289714D02*
X16292071Y-11299238D01*
X16292071Y-11299238D02*
X16282548Y-11308762D01*
X16282548Y-11308762D02*
X16273024Y-11299238D01*
X16273024Y-11299238D02*
X16282548Y-11289714D01*
X16282548Y-11289714D02*
X16282548Y-11308762D01*
X14463500Y-11641000D02*
X14663500Y-11841000D01*
X14663500Y-11641000D02*
X14463500Y-11841000D01*
X14892071Y-11633524D02*
X15015881Y-11633524D01*
X15015881Y-11633524D02*
X14949214Y-11709714D01*
X14949214Y-11709714D02*
X14977786Y-11709714D01*
X14977786Y-11709714D02*
X14996833Y-11719238D01*
X14996833Y-11719238D02*
X15006357Y-11728762D01*
X15006357Y-11728762D02*
X15015881Y-11747809D01*
X15015881Y-11747809D02*
X15015881Y-11795428D01*
X15015881Y-11795428D02*
X15006357Y-11814476D01*
X15006357Y-11814476D02*
X14996833Y-11824000D01*
X14996833Y-11824000D02*
X14977786Y-11833524D01*
X14977786Y-11833524D02*
X14920643Y-11833524D01*
X14920643Y-11833524D02*
X14901595Y-11824000D01*
X14901595Y-11824000D02*
X14892071Y-11814476D01*
X15101595Y-11814476D02*
X15111119Y-11824000D01*
X15111119Y-11824000D02*
X15101595Y-11833524D01*
X15101595Y-11833524D02*
X15092071Y-11824000D01*
X15092071Y-11824000D02*
X15101595Y-11814476D01*
X15101595Y-11814476D02*
X15101595Y-11833524D01*
X15234928Y-11633524D02*
X15253976Y-11633524D01*
X15253976Y-11633524D02*
X15273024Y-11643048D01*
X15273024Y-11643048D02*
X15282548Y-11652571D01*
X15282548Y-11652571D02*
X15292071Y-11671619D01*
X15292071Y-11671619D02*
X15301595Y-11709714D01*
X15301595Y-11709714D02*
X15301595Y-11757333D01*
X15301595Y-11757333D02*
X15292071Y-11795428D01*
X15292071Y-11795428D02*
X15282548Y-11814476D01*
X15282548Y-11814476D02*
X15273024Y-11824000D01*
X15273024Y-11824000D02*
X15253976Y-11833524D01*
X15253976Y-11833524D02*
X15234928Y-11833524D01*
X15234928Y-11833524D02*
X15215881Y-11824000D01*
X15215881Y-11824000D02*
X15206357Y-11814476D01*
X15206357Y-11814476D02*
X15196833Y-11795428D01*
X15196833Y-11795428D02*
X15187309Y-11757333D01*
X15187309Y-11757333D02*
X15187309Y-11709714D01*
X15187309Y-11709714D02*
X15196833Y-11671619D01*
X15196833Y-11671619D02*
X15206357Y-11652571D01*
X15206357Y-11652571D02*
X15215881Y-11643048D01*
X15215881Y-11643048D02*
X15234928Y-11633524D01*
X15425405Y-11633524D02*
X15444452Y-11633524D01*
X15444452Y-11633524D02*
X15463500Y-11643048D01*
X15463500Y-11643048D02*
X15473024Y-11652571D01*
X15473024Y-11652571D02*
X15482548Y-11671619D01*
X15482548Y-11671619D02*
X15492071Y-11709714D01*
X15492071Y-11709714D02*
X15492071Y-11757333D01*
X15492071Y-11757333D02*
X15482548Y-11795428D01*
X15482548Y-11795428D02*
X15473024Y-11814476D01*
X15473024Y-11814476D02*
X15463500Y-11824000D01*
X15463500Y-11824000D02*
X15444452Y-11833524D01*
X15444452Y-11833524D02*
X15425405Y-11833524D01*
X15425405Y-11833524D02*
X15406357Y-11824000D01*
X15406357Y-11824000D02*
X15396833Y-11814476D01*
X15396833Y-11814476D02*
X15387309Y-11795428D01*
X15387309Y-11795428D02*
X15377786Y-11757333D01*
X15377786Y-11757333D02*
X15377786Y-11709714D01*
X15377786Y-11709714D02*
X15387309Y-11671619D01*
X15387309Y-11671619D02*
X15396833Y-11652571D01*
X15396833Y-11652571D02*
X15406357Y-11643048D01*
X15406357Y-11643048D02*
X15425405Y-11633524D01*
X15615881Y-11633524D02*
X15634929Y-11633524D01*
X15634929Y-11633524D02*
X15653976Y-11643048D01*
X15653976Y-11643048D02*
X15663500Y-11652571D01*
X15663500Y-11652571D02*
X15673024Y-11671619D01*
X15673024Y-11671619D02*
X15682548Y-11709714D01*
X15682548Y-11709714D02*
X15682548Y-11757333D01*
X15682548Y-11757333D02*
X15673024Y-11795428D01*
X15673024Y-11795428D02*
X15663500Y-11814476D01*
X15663500Y-11814476D02*
X15653976Y-11824000D01*
X15653976Y-11824000D02*
X15634929Y-11833524D01*
X15634929Y-11833524D02*
X15615881Y-11833524D01*
X15615881Y-11833524D02*
X15596833Y-11824000D01*
X15596833Y-11824000D02*
X15587309Y-11814476D01*
X15587309Y-11814476D02*
X15577786Y-11795428D01*
X15577786Y-11795428D02*
X15568262Y-11757333D01*
X15568262Y-11757333D02*
X15568262Y-11709714D01*
X15568262Y-11709714D02*
X15577786Y-11671619D01*
X15577786Y-11671619D02*
X15587309Y-11652571D01*
X15587309Y-11652571D02*
X15596833Y-11643048D01*
X15596833Y-11643048D02*
X15615881Y-11633524D01*
X15768262Y-11833524D02*
X15768262Y-11700190D01*
X15768262Y-11719238D02*
X15777786Y-11709714D01*
X15777786Y-11709714D02*
X15796833Y-11700190D01*
X15796833Y-11700190D02*
X15825405Y-11700190D01*
X15825405Y-11700190D02*
X15844452Y-11709714D01*
X15844452Y-11709714D02*
X15853976Y-11728762D01*
X15853976Y-11728762D02*
X15853976Y-11833524D01*
X15853976Y-11728762D02*
X15863500Y-11709714D01*
X15863500Y-11709714D02*
X15882548Y-11700190D01*
X15882548Y-11700190D02*
X15911119Y-11700190D01*
X15911119Y-11700190D02*
X15930167Y-11709714D01*
X15930167Y-11709714D02*
X15939690Y-11728762D01*
X15939690Y-11728762D02*
X15939690Y-11833524D01*
X16034929Y-11833524D02*
X16034929Y-11700190D01*
X16034929Y-11719238D02*
X16044452Y-11709714D01*
X16044452Y-11709714D02*
X16063500Y-11700190D01*
X16063500Y-11700190D02*
X16092071Y-11700190D01*
X16092071Y-11700190D02*
X16111119Y-11709714D01*
X16111119Y-11709714D02*
X16120643Y-11728762D01*
X16120643Y-11728762D02*
X16120643Y-11833524D01*
X16120643Y-11728762D02*
X16130167Y-11709714D01*
X16130167Y-11709714D02*
X16149214Y-11700190D01*
X16149214Y-11700190D02*
X16177786Y-11700190D01*
X16177786Y-11700190D02*
X16196833Y-11709714D01*
X16196833Y-11709714D02*
X16206357Y-11728762D01*
X16206357Y-11728762D02*
X16206357Y-11833524D01*
X16596833Y-11624000D02*
X16425405Y-11881143D01*
X16853976Y-11633524D02*
X16873024Y-11633524D01*
X16873024Y-11633524D02*
X16892072Y-11643048D01*
X16892072Y-11643048D02*
X16901595Y-11652571D01*
X16901595Y-11652571D02*
X16911119Y-11671619D01*
X16911119Y-11671619D02*
X16920643Y-11709714D01*
X16920643Y-11709714D02*
X16920643Y-11757333D01*
X16920643Y-11757333D02*
X16911119Y-11795428D01*
X16911119Y-11795428D02*
X16901595Y-11814476D01*
X16901595Y-11814476D02*
X16892072Y-11824000D01*
X16892072Y-11824000D02*
X16873024Y-11833524D01*
X16873024Y-11833524D02*
X16853976Y-11833524D01*
X16853976Y-11833524D02*
X16834929Y-11824000D01*
X16834929Y-11824000D02*
X16825405Y-11814476D01*
X16825405Y-11814476D02*
X16815881Y-11795428D01*
X16815881Y-11795428D02*
X16806357Y-11757333D01*
X16806357Y-11757333D02*
X16806357Y-11709714D01*
X16806357Y-11709714D02*
X16815881Y-11671619D01*
X16815881Y-11671619D02*
X16825405Y-11652571D01*
X16825405Y-11652571D02*
X16834929Y-11643048D01*
X16834929Y-11643048D02*
X16853976Y-11633524D01*
X17006357Y-11814476D02*
X17015881Y-11824000D01*
X17015881Y-11824000D02*
X17006357Y-11833524D01*
X17006357Y-11833524D02*
X16996834Y-11824000D01*
X16996834Y-11824000D02*
X17006357Y-11814476D01*
X17006357Y-11814476D02*
X17006357Y-11833524D01*
X17206357Y-11833524D02*
X17092072Y-11833524D01*
X17149214Y-11833524D02*
X17149214Y-11633524D01*
X17149214Y-11633524D02*
X17130167Y-11662095D01*
X17130167Y-11662095D02*
X17111119Y-11681143D01*
X17111119Y-11681143D02*
X17092072Y-11690667D01*
X17396834Y-11833524D02*
X17282548Y-11833524D01*
X17339691Y-11833524D02*
X17339691Y-11633524D01*
X17339691Y-11633524D02*
X17320643Y-11662095D01*
X17320643Y-11662095D02*
X17301595Y-11681143D01*
X17301595Y-11681143D02*
X17282548Y-11690667D01*
X17511119Y-11719238D02*
X17492072Y-11709714D01*
X17492072Y-11709714D02*
X17482548Y-11700190D01*
X17482548Y-11700190D02*
X17473024Y-11681143D01*
X17473024Y-11681143D02*
X17473024Y-11671619D01*
X17473024Y-11671619D02*
X17482548Y-11652571D01*
X17482548Y-11652571D02*
X17492072Y-11643048D01*
X17492072Y-11643048D02*
X17511119Y-11633524D01*
X17511119Y-11633524D02*
X17549215Y-11633524D01*
X17549215Y-11633524D02*
X17568262Y-11643048D01*
X17568262Y-11643048D02*
X17577786Y-11652571D01*
X17577786Y-11652571D02*
X17587310Y-11671619D01*
X17587310Y-11671619D02*
X17587310Y-11681143D01*
X17587310Y-11681143D02*
X17577786Y-11700190D01*
X17577786Y-11700190D02*
X17568262Y-11709714D01*
X17568262Y-11709714D02*
X17549215Y-11719238D01*
X17549215Y-11719238D02*
X17511119Y-11719238D01*
X17511119Y-11719238D02*
X17492072Y-11728762D01*
X17492072Y-11728762D02*
X17482548Y-11738286D01*
X17482548Y-11738286D02*
X17473024Y-11757333D01*
X17473024Y-11757333D02*
X17473024Y-11795428D01*
X17473024Y-11795428D02*
X17482548Y-11814476D01*
X17482548Y-11814476D02*
X17492072Y-11824000D01*
X17492072Y-11824000D02*
X17511119Y-11833524D01*
X17511119Y-11833524D02*
X17549215Y-11833524D01*
X17549215Y-11833524D02*
X17568262Y-11824000D01*
X17568262Y-11824000D02*
X17577786Y-11814476D01*
X17577786Y-11814476D02*
X17587310Y-11795428D01*
X17587310Y-11795428D02*
X17587310Y-11757333D01*
X17587310Y-11757333D02*
X17577786Y-11738286D01*
X17577786Y-11738286D02*
X17568262Y-11728762D01*
X17568262Y-11728762D02*
X17549215Y-11719238D01*
X17777786Y-11833524D02*
X17663500Y-11833524D01*
X17720643Y-11833524D02*
X17720643Y-11633524D01*
X17720643Y-11633524D02*
X17701595Y-11662095D01*
X17701595Y-11662095D02*
X17682548Y-11681143D01*
X17682548Y-11681143D02*
X17663500Y-11690667D01*
X17853976Y-11633524D02*
X17853976Y-11671619D01*
X17930167Y-11633524D02*
X17930167Y-11671619D01*
X18225405Y-11909714D02*
X18215881Y-11900190D01*
X18215881Y-11900190D02*
X18196834Y-11871619D01*
X18196834Y-11871619D02*
X18187310Y-11852571D01*
X18187310Y-11852571D02*
X18177786Y-11824000D01*
X18177786Y-11824000D02*
X18168262Y-11776381D01*
X18168262Y-11776381D02*
X18168262Y-11738286D01*
X18168262Y-11738286D02*
X18177786Y-11690667D01*
X18177786Y-11690667D02*
X18187310Y-11662095D01*
X18187310Y-11662095D02*
X18196834Y-11643048D01*
X18196834Y-11643048D02*
X18215881Y-11614476D01*
X18215881Y-11614476D02*
X18225405Y-11604952D01*
X18292072Y-11652571D02*
X18301596Y-11643048D01*
X18301596Y-11643048D02*
X18320643Y-11633524D01*
X18320643Y-11633524D02*
X18368262Y-11633524D01*
X18368262Y-11633524D02*
X18387310Y-11643048D01*
X18387310Y-11643048D02*
X18396834Y-11652571D01*
X18396834Y-11652571D02*
X18406357Y-11671619D01*
X18406357Y-11671619D02*
X18406357Y-11690667D01*
X18406357Y-11690667D02*
X18396834Y-11719238D01*
X18396834Y-11719238D02*
X18282548Y-11833524D01*
X18282548Y-11833524D02*
X18406357Y-11833524D01*
X18644453Y-11833524D02*
X18644453Y-11633524D01*
X18730167Y-11833524D02*
X18730167Y-11728762D01*
X18730167Y-11728762D02*
X18720643Y-11709714D01*
X18720643Y-11709714D02*
X18701596Y-11700190D01*
X18701596Y-11700190D02*
X18673024Y-11700190D01*
X18673024Y-11700190D02*
X18653977Y-11709714D01*
X18653977Y-11709714D02*
X18644453Y-11719238D01*
X18853977Y-11833524D02*
X18834929Y-11824000D01*
X18834929Y-11824000D02*
X18825405Y-11814476D01*
X18825405Y-11814476D02*
X18815881Y-11795428D01*
X18815881Y-11795428D02*
X18815881Y-11738286D01*
X18815881Y-11738286D02*
X18825405Y-11719238D01*
X18825405Y-11719238D02*
X18834929Y-11709714D01*
X18834929Y-11709714D02*
X18853977Y-11700190D01*
X18853977Y-11700190D02*
X18882548Y-11700190D01*
X18882548Y-11700190D02*
X18901596Y-11709714D01*
X18901596Y-11709714D02*
X18911119Y-11719238D01*
X18911119Y-11719238D02*
X18920643Y-11738286D01*
X18920643Y-11738286D02*
X18920643Y-11795428D01*
X18920643Y-11795428D02*
X18911119Y-11814476D01*
X18911119Y-11814476D02*
X18901596Y-11824000D01*
X18901596Y-11824000D02*
X18882548Y-11833524D01*
X18882548Y-11833524D02*
X18853977Y-11833524D01*
X19034929Y-11833524D02*
X19015881Y-11824000D01*
X19015881Y-11824000D02*
X19006358Y-11804952D01*
X19006358Y-11804952D02*
X19006358Y-11633524D01*
X19187310Y-11824000D02*
X19168262Y-11833524D01*
X19168262Y-11833524D02*
X19130167Y-11833524D01*
X19130167Y-11833524D02*
X19111119Y-11824000D01*
X19111119Y-11824000D02*
X19101596Y-11804952D01*
X19101596Y-11804952D02*
X19101596Y-11728762D01*
X19101596Y-11728762D02*
X19111119Y-11709714D01*
X19111119Y-11709714D02*
X19130167Y-11700190D01*
X19130167Y-11700190D02*
X19168262Y-11700190D01*
X19168262Y-11700190D02*
X19187310Y-11709714D01*
X19187310Y-11709714D02*
X19196834Y-11728762D01*
X19196834Y-11728762D02*
X19196834Y-11747809D01*
X19196834Y-11747809D02*
X19101596Y-11766857D01*
X19273024Y-11824000D02*
X19292072Y-11833524D01*
X19292072Y-11833524D02*
X19330167Y-11833524D01*
X19330167Y-11833524D02*
X19349215Y-11824000D01*
X19349215Y-11824000D02*
X19358739Y-11804952D01*
X19358739Y-11804952D02*
X19358739Y-11795428D01*
X19358739Y-11795428D02*
X19349215Y-11776381D01*
X19349215Y-11776381D02*
X19330167Y-11766857D01*
X19330167Y-11766857D02*
X19301596Y-11766857D01*
X19301596Y-11766857D02*
X19282548Y-11757333D01*
X19282548Y-11757333D02*
X19273024Y-11738286D01*
X19273024Y-11738286D02*
X19273024Y-11728762D01*
X19273024Y-11728762D02*
X19282548Y-11709714D01*
X19282548Y-11709714D02*
X19301596Y-11700190D01*
X19301596Y-11700190D02*
X19330167Y-11700190D01*
X19330167Y-11700190D02*
X19349215Y-11709714D01*
X19425405Y-11909714D02*
X19434929Y-11900190D01*
X19434929Y-11900190D02*
X19453977Y-11871619D01*
X19453977Y-11871619D02*
X19463500Y-11852571D01*
X19463500Y-11852571D02*
X19473024Y-11824000D01*
X19473024Y-11824000D02*
X19482548Y-11776381D01*
X19482548Y-11776381D02*
X19482548Y-11738286D01*
X19482548Y-11738286D02*
X19473024Y-11690667D01*
X19473024Y-11690667D02*
X19463500Y-11662095D01*
X19463500Y-11662095D02*
X19453977Y-11643048D01*
X19453977Y-11643048D02*
X19434929Y-11614476D01*
X19434929Y-11614476D02*
X19425405Y-11604952D01*
X19787310Y-11909714D02*
X19777786Y-11900190D01*
X19777786Y-11900190D02*
X19758739Y-11871619D01*
X19758739Y-11871619D02*
X19749215Y-11852571D01*
X19749215Y-11852571D02*
X19739691Y-11824000D01*
X19739691Y-11824000D02*
X19730167Y-11776381D01*
X19730167Y-11776381D02*
X19730167Y-11738286D01*
X19730167Y-11738286D02*
X19739691Y-11690667D01*
X19739691Y-11690667D02*
X19749215Y-11662095D01*
X19749215Y-11662095D02*
X19758739Y-11643048D01*
X19758739Y-11643048D02*
X19777786Y-11614476D01*
X19777786Y-11614476D02*
X19787310Y-11604952D01*
X19863500Y-11700190D02*
X19863500Y-11833524D01*
X19863500Y-11719238D02*
X19873024Y-11709714D01*
X19873024Y-11709714D02*
X19892072Y-11700190D01*
X19892072Y-11700190D02*
X19920643Y-11700190D01*
X19920643Y-11700190D02*
X19939691Y-11709714D01*
X19939691Y-11709714D02*
X19949215Y-11728762D01*
X19949215Y-11728762D02*
X19949215Y-11833524D01*
X20073024Y-11833524D02*
X20053977Y-11824000D01*
X20053977Y-11824000D02*
X20044453Y-11814476D01*
X20044453Y-11814476D02*
X20034929Y-11795428D01*
X20034929Y-11795428D02*
X20034929Y-11738286D01*
X20034929Y-11738286D02*
X20044453Y-11719238D01*
X20044453Y-11719238D02*
X20053977Y-11709714D01*
X20053977Y-11709714D02*
X20073024Y-11700190D01*
X20073024Y-11700190D02*
X20101596Y-11700190D01*
X20101596Y-11700190D02*
X20120643Y-11709714D01*
X20120643Y-11709714D02*
X20130167Y-11719238D01*
X20130167Y-11719238D02*
X20139691Y-11738286D01*
X20139691Y-11738286D02*
X20139691Y-11795428D01*
X20139691Y-11795428D02*
X20130167Y-11814476D01*
X20130167Y-11814476D02*
X20120643Y-11824000D01*
X20120643Y-11824000D02*
X20101596Y-11833524D01*
X20101596Y-11833524D02*
X20073024Y-11833524D01*
X20196834Y-11700190D02*
X20273024Y-11700190D01*
X20225405Y-11633524D02*
X20225405Y-11804952D01*
X20225405Y-11804952D02*
X20234929Y-11824000D01*
X20234929Y-11824000D02*
X20253977Y-11833524D01*
X20253977Y-11833524D02*
X20273024Y-11833524D01*
X20492072Y-11700190D02*
X20492072Y-11900190D01*
X20492072Y-11709714D02*
X20511120Y-11700190D01*
X20511120Y-11700190D02*
X20549215Y-11700190D01*
X20549215Y-11700190D02*
X20568262Y-11709714D01*
X20568262Y-11709714D02*
X20577786Y-11719238D01*
X20577786Y-11719238D02*
X20587310Y-11738286D01*
X20587310Y-11738286D02*
X20587310Y-11795428D01*
X20587310Y-11795428D02*
X20577786Y-11814476D01*
X20577786Y-11814476D02*
X20568262Y-11824000D01*
X20568262Y-11824000D02*
X20549215Y-11833524D01*
X20549215Y-11833524D02*
X20511120Y-11833524D01*
X20511120Y-11833524D02*
X20492072Y-11824000D01*
X20701596Y-11833524D02*
X20682548Y-11824000D01*
X20682548Y-11824000D02*
X20673024Y-11804952D01*
X20673024Y-11804952D02*
X20673024Y-11633524D01*
X20863501Y-11833524D02*
X20863501Y-11728762D01*
X20863501Y-11728762D02*
X20853977Y-11709714D01*
X20853977Y-11709714D02*
X20834929Y-11700190D01*
X20834929Y-11700190D02*
X20796834Y-11700190D01*
X20796834Y-11700190D02*
X20777786Y-11709714D01*
X20863501Y-11824000D02*
X20844453Y-11833524D01*
X20844453Y-11833524D02*
X20796834Y-11833524D01*
X20796834Y-11833524D02*
X20777786Y-11824000D01*
X20777786Y-11824000D02*
X20768262Y-11804952D01*
X20768262Y-11804952D02*
X20768262Y-11785905D01*
X20768262Y-11785905D02*
X20777786Y-11766857D01*
X20777786Y-11766857D02*
X20796834Y-11757333D01*
X20796834Y-11757333D02*
X20844453Y-11757333D01*
X20844453Y-11757333D02*
X20863501Y-11747809D01*
X20930167Y-11700190D02*
X21006358Y-11700190D01*
X20958739Y-11633524D02*
X20958739Y-11804952D01*
X20958739Y-11804952D02*
X20968262Y-11824000D01*
X20968262Y-11824000D02*
X20987310Y-11833524D01*
X20987310Y-11833524D02*
X21006358Y-11833524D01*
X21149215Y-11824000D02*
X21130167Y-11833524D01*
X21130167Y-11833524D02*
X21092072Y-11833524D01*
X21092072Y-11833524D02*
X21073024Y-11824000D01*
X21073024Y-11824000D02*
X21063501Y-11804952D01*
X21063501Y-11804952D02*
X21063501Y-11728762D01*
X21063501Y-11728762D02*
X21073024Y-11709714D01*
X21073024Y-11709714D02*
X21092072Y-11700190D01*
X21092072Y-11700190D02*
X21130167Y-11700190D01*
X21130167Y-11700190D02*
X21149215Y-11709714D01*
X21149215Y-11709714D02*
X21158739Y-11728762D01*
X21158739Y-11728762D02*
X21158739Y-11747809D01*
X21158739Y-11747809D02*
X21063501Y-11766857D01*
X21330167Y-11833524D02*
X21330167Y-11633524D01*
X21330167Y-11824000D02*
X21311120Y-11833524D01*
X21311120Y-11833524D02*
X21273024Y-11833524D01*
X21273024Y-11833524D02*
X21253977Y-11824000D01*
X21253977Y-11824000D02*
X21244453Y-11814476D01*
X21244453Y-11814476D02*
X21234929Y-11795428D01*
X21234929Y-11795428D02*
X21234929Y-11738286D01*
X21234929Y-11738286D02*
X21244453Y-11719238D01*
X21244453Y-11719238D02*
X21253977Y-11709714D01*
X21253977Y-11709714D02*
X21273024Y-11700190D01*
X21273024Y-11700190D02*
X21311120Y-11700190D01*
X21311120Y-11700190D02*
X21330167Y-11709714D01*
X21406358Y-11909714D02*
X21415882Y-11900190D01*
X21415882Y-11900190D02*
X21434929Y-11871619D01*
X21434929Y-11871619D02*
X21444453Y-11852571D01*
X21444453Y-11852571D02*
X21453977Y-11824000D01*
X21453977Y-11824000D02*
X21463501Y-11776381D01*
X21463501Y-11776381D02*
X21463501Y-11738286D01*
X21463501Y-11738286D02*
X21453977Y-11690667D01*
X21453977Y-11690667D02*
X21444453Y-11662095D01*
X21444453Y-11662095D02*
X21434929Y-11643048D01*
X21434929Y-11643048D02*
X21415882Y-11614476D01*
X21415882Y-11614476D02*
X21406358Y-11604952D01*
M02*
