%TF.GenerationSoftware,KiCad,Pcbnew,7.0.1*%
%TF.CreationDate,2024-03-29T16:21:28+01:00*%
%TF.ProjectId,carte_generale,63617274-655f-4676-956e-6572616c652e,Cyril_ Eliott*%
%TF.SameCoordinates,Original*%
%TF.FileFunction,Legend,Top*%
%TF.FilePolarity,Positive*%
%FSLAX46Y46*%
G04 Gerber Fmt 4.6, Leading zero omitted, Abs format (unit mm)*
G04 Created by KiCad (PCBNEW 7.0.1) date 2024-03-29 16:21:28*
%MOMM*%
%LPD*%
G01*
G04 APERTURE LIST*
%ADD10C,0.125000*%
%ADD11C,0.300000*%
%ADD12C,0.100000*%
%ADD13C,0.150000*%
%ADD14C,0.120000*%
%ADD15C,0.127000*%
%ADD16C,0.200000*%
G04 APERTURE END LIST*
D10*
X204694619Y-69469047D02*
X204670809Y-69516666D01*
X204670809Y-69516666D02*
X204670809Y-69588095D01*
X204670809Y-69588095D02*
X204694619Y-69659523D01*
X204694619Y-69659523D02*
X204742238Y-69707142D01*
X204742238Y-69707142D02*
X204789857Y-69730952D01*
X204789857Y-69730952D02*
X204885095Y-69754761D01*
X204885095Y-69754761D02*
X204956523Y-69754761D01*
X204956523Y-69754761D02*
X205051761Y-69730952D01*
X205051761Y-69730952D02*
X205099380Y-69707142D01*
X205099380Y-69707142D02*
X205147000Y-69659523D01*
X205147000Y-69659523D02*
X205170809Y-69588095D01*
X205170809Y-69588095D02*
X205170809Y-69540476D01*
X205170809Y-69540476D02*
X205147000Y-69469047D01*
X205147000Y-69469047D02*
X205123190Y-69445238D01*
X205123190Y-69445238D02*
X204956523Y-69445238D01*
X204956523Y-69445238D02*
X204956523Y-69540476D01*
X205170809Y-69230952D02*
X204670809Y-69230952D01*
X204670809Y-69230952D02*
X205170809Y-68945238D01*
X205170809Y-68945238D02*
X204670809Y-68945238D01*
X205170809Y-68707142D02*
X204670809Y-68707142D01*
X204670809Y-68707142D02*
X204670809Y-68588094D01*
X204670809Y-68588094D02*
X204694619Y-68516666D01*
X204694619Y-68516666D02*
X204742238Y-68469047D01*
X204742238Y-68469047D02*
X204789857Y-68445237D01*
X204789857Y-68445237D02*
X204885095Y-68421428D01*
X204885095Y-68421428D02*
X204956523Y-68421428D01*
X204956523Y-68421428D02*
X205051761Y-68445237D01*
X205051761Y-68445237D02*
X205099380Y-68469047D01*
X205099380Y-68469047D02*
X205147000Y-68516666D01*
X205147000Y-68516666D02*
X205170809Y-68588094D01*
X205170809Y-68588094D02*
X205170809Y-68707142D01*
X202003809Y-70667571D02*
X202503809Y-70334238D01*
X202003809Y-70334238D02*
X202503809Y-70667571D01*
X202480000Y-70167571D02*
X202503809Y-70096143D01*
X202503809Y-70096143D02*
X202503809Y-69977095D01*
X202503809Y-69977095D02*
X202480000Y-69929476D01*
X202480000Y-69929476D02*
X202456190Y-69905667D01*
X202456190Y-69905667D02*
X202408571Y-69881857D01*
X202408571Y-69881857D02*
X202360952Y-69881857D01*
X202360952Y-69881857D02*
X202313333Y-69905667D01*
X202313333Y-69905667D02*
X202289523Y-69929476D01*
X202289523Y-69929476D02*
X202265714Y-69977095D01*
X202265714Y-69977095D02*
X202241904Y-70072333D01*
X202241904Y-70072333D02*
X202218095Y-70119952D01*
X202218095Y-70119952D02*
X202194285Y-70143762D01*
X202194285Y-70143762D02*
X202146666Y-70167571D01*
X202146666Y-70167571D02*
X202099047Y-70167571D01*
X202099047Y-70167571D02*
X202051428Y-70143762D01*
X202051428Y-70143762D02*
X202027619Y-70119952D01*
X202027619Y-70119952D02*
X202003809Y-70072333D01*
X202003809Y-70072333D02*
X202003809Y-69953286D01*
X202003809Y-69953286D02*
X202027619Y-69881857D01*
X202503809Y-69667572D02*
X202003809Y-69667572D01*
X202003809Y-69667572D02*
X202003809Y-69548524D01*
X202003809Y-69548524D02*
X202027619Y-69477096D01*
X202027619Y-69477096D02*
X202075238Y-69429477D01*
X202075238Y-69429477D02*
X202122857Y-69405667D01*
X202122857Y-69405667D02*
X202218095Y-69381858D01*
X202218095Y-69381858D02*
X202289523Y-69381858D01*
X202289523Y-69381858D02*
X202384761Y-69405667D01*
X202384761Y-69405667D02*
X202432380Y-69429477D01*
X202432380Y-69429477D02*
X202480000Y-69477096D01*
X202480000Y-69477096D02*
X202503809Y-69548524D01*
X202503809Y-69548524D02*
X202503809Y-69667572D01*
X202503809Y-69167572D02*
X202003809Y-69167572D01*
X202003809Y-69167572D02*
X202503809Y-68881858D01*
X202503809Y-68881858D02*
X202003809Y-68881858D01*
X202051428Y-68667571D02*
X202027619Y-68643762D01*
X202027619Y-68643762D02*
X202003809Y-68596143D01*
X202003809Y-68596143D02*
X202003809Y-68477095D01*
X202003809Y-68477095D02*
X202027619Y-68429476D01*
X202027619Y-68429476D02*
X202051428Y-68405667D01*
X202051428Y-68405667D02*
X202099047Y-68381857D01*
X202099047Y-68381857D02*
X202146666Y-68381857D01*
X202146666Y-68381857D02*
X202218095Y-68405667D01*
X202218095Y-68405667D02*
X202503809Y-68691381D01*
X202503809Y-68691381D02*
X202503809Y-68381857D01*
X209772238Y-110659000D02*
X209843666Y-110682809D01*
X209843666Y-110682809D02*
X209962714Y-110682809D01*
X209962714Y-110682809D02*
X210010333Y-110659000D01*
X210010333Y-110659000D02*
X210034142Y-110635190D01*
X210034142Y-110635190D02*
X210057952Y-110587571D01*
X210057952Y-110587571D02*
X210057952Y-110539952D01*
X210057952Y-110539952D02*
X210034142Y-110492333D01*
X210034142Y-110492333D02*
X210010333Y-110468523D01*
X210010333Y-110468523D02*
X209962714Y-110444714D01*
X209962714Y-110444714D02*
X209867476Y-110420904D01*
X209867476Y-110420904D02*
X209819857Y-110397095D01*
X209819857Y-110397095D02*
X209796047Y-110373285D01*
X209796047Y-110373285D02*
X209772238Y-110325666D01*
X209772238Y-110325666D02*
X209772238Y-110278047D01*
X209772238Y-110278047D02*
X209796047Y-110230428D01*
X209796047Y-110230428D02*
X209819857Y-110206619D01*
X209819857Y-110206619D02*
X209867476Y-110182809D01*
X209867476Y-110182809D02*
X209986523Y-110182809D01*
X209986523Y-110182809D02*
X210057952Y-110206619D01*
X210272237Y-110420904D02*
X210438904Y-110420904D01*
X210510332Y-110682809D02*
X210272237Y-110682809D01*
X210272237Y-110682809D02*
X210272237Y-110182809D01*
X210272237Y-110182809D02*
X210510332Y-110182809D01*
X210962713Y-110682809D02*
X210724618Y-110682809D01*
X210724618Y-110682809D02*
X210724618Y-110182809D01*
X211010333Y-110730428D02*
X211391285Y-110730428D01*
X211510332Y-110420904D02*
X211676999Y-110420904D01*
X211748427Y-110682809D02*
X211510332Y-110682809D01*
X211510332Y-110682809D02*
X211510332Y-110182809D01*
X211510332Y-110182809D02*
X211748427Y-110182809D01*
X212296046Y-110730428D02*
X212248427Y-110706619D01*
X212248427Y-110706619D02*
X212200808Y-110659000D01*
X212200808Y-110659000D02*
X212129380Y-110587571D01*
X212129380Y-110587571D02*
X212081761Y-110563761D01*
X212081761Y-110563761D02*
X212034142Y-110563761D01*
X212057951Y-110682809D02*
X212010332Y-110659000D01*
X212010332Y-110659000D02*
X211962713Y-110611380D01*
X211962713Y-110611380D02*
X211938904Y-110516142D01*
X211938904Y-110516142D02*
X211938904Y-110349476D01*
X211938904Y-110349476D02*
X211962713Y-110254238D01*
X211962713Y-110254238D02*
X212010332Y-110206619D01*
X212010332Y-110206619D02*
X212057951Y-110182809D01*
X212057951Y-110182809D02*
X212153189Y-110182809D01*
X212153189Y-110182809D02*
X212200808Y-110206619D01*
X212200808Y-110206619D02*
X212248427Y-110254238D01*
X212248427Y-110254238D02*
X212272237Y-110349476D01*
X212272237Y-110349476D02*
X212272237Y-110516142D01*
X212272237Y-110516142D02*
X212248427Y-110611380D01*
X212248427Y-110611380D02*
X212200808Y-110659000D01*
X212200808Y-110659000D02*
X212153189Y-110682809D01*
X212153189Y-110682809D02*
X212057951Y-110682809D01*
X212486523Y-110182809D02*
X212486523Y-110587571D01*
X212486523Y-110587571D02*
X212510333Y-110635190D01*
X212510333Y-110635190D02*
X212534142Y-110659000D01*
X212534142Y-110659000D02*
X212581761Y-110682809D01*
X212581761Y-110682809D02*
X212676999Y-110682809D01*
X212676999Y-110682809D02*
X212724618Y-110659000D01*
X212724618Y-110659000D02*
X212748428Y-110635190D01*
X212748428Y-110635190D02*
X212772237Y-110587571D01*
X212772237Y-110587571D02*
X212772237Y-110182809D01*
X213010333Y-110682809D02*
X213010333Y-110182809D01*
X213248428Y-110682809D02*
X213248428Y-110182809D01*
X213248428Y-110182809D02*
X213438904Y-110182809D01*
X213438904Y-110182809D02*
X213486523Y-110206619D01*
X213486523Y-110206619D02*
X213510333Y-110230428D01*
X213510333Y-110230428D02*
X213534142Y-110278047D01*
X213534142Y-110278047D02*
X213534142Y-110349476D01*
X213534142Y-110349476D02*
X213510333Y-110397095D01*
X213510333Y-110397095D02*
X213486523Y-110420904D01*
X213486523Y-110420904D02*
X213438904Y-110444714D01*
X213438904Y-110444714D02*
X213248428Y-110444714D01*
X213748428Y-110420904D02*
X213915095Y-110420904D01*
X213986523Y-110682809D02*
X213748428Y-110682809D01*
X213748428Y-110682809D02*
X213748428Y-110182809D01*
X213748428Y-110182809D02*
X213986523Y-110182809D01*
D11*
X183864285Y-76431142D02*
X183150000Y-76431142D01*
X184007142Y-76002571D02*
X183507142Y-77502571D01*
X183507142Y-77502571D02*
X183007142Y-76002571D01*
X181864286Y-77002571D02*
X181864286Y-76002571D01*
X182221428Y-77574000D02*
X182578571Y-76502571D01*
X182578571Y-76502571D02*
X181650000Y-76502571D01*
X181007143Y-76002571D02*
X180721429Y-76002571D01*
X180721429Y-76002571D02*
X180578572Y-76074000D01*
X180578572Y-76074000D02*
X180507143Y-76145428D01*
X180507143Y-76145428D02*
X180364286Y-76359714D01*
X180364286Y-76359714D02*
X180292857Y-76645428D01*
X180292857Y-76645428D02*
X180292857Y-77216857D01*
X180292857Y-77216857D02*
X180364286Y-77359714D01*
X180364286Y-77359714D02*
X180435715Y-77431142D01*
X180435715Y-77431142D02*
X180578572Y-77502571D01*
X180578572Y-77502571D02*
X180864286Y-77502571D01*
X180864286Y-77502571D02*
X181007143Y-77431142D01*
X181007143Y-77431142D02*
X181078572Y-77359714D01*
X181078572Y-77359714D02*
X181150000Y-77216857D01*
X181150000Y-77216857D02*
X181150000Y-76859714D01*
X181150000Y-76859714D02*
X181078572Y-76716857D01*
X181078572Y-76716857D02*
X181007143Y-76645428D01*
X181007143Y-76645428D02*
X180864286Y-76574000D01*
X180864286Y-76574000D02*
X180578572Y-76574000D01*
X180578572Y-76574000D02*
X180435715Y-76645428D01*
X180435715Y-76645428D02*
X180364286Y-76716857D01*
X180364286Y-76716857D02*
X180292857Y-76859714D01*
X179435715Y-76859714D02*
X179578572Y-76931142D01*
X179578572Y-76931142D02*
X179650001Y-77002571D01*
X179650001Y-77002571D02*
X179721429Y-77145428D01*
X179721429Y-77145428D02*
X179721429Y-77216857D01*
X179721429Y-77216857D02*
X179650001Y-77359714D01*
X179650001Y-77359714D02*
X179578572Y-77431142D01*
X179578572Y-77431142D02*
X179435715Y-77502571D01*
X179435715Y-77502571D02*
X179150001Y-77502571D01*
X179150001Y-77502571D02*
X179007144Y-77431142D01*
X179007144Y-77431142D02*
X178935715Y-77359714D01*
X178935715Y-77359714D02*
X178864286Y-77216857D01*
X178864286Y-77216857D02*
X178864286Y-77145428D01*
X178864286Y-77145428D02*
X178935715Y-77002571D01*
X178935715Y-77002571D02*
X179007144Y-76931142D01*
X179007144Y-76931142D02*
X179150001Y-76859714D01*
X179150001Y-76859714D02*
X179435715Y-76859714D01*
X179435715Y-76859714D02*
X179578572Y-76788285D01*
X179578572Y-76788285D02*
X179650001Y-76716857D01*
X179650001Y-76716857D02*
X179721429Y-76574000D01*
X179721429Y-76574000D02*
X179721429Y-76288285D01*
X179721429Y-76288285D02*
X179650001Y-76145428D01*
X179650001Y-76145428D02*
X179578572Y-76074000D01*
X179578572Y-76074000D02*
X179435715Y-76002571D01*
X179435715Y-76002571D02*
X179150001Y-76002571D01*
X179150001Y-76002571D02*
X179007144Y-76074000D01*
X179007144Y-76074000D02*
X178935715Y-76145428D01*
X178935715Y-76145428D02*
X178864286Y-76288285D01*
X178864286Y-76288285D02*
X178864286Y-76574000D01*
X178864286Y-76574000D02*
X178935715Y-76716857D01*
X178935715Y-76716857D02*
X179007144Y-76788285D01*
X179007144Y-76788285D02*
X179150001Y-76859714D01*
X178007144Y-76859714D02*
X178150001Y-76931142D01*
X178150001Y-76931142D02*
X178221430Y-77002571D01*
X178221430Y-77002571D02*
X178292858Y-77145428D01*
X178292858Y-77145428D02*
X178292858Y-77216857D01*
X178292858Y-77216857D02*
X178221430Y-77359714D01*
X178221430Y-77359714D02*
X178150001Y-77431142D01*
X178150001Y-77431142D02*
X178007144Y-77502571D01*
X178007144Y-77502571D02*
X177721430Y-77502571D01*
X177721430Y-77502571D02*
X177578573Y-77431142D01*
X177578573Y-77431142D02*
X177507144Y-77359714D01*
X177507144Y-77359714D02*
X177435715Y-77216857D01*
X177435715Y-77216857D02*
X177435715Y-77145428D01*
X177435715Y-77145428D02*
X177507144Y-77002571D01*
X177507144Y-77002571D02*
X177578573Y-76931142D01*
X177578573Y-76931142D02*
X177721430Y-76859714D01*
X177721430Y-76859714D02*
X178007144Y-76859714D01*
X178007144Y-76859714D02*
X178150001Y-76788285D01*
X178150001Y-76788285D02*
X178221430Y-76716857D01*
X178221430Y-76716857D02*
X178292858Y-76574000D01*
X178292858Y-76574000D02*
X178292858Y-76288285D01*
X178292858Y-76288285D02*
X178221430Y-76145428D01*
X178221430Y-76145428D02*
X178150001Y-76074000D01*
X178150001Y-76074000D02*
X178007144Y-76002571D01*
X178007144Y-76002571D02*
X177721430Y-76002571D01*
X177721430Y-76002571D02*
X177578573Y-76074000D01*
X177578573Y-76074000D02*
X177507144Y-76145428D01*
X177507144Y-76145428D02*
X177435715Y-76288285D01*
X177435715Y-76288285D02*
X177435715Y-76574000D01*
X177435715Y-76574000D02*
X177507144Y-76716857D01*
X177507144Y-76716857D02*
X177578573Y-76788285D01*
X177578573Y-76788285D02*
X177721430Y-76859714D01*
D10*
X205009714Y-110420904D02*
X205081142Y-110444714D01*
X205081142Y-110444714D02*
X205104952Y-110468523D01*
X205104952Y-110468523D02*
X205128761Y-110516142D01*
X205128761Y-110516142D02*
X205128761Y-110587571D01*
X205128761Y-110587571D02*
X205104952Y-110635190D01*
X205104952Y-110635190D02*
X205081142Y-110659000D01*
X205081142Y-110659000D02*
X205033523Y-110682809D01*
X205033523Y-110682809D02*
X204843047Y-110682809D01*
X204843047Y-110682809D02*
X204843047Y-110182809D01*
X204843047Y-110182809D02*
X205009714Y-110182809D01*
X205009714Y-110182809D02*
X205057333Y-110206619D01*
X205057333Y-110206619D02*
X205081142Y-110230428D01*
X205081142Y-110230428D02*
X205104952Y-110278047D01*
X205104952Y-110278047D02*
X205104952Y-110325666D01*
X205104952Y-110325666D02*
X205081142Y-110373285D01*
X205081142Y-110373285D02*
X205057333Y-110397095D01*
X205057333Y-110397095D02*
X205009714Y-110420904D01*
X205009714Y-110420904D02*
X204843047Y-110420904D01*
X205319238Y-110230428D02*
X205343047Y-110206619D01*
X205343047Y-110206619D02*
X205390666Y-110182809D01*
X205390666Y-110182809D02*
X205509714Y-110182809D01*
X205509714Y-110182809D02*
X205557333Y-110206619D01*
X205557333Y-110206619D02*
X205581142Y-110230428D01*
X205581142Y-110230428D02*
X205604952Y-110278047D01*
X205604952Y-110278047D02*
X205604952Y-110325666D01*
X205604952Y-110325666D02*
X205581142Y-110397095D01*
X205581142Y-110397095D02*
X205295428Y-110682809D01*
X205295428Y-110682809D02*
X205604952Y-110682809D01*
X185896285Y-68522095D02*
X185824857Y-68498285D01*
X185824857Y-68498285D02*
X185801047Y-68474476D01*
X185801047Y-68474476D02*
X185777238Y-68426857D01*
X185777238Y-68426857D02*
X185777238Y-68355428D01*
X185777238Y-68355428D02*
X185801047Y-68307809D01*
X185801047Y-68307809D02*
X185824857Y-68284000D01*
X185824857Y-68284000D02*
X185872476Y-68260190D01*
X185872476Y-68260190D02*
X186062952Y-68260190D01*
X186062952Y-68260190D02*
X186062952Y-68760190D01*
X186062952Y-68760190D02*
X185896285Y-68760190D01*
X185896285Y-68760190D02*
X185848666Y-68736380D01*
X185848666Y-68736380D02*
X185824857Y-68712571D01*
X185824857Y-68712571D02*
X185801047Y-68664952D01*
X185801047Y-68664952D02*
X185801047Y-68617333D01*
X185801047Y-68617333D02*
X185824857Y-68569714D01*
X185824857Y-68569714D02*
X185848666Y-68545904D01*
X185848666Y-68545904D02*
X185896285Y-68522095D01*
X185896285Y-68522095D02*
X186062952Y-68522095D01*
X185562952Y-68450666D02*
X185182000Y-68450666D01*
X185372476Y-68260190D02*
X185372476Y-68641142D01*
X200090809Y-71635952D02*
X199590809Y-71635952D01*
X199638428Y-71421666D02*
X199614619Y-71397857D01*
X199614619Y-71397857D02*
X199590809Y-71350238D01*
X199590809Y-71350238D02*
X199590809Y-71231190D01*
X199590809Y-71231190D02*
X199614619Y-71183571D01*
X199614619Y-71183571D02*
X199638428Y-71159762D01*
X199638428Y-71159762D02*
X199686047Y-71135952D01*
X199686047Y-71135952D02*
X199733666Y-71135952D01*
X199733666Y-71135952D02*
X199805095Y-71159762D01*
X199805095Y-71159762D02*
X200090809Y-71445476D01*
X200090809Y-71445476D02*
X200090809Y-71135952D01*
X200043190Y-70635953D02*
X200067000Y-70659762D01*
X200067000Y-70659762D02*
X200090809Y-70731191D01*
X200090809Y-70731191D02*
X200090809Y-70778810D01*
X200090809Y-70778810D02*
X200067000Y-70850238D01*
X200067000Y-70850238D02*
X200019380Y-70897857D01*
X200019380Y-70897857D02*
X199971761Y-70921667D01*
X199971761Y-70921667D02*
X199876523Y-70945476D01*
X199876523Y-70945476D02*
X199805095Y-70945476D01*
X199805095Y-70945476D02*
X199709857Y-70921667D01*
X199709857Y-70921667D02*
X199662238Y-70897857D01*
X199662238Y-70897857D02*
X199614619Y-70850238D01*
X199614619Y-70850238D02*
X199590809Y-70778810D01*
X199590809Y-70778810D02*
X199590809Y-70731191D01*
X199590809Y-70731191D02*
X199614619Y-70659762D01*
X199614619Y-70659762D02*
X199638428Y-70635953D01*
X200090809Y-70159762D02*
X200090809Y-70445476D01*
X200090809Y-70302619D02*
X199590809Y-70302619D01*
X199590809Y-70302619D02*
X199662238Y-70350238D01*
X199662238Y-70350238D02*
X199709857Y-70397857D01*
X199709857Y-70397857D02*
X199733666Y-70445476D01*
X200138428Y-70064525D02*
X200138428Y-69683572D01*
X200067000Y-69588334D02*
X200090809Y-69516906D01*
X200090809Y-69516906D02*
X200090809Y-69397858D01*
X200090809Y-69397858D02*
X200067000Y-69350239D01*
X200067000Y-69350239D02*
X200043190Y-69326430D01*
X200043190Y-69326430D02*
X199995571Y-69302620D01*
X199995571Y-69302620D02*
X199947952Y-69302620D01*
X199947952Y-69302620D02*
X199900333Y-69326430D01*
X199900333Y-69326430D02*
X199876523Y-69350239D01*
X199876523Y-69350239D02*
X199852714Y-69397858D01*
X199852714Y-69397858D02*
X199828904Y-69493096D01*
X199828904Y-69493096D02*
X199805095Y-69540715D01*
X199805095Y-69540715D02*
X199781285Y-69564525D01*
X199781285Y-69564525D02*
X199733666Y-69588334D01*
X199733666Y-69588334D02*
X199686047Y-69588334D01*
X199686047Y-69588334D02*
X199638428Y-69564525D01*
X199638428Y-69564525D02*
X199614619Y-69540715D01*
X199614619Y-69540715D02*
X199590809Y-69493096D01*
X199590809Y-69493096D02*
X199590809Y-69374049D01*
X199590809Y-69374049D02*
X199614619Y-69302620D01*
X200090809Y-69088335D02*
X199590809Y-69088335D01*
X199590809Y-69088335D02*
X199590809Y-68969287D01*
X199590809Y-68969287D02*
X199614619Y-68897859D01*
X199614619Y-68897859D02*
X199662238Y-68850240D01*
X199662238Y-68850240D02*
X199709857Y-68826430D01*
X199709857Y-68826430D02*
X199805095Y-68802621D01*
X199805095Y-68802621D02*
X199876523Y-68802621D01*
X199876523Y-68802621D02*
X199971761Y-68826430D01*
X199971761Y-68826430D02*
X200019380Y-68850240D01*
X200019380Y-68850240D02*
X200067000Y-68897859D01*
X200067000Y-68897859D02*
X200090809Y-68969287D01*
X200090809Y-68969287D02*
X200090809Y-69088335D01*
X199947952Y-68612144D02*
X199947952Y-68374049D01*
X200090809Y-68659763D02*
X199590809Y-68493097D01*
X199590809Y-68493097D02*
X200090809Y-68326430D01*
X216219809Y-71635952D02*
X215719809Y-71635952D01*
X215767428Y-71421666D02*
X215743619Y-71397857D01*
X215743619Y-71397857D02*
X215719809Y-71350238D01*
X215719809Y-71350238D02*
X215719809Y-71231190D01*
X215719809Y-71231190D02*
X215743619Y-71183571D01*
X215743619Y-71183571D02*
X215767428Y-71159762D01*
X215767428Y-71159762D02*
X215815047Y-71135952D01*
X215815047Y-71135952D02*
X215862666Y-71135952D01*
X215862666Y-71135952D02*
X215934095Y-71159762D01*
X215934095Y-71159762D02*
X216219809Y-71445476D01*
X216219809Y-71445476D02*
X216219809Y-71135952D01*
X216172190Y-70635953D02*
X216196000Y-70659762D01*
X216196000Y-70659762D02*
X216219809Y-70731191D01*
X216219809Y-70731191D02*
X216219809Y-70778810D01*
X216219809Y-70778810D02*
X216196000Y-70850238D01*
X216196000Y-70850238D02*
X216148380Y-70897857D01*
X216148380Y-70897857D02*
X216100761Y-70921667D01*
X216100761Y-70921667D02*
X216005523Y-70945476D01*
X216005523Y-70945476D02*
X215934095Y-70945476D01*
X215934095Y-70945476D02*
X215838857Y-70921667D01*
X215838857Y-70921667D02*
X215791238Y-70897857D01*
X215791238Y-70897857D02*
X215743619Y-70850238D01*
X215743619Y-70850238D02*
X215719809Y-70778810D01*
X215719809Y-70778810D02*
X215719809Y-70731191D01*
X215719809Y-70731191D02*
X215743619Y-70659762D01*
X215743619Y-70659762D02*
X215767428Y-70635953D01*
X216219809Y-70159762D02*
X216219809Y-70445476D01*
X216219809Y-70302619D02*
X215719809Y-70302619D01*
X215719809Y-70302619D02*
X215791238Y-70350238D01*
X215791238Y-70350238D02*
X215838857Y-70397857D01*
X215838857Y-70397857D02*
X215862666Y-70445476D01*
X216267428Y-70064525D02*
X216267428Y-69683572D01*
X216196000Y-69588334D02*
X216219809Y-69516906D01*
X216219809Y-69516906D02*
X216219809Y-69397858D01*
X216219809Y-69397858D02*
X216196000Y-69350239D01*
X216196000Y-69350239D02*
X216172190Y-69326430D01*
X216172190Y-69326430D02*
X216124571Y-69302620D01*
X216124571Y-69302620D02*
X216076952Y-69302620D01*
X216076952Y-69302620D02*
X216029333Y-69326430D01*
X216029333Y-69326430D02*
X216005523Y-69350239D01*
X216005523Y-69350239D02*
X215981714Y-69397858D01*
X215981714Y-69397858D02*
X215957904Y-69493096D01*
X215957904Y-69493096D02*
X215934095Y-69540715D01*
X215934095Y-69540715D02*
X215910285Y-69564525D01*
X215910285Y-69564525D02*
X215862666Y-69588334D01*
X215862666Y-69588334D02*
X215815047Y-69588334D01*
X215815047Y-69588334D02*
X215767428Y-69564525D01*
X215767428Y-69564525D02*
X215743619Y-69540715D01*
X215743619Y-69540715D02*
X215719809Y-69493096D01*
X215719809Y-69493096D02*
X215719809Y-69374049D01*
X215719809Y-69374049D02*
X215743619Y-69302620D01*
X216219809Y-69088335D02*
X215719809Y-69088335D01*
X215719809Y-69088335D02*
X215719809Y-68969287D01*
X215719809Y-68969287D02*
X215743619Y-68897859D01*
X215743619Y-68897859D02*
X215791238Y-68850240D01*
X215791238Y-68850240D02*
X215838857Y-68826430D01*
X215838857Y-68826430D02*
X215934095Y-68802621D01*
X215934095Y-68802621D02*
X216005523Y-68802621D01*
X216005523Y-68802621D02*
X216100761Y-68826430D01*
X216100761Y-68826430D02*
X216148380Y-68850240D01*
X216148380Y-68850240D02*
X216196000Y-68897859D01*
X216196000Y-68897859D02*
X216219809Y-68969287D01*
X216219809Y-68969287D02*
X216219809Y-69088335D01*
X216076952Y-68612144D02*
X216076952Y-68374049D01*
X216219809Y-68659763D02*
X215719809Y-68493097D01*
X215719809Y-68493097D02*
X216219809Y-68326430D01*
X194637809Y-70056380D02*
X195137809Y-69889714D01*
X195137809Y-69889714D02*
X194637809Y-69723047D01*
X195185428Y-69675429D02*
X195185428Y-69294476D01*
X194637809Y-68937334D02*
X194637809Y-69175429D01*
X194637809Y-69175429D02*
X194875904Y-69199238D01*
X194875904Y-69199238D02*
X194852095Y-69175429D01*
X194852095Y-69175429D02*
X194828285Y-69127810D01*
X194828285Y-69127810D02*
X194828285Y-69008762D01*
X194828285Y-69008762D02*
X194852095Y-68961143D01*
X194852095Y-68961143D02*
X194875904Y-68937334D01*
X194875904Y-68937334D02*
X194923523Y-68913524D01*
X194923523Y-68913524D02*
X195042571Y-68913524D01*
X195042571Y-68913524D02*
X195090190Y-68937334D01*
X195090190Y-68937334D02*
X195114000Y-68961143D01*
X195114000Y-68961143D02*
X195137809Y-69008762D01*
X195137809Y-69008762D02*
X195137809Y-69127810D01*
X195137809Y-69127810D02*
X195114000Y-69175429D01*
X195114000Y-69175429D02*
X195090190Y-69199238D01*
X194637809Y-68770667D02*
X195137809Y-68604001D01*
X195137809Y-68604001D02*
X194637809Y-68437334D01*
X213679809Y-71635952D02*
X213179809Y-71635952D01*
X213227428Y-71421666D02*
X213203619Y-71397857D01*
X213203619Y-71397857D02*
X213179809Y-71350238D01*
X213179809Y-71350238D02*
X213179809Y-71231190D01*
X213179809Y-71231190D02*
X213203619Y-71183571D01*
X213203619Y-71183571D02*
X213227428Y-71159762D01*
X213227428Y-71159762D02*
X213275047Y-71135952D01*
X213275047Y-71135952D02*
X213322666Y-71135952D01*
X213322666Y-71135952D02*
X213394095Y-71159762D01*
X213394095Y-71159762D02*
X213679809Y-71445476D01*
X213679809Y-71445476D02*
X213679809Y-71135952D01*
X213632190Y-70635953D02*
X213656000Y-70659762D01*
X213656000Y-70659762D02*
X213679809Y-70731191D01*
X213679809Y-70731191D02*
X213679809Y-70778810D01*
X213679809Y-70778810D02*
X213656000Y-70850238D01*
X213656000Y-70850238D02*
X213608380Y-70897857D01*
X213608380Y-70897857D02*
X213560761Y-70921667D01*
X213560761Y-70921667D02*
X213465523Y-70945476D01*
X213465523Y-70945476D02*
X213394095Y-70945476D01*
X213394095Y-70945476D02*
X213298857Y-70921667D01*
X213298857Y-70921667D02*
X213251238Y-70897857D01*
X213251238Y-70897857D02*
X213203619Y-70850238D01*
X213203619Y-70850238D02*
X213179809Y-70778810D01*
X213179809Y-70778810D02*
X213179809Y-70731191D01*
X213179809Y-70731191D02*
X213203619Y-70659762D01*
X213203619Y-70659762D02*
X213227428Y-70635953D01*
X213679809Y-70159762D02*
X213679809Y-70445476D01*
X213679809Y-70302619D02*
X213179809Y-70302619D01*
X213179809Y-70302619D02*
X213251238Y-70350238D01*
X213251238Y-70350238D02*
X213298857Y-70397857D01*
X213298857Y-70397857D02*
X213322666Y-70445476D01*
X213727428Y-70064525D02*
X213727428Y-69683572D01*
X213656000Y-69588334D02*
X213679809Y-69516906D01*
X213679809Y-69516906D02*
X213679809Y-69397858D01*
X213679809Y-69397858D02*
X213656000Y-69350239D01*
X213656000Y-69350239D02*
X213632190Y-69326430D01*
X213632190Y-69326430D02*
X213584571Y-69302620D01*
X213584571Y-69302620D02*
X213536952Y-69302620D01*
X213536952Y-69302620D02*
X213489333Y-69326430D01*
X213489333Y-69326430D02*
X213465523Y-69350239D01*
X213465523Y-69350239D02*
X213441714Y-69397858D01*
X213441714Y-69397858D02*
X213417904Y-69493096D01*
X213417904Y-69493096D02*
X213394095Y-69540715D01*
X213394095Y-69540715D02*
X213370285Y-69564525D01*
X213370285Y-69564525D02*
X213322666Y-69588334D01*
X213322666Y-69588334D02*
X213275047Y-69588334D01*
X213275047Y-69588334D02*
X213227428Y-69564525D01*
X213227428Y-69564525D02*
X213203619Y-69540715D01*
X213203619Y-69540715D02*
X213179809Y-69493096D01*
X213179809Y-69493096D02*
X213179809Y-69374049D01*
X213179809Y-69374049D02*
X213203619Y-69302620D01*
X213632190Y-68802621D02*
X213656000Y-68826430D01*
X213656000Y-68826430D02*
X213679809Y-68897859D01*
X213679809Y-68897859D02*
X213679809Y-68945478D01*
X213679809Y-68945478D02*
X213656000Y-69016906D01*
X213656000Y-69016906D02*
X213608380Y-69064525D01*
X213608380Y-69064525D02*
X213560761Y-69088335D01*
X213560761Y-69088335D02*
X213465523Y-69112144D01*
X213465523Y-69112144D02*
X213394095Y-69112144D01*
X213394095Y-69112144D02*
X213298857Y-69088335D01*
X213298857Y-69088335D02*
X213251238Y-69064525D01*
X213251238Y-69064525D02*
X213203619Y-69016906D01*
X213203619Y-69016906D02*
X213179809Y-68945478D01*
X213179809Y-68945478D02*
X213179809Y-68897859D01*
X213179809Y-68897859D02*
X213203619Y-68826430D01*
X213203619Y-68826430D02*
X213227428Y-68802621D01*
X213679809Y-68350240D02*
X213679809Y-68588335D01*
X213679809Y-68588335D02*
X213179809Y-68588335D01*
X197550809Y-71635952D02*
X197050809Y-71635952D01*
X197098428Y-71421666D02*
X197074619Y-71397857D01*
X197074619Y-71397857D02*
X197050809Y-71350238D01*
X197050809Y-71350238D02*
X197050809Y-71231190D01*
X197050809Y-71231190D02*
X197074619Y-71183571D01*
X197074619Y-71183571D02*
X197098428Y-71159762D01*
X197098428Y-71159762D02*
X197146047Y-71135952D01*
X197146047Y-71135952D02*
X197193666Y-71135952D01*
X197193666Y-71135952D02*
X197265095Y-71159762D01*
X197265095Y-71159762D02*
X197550809Y-71445476D01*
X197550809Y-71445476D02*
X197550809Y-71135952D01*
X197503190Y-70635953D02*
X197527000Y-70659762D01*
X197527000Y-70659762D02*
X197550809Y-70731191D01*
X197550809Y-70731191D02*
X197550809Y-70778810D01*
X197550809Y-70778810D02*
X197527000Y-70850238D01*
X197527000Y-70850238D02*
X197479380Y-70897857D01*
X197479380Y-70897857D02*
X197431761Y-70921667D01*
X197431761Y-70921667D02*
X197336523Y-70945476D01*
X197336523Y-70945476D02*
X197265095Y-70945476D01*
X197265095Y-70945476D02*
X197169857Y-70921667D01*
X197169857Y-70921667D02*
X197122238Y-70897857D01*
X197122238Y-70897857D02*
X197074619Y-70850238D01*
X197074619Y-70850238D02*
X197050809Y-70778810D01*
X197050809Y-70778810D02*
X197050809Y-70731191D01*
X197050809Y-70731191D02*
X197074619Y-70659762D01*
X197074619Y-70659762D02*
X197098428Y-70635953D01*
X197550809Y-70159762D02*
X197550809Y-70445476D01*
X197550809Y-70302619D02*
X197050809Y-70302619D01*
X197050809Y-70302619D02*
X197122238Y-70350238D01*
X197122238Y-70350238D02*
X197169857Y-70397857D01*
X197169857Y-70397857D02*
X197193666Y-70445476D01*
X197598428Y-70064525D02*
X197598428Y-69683572D01*
X197527000Y-69588334D02*
X197550809Y-69516906D01*
X197550809Y-69516906D02*
X197550809Y-69397858D01*
X197550809Y-69397858D02*
X197527000Y-69350239D01*
X197527000Y-69350239D02*
X197503190Y-69326430D01*
X197503190Y-69326430D02*
X197455571Y-69302620D01*
X197455571Y-69302620D02*
X197407952Y-69302620D01*
X197407952Y-69302620D02*
X197360333Y-69326430D01*
X197360333Y-69326430D02*
X197336523Y-69350239D01*
X197336523Y-69350239D02*
X197312714Y-69397858D01*
X197312714Y-69397858D02*
X197288904Y-69493096D01*
X197288904Y-69493096D02*
X197265095Y-69540715D01*
X197265095Y-69540715D02*
X197241285Y-69564525D01*
X197241285Y-69564525D02*
X197193666Y-69588334D01*
X197193666Y-69588334D02*
X197146047Y-69588334D01*
X197146047Y-69588334D02*
X197098428Y-69564525D01*
X197098428Y-69564525D02*
X197074619Y-69540715D01*
X197074619Y-69540715D02*
X197050809Y-69493096D01*
X197050809Y-69493096D02*
X197050809Y-69374049D01*
X197050809Y-69374049D02*
X197074619Y-69302620D01*
X197503190Y-68802621D02*
X197527000Y-68826430D01*
X197527000Y-68826430D02*
X197550809Y-68897859D01*
X197550809Y-68897859D02*
X197550809Y-68945478D01*
X197550809Y-68945478D02*
X197527000Y-69016906D01*
X197527000Y-69016906D02*
X197479380Y-69064525D01*
X197479380Y-69064525D02*
X197431761Y-69088335D01*
X197431761Y-69088335D02*
X197336523Y-69112144D01*
X197336523Y-69112144D02*
X197265095Y-69112144D01*
X197265095Y-69112144D02*
X197169857Y-69088335D01*
X197169857Y-69088335D02*
X197122238Y-69064525D01*
X197122238Y-69064525D02*
X197074619Y-69016906D01*
X197074619Y-69016906D02*
X197050809Y-68945478D01*
X197050809Y-68945478D02*
X197050809Y-68897859D01*
X197050809Y-68897859D02*
X197074619Y-68826430D01*
X197074619Y-68826430D02*
X197098428Y-68802621D01*
X197550809Y-68350240D02*
X197550809Y-68588335D01*
X197550809Y-68588335D02*
X197050809Y-68588335D01*
X184499238Y-102792952D02*
X184737333Y-102792952D01*
X184451619Y-102935809D02*
X184618285Y-102435809D01*
X184618285Y-102435809D02*
X184784952Y-102935809D01*
X184951618Y-102745333D02*
X185332571Y-102745333D01*
X218259809Y-70667571D02*
X218759809Y-70334238D01*
X218259809Y-70334238D02*
X218759809Y-70667571D01*
X218736000Y-70167571D02*
X218759809Y-70096143D01*
X218759809Y-70096143D02*
X218759809Y-69977095D01*
X218759809Y-69977095D02*
X218736000Y-69929476D01*
X218736000Y-69929476D02*
X218712190Y-69905667D01*
X218712190Y-69905667D02*
X218664571Y-69881857D01*
X218664571Y-69881857D02*
X218616952Y-69881857D01*
X218616952Y-69881857D02*
X218569333Y-69905667D01*
X218569333Y-69905667D02*
X218545523Y-69929476D01*
X218545523Y-69929476D02*
X218521714Y-69977095D01*
X218521714Y-69977095D02*
X218497904Y-70072333D01*
X218497904Y-70072333D02*
X218474095Y-70119952D01*
X218474095Y-70119952D02*
X218450285Y-70143762D01*
X218450285Y-70143762D02*
X218402666Y-70167571D01*
X218402666Y-70167571D02*
X218355047Y-70167571D01*
X218355047Y-70167571D02*
X218307428Y-70143762D01*
X218307428Y-70143762D02*
X218283619Y-70119952D01*
X218283619Y-70119952D02*
X218259809Y-70072333D01*
X218259809Y-70072333D02*
X218259809Y-69953286D01*
X218259809Y-69953286D02*
X218283619Y-69881857D01*
X218759809Y-69667572D02*
X218259809Y-69667572D01*
X218259809Y-69667572D02*
X218259809Y-69548524D01*
X218259809Y-69548524D02*
X218283619Y-69477096D01*
X218283619Y-69477096D02*
X218331238Y-69429477D01*
X218331238Y-69429477D02*
X218378857Y-69405667D01*
X218378857Y-69405667D02*
X218474095Y-69381858D01*
X218474095Y-69381858D02*
X218545523Y-69381858D01*
X218545523Y-69381858D02*
X218640761Y-69405667D01*
X218640761Y-69405667D02*
X218688380Y-69429477D01*
X218688380Y-69429477D02*
X218736000Y-69477096D01*
X218736000Y-69477096D02*
X218759809Y-69548524D01*
X218759809Y-69548524D02*
X218759809Y-69667572D01*
X218759809Y-69167572D02*
X218259809Y-69167572D01*
X218259809Y-69167572D02*
X218759809Y-68881858D01*
X218759809Y-68881858D02*
X218259809Y-68881858D01*
X218759809Y-68381857D02*
X218759809Y-68667571D01*
X218759809Y-68524714D02*
X218259809Y-68524714D01*
X218259809Y-68524714D02*
X218331238Y-68572333D01*
X218331238Y-68572333D02*
X218378857Y-68619952D01*
X218378857Y-68619952D02*
X218402666Y-68667571D01*
X207549714Y-110420904D02*
X207621142Y-110444714D01*
X207621142Y-110444714D02*
X207644952Y-110468523D01*
X207644952Y-110468523D02*
X207668761Y-110516142D01*
X207668761Y-110516142D02*
X207668761Y-110587571D01*
X207668761Y-110587571D02*
X207644952Y-110635190D01*
X207644952Y-110635190D02*
X207621142Y-110659000D01*
X207621142Y-110659000D02*
X207573523Y-110682809D01*
X207573523Y-110682809D02*
X207383047Y-110682809D01*
X207383047Y-110682809D02*
X207383047Y-110182809D01*
X207383047Y-110182809D02*
X207549714Y-110182809D01*
X207549714Y-110182809D02*
X207597333Y-110206619D01*
X207597333Y-110206619D02*
X207621142Y-110230428D01*
X207621142Y-110230428D02*
X207644952Y-110278047D01*
X207644952Y-110278047D02*
X207644952Y-110325666D01*
X207644952Y-110325666D02*
X207621142Y-110373285D01*
X207621142Y-110373285D02*
X207597333Y-110397095D01*
X207597333Y-110397095D02*
X207549714Y-110420904D01*
X207549714Y-110420904D02*
X207383047Y-110420904D01*
X207835428Y-110182809D02*
X208144952Y-110182809D01*
X208144952Y-110182809D02*
X207978285Y-110373285D01*
X207978285Y-110373285D02*
X208049714Y-110373285D01*
X208049714Y-110373285D02*
X208097333Y-110397095D01*
X208097333Y-110397095D02*
X208121142Y-110420904D01*
X208121142Y-110420904D02*
X208144952Y-110468523D01*
X208144952Y-110468523D02*
X208144952Y-110587571D01*
X208144952Y-110587571D02*
X208121142Y-110635190D01*
X208121142Y-110635190D02*
X208097333Y-110659000D01*
X208097333Y-110659000D02*
X208049714Y-110682809D01*
X208049714Y-110682809D02*
X207906857Y-110682809D01*
X207906857Y-110682809D02*
X207859238Y-110659000D01*
X207859238Y-110659000D02*
X207835428Y-110635190D01*
X220950619Y-69469047D02*
X220926809Y-69516666D01*
X220926809Y-69516666D02*
X220926809Y-69588095D01*
X220926809Y-69588095D02*
X220950619Y-69659523D01*
X220950619Y-69659523D02*
X220998238Y-69707142D01*
X220998238Y-69707142D02*
X221045857Y-69730952D01*
X221045857Y-69730952D02*
X221141095Y-69754761D01*
X221141095Y-69754761D02*
X221212523Y-69754761D01*
X221212523Y-69754761D02*
X221307761Y-69730952D01*
X221307761Y-69730952D02*
X221355380Y-69707142D01*
X221355380Y-69707142D02*
X221403000Y-69659523D01*
X221403000Y-69659523D02*
X221426809Y-69588095D01*
X221426809Y-69588095D02*
X221426809Y-69540476D01*
X221426809Y-69540476D02*
X221403000Y-69469047D01*
X221403000Y-69469047D02*
X221379190Y-69445238D01*
X221379190Y-69445238D02*
X221212523Y-69445238D01*
X221212523Y-69445238D02*
X221212523Y-69540476D01*
X221426809Y-69230952D02*
X220926809Y-69230952D01*
X220926809Y-69230952D02*
X221426809Y-68945238D01*
X221426809Y-68945238D02*
X220926809Y-68945238D01*
X221426809Y-68707142D02*
X220926809Y-68707142D01*
X220926809Y-68707142D02*
X220926809Y-68588094D01*
X220926809Y-68588094D02*
X220950619Y-68516666D01*
X220950619Y-68516666D02*
X220998238Y-68469047D01*
X220998238Y-68469047D02*
X221045857Y-68445237D01*
X221045857Y-68445237D02*
X221141095Y-68421428D01*
X221141095Y-68421428D02*
X221212523Y-68421428D01*
X221212523Y-68421428D02*
X221307761Y-68445237D01*
X221307761Y-68445237D02*
X221355380Y-68469047D01*
X221355380Y-68469047D02*
X221403000Y-68516666D01*
X221403000Y-68516666D02*
X221426809Y-68588094D01*
X221426809Y-68588094D02*
X221426809Y-68707142D01*
X210512809Y-70183380D02*
X211012809Y-70016714D01*
X211012809Y-70016714D02*
X210512809Y-69850047D01*
X211060428Y-69802429D02*
X211060428Y-69421476D01*
X210512809Y-69064334D02*
X210512809Y-69302429D01*
X210512809Y-69302429D02*
X210750904Y-69326238D01*
X210750904Y-69326238D02*
X210727095Y-69302429D01*
X210727095Y-69302429D02*
X210703285Y-69254810D01*
X210703285Y-69254810D02*
X210703285Y-69135762D01*
X210703285Y-69135762D02*
X210727095Y-69088143D01*
X210727095Y-69088143D02*
X210750904Y-69064334D01*
X210750904Y-69064334D02*
X210798523Y-69040524D01*
X210798523Y-69040524D02*
X210917571Y-69040524D01*
X210917571Y-69040524D02*
X210965190Y-69064334D01*
X210965190Y-69064334D02*
X210989000Y-69088143D01*
X210989000Y-69088143D02*
X211012809Y-69135762D01*
X211012809Y-69135762D02*
X211012809Y-69254810D01*
X211012809Y-69254810D02*
X210989000Y-69302429D01*
X210989000Y-69302429D02*
X210965190Y-69326238D01*
X210512809Y-68897667D02*
X211012809Y-68731001D01*
X211012809Y-68731001D02*
X210512809Y-68564334D01*
X229935809Y-71635952D02*
X229435809Y-71635952D01*
X229483428Y-71421666D02*
X229459619Y-71397857D01*
X229459619Y-71397857D02*
X229435809Y-71350238D01*
X229435809Y-71350238D02*
X229435809Y-71231190D01*
X229435809Y-71231190D02*
X229459619Y-71183571D01*
X229459619Y-71183571D02*
X229483428Y-71159762D01*
X229483428Y-71159762D02*
X229531047Y-71135952D01*
X229531047Y-71135952D02*
X229578666Y-71135952D01*
X229578666Y-71135952D02*
X229650095Y-71159762D01*
X229650095Y-71159762D02*
X229935809Y-71445476D01*
X229935809Y-71445476D02*
X229935809Y-71135952D01*
X229888190Y-70635953D02*
X229912000Y-70659762D01*
X229912000Y-70659762D02*
X229935809Y-70731191D01*
X229935809Y-70731191D02*
X229935809Y-70778810D01*
X229935809Y-70778810D02*
X229912000Y-70850238D01*
X229912000Y-70850238D02*
X229864380Y-70897857D01*
X229864380Y-70897857D02*
X229816761Y-70921667D01*
X229816761Y-70921667D02*
X229721523Y-70945476D01*
X229721523Y-70945476D02*
X229650095Y-70945476D01*
X229650095Y-70945476D02*
X229554857Y-70921667D01*
X229554857Y-70921667D02*
X229507238Y-70897857D01*
X229507238Y-70897857D02*
X229459619Y-70850238D01*
X229459619Y-70850238D02*
X229435809Y-70778810D01*
X229435809Y-70778810D02*
X229435809Y-70731191D01*
X229435809Y-70731191D02*
X229459619Y-70659762D01*
X229459619Y-70659762D02*
X229483428Y-70635953D01*
X229935809Y-70159762D02*
X229935809Y-70445476D01*
X229935809Y-70302619D02*
X229435809Y-70302619D01*
X229435809Y-70302619D02*
X229507238Y-70350238D01*
X229507238Y-70350238D02*
X229554857Y-70397857D01*
X229554857Y-70397857D02*
X229578666Y-70445476D01*
X229983428Y-70064525D02*
X229983428Y-69683572D01*
X229912000Y-69588334D02*
X229935809Y-69516906D01*
X229935809Y-69516906D02*
X229935809Y-69397858D01*
X229935809Y-69397858D02*
X229912000Y-69350239D01*
X229912000Y-69350239D02*
X229888190Y-69326430D01*
X229888190Y-69326430D02*
X229840571Y-69302620D01*
X229840571Y-69302620D02*
X229792952Y-69302620D01*
X229792952Y-69302620D02*
X229745333Y-69326430D01*
X229745333Y-69326430D02*
X229721523Y-69350239D01*
X229721523Y-69350239D02*
X229697714Y-69397858D01*
X229697714Y-69397858D02*
X229673904Y-69493096D01*
X229673904Y-69493096D02*
X229650095Y-69540715D01*
X229650095Y-69540715D02*
X229626285Y-69564525D01*
X229626285Y-69564525D02*
X229578666Y-69588334D01*
X229578666Y-69588334D02*
X229531047Y-69588334D01*
X229531047Y-69588334D02*
X229483428Y-69564525D01*
X229483428Y-69564525D02*
X229459619Y-69540715D01*
X229459619Y-69540715D02*
X229435809Y-69493096D01*
X229435809Y-69493096D02*
X229435809Y-69374049D01*
X229435809Y-69374049D02*
X229459619Y-69302620D01*
X229888190Y-68802621D02*
X229912000Y-68826430D01*
X229912000Y-68826430D02*
X229935809Y-68897859D01*
X229935809Y-68897859D02*
X229935809Y-68945478D01*
X229935809Y-68945478D02*
X229912000Y-69016906D01*
X229912000Y-69016906D02*
X229864380Y-69064525D01*
X229864380Y-69064525D02*
X229816761Y-69088335D01*
X229816761Y-69088335D02*
X229721523Y-69112144D01*
X229721523Y-69112144D02*
X229650095Y-69112144D01*
X229650095Y-69112144D02*
X229554857Y-69088335D01*
X229554857Y-69088335D02*
X229507238Y-69064525D01*
X229507238Y-69064525D02*
X229459619Y-69016906D01*
X229459619Y-69016906D02*
X229435809Y-68945478D01*
X229435809Y-68945478D02*
X229435809Y-68897859D01*
X229435809Y-68897859D02*
X229459619Y-68826430D01*
X229459619Y-68826430D02*
X229483428Y-68802621D01*
X229935809Y-68350240D02*
X229935809Y-68588335D01*
X229935809Y-68588335D02*
X229435809Y-68588335D01*
X188563285Y-68522095D02*
X188491857Y-68498285D01*
X188491857Y-68498285D02*
X188468047Y-68474476D01*
X188468047Y-68474476D02*
X188444238Y-68426857D01*
X188444238Y-68426857D02*
X188444238Y-68355428D01*
X188444238Y-68355428D02*
X188468047Y-68307809D01*
X188468047Y-68307809D02*
X188491857Y-68284000D01*
X188491857Y-68284000D02*
X188539476Y-68260190D01*
X188539476Y-68260190D02*
X188729952Y-68260190D01*
X188729952Y-68260190D02*
X188729952Y-68760190D01*
X188729952Y-68760190D02*
X188563285Y-68760190D01*
X188563285Y-68760190D02*
X188515666Y-68736380D01*
X188515666Y-68736380D02*
X188491857Y-68712571D01*
X188491857Y-68712571D02*
X188468047Y-68664952D01*
X188468047Y-68664952D02*
X188468047Y-68617333D01*
X188468047Y-68617333D02*
X188491857Y-68569714D01*
X188491857Y-68569714D02*
X188515666Y-68545904D01*
X188515666Y-68545904D02*
X188563285Y-68522095D01*
X188563285Y-68522095D02*
X188729952Y-68522095D01*
X188229952Y-68450666D02*
X187849000Y-68450666D01*
X181006761Y-68403047D02*
X180768666Y-68403047D01*
X181054380Y-68260190D02*
X180887714Y-68760190D01*
X180887714Y-68760190D02*
X180721047Y-68260190D01*
X180554381Y-68450666D02*
X180173429Y-68450666D01*
X226895809Y-70056380D02*
X227395809Y-69889714D01*
X227395809Y-69889714D02*
X226895809Y-69723047D01*
X227443428Y-69675429D02*
X227443428Y-69294476D01*
X226895809Y-68937334D02*
X226895809Y-69175429D01*
X226895809Y-69175429D02*
X227133904Y-69199238D01*
X227133904Y-69199238D02*
X227110095Y-69175429D01*
X227110095Y-69175429D02*
X227086285Y-69127810D01*
X227086285Y-69127810D02*
X227086285Y-69008762D01*
X227086285Y-69008762D02*
X227110095Y-68961143D01*
X227110095Y-68961143D02*
X227133904Y-68937334D01*
X227133904Y-68937334D02*
X227181523Y-68913524D01*
X227181523Y-68913524D02*
X227300571Y-68913524D01*
X227300571Y-68913524D02*
X227348190Y-68937334D01*
X227348190Y-68937334D02*
X227372000Y-68961143D01*
X227372000Y-68961143D02*
X227395809Y-69008762D01*
X227395809Y-69008762D02*
X227395809Y-69127810D01*
X227395809Y-69127810D02*
X227372000Y-69175429D01*
X227372000Y-69175429D02*
X227348190Y-69199238D01*
X226895809Y-68770667D02*
X227395809Y-68604001D01*
X227395809Y-68604001D02*
X226895809Y-68437334D01*
X234539619Y-69469047D02*
X234515809Y-69516666D01*
X234515809Y-69516666D02*
X234515809Y-69588095D01*
X234515809Y-69588095D02*
X234539619Y-69659523D01*
X234539619Y-69659523D02*
X234587238Y-69707142D01*
X234587238Y-69707142D02*
X234634857Y-69730952D01*
X234634857Y-69730952D02*
X234730095Y-69754761D01*
X234730095Y-69754761D02*
X234801523Y-69754761D01*
X234801523Y-69754761D02*
X234896761Y-69730952D01*
X234896761Y-69730952D02*
X234944380Y-69707142D01*
X234944380Y-69707142D02*
X234992000Y-69659523D01*
X234992000Y-69659523D02*
X235015809Y-69588095D01*
X235015809Y-69588095D02*
X235015809Y-69540476D01*
X235015809Y-69540476D02*
X234992000Y-69469047D01*
X234992000Y-69469047D02*
X234968190Y-69445238D01*
X234968190Y-69445238D02*
X234801523Y-69445238D01*
X234801523Y-69445238D02*
X234801523Y-69540476D01*
X235015809Y-69230952D02*
X234515809Y-69230952D01*
X234515809Y-69230952D02*
X235015809Y-68945238D01*
X235015809Y-68945238D02*
X234515809Y-68945238D01*
X235015809Y-68707142D02*
X234515809Y-68707142D01*
X234515809Y-68707142D02*
X234515809Y-68588094D01*
X234515809Y-68588094D02*
X234539619Y-68516666D01*
X234539619Y-68516666D02*
X234587238Y-68469047D01*
X234587238Y-68469047D02*
X234634857Y-68445237D01*
X234634857Y-68445237D02*
X234730095Y-68421428D01*
X234730095Y-68421428D02*
X234801523Y-68421428D01*
X234801523Y-68421428D02*
X234896761Y-68445237D01*
X234896761Y-68445237D02*
X234944380Y-68469047D01*
X234944380Y-68469047D02*
X234992000Y-68516666D01*
X234992000Y-68516666D02*
X235015809Y-68588094D01*
X235015809Y-68588094D02*
X235015809Y-68707142D01*
X232348809Y-71635952D02*
X231848809Y-71635952D01*
X231896428Y-71421666D02*
X231872619Y-71397857D01*
X231872619Y-71397857D02*
X231848809Y-71350238D01*
X231848809Y-71350238D02*
X231848809Y-71231190D01*
X231848809Y-71231190D02*
X231872619Y-71183571D01*
X231872619Y-71183571D02*
X231896428Y-71159762D01*
X231896428Y-71159762D02*
X231944047Y-71135952D01*
X231944047Y-71135952D02*
X231991666Y-71135952D01*
X231991666Y-71135952D02*
X232063095Y-71159762D01*
X232063095Y-71159762D02*
X232348809Y-71445476D01*
X232348809Y-71445476D02*
X232348809Y-71135952D01*
X232301190Y-70635953D02*
X232325000Y-70659762D01*
X232325000Y-70659762D02*
X232348809Y-70731191D01*
X232348809Y-70731191D02*
X232348809Y-70778810D01*
X232348809Y-70778810D02*
X232325000Y-70850238D01*
X232325000Y-70850238D02*
X232277380Y-70897857D01*
X232277380Y-70897857D02*
X232229761Y-70921667D01*
X232229761Y-70921667D02*
X232134523Y-70945476D01*
X232134523Y-70945476D02*
X232063095Y-70945476D01*
X232063095Y-70945476D02*
X231967857Y-70921667D01*
X231967857Y-70921667D02*
X231920238Y-70897857D01*
X231920238Y-70897857D02*
X231872619Y-70850238D01*
X231872619Y-70850238D02*
X231848809Y-70778810D01*
X231848809Y-70778810D02*
X231848809Y-70731191D01*
X231848809Y-70731191D02*
X231872619Y-70659762D01*
X231872619Y-70659762D02*
X231896428Y-70635953D01*
X232348809Y-70159762D02*
X232348809Y-70445476D01*
X232348809Y-70302619D02*
X231848809Y-70302619D01*
X231848809Y-70302619D02*
X231920238Y-70350238D01*
X231920238Y-70350238D02*
X231967857Y-70397857D01*
X231967857Y-70397857D02*
X231991666Y-70445476D01*
X232396428Y-70064525D02*
X232396428Y-69683572D01*
X232325000Y-69588334D02*
X232348809Y-69516906D01*
X232348809Y-69516906D02*
X232348809Y-69397858D01*
X232348809Y-69397858D02*
X232325000Y-69350239D01*
X232325000Y-69350239D02*
X232301190Y-69326430D01*
X232301190Y-69326430D02*
X232253571Y-69302620D01*
X232253571Y-69302620D02*
X232205952Y-69302620D01*
X232205952Y-69302620D02*
X232158333Y-69326430D01*
X232158333Y-69326430D02*
X232134523Y-69350239D01*
X232134523Y-69350239D02*
X232110714Y-69397858D01*
X232110714Y-69397858D02*
X232086904Y-69493096D01*
X232086904Y-69493096D02*
X232063095Y-69540715D01*
X232063095Y-69540715D02*
X232039285Y-69564525D01*
X232039285Y-69564525D02*
X231991666Y-69588334D01*
X231991666Y-69588334D02*
X231944047Y-69588334D01*
X231944047Y-69588334D02*
X231896428Y-69564525D01*
X231896428Y-69564525D02*
X231872619Y-69540715D01*
X231872619Y-69540715D02*
X231848809Y-69493096D01*
X231848809Y-69493096D02*
X231848809Y-69374049D01*
X231848809Y-69374049D02*
X231872619Y-69302620D01*
X232348809Y-69088335D02*
X231848809Y-69088335D01*
X231848809Y-69088335D02*
X231848809Y-68969287D01*
X231848809Y-68969287D02*
X231872619Y-68897859D01*
X231872619Y-68897859D02*
X231920238Y-68850240D01*
X231920238Y-68850240D02*
X231967857Y-68826430D01*
X231967857Y-68826430D02*
X232063095Y-68802621D01*
X232063095Y-68802621D02*
X232134523Y-68802621D01*
X232134523Y-68802621D02*
X232229761Y-68826430D01*
X232229761Y-68826430D02*
X232277380Y-68850240D01*
X232277380Y-68850240D02*
X232325000Y-68897859D01*
X232325000Y-68897859D02*
X232348809Y-68969287D01*
X232348809Y-68969287D02*
X232348809Y-69088335D01*
X232205952Y-68612144D02*
X232205952Y-68374049D01*
X232348809Y-68659763D02*
X231848809Y-68493097D01*
X231848809Y-68493097D02*
X232348809Y-68326430D01*
X181959238Y-102792952D02*
X182197333Y-102792952D01*
X181911619Y-102935809D02*
X182078285Y-102435809D01*
X182078285Y-102435809D02*
X182244952Y-102935809D01*
X182411618Y-102745333D02*
X182792571Y-102745333D01*
X182602094Y-102935809D02*
X182602094Y-102554857D01*
D11*
X177450714Y-94637857D02*
X178165000Y-94637857D01*
X177307857Y-95066428D02*
X177807857Y-93566428D01*
X177807857Y-93566428D02*
X178307857Y-95066428D01*
X179450714Y-94066428D02*
X179450714Y-95066428D01*
X179093571Y-93495000D02*
X178736428Y-94566428D01*
X178736428Y-94566428D02*
X179664999Y-94566428D01*
X180307856Y-95066428D02*
X180593570Y-95066428D01*
X180593570Y-95066428D02*
X180736427Y-94995000D01*
X180736427Y-94995000D02*
X180807856Y-94923571D01*
X180807856Y-94923571D02*
X180950713Y-94709285D01*
X180950713Y-94709285D02*
X181022142Y-94423571D01*
X181022142Y-94423571D02*
X181022142Y-93852142D01*
X181022142Y-93852142D02*
X180950713Y-93709285D01*
X180950713Y-93709285D02*
X180879285Y-93637857D01*
X180879285Y-93637857D02*
X180736427Y-93566428D01*
X180736427Y-93566428D02*
X180450713Y-93566428D01*
X180450713Y-93566428D02*
X180307856Y-93637857D01*
X180307856Y-93637857D02*
X180236427Y-93709285D01*
X180236427Y-93709285D02*
X180164999Y-93852142D01*
X180164999Y-93852142D02*
X180164999Y-94209285D01*
X180164999Y-94209285D02*
X180236427Y-94352142D01*
X180236427Y-94352142D02*
X180307856Y-94423571D01*
X180307856Y-94423571D02*
X180450713Y-94495000D01*
X180450713Y-94495000D02*
X180736427Y-94495000D01*
X180736427Y-94495000D02*
X180879285Y-94423571D01*
X180879285Y-94423571D02*
X180950713Y-94352142D01*
X180950713Y-94352142D02*
X181022142Y-94209285D01*
X181879284Y-94209285D02*
X181736427Y-94137857D01*
X181736427Y-94137857D02*
X181664998Y-94066428D01*
X181664998Y-94066428D02*
X181593570Y-93923571D01*
X181593570Y-93923571D02*
X181593570Y-93852142D01*
X181593570Y-93852142D02*
X181664998Y-93709285D01*
X181664998Y-93709285D02*
X181736427Y-93637857D01*
X181736427Y-93637857D02*
X181879284Y-93566428D01*
X181879284Y-93566428D02*
X182164998Y-93566428D01*
X182164998Y-93566428D02*
X182307856Y-93637857D01*
X182307856Y-93637857D02*
X182379284Y-93709285D01*
X182379284Y-93709285D02*
X182450713Y-93852142D01*
X182450713Y-93852142D02*
X182450713Y-93923571D01*
X182450713Y-93923571D02*
X182379284Y-94066428D01*
X182379284Y-94066428D02*
X182307856Y-94137857D01*
X182307856Y-94137857D02*
X182164998Y-94209285D01*
X182164998Y-94209285D02*
X181879284Y-94209285D01*
X181879284Y-94209285D02*
X181736427Y-94280714D01*
X181736427Y-94280714D02*
X181664998Y-94352142D01*
X181664998Y-94352142D02*
X181593570Y-94495000D01*
X181593570Y-94495000D02*
X181593570Y-94780714D01*
X181593570Y-94780714D02*
X181664998Y-94923571D01*
X181664998Y-94923571D02*
X181736427Y-94995000D01*
X181736427Y-94995000D02*
X181879284Y-95066428D01*
X181879284Y-95066428D02*
X182164998Y-95066428D01*
X182164998Y-95066428D02*
X182307856Y-94995000D01*
X182307856Y-94995000D02*
X182379284Y-94923571D01*
X182379284Y-94923571D02*
X182450713Y-94780714D01*
X182450713Y-94780714D02*
X182450713Y-94495000D01*
X182450713Y-94495000D02*
X182379284Y-94352142D01*
X182379284Y-94352142D02*
X182307856Y-94280714D01*
X182307856Y-94280714D02*
X182164998Y-94209285D01*
X183307855Y-94209285D02*
X183164998Y-94137857D01*
X183164998Y-94137857D02*
X183093569Y-94066428D01*
X183093569Y-94066428D02*
X183022141Y-93923571D01*
X183022141Y-93923571D02*
X183022141Y-93852142D01*
X183022141Y-93852142D02*
X183093569Y-93709285D01*
X183093569Y-93709285D02*
X183164998Y-93637857D01*
X183164998Y-93637857D02*
X183307855Y-93566428D01*
X183307855Y-93566428D02*
X183593569Y-93566428D01*
X183593569Y-93566428D02*
X183736427Y-93637857D01*
X183736427Y-93637857D02*
X183807855Y-93709285D01*
X183807855Y-93709285D02*
X183879284Y-93852142D01*
X183879284Y-93852142D02*
X183879284Y-93923571D01*
X183879284Y-93923571D02*
X183807855Y-94066428D01*
X183807855Y-94066428D02*
X183736427Y-94137857D01*
X183736427Y-94137857D02*
X183593569Y-94209285D01*
X183593569Y-94209285D02*
X183307855Y-94209285D01*
X183307855Y-94209285D02*
X183164998Y-94280714D01*
X183164998Y-94280714D02*
X183093569Y-94352142D01*
X183093569Y-94352142D02*
X183022141Y-94495000D01*
X183022141Y-94495000D02*
X183022141Y-94780714D01*
X183022141Y-94780714D02*
X183093569Y-94923571D01*
X183093569Y-94923571D02*
X183164998Y-94995000D01*
X183164998Y-94995000D02*
X183307855Y-95066428D01*
X183307855Y-95066428D02*
X183593569Y-95066428D01*
X183593569Y-95066428D02*
X183736427Y-94995000D01*
X183736427Y-94995000D02*
X183807855Y-94923571D01*
X183807855Y-94923571D02*
X183879284Y-94780714D01*
X183879284Y-94780714D02*
X183879284Y-94495000D01*
X183879284Y-94495000D02*
X183807855Y-94352142D01*
X183807855Y-94352142D02*
X183736427Y-94280714D01*
X183736427Y-94280714D02*
X183593569Y-94209285D01*
D10*
X202469714Y-110420904D02*
X202541142Y-110444714D01*
X202541142Y-110444714D02*
X202564952Y-110468523D01*
X202564952Y-110468523D02*
X202588761Y-110516142D01*
X202588761Y-110516142D02*
X202588761Y-110587571D01*
X202588761Y-110587571D02*
X202564952Y-110635190D01*
X202564952Y-110635190D02*
X202541142Y-110659000D01*
X202541142Y-110659000D02*
X202493523Y-110682809D01*
X202493523Y-110682809D02*
X202303047Y-110682809D01*
X202303047Y-110682809D02*
X202303047Y-110182809D01*
X202303047Y-110182809D02*
X202469714Y-110182809D01*
X202469714Y-110182809D02*
X202517333Y-110206619D01*
X202517333Y-110206619D02*
X202541142Y-110230428D01*
X202541142Y-110230428D02*
X202564952Y-110278047D01*
X202564952Y-110278047D02*
X202564952Y-110325666D01*
X202564952Y-110325666D02*
X202541142Y-110373285D01*
X202541142Y-110373285D02*
X202517333Y-110397095D01*
X202517333Y-110397095D02*
X202469714Y-110420904D01*
X202469714Y-110420904D02*
X202303047Y-110420904D01*
X203064952Y-110682809D02*
X202779238Y-110682809D01*
X202922095Y-110682809D02*
X202922095Y-110182809D01*
X202922095Y-110182809D02*
X202874476Y-110254238D01*
X202874476Y-110254238D02*
X202826857Y-110301857D01*
X202826857Y-110301857D02*
X202779238Y-110325666D01*
X183546761Y-68403047D02*
X183308666Y-68403047D01*
X183594380Y-68260190D02*
X183427714Y-68760190D01*
X183427714Y-68760190D02*
X183261047Y-68260190D01*
X183094381Y-68450666D02*
X182713429Y-68450666D01*
X182903905Y-68260190D02*
X182903905Y-68641142D01*
X179609714Y-102673904D02*
X179681142Y-102697714D01*
X179681142Y-102697714D02*
X179704952Y-102721523D01*
X179704952Y-102721523D02*
X179728761Y-102769142D01*
X179728761Y-102769142D02*
X179728761Y-102840571D01*
X179728761Y-102840571D02*
X179704952Y-102888190D01*
X179704952Y-102888190D02*
X179681142Y-102912000D01*
X179681142Y-102912000D02*
X179633523Y-102935809D01*
X179633523Y-102935809D02*
X179443047Y-102935809D01*
X179443047Y-102935809D02*
X179443047Y-102435809D01*
X179443047Y-102435809D02*
X179609714Y-102435809D01*
X179609714Y-102435809D02*
X179657333Y-102459619D01*
X179657333Y-102459619D02*
X179681142Y-102483428D01*
X179681142Y-102483428D02*
X179704952Y-102531047D01*
X179704952Y-102531047D02*
X179704952Y-102578666D01*
X179704952Y-102578666D02*
X179681142Y-102626285D01*
X179681142Y-102626285D02*
X179657333Y-102650095D01*
X179657333Y-102650095D02*
X179609714Y-102673904D01*
X179609714Y-102673904D02*
X179443047Y-102673904D01*
X179943047Y-102745333D02*
X180324000Y-102745333D01*
X180133523Y-102935809D02*
X180133523Y-102554857D01*
D11*
X207494142Y-89732428D02*
X207494142Y-88232428D01*
X207494142Y-88232428D02*
X208351285Y-89732428D01*
X208351285Y-89732428D02*
X208351285Y-88232428D01*
X209065571Y-88232428D02*
X209065571Y-89446714D01*
X209065571Y-89446714D02*
X209137000Y-89589571D01*
X209137000Y-89589571D02*
X209208429Y-89661000D01*
X209208429Y-89661000D02*
X209351286Y-89732428D01*
X209351286Y-89732428D02*
X209637000Y-89732428D01*
X209637000Y-89732428D02*
X209779857Y-89661000D01*
X209779857Y-89661000D02*
X209851286Y-89589571D01*
X209851286Y-89589571D02*
X209922714Y-89446714D01*
X209922714Y-89446714D02*
X209922714Y-88232428D01*
X211494143Y-89589571D02*
X211422715Y-89661000D01*
X211422715Y-89661000D02*
X211208429Y-89732428D01*
X211208429Y-89732428D02*
X211065572Y-89732428D01*
X211065572Y-89732428D02*
X210851286Y-89661000D01*
X210851286Y-89661000D02*
X210708429Y-89518142D01*
X210708429Y-89518142D02*
X210637000Y-89375285D01*
X210637000Y-89375285D02*
X210565572Y-89089571D01*
X210565572Y-89089571D02*
X210565572Y-88875285D01*
X210565572Y-88875285D02*
X210637000Y-88589571D01*
X210637000Y-88589571D02*
X210708429Y-88446714D01*
X210708429Y-88446714D02*
X210851286Y-88303857D01*
X210851286Y-88303857D02*
X211065572Y-88232428D01*
X211065572Y-88232428D02*
X211208429Y-88232428D01*
X211208429Y-88232428D02*
X211422715Y-88303857D01*
X211422715Y-88303857D02*
X211494143Y-88375285D01*
X212851286Y-89732428D02*
X212137000Y-89732428D01*
X212137000Y-89732428D02*
X212137000Y-88232428D01*
X213351286Y-88946714D02*
X213851286Y-88946714D01*
X214065572Y-89732428D02*
X213351286Y-89732428D01*
X213351286Y-89732428D02*
X213351286Y-88232428D01*
X213351286Y-88232428D02*
X214065572Y-88232428D01*
X214994144Y-88232428D02*
X215279858Y-88232428D01*
X215279858Y-88232428D02*
X215422715Y-88303857D01*
X215422715Y-88303857D02*
X215565572Y-88446714D01*
X215565572Y-88446714D02*
X215637001Y-88732428D01*
X215637001Y-88732428D02*
X215637001Y-89232428D01*
X215637001Y-89232428D02*
X215565572Y-89518142D01*
X215565572Y-89518142D02*
X215422715Y-89661000D01*
X215422715Y-89661000D02*
X215279858Y-89732428D01*
X215279858Y-89732428D02*
X214994144Y-89732428D01*
X214994144Y-89732428D02*
X214851287Y-89661000D01*
X214851287Y-89661000D02*
X214708429Y-89518142D01*
X214708429Y-89518142D02*
X214637001Y-89232428D01*
X214637001Y-89232428D02*
X214637001Y-88732428D01*
X214637001Y-88732428D02*
X214708429Y-88446714D01*
X214708429Y-88446714D02*
X214851287Y-88303857D01*
X214851287Y-88303857D02*
X214994144Y-88232428D01*
X216279858Y-89161000D02*
X217422716Y-89161000D01*
X218851287Y-89732428D02*
X218137001Y-89732428D01*
X218137001Y-89732428D02*
X218137001Y-88232428D01*
X219994145Y-88732428D02*
X219994145Y-89732428D01*
X219637002Y-88161000D02*
X219279859Y-89232428D01*
X219279859Y-89232428D02*
X220208430Y-89232428D01*
X220637001Y-88232428D02*
X221565573Y-88232428D01*
X221565573Y-88232428D02*
X221065573Y-88803857D01*
X221065573Y-88803857D02*
X221279858Y-88803857D01*
X221279858Y-88803857D02*
X221422716Y-88875285D01*
X221422716Y-88875285D02*
X221494144Y-88946714D01*
X221494144Y-88946714D02*
X221565573Y-89089571D01*
X221565573Y-89089571D02*
X221565573Y-89446714D01*
X221565573Y-89446714D02*
X221494144Y-89589571D01*
X221494144Y-89589571D02*
X221422716Y-89661000D01*
X221422716Y-89661000D02*
X221279858Y-89732428D01*
X221279858Y-89732428D02*
X220851287Y-89732428D01*
X220851287Y-89732428D02*
X220708430Y-89661000D01*
X220708430Y-89661000D02*
X220637001Y-89589571D01*
X222137001Y-88375285D02*
X222208429Y-88303857D01*
X222208429Y-88303857D02*
X222351287Y-88232428D01*
X222351287Y-88232428D02*
X222708429Y-88232428D01*
X222708429Y-88232428D02*
X222851287Y-88303857D01*
X222851287Y-88303857D02*
X222922715Y-88375285D01*
X222922715Y-88375285D02*
X222994144Y-88518142D01*
X222994144Y-88518142D02*
X222994144Y-88661000D01*
X222994144Y-88661000D02*
X222922715Y-88875285D01*
X222922715Y-88875285D02*
X222065572Y-89732428D01*
X222065572Y-89732428D02*
X222994144Y-89732428D01*
X223637000Y-89732428D02*
X223637000Y-88232428D01*
X224494143Y-89732428D02*
X223851286Y-88875285D01*
X224494143Y-88232428D02*
X223637000Y-89089571D01*
X225994143Y-89589571D02*
X225922715Y-89661000D01*
X225922715Y-89661000D02*
X225708429Y-89732428D01*
X225708429Y-89732428D02*
X225565572Y-89732428D01*
X225565572Y-89732428D02*
X225351286Y-89661000D01*
X225351286Y-89661000D02*
X225208429Y-89518142D01*
X225208429Y-89518142D02*
X225137000Y-89375285D01*
X225137000Y-89375285D02*
X225065572Y-89089571D01*
X225065572Y-89089571D02*
X225065572Y-88875285D01*
X225065572Y-88875285D02*
X225137000Y-88589571D01*
X225137000Y-88589571D02*
X225208429Y-88446714D01*
X225208429Y-88446714D02*
X225351286Y-88303857D01*
X225351286Y-88303857D02*
X225565572Y-88232428D01*
X225565572Y-88232428D02*
X225708429Y-88232428D01*
X225708429Y-88232428D02*
X225922715Y-88303857D01*
X225922715Y-88303857D02*
X225994143Y-88375285D01*
D10*
X177069714Y-102673904D02*
X177141142Y-102697714D01*
X177141142Y-102697714D02*
X177164952Y-102721523D01*
X177164952Y-102721523D02*
X177188761Y-102769142D01*
X177188761Y-102769142D02*
X177188761Y-102840571D01*
X177188761Y-102840571D02*
X177164952Y-102888190D01*
X177164952Y-102888190D02*
X177141142Y-102912000D01*
X177141142Y-102912000D02*
X177093523Y-102935809D01*
X177093523Y-102935809D02*
X176903047Y-102935809D01*
X176903047Y-102935809D02*
X176903047Y-102435809D01*
X176903047Y-102435809D02*
X177069714Y-102435809D01*
X177069714Y-102435809D02*
X177117333Y-102459619D01*
X177117333Y-102459619D02*
X177141142Y-102483428D01*
X177141142Y-102483428D02*
X177164952Y-102531047D01*
X177164952Y-102531047D02*
X177164952Y-102578666D01*
X177164952Y-102578666D02*
X177141142Y-102626285D01*
X177141142Y-102626285D02*
X177117333Y-102650095D01*
X177117333Y-102650095D02*
X177069714Y-102673904D01*
X177069714Y-102673904D02*
X176903047Y-102673904D01*
X177403047Y-102745333D02*
X177784000Y-102745333D01*
D12*
%TO.C,U1*%
X168062380Y-102436171D02*
X168062380Y-102626647D01*
X168062380Y-102626647D02*
X168014761Y-102721885D01*
X168014761Y-102721885D02*
X167919523Y-102817123D01*
X167919523Y-102817123D02*
X167729047Y-102864742D01*
X167729047Y-102864742D02*
X167395714Y-102864742D01*
X167395714Y-102864742D02*
X167205238Y-102817123D01*
X167205238Y-102817123D02*
X167110000Y-102721885D01*
X167110000Y-102721885D02*
X167062380Y-102626647D01*
X167062380Y-102626647D02*
X167062380Y-102436171D01*
X167062380Y-102436171D02*
X167110000Y-102340933D01*
X167110000Y-102340933D02*
X167205238Y-102245695D01*
X167205238Y-102245695D02*
X167395714Y-102198076D01*
X167395714Y-102198076D02*
X167729047Y-102198076D01*
X167729047Y-102198076D02*
X167919523Y-102245695D01*
X167919523Y-102245695D02*
X168014761Y-102340933D01*
X168014761Y-102340933D02*
X168062380Y-102436171D01*
X168062380Y-103293314D02*
X167252857Y-103293314D01*
X167252857Y-103293314D02*
X167157619Y-103340933D01*
X167157619Y-103340933D02*
X167110000Y-103388552D01*
X167110000Y-103388552D02*
X167062380Y-103483790D01*
X167062380Y-103483790D02*
X167062380Y-103674266D01*
X167062380Y-103674266D02*
X167110000Y-103769504D01*
X167110000Y-103769504D02*
X167157619Y-103817123D01*
X167157619Y-103817123D02*
X167252857Y-103864742D01*
X167252857Y-103864742D02*
X168062380Y-103864742D01*
X168062380Y-104198076D02*
X168062380Y-104769504D01*
X167062380Y-104483790D02*
X168062380Y-104483790D01*
X167443333Y-105102838D02*
X167443333Y-105864743D01*
X167062380Y-105483790D02*
X167824285Y-105483790D01*
X147862380Y-66645695D02*
X148862380Y-66645695D01*
X147862380Y-67121885D02*
X148862380Y-67121885D01*
X148862380Y-67121885D02*
X147862380Y-67693313D01*
X147862380Y-67693313D02*
X148862380Y-67693313D01*
X148243333Y-68169504D02*
X148243333Y-68931409D01*
X167062380Y-66745695D02*
X168062380Y-66745695D01*
X167062380Y-67221885D02*
X168062380Y-67221885D01*
X168062380Y-67221885D02*
X167062380Y-67793313D01*
X167062380Y-67793313D02*
X168062380Y-67793313D01*
X167443333Y-68269504D02*
X167443333Y-69031409D01*
X167062380Y-68650456D02*
X167824285Y-68650456D01*
X148862380Y-102336171D02*
X148862380Y-102526647D01*
X148862380Y-102526647D02*
X148814761Y-102621885D01*
X148814761Y-102621885D02*
X148719523Y-102717123D01*
X148719523Y-102717123D02*
X148529047Y-102764742D01*
X148529047Y-102764742D02*
X148195714Y-102764742D01*
X148195714Y-102764742D02*
X148005238Y-102717123D01*
X148005238Y-102717123D02*
X147910000Y-102621885D01*
X147910000Y-102621885D02*
X147862380Y-102526647D01*
X147862380Y-102526647D02*
X147862380Y-102336171D01*
X147862380Y-102336171D02*
X147910000Y-102240933D01*
X147910000Y-102240933D02*
X148005238Y-102145695D01*
X148005238Y-102145695D02*
X148195714Y-102098076D01*
X148195714Y-102098076D02*
X148529047Y-102098076D01*
X148529047Y-102098076D02*
X148719523Y-102145695D01*
X148719523Y-102145695D02*
X148814761Y-102240933D01*
X148814761Y-102240933D02*
X148862380Y-102336171D01*
X148862380Y-103193314D02*
X148052857Y-103193314D01*
X148052857Y-103193314D02*
X147957619Y-103240933D01*
X147957619Y-103240933D02*
X147910000Y-103288552D01*
X147910000Y-103288552D02*
X147862380Y-103383790D01*
X147862380Y-103383790D02*
X147862380Y-103574266D01*
X147862380Y-103574266D02*
X147910000Y-103669504D01*
X147910000Y-103669504D02*
X147957619Y-103717123D01*
X147957619Y-103717123D02*
X148052857Y-103764742D01*
X148052857Y-103764742D02*
X148862380Y-103764742D01*
X148862380Y-104098076D02*
X148862380Y-104669504D01*
X147862380Y-104383790D02*
X148862380Y-104383790D01*
X148243333Y-105002838D02*
X148243333Y-105764743D01*
X158062380Y-82350457D02*
X157062380Y-83017123D01*
X158062380Y-83017123D02*
X157062380Y-82350457D01*
X157062380Y-83874266D02*
X157062380Y-83398076D01*
X157062380Y-83398076D02*
X158062380Y-83398076D01*
X158062380Y-84636171D02*
X158062380Y-84445695D01*
X158062380Y-84445695D02*
X158014761Y-84350457D01*
X158014761Y-84350457D02*
X157967142Y-84302838D01*
X157967142Y-84302838D02*
X157824285Y-84207600D01*
X157824285Y-84207600D02*
X157633809Y-84159981D01*
X157633809Y-84159981D02*
X157252857Y-84159981D01*
X157252857Y-84159981D02*
X157157619Y-84207600D01*
X157157619Y-84207600D02*
X157110000Y-84255219D01*
X157110000Y-84255219D02*
X157062380Y-84350457D01*
X157062380Y-84350457D02*
X157062380Y-84540933D01*
X157062380Y-84540933D02*
X157110000Y-84636171D01*
X157110000Y-84636171D02*
X157157619Y-84683790D01*
X157157619Y-84683790D02*
X157252857Y-84731409D01*
X157252857Y-84731409D02*
X157490952Y-84731409D01*
X157490952Y-84731409D02*
X157586190Y-84683790D01*
X157586190Y-84683790D02*
X157633809Y-84636171D01*
X157633809Y-84636171D02*
X157681428Y-84540933D01*
X157681428Y-84540933D02*
X157681428Y-84350457D01*
X157681428Y-84350457D02*
X157633809Y-84255219D01*
X157633809Y-84255219D02*
X157586190Y-84207600D01*
X157586190Y-84207600D02*
X157490952Y-84159981D01*
X158062380Y-85350457D02*
X158062380Y-85445695D01*
X158062380Y-85445695D02*
X158014761Y-85540933D01*
X158014761Y-85540933D02*
X157967142Y-85588552D01*
X157967142Y-85588552D02*
X157871904Y-85636171D01*
X157871904Y-85636171D02*
X157681428Y-85683790D01*
X157681428Y-85683790D02*
X157443333Y-85683790D01*
X157443333Y-85683790D02*
X157252857Y-85636171D01*
X157252857Y-85636171D02*
X157157619Y-85588552D01*
X157157619Y-85588552D02*
X157110000Y-85540933D01*
X157110000Y-85540933D02*
X157062380Y-85445695D01*
X157062380Y-85445695D02*
X157062380Y-85350457D01*
X157062380Y-85350457D02*
X157110000Y-85255219D01*
X157110000Y-85255219D02*
X157157619Y-85207600D01*
X157157619Y-85207600D02*
X157252857Y-85159981D01*
X157252857Y-85159981D02*
X157443333Y-85112362D01*
X157443333Y-85112362D02*
X157681428Y-85112362D01*
X157681428Y-85112362D02*
X157871904Y-85159981D01*
X157871904Y-85159981D02*
X157967142Y-85207600D01*
X157967142Y-85207600D02*
X158014761Y-85255219D01*
X158014761Y-85255219D02*
X158062380Y-85350457D01*
X158062380Y-86302838D02*
X158062380Y-86398076D01*
X158062380Y-86398076D02*
X158014761Y-86493314D01*
X158014761Y-86493314D02*
X157967142Y-86540933D01*
X157967142Y-86540933D02*
X157871904Y-86588552D01*
X157871904Y-86588552D02*
X157681428Y-86636171D01*
X157681428Y-86636171D02*
X157443333Y-86636171D01*
X157443333Y-86636171D02*
X157252857Y-86588552D01*
X157252857Y-86588552D02*
X157157619Y-86540933D01*
X157157619Y-86540933D02*
X157110000Y-86493314D01*
X157110000Y-86493314D02*
X157062380Y-86398076D01*
X157062380Y-86398076D02*
X157062380Y-86302838D01*
X157062380Y-86302838D02*
X157110000Y-86207600D01*
X157110000Y-86207600D02*
X157157619Y-86159981D01*
X157157619Y-86159981D02*
X157252857Y-86112362D01*
X157252857Y-86112362D02*
X157443333Y-86064743D01*
X157443333Y-86064743D02*
X157681428Y-86064743D01*
X157681428Y-86064743D02*
X157871904Y-86112362D01*
X157871904Y-86112362D02*
X157967142Y-86159981D01*
X157967142Y-86159981D02*
X158014761Y-86207600D01*
X158014761Y-86207600D02*
X158062380Y-86302838D01*
X157062380Y-87112362D02*
X157062380Y-87302838D01*
X157062380Y-87302838D02*
X157110000Y-87398076D01*
X157110000Y-87398076D02*
X157157619Y-87445695D01*
X157157619Y-87445695D02*
X157300476Y-87540933D01*
X157300476Y-87540933D02*
X157490952Y-87588552D01*
X157490952Y-87588552D02*
X157871904Y-87588552D01*
X157871904Y-87588552D02*
X157967142Y-87540933D01*
X157967142Y-87540933D02*
X158014761Y-87493314D01*
X158014761Y-87493314D02*
X158062380Y-87398076D01*
X158062380Y-87398076D02*
X158062380Y-87207600D01*
X158062380Y-87207600D02*
X158014761Y-87112362D01*
X158014761Y-87112362D02*
X157967142Y-87064743D01*
X157967142Y-87064743D02*
X157871904Y-87017124D01*
X157871904Y-87017124D02*
X157633809Y-87017124D01*
X157633809Y-87017124D02*
X157538571Y-87064743D01*
X157538571Y-87064743D02*
X157490952Y-87112362D01*
X157490952Y-87112362D02*
X157443333Y-87207600D01*
X157443333Y-87207600D02*
X157443333Y-87398076D01*
X157443333Y-87398076D02*
X157490952Y-87493314D01*
X157490952Y-87493314D02*
X157538571Y-87540933D01*
X157538571Y-87540933D02*
X157633809Y-87588552D01*
X157443333Y-88017124D02*
X157443333Y-88779029D01*
X157586190Y-89255219D02*
X157586190Y-89588552D01*
X157062380Y-89731409D02*
X157062380Y-89255219D01*
X157062380Y-89255219D02*
X158062380Y-89255219D01*
X158062380Y-89255219D02*
X158062380Y-89731409D01*
X157062380Y-90683790D02*
X157062380Y-90112362D01*
X157062380Y-90398076D02*
X158062380Y-90398076D01*
X158062380Y-90398076D02*
X157919523Y-90302838D01*
X157919523Y-90302838D02*
X157824285Y-90207600D01*
X157824285Y-90207600D02*
X157776666Y-90112362D01*
%TO.C,U5*%
X201192000Y-102253333D02*
X201325333Y-102253333D01*
X201325333Y-102253333D02*
X201392000Y-102286666D01*
X201392000Y-102286666D02*
X201458666Y-102353333D01*
X201458666Y-102353333D02*
X201492000Y-102486666D01*
X201492000Y-102486666D02*
X201492000Y-102720000D01*
X201492000Y-102720000D02*
X201458666Y-102853333D01*
X201458666Y-102853333D02*
X201392000Y-102920000D01*
X201392000Y-102920000D02*
X201325333Y-102953333D01*
X201325333Y-102953333D02*
X201192000Y-102953333D01*
X201192000Y-102953333D02*
X201125333Y-102920000D01*
X201125333Y-102920000D02*
X201058666Y-102853333D01*
X201058666Y-102853333D02*
X201025333Y-102720000D01*
X201025333Y-102720000D02*
X201025333Y-102486666D01*
X201025333Y-102486666D02*
X201058666Y-102353333D01*
X201058666Y-102353333D02*
X201125333Y-102286666D01*
X201125333Y-102286666D02*
X201192000Y-102253333D01*
X201791999Y-102953333D02*
X201791999Y-102253333D01*
X201791999Y-102253333D02*
X202191999Y-102953333D01*
X202191999Y-102953333D02*
X202191999Y-102253333D01*
D13*
%TO.C,D2*%
X230047619Y-105513094D02*
X229047619Y-105513094D01*
X229047619Y-105513094D02*
X229047619Y-105274999D01*
X229047619Y-105274999D02*
X229095238Y-105132142D01*
X229095238Y-105132142D02*
X229190476Y-105036904D01*
X229190476Y-105036904D02*
X229285714Y-104989285D01*
X229285714Y-104989285D02*
X229476190Y-104941666D01*
X229476190Y-104941666D02*
X229619047Y-104941666D01*
X229619047Y-104941666D02*
X229809523Y-104989285D01*
X229809523Y-104989285D02*
X229904761Y-105036904D01*
X229904761Y-105036904D02*
X230000000Y-105132142D01*
X230000000Y-105132142D02*
X230047619Y-105274999D01*
X230047619Y-105274999D02*
X230047619Y-105513094D01*
X229142857Y-104560713D02*
X229095238Y-104513094D01*
X229095238Y-104513094D02*
X229047619Y-104417856D01*
X229047619Y-104417856D02*
X229047619Y-104179761D01*
X229047619Y-104179761D02*
X229095238Y-104084523D01*
X229095238Y-104084523D02*
X229142857Y-104036904D01*
X229142857Y-104036904D02*
X229238095Y-103989285D01*
X229238095Y-103989285D02*
X229333333Y-103989285D01*
X229333333Y-103989285D02*
X229476190Y-104036904D01*
X229476190Y-104036904D02*
X230047619Y-104608332D01*
X230047619Y-104608332D02*
X230047619Y-103989285D01*
%TO.C,D1*%
X221792619Y-105513094D02*
X220792619Y-105513094D01*
X220792619Y-105513094D02*
X220792619Y-105274999D01*
X220792619Y-105274999D02*
X220840238Y-105132142D01*
X220840238Y-105132142D02*
X220935476Y-105036904D01*
X220935476Y-105036904D02*
X221030714Y-104989285D01*
X221030714Y-104989285D02*
X221221190Y-104941666D01*
X221221190Y-104941666D02*
X221364047Y-104941666D01*
X221364047Y-104941666D02*
X221554523Y-104989285D01*
X221554523Y-104989285D02*
X221649761Y-105036904D01*
X221649761Y-105036904D02*
X221745000Y-105132142D01*
X221745000Y-105132142D02*
X221792619Y-105274999D01*
X221792619Y-105274999D02*
X221792619Y-105513094D01*
X221792619Y-103989285D02*
X221792619Y-104560713D01*
X221792619Y-104274999D02*
X220792619Y-104274999D01*
X220792619Y-104274999D02*
X220935476Y-104370237D01*
X220935476Y-104370237D02*
X221030714Y-104465475D01*
X221030714Y-104465475D02*
X221078333Y-104560713D01*
D12*
%TO.C,U1*%
X147440000Y-64707600D02*
X168440000Y-64707600D01*
X168440000Y-64707600D02*
X168440000Y-107707600D01*
X168440000Y-107707600D02*
X147440000Y-107707600D01*
X147440000Y-107707600D02*
X147440000Y-64707600D01*
%TO.C,U5*%
X200652000Y-109879000D02*
X212452000Y-109879000D01*
X212452000Y-109879000D02*
X212452000Y-100079000D01*
X212452000Y-100079000D02*
X200652000Y-100079000D01*
X200652000Y-100079000D02*
X200652000Y-109879000D01*
X202092000Y-103839000D02*
X203292000Y-103839000D01*
X203292000Y-103839000D02*
X203292000Y-107039000D01*
X203292000Y-107039000D02*
X202092000Y-107039000D01*
X202092000Y-107039000D02*
X202092000Y-103839000D01*
X203292000Y-107039000D02*
X202092000Y-107039000D01*
X202092000Y-107039000D02*
X202092000Y-106139000D01*
X202092000Y-106139000D02*
X203292000Y-106139000D01*
X203292000Y-106139000D02*
X203292000Y-107039000D01*
X204592000Y-103839000D02*
X205792000Y-103839000D01*
X205792000Y-103839000D02*
X205792000Y-107039000D01*
X205792000Y-107039000D02*
X204592000Y-107039000D01*
X204592000Y-107039000D02*
X204592000Y-103839000D01*
X205792000Y-107039000D02*
X204592000Y-107039000D01*
X204592000Y-107039000D02*
X204592000Y-106139000D01*
X204592000Y-106139000D02*
X205792000Y-106139000D01*
X205792000Y-106139000D02*
X205792000Y-107039000D01*
X207192000Y-103839000D02*
X208392000Y-103839000D01*
X208392000Y-103839000D02*
X208392000Y-107039000D01*
X208392000Y-107039000D02*
X207192000Y-107039000D01*
X207192000Y-107039000D02*
X207192000Y-103839000D01*
X208392000Y-107039000D02*
X207192000Y-107039000D01*
X207192000Y-107039000D02*
X207192000Y-106139000D01*
X207192000Y-106139000D02*
X208392000Y-106139000D01*
X208392000Y-106139000D02*
X208392000Y-107039000D01*
X209692000Y-103839000D02*
X210892000Y-103839000D01*
X210892000Y-103839000D02*
X210892000Y-107039000D01*
X210892000Y-107039000D02*
X209692000Y-107039000D01*
X209692000Y-107039000D02*
X209692000Y-103839000D01*
X210892000Y-107039000D02*
X209692000Y-107039000D01*
X209692000Y-107039000D02*
X209692000Y-106139000D01*
X209692000Y-106139000D02*
X210892000Y-106139000D01*
X210892000Y-106139000D02*
X210892000Y-107039000D01*
D14*
%TO.C,J1*%
X169046400Y-61359600D02*
X169046400Y-62609600D01*
X169336400Y-61649600D02*
X169336400Y-67619600D01*
X169336400Y-67619600D02*
X176956400Y-67619600D01*
X169346400Y-61659600D02*
X169346400Y-62409600D01*
X169346400Y-62409600D02*
X171146400Y-62409600D01*
X169346400Y-63909600D02*
X170096400Y-63909600D01*
X170096400Y-63909600D02*
X170096400Y-66859600D01*
X170096400Y-66859600D02*
X173146400Y-66859600D01*
X170296400Y-61359600D02*
X169046400Y-61359600D01*
X171146400Y-61659600D02*
X169346400Y-61659600D01*
X171146400Y-62409600D02*
X171146400Y-61659600D01*
X172646400Y-61659600D02*
X172646400Y-62409600D01*
X172646400Y-62409600D02*
X173646400Y-62409600D01*
X173646400Y-61659600D02*
X172646400Y-61659600D01*
X173646400Y-62409600D02*
X173646400Y-61659600D01*
X175146400Y-61659600D02*
X175146400Y-62409600D01*
X175146400Y-62409600D02*
X176946400Y-62409600D01*
X176196400Y-63909600D02*
X176196400Y-66859600D01*
X176196400Y-66859600D02*
X173146400Y-66859600D01*
X176946400Y-61659600D02*
X175146400Y-61659600D01*
X176946400Y-62409600D02*
X176946400Y-61659600D01*
X176946400Y-63909600D02*
X176196400Y-63909600D01*
X176956400Y-61649600D02*
X169336400Y-61649600D01*
X176956400Y-67619600D02*
X176956400Y-61649600D01*
D15*
%TO.C,U3*%
X170815000Y-84455000D02*
X170815000Y-69215000D01*
X191135000Y-84455000D02*
X170815000Y-84455000D01*
X170815000Y-69215000D02*
X191135000Y-69215000D01*
X191135000Y-69215000D02*
X191135000Y-84455000D01*
D16*
X171625000Y-85235000D02*
G75*
G03*
X171625000Y-85235000I-100000J0D01*
G01*
D14*
%TO.C,J7*%
X246209000Y-61412000D02*
X244959000Y-61412000D01*
X245919000Y-61702000D02*
X239949000Y-61702000D01*
X239949000Y-61702000D02*
X239949000Y-74322000D01*
X245909000Y-61712000D02*
X245159000Y-61712000D01*
X245159000Y-61712000D02*
X245159000Y-63512000D01*
X243659000Y-61712000D02*
X243659000Y-62462000D01*
X243659000Y-62462000D02*
X240709000Y-62462000D01*
X240709000Y-62462000D02*
X240709000Y-68012000D01*
X246209000Y-62662000D02*
X246209000Y-61412000D01*
X245909000Y-63512000D02*
X245909000Y-61712000D01*
X245159000Y-63512000D02*
X245909000Y-63512000D01*
X245909000Y-65012000D02*
X245159000Y-65012000D01*
X245159000Y-65012000D02*
X245159000Y-71012000D01*
X245909000Y-71012000D02*
X245909000Y-65012000D01*
X245159000Y-71012000D02*
X245909000Y-71012000D01*
X245909000Y-72512000D02*
X245159000Y-72512000D01*
X245159000Y-72512000D02*
X245159000Y-74312000D01*
X243659000Y-73562000D02*
X240709000Y-73562000D01*
X240709000Y-73562000D02*
X240709000Y-68012000D01*
X245909000Y-74312000D02*
X245909000Y-72512000D01*
X245159000Y-74312000D02*
X245909000Y-74312000D01*
X243659000Y-74312000D02*
X243659000Y-73562000D01*
X245919000Y-74322000D02*
X245919000Y-61702000D01*
X239949000Y-74322000D02*
X245919000Y-74322000D01*
%TO.C,J2*%
X208097000Y-61385000D02*
X208097000Y-62635000D01*
X208387000Y-61675000D02*
X208387000Y-67645000D01*
X208387000Y-67645000D02*
X223507000Y-67645000D01*
X208397000Y-61685000D02*
X208397000Y-62435000D01*
X208397000Y-62435000D02*
X210197000Y-62435000D01*
X208397000Y-63935000D02*
X209147000Y-63935000D01*
X209147000Y-63935000D02*
X209147000Y-66885000D01*
X209147000Y-66885000D02*
X215947000Y-66885000D01*
X209347000Y-61385000D02*
X208097000Y-61385000D01*
X210197000Y-61685000D02*
X208397000Y-61685000D01*
X210197000Y-62435000D02*
X210197000Y-61685000D01*
X211697000Y-61685000D02*
X211697000Y-62435000D01*
X211697000Y-62435000D02*
X220197000Y-62435000D01*
X220197000Y-61685000D02*
X211697000Y-61685000D01*
X220197000Y-62435000D02*
X220197000Y-61685000D01*
X221697000Y-61685000D02*
X221697000Y-62435000D01*
X221697000Y-62435000D02*
X223497000Y-62435000D01*
X222747000Y-63935000D02*
X222747000Y-66885000D01*
X222747000Y-66885000D02*
X215947000Y-66885000D01*
X223497000Y-61685000D02*
X221697000Y-61685000D01*
X223497000Y-62435000D02*
X223497000Y-61685000D01*
X223497000Y-63935000D02*
X222747000Y-63935000D01*
X223507000Y-61675000D02*
X208387000Y-61675000D01*
X223507000Y-67645000D02*
X223507000Y-61675000D01*
%TO.C,D2*%
X231646000Y-106835000D02*
X231965000Y-106835000D01*
X234125000Y-106835000D02*
X234444000Y-106835000D01*
X231964276Y-102531759D02*
G75*
G03*
X231646251Y-106834999I1080724J-2243241D01*
G01*
X231964040Y-103092288D02*
G75*
G03*
X231965001Y-106458329I1080960J-1682712D01*
G01*
X234124999Y-106458329D02*
G75*
G03*
X234125960Y-103092288I-1079999J1683329D01*
G01*
X234443749Y-106834999D02*
G75*
G03*
X234125724Y-102531759I-1398749J2059999D01*
G01*
D15*
%TO.C,U2*%
X191135000Y-86360000D02*
X191135000Y-101600000D01*
X170815000Y-86360000D02*
X191135000Y-86360000D01*
X191135000Y-101600000D02*
X170815000Y-101600000D01*
X170815000Y-101600000D02*
X170815000Y-86360000D01*
D16*
X190525000Y-85580000D02*
G75*
G03*
X190525000Y-85580000I-100000J0D01*
G01*
D14*
%TO.C,D1*%
X223391000Y-106835000D02*
X223710000Y-106835000D01*
X225870000Y-106835000D02*
X226189000Y-106835000D01*
X223709276Y-102531759D02*
G75*
G03*
X223391251Y-106834999I1080724J-2243241D01*
G01*
X223709040Y-103092288D02*
G75*
G03*
X223710001Y-106458329I1080960J-1682712D01*
G01*
X225869999Y-106458329D02*
G75*
G03*
X225870960Y-103092288I-1079999J1683329D01*
G01*
X226188749Y-106834999D02*
G75*
G03*
X225870724Y-102531759I-1398749J2059999D01*
G01*
%TO.C,J6*%
X177845600Y-61385000D02*
X177845600Y-62635000D01*
X178135600Y-61675000D02*
X178135600Y-67645000D01*
X178135600Y-67645000D02*
X190755600Y-67645000D01*
X178145600Y-61685000D02*
X178145600Y-62435000D01*
X178145600Y-62435000D02*
X179945600Y-62435000D01*
X178145600Y-63935000D02*
X178895600Y-63935000D01*
X178895600Y-63935000D02*
X178895600Y-66885000D01*
X178895600Y-66885000D02*
X184445600Y-66885000D01*
X179095600Y-61385000D02*
X177845600Y-61385000D01*
X179945600Y-61685000D02*
X178145600Y-61685000D01*
X179945600Y-62435000D02*
X179945600Y-61685000D01*
X181445600Y-61685000D02*
X181445600Y-62435000D01*
X181445600Y-62435000D02*
X187445600Y-62435000D01*
X187445600Y-61685000D02*
X181445600Y-61685000D01*
X187445600Y-62435000D02*
X187445600Y-61685000D01*
X188945600Y-61685000D02*
X188945600Y-62435000D01*
X188945600Y-62435000D02*
X190745600Y-62435000D01*
X189995600Y-63935000D02*
X189995600Y-66885000D01*
X189995600Y-66885000D02*
X184445600Y-66885000D01*
X190745600Y-61685000D02*
X188945600Y-61685000D01*
X190745600Y-62435000D02*
X190745600Y-61685000D01*
X190745600Y-63935000D02*
X189995600Y-63935000D01*
X190755600Y-61675000D02*
X178135600Y-61675000D01*
X190755600Y-67645000D02*
X190755600Y-61675000D01*
%TO.C,J4*%
X191921000Y-61385000D02*
X191921000Y-62635000D01*
X192211000Y-61675000D02*
X192211000Y-67645000D01*
X192211000Y-67645000D02*
X207331000Y-67645000D01*
X192221000Y-61685000D02*
X192221000Y-62435000D01*
X192221000Y-62435000D02*
X194021000Y-62435000D01*
X192221000Y-63935000D02*
X192971000Y-63935000D01*
X192971000Y-63935000D02*
X192971000Y-66885000D01*
X192971000Y-66885000D02*
X199771000Y-66885000D01*
X193171000Y-61385000D02*
X191921000Y-61385000D01*
X194021000Y-61685000D02*
X192221000Y-61685000D01*
X194021000Y-62435000D02*
X194021000Y-61685000D01*
X195521000Y-61685000D02*
X195521000Y-62435000D01*
X195521000Y-62435000D02*
X204021000Y-62435000D01*
X204021000Y-61685000D02*
X195521000Y-61685000D01*
X204021000Y-62435000D02*
X204021000Y-61685000D01*
X205521000Y-61685000D02*
X205521000Y-62435000D01*
X205521000Y-62435000D02*
X207321000Y-62435000D01*
X206571000Y-63935000D02*
X206571000Y-66885000D01*
X206571000Y-66885000D02*
X199771000Y-66885000D01*
X207321000Y-61685000D02*
X205521000Y-61685000D01*
X207321000Y-62435000D02*
X207321000Y-61685000D01*
X207321000Y-63935000D02*
X206571000Y-63935000D01*
X207331000Y-61675000D02*
X192211000Y-61675000D01*
X207331000Y-67645000D02*
X207331000Y-61675000D01*
%TO.C,J5*%
X187575000Y-110446000D02*
X187575000Y-109196000D01*
X187285000Y-110156000D02*
X187285000Y-104186000D01*
X187285000Y-104186000D02*
X174665000Y-104186000D01*
X187275000Y-110146000D02*
X187275000Y-109396000D01*
X187275000Y-109396000D02*
X185475000Y-109396000D01*
X187275000Y-107896000D02*
X186525000Y-107896000D01*
X186525000Y-107896000D02*
X186525000Y-104946000D01*
X186525000Y-104946000D02*
X180975000Y-104946000D01*
X186325000Y-110446000D02*
X187575000Y-110446000D01*
X185475000Y-110146000D02*
X187275000Y-110146000D01*
X185475000Y-109396000D02*
X185475000Y-110146000D01*
X183975000Y-110146000D02*
X183975000Y-109396000D01*
X183975000Y-109396000D02*
X177975000Y-109396000D01*
X177975000Y-110146000D02*
X183975000Y-110146000D01*
X177975000Y-109396000D02*
X177975000Y-110146000D01*
X176475000Y-110146000D02*
X176475000Y-109396000D01*
X176475000Y-109396000D02*
X174675000Y-109396000D01*
X175425000Y-107896000D02*
X175425000Y-104946000D01*
X175425000Y-104946000D02*
X180975000Y-104946000D01*
X174675000Y-110146000D02*
X176475000Y-110146000D01*
X174675000Y-109396000D02*
X174675000Y-110146000D01*
X174675000Y-107896000D02*
X175425000Y-107896000D01*
X174665000Y-110156000D02*
X187285000Y-110156000D01*
X174665000Y-104186000D02*
X174665000Y-110156000D01*
D15*
%TO.C,U4*%
X236240000Y-79630000D02*
X236240000Y-98170000D01*
X197740000Y-79630000D02*
X236240000Y-79600000D01*
X236240000Y-98170000D02*
X197740000Y-98170000D01*
X197740000Y-98170000D02*
X197740000Y-79630000D01*
D16*
X235040000Y-78900000D02*
G75*
G03*
X235040000Y-78900000I-100000J0D01*
G01*
D14*
%TO.C,J3*%
X224286000Y-61368000D02*
X224286000Y-62618000D01*
X224576000Y-61658000D02*
X224576000Y-67628000D01*
X224576000Y-67628000D02*
X237196000Y-67628000D01*
X224586000Y-61668000D02*
X224586000Y-62418000D01*
X224586000Y-62418000D02*
X226386000Y-62418000D01*
X224586000Y-63918000D02*
X225336000Y-63918000D01*
X225336000Y-63918000D02*
X225336000Y-66868000D01*
X225336000Y-66868000D02*
X230886000Y-66868000D01*
X225536000Y-61368000D02*
X224286000Y-61368000D01*
X226386000Y-61668000D02*
X224586000Y-61668000D01*
X226386000Y-62418000D02*
X226386000Y-61668000D01*
X227886000Y-61668000D02*
X227886000Y-62418000D01*
X227886000Y-62418000D02*
X233886000Y-62418000D01*
X233886000Y-61668000D02*
X227886000Y-61668000D01*
X233886000Y-62418000D02*
X233886000Y-61668000D01*
X235386000Y-61668000D02*
X235386000Y-62418000D01*
X235386000Y-62418000D02*
X237186000Y-62418000D01*
X236436000Y-63918000D02*
X236436000Y-66868000D01*
X236436000Y-66868000D02*
X230886000Y-66868000D01*
X237186000Y-61668000D02*
X235386000Y-61668000D01*
X237186000Y-62418000D02*
X237186000Y-61668000D01*
X237186000Y-63918000D02*
X236436000Y-63918000D01*
X237196000Y-61658000D02*
X224576000Y-61658000D01*
X237196000Y-67628000D02*
X237196000Y-61658000D01*
%TO.C,U7*%
X218695000Y-110395000D02*
X220095000Y-110395000D01*
X220095000Y-108075000D02*
X218195000Y-108075000D01*
%TD*%
M02*
