M48
; DRILL file {KiCad 8.0.0} date 2024-03-29T21:56:32+0100
; FORMAT={-:-/ absolute / inch / decimal}
; #@! TF.CreationDate,2024-03-29T21:56:32+01:00
; #@! TF.GenerationSoftware,Kicad,Pcbnew,8.0.0
; #@! TF.FileFunction,Plated,1,2,PTH
FMAT,2
INCH
; #@! TA.AperFunction,Plated,PTH,ViaDrill
T1C0.0157
; #@! TA.AperFunction,Plated,PTH,ComponentDrill
T2C0.0300
; #@! TA.AperFunction,Plated,PTH,ComponentDrill
T3C0.0315
; #@! TA.AperFunction,Plated,PTH,ComponentDrill
T4C0.0354
; #@! TA.AperFunction,Plated,PTH,ComponentDrill
T5C0.0374
; #@! TA.AperFunction,Plated,PTH,ComponentDrill
T6C0.0394
; #@! TA.AperFunction,Plated,PTH,ComponentDrill
T7C0.0402
%
G90
G05
T1
X7.71Y-3.99
X8.5039Y-4.3
X8.8976Y-4.2717
T2
X5.8362Y-2.579
X5.8362Y-4.209
X6.6Y-2.579
X6.6Y-4.209
T3
X7.98Y-3.985
X7.98Y-4.285
X8.08Y-3.985
X8.08Y-4.285
X8.18Y-3.985
X8.18Y-4.285
X8.28Y-3.985
X8.28Y-4.285
T4
X8.85Y-4.075
X8.85Y-4.175
X9.175Y-4.075
X9.175Y-4.175
T5
X6.9774Y-4.24
X7.0758Y-4.24
X7.114Y-2.525
X7.1742Y-4.24
X7.2124Y-2.525
X7.2726Y-4.24
X7.3109Y-2.525
X7.4093Y-2.525
X7.6681Y-2.525
X7.7666Y-2.525
X7.865Y-2.525
X7.9634Y-2.525
X8.0619Y-2.525
X8.305Y-2.525
X8.4034Y-2.525
X8.5019Y-2.525
X8.6003Y-2.525
X8.6987Y-2.525
X8.9424Y-2.5243
X9.0408Y-2.5243
X9.1392Y-2.5243
X9.2376Y-2.5243
X9.585Y-2.53
X9.585Y-2.6284
X9.585Y-2.7269
X9.585Y-2.8253
T6
X6.7676Y-2.524
X6.866Y-2.524
X9.5866Y-4.0748
X9.5866Y-4.1732
T7
X6.775Y-2.775
X6.775Y-3.275
X6.775Y-3.45
X6.775Y-3.95
X6.875Y-2.775
X6.875Y-3.275
X6.875Y-3.45
X6.875Y-3.95
X6.975Y-2.775
X6.975Y-3.275
X6.975Y-3.45
X6.975Y-3.95
X7.075Y-2.775
X7.075Y-3.275
X7.075Y-3.45
X7.075Y-3.95
X7.175Y-2.775
X7.175Y-3.275
X7.175Y-3.45
X7.175Y-3.95
X7.275Y-2.775
X7.275Y-3.275
X7.275Y-3.45
X7.275Y-3.95
X7.375Y-2.775
X7.375Y-3.275
X7.375Y-3.45
X7.375Y-3.95
X7.475Y-2.775
X7.475Y-3.275
X7.475Y-3.45
X7.475Y-3.95
X7.8384Y-3.2
X7.8384Y-3.8
X7.9384Y-3.2
X7.9384Y-3.8
X8.0384Y-3.2
X8.0384Y-3.8
X8.1384Y-3.2
X8.1384Y-3.8
X8.2384Y-3.2
X8.2384Y-3.8
X8.3384Y-3.2
X8.3384Y-3.8
X8.4384Y-3.2
X8.4384Y-3.8
X8.5384Y-3.2
X8.5384Y-3.8
X8.6384Y-3.2
X8.6384Y-3.8
X8.7384Y-3.2
X8.7384Y-3.8
X8.8384Y-3.2
X8.8384Y-3.8
X8.9384Y-3.2
X8.9384Y-3.8
X9.0384Y-3.2
X9.0384Y-3.8
X9.1384Y-3.2
X9.1384Y-3.8
X9.2384Y-3.2
X9.2384Y-3.8
M30
