%TF.GenerationSoftware,KiCad,Pcbnew,8.0.0*%
%TF.CreationDate,2024-03-29T22:46:43+01:00*%
%TF.ProjectId,carte_generale,63617274-655f-4676-956e-6572616c652e,Cyril_ Eliott*%
%TF.SameCoordinates,Original*%
%TF.FileFunction,Copper,L1,Top*%
%TF.FilePolarity,Positive*%
%FSLAX46Y46*%
G04 Gerber Fmt 4.6, Leading zero omitted, Abs format (unit mm)*
G04 Created by KiCad (PCBNEW 8.0.0) date 2024-03-29 22:46:43*
%MOMM*%
%LPD*%
G01*
G04 APERTURE LIST*
G04 Aperture macros list*
%AMRoundRect*
0 Rectangle with rounded corners*
0 $1 Rounding radius*
0 $2 $3 $4 $5 $6 $7 $8 $9 X,Y pos of 4 corners*
0 Add a 4 corners polygon primitive as box body*
4,1,4,$2,$3,$4,$5,$6,$7,$8,$9,$2,$3,0*
0 Add four circle primitives for the rounded corners*
1,1,$1+$1,$2,$3*
1,1,$1+$1,$4,$5*
1,1,$1+$1,$6,$7*
1,1,$1+$1,$8,$9*
0 Add four rect primitives between the rounded corners*
20,1,$1+$1,$2,$3,$4,$5,0*
20,1,$1+$1,$4,$5,$6,$7,0*
20,1,$1+$1,$6,$7,$8,$9,0*
20,1,$1+$1,$8,$9,$2,$3,0*%
G04 Aperture macros list end*
%TA.AperFunction,SMDPad,CuDef*%
%ADD10RoundRect,0.100000X0.130000X0.100000X-0.130000X0.100000X-0.130000X-0.100000X0.130000X-0.100000X0*%
%TD*%
%TA.AperFunction,ComponentPad*%
%ADD11R,1.524000X1.524000*%
%TD*%
%TA.AperFunction,ComponentPad*%
%ADD12RoundRect,0.250000X-0.600000X-0.750000X0.600000X-0.750000X0.600000X0.750000X-0.600000X0.750000X0*%
%TD*%
%TA.AperFunction,ComponentPad*%
%ADD13O,1.700000X2.000000*%
%TD*%
%TA.AperFunction,ComponentPad*%
%ADD14R,1.530000X1.530000*%
%TD*%
%TA.AperFunction,ComponentPad*%
%ADD15C,1.530000*%
%TD*%
%TA.AperFunction,ComponentPad*%
%ADD16RoundRect,0.250000X-0.725000X0.600000X-0.725000X-0.600000X0.725000X-0.600000X0.725000X0.600000X0*%
%TD*%
%TA.AperFunction,ComponentPad*%
%ADD17O,1.950000X1.700000*%
%TD*%
%TA.AperFunction,ComponentPad*%
%ADD18RoundRect,0.250000X-0.600000X-0.725000X0.600000X-0.725000X0.600000X0.725000X-0.600000X0.725000X0*%
%TD*%
%TA.AperFunction,ComponentPad*%
%ADD19O,1.700000X1.950000*%
%TD*%
%TA.AperFunction,SMDPad,CuDef*%
%ADD20RoundRect,0.100000X-0.130000X-0.100000X0.130000X-0.100000X0.130000X0.100000X-0.130000X0.100000X0*%
%TD*%
%TA.AperFunction,ComponentPad*%
%ADD21RoundRect,0.250000X-0.750000X0.600000X-0.750000X-0.600000X0.750000X-0.600000X0.750000X0.600000X0*%
%TD*%
%TA.AperFunction,ComponentPad*%
%ADD22O,2.000000X1.700000*%
%TD*%
%TA.AperFunction,ComponentPad*%
%ADD23R,1.800000X1.800000*%
%TD*%
%TA.AperFunction,ComponentPad*%
%ADD24C,1.800000*%
%TD*%
%TA.AperFunction,ComponentPad*%
%ADD25RoundRect,0.425000X-0.425000X-0.550000X0.425000X-0.550000X0.425000X0.550000X-0.425000X0.550000X0*%
%TD*%
%TA.AperFunction,ComponentPad*%
%ADD26RoundRect,0.425000X0.425000X0.550000X-0.425000X0.550000X-0.425000X-0.550000X0.425000X-0.550000X0*%
%TD*%
%TA.AperFunction,SMDPad,CuDef*%
%ADD27R,0.650000X0.400000*%
%TD*%
%TA.AperFunction,ViaPad*%
%ADD28C,0.800000*%
%TD*%
%TA.AperFunction,Conductor*%
%ADD29C,0.250000*%
%TD*%
%TA.AperFunction,Conductor*%
%ADD30C,0.700000*%
%TD*%
%TA.AperFunction,Conductor*%
%ADD31C,0.200000*%
%TD*%
%TA.AperFunction,Conductor*%
%ADD32C,0.800000*%
%TD*%
%TA.AperFunction,Conductor*%
%ADD33C,0.500000*%
%TD*%
%TA.AperFunction,Conductor*%
%ADD34C,0.300000*%
%TD*%
G04 APERTURE END LIST*
D10*
%TO.P,R2,1*%
%TO.N,Net-(R2-Pad1)*%
X197714000Y-101346000D03*
%TO.P,R2,2*%
%TO.N,GND*%
X197074000Y-101346000D03*
%TD*%
D11*
%TO.P,U1,1,IN+*%
%TO.N,V_5V*%
X167640000Y-65507600D03*
%TO.P,U1,2,IN-*%
%TO.N,GND*%
X148240000Y-65507600D03*
%TO.P,U1,3,OUT+*%
%TO.N,V_9V*%
X167640000Y-106907600D03*
%TO.P,U1,4,OUT-*%
%TO.N,GND*%
X148240000Y-106907600D03*
%TD*%
%TO.P,U5,1*%
%TO.N,BINARY_1*%
X202692000Y-108839000D03*
%TO.P,U5,2*%
%TO.N,BINARY_2*%
X205232000Y-108839000D03*
%TO.P,U5,3*%
%TO.N,BINARY_3*%
X207772000Y-108839000D03*
%TO.P,U5,4*%
%TO.N,SELECT_EQUIPE*%
X210312000Y-108839000D03*
%TO.P,U5,5*%
%TO.N,Net-(R2-Pad1)*%
X210312000Y-101219000D03*
%TO.P,U5,6*%
X207772000Y-101219000D03*
%TO.P,U5,7*%
X205232000Y-101219000D03*
%TO.P,U5,8*%
X202692000Y-101219000D03*
%TD*%
D12*
%TO.P,J1,1,Pin_1*%
%TO.N,V_5V*%
X171896400Y-64109600D03*
D13*
%TO.P,J1,2,Pin_2*%
%TO.N,GND*%
X174396400Y-64109600D03*
%TD*%
D14*
%TO.P,U3,1,~ENABLE*%
%TO.N,unconnected-(U3-~ENABLE-Pad1)*%
X172085000Y-83185000D03*
D15*
%TO.P,U3,2,MS1*%
%TO.N,unconnected-(U3-MS1-Pad2)*%
X174625000Y-83185000D03*
%TO.P,U3,3,MS2*%
%TO.N,unconnected-(U3-MS2-Pad3)*%
X177165000Y-83185000D03*
%TO.P,U3,4,MS3*%
%TO.N,unconnected-(U3-MS3-Pad4)*%
X179705000Y-83185000D03*
%TO.P,U3,5,~RESET*%
%TO.N,Net-(U3-~RESET)*%
X182245000Y-83185000D03*
%TO.P,U3,6,~SLEEP*%
X184785000Y-83185000D03*
%TO.P,U3,7,STEP*%
%TO.N,STEP2*%
X187325000Y-83185000D03*
%TO.P,U3,8,DIRECTION*%
%TO.N,DIR2*%
X189865000Y-83185000D03*
%TO.P,U3,9,VMOT*%
%TO.N,V_9V*%
X189865000Y-70485000D03*
%TO.P,U3,10,GND*%
%TO.N,GND*%
X187325000Y-70485000D03*
%TO.P,U3,11,2B*%
%TO.N,M2_B-*%
X184785000Y-70485000D03*
%TO.P,U3,12,2A*%
%TO.N,M2_B+*%
X182245000Y-70485000D03*
%TO.P,U3,13,1A*%
%TO.N,M2_A+*%
X179705000Y-70485000D03*
%TO.P,U3,14,1B*%
%TO.N,M2_A-*%
X177165000Y-70485000D03*
%TO.P,U3,15,VDD*%
%TO.N,V_5V*%
X174625000Y-70485000D03*
%TO.P,U3,16,GND*%
%TO.N,GND*%
X172085000Y-70485000D03*
%TD*%
D16*
%TO.P,J7,1,Pin_1*%
%TO.N,V_5V*%
X243459000Y-64262000D03*
D17*
%TO.P,J7,2,Pin_2*%
%TO.N,UART2_RX*%
X243459000Y-66762000D03*
%TO.P,J7,3,Pin_3*%
%TO.N,UART2_TX*%
X243459000Y-69262000D03*
%TO.P,J7,4,Pin_4*%
%TO.N,GND*%
X243459000Y-71762000D03*
%TD*%
D18*
%TO.P,J2,1,Pin_1*%
%TO.N,V_5V*%
X210947000Y-64135000D03*
D19*
%TO.P,J2,2,Pin_2*%
%TO.N,I2C1_SCL*%
X213447000Y-64135000D03*
%TO.P,J2,3,Pin_3*%
%TO.N,I2C1_SDA*%
X215947000Y-64135000D03*
%TO.P,J2,4,Pin_4*%
%TO.N,XSDN1*%
X218447000Y-64135000D03*
%TO.P,J2,5,Pin_5*%
%TO.N,GND*%
X220947000Y-64135000D03*
%TD*%
D20*
%TO.P,R1,1*%
%TO.N,MUX_OUTPUT*%
X223515000Y-109220000D03*
%TO.P,R1,2*%
%TO.N,GND*%
X224155000Y-109220000D03*
%TD*%
D21*
%TO.P,J8,1,Pin_1*%
%TO.N,V_5V*%
X243500000Y-103500000D03*
D22*
%TO.P,J8,2,Pin_2*%
%TO.N,TIRETTE*%
X243500000Y-106000000D03*
%TD*%
D23*
%TO.P,D2,1,K*%
%TO.N,MUX_INPUT_2*%
X233045000Y-106045000D03*
D24*
%TO.P,D2,2,A*%
%TO.N,V_5V*%
X233045000Y-103505000D03*
%TD*%
D14*
%TO.P,U2,1,~ENABLE*%
%TO.N,unconnected-(U2-~ENABLE-Pad1)*%
X189865000Y-87630000D03*
D15*
%TO.P,U2,2,MS1*%
%TO.N,unconnected-(U2-MS1-Pad2)*%
X187325000Y-87630000D03*
%TO.P,U2,3,MS2*%
%TO.N,unconnected-(U2-MS2-Pad3)*%
X184785000Y-87630000D03*
%TO.P,U2,4,MS3*%
%TO.N,unconnected-(U2-MS3-Pad4)*%
X182245000Y-87630000D03*
%TO.P,U2,5,~RESET*%
%TO.N,Net-(U2-~RESET)*%
X179705000Y-87630000D03*
%TO.P,U2,6,~SLEEP*%
X177165000Y-87630000D03*
%TO.P,U2,7,STEP*%
%TO.N,STEP1*%
X174625000Y-87630000D03*
%TO.P,U2,8,DIRECTION*%
%TO.N,DIR1*%
X172085000Y-87630000D03*
%TO.P,U2,9,VMOT*%
%TO.N,V_9V*%
X172085000Y-100330000D03*
%TO.P,U2,10,GND*%
%TO.N,GND*%
X174625000Y-100330000D03*
%TO.P,U2,11,2B*%
%TO.N,M1_B-*%
X177165000Y-100330000D03*
%TO.P,U2,12,2A*%
%TO.N,M1_B+*%
X179705000Y-100330000D03*
%TO.P,U2,13,1A*%
%TO.N,M1_A+*%
X182245000Y-100330000D03*
%TO.P,U2,14,1B*%
%TO.N,M1_A-*%
X184785000Y-100330000D03*
%TO.P,U2,15,VDD*%
%TO.N,V_5V*%
X187325000Y-100330000D03*
%TO.P,U2,16,GND*%
%TO.N,GND*%
X189865000Y-100330000D03*
%TD*%
D20*
%TO.P,R3,1*%
%TO.N,GND*%
X240180000Y-99000000D03*
%TO.P,R3,2*%
%TO.N,TIRETTE*%
X240820000Y-99000000D03*
%TD*%
D23*
%TO.P,D1,1,K*%
%TO.N,MUX_INPUT_1*%
X224790000Y-106045000D03*
D24*
%TO.P,D1,2,A*%
%TO.N,V_5V*%
X224790000Y-103505000D03*
%TD*%
D25*
%TO.P,J6,1,Pin_1*%
%TO.N,M2_B-*%
X188195600Y-64135000D03*
D19*
%TO.P,J6,2,Pin_2*%
%TO.N,M2_B+*%
X185695600Y-64135000D03*
%TO.P,J6,3,Pin_3*%
%TO.N,M2_A+*%
X183195600Y-64135000D03*
%TO.P,J6,4,Pin_4*%
%TO.N,M2_A-*%
X180695600Y-64135000D03*
%TD*%
D18*
%TO.P,J4,1,Pin_1*%
%TO.N,V_5V*%
X194771000Y-64135000D03*
D19*
%TO.P,J4,2,Pin_2*%
%TO.N,I2C1_SCL*%
X197271000Y-64135000D03*
%TO.P,J4,3,Pin_3*%
%TO.N,I2C1_SDA*%
X199771000Y-64135000D03*
%TO.P,J4,4,Pin_4*%
%TO.N,XSDN2*%
X202271000Y-64135000D03*
%TO.P,J4,5,Pin_5*%
%TO.N,GND*%
X204771000Y-64135000D03*
%TD*%
D26*
%TO.P,J5,1,Pin_1*%
%TO.N,M1_B-*%
X177225000Y-107696000D03*
D19*
%TO.P,J5,2,Pin_2*%
%TO.N,M1_B+*%
X179725000Y-107696000D03*
%TO.P,J5,3,Pin_3*%
%TO.N,M1_A+*%
X182225000Y-107696000D03*
%TO.P,J5,4,Pin_4*%
%TO.N,M1_A-*%
X184725000Y-107696000D03*
%TD*%
D14*
%TO.P,U4,1,D1/TX*%
%TO.N,STEP2*%
X234655000Y-81280000D03*
D15*
%TO.P,U4,2,D0/RX*%
%TO.N,STEP1*%
X232115000Y-81280000D03*
%TO.P,U4,3,RST*%
%TO.N,unconnected-(U4-RST-Pad3)*%
X229575000Y-81280000D03*
%TO.P,U4,4,GND*%
%TO.N,GND*%
X227035000Y-81280000D03*
%TO.P,U4,5,D2*%
%TO.N,XSDN1*%
X224495000Y-81280000D03*
%TO.P,U4,6,D3*%
%TO.N,XSDN2*%
X221955000Y-81280000D03*
%TO.P,U4,7,D4*%
%TO.N,I2C1_SDA*%
X219415000Y-81280000D03*
%TO.P,U4,8,D5*%
%TO.N,I2C1_SCL*%
X216875000Y-81280000D03*
%TO.P,U4,9,D6*%
%TO.N,unconnected-(U4-D6-Pad9)*%
X214335000Y-81280000D03*
%TO.P,U4,10,D7*%
%TO.N,unconnected-(U4-D7-Pad10)*%
X211795000Y-81280000D03*
%TO.P,U4,11,D8*%
%TO.N,unconnected-(U4-D8-Pad11)*%
X209255000Y-81280000D03*
%TO.P,U4,12,D9*%
%TO.N,DIR1*%
X206715000Y-81280000D03*
%TO.P,U4,13,D10*%
%TO.N,DIR2*%
X204175000Y-81280000D03*
%TO.P,U4,14,D11*%
%TO.N,unconnected-(U4-D11-Pad14)*%
X201635000Y-81280000D03*
%TO.P,U4,15,D12*%
%TO.N,unconnected-(U4-D12-Pad15)*%
X199095000Y-81280000D03*
%TO.P,U4,16,D13*%
%TO.N,unconnected-(U4-D13-Pad16)*%
X199095000Y-96520000D03*
%TO.P,U4,17,3V3*%
%TO.N,V_3.3V*%
X201635000Y-96520000D03*
%TO.P,U4,18,REF*%
%TO.N,unconnected-(U4-REF-Pad18)*%
X204175000Y-96520000D03*
%TO.P,U4,19,A0*%
%TO.N,unconnected-(U4-A0-Pad19)*%
X206715000Y-96520000D03*
%TO.P,U4,20,A1*%
%TO.N,TIRETTE*%
X209255000Y-96520000D03*
%TO.P,U4,21,A2*%
%TO.N,UART2_RX*%
X211795000Y-96520000D03*
%TO.P,U4,22,A3*%
%TO.N,BINARY_1*%
X214335000Y-96520000D03*
%TO.P,U4,23,A4*%
%TO.N,BINARY_2*%
X216875000Y-96520000D03*
%TO.P,U4,24,A5*%
%TO.N,BINARY_3*%
X219415000Y-96520000D03*
%TO.P,U4,25,A6*%
%TO.N,SELECT_EQUIPE*%
X221955000Y-96520000D03*
%TO.P,U4,26,A7*%
%TO.N,UART2_TX*%
X224495000Y-96520000D03*
%TO.P,U4,27,5V*%
%TO.N,unconnected-(U4-5V-Pad27)*%
X227035000Y-96520000D03*
%TO.P,U4,28,RST*%
%TO.N,unconnected-(U4-RST-Pad28)*%
X229575000Y-96520000D03*
%TO.P,U4,29,GND*%
%TO.N,GND*%
X232115000Y-96520000D03*
D14*
%TO.P,U4,30,VIN*%
%TO.N,V_5V*%
X234655000Y-96520000D03*
%TD*%
D18*
%TO.P,J3,1,Pin_1*%
%TO.N,V_5V*%
X227136000Y-64118000D03*
D19*
%TO.P,J3,2,Pin_2*%
%TO.N,I2C1_SCL*%
X229636000Y-64118000D03*
%TO.P,J3,3,Pin_3*%
%TO.N,I2C1_SDA*%
X232136000Y-64118000D03*
%TO.P,J3,4,Pin_4*%
%TO.N,GND*%
X234636000Y-64118000D03*
%TD*%
D27*
%TO.P,U7,1,IN*%
%TO.N,SELECT_EQUIPE*%
X218445000Y-108585000D03*
%TO.P,U7,2,V+*%
%TO.N,V_5V*%
X218445000Y-109235000D03*
%TO.P,U7,3,GND*%
%TO.N,GND*%
X218445000Y-109885000D03*
%TO.P,U7,4,NC*%
%TO.N,MUX_INPUT_2*%
X220345000Y-109885000D03*
%TO.P,U7,5,COM*%
%TO.N,MUX_OUTPUT*%
X220345000Y-109235000D03*
%TO.P,U7,6,NO*%
%TO.N,MUX_INPUT_1*%
X220345000Y-108585000D03*
%TD*%
D28*
%TO.N,GND*%
X216000000Y-110000000D03*
%TO.N,V_5V*%
X216000000Y-108000000D03*
%TO.N,GND*%
X195834000Y-101346000D03*
X226000000Y-108500000D03*
%TD*%
D29*
%TO.N,UART2_RX*%
X237500000Y-81524000D02*
X225024000Y-94000000D01*
X237500000Y-72721000D02*
X237500000Y-81524000D01*
X243459000Y-66762000D02*
X237500000Y-72721000D01*
X225024000Y-94000000D02*
X214315000Y-94000000D01*
X214315000Y-94000000D02*
X211795000Y-96520000D01*
%TO.N,UART2_TX*%
X239000000Y-82015000D02*
X224495000Y-96520000D01*
X239000000Y-73721000D02*
X239000000Y-82015000D01*
X243459000Y-69262000D02*
X239000000Y-73721000D01*
%TO.N,GND*%
X218330000Y-110000000D02*
X218445000Y-109885000D01*
X216000000Y-110000000D02*
X218330000Y-110000000D01*
%TO.N,V_5V*%
X217235000Y-109235000D02*
X218445000Y-109235000D01*
X216000000Y-108000000D02*
X217235000Y-109235000D01*
%TO.N,MUX_INPUT_1*%
X222250000Y-108585000D02*
X224790000Y-106045000D01*
X220345000Y-108585000D02*
X222250000Y-108585000D01*
%TO.N,V_5V*%
X243500000Y-98500000D02*
X241520000Y-96520000D01*
X243500000Y-103500000D02*
X243500000Y-98500000D01*
X241520000Y-96520000D02*
X234655000Y-96520000D01*
%TO.N,MUX_INPUT_2*%
X229205000Y-109885000D02*
X233045000Y-106045000D01*
X220345000Y-109885000D02*
X229205000Y-109885000D01*
%TO.N,GND*%
X233000000Y-99000000D02*
X240180000Y-99000000D01*
X224155000Y-109220000D02*
X225280000Y-109220000D01*
X232115000Y-96520000D02*
X232115000Y-98115000D01*
X197074000Y-101346000D02*
X195834000Y-101346000D01*
X232115000Y-98115000D02*
X233000000Y-99000000D01*
X225280000Y-109220000D02*
X226000000Y-108500000D01*
%TO.N,I2C1_SCL*%
X215082000Y-62500000D02*
X228018000Y-62500000D01*
X213447000Y-64135000D02*
X213447000Y-77852000D01*
X213447000Y-64135000D02*
X215082000Y-62500000D01*
X213447000Y-77852000D02*
X216875000Y-81280000D01*
X213447000Y-64135000D02*
X211812000Y-62500000D01*
X198906000Y-62500000D02*
X197271000Y-64135000D01*
X228018000Y-62500000D02*
X229636000Y-64118000D01*
X211812000Y-62500000D02*
X198906000Y-62500000D01*
%TO.N,I2C1_SDA*%
X215947000Y-64135000D02*
X215947000Y-77812000D01*
X215947000Y-77812000D02*
X219415000Y-81280000D01*
D30*
%TO.N,M1_B-*%
X177165000Y-107636000D02*
X177165000Y-100330000D01*
D31*
X177225000Y-107696000D02*
X177165000Y-107636000D01*
D30*
%TO.N,M1_B+*%
X179705000Y-100330000D02*
X179705000Y-107676000D01*
D31*
X179705000Y-107676000D02*
X179725000Y-107696000D01*
D30*
%TO.N,M1_A+*%
X182225000Y-107696000D02*
X182225000Y-100350000D01*
D31*
X182225000Y-100350000D02*
X182245000Y-100330000D01*
D30*
%TO.N,M1_A-*%
X184785000Y-100330000D02*
X184785000Y-107636000D01*
D31*
X184785000Y-107636000D02*
X184725000Y-107696000D01*
D30*
%TO.N,M2_B-*%
X188195600Y-65169400D02*
X184785000Y-68580000D01*
X188195600Y-64135000D02*
X188195600Y-65169400D01*
X184785000Y-68580000D02*
X184785000Y-70485000D01*
%TO.N,M2_B+*%
X182245000Y-68453000D02*
X182245000Y-70485000D01*
X185695600Y-65002400D02*
X182245000Y-68453000D01*
X185695600Y-64135000D02*
X185695600Y-65002400D01*
%TO.N,M2_A+*%
X179705000Y-68580000D02*
X179705000Y-70485000D01*
X183195600Y-65089400D02*
X179705000Y-68580000D01*
X183195600Y-64135000D02*
X183195600Y-65089400D01*
%TO.N,M2_A-*%
X177165000Y-68580000D02*
X177165000Y-70485000D01*
X180695600Y-65049400D02*
X177165000Y-68580000D01*
X180695600Y-64135000D02*
X180695600Y-65049400D01*
D29*
%TO.N,MUX_OUTPUT*%
X220360000Y-109220000D02*
X220345000Y-109235000D01*
X223515000Y-109220000D02*
X220360000Y-109220000D01*
D32*
%TO.N,V_9V*%
X181991000Y-78359000D02*
X189865000Y-70485000D01*
X167640000Y-106907600D02*
X167640000Y-82550000D01*
X167640000Y-105537000D02*
X172085000Y-101092000D01*
X171831000Y-78359000D02*
X181991000Y-78359000D01*
X167640000Y-82550000D02*
X171831000Y-78359000D01*
X167640000Y-106907600D02*
X167640000Y-105537000D01*
X172085000Y-101092000D02*
X172085000Y-100330000D01*
D33*
%TO.N,Net-(U2-~RESET)*%
X177165000Y-87630000D02*
X179705000Y-87630000D01*
D34*
%TO.N,STEP1*%
X223895000Y-89500000D02*
X232115000Y-81280000D01*
X176495000Y-89500000D02*
X223895000Y-89500000D01*
X174625000Y-87630000D02*
X176495000Y-89500000D01*
%TO.N,DIR1*%
X172085000Y-87630000D02*
X173715000Y-86000000D01*
X173715000Y-86000000D02*
X201995000Y-86000000D01*
X201995000Y-86000000D02*
X206715000Y-81280000D01*
D33*
%TO.N,Net-(U3-~RESET)*%
X182245000Y-83185000D02*
X184785000Y-83185000D01*
D34*
%TO.N,DIR2*%
X202270000Y-83185000D02*
X204175000Y-81280000D01*
X189865000Y-83185000D02*
X202270000Y-83185000D01*
D29*
%TO.N,TIRETTE*%
X241500000Y-106000000D02*
X240820000Y-105320000D01*
X240820000Y-105320000D02*
X240820000Y-99000000D01*
X243500000Y-106000000D02*
X241500000Y-106000000D01*
%TO.N,BINARY_1*%
X205031000Y-106500000D02*
X202692000Y-108839000D01*
X214335000Y-100165000D02*
X210500000Y-104000000D01*
X214335000Y-96520000D02*
X214335000Y-100165000D01*
X210500000Y-104000000D02*
X207500000Y-104000000D01*
X205031000Y-106469000D02*
X205031000Y-106500000D01*
X207500000Y-104000000D02*
X205031000Y-106469000D01*
%TO.N,BINARY_2*%
X208571000Y-105500000D02*
X211500000Y-105500000D01*
X205661000Y-108839000D02*
X205232000Y-108839000D01*
X211500000Y-105500000D02*
X216875000Y-100125000D01*
X205232000Y-108839000D02*
X208571000Y-105500000D01*
X216875000Y-100125000D02*
X216875000Y-96520000D01*
%TO.N,BINARY_3*%
X212500000Y-107000000D02*
X219415000Y-100085000D01*
X207772000Y-107728000D02*
X208500000Y-107000000D01*
X219415000Y-100085000D02*
X219415000Y-96520000D01*
X208500000Y-107000000D02*
X212500000Y-107000000D01*
X208161000Y-108839000D02*
X207772000Y-108839000D01*
X207772000Y-108839000D02*
X207772000Y-107728000D01*
%TO.N,SELECT_EQUIPE*%
X218440000Y-108585000D02*
X216500000Y-106645000D01*
X216500000Y-105000000D02*
X221955000Y-99545000D01*
X221955000Y-99545000D02*
X221955000Y-96520000D01*
X216500000Y-106645000D02*
X216500000Y-105000000D01*
X210312000Y-108839000D02*
X210312000Y-108163000D01*
X210312000Y-108839000D02*
X212661000Y-108839000D01*
X218445000Y-108585000D02*
X218440000Y-108585000D01*
X212661000Y-108839000D02*
X216500000Y-105000000D01*
%TO.N,Net-(R2-Pad1)*%
X202565000Y-101346000D02*
X202692000Y-101219000D01*
X197714000Y-101346000D02*
X202565000Y-101346000D01*
%TD*%
%TA.AperFunction,Conductor*%
%TO.N,V_5V*%
G36*
X246577039Y-60979685D02*
G01*
X246622794Y-61032489D01*
X246634000Y-61084000D01*
X246634000Y-110836000D01*
X246614315Y-110903039D01*
X246561511Y-110948794D01*
X246510000Y-110960000D01*
X216592328Y-110960000D01*
X216525289Y-110940315D01*
X216479534Y-110887511D01*
X216469590Y-110818353D01*
X216498615Y-110754797D01*
X216519442Y-110735682D01*
X216605871Y-110672888D01*
X216608788Y-110669647D01*
X216611600Y-110666526D01*
X216671087Y-110629879D01*
X216703748Y-110625500D01*
X218391607Y-110625500D01*
X218452029Y-110613481D01*
X218512452Y-110601463D01*
X218528202Y-110594939D01*
X218575657Y-110585499D01*
X218817871Y-110585499D01*
X218817872Y-110585499D01*
X218877483Y-110579091D01*
X219012331Y-110528796D01*
X219127546Y-110442546D01*
X219213796Y-110327331D01*
X219264091Y-110192483D01*
X219270500Y-110132873D01*
X219270500Y-110132870D01*
X219519500Y-110132870D01*
X219519501Y-110132876D01*
X219525908Y-110192483D01*
X219576202Y-110327328D01*
X219576206Y-110327335D01*
X219662452Y-110442544D01*
X219662455Y-110442547D01*
X219777664Y-110528793D01*
X219777671Y-110528797D01*
X219822618Y-110545561D01*
X219912517Y-110579091D01*
X219972127Y-110585500D01*
X220717872Y-110585499D01*
X220777483Y-110579091D01*
X220912331Y-110528796D01*
X220912333Y-110528793D01*
X220918058Y-110525669D01*
X220977487Y-110510500D01*
X229266607Y-110510500D01*
X229327029Y-110498481D01*
X229387452Y-110486463D01*
X229432197Y-110467929D01*
X229501286Y-110439312D01*
X229562015Y-110398733D01*
X229603733Y-110370858D01*
X229690858Y-110283733D01*
X229690859Y-110283731D01*
X229697925Y-110276665D01*
X229697928Y-110276661D01*
X232492771Y-107481818D01*
X232554094Y-107448333D01*
X232580452Y-107445499D01*
X233992871Y-107445499D01*
X233992872Y-107445499D01*
X234052483Y-107439091D01*
X234187331Y-107388796D01*
X234302546Y-107302546D01*
X234388796Y-107187331D01*
X234439091Y-107052483D01*
X234445500Y-106992873D01*
X234445499Y-105097128D01*
X234439091Y-105037517D01*
X234439091Y-105037516D01*
X234388797Y-104902670D01*
X234388793Y-104902664D01*
X234302547Y-104787455D01*
X234302544Y-104787452D01*
X234187335Y-104701206D01*
X234187328Y-104701202D01*
X234052482Y-104650908D01*
X234052483Y-104650908D01*
X233992883Y-104644501D01*
X233992881Y-104644500D01*
X233992873Y-104644500D01*
X233992865Y-104644500D01*
X233882308Y-104644500D01*
X233815269Y-104624815D01*
X233794627Y-104608181D01*
X233133585Y-103947137D01*
X233218694Y-103924333D01*
X233321306Y-103865090D01*
X233405090Y-103781306D01*
X233464333Y-103678694D01*
X233487138Y-103593585D01*
X234196186Y-104302633D01*
X234280482Y-104173611D01*
X234373682Y-103961135D01*
X234430638Y-103736218D01*
X234449798Y-103505005D01*
X234449798Y-103504994D01*
X234430638Y-103273781D01*
X234373682Y-103048864D01*
X234280484Y-102836393D01*
X234196186Y-102707365D01*
X233487137Y-103416414D01*
X233464333Y-103331306D01*
X233405090Y-103228694D01*
X233321306Y-103144910D01*
X233218694Y-103085667D01*
X233133584Y-103062861D01*
X233843797Y-102352647D01*
X233843797Y-102352645D01*
X233813360Y-102328955D01*
X233813354Y-102328951D01*
X233609302Y-102218523D01*
X233609293Y-102218520D01*
X233389860Y-102143188D01*
X233161007Y-102105000D01*
X232928993Y-102105000D01*
X232700139Y-102143188D01*
X232480706Y-102218520D01*
X232480697Y-102218523D01*
X232276650Y-102328949D01*
X232246200Y-102352647D01*
X232956415Y-103062861D01*
X232871306Y-103085667D01*
X232768694Y-103144910D01*
X232684910Y-103228694D01*
X232625667Y-103331306D01*
X232602861Y-103416415D01*
X231893811Y-102707365D01*
X231809516Y-102836390D01*
X231716317Y-103048864D01*
X231659361Y-103273781D01*
X231640202Y-103504994D01*
X231640202Y-103505005D01*
X231659361Y-103736218D01*
X231716317Y-103961135D01*
X231809515Y-104173606D01*
X231893812Y-104302633D01*
X232602861Y-103593584D01*
X232625667Y-103678694D01*
X232684910Y-103781306D01*
X232768694Y-103865090D01*
X232871306Y-103924333D01*
X232956414Y-103947138D01*
X232295371Y-104608181D01*
X232234048Y-104641666D01*
X232207691Y-104644500D01*
X232097130Y-104644500D01*
X232097123Y-104644501D01*
X232037516Y-104650908D01*
X231902671Y-104701202D01*
X231902664Y-104701206D01*
X231787455Y-104787452D01*
X231787452Y-104787455D01*
X231701206Y-104902664D01*
X231701203Y-104902670D01*
X231650908Y-105037517D01*
X231644501Y-105097116D01*
X231644501Y-105097123D01*
X231644500Y-105097135D01*
X231644500Y-106509547D01*
X231624815Y-106576586D01*
X231608181Y-106597228D01*
X228982229Y-109223181D01*
X228920906Y-109256666D01*
X228894548Y-109259500D01*
X226806394Y-109259500D01*
X226739355Y-109239815D01*
X226693600Y-109187011D01*
X226683656Y-109117853D01*
X226712681Y-109054297D01*
X226714244Y-109052528D01*
X226714826Y-109051880D01*
X226732533Y-109032216D01*
X226827179Y-108868284D01*
X226885674Y-108688256D01*
X226905460Y-108500000D01*
X226885674Y-108311744D01*
X226827179Y-108131716D01*
X226732533Y-107967784D01*
X226605871Y-107827112D01*
X226605870Y-107827111D01*
X226452734Y-107715851D01*
X226452729Y-107715848D01*
X226279807Y-107638857D01*
X226279802Y-107638855D01*
X226134001Y-107607865D01*
X226094646Y-107599500D01*
X226023424Y-107599500D01*
X225956385Y-107579815D01*
X225910630Y-107527011D01*
X225900686Y-107457853D01*
X225929711Y-107394297D01*
X225949113Y-107376234D01*
X226015129Y-107326812D01*
X226047546Y-107302546D01*
X226133796Y-107187331D01*
X226184091Y-107052483D01*
X226190500Y-106992873D01*
X226190499Y-105097128D01*
X226184091Y-105037517D01*
X226184091Y-105037516D01*
X226133797Y-104902670D01*
X226133793Y-104902664D01*
X226047547Y-104787455D01*
X226047544Y-104787452D01*
X225932335Y-104701206D01*
X225932328Y-104701202D01*
X225797482Y-104650908D01*
X225797483Y-104650908D01*
X225737883Y-104644501D01*
X225737881Y-104644500D01*
X225737873Y-104644500D01*
X225737865Y-104644500D01*
X225627308Y-104644500D01*
X225560269Y-104624815D01*
X225539627Y-104608181D01*
X224878585Y-103947137D01*
X224963694Y-103924333D01*
X225066306Y-103865090D01*
X225150090Y-103781306D01*
X225209333Y-103678694D01*
X225232138Y-103593585D01*
X225941186Y-104302633D01*
X226025482Y-104173611D01*
X226118682Y-103961135D01*
X226175638Y-103736218D01*
X226194798Y-103505005D01*
X226194798Y-103504994D01*
X226175638Y-103273781D01*
X226118682Y-103048864D01*
X226025484Y-102836393D01*
X225941186Y-102707365D01*
X225232137Y-103416414D01*
X225209333Y-103331306D01*
X225150090Y-103228694D01*
X225066306Y-103144910D01*
X224963694Y-103085667D01*
X224878584Y-103062861D01*
X225588797Y-102352647D01*
X225588797Y-102352645D01*
X225558360Y-102328955D01*
X225558354Y-102328951D01*
X225354302Y-102218523D01*
X225354293Y-102218520D01*
X225134860Y-102143188D01*
X224906007Y-102105000D01*
X224673993Y-102105000D01*
X224445139Y-102143188D01*
X224225706Y-102218520D01*
X224225697Y-102218523D01*
X224021650Y-102328949D01*
X223991200Y-102352647D01*
X224701415Y-103062861D01*
X224616306Y-103085667D01*
X224513694Y-103144910D01*
X224429910Y-103228694D01*
X224370667Y-103331306D01*
X224347861Y-103416415D01*
X223638811Y-102707365D01*
X223554516Y-102836390D01*
X223461317Y-103048864D01*
X223404361Y-103273781D01*
X223385202Y-103504994D01*
X223385202Y-103505005D01*
X223404361Y-103736218D01*
X223461317Y-103961135D01*
X223554515Y-104173606D01*
X223638812Y-104302633D01*
X224347861Y-103593584D01*
X224370667Y-103678694D01*
X224429910Y-103781306D01*
X224513694Y-103865090D01*
X224616306Y-103924333D01*
X224701414Y-103947138D01*
X224040371Y-104608181D01*
X223979048Y-104641666D01*
X223952691Y-104644500D01*
X223842130Y-104644500D01*
X223842123Y-104644501D01*
X223782516Y-104650908D01*
X223647671Y-104701202D01*
X223647664Y-104701206D01*
X223532455Y-104787452D01*
X223532452Y-104787455D01*
X223446206Y-104902664D01*
X223446203Y-104902670D01*
X223395908Y-105037517D01*
X223389501Y-105097116D01*
X223389501Y-105097123D01*
X223389500Y-105097135D01*
X223389500Y-106509546D01*
X223369815Y-106576585D01*
X223353181Y-106597227D01*
X223009128Y-106941281D01*
X222341721Y-107608689D01*
X222027229Y-107923181D01*
X221965906Y-107956666D01*
X221939548Y-107959500D01*
X220977487Y-107959500D01*
X220918058Y-107944331D01*
X220912330Y-107941203D01*
X220777486Y-107890910D01*
X220777485Y-107890909D01*
X220777483Y-107890909D01*
X220717873Y-107884500D01*
X220717863Y-107884500D01*
X219972129Y-107884500D01*
X219972123Y-107884501D01*
X219912516Y-107890908D01*
X219777671Y-107941202D01*
X219777664Y-107941206D01*
X219662455Y-108027452D01*
X219662452Y-108027455D01*
X219576206Y-108142664D01*
X219576202Y-108142671D01*
X219525910Y-108277513D01*
X219525909Y-108277517D01*
X219519500Y-108337127D01*
X219519500Y-108337134D01*
X219519500Y-108337135D01*
X219519500Y-108832870D01*
X219519501Y-108832879D01*
X219526367Y-108896751D01*
X219526367Y-108923257D01*
X219525909Y-108927516D01*
X219525909Y-108927517D01*
X219519500Y-108987127D01*
X219519500Y-108987132D01*
X219519500Y-108987133D01*
X219519500Y-109482870D01*
X219519501Y-109482879D01*
X219526367Y-109546751D01*
X219526367Y-109573257D01*
X219525909Y-109577516D01*
X219525909Y-109577517D01*
X219519500Y-109637127D01*
X219519500Y-109637129D01*
X219519500Y-109637133D01*
X219519500Y-110132870D01*
X219270500Y-110132870D01*
X219270499Y-109637128D01*
X219264091Y-109577517D01*
X219264090Y-109577516D01*
X219263380Y-109570904D01*
X219263381Y-109544393D01*
X219269999Y-109482842D01*
X219270000Y-109482827D01*
X219270000Y-109435000D01*
X219269948Y-109434948D01*
X219203085Y-109415315D01*
X219170859Y-109385313D01*
X219127546Y-109327454D01*
X219127544Y-109327452D01*
X219127543Y-109327451D01*
X219122773Y-109322681D01*
X219089288Y-109261358D01*
X219094272Y-109191666D01*
X219122773Y-109147319D01*
X219127543Y-109142548D01*
X219127542Y-109142548D01*
X219127546Y-109142546D01*
X219170858Y-109084687D01*
X219226791Y-109042818D01*
X219269972Y-109035027D01*
X219270000Y-109035000D01*
X219270000Y-108987172D01*
X219269999Y-108987160D01*
X219263380Y-108925604D01*
X219263380Y-108899090D01*
X219264090Y-108892485D01*
X219264091Y-108892483D01*
X219270500Y-108832873D01*
X219270499Y-108337128D01*
X219264091Y-108277517D01*
X219240214Y-108213500D01*
X219213797Y-108142671D01*
X219213793Y-108142664D01*
X219127547Y-108027455D01*
X219127544Y-108027452D01*
X219012335Y-107941206D01*
X219012328Y-107941202D01*
X218877482Y-107890908D01*
X218877483Y-107890908D01*
X218817883Y-107884501D01*
X218817881Y-107884500D01*
X218817873Y-107884500D01*
X218817865Y-107884500D01*
X218675452Y-107884500D01*
X218608413Y-107864815D01*
X218587771Y-107848181D01*
X217161819Y-106422229D01*
X217128334Y-106360906D01*
X217125500Y-106334548D01*
X217125500Y-105310451D01*
X217145185Y-105243412D01*
X217161814Y-105222775D01*
X222353729Y-100030860D01*
X222353733Y-100030858D01*
X222440858Y-99943733D01*
X222475084Y-99892509D01*
X222509312Y-99841286D01*
X222544652Y-99755965D01*
X222556463Y-99727452D01*
X222580500Y-99606606D01*
X222580500Y-97691460D01*
X222600185Y-97624421D01*
X222633374Y-97589887D01*
X222771555Y-97493132D01*
X222928132Y-97336555D01*
X223055142Y-97155167D01*
X223112618Y-97031907D01*
X223158790Y-96979468D01*
X223225983Y-96960316D01*
X223292864Y-96980531D01*
X223337381Y-97031907D01*
X223394858Y-97155167D01*
X223521868Y-97336555D01*
X223678445Y-97493132D01*
X223859833Y-97620142D01*
X223907116Y-97642190D01*
X224060513Y-97713720D01*
X224060515Y-97713720D01*
X224060520Y-97713723D01*
X224274409Y-97771035D01*
X224431974Y-97784820D01*
X224494998Y-97790334D01*
X224495000Y-97790334D01*
X224495002Y-97790334D01*
X224550147Y-97785509D01*
X224715591Y-97771035D01*
X224929480Y-97713723D01*
X225130167Y-97620142D01*
X225311555Y-97493132D01*
X225468132Y-97336555D01*
X225595142Y-97155167D01*
X225652618Y-97031907D01*
X225698790Y-96979468D01*
X225765983Y-96960316D01*
X225832864Y-96980531D01*
X225877381Y-97031907D01*
X225934858Y-97155167D01*
X226061868Y-97336555D01*
X226218445Y-97493132D01*
X226399833Y-97620142D01*
X226447116Y-97642190D01*
X226600513Y-97713720D01*
X226600515Y-97713720D01*
X226600520Y-97713723D01*
X226814409Y-97771035D01*
X226971974Y-97784820D01*
X227034998Y-97790334D01*
X227035000Y-97790334D01*
X227035002Y-97790334D01*
X227090147Y-97785509D01*
X227255591Y-97771035D01*
X227469480Y-97713723D01*
X227670167Y-97620142D01*
X227851555Y-97493132D01*
X228008132Y-97336555D01*
X228135142Y-97155167D01*
X228192618Y-97031907D01*
X228238790Y-96979468D01*
X228305983Y-96960316D01*
X228372864Y-96980531D01*
X228417381Y-97031907D01*
X228474858Y-97155167D01*
X228601868Y-97336555D01*
X228758445Y-97493132D01*
X228939833Y-97620142D01*
X228987116Y-97642190D01*
X229140513Y-97713720D01*
X229140515Y-97713720D01*
X229140520Y-97713723D01*
X229354409Y-97771035D01*
X229511974Y-97784820D01*
X229574998Y-97790334D01*
X229575000Y-97790334D01*
X229575002Y-97790334D01*
X229630147Y-97785509D01*
X229795591Y-97771035D01*
X230009480Y-97713723D01*
X230210167Y-97620142D01*
X230391555Y-97493132D01*
X230548132Y-97336555D01*
X230675142Y-97155167D01*
X230732618Y-97031907D01*
X230778790Y-96979468D01*
X230845983Y-96960316D01*
X230912864Y-96980531D01*
X230957381Y-97031907D01*
X231014858Y-97155167D01*
X231141868Y-97336555D01*
X231298445Y-97493132D01*
X231436624Y-97589886D01*
X231480248Y-97644462D01*
X231489500Y-97691460D01*
X231489500Y-98176610D01*
X231513535Y-98297444D01*
X231513537Y-98297452D01*
X231521227Y-98316016D01*
X231527347Y-98330792D01*
X231527347Y-98330793D01*
X231560685Y-98411280D01*
X231560686Y-98411282D01*
X231560688Y-98411286D01*
X231583676Y-98445689D01*
X231629141Y-98513732D01*
X231629144Y-98513736D01*
X231720586Y-98605178D01*
X231720608Y-98605198D01*
X232511016Y-99395606D01*
X232511045Y-99395637D01*
X232601264Y-99485856D01*
X232640665Y-99512183D01*
X232640666Y-99512183D01*
X232640667Y-99512184D01*
X232703714Y-99554312D01*
X232724645Y-99562981D01*
X232756785Y-99576295D01*
X232756790Y-99576296D01*
X232756792Y-99576297D01*
X232817548Y-99601463D01*
X232863927Y-99610688D01*
X232938391Y-99625499D01*
X232938392Y-99625500D01*
X232938393Y-99625500D01*
X232938394Y-99625500D01*
X239724821Y-99625500D01*
X239772273Y-99634938D01*
X239893238Y-99685044D01*
X240010639Y-99700500D01*
X240070500Y-99700499D01*
X240137538Y-99720183D01*
X240183294Y-99772986D01*
X240194500Y-99824499D01*
X240194500Y-105381606D01*
X240207246Y-105445689D01*
X240207246Y-105445690D01*
X240218534Y-105502443D01*
X240218536Y-105502447D01*
X240218537Y-105502451D01*
X240265688Y-105616286D01*
X240289222Y-105651506D01*
X240289223Y-105651509D01*
X240289224Y-105651509D01*
X240334141Y-105718732D01*
X240334144Y-105718736D01*
X240425586Y-105810178D01*
X240425608Y-105810198D01*
X241011016Y-106395606D01*
X241011045Y-106395637D01*
X241101263Y-106485855D01*
X241101267Y-106485858D01*
X241203707Y-106554307D01*
X241203713Y-106554310D01*
X241203714Y-106554311D01*
X241317548Y-106601463D01*
X241377971Y-106613481D01*
X241438393Y-106625500D01*
X241438394Y-106625500D01*
X242077019Y-106625500D01*
X242144058Y-106645185D01*
X242187503Y-106693203D01*
X242194950Y-106707819D01*
X242319890Y-106879786D01*
X242470213Y-107030109D01*
X242642179Y-107155048D01*
X242642181Y-107155049D01*
X242642184Y-107155051D01*
X242831588Y-107251557D01*
X243033757Y-107317246D01*
X243243713Y-107350500D01*
X243243714Y-107350500D01*
X243756286Y-107350500D01*
X243756287Y-107350500D01*
X243966243Y-107317246D01*
X244168412Y-107251557D01*
X244357816Y-107155051D01*
X244459442Y-107081216D01*
X244529786Y-107030109D01*
X244529788Y-107030106D01*
X244529792Y-107030104D01*
X244680104Y-106879792D01*
X244680106Y-106879788D01*
X244680109Y-106879786D01*
X244805048Y-106707820D01*
X244805049Y-106707819D01*
X244805051Y-106707816D01*
X244901557Y-106518412D01*
X244967246Y-106316243D01*
X245000500Y-106106287D01*
X245000500Y-105893713D01*
X244967246Y-105683757D01*
X244901557Y-105481588D01*
X244805051Y-105292184D01*
X244805049Y-105292181D01*
X244805048Y-105292179D01*
X244680109Y-105120213D01*
X244540931Y-104981035D01*
X244507446Y-104919712D01*
X244512430Y-104850020D01*
X244554302Y-104794087D01*
X244563516Y-104787815D01*
X244718343Y-104692317D01*
X244842315Y-104568345D01*
X244934356Y-104419124D01*
X244934358Y-104419119D01*
X244989505Y-104252697D01*
X244989506Y-104252690D01*
X244999999Y-104149986D01*
X245000000Y-104149973D01*
X245000000Y-103750000D01*
X243933012Y-103750000D01*
X243965925Y-103692993D01*
X244000000Y-103565826D01*
X244000000Y-103434174D01*
X243965925Y-103307007D01*
X243933012Y-103250000D01*
X244999999Y-103250000D01*
X244999999Y-102850028D01*
X244999998Y-102850013D01*
X244989505Y-102747302D01*
X244934358Y-102580880D01*
X244934356Y-102580875D01*
X244842315Y-102431654D01*
X244718345Y-102307684D01*
X244569124Y-102215643D01*
X244569119Y-102215641D01*
X244402697Y-102160494D01*
X244402690Y-102160493D01*
X244299986Y-102150000D01*
X243750000Y-102150000D01*
X243750000Y-103066988D01*
X243692993Y-103034075D01*
X243565826Y-103000000D01*
X243434174Y-103000000D01*
X243307007Y-103034075D01*
X243250000Y-103066988D01*
X243250000Y-102150000D01*
X242700028Y-102150000D01*
X242700012Y-102150001D01*
X242597302Y-102160494D01*
X242430880Y-102215641D01*
X242430875Y-102215643D01*
X242281654Y-102307684D01*
X242157684Y-102431654D01*
X242065643Y-102580875D01*
X242065641Y-102580880D01*
X242010494Y-102747302D01*
X242010493Y-102747309D01*
X242000000Y-102850013D01*
X242000000Y-103250000D01*
X243066988Y-103250000D01*
X243034075Y-103307007D01*
X243000000Y-103434174D01*
X243000000Y-103565826D01*
X243034075Y-103692993D01*
X243066988Y-103750000D01*
X242000001Y-103750000D01*
X242000001Y-104149986D01*
X242010494Y-104252697D01*
X242065641Y-104419119D01*
X242065643Y-104419124D01*
X242157684Y-104568345D01*
X242281654Y-104692315D01*
X242436484Y-104787815D01*
X242483208Y-104839763D01*
X242494431Y-104908726D01*
X242466587Y-104972808D01*
X242459069Y-104981035D01*
X242319889Y-105120215D01*
X242194950Y-105292180D01*
X242187503Y-105306797D01*
X242139527Y-105357592D01*
X242077019Y-105374500D01*
X241810452Y-105374500D01*
X241743413Y-105354815D01*
X241722771Y-105338181D01*
X241481819Y-105097229D01*
X241448334Y-105035906D01*
X241445500Y-105009548D01*
X241445500Y-99482773D01*
X241465185Y-99415734D01*
X241471118Y-99407295D01*
X241474536Y-99402841D01*
X241535044Y-99256762D01*
X241550500Y-99139361D01*
X241550499Y-98860640D01*
X241550499Y-98860636D01*
X241535046Y-98743246D01*
X241535044Y-98743241D01*
X241535044Y-98743238D01*
X241474536Y-98597159D01*
X241378282Y-98471718D01*
X241252841Y-98375464D01*
X241144993Y-98330792D01*
X241106762Y-98314956D01*
X241106760Y-98314955D01*
X240989361Y-98299500D01*
X240650636Y-98299500D01*
X240533234Y-98314955D01*
X240532083Y-98315264D01*
X240530891Y-98315264D01*
X240525179Y-98316016D01*
X240525080Y-98315264D01*
X240474919Y-98315264D01*
X240474820Y-98316017D01*
X240469107Y-98315264D01*
X240467917Y-98315265D01*
X240466765Y-98314956D01*
X240349361Y-98299500D01*
X240010636Y-98299500D01*
X239893246Y-98314953D01*
X239893237Y-98314956D01*
X239772274Y-98365061D01*
X239724821Y-98374500D01*
X233310452Y-98374500D01*
X233243413Y-98354815D01*
X233222771Y-98338181D01*
X232776819Y-97892229D01*
X232743334Y-97830906D01*
X232740500Y-97804548D01*
X232740500Y-97691460D01*
X232760185Y-97624421D01*
X232793374Y-97589887D01*
X232931555Y-97493132D01*
X233088132Y-97336555D01*
X233164426Y-97227595D01*
X233219002Y-97183973D01*
X233288501Y-97176780D01*
X233350855Y-97208302D01*
X233386269Y-97268532D01*
X233390000Y-97298721D01*
X233390000Y-97332844D01*
X233396401Y-97392372D01*
X233396403Y-97392379D01*
X233446645Y-97527086D01*
X233446649Y-97527093D01*
X233532809Y-97642187D01*
X233532812Y-97642190D01*
X233647906Y-97728350D01*
X233647913Y-97728354D01*
X233782620Y-97778596D01*
X233782627Y-97778598D01*
X233842155Y-97784999D01*
X233842172Y-97785000D01*
X234405000Y-97785000D01*
X234405000Y-96964560D01*
X234458147Y-96995245D01*
X234587857Y-97030000D01*
X234722143Y-97030000D01*
X234851853Y-96995245D01*
X234905000Y-96964560D01*
X234905000Y-97785000D01*
X235467828Y-97785000D01*
X235467844Y-97784999D01*
X235527372Y-97778598D01*
X235527379Y-97778596D01*
X235662086Y-97728354D01*
X235662093Y-97728350D01*
X235777187Y-97642190D01*
X235777190Y-97642187D01*
X235863350Y-97527093D01*
X235863354Y-97527086D01*
X235913596Y-97392379D01*
X235913598Y-97392372D01*
X235919999Y-97332844D01*
X235920000Y-97332827D01*
X235920000Y-96770000D01*
X235099560Y-96770000D01*
X235130245Y-96716853D01*
X235165000Y-96587143D01*
X235165000Y-96452857D01*
X235130245Y-96323147D01*
X235099560Y-96270000D01*
X235920000Y-96270000D01*
X235920000Y-95707172D01*
X235919999Y-95707155D01*
X235913598Y-95647627D01*
X235913596Y-95647620D01*
X235863354Y-95512913D01*
X235863350Y-95512906D01*
X235777190Y-95397812D01*
X235777187Y-95397809D01*
X235662093Y-95311649D01*
X235662086Y-95311645D01*
X235527379Y-95261403D01*
X235527372Y-95261401D01*
X235467844Y-95255000D01*
X234905000Y-95255000D01*
X234905000Y-96075439D01*
X234851853Y-96044755D01*
X234722143Y-96010000D01*
X234587857Y-96010000D01*
X234458147Y-96044755D01*
X234405000Y-96075439D01*
X234405000Y-95255000D01*
X233842155Y-95255000D01*
X233782627Y-95261401D01*
X233782620Y-95261403D01*
X233647913Y-95311645D01*
X233647906Y-95311649D01*
X233532812Y-95397809D01*
X233532809Y-95397812D01*
X233446649Y-95512906D01*
X233446645Y-95512913D01*
X233396403Y-95647620D01*
X233396401Y-95647627D01*
X233390000Y-95707155D01*
X233390000Y-95741278D01*
X233370315Y-95808317D01*
X233317511Y-95854072D01*
X233248353Y-95864016D01*
X233184797Y-95834991D01*
X233164426Y-95812402D01*
X233088137Y-95703452D01*
X233088136Y-95703451D01*
X233088132Y-95703445D01*
X232931555Y-95546868D01*
X232750167Y-95419858D01*
X232702889Y-95397812D01*
X232549486Y-95326279D01*
X232549475Y-95326275D01*
X232335592Y-95268965D01*
X232335585Y-95268964D01*
X232115002Y-95249666D01*
X232114998Y-95249666D01*
X231894414Y-95268964D01*
X231894407Y-95268965D01*
X231680524Y-95326275D01*
X231680513Y-95326279D01*
X231479836Y-95419856D01*
X231479834Y-95419857D01*
X231298444Y-95546868D01*
X231141868Y-95703444D01*
X231014857Y-95884834D01*
X231014856Y-95884836D01*
X230957382Y-96008091D01*
X230911210Y-96060531D01*
X230844017Y-96079683D01*
X230777135Y-96059467D01*
X230732618Y-96008091D01*
X230675143Y-95884836D01*
X230675142Y-95884834D01*
X230675142Y-95884833D01*
X230548132Y-95703445D01*
X230391555Y-95546868D01*
X230210167Y-95419858D01*
X230162889Y-95397812D01*
X230009486Y-95326279D01*
X230009475Y-95326275D01*
X229795592Y-95268965D01*
X229795585Y-95268964D01*
X229575002Y-95249666D01*
X229574998Y-95249666D01*
X229354414Y-95268964D01*
X229354407Y-95268965D01*
X229140524Y-95326275D01*
X229140513Y-95326279D01*
X228939836Y-95419856D01*
X228939834Y-95419857D01*
X228758444Y-95546868D01*
X228601868Y-95703444D01*
X228474857Y-95884834D01*
X228474856Y-95884836D01*
X228417382Y-96008091D01*
X228371210Y-96060531D01*
X228304017Y-96079683D01*
X228237135Y-96059467D01*
X228192618Y-96008091D01*
X228135143Y-95884836D01*
X228135142Y-95884834D01*
X228135142Y-95884833D01*
X228008132Y-95703445D01*
X227851555Y-95546868D01*
X227670167Y-95419858D01*
X227622889Y-95397812D01*
X227469486Y-95326279D01*
X227469475Y-95326275D01*
X227255592Y-95268965D01*
X227255585Y-95268964D01*
X227035002Y-95249666D01*
X227034998Y-95249666D01*
X226952393Y-95256893D01*
X226883893Y-95243126D01*
X226833710Y-95194511D01*
X226817777Y-95126482D01*
X226841152Y-95060639D01*
X226853905Y-95045684D01*
X239485855Y-82413736D01*
X239485858Y-82413733D01*
X239493334Y-82402544D01*
X239554312Y-82311285D01*
X239594885Y-82213333D01*
X239601463Y-82197452D01*
X239625500Y-82076606D01*
X239625500Y-74031451D01*
X239645185Y-73964412D01*
X239661814Y-73943775D01*
X241777756Y-71827832D01*
X241839077Y-71794349D01*
X241908769Y-71799333D01*
X241964702Y-71841205D01*
X241987907Y-71896116D01*
X242016754Y-72078243D01*
X242067733Y-72235140D01*
X242082444Y-72280414D01*
X242178951Y-72469820D01*
X242303890Y-72641786D01*
X242454213Y-72792109D01*
X242626179Y-72917048D01*
X242626181Y-72917049D01*
X242626184Y-72917051D01*
X242815588Y-73013557D01*
X243017757Y-73079246D01*
X243227713Y-73112500D01*
X243227714Y-73112500D01*
X243690286Y-73112500D01*
X243690287Y-73112500D01*
X243900243Y-73079246D01*
X244102412Y-73013557D01*
X244291816Y-72917051D01*
X244313789Y-72901086D01*
X244463786Y-72792109D01*
X244463788Y-72792106D01*
X244463792Y-72792104D01*
X244614104Y-72641792D01*
X244614106Y-72641788D01*
X244614109Y-72641786D01*
X244739048Y-72469820D01*
X244739047Y-72469820D01*
X244739051Y-72469816D01*
X244835557Y-72280412D01*
X244901246Y-72078243D01*
X244934500Y-71868287D01*
X244934500Y-71655713D01*
X244901246Y-71445757D01*
X244835557Y-71243588D01*
X244739051Y-71054184D01*
X244739049Y-71054181D01*
X244739048Y-71054179D01*
X244614109Y-70882213D01*
X244463792Y-70731896D01*
X244427586Y-70705591D01*
X244299204Y-70612316D01*
X244256540Y-70556989D01*
X244250561Y-70487376D01*
X244283166Y-70425580D01*
X244299199Y-70411686D01*
X244463792Y-70292104D01*
X244614104Y-70141792D01*
X244614106Y-70141788D01*
X244614109Y-70141786D01*
X244739048Y-69969820D01*
X244739047Y-69969820D01*
X244739051Y-69969816D01*
X244835557Y-69780412D01*
X244901246Y-69578243D01*
X244934500Y-69368287D01*
X244934500Y-69155713D01*
X244901246Y-68945757D01*
X244835557Y-68743588D01*
X244739051Y-68554184D01*
X244739049Y-68554181D01*
X244739048Y-68554179D01*
X244614109Y-68382213D01*
X244463792Y-68231896D01*
X244458275Y-68227888D01*
X244299204Y-68112316D01*
X244256540Y-68056989D01*
X244250561Y-67987376D01*
X244283166Y-67925580D01*
X244299199Y-67911686D01*
X244463792Y-67792104D01*
X244614104Y-67641792D01*
X244614106Y-67641788D01*
X244614109Y-67641786D01*
X244739048Y-67469820D01*
X244739047Y-67469820D01*
X244739051Y-67469816D01*
X244835557Y-67280412D01*
X244901246Y-67078243D01*
X244934500Y-66868287D01*
X244934500Y-66655713D01*
X244901246Y-66445757D01*
X244835557Y-66243588D01*
X244739051Y-66054184D01*
X244739049Y-66054181D01*
X244739048Y-66054179D01*
X244614109Y-65882213D01*
X244474931Y-65743035D01*
X244441446Y-65681712D01*
X244446430Y-65612020D01*
X244488302Y-65556087D01*
X244497516Y-65549815D01*
X244652343Y-65454317D01*
X244776315Y-65330345D01*
X244868356Y-65181124D01*
X244868358Y-65181119D01*
X244923505Y-65014697D01*
X244923506Y-65014690D01*
X244933999Y-64911986D01*
X244934000Y-64911973D01*
X244934000Y-64512000D01*
X243863146Y-64512000D01*
X243901630Y-64445343D01*
X243934000Y-64324535D01*
X243934000Y-64199465D01*
X243901630Y-64078657D01*
X243863146Y-64012000D01*
X244933999Y-64012000D01*
X244933999Y-63612028D01*
X244933998Y-63612013D01*
X244923505Y-63509302D01*
X244868358Y-63342880D01*
X244868356Y-63342875D01*
X244776315Y-63193654D01*
X244652345Y-63069684D01*
X244503124Y-62977643D01*
X244503119Y-62977641D01*
X244336697Y-62922494D01*
X244336690Y-62922493D01*
X244233986Y-62912000D01*
X243709000Y-62912000D01*
X243709000Y-63857854D01*
X243642343Y-63819370D01*
X243521535Y-63787000D01*
X243396465Y-63787000D01*
X243275657Y-63819370D01*
X243209000Y-63857854D01*
X243209000Y-62912000D01*
X242684028Y-62912000D01*
X242684012Y-62912001D01*
X242581302Y-62922494D01*
X242414880Y-62977641D01*
X242414875Y-62977643D01*
X242265654Y-63069684D01*
X242141684Y-63193654D01*
X242049643Y-63342875D01*
X242049641Y-63342880D01*
X241994494Y-63509302D01*
X241994493Y-63509309D01*
X241984000Y-63612013D01*
X241984000Y-64012000D01*
X243054854Y-64012000D01*
X243016370Y-64078657D01*
X242984000Y-64199465D01*
X242984000Y-64324535D01*
X243016370Y-64445343D01*
X243054854Y-64512000D01*
X241984001Y-64512000D01*
X241984001Y-64911986D01*
X241994494Y-65014697D01*
X242049641Y-65181119D01*
X242049643Y-65181124D01*
X242141684Y-65330345D01*
X242265654Y-65454315D01*
X242420484Y-65549815D01*
X242467208Y-65601763D01*
X242478431Y-65670726D01*
X242450587Y-65734808D01*
X242443069Y-65743035D01*
X242303889Y-65882215D01*
X242178951Y-66054179D01*
X242082444Y-66243585D01*
X242016753Y-66445760D01*
X241983500Y-66655713D01*
X241983500Y-66868286D01*
X242016754Y-67078244D01*
X242016754Y-67078247D01*
X242052475Y-67188183D01*
X242054470Y-67258024D01*
X242022225Y-67314182D01*
X237101269Y-72235140D01*
X237014144Y-72322264D01*
X237014138Y-72322272D01*
X236979914Y-72373489D01*
X236979915Y-72373490D01*
X236945689Y-72424711D01*
X236945688Y-72424714D01*
X236927007Y-72469815D01*
X236927007Y-72469816D01*
X236898538Y-72538545D01*
X236898535Y-72538555D01*
X236874500Y-72659389D01*
X236874500Y-81213546D01*
X236854815Y-81280585D01*
X236838181Y-81301227D01*
X236132180Y-82007227D01*
X236070857Y-82040712D01*
X236001165Y-82035728D01*
X235945232Y-81993856D01*
X235920815Y-81928392D01*
X235920499Y-81919571D01*
X235920499Y-80467128D01*
X235914091Y-80407517D01*
X235876551Y-80306868D01*
X235863797Y-80272671D01*
X235863793Y-80272664D01*
X235777547Y-80157455D01*
X235777544Y-80157452D01*
X235662335Y-80071206D01*
X235662328Y-80071202D01*
X235527482Y-80020908D01*
X235527483Y-80020908D01*
X235467883Y-80014501D01*
X235467881Y-80014500D01*
X235467873Y-80014500D01*
X235467864Y-80014500D01*
X233842129Y-80014500D01*
X233842123Y-80014501D01*
X233782516Y-80020908D01*
X233647671Y-80071202D01*
X233647664Y-80071206D01*
X233532455Y-80157452D01*
X233532452Y-80157455D01*
X233446206Y-80272664D01*
X233446202Y-80272671D01*
X233395908Y-80407517D01*
X233389896Y-80463441D01*
X233389501Y-80467123D01*
X233389500Y-80467135D01*
X233389500Y-80500564D01*
X233369815Y-80567603D01*
X233317011Y-80613358D01*
X233247853Y-80623302D01*
X233184297Y-80594277D01*
X233163926Y-80571688D01*
X233088137Y-80463452D01*
X233088136Y-80463451D01*
X233088132Y-80463445D01*
X232931555Y-80306868D01*
X232750167Y-80179858D01*
X232750163Y-80179856D01*
X232549486Y-80086279D01*
X232549475Y-80086275D01*
X232335592Y-80028965D01*
X232335585Y-80028964D01*
X232115002Y-80009666D01*
X232114998Y-80009666D01*
X231894414Y-80028964D01*
X231894407Y-80028965D01*
X231680524Y-80086275D01*
X231680513Y-80086279D01*
X231479836Y-80179856D01*
X231479834Y-80179857D01*
X231298444Y-80306868D01*
X231141868Y-80463444D01*
X231014857Y-80644834D01*
X231014856Y-80644836D01*
X230957382Y-80768091D01*
X230911210Y-80820531D01*
X230844017Y-80839683D01*
X230777135Y-80819467D01*
X230732618Y-80768091D01*
X230675143Y-80644836D01*
X230675142Y-80644834D01*
X230675142Y-80644833D01*
X230548132Y-80463445D01*
X230391555Y-80306868D01*
X230210167Y-80179858D01*
X230210163Y-80179856D01*
X230009486Y-80086279D01*
X230009475Y-80086275D01*
X229795592Y-80028965D01*
X229795585Y-80028964D01*
X229575002Y-80009666D01*
X229574998Y-80009666D01*
X229354414Y-80028964D01*
X229354407Y-80028965D01*
X229140524Y-80086275D01*
X229140513Y-80086279D01*
X228939836Y-80179856D01*
X228939834Y-80179857D01*
X228758444Y-80306868D01*
X228601868Y-80463444D01*
X228474857Y-80644834D01*
X228474856Y-80644836D01*
X228417382Y-80768091D01*
X228371210Y-80820531D01*
X228304017Y-80839683D01*
X228237135Y-80819467D01*
X228192618Y-80768091D01*
X228135143Y-80644836D01*
X228135142Y-80644834D01*
X228135142Y-80644833D01*
X228008132Y-80463445D01*
X227851555Y-80306868D01*
X227670167Y-80179858D01*
X227670163Y-80179856D01*
X227469486Y-80086279D01*
X227469475Y-80086275D01*
X227255592Y-80028965D01*
X227255585Y-80028964D01*
X227035002Y-80009666D01*
X227034998Y-80009666D01*
X226814414Y-80028964D01*
X226814407Y-80028965D01*
X226600524Y-80086275D01*
X226600513Y-80086279D01*
X226399836Y-80179856D01*
X226399834Y-80179857D01*
X226218444Y-80306868D01*
X226061868Y-80463444D01*
X225934857Y-80644834D01*
X225934856Y-80644836D01*
X225877382Y-80768091D01*
X225831210Y-80820531D01*
X225764017Y-80839683D01*
X225697135Y-80819467D01*
X225652618Y-80768091D01*
X225595143Y-80644836D01*
X225595142Y-80644834D01*
X225595142Y-80644833D01*
X225468132Y-80463445D01*
X225311555Y-80306868D01*
X225130167Y-80179858D01*
X225130163Y-80179856D01*
X224929486Y-80086279D01*
X224929475Y-80086275D01*
X224715592Y-80028965D01*
X224715585Y-80028964D01*
X224495002Y-80009666D01*
X224494998Y-80009666D01*
X224274414Y-80028964D01*
X224274407Y-80028965D01*
X224060524Y-80086275D01*
X224060513Y-80086279D01*
X223859836Y-80179856D01*
X223859834Y-80179857D01*
X223678444Y-80306868D01*
X223521868Y-80463444D01*
X223394857Y-80644834D01*
X223394856Y-80644836D01*
X223337382Y-80768091D01*
X223291210Y-80820531D01*
X223224017Y-80839683D01*
X223157135Y-80819467D01*
X223112618Y-80768091D01*
X223055143Y-80644836D01*
X223055142Y-80644834D01*
X223055142Y-80644833D01*
X222928132Y-80463445D01*
X222771555Y-80306868D01*
X222590167Y-80179858D01*
X222590163Y-80179856D01*
X222389486Y-80086279D01*
X222389475Y-80086275D01*
X222175592Y-80028965D01*
X222175585Y-80028964D01*
X221955002Y-80009666D01*
X221954998Y-80009666D01*
X221734414Y-80028964D01*
X221734407Y-80028965D01*
X221520524Y-80086275D01*
X221520513Y-80086279D01*
X221319836Y-80179856D01*
X221319834Y-80179857D01*
X221138444Y-80306868D01*
X220981868Y-80463444D01*
X220854857Y-80644834D01*
X220854856Y-80644836D01*
X220797382Y-80768091D01*
X220751210Y-80820531D01*
X220684017Y-80839683D01*
X220617135Y-80819467D01*
X220572618Y-80768091D01*
X220515143Y-80644836D01*
X220515142Y-80644834D01*
X220515142Y-80644833D01*
X220388132Y-80463445D01*
X220231555Y-80306868D01*
X220050167Y-80179858D01*
X220050163Y-80179856D01*
X219849486Y-80086279D01*
X219849475Y-80086275D01*
X219635592Y-80028965D01*
X219635585Y-80028964D01*
X219415002Y-80009666D01*
X219414998Y-80009666D01*
X219267939Y-80022532D01*
X219194409Y-80028965D01*
X219194407Y-80028965D01*
X219194403Y-80028966D01*
X219148528Y-80041258D01*
X219078678Y-80039595D01*
X219028755Y-80009164D01*
X216608819Y-77589228D01*
X216575334Y-77527905D01*
X216572500Y-77501547D01*
X216572500Y-65532980D01*
X216592185Y-65465941D01*
X216640208Y-65422494D01*
X216654818Y-65415050D01*
X216826786Y-65290109D01*
X216826788Y-65290106D01*
X216826792Y-65290104D01*
X216977104Y-65139792D01*
X217096683Y-64975204D01*
X217152011Y-64932540D01*
X217221624Y-64926561D01*
X217283420Y-64959166D01*
X217297313Y-64975199D01*
X217354522Y-65053941D01*
X217416896Y-65139792D01*
X217567213Y-65290109D01*
X217739179Y-65415048D01*
X217739181Y-65415049D01*
X217739184Y-65415051D01*
X217928588Y-65511557D01*
X218130757Y-65577246D01*
X218340713Y-65610500D01*
X218340714Y-65610500D01*
X218553286Y-65610500D01*
X218553287Y-65610500D01*
X218763243Y-65577246D01*
X218965412Y-65511557D01*
X219154816Y-65415051D01*
X219178219Y-65398048D01*
X219326786Y-65290109D01*
X219326788Y-65290106D01*
X219326792Y-65290104D01*
X219477104Y-65139792D01*
X219596683Y-64975204D01*
X219652011Y-64932540D01*
X219721624Y-64926561D01*
X219783420Y-64959166D01*
X219797313Y-64975199D01*
X219854522Y-65053941D01*
X219916896Y-65139792D01*
X220067213Y-65290109D01*
X220239179Y-65415048D01*
X220239181Y-65415049D01*
X220239184Y-65415051D01*
X220428588Y-65511557D01*
X220630757Y-65577246D01*
X220840713Y-65610500D01*
X220840714Y-65610500D01*
X221053286Y-65610500D01*
X221053287Y-65610500D01*
X221263243Y-65577246D01*
X221465412Y-65511557D01*
X221654816Y-65415051D01*
X221678219Y-65398048D01*
X221826786Y-65290109D01*
X221826788Y-65290106D01*
X221826792Y-65290104D01*
X221977104Y-65139792D01*
X221977106Y-65139788D01*
X221977109Y-65139786D01*
X222102048Y-64967820D01*
X222102047Y-64967820D01*
X222102051Y-64967816D01*
X222198557Y-64778412D01*
X222264246Y-64576243D01*
X222297500Y-64366287D01*
X222297500Y-63903713D01*
X222264246Y-63693757D01*
X222198557Y-63491588D01*
X222103891Y-63305795D01*
X222090995Y-63237126D01*
X222117271Y-63172385D01*
X222174378Y-63132128D01*
X222214376Y-63125500D01*
X225670909Y-63125500D01*
X225737948Y-63145185D01*
X225783703Y-63197989D01*
X225794267Y-63262103D01*
X225786000Y-63343013D01*
X225786000Y-63868000D01*
X226731854Y-63868000D01*
X226693370Y-63934657D01*
X226661000Y-64055465D01*
X226661000Y-64180535D01*
X226693370Y-64301343D01*
X226731854Y-64368000D01*
X225786001Y-64368000D01*
X225786001Y-64892986D01*
X225796494Y-64995697D01*
X225851641Y-65162119D01*
X225851643Y-65162124D01*
X225943684Y-65311345D01*
X226067654Y-65435315D01*
X226216875Y-65527356D01*
X226216880Y-65527358D01*
X226383302Y-65582505D01*
X226383309Y-65582506D01*
X226486019Y-65592999D01*
X226885999Y-65592999D01*
X226886000Y-65592998D01*
X226886000Y-64522145D01*
X226952657Y-64560630D01*
X227073465Y-64593000D01*
X227198535Y-64593000D01*
X227319343Y-64560630D01*
X227386000Y-64522145D01*
X227386000Y-65592999D01*
X227785972Y-65592999D01*
X227785986Y-65592998D01*
X227888697Y-65582505D01*
X228055119Y-65527358D01*
X228055124Y-65527356D01*
X228204345Y-65435315D01*
X228328317Y-65311343D01*
X228423815Y-65156516D01*
X228475763Y-65109791D01*
X228544725Y-65098568D01*
X228608808Y-65126412D01*
X228617035Y-65133931D01*
X228756213Y-65273109D01*
X228928179Y-65398048D01*
X228928181Y-65398049D01*
X228928184Y-65398051D01*
X229117588Y-65494557D01*
X229319757Y-65560246D01*
X229529713Y-65593500D01*
X229529714Y-65593500D01*
X229742286Y-65593500D01*
X229742287Y-65593500D01*
X229952243Y-65560246D01*
X230154412Y-65494557D01*
X230343816Y-65398051D01*
X230439762Y-65328343D01*
X230515786Y-65273109D01*
X230515788Y-65273106D01*
X230515792Y-65273104D01*
X230666104Y-65122792D01*
X230785683Y-64958204D01*
X230841011Y-64915540D01*
X230910624Y-64909561D01*
X230972420Y-64942166D01*
X230986313Y-64958199D01*
X231105892Y-65122786D01*
X231105896Y-65122792D01*
X231256213Y-65273109D01*
X231428179Y-65398048D01*
X231428181Y-65398049D01*
X231428184Y-65398051D01*
X231617588Y-65494557D01*
X231819757Y-65560246D01*
X232029713Y-65593500D01*
X232029714Y-65593500D01*
X232242286Y-65593500D01*
X232242287Y-65593500D01*
X232452243Y-65560246D01*
X232654412Y-65494557D01*
X232843816Y-65398051D01*
X232939762Y-65328343D01*
X233015786Y-65273109D01*
X233015788Y-65273106D01*
X233015792Y-65273104D01*
X233166104Y-65122792D01*
X233285683Y-64958204D01*
X233341011Y-64915540D01*
X233410624Y-64909561D01*
X233472420Y-64942166D01*
X233486313Y-64958199D01*
X233605892Y-65122786D01*
X233605896Y-65122792D01*
X233756213Y-65273109D01*
X233928179Y-65398048D01*
X233928181Y-65398049D01*
X233928184Y-65398051D01*
X234117588Y-65494557D01*
X234319757Y-65560246D01*
X234529713Y-65593500D01*
X234529714Y-65593500D01*
X234742286Y-65593500D01*
X234742287Y-65593500D01*
X234952243Y-65560246D01*
X235154412Y-65494557D01*
X235343816Y-65398051D01*
X235439762Y-65328343D01*
X235515786Y-65273109D01*
X235515788Y-65273106D01*
X235515792Y-65273104D01*
X235666104Y-65122792D01*
X235666106Y-65122788D01*
X235666109Y-65122786D01*
X235791048Y-64950820D01*
X235791047Y-64950820D01*
X235791051Y-64950816D01*
X235887557Y-64761412D01*
X235953246Y-64559243D01*
X235986500Y-64349287D01*
X235986500Y-63886713D01*
X235953246Y-63676757D01*
X235887557Y-63474588D01*
X235791051Y-63285184D01*
X235791049Y-63285181D01*
X235791048Y-63285179D01*
X235666109Y-63113213D01*
X235515786Y-62962890D01*
X235343820Y-62837951D01*
X235154414Y-62741444D01*
X235154413Y-62741443D01*
X235154412Y-62741443D01*
X234952243Y-62675754D01*
X234952241Y-62675753D01*
X234952240Y-62675753D01*
X234790957Y-62650208D01*
X234742287Y-62642500D01*
X234529713Y-62642500D01*
X234481042Y-62650208D01*
X234319760Y-62675753D01*
X234117585Y-62741444D01*
X233928179Y-62837951D01*
X233756213Y-62962890D01*
X233605894Y-63113209D01*
X233605890Y-63113214D01*
X233486318Y-63277793D01*
X233430989Y-63320459D01*
X233361375Y-63326438D01*
X233299580Y-63293833D01*
X233285682Y-63277793D01*
X233166109Y-63113214D01*
X233166105Y-63113209D01*
X233015786Y-62962890D01*
X232843820Y-62837951D01*
X232654414Y-62741444D01*
X232654413Y-62741443D01*
X232654412Y-62741443D01*
X232452243Y-62675754D01*
X232452241Y-62675753D01*
X232452240Y-62675753D01*
X232290957Y-62650208D01*
X232242287Y-62642500D01*
X232029713Y-62642500D01*
X231981042Y-62650208D01*
X231819760Y-62675753D01*
X231617585Y-62741444D01*
X231428179Y-62837951D01*
X231256213Y-62962890D01*
X231105894Y-63113209D01*
X231105890Y-63113214D01*
X230986318Y-63277793D01*
X230930989Y-63320459D01*
X230861375Y-63326438D01*
X230799580Y-63293833D01*
X230785682Y-63277793D01*
X230666109Y-63113214D01*
X230666105Y-63113209D01*
X230515786Y-62962890D01*
X230343820Y-62837951D01*
X230154414Y-62741444D01*
X230154413Y-62741443D01*
X230154412Y-62741443D01*
X229952243Y-62675754D01*
X229952241Y-62675753D01*
X229952240Y-62675753D01*
X229790957Y-62650208D01*
X229742287Y-62642500D01*
X229529713Y-62642500D01*
X229487721Y-62649150D01*
X229319753Y-62675754D01*
X229209813Y-62711475D01*
X229139972Y-62713470D01*
X229083815Y-62681225D01*
X228510928Y-62108338D01*
X228510925Y-62108334D01*
X228510925Y-62108335D01*
X228503858Y-62101268D01*
X228503858Y-62101267D01*
X228416733Y-62014142D01*
X228416732Y-62014141D01*
X228416731Y-62014140D01*
X228365509Y-61979915D01*
X228314286Y-61945688D01*
X228314283Y-61945686D01*
X228314280Y-61945685D01*
X228233792Y-61912347D01*
X228200453Y-61898537D01*
X228190427Y-61896543D01*
X228140029Y-61886518D01*
X228079610Y-61874500D01*
X228079607Y-61874500D01*
X228079606Y-61874500D01*
X215143607Y-61874500D01*
X215020393Y-61874500D01*
X215020389Y-61874500D01*
X214959971Y-61886518D01*
X214916743Y-61895116D01*
X214899546Y-61898537D01*
X214785716Y-61945687D01*
X214785707Y-61945692D01*
X214683268Y-62014140D01*
X214639705Y-62057703D01*
X214596142Y-62101267D01*
X214596139Y-62101270D01*
X213999183Y-62698225D01*
X213937860Y-62731710D01*
X213873185Y-62728475D01*
X213763245Y-62692754D01*
X213763246Y-62692754D01*
X213593436Y-62665859D01*
X213553287Y-62659500D01*
X213340713Y-62659500D01*
X213300570Y-62665858D01*
X213130753Y-62692754D01*
X213020813Y-62728475D01*
X212950972Y-62730470D01*
X212894815Y-62698225D01*
X212302198Y-62105608D01*
X212302178Y-62105586D01*
X212210733Y-62014141D01*
X212159509Y-61979915D01*
X212108286Y-61945688D01*
X212108283Y-61945686D01*
X212108280Y-61945685D01*
X212027792Y-61912347D01*
X211994453Y-61898537D01*
X211984427Y-61896543D01*
X211934029Y-61886518D01*
X211873610Y-61874500D01*
X211873607Y-61874500D01*
X211873606Y-61874500D01*
X198967607Y-61874500D01*
X198844393Y-61874500D01*
X198844389Y-61874500D01*
X198783971Y-61886518D01*
X198740743Y-61895116D01*
X198723546Y-61898537D01*
X198609716Y-61945687D01*
X198609707Y-61945692D01*
X198507268Y-62014140D01*
X198463705Y-62057703D01*
X198420142Y-62101267D01*
X198420139Y-62101270D01*
X197823183Y-62698225D01*
X197761860Y-62731710D01*
X197697185Y-62728475D01*
X197587245Y-62692754D01*
X197587246Y-62692754D01*
X197417436Y-62665859D01*
X197377287Y-62659500D01*
X197164713Y-62659500D01*
X197124564Y-62665859D01*
X196954760Y-62692753D01*
X196752585Y-62758444D01*
X196563179Y-62854951D01*
X196391215Y-62979889D01*
X196252035Y-63119069D01*
X196190712Y-63152553D01*
X196121020Y-63147569D01*
X196065087Y-63105697D01*
X196058815Y-63096484D01*
X195963315Y-62941654D01*
X195839345Y-62817684D01*
X195690124Y-62725643D01*
X195690119Y-62725641D01*
X195523697Y-62670494D01*
X195523690Y-62670493D01*
X195420986Y-62660000D01*
X195021000Y-62660000D01*
X195021000Y-63730854D01*
X194954343Y-63692370D01*
X194833535Y-63660000D01*
X194708465Y-63660000D01*
X194587657Y-63692370D01*
X194521000Y-63730854D01*
X194521000Y-62660000D01*
X194121028Y-62660000D01*
X194121012Y-62660001D01*
X194018302Y-62670494D01*
X193851880Y-62725641D01*
X193851875Y-62725643D01*
X193702654Y-62817684D01*
X193578684Y-62941654D01*
X193486643Y-63090875D01*
X193486641Y-63090880D01*
X193431494Y-63257302D01*
X193431493Y-63257309D01*
X193421000Y-63360013D01*
X193421000Y-63885000D01*
X194366854Y-63885000D01*
X194328370Y-63951657D01*
X194296000Y-64072465D01*
X194296000Y-64197535D01*
X194328370Y-64318343D01*
X194366854Y-64385000D01*
X193421001Y-64385000D01*
X193421001Y-64909986D01*
X193431494Y-65012697D01*
X193486641Y-65179119D01*
X193486643Y-65179124D01*
X193578684Y-65328345D01*
X193702654Y-65452315D01*
X193851875Y-65544356D01*
X193851880Y-65544358D01*
X194018302Y-65599505D01*
X194018309Y-65599506D01*
X194121019Y-65609999D01*
X194520999Y-65609999D01*
X194521000Y-65609998D01*
X194521000Y-64539145D01*
X194587657Y-64577630D01*
X194708465Y-64610000D01*
X194833535Y-64610000D01*
X194954343Y-64577630D01*
X195021000Y-64539145D01*
X195021000Y-65609999D01*
X195420972Y-65609999D01*
X195420986Y-65609998D01*
X195523697Y-65599505D01*
X195690119Y-65544358D01*
X195690124Y-65544356D01*
X195839345Y-65452315D01*
X195963317Y-65328343D01*
X196058815Y-65173516D01*
X196110763Y-65126791D01*
X196179725Y-65115568D01*
X196243808Y-65143412D01*
X196252035Y-65150931D01*
X196391213Y-65290109D01*
X196563179Y-65415048D01*
X196563181Y-65415049D01*
X196563184Y-65415051D01*
X196752588Y-65511557D01*
X196954757Y-65577246D01*
X197164713Y-65610500D01*
X197164714Y-65610500D01*
X197377286Y-65610500D01*
X197377287Y-65610500D01*
X197587243Y-65577246D01*
X197789412Y-65511557D01*
X197978816Y-65415051D01*
X198002219Y-65398048D01*
X198150786Y-65290109D01*
X198150788Y-65290106D01*
X198150792Y-65290104D01*
X198301104Y-65139792D01*
X198420683Y-64975204D01*
X198476011Y-64932540D01*
X198545624Y-64926561D01*
X198607420Y-64959166D01*
X198621313Y-64975199D01*
X198678522Y-65053941D01*
X198740896Y-65139792D01*
X198891213Y-65290109D01*
X199063179Y-65415048D01*
X199063181Y-65415049D01*
X199063184Y-65415051D01*
X199252588Y-65511557D01*
X199454757Y-65577246D01*
X199664713Y-65610500D01*
X199664714Y-65610500D01*
X199877286Y-65610500D01*
X199877287Y-65610500D01*
X200087243Y-65577246D01*
X200289412Y-65511557D01*
X200478816Y-65415051D01*
X200502219Y-65398048D01*
X200650786Y-65290109D01*
X200650788Y-65290106D01*
X200650792Y-65290104D01*
X200801104Y-65139792D01*
X200920683Y-64975204D01*
X200976011Y-64932540D01*
X201045624Y-64926561D01*
X201107420Y-64959166D01*
X201121313Y-64975199D01*
X201178522Y-65053941D01*
X201240896Y-65139792D01*
X201391213Y-65290109D01*
X201563179Y-65415048D01*
X201563181Y-65415049D01*
X201563184Y-65415051D01*
X201752588Y-65511557D01*
X201954757Y-65577246D01*
X202164713Y-65610500D01*
X202164714Y-65610500D01*
X202377286Y-65610500D01*
X202377287Y-65610500D01*
X202587243Y-65577246D01*
X202789412Y-65511557D01*
X202978816Y-65415051D01*
X203002219Y-65398048D01*
X203150786Y-65290109D01*
X203150788Y-65290106D01*
X203150792Y-65290104D01*
X203301104Y-65139792D01*
X203420683Y-64975204D01*
X203476011Y-64932540D01*
X203545624Y-64926561D01*
X203607420Y-64959166D01*
X203621313Y-64975199D01*
X203678522Y-65053941D01*
X203740896Y-65139792D01*
X203891213Y-65290109D01*
X204063179Y-65415048D01*
X204063181Y-65415049D01*
X204063184Y-65415051D01*
X204252588Y-65511557D01*
X204454757Y-65577246D01*
X204664713Y-65610500D01*
X204664714Y-65610500D01*
X204877286Y-65610500D01*
X204877287Y-65610500D01*
X205087243Y-65577246D01*
X205289412Y-65511557D01*
X205478816Y-65415051D01*
X205502219Y-65398048D01*
X205650786Y-65290109D01*
X205650788Y-65290106D01*
X205650792Y-65290104D01*
X205801104Y-65139792D01*
X205801106Y-65139788D01*
X205801109Y-65139786D01*
X205926048Y-64967820D01*
X205926047Y-64967820D01*
X205926051Y-64967816D01*
X206022557Y-64778412D01*
X206088246Y-64576243D01*
X206121500Y-64366287D01*
X206121500Y-63903713D01*
X206088246Y-63693757D01*
X206022557Y-63491588D01*
X205927891Y-63305795D01*
X205914995Y-63237126D01*
X205941271Y-63172385D01*
X205998378Y-63132128D01*
X206038376Y-63125500D01*
X209483646Y-63125500D01*
X209550685Y-63145185D01*
X209596440Y-63197989D01*
X209607004Y-63262103D01*
X209597000Y-63360013D01*
X209597000Y-63885000D01*
X210542854Y-63885000D01*
X210504370Y-63951657D01*
X210472000Y-64072465D01*
X210472000Y-64197535D01*
X210504370Y-64318343D01*
X210542854Y-64385000D01*
X209597001Y-64385000D01*
X209597001Y-64909986D01*
X209607494Y-65012697D01*
X209662641Y-65179119D01*
X209662643Y-65179124D01*
X209754684Y-65328345D01*
X209878654Y-65452315D01*
X210027875Y-65544356D01*
X210027880Y-65544358D01*
X210194302Y-65599505D01*
X210194309Y-65599506D01*
X210297019Y-65609999D01*
X210696999Y-65609999D01*
X210697000Y-65609998D01*
X210697000Y-64539145D01*
X210763657Y-64577630D01*
X210884465Y-64610000D01*
X211009535Y-64610000D01*
X211130343Y-64577630D01*
X211197000Y-64539145D01*
X211197000Y-65609999D01*
X211596972Y-65609999D01*
X211596986Y-65609998D01*
X211699697Y-65599505D01*
X211866119Y-65544358D01*
X211866124Y-65544356D01*
X212015345Y-65452315D01*
X212139317Y-65328343D01*
X212234815Y-65173516D01*
X212286763Y-65126791D01*
X212355725Y-65115568D01*
X212419808Y-65143412D01*
X212428035Y-65150931D01*
X212567213Y-65290109D01*
X212739181Y-65415050D01*
X212753792Y-65422494D01*
X212804589Y-65470467D01*
X212821500Y-65532980D01*
X212821500Y-77913611D01*
X212845535Y-78034444D01*
X212845540Y-78034461D01*
X212892685Y-78148280D01*
X212892690Y-78148289D01*
X212926914Y-78199507D01*
X212926915Y-78199509D01*
X212961141Y-78250733D01*
X213052586Y-78342178D01*
X213052608Y-78342198D01*
X214516093Y-79805683D01*
X214549578Y-79867006D01*
X214544594Y-79936698D01*
X214502722Y-79992631D01*
X214437258Y-80017048D01*
X214417606Y-80016892D01*
X214335004Y-80009666D01*
X214334998Y-80009666D01*
X214114414Y-80028964D01*
X214114407Y-80028965D01*
X213900524Y-80086275D01*
X213900513Y-80086279D01*
X213699836Y-80179856D01*
X213699834Y-80179857D01*
X213518444Y-80306868D01*
X213361868Y-80463444D01*
X213234857Y-80644834D01*
X213234856Y-80644836D01*
X213177382Y-80768091D01*
X213131210Y-80820531D01*
X213064017Y-80839683D01*
X212997135Y-80819467D01*
X212952618Y-80768091D01*
X212895143Y-80644836D01*
X212895142Y-80644834D01*
X212895142Y-80644833D01*
X212768132Y-80463445D01*
X212611555Y-80306868D01*
X212430167Y-80179858D01*
X212430163Y-80179856D01*
X212229486Y-80086279D01*
X212229475Y-80086275D01*
X212015592Y-80028965D01*
X212015585Y-80028964D01*
X211795002Y-80009666D01*
X211794998Y-80009666D01*
X211574414Y-80028964D01*
X211574407Y-80028965D01*
X211360524Y-80086275D01*
X211360513Y-80086279D01*
X211159836Y-80179856D01*
X211159834Y-80179857D01*
X210978444Y-80306868D01*
X210821868Y-80463444D01*
X210694857Y-80644834D01*
X210694856Y-80644836D01*
X210637382Y-80768091D01*
X210591210Y-80820531D01*
X210524017Y-80839683D01*
X210457135Y-80819467D01*
X210412618Y-80768091D01*
X210355143Y-80644836D01*
X210355142Y-80644834D01*
X210355142Y-80644833D01*
X210228132Y-80463445D01*
X210071555Y-80306868D01*
X209890167Y-80179858D01*
X209890163Y-80179856D01*
X209689486Y-80086279D01*
X209689475Y-80086275D01*
X209475592Y-80028965D01*
X209475585Y-80028964D01*
X209255002Y-80009666D01*
X209254998Y-80009666D01*
X209034414Y-80028964D01*
X209034407Y-80028965D01*
X208820524Y-80086275D01*
X208820513Y-80086279D01*
X208619836Y-80179856D01*
X208619834Y-80179857D01*
X208438444Y-80306868D01*
X208281868Y-80463444D01*
X208154857Y-80644834D01*
X208154856Y-80644836D01*
X208097382Y-80768091D01*
X208051210Y-80820531D01*
X207984017Y-80839683D01*
X207917135Y-80819467D01*
X207872618Y-80768091D01*
X207815143Y-80644836D01*
X207815142Y-80644834D01*
X207815142Y-80644833D01*
X207688132Y-80463445D01*
X207531555Y-80306868D01*
X207350167Y-80179858D01*
X207350163Y-80179856D01*
X207149486Y-80086279D01*
X207149475Y-80086275D01*
X206935592Y-80028965D01*
X206935585Y-80028964D01*
X206715002Y-80009666D01*
X206714998Y-80009666D01*
X206494414Y-80028964D01*
X206494407Y-80028965D01*
X206280524Y-80086275D01*
X206280513Y-80086279D01*
X206079836Y-80179856D01*
X206079834Y-80179857D01*
X205898444Y-80306868D01*
X205741868Y-80463444D01*
X205614857Y-80644834D01*
X205614856Y-80644836D01*
X205557382Y-80768091D01*
X205511210Y-80820531D01*
X205444017Y-80839683D01*
X205377135Y-80819467D01*
X205332618Y-80768091D01*
X205275143Y-80644836D01*
X205275142Y-80644834D01*
X205275142Y-80644833D01*
X205148132Y-80463445D01*
X204991555Y-80306868D01*
X204810167Y-80179858D01*
X204810163Y-80179856D01*
X204609486Y-80086279D01*
X204609475Y-80086275D01*
X204395592Y-80028965D01*
X204395585Y-80028964D01*
X204175002Y-80009666D01*
X204174998Y-80009666D01*
X203954414Y-80028964D01*
X203954407Y-80028965D01*
X203740524Y-80086275D01*
X203740513Y-80086279D01*
X203539836Y-80179856D01*
X203539834Y-80179857D01*
X203358444Y-80306868D01*
X203201868Y-80463444D01*
X203074857Y-80644834D01*
X203074856Y-80644836D01*
X203017382Y-80768091D01*
X202971210Y-80820531D01*
X202904017Y-80839683D01*
X202837135Y-80819467D01*
X202792618Y-80768091D01*
X202735143Y-80644836D01*
X202735142Y-80644834D01*
X202735142Y-80644833D01*
X202608132Y-80463445D01*
X202451555Y-80306868D01*
X202270167Y-80179858D01*
X202270163Y-80179856D01*
X202069486Y-80086279D01*
X202069475Y-80086275D01*
X201855592Y-80028965D01*
X201855585Y-80028964D01*
X201635002Y-80009666D01*
X201634998Y-80009666D01*
X201414414Y-80028964D01*
X201414407Y-80028965D01*
X201200524Y-80086275D01*
X201200513Y-80086279D01*
X200999836Y-80179856D01*
X200999834Y-80179857D01*
X200818444Y-80306868D01*
X200661868Y-80463444D01*
X200534857Y-80644834D01*
X200534856Y-80644836D01*
X200477382Y-80768091D01*
X200431210Y-80820531D01*
X200364017Y-80839683D01*
X200297135Y-80819467D01*
X200252618Y-80768091D01*
X200195143Y-80644836D01*
X200195142Y-80644834D01*
X200195142Y-80644833D01*
X200068132Y-80463445D01*
X199911555Y-80306868D01*
X199730167Y-80179858D01*
X199730163Y-80179856D01*
X199529486Y-80086279D01*
X199529475Y-80086275D01*
X199315592Y-80028965D01*
X199315585Y-80028964D01*
X199095002Y-80009666D01*
X199094998Y-80009666D01*
X198874414Y-80028964D01*
X198874407Y-80028965D01*
X198660524Y-80086275D01*
X198660513Y-80086279D01*
X198459836Y-80179856D01*
X198459834Y-80179857D01*
X198278444Y-80306868D01*
X198121868Y-80463444D01*
X197994857Y-80644834D01*
X197994856Y-80644836D01*
X197901279Y-80845513D01*
X197901275Y-80845524D01*
X197843965Y-81059407D01*
X197843964Y-81059414D01*
X197824666Y-81279998D01*
X197824666Y-81280001D01*
X197843964Y-81500585D01*
X197843965Y-81500592D01*
X197901275Y-81714475D01*
X197901279Y-81714486D01*
X197994624Y-81914666D01*
X197994858Y-81915167D01*
X198121868Y-82096555D01*
X198278445Y-82253132D01*
X198358127Y-82308926D01*
X198401751Y-82363502D01*
X198408943Y-82433001D01*
X198377421Y-82495355D01*
X198317191Y-82530769D01*
X198287002Y-82534500D01*
X191018956Y-82534500D01*
X190951917Y-82514815D01*
X190917381Y-82481624D01*
X190913926Y-82476690D01*
X190838132Y-82368445D01*
X190681555Y-82211868D01*
X190500167Y-82084858D01*
X190482473Y-82076607D01*
X190299486Y-81991279D01*
X190299475Y-81991275D01*
X190085592Y-81933965D01*
X190085585Y-81933964D01*
X189865002Y-81914666D01*
X189864998Y-81914666D01*
X189644414Y-81933964D01*
X189644407Y-81933965D01*
X189430524Y-81991275D01*
X189430513Y-81991279D01*
X189229836Y-82084856D01*
X189229834Y-82084857D01*
X189048444Y-82211868D01*
X188891868Y-82368444D01*
X188764857Y-82549834D01*
X188764856Y-82549836D01*
X188707382Y-82673091D01*
X188661210Y-82725531D01*
X188594017Y-82744683D01*
X188527135Y-82724467D01*
X188482618Y-82673091D01*
X188432300Y-82565184D01*
X188425142Y-82549833D01*
X188298132Y-82368445D01*
X188141555Y-82211868D01*
X187960167Y-82084858D01*
X187942473Y-82076607D01*
X187759486Y-81991279D01*
X187759475Y-81991275D01*
X187545592Y-81933965D01*
X187545585Y-81933964D01*
X187325002Y-81914666D01*
X187324998Y-81914666D01*
X187104414Y-81933964D01*
X187104407Y-81933965D01*
X186890524Y-81991275D01*
X186890513Y-81991279D01*
X186689836Y-82084856D01*
X186689834Y-82084857D01*
X186508444Y-82211868D01*
X186351868Y-82368444D01*
X186224857Y-82549834D01*
X186224856Y-82549836D01*
X186167382Y-82673091D01*
X186121210Y-82725531D01*
X186054017Y-82744683D01*
X185987135Y-82724467D01*
X185942618Y-82673091D01*
X185892300Y-82565184D01*
X185885142Y-82549833D01*
X185758132Y-82368445D01*
X185601555Y-82211868D01*
X185420167Y-82084858D01*
X185402473Y-82076607D01*
X185219486Y-81991279D01*
X185219475Y-81991275D01*
X185005592Y-81933965D01*
X185005585Y-81933964D01*
X184785002Y-81914666D01*
X184784998Y-81914666D01*
X184564414Y-81933964D01*
X184564407Y-81933965D01*
X184350524Y-81991275D01*
X184350513Y-81991279D01*
X184149836Y-82084856D01*
X184149834Y-82084857D01*
X183968446Y-82211867D01*
X183811865Y-82368447D01*
X183802639Y-82381624D01*
X183748062Y-82425249D01*
X183701065Y-82434500D01*
X183328935Y-82434500D01*
X183261896Y-82414815D01*
X183227361Y-82381624D01*
X183218134Y-82368447D01*
X183158612Y-82308925D01*
X183061555Y-82211868D01*
X182880167Y-82084858D01*
X182862473Y-82076607D01*
X182679486Y-81991279D01*
X182679475Y-81991275D01*
X182465592Y-81933965D01*
X182465585Y-81933964D01*
X182245002Y-81914666D01*
X182244998Y-81914666D01*
X182024414Y-81933964D01*
X182024407Y-81933965D01*
X181810524Y-81991275D01*
X181810513Y-81991279D01*
X181609836Y-82084856D01*
X181609834Y-82084857D01*
X181428444Y-82211868D01*
X181271868Y-82368444D01*
X181144857Y-82549834D01*
X181144856Y-82549836D01*
X181087382Y-82673091D01*
X181041210Y-82725531D01*
X180974017Y-82744683D01*
X180907135Y-82724467D01*
X180862618Y-82673091D01*
X180812300Y-82565184D01*
X180805142Y-82549833D01*
X180678132Y-82368445D01*
X180521555Y-82211868D01*
X180340167Y-82084858D01*
X180322473Y-82076607D01*
X180139486Y-81991279D01*
X180139475Y-81991275D01*
X179925592Y-81933965D01*
X179925585Y-81933964D01*
X179705002Y-81914666D01*
X179704998Y-81914666D01*
X179484414Y-81933964D01*
X179484407Y-81933965D01*
X179270524Y-81991275D01*
X179270513Y-81991279D01*
X179069836Y-82084856D01*
X179069834Y-82084857D01*
X178888444Y-82211868D01*
X178731868Y-82368444D01*
X178604857Y-82549834D01*
X178604856Y-82549836D01*
X178547382Y-82673091D01*
X178501210Y-82725531D01*
X178434017Y-82744683D01*
X178367135Y-82724467D01*
X178322618Y-82673091D01*
X178272300Y-82565184D01*
X178265142Y-82549833D01*
X178138132Y-82368445D01*
X177981555Y-82211868D01*
X177800167Y-82084858D01*
X177782473Y-82076607D01*
X177599486Y-81991279D01*
X177599475Y-81991275D01*
X177385592Y-81933965D01*
X177385585Y-81933964D01*
X177165002Y-81914666D01*
X177164998Y-81914666D01*
X176944414Y-81933964D01*
X176944407Y-81933965D01*
X176730524Y-81991275D01*
X176730513Y-81991279D01*
X176529836Y-82084856D01*
X176529834Y-82084857D01*
X176348444Y-82211868D01*
X176191868Y-82368444D01*
X176064857Y-82549834D01*
X176064856Y-82549836D01*
X176007382Y-82673091D01*
X175961210Y-82725531D01*
X175894017Y-82744683D01*
X175827135Y-82724467D01*
X175782618Y-82673091D01*
X175732300Y-82565184D01*
X175725142Y-82549833D01*
X175598132Y-82368445D01*
X175441555Y-82211868D01*
X175260167Y-82084858D01*
X175242473Y-82076607D01*
X175059486Y-81991279D01*
X175059475Y-81991275D01*
X174845592Y-81933965D01*
X174845585Y-81933964D01*
X174625002Y-81914666D01*
X174624998Y-81914666D01*
X174404414Y-81933964D01*
X174404407Y-81933965D01*
X174190524Y-81991275D01*
X174190513Y-81991279D01*
X173989836Y-82084856D01*
X173989834Y-82084857D01*
X173808444Y-82211868D01*
X173651868Y-82368444D01*
X173604737Y-82435755D01*
X173578151Y-82473724D01*
X173576074Y-82476690D01*
X173521497Y-82520315D01*
X173451998Y-82527507D01*
X173389644Y-82495985D01*
X173354230Y-82435755D01*
X173350499Y-82405566D01*
X173350499Y-82372129D01*
X173350498Y-82372123D01*
X173350497Y-82372116D01*
X173344091Y-82312517D01*
X173343631Y-82311285D01*
X173293797Y-82177671D01*
X173293793Y-82177664D01*
X173207547Y-82062455D01*
X173207544Y-82062452D01*
X173092335Y-81976206D01*
X173092328Y-81976202D01*
X172957482Y-81925908D01*
X172957483Y-81925908D01*
X172897883Y-81919501D01*
X172897881Y-81919500D01*
X172897873Y-81919500D01*
X172897864Y-81919500D01*
X171272129Y-81919500D01*
X171272123Y-81919501D01*
X171212516Y-81925908D01*
X171077671Y-81976202D01*
X171077664Y-81976206D01*
X170962455Y-82062452D01*
X170962452Y-82062455D01*
X170876206Y-82177664D01*
X170876202Y-82177671D01*
X170825908Y-82312517D01*
X170819501Y-82372116D01*
X170819501Y-82372123D01*
X170819500Y-82372135D01*
X170819500Y-83997870D01*
X170819501Y-83997876D01*
X170825908Y-84057483D01*
X170876202Y-84192328D01*
X170876206Y-84192335D01*
X170962452Y-84307544D01*
X170962455Y-84307547D01*
X171077664Y-84393793D01*
X171077671Y-84393797D01*
X171212517Y-84444091D01*
X171212516Y-84444091D01*
X171219444Y-84444835D01*
X171272127Y-84450500D01*
X172897872Y-84450499D01*
X172957483Y-84444091D01*
X173092331Y-84393796D01*
X173207546Y-84307546D01*
X173293796Y-84192331D01*
X173344091Y-84057483D01*
X173350500Y-83997873D01*
X173350499Y-83964434D01*
X173370182Y-83897398D01*
X173422984Y-83851642D01*
X173492143Y-83841697D01*
X173555699Y-83870720D01*
X173576073Y-83893311D01*
X173651862Y-84001547D01*
X173651868Y-84001555D01*
X173808445Y-84158132D01*
X173989833Y-84285142D01*
X174110572Y-84341443D01*
X174190513Y-84378720D01*
X174190515Y-84378720D01*
X174190520Y-84378723D01*
X174404409Y-84436035D01*
X174561974Y-84449820D01*
X174624998Y-84455334D01*
X174625000Y-84455334D01*
X174625002Y-84455334D01*
X174680276Y-84450498D01*
X174845591Y-84436035D01*
X175059480Y-84378723D01*
X175260167Y-84285142D01*
X175441555Y-84158132D01*
X175598132Y-84001555D01*
X175725142Y-83820167D01*
X175782618Y-83696907D01*
X175828790Y-83644468D01*
X175895983Y-83625316D01*
X175962864Y-83645531D01*
X176007381Y-83696907D01*
X176064858Y-83820167D01*
X176191868Y-84001555D01*
X176348445Y-84158132D01*
X176529833Y-84285142D01*
X176650572Y-84341443D01*
X176730513Y-84378720D01*
X176730515Y-84378720D01*
X176730520Y-84378723D01*
X176944409Y-84436035D01*
X177101974Y-84449820D01*
X177164998Y-84455334D01*
X177165000Y-84455334D01*
X177165002Y-84455334D01*
X177220276Y-84450498D01*
X177385591Y-84436035D01*
X177599480Y-84378723D01*
X177800167Y-84285142D01*
X177981555Y-84158132D01*
X178138132Y-84001555D01*
X178265142Y-83820167D01*
X178322618Y-83696907D01*
X178368790Y-83644468D01*
X178435983Y-83625316D01*
X178502864Y-83645531D01*
X178547381Y-83696907D01*
X178604858Y-83820167D01*
X178731868Y-84001555D01*
X178888445Y-84158132D01*
X179069833Y-84285142D01*
X179190572Y-84341443D01*
X179270513Y-84378720D01*
X179270515Y-84378720D01*
X179270520Y-84378723D01*
X179484409Y-84436035D01*
X179641974Y-84449820D01*
X179704998Y-84455334D01*
X179705000Y-84455334D01*
X179705002Y-84455334D01*
X179760276Y-84450498D01*
X179925591Y-84436035D01*
X180139480Y-84378723D01*
X180340167Y-84285142D01*
X180521555Y-84158132D01*
X180678132Y-84001555D01*
X180805142Y-83820167D01*
X180862618Y-83696907D01*
X180908790Y-83644468D01*
X180975983Y-83625316D01*
X181042864Y-83645531D01*
X181087381Y-83696907D01*
X181144858Y-83820167D01*
X181271868Y-84001555D01*
X181428445Y-84158132D01*
X181609833Y-84285142D01*
X181730572Y-84341443D01*
X181810513Y-84378720D01*
X181810515Y-84378720D01*
X181810520Y-84378723D01*
X182024409Y-84436035D01*
X182181974Y-84449820D01*
X182244998Y-84455334D01*
X182245000Y-84455334D01*
X182245002Y-84455334D01*
X182300276Y-84450498D01*
X182465591Y-84436035D01*
X182679480Y-84378723D01*
X182880167Y-84285142D01*
X183061555Y-84158132D01*
X183218132Y-84001555D01*
X183220715Y-83997866D01*
X183227361Y-83988376D01*
X183281938Y-83944751D01*
X183328935Y-83935500D01*
X183701065Y-83935500D01*
X183768104Y-83955185D01*
X183802639Y-83988376D01*
X183811865Y-84001552D01*
X183811867Y-84001554D01*
X183811868Y-84001555D01*
X183968445Y-84158132D01*
X184149833Y-84285142D01*
X184270572Y-84341443D01*
X184350513Y-84378720D01*
X184350515Y-84378720D01*
X184350520Y-84378723D01*
X184564409Y-84436035D01*
X184721974Y-84449820D01*
X184784998Y-84455334D01*
X184785000Y-84455334D01*
X184785002Y-84455334D01*
X184840276Y-84450498D01*
X185005591Y-84436035D01*
X185219480Y-84378723D01*
X185420167Y-84285142D01*
X185601555Y-84158132D01*
X185758132Y-84001555D01*
X185885142Y-83820167D01*
X185942618Y-83696907D01*
X185988790Y-83644468D01*
X186055983Y-83625316D01*
X186122864Y-83645531D01*
X186167381Y-83696907D01*
X186224858Y-83820167D01*
X186351868Y-84001555D01*
X186508445Y-84158132D01*
X186689833Y-84285142D01*
X186810572Y-84341443D01*
X186890513Y-84378720D01*
X186890515Y-84378720D01*
X186890520Y-84378723D01*
X187104409Y-84436035D01*
X187261974Y-84449820D01*
X187324998Y-84455334D01*
X187325000Y-84455334D01*
X187325002Y-84455334D01*
X187380276Y-84450498D01*
X187545591Y-84436035D01*
X187759480Y-84378723D01*
X187960167Y-84285142D01*
X188141555Y-84158132D01*
X188298132Y-84001555D01*
X188425142Y-83820167D01*
X188482618Y-83696907D01*
X188528790Y-83644468D01*
X188595983Y-83625316D01*
X188662864Y-83645531D01*
X188707381Y-83696907D01*
X188764858Y-83820167D01*
X188891868Y-84001555D01*
X189048445Y-84158132D01*
X189229833Y-84285142D01*
X189350572Y-84341443D01*
X189430513Y-84378720D01*
X189430515Y-84378720D01*
X189430520Y-84378723D01*
X189644409Y-84436035D01*
X189801974Y-84449820D01*
X189864998Y-84455334D01*
X189865000Y-84455334D01*
X189865002Y-84455334D01*
X189920276Y-84450498D01*
X190085591Y-84436035D01*
X190299480Y-84378723D01*
X190500167Y-84285142D01*
X190681555Y-84158132D01*
X190838132Y-84001555D01*
X190917382Y-83888375D01*
X190971959Y-83844751D01*
X191018956Y-83835500D01*
X202334071Y-83835500D01*
X202418615Y-83818682D01*
X202459744Y-83810501D01*
X202578127Y-83761465D01*
X202684669Y-83690277D01*
X203816640Y-82558304D01*
X203877961Y-82524821D01*
X203936413Y-82526212D01*
X203954409Y-82531035D01*
X204175000Y-82550334D01*
X204218859Y-82546496D01*
X204287356Y-82560261D01*
X204337540Y-82608876D01*
X204353475Y-82676904D01*
X204330101Y-82742748D01*
X204317347Y-82757705D01*
X201761873Y-85313181D01*
X201700550Y-85346666D01*
X201674192Y-85349500D01*
X173650929Y-85349500D01*
X173525261Y-85374497D01*
X173525255Y-85374499D01*
X173406874Y-85423534D01*
X173300326Y-85494726D01*
X172443360Y-86351692D01*
X172382037Y-86385177D01*
X172323590Y-86383787D01*
X172305598Y-86378966D01*
X172305585Y-86378964D01*
X172085002Y-86359666D01*
X172084998Y-86359666D01*
X171864414Y-86378964D01*
X171864407Y-86378965D01*
X171650524Y-86436275D01*
X171650513Y-86436279D01*
X171449836Y-86529856D01*
X171449834Y-86529857D01*
X171268444Y-86656868D01*
X171111868Y-86813444D01*
X170984857Y-86994834D01*
X170984856Y-86994836D01*
X170891279Y-87195513D01*
X170891275Y-87195524D01*
X170833965Y-87409407D01*
X170833964Y-87409414D01*
X170814666Y-87629998D01*
X170814666Y-87630001D01*
X170833964Y-87850585D01*
X170833965Y-87850592D01*
X170891275Y-88064475D01*
X170891279Y-88064486D01*
X170984856Y-88265163D01*
X170984858Y-88265167D01*
X171111868Y-88446555D01*
X171268445Y-88603132D01*
X171449833Y-88730142D01*
X171550345Y-88777011D01*
X171650513Y-88823720D01*
X171650515Y-88823720D01*
X171650520Y-88823723D01*
X171864409Y-88881035D01*
X172021974Y-88894820D01*
X172084998Y-88900334D01*
X172085000Y-88900334D01*
X172085002Y-88900334D01*
X172140147Y-88895509D01*
X172305591Y-88881035D01*
X172519480Y-88823723D01*
X172720167Y-88730142D01*
X172901555Y-88603132D01*
X173058132Y-88446555D01*
X173185142Y-88265167D01*
X173242618Y-88141907D01*
X173288790Y-88089468D01*
X173355983Y-88070316D01*
X173422864Y-88090531D01*
X173467381Y-88141907D01*
X173524858Y-88265167D01*
X173651868Y-88446555D01*
X173808445Y-88603132D01*
X173989833Y-88730142D01*
X174090345Y-88777011D01*
X174190513Y-88823720D01*
X174190515Y-88823720D01*
X174190520Y-88823723D01*
X174404409Y-88881035D01*
X174561974Y-88894820D01*
X174624998Y-88900334D01*
X174625000Y-88900334D01*
X174625002Y-88900334D01*
X174655575Y-88897659D01*
X174845591Y-88881035D01*
X174863581Y-88876214D01*
X174933429Y-88877873D01*
X174983360Y-88908306D01*
X176080324Y-90005271D01*
X176080331Y-90005277D01*
X176186871Y-90076464D01*
X176186870Y-90076464D01*
X176221544Y-90090826D01*
X176305256Y-90125501D01*
X176305260Y-90125501D01*
X176305261Y-90125502D01*
X176430928Y-90150500D01*
X176430931Y-90150500D01*
X223959071Y-90150500D01*
X224043615Y-90133682D01*
X224084744Y-90125501D01*
X224203127Y-90076465D01*
X224309669Y-90005277D01*
X231756640Y-82558304D01*
X231817961Y-82524821D01*
X231876413Y-82526212D01*
X231894409Y-82531035D01*
X231934015Y-82534500D01*
X232114998Y-82550334D01*
X232115000Y-82550334D01*
X232115002Y-82550334D01*
X232170276Y-82545498D01*
X232335591Y-82531035D01*
X232549480Y-82473723D01*
X232750167Y-82380142D01*
X232931555Y-82253132D01*
X233088132Y-82096555D01*
X233163928Y-81988307D01*
X233218501Y-81944685D01*
X233288000Y-81937491D01*
X233350355Y-81969013D01*
X233385769Y-82029243D01*
X233389500Y-82059430D01*
X233389500Y-82092868D01*
X233389501Y-82092876D01*
X233395908Y-82152483D01*
X233446202Y-82287328D01*
X233446206Y-82287335D01*
X233532452Y-82402544D01*
X233532455Y-82402547D01*
X233647664Y-82488793D01*
X233647671Y-82488797D01*
X233782517Y-82539091D01*
X233782516Y-82539091D01*
X233789444Y-82539835D01*
X233842127Y-82545500D01*
X235294546Y-82545499D01*
X235361585Y-82565184D01*
X235407340Y-82617987D01*
X235417284Y-82687146D01*
X235388259Y-82750702D01*
X235382227Y-82757180D01*
X224801229Y-93338181D01*
X224739906Y-93371666D01*
X224713548Y-93374500D01*
X214253389Y-93374500D01*
X214192971Y-93386518D01*
X214149743Y-93395116D01*
X214132546Y-93398537D01*
X214018716Y-93445687D01*
X214018707Y-93445692D01*
X213916268Y-93514140D01*
X213872705Y-93557703D01*
X213829142Y-93601267D01*
X213829139Y-93601270D01*
X212181244Y-95249164D01*
X212119921Y-95282649D01*
X212061470Y-95281258D01*
X212015591Y-95268965D01*
X211795002Y-95249666D01*
X211794998Y-95249666D01*
X211574414Y-95268964D01*
X211574407Y-95268965D01*
X211360524Y-95326275D01*
X211360513Y-95326279D01*
X211159836Y-95419856D01*
X211159834Y-95419857D01*
X210978444Y-95546868D01*
X210821868Y-95703444D01*
X210694857Y-95884834D01*
X210694856Y-95884836D01*
X210637382Y-96008091D01*
X210591210Y-96060531D01*
X210524017Y-96079683D01*
X210457135Y-96059467D01*
X210412618Y-96008091D01*
X210355143Y-95884836D01*
X210355142Y-95884834D01*
X210355142Y-95884833D01*
X210228132Y-95703445D01*
X210071555Y-95546868D01*
X209890167Y-95419858D01*
X209842889Y-95397812D01*
X209689486Y-95326279D01*
X209689475Y-95326275D01*
X209475592Y-95268965D01*
X209475585Y-95268964D01*
X209255002Y-95249666D01*
X209254998Y-95249666D01*
X209034414Y-95268964D01*
X209034407Y-95268965D01*
X208820524Y-95326275D01*
X208820513Y-95326279D01*
X208619836Y-95419856D01*
X208619834Y-95419857D01*
X208438444Y-95546868D01*
X208281868Y-95703444D01*
X208154857Y-95884834D01*
X208154856Y-95884836D01*
X208097382Y-96008091D01*
X208051210Y-96060531D01*
X207984017Y-96079683D01*
X207917135Y-96059467D01*
X207872618Y-96008091D01*
X207815143Y-95884836D01*
X207815142Y-95884834D01*
X207815142Y-95884833D01*
X207688132Y-95703445D01*
X207531555Y-95546868D01*
X207350167Y-95419858D01*
X207302889Y-95397812D01*
X207149486Y-95326279D01*
X207149475Y-95326275D01*
X206935592Y-95268965D01*
X206935585Y-95268964D01*
X206715002Y-95249666D01*
X206714998Y-95249666D01*
X206494414Y-95268964D01*
X206494407Y-95268965D01*
X206280524Y-95326275D01*
X206280513Y-95326279D01*
X206079836Y-95419856D01*
X206079834Y-95419857D01*
X205898444Y-95546868D01*
X205741868Y-95703444D01*
X205614857Y-95884834D01*
X205614856Y-95884836D01*
X205557382Y-96008091D01*
X205511210Y-96060531D01*
X205444017Y-96079683D01*
X205377135Y-96059467D01*
X205332618Y-96008091D01*
X205275143Y-95884836D01*
X205275142Y-95884834D01*
X205275142Y-95884833D01*
X205148132Y-95703445D01*
X204991555Y-95546868D01*
X204810167Y-95419858D01*
X204762889Y-95397812D01*
X204609486Y-95326279D01*
X204609475Y-95326275D01*
X204395592Y-95268965D01*
X204395585Y-95268964D01*
X204175002Y-95249666D01*
X204174998Y-95249666D01*
X203954414Y-95268964D01*
X203954407Y-95268965D01*
X203740524Y-95326275D01*
X203740513Y-95326279D01*
X203539836Y-95419856D01*
X203539834Y-95419857D01*
X203358444Y-95546868D01*
X203201868Y-95703444D01*
X203074857Y-95884834D01*
X203074856Y-95884836D01*
X203017382Y-96008091D01*
X202971210Y-96060531D01*
X202904017Y-96079683D01*
X202837135Y-96059467D01*
X202792618Y-96008091D01*
X202735143Y-95884836D01*
X202735142Y-95884834D01*
X202735142Y-95884833D01*
X202608132Y-95703445D01*
X202451555Y-95546868D01*
X202270167Y-95419858D01*
X202222889Y-95397812D01*
X202069486Y-95326279D01*
X202069475Y-95326275D01*
X201855592Y-95268965D01*
X201855585Y-95268964D01*
X201635002Y-95249666D01*
X201634998Y-95249666D01*
X201414414Y-95268964D01*
X201414407Y-95268965D01*
X201200524Y-95326275D01*
X201200513Y-95326279D01*
X200999836Y-95419856D01*
X200999834Y-95419857D01*
X200818444Y-95546868D01*
X200661868Y-95703444D01*
X200534857Y-95884834D01*
X200534856Y-95884836D01*
X200477382Y-96008091D01*
X200431210Y-96060531D01*
X200364017Y-96079683D01*
X200297135Y-96059467D01*
X200252618Y-96008091D01*
X200195143Y-95884836D01*
X200195142Y-95884834D01*
X200195142Y-95884833D01*
X200068132Y-95703445D01*
X199911555Y-95546868D01*
X199730167Y-95419858D01*
X199682889Y-95397812D01*
X199529486Y-95326279D01*
X199529475Y-95326275D01*
X199315592Y-95268965D01*
X199315585Y-95268964D01*
X199095002Y-95249666D01*
X199094998Y-95249666D01*
X198874414Y-95268964D01*
X198874407Y-95268965D01*
X198660524Y-95326275D01*
X198660513Y-95326279D01*
X198459836Y-95419856D01*
X198459834Y-95419857D01*
X198278444Y-95546868D01*
X198121868Y-95703444D01*
X197994857Y-95884834D01*
X197994856Y-95884836D01*
X197901279Y-96085513D01*
X197901275Y-96085524D01*
X197843965Y-96299407D01*
X197843964Y-96299414D01*
X197824666Y-96519998D01*
X197824666Y-96520001D01*
X197843964Y-96740585D01*
X197843965Y-96740592D01*
X197901275Y-96954475D01*
X197901279Y-96954486D01*
X197994856Y-97155163D01*
X197994858Y-97155167D01*
X198121868Y-97336555D01*
X198278445Y-97493132D01*
X198459833Y-97620142D01*
X198507116Y-97642190D01*
X198660513Y-97713720D01*
X198660515Y-97713720D01*
X198660520Y-97713723D01*
X198874409Y-97771035D01*
X199031974Y-97784820D01*
X199094998Y-97790334D01*
X199095000Y-97790334D01*
X199095002Y-97790334D01*
X199150147Y-97785509D01*
X199315591Y-97771035D01*
X199529480Y-97713723D01*
X199730167Y-97620142D01*
X199911555Y-97493132D01*
X200068132Y-97336555D01*
X200195142Y-97155167D01*
X200252618Y-97031907D01*
X200298790Y-96979468D01*
X200365983Y-96960316D01*
X200432864Y-96980531D01*
X200477381Y-97031907D01*
X200534858Y-97155167D01*
X200661868Y-97336555D01*
X200818445Y-97493132D01*
X200999833Y-97620142D01*
X201047116Y-97642190D01*
X201200513Y-97713720D01*
X201200515Y-97713720D01*
X201200520Y-97713723D01*
X201414409Y-97771035D01*
X201571974Y-97784820D01*
X201634998Y-97790334D01*
X201635000Y-97790334D01*
X201635002Y-97790334D01*
X201690147Y-97785509D01*
X201855591Y-97771035D01*
X202069480Y-97713723D01*
X202270167Y-97620142D01*
X202451555Y-97493132D01*
X202608132Y-97336555D01*
X202735142Y-97155167D01*
X202792618Y-97031907D01*
X202838790Y-96979468D01*
X202905983Y-96960316D01*
X202972864Y-96980531D01*
X203017381Y-97031907D01*
X203074858Y-97155167D01*
X203201868Y-97336555D01*
X203358445Y-97493132D01*
X203539833Y-97620142D01*
X203587116Y-97642190D01*
X203740513Y-97713720D01*
X203740515Y-97713720D01*
X203740520Y-97713723D01*
X203954409Y-97771035D01*
X204111974Y-97784820D01*
X204174998Y-97790334D01*
X204175000Y-97790334D01*
X204175002Y-97790334D01*
X204230147Y-97785509D01*
X204395591Y-97771035D01*
X204609480Y-97713723D01*
X204810167Y-97620142D01*
X204991555Y-97493132D01*
X205148132Y-97336555D01*
X205275142Y-97155167D01*
X205332618Y-97031907D01*
X205378790Y-96979468D01*
X205445983Y-96960316D01*
X205512864Y-96980531D01*
X205557381Y-97031907D01*
X205614858Y-97155167D01*
X205741868Y-97336555D01*
X205898445Y-97493132D01*
X206079833Y-97620142D01*
X206127116Y-97642190D01*
X206280513Y-97713720D01*
X206280515Y-97713720D01*
X206280520Y-97713723D01*
X206494409Y-97771035D01*
X206651974Y-97784820D01*
X206714998Y-97790334D01*
X206715000Y-97790334D01*
X206715002Y-97790334D01*
X206770147Y-97785509D01*
X206935591Y-97771035D01*
X207149480Y-97713723D01*
X207350167Y-97620142D01*
X207531555Y-97493132D01*
X207688132Y-97336555D01*
X207815142Y-97155167D01*
X207872618Y-97031907D01*
X207918790Y-96979468D01*
X207985983Y-96960316D01*
X208052864Y-96980531D01*
X208097381Y-97031907D01*
X208154858Y-97155167D01*
X208281868Y-97336555D01*
X208438445Y-97493132D01*
X208619833Y-97620142D01*
X208667116Y-97642190D01*
X208820513Y-97713720D01*
X208820515Y-97713720D01*
X208820520Y-97713723D01*
X209034409Y-97771035D01*
X209191974Y-97784820D01*
X209254998Y-97790334D01*
X209255000Y-97790334D01*
X209255002Y-97790334D01*
X209310147Y-97785509D01*
X209475591Y-97771035D01*
X209689480Y-97713723D01*
X209890167Y-97620142D01*
X210071555Y-97493132D01*
X210228132Y-97336555D01*
X210355142Y-97155167D01*
X210412618Y-97031907D01*
X210458790Y-96979468D01*
X210525983Y-96960316D01*
X210592864Y-96980531D01*
X210637381Y-97031907D01*
X210694858Y-97155167D01*
X210821868Y-97336555D01*
X210978445Y-97493132D01*
X211159833Y-97620142D01*
X211207116Y-97642190D01*
X211360513Y-97713720D01*
X211360515Y-97713720D01*
X211360520Y-97713723D01*
X211574409Y-97771035D01*
X211731974Y-97784820D01*
X211794998Y-97790334D01*
X211795000Y-97790334D01*
X211795002Y-97790334D01*
X211850147Y-97785509D01*
X212015591Y-97771035D01*
X212229480Y-97713723D01*
X212430167Y-97620142D01*
X212611555Y-97493132D01*
X212768132Y-97336555D01*
X212895142Y-97155167D01*
X212952618Y-97031907D01*
X212998790Y-96979468D01*
X213065983Y-96960316D01*
X213132864Y-96980531D01*
X213177381Y-97031907D01*
X213234858Y-97155167D01*
X213361868Y-97336555D01*
X213518445Y-97493132D01*
X213656624Y-97589886D01*
X213700248Y-97644462D01*
X213709500Y-97691460D01*
X213709500Y-99854547D01*
X213689815Y-99921586D01*
X213673181Y-99942228D01*
X211786180Y-101829228D01*
X211724857Y-101862713D01*
X211655165Y-101857729D01*
X211599232Y-101815857D01*
X211574815Y-101750393D01*
X211574499Y-101741570D01*
X211574499Y-100409128D01*
X211568091Y-100349517D01*
X211567321Y-100347453D01*
X211517797Y-100214671D01*
X211517793Y-100214664D01*
X211431547Y-100099455D01*
X211431544Y-100099452D01*
X211316335Y-100013206D01*
X211316328Y-100013202D01*
X211181482Y-99962908D01*
X211181483Y-99962908D01*
X211121883Y-99956501D01*
X211121881Y-99956500D01*
X211121873Y-99956500D01*
X211121864Y-99956500D01*
X209502129Y-99956500D01*
X209502123Y-99956501D01*
X209442516Y-99962908D01*
X209307671Y-100013202D01*
X209307664Y-100013206D01*
X209192455Y-100099452D01*
X209141266Y-100167832D01*
X209085332Y-100209702D01*
X209015640Y-100214686D01*
X208954318Y-100181200D01*
X208942734Y-100167832D01*
X208926844Y-100146606D01*
X208891546Y-100099454D01*
X208891544Y-100099453D01*
X208891544Y-100099452D01*
X208776335Y-100013206D01*
X208776328Y-100013202D01*
X208641482Y-99962908D01*
X208641483Y-99962908D01*
X208581883Y-99956501D01*
X208581881Y-99956500D01*
X208581873Y-99956500D01*
X208581864Y-99956500D01*
X206962129Y-99956500D01*
X206962123Y-99956501D01*
X206902516Y-99962908D01*
X206767671Y-100013202D01*
X206767664Y-100013206D01*
X206652455Y-100099452D01*
X206601266Y-100167832D01*
X206545332Y-100209702D01*
X206475640Y-100214686D01*
X206414318Y-100181200D01*
X206402734Y-100167832D01*
X206386844Y-100146606D01*
X206351546Y-100099454D01*
X206351544Y-100099453D01*
X206351544Y-100099452D01*
X206236335Y-100013206D01*
X206236328Y-100013202D01*
X206101482Y-99962908D01*
X206101483Y-99962908D01*
X206041883Y-99956501D01*
X206041881Y-99956500D01*
X206041873Y-99956500D01*
X206041864Y-99956500D01*
X204422129Y-99956500D01*
X204422123Y-99956501D01*
X204362516Y-99962908D01*
X204227671Y-100013202D01*
X204227664Y-100013206D01*
X204112455Y-100099452D01*
X204061266Y-100167832D01*
X204005332Y-100209702D01*
X203935640Y-100214686D01*
X203874318Y-100181200D01*
X203862734Y-100167832D01*
X203846844Y-100146606D01*
X203811546Y-100099454D01*
X203811544Y-100099453D01*
X203811544Y-100099452D01*
X203696335Y-100013206D01*
X203696328Y-100013202D01*
X203561482Y-99962908D01*
X203561483Y-99962908D01*
X203501883Y-99956501D01*
X203501881Y-99956500D01*
X203501873Y-99956500D01*
X203501864Y-99956500D01*
X201882129Y-99956500D01*
X201882123Y-99956501D01*
X201822516Y-99962908D01*
X201687671Y-100013202D01*
X201687664Y-100013206D01*
X201572455Y-100099452D01*
X201572452Y-100099455D01*
X201486206Y-100214664D01*
X201486202Y-100214671D01*
X201435908Y-100349517D01*
X201432493Y-100381285D01*
X201429501Y-100409123D01*
X201429500Y-100409135D01*
X201429500Y-100596500D01*
X201409815Y-100663539D01*
X201357011Y-100709294D01*
X201305500Y-100720500D01*
X198169179Y-100720500D01*
X198121726Y-100711061D01*
X198000762Y-100660956D01*
X198000760Y-100660955D01*
X197883361Y-100645500D01*
X197544636Y-100645500D01*
X197427234Y-100660955D01*
X197426083Y-100661264D01*
X197424891Y-100661264D01*
X197419179Y-100662016D01*
X197419080Y-100661264D01*
X197368919Y-100661264D01*
X197368820Y-100662017D01*
X197363107Y-100661264D01*
X197361917Y-100661265D01*
X197360765Y-100660956D01*
X197243361Y-100645500D01*
X196904636Y-100645500D01*
X196787246Y-100660953D01*
X196787237Y-100660956D01*
X196666274Y-100711061D01*
X196618821Y-100720500D01*
X196537748Y-100720500D01*
X196470709Y-100700815D01*
X196445600Y-100679474D01*
X196439873Y-100673114D01*
X196439869Y-100673110D01*
X196286734Y-100561851D01*
X196286729Y-100561848D01*
X196113807Y-100484857D01*
X196113802Y-100484855D01*
X195968001Y-100453865D01*
X195928646Y-100445500D01*
X195739354Y-100445500D01*
X195706897Y-100452398D01*
X195554197Y-100484855D01*
X195554192Y-100484857D01*
X195381270Y-100561848D01*
X195381265Y-100561851D01*
X195228129Y-100673111D01*
X195101466Y-100813785D01*
X195006821Y-100977715D01*
X195006818Y-100977722D01*
X194948327Y-101157740D01*
X194948326Y-101157744D01*
X194928540Y-101346000D01*
X194948326Y-101534256D01*
X194948327Y-101534259D01*
X195006818Y-101714277D01*
X195006821Y-101714284D01*
X195101467Y-101878216D01*
X195203185Y-101991185D01*
X195228129Y-102018888D01*
X195381265Y-102130148D01*
X195381270Y-102130151D01*
X195554192Y-102207142D01*
X195554197Y-102207144D01*
X195739354Y-102246500D01*
X195739355Y-102246500D01*
X195928644Y-102246500D01*
X195928646Y-102246500D01*
X196113803Y-102207144D01*
X196286730Y-102130151D01*
X196439871Y-102018888D01*
X196442788Y-102015647D01*
X196445600Y-102012526D01*
X196505087Y-101975879D01*
X196537748Y-101971500D01*
X196618821Y-101971500D01*
X196666273Y-101980938D01*
X196787238Y-102031044D01*
X196904639Y-102046500D01*
X197243360Y-102046499D01*
X197243363Y-102046499D01*
X197360755Y-102031045D01*
X197360755Y-102031044D01*
X197360762Y-102031044D01*
X197360767Y-102031041D01*
X197361900Y-102030739D01*
X197363085Y-102030738D01*
X197368821Y-102029984D01*
X197368920Y-102030738D01*
X197419080Y-102030737D01*
X197419180Y-102029983D01*
X197424907Y-102030737D01*
X197426091Y-102030737D01*
X197427234Y-102031043D01*
X197427236Y-102031043D01*
X197427238Y-102031044D01*
X197544639Y-102046500D01*
X197883360Y-102046499D01*
X197883363Y-102046499D01*
X198000753Y-102031046D01*
X198000757Y-102031044D01*
X198000762Y-102031044D01*
X198121726Y-101980938D01*
X198169179Y-101971500D01*
X201311949Y-101971500D01*
X201378988Y-101991185D01*
X201424743Y-102043989D01*
X201435239Y-102082251D01*
X201435908Y-102088482D01*
X201486202Y-102223328D01*
X201486206Y-102223335D01*
X201572452Y-102338544D01*
X201572455Y-102338547D01*
X201687664Y-102424793D01*
X201687671Y-102424797D01*
X201822517Y-102475091D01*
X201822516Y-102475091D01*
X201829444Y-102475835D01*
X201882127Y-102481500D01*
X203501872Y-102481499D01*
X203561483Y-102475091D01*
X203696331Y-102424796D01*
X203811546Y-102338546D01*
X203862734Y-102270166D01*
X203918667Y-102228297D01*
X203988359Y-102223313D01*
X204049682Y-102256798D01*
X204061261Y-102270161D01*
X204112454Y-102338546D01*
X204158643Y-102373123D01*
X204227664Y-102424793D01*
X204227671Y-102424797D01*
X204362517Y-102475091D01*
X204362516Y-102475091D01*
X204369444Y-102475835D01*
X204422127Y-102481500D01*
X206041872Y-102481499D01*
X206101483Y-102475091D01*
X206236331Y-102424796D01*
X206351546Y-102338546D01*
X206402734Y-102270166D01*
X206458667Y-102228297D01*
X206528359Y-102223313D01*
X206589682Y-102256798D01*
X206601261Y-102270161D01*
X206652454Y-102338546D01*
X206698643Y-102373123D01*
X206767664Y-102424793D01*
X206767671Y-102424797D01*
X206902517Y-102475091D01*
X206902516Y-102475091D01*
X206909444Y-102475835D01*
X206962127Y-102481500D01*
X208581872Y-102481499D01*
X208641483Y-102475091D01*
X208776331Y-102424796D01*
X208891546Y-102338546D01*
X208942734Y-102270166D01*
X208998667Y-102228297D01*
X209068359Y-102223313D01*
X209129682Y-102256798D01*
X209141261Y-102270161D01*
X209192454Y-102338546D01*
X209238643Y-102373123D01*
X209307664Y-102424793D01*
X209307671Y-102424797D01*
X209442517Y-102475091D01*
X209442516Y-102475091D01*
X209449444Y-102475835D01*
X209502127Y-102481500D01*
X210834548Y-102481499D01*
X210901587Y-102501184D01*
X210947342Y-102553987D01*
X210957286Y-102623146D01*
X210928261Y-102686702D01*
X210922229Y-102693180D01*
X210277229Y-103338181D01*
X210215906Y-103371666D01*
X210189548Y-103374500D01*
X207438389Y-103374500D01*
X207377971Y-103386518D01*
X207334743Y-103395116D01*
X207317546Y-103398537D01*
X207203716Y-103445687D01*
X207203707Y-103445692D01*
X207101268Y-103514140D01*
X207057705Y-103557703D01*
X207014142Y-103601267D01*
X207014139Y-103601270D01*
X204632270Y-105983139D01*
X204632267Y-105983142D01*
X204601268Y-106014141D01*
X204545140Y-106070268D01*
X204517902Y-106111034D01*
X204517900Y-106111037D01*
X204489497Y-106153542D01*
X204474078Y-106172329D01*
X203106227Y-107540181D01*
X203044904Y-107573666D01*
X203018546Y-107576500D01*
X201882129Y-107576500D01*
X201882123Y-107576501D01*
X201822516Y-107582908D01*
X201687671Y-107633202D01*
X201687664Y-107633206D01*
X201572455Y-107719452D01*
X201572452Y-107719455D01*
X201486206Y-107834664D01*
X201486202Y-107834671D01*
X201435908Y-107969517D01*
X201429713Y-108027144D01*
X201429501Y-108029123D01*
X201429500Y-108029135D01*
X201429500Y-109648870D01*
X201429501Y-109648876D01*
X201435908Y-109708483D01*
X201486202Y-109843328D01*
X201486206Y-109843335D01*
X201572452Y-109958544D01*
X201572455Y-109958547D01*
X201687664Y-110044793D01*
X201687671Y-110044797D01*
X201822517Y-110095091D01*
X201822516Y-110095091D01*
X201829444Y-110095835D01*
X201882127Y-110101500D01*
X203501872Y-110101499D01*
X203561483Y-110095091D01*
X203696331Y-110044796D01*
X203811546Y-109958546D01*
X203862734Y-109890166D01*
X203918667Y-109848297D01*
X203988359Y-109843313D01*
X204049682Y-109876798D01*
X204061261Y-109890161D01*
X204112454Y-109958546D01*
X204158643Y-109993123D01*
X204227664Y-110044793D01*
X204227671Y-110044797D01*
X204362517Y-110095091D01*
X204362516Y-110095091D01*
X204369444Y-110095835D01*
X204422127Y-110101500D01*
X206041872Y-110101499D01*
X206101483Y-110095091D01*
X206236331Y-110044796D01*
X206351546Y-109958546D01*
X206402734Y-109890166D01*
X206458667Y-109848297D01*
X206528359Y-109843313D01*
X206589682Y-109876798D01*
X206601261Y-109890161D01*
X206652454Y-109958546D01*
X206698643Y-109993123D01*
X206767664Y-110044793D01*
X206767671Y-110044797D01*
X206902517Y-110095091D01*
X206902516Y-110095091D01*
X206909444Y-110095835D01*
X206962127Y-110101500D01*
X208581872Y-110101499D01*
X208641483Y-110095091D01*
X208776331Y-110044796D01*
X208891546Y-109958546D01*
X208942734Y-109890166D01*
X208998667Y-109848297D01*
X209068359Y-109843313D01*
X209129682Y-109876798D01*
X209141261Y-109890161D01*
X209192454Y-109958546D01*
X209238643Y-109993123D01*
X209307664Y-110044793D01*
X209307671Y-110044797D01*
X209442517Y-110095091D01*
X209442516Y-110095091D01*
X209449444Y-110095835D01*
X209502127Y-110101500D01*
X211121872Y-110101499D01*
X211181483Y-110095091D01*
X211316331Y-110044796D01*
X211431546Y-109958546D01*
X211517796Y-109843331D01*
X211568091Y-109708483D01*
X211574500Y-109648873D01*
X211574500Y-109588500D01*
X211594185Y-109521461D01*
X211646989Y-109475706D01*
X211698500Y-109464500D01*
X212722608Y-109464500D01*
X212722608Y-109464499D01*
X212832361Y-109442669D01*
X212843452Y-109440463D01*
X212894626Y-109419266D01*
X212957286Y-109393312D01*
X213008509Y-109359084D01*
X213059733Y-109324858D01*
X213146858Y-109237733D01*
X213146859Y-109237731D01*
X213153925Y-109230665D01*
X213153927Y-109230661D01*
X215677857Y-106706732D01*
X215739178Y-106673249D01*
X215808870Y-106678233D01*
X215864803Y-106720105D01*
X215887153Y-106770224D01*
X215898535Y-106827444D01*
X215898537Y-106827452D01*
X215912347Y-106860792D01*
X215912347Y-106860793D01*
X215945685Y-106941281D01*
X215945688Y-106941287D01*
X215960527Y-106963494D01*
X215975469Y-106985855D01*
X215975470Y-106985858D01*
X215975471Y-106985858D01*
X216014141Y-107043733D01*
X216105586Y-107135178D01*
X216105608Y-107135198D01*
X217583181Y-108612771D01*
X217616666Y-108674094D01*
X217619500Y-108700451D01*
X217619500Y-108832869D01*
X217619501Y-108832876D01*
X217626619Y-108899092D01*
X217626619Y-108925599D01*
X217620000Y-108987169D01*
X217620000Y-109035000D01*
X217620051Y-109035051D01*
X217686915Y-109054685D01*
X217719140Y-109084686D01*
X217762454Y-109142546D01*
X217762455Y-109142546D01*
X217762456Y-109142548D01*
X217767226Y-109147318D01*
X217800711Y-109208641D01*
X217795727Y-109278333D01*
X217767230Y-109322676D01*
X217756187Y-109333720D01*
X217754622Y-109332155D01*
X217708490Y-109366685D01*
X217665165Y-109374500D01*
X216703748Y-109374500D01*
X216636709Y-109354815D01*
X216611600Y-109333474D01*
X216605873Y-109327114D01*
X216605869Y-109327110D01*
X216452734Y-109215851D01*
X216452729Y-109215848D01*
X216279807Y-109138857D01*
X216279802Y-109138855D01*
X216134001Y-109107865D01*
X216094646Y-109099500D01*
X215905354Y-109099500D01*
X215872897Y-109106398D01*
X215720197Y-109138855D01*
X215720192Y-109138857D01*
X215547270Y-109215848D01*
X215547265Y-109215851D01*
X215394129Y-109327111D01*
X215267466Y-109467785D01*
X215172821Y-109631715D01*
X215172818Y-109631722D01*
X215114327Y-109811740D01*
X215114326Y-109811744D01*
X215094540Y-110000000D01*
X215114326Y-110188256D01*
X215114327Y-110188259D01*
X215172818Y-110368277D01*
X215172821Y-110368284D01*
X215267467Y-110532216D01*
X215368897Y-110644866D01*
X215388400Y-110666526D01*
X215394129Y-110672888D01*
X215480558Y-110735682D01*
X215523223Y-110791012D01*
X215529202Y-110860625D01*
X215496596Y-110922420D01*
X215435757Y-110956778D01*
X215407672Y-110960000D01*
X146809000Y-110960000D01*
X146741961Y-110940315D01*
X146696206Y-110887511D01*
X146685000Y-110836000D01*
X146685000Y-107717470D01*
X146977500Y-107717470D01*
X146977501Y-107717476D01*
X146983908Y-107777083D01*
X147034202Y-107911928D01*
X147034206Y-107911935D01*
X147120452Y-108027144D01*
X147120455Y-108027147D01*
X147235664Y-108113393D01*
X147235671Y-108113397D01*
X147370517Y-108163691D01*
X147370516Y-108163691D01*
X147377444Y-108164435D01*
X147430127Y-108170100D01*
X149049872Y-108170099D01*
X149109483Y-108163691D01*
X149244331Y-108113396D01*
X149359546Y-108027146D01*
X149445796Y-107911931D01*
X149496091Y-107777083D01*
X149502500Y-107717473D01*
X149502500Y-107717470D01*
X166377500Y-107717470D01*
X166377501Y-107717476D01*
X166383908Y-107777083D01*
X166434202Y-107911928D01*
X166434206Y-107911935D01*
X166520452Y-108027144D01*
X166520455Y-108027147D01*
X166635664Y-108113393D01*
X166635671Y-108113397D01*
X166770517Y-108163691D01*
X166770516Y-108163691D01*
X166777444Y-108164435D01*
X166830127Y-108170100D01*
X168449872Y-108170099D01*
X168509483Y-108163691D01*
X168644331Y-108113396D01*
X168759546Y-108027146D01*
X168845796Y-107911931D01*
X168896091Y-107777083D01*
X168902500Y-107717473D01*
X168902499Y-106097728D01*
X168896091Y-106038117D01*
X168876599Y-105985857D01*
X168845797Y-105903271D01*
X168845796Y-105903269D01*
X168782366Y-105818538D01*
X168757949Y-105753074D01*
X168772800Y-105684801D01*
X168793949Y-105656549D01*
X172784463Y-101666036D01*
X172784464Y-101666035D01*
X172883013Y-101518547D01*
X172950894Y-101354666D01*
X172968603Y-101265634D01*
X173000986Y-101203728D01*
X173002467Y-101202219D01*
X173058132Y-101146555D01*
X173185142Y-100965167D01*
X173242618Y-100841907D01*
X173288790Y-100789468D01*
X173355983Y-100770316D01*
X173422864Y-100790531D01*
X173467381Y-100841907D01*
X173524858Y-100965167D01*
X173651868Y-101146555D01*
X173808445Y-101303132D01*
X173989833Y-101430142D01*
X174110572Y-101486443D01*
X174190513Y-101523720D01*
X174190515Y-101523720D01*
X174190520Y-101523723D01*
X174404409Y-101581035D01*
X174561974Y-101594820D01*
X174624998Y-101600334D01*
X174625000Y-101600334D01*
X174625002Y-101600334D01*
X174680147Y-101595509D01*
X174845591Y-101581035D01*
X175059480Y-101523723D01*
X175260167Y-101430142D01*
X175441555Y-101303132D01*
X175598132Y-101146555D01*
X175725142Y-100965167D01*
X175782618Y-100841907D01*
X175828790Y-100789468D01*
X175895983Y-100770316D01*
X175962864Y-100790531D01*
X176007381Y-100841907D01*
X176064858Y-100965167D01*
X176191867Y-101146553D01*
X176191868Y-101146555D01*
X176278181Y-101232868D01*
X176311666Y-101294191D01*
X176314500Y-101320549D01*
X176314500Y-106289109D01*
X176294815Y-106356148D01*
X176268536Y-106385475D01*
X176141968Y-106487968D01*
X176019534Y-106639161D01*
X175931212Y-106812504D01*
X175880858Y-107000425D01*
X175874500Y-107081216D01*
X175874500Y-108310783D01*
X175880858Y-108391574D01*
X175880858Y-108391577D01*
X175880859Y-108391578D01*
X175931212Y-108579496D01*
X176019535Y-108752840D01*
X176141968Y-108904032D01*
X176293160Y-109026465D01*
X176466504Y-109114788D01*
X176654422Y-109165141D01*
X176735222Y-109171500D01*
X176735230Y-109171500D01*
X177714770Y-109171500D01*
X177714778Y-109171500D01*
X177795578Y-109165141D01*
X177983496Y-109114788D01*
X178156840Y-109026465D01*
X178308032Y-108904032D01*
X178430465Y-108752840D01*
X178463190Y-108688612D01*
X178511163Y-108637817D01*
X178578984Y-108621021D01*
X178645119Y-108643558D01*
X178673994Y-108672023D01*
X178694892Y-108700788D01*
X178845213Y-108851109D01*
X179017179Y-108976048D01*
X179017181Y-108976049D01*
X179017184Y-108976051D01*
X179206588Y-109072557D01*
X179408757Y-109138246D01*
X179618713Y-109171500D01*
X179618714Y-109171500D01*
X179831286Y-109171500D01*
X179831287Y-109171500D01*
X180041243Y-109138246D01*
X180243412Y-109072557D01*
X180432816Y-108976051D01*
X180502258Y-108925599D01*
X180604786Y-108851109D01*
X180604788Y-108851106D01*
X180604792Y-108851104D01*
X180755104Y-108700792D01*
X180874683Y-108536204D01*
X180930011Y-108493540D01*
X180999624Y-108487561D01*
X181061420Y-108520166D01*
X181075313Y-108536199D01*
X181157333Y-108649090D01*
X181194896Y-108700792D01*
X181345213Y-108851109D01*
X181517179Y-108976048D01*
X181517181Y-108976049D01*
X181517184Y-108976051D01*
X181706588Y-109072557D01*
X181908757Y-109138246D01*
X182118713Y-109171500D01*
X182118714Y-109171500D01*
X182331286Y-109171500D01*
X182331287Y-109171500D01*
X182541243Y-109138246D01*
X182743412Y-109072557D01*
X182932816Y-108976051D01*
X183002258Y-108925599D01*
X183104786Y-108851109D01*
X183104788Y-108851106D01*
X183104792Y-108851104D01*
X183255104Y-108700792D01*
X183374683Y-108536204D01*
X183430011Y-108493540D01*
X183499624Y-108487561D01*
X183561420Y-108520166D01*
X183575313Y-108536199D01*
X183657333Y-108649090D01*
X183694896Y-108700792D01*
X183845213Y-108851109D01*
X184017179Y-108976048D01*
X184017181Y-108976049D01*
X184017184Y-108976051D01*
X184206588Y-109072557D01*
X184408757Y-109138246D01*
X184618713Y-109171500D01*
X184618714Y-109171500D01*
X184831286Y-109171500D01*
X184831287Y-109171500D01*
X185041243Y-109138246D01*
X185243412Y-109072557D01*
X185432816Y-108976051D01*
X185502258Y-108925599D01*
X185604786Y-108851109D01*
X185604788Y-108851106D01*
X185604792Y-108851104D01*
X185755104Y-108700792D01*
X185755106Y-108700788D01*
X185755109Y-108700786D01*
X185874820Y-108536016D01*
X185880051Y-108528816D01*
X185976557Y-108339412D01*
X186042246Y-108137243D01*
X186075500Y-107927287D01*
X186075500Y-107464713D01*
X186042246Y-107254757D01*
X185976557Y-107052588D01*
X185880051Y-106863184D01*
X185880049Y-106863181D01*
X185880048Y-106863179D01*
X185755109Y-106691213D01*
X185671819Y-106607923D01*
X185638334Y-106546600D01*
X185635500Y-106520242D01*
X185635500Y-106114741D01*
X193249500Y-106114741D01*
X193265051Y-106232853D01*
X193279452Y-106342238D01*
X193334565Y-106547923D01*
X193338842Y-106563887D01*
X193426650Y-106775876D01*
X193426657Y-106775890D01*
X193541392Y-106974617D01*
X193681081Y-107156661D01*
X193681089Y-107156670D01*
X193843330Y-107318911D01*
X193843338Y-107318918D01*
X194025382Y-107458607D01*
X194025385Y-107458608D01*
X194025388Y-107458611D01*
X194224112Y-107573344D01*
X194224117Y-107573346D01*
X194224123Y-107573349D01*
X194290447Y-107600821D01*
X194436113Y-107661158D01*
X194657762Y-107720548D01*
X194885266Y-107750500D01*
X194885273Y-107750500D01*
X195114727Y-107750500D01*
X195114734Y-107750500D01*
X195342238Y-107720548D01*
X195563887Y-107661158D01*
X195775888Y-107573344D01*
X195974612Y-107458611D01*
X196156661Y-107318919D01*
X196156665Y-107318914D01*
X196156670Y-107318911D01*
X196318911Y-107156670D01*
X196318914Y-107156665D01*
X196318919Y-107156661D01*
X196458611Y-106974612D01*
X196573344Y-106775888D01*
X196661158Y-106563887D01*
X196720548Y-106342238D01*
X196750500Y-106114734D01*
X196750500Y-105885266D01*
X196720548Y-105657762D01*
X196661158Y-105436113D01*
X196607593Y-105306797D01*
X196573349Y-105224123D01*
X196573346Y-105224117D01*
X196573344Y-105224112D01*
X196458611Y-105025388D01*
X196458608Y-105025385D01*
X196458607Y-105025382D01*
X196340655Y-104871666D01*
X196318919Y-104843339D01*
X196318918Y-104843338D01*
X196318911Y-104843330D01*
X196156670Y-104681089D01*
X196156661Y-104681081D01*
X195974617Y-104541392D01*
X195937710Y-104520084D01*
X195775888Y-104426656D01*
X195775876Y-104426650D01*
X195563887Y-104338842D01*
X195342238Y-104279452D01*
X195304215Y-104274446D01*
X195114741Y-104249500D01*
X195114734Y-104249500D01*
X194885266Y-104249500D01*
X194885258Y-104249500D01*
X194668715Y-104278009D01*
X194657762Y-104279452D01*
X194571248Y-104302633D01*
X194436112Y-104338842D01*
X194224123Y-104426650D01*
X194224109Y-104426657D01*
X194025382Y-104541392D01*
X193843338Y-104681081D01*
X193681081Y-104843338D01*
X193541392Y-105025382D01*
X193426657Y-105224109D01*
X193426650Y-105224123D01*
X193338842Y-105436112D01*
X193338842Y-105436113D01*
X193281128Y-105651509D01*
X193279453Y-105657759D01*
X193279451Y-105657770D01*
X193249500Y-105885258D01*
X193249500Y-106114741D01*
X185635500Y-106114741D01*
X185635500Y-101320549D01*
X185655185Y-101253510D01*
X185671819Y-101232868D01*
X185702540Y-101202147D01*
X185758132Y-101146555D01*
X185885142Y-100965167D01*
X185942895Y-100841312D01*
X185989064Y-100788878D01*
X186056258Y-100769725D01*
X186123139Y-100789940D01*
X186167657Y-100841316D01*
X186225295Y-100964919D01*
X186271103Y-101030341D01*
X186271105Y-101030342D01*
X186833871Y-100467575D01*
X186849755Y-100526853D01*
X186916898Y-100643147D01*
X187011853Y-100738102D01*
X187128147Y-100805245D01*
X187187424Y-100821128D01*
X186624656Y-101383894D01*
X186690083Y-101429706D01*
X186690085Y-101429707D01*
X186890690Y-101523250D01*
X186890699Y-101523254D01*
X187104490Y-101580538D01*
X187104500Y-101580540D01*
X187324999Y-101599832D01*
X187325001Y-101599832D01*
X187545499Y-101580540D01*
X187545509Y-101580538D01*
X187759300Y-101523254D01*
X187759309Y-101523250D01*
X187959915Y-101429706D01*
X188025342Y-101383894D01*
X187462575Y-100821127D01*
X187521853Y-100805245D01*
X187638147Y-100738102D01*
X187733102Y-100643147D01*
X187800245Y-100526853D01*
X187816128Y-100467575D01*
X188378894Y-101030342D01*
X188424707Y-100964914D01*
X188424708Y-100964912D01*
X188482342Y-100841317D01*
X188528514Y-100788877D01*
X188595707Y-100769725D01*
X188662589Y-100789941D01*
X188707106Y-100841317D01*
X188764739Y-100964912D01*
X188764858Y-100965167D01*
X188891868Y-101146555D01*
X189048445Y-101303132D01*
X189229833Y-101430142D01*
X189350572Y-101486443D01*
X189430513Y-101523720D01*
X189430515Y-101523720D01*
X189430520Y-101523723D01*
X189644409Y-101581035D01*
X189801974Y-101594820D01*
X189864998Y-101600334D01*
X189865000Y-101600334D01*
X189865002Y-101600334D01*
X189920147Y-101595509D01*
X190085591Y-101581035D01*
X190299480Y-101523723D01*
X190500167Y-101430142D01*
X190681555Y-101303132D01*
X190838132Y-101146555D01*
X190965142Y-100965167D01*
X191058723Y-100764480D01*
X191116035Y-100550591D01*
X191135334Y-100330000D01*
X191133970Y-100314414D01*
X191125244Y-100214669D01*
X191116035Y-100109409D01*
X191058723Y-99895520D01*
X191046574Y-99869467D01*
X190980352Y-99727452D01*
X190965142Y-99694833D01*
X190838132Y-99513445D01*
X190681555Y-99356868D01*
X190500167Y-99229858D01*
X190500163Y-99229856D01*
X190299486Y-99136279D01*
X190299475Y-99136275D01*
X190085592Y-99078965D01*
X190085585Y-99078964D01*
X189865002Y-99059666D01*
X189864998Y-99059666D01*
X189644414Y-99078964D01*
X189644407Y-99078965D01*
X189430524Y-99136275D01*
X189430513Y-99136279D01*
X189229836Y-99229856D01*
X189229834Y-99229857D01*
X189048444Y-99356868D01*
X188891868Y-99513444D01*
X188764857Y-99694833D01*
X188707106Y-99818683D01*
X188660934Y-99871122D01*
X188593740Y-99890274D01*
X188526859Y-99870058D01*
X188482342Y-99818683D01*
X188424707Y-99695085D01*
X188424706Y-99695083D01*
X188378894Y-99629657D01*
X188378894Y-99629656D01*
X187816127Y-100192423D01*
X187800245Y-100133147D01*
X187733102Y-100016853D01*
X187638147Y-99921898D01*
X187521853Y-99854755D01*
X187462575Y-99838872D01*
X188025342Y-99276105D01*
X188025341Y-99276103D01*
X187959919Y-99230295D01*
X187759309Y-99136749D01*
X187759300Y-99136745D01*
X187545509Y-99079461D01*
X187545499Y-99079459D01*
X187325001Y-99060168D01*
X187324999Y-99060168D01*
X187104500Y-99079459D01*
X187104490Y-99079461D01*
X186890699Y-99136745D01*
X186890690Y-99136749D01*
X186690084Y-99230293D01*
X186624657Y-99276104D01*
X187187424Y-99838871D01*
X187128147Y-99854755D01*
X187011853Y-99921898D01*
X186916898Y-100016853D01*
X186849755Y-100133147D01*
X186833871Y-100192424D01*
X186271104Y-99629657D01*
X186225293Y-99695084D01*
X186167657Y-99818683D01*
X186121484Y-99871122D01*
X186054290Y-99890274D01*
X185987409Y-99870058D01*
X185942893Y-99818682D01*
X185885142Y-99694833D01*
X185758132Y-99513445D01*
X185601555Y-99356868D01*
X185420167Y-99229858D01*
X185420163Y-99229856D01*
X185219486Y-99136279D01*
X185219475Y-99136275D01*
X185005592Y-99078965D01*
X185005585Y-99078964D01*
X184785002Y-99059666D01*
X184784998Y-99059666D01*
X184564414Y-99078964D01*
X184564407Y-99078965D01*
X184350524Y-99136275D01*
X184350513Y-99136279D01*
X184149836Y-99229856D01*
X184149834Y-99229857D01*
X183968444Y-99356868D01*
X183811868Y-99513444D01*
X183684857Y-99694834D01*
X183684856Y-99694836D01*
X183627382Y-99818091D01*
X183581210Y-99870531D01*
X183514017Y-99889683D01*
X183447135Y-99869467D01*
X183402618Y-99818091D01*
X183356963Y-99720183D01*
X183345142Y-99694833D01*
X183218132Y-99513445D01*
X183061555Y-99356868D01*
X182880167Y-99229858D01*
X182880163Y-99229856D01*
X182679486Y-99136279D01*
X182679475Y-99136275D01*
X182465592Y-99078965D01*
X182465585Y-99078964D01*
X182245002Y-99059666D01*
X182244998Y-99059666D01*
X182024414Y-99078964D01*
X182024407Y-99078965D01*
X181810524Y-99136275D01*
X181810513Y-99136279D01*
X181609836Y-99229856D01*
X181609834Y-99229857D01*
X181428444Y-99356868D01*
X181271868Y-99513444D01*
X181144857Y-99694834D01*
X181144856Y-99694836D01*
X181087382Y-99818091D01*
X181041210Y-99870531D01*
X180974017Y-99889683D01*
X180907135Y-99869467D01*
X180862618Y-99818091D01*
X180816963Y-99720183D01*
X180805142Y-99694833D01*
X180678132Y-99513445D01*
X180521555Y-99356868D01*
X180340167Y-99229858D01*
X180340163Y-99229856D01*
X180139486Y-99136279D01*
X180139475Y-99136275D01*
X179925592Y-99078965D01*
X179925585Y-99078964D01*
X179705002Y-99059666D01*
X179704998Y-99059666D01*
X179484414Y-99078964D01*
X179484407Y-99078965D01*
X179270524Y-99136275D01*
X179270513Y-99136279D01*
X179069836Y-99229856D01*
X179069834Y-99229857D01*
X178888444Y-99356868D01*
X178731868Y-99513444D01*
X178604857Y-99694834D01*
X178604856Y-99694836D01*
X178547382Y-99818091D01*
X178501210Y-99870531D01*
X178434017Y-99889683D01*
X178367135Y-99869467D01*
X178322618Y-99818091D01*
X178276963Y-99720183D01*
X178265142Y-99694833D01*
X178138132Y-99513445D01*
X177981555Y-99356868D01*
X177800167Y-99229858D01*
X177800163Y-99229856D01*
X177599486Y-99136279D01*
X177599475Y-99136275D01*
X177385592Y-99078965D01*
X177385585Y-99078964D01*
X177165002Y-99059666D01*
X177164998Y-99059666D01*
X176944414Y-99078964D01*
X176944407Y-99078965D01*
X176730524Y-99136275D01*
X176730513Y-99136279D01*
X176529836Y-99229856D01*
X176529834Y-99229857D01*
X176348444Y-99356868D01*
X176191868Y-99513444D01*
X176064857Y-99694834D01*
X176064856Y-99694836D01*
X176007382Y-99818091D01*
X175961210Y-99870531D01*
X175894017Y-99889683D01*
X175827135Y-99869467D01*
X175782618Y-99818091D01*
X175736963Y-99720183D01*
X175725142Y-99694833D01*
X175598132Y-99513445D01*
X175441555Y-99356868D01*
X175260167Y-99229858D01*
X175260163Y-99229856D01*
X175059486Y-99136279D01*
X175059475Y-99136275D01*
X174845592Y-99078965D01*
X174845585Y-99078964D01*
X174625002Y-99059666D01*
X174624998Y-99059666D01*
X174404414Y-99078964D01*
X174404407Y-99078965D01*
X174190524Y-99136275D01*
X174190513Y-99136279D01*
X173989836Y-99229856D01*
X173989834Y-99229857D01*
X173808444Y-99356868D01*
X173651868Y-99513444D01*
X173524857Y-99694834D01*
X173524856Y-99694836D01*
X173467382Y-99818091D01*
X173421210Y-99870531D01*
X173354017Y-99889683D01*
X173287135Y-99869467D01*
X173242618Y-99818091D01*
X173196963Y-99720183D01*
X173185142Y-99694833D01*
X173058132Y-99513445D01*
X172901555Y-99356868D01*
X172720167Y-99229858D01*
X172720163Y-99229856D01*
X172519486Y-99136279D01*
X172519475Y-99136275D01*
X172305592Y-99078965D01*
X172305585Y-99078964D01*
X172085002Y-99059666D01*
X172084998Y-99059666D01*
X171864414Y-99078964D01*
X171864407Y-99078965D01*
X171650524Y-99136275D01*
X171650513Y-99136279D01*
X171449836Y-99229856D01*
X171449834Y-99229857D01*
X171268444Y-99356868D01*
X171111868Y-99513444D01*
X170984857Y-99694834D01*
X170984856Y-99694836D01*
X170891279Y-99895513D01*
X170891275Y-99895524D01*
X170833965Y-100109407D01*
X170833964Y-100109414D01*
X170814666Y-100329998D01*
X170814666Y-100330001D01*
X170833964Y-100550585D01*
X170833965Y-100550592D01*
X170891275Y-100764476D01*
X170933369Y-100854748D01*
X170943860Y-100923825D01*
X170915339Y-100987609D01*
X170908667Y-100994832D01*
X168752181Y-103151319D01*
X168690858Y-103184804D01*
X168621166Y-103179820D01*
X168565233Y-103137948D01*
X168540816Y-103072484D01*
X168540500Y-103063638D01*
X168540500Y-82974362D01*
X168560185Y-82907323D01*
X168576819Y-82886681D01*
X172167681Y-79295819D01*
X172229004Y-79262334D01*
X172255362Y-79259500D01*
X182079693Y-79259500D01*
X182079694Y-79259499D01*
X182253666Y-79224895D01*
X182335606Y-79190953D01*
X182417547Y-79157013D01*
X182417549Y-79157011D01*
X182417552Y-79157010D01*
X182505955Y-79097939D01*
X182505955Y-79097938D01*
X182505959Y-79097936D01*
X182565036Y-79058464D01*
X185508758Y-76114741D01*
X193249500Y-76114741D01*
X193274446Y-76304215D01*
X193279452Y-76342238D01*
X193279453Y-76342240D01*
X193338842Y-76563887D01*
X193426650Y-76775876D01*
X193426657Y-76775890D01*
X193541392Y-76974617D01*
X193681081Y-77156661D01*
X193681089Y-77156670D01*
X193843330Y-77318911D01*
X193843338Y-77318918D01*
X194025382Y-77458607D01*
X194025385Y-77458608D01*
X194025388Y-77458611D01*
X194224112Y-77573344D01*
X194224117Y-77573346D01*
X194224123Y-77573349D01*
X194262459Y-77589228D01*
X194436113Y-77661158D01*
X194657762Y-77720548D01*
X194885266Y-77750500D01*
X194885273Y-77750500D01*
X195114727Y-77750500D01*
X195114734Y-77750500D01*
X195342238Y-77720548D01*
X195563887Y-77661158D01*
X195775888Y-77573344D01*
X195974612Y-77458611D01*
X196156661Y-77318919D01*
X196156665Y-77318914D01*
X196156670Y-77318911D01*
X196318911Y-77156670D01*
X196318914Y-77156665D01*
X196318919Y-77156661D01*
X196458611Y-76974612D01*
X196573344Y-76775888D01*
X196661158Y-76563887D01*
X196720548Y-76342238D01*
X196750500Y-76114734D01*
X196750500Y-75885266D01*
X196720548Y-75657762D01*
X196661158Y-75436113D01*
X196573344Y-75224112D01*
X196458611Y-75025388D01*
X196458608Y-75025385D01*
X196458607Y-75025382D01*
X196318918Y-74843338D01*
X196318911Y-74843330D01*
X196156670Y-74681089D01*
X196156661Y-74681081D01*
X195974617Y-74541392D01*
X195775890Y-74426657D01*
X195775876Y-74426650D01*
X195563887Y-74338842D01*
X195342238Y-74279452D01*
X195304215Y-74274446D01*
X195114741Y-74249500D01*
X195114734Y-74249500D01*
X194885266Y-74249500D01*
X194885258Y-74249500D01*
X194668715Y-74278009D01*
X194657762Y-74279452D01*
X194564076Y-74304554D01*
X194436112Y-74338842D01*
X194224123Y-74426650D01*
X194224109Y-74426657D01*
X194025382Y-74541392D01*
X193843338Y-74681081D01*
X193681081Y-74843338D01*
X193541392Y-75025382D01*
X193426657Y-75224109D01*
X193426650Y-75224123D01*
X193338842Y-75436112D01*
X193279453Y-75657759D01*
X193279451Y-75657770D01*
X193249500Y-75885258D01*
X193249500Y-76114741D01*
X185508758Y-76114741D01*
X189836556Y-71786941D01*
X189897877Y-71753458D01*
X189913417Y-71751097D01*
X190085591Y-71736035D01*
X190299480Y-71678723D01*
X190500167Y-71585142D01*
X190681555Y-71458132D01*
X190838132Y-71301555D01*
X190965142Y-71120167D01*
X191058723Y-70919480D01*
X191116035Y-70705591D01*
X191135334Y-70485000D01*
X191116035Y-70264409D01*
X191058723Y-70050520D01*
X191046574Y-70024467D01*
X191021090Y-69969816D01*
X190965142Y-69849833D01*
X190838132Y-69668445D01*
X190681555Y-69511868D01*
X190500167Y-69384858D01*
X190500163Y-69384856D01*
X190299486Y-69291279D01*
X190299475Y-69291275D01*
X190085592Y-69233965D01*
X190085585Y-69233964D01*
X189865002Y-69214666D01*
X189864998Y-69214666D01*
X189644414Y-69233964D01*
X189644407Y-69233965D01*
X189430524Y-69291275D01*
X189430513Y-69291279D01*
X189229836Y-69384856D01*
X189229834Y-69384857D01*
X189048444Y-69511868D01*
X188891868Y-69668444D01*
X188764857Y-69849834D01*
X188764856Y-69849836D01*
X188707382Y-69973091D01*
X188661210Y-70025531D01*
X188594017Y-70044683D01*
X188527135Y-70024467D01*
X188482618Y-69973091D01*
X188454050Y-69911828D01*
X188425142Y-69849833D01*
X188298132Y-69668445D01*
X188141555Y-69511868D01*
X187960167Y-69384858D01*
X187960163Y-69384856D01*
X187759486Y-69291279D01*
X187759475Y-69291275D01*
X187545592Y-69233965D01*
X187545585Y-69233964D01*
X187325002Y-69214666D01*
X187324998Y-69214666D01*
X187104414Y-69233964D01*
X187104407Y-69233965D01*
X186890524Y-69291275D01*
X186890513Y-69291279D01*
X186689836Y-69384856D01*
X186689834Y-69384857D01*
X186508444Y-69511868D01*
X186351868Y-69668444D01*
X186224857Y-69849834D01*
X186224856Y-69849836D01*
X186167382Y-69973091D01*
X186121210Y-70025531D01*
X186054017Y-70044683D01*
X185987135Y-70024467D01*
X185942618Y-69973091D01*
X185914050Y-69911828D01*
X185885142Y-69849833D01*
X185758132Y-69668445D01*
X185671819Y-69582132D01*
X185638334Y-69520809D01*
X185635500Y-69494451D01*
X185635500Y-68983651D01*
X185655185Y-68916612D01*
X185671819Y-68895970D01*
X188856225Y-65711564D01*
X188856227Y-65711562D01*
X188947573Y-65574852D01*
X188994375Y-65533263D01*
X189127440Y-65465465D01*
X189278632Y-65343032D01*
X189401065Y-65191840D01*
X189489388Y-65018496D01*
X189539741Y-64830578D01*
X189546100Y-64749778D01*
X189546100Y-63520222D01*
X189539741Y-63439422D01*
X189489388Y-63251504D01*
X189401065Y-63078160D01*
X189278632Y-62926968D01*
X189127440Y-62804535D01*
X188954096Y-62716212D01*
X188766178Y-62665859D01*
X188766177Y-62665858D01*
X188766174Y-62665858D01*
X188685383Y-62659500D01*
X188685378Y-62659500D01*
X187705822Y-62659500D01*
X187705816Y-62659500D01*
X187625025Y-62665858D01*
X187437104Y-62716212D01*
X187263761Y-62804534D01*
X187112568Y-62926968D01*
X186990132Y-63078163D01*
X186957408Y-63142388D01*
X186909434Y-63193183D01*
X186841613Y-63209978D01*
X186775478Y-63187440D01*
X186746605Y-63158975D01*
X186725711Y-63130216D01*
X186725705Y-63130209D01*
X186575386Y-62979890D01*
X186403420Y-62854951D01*
X186214014Y-62758444D01*
X186214013Y-62758443D01*
X186214012Y-62758443D01*
X186011843Y-62692754D01*
X186011841Y-62692753D01*
X186011840Y-62692753D01*
X185842036Y-62665859D01*
X185801887Y-62659500D01*
X185589313Y-62659500D01*
X185549164Y-62665859D01*
X185379360Y-62692753D01*
X185177185Y-62758444D01*
X184987779Y-62854951D01*
X184815813Y-62979890D01*
X184665494Y-63130209D01*
X184665490Y-63130214D01*
X184545918Y-63294793D01*
X184490589Y-63337459D01*
X184420975Y-63343438D01*
X184359180Y-63310833D01*
X184345282Y-63294793D01*
X184225709Y-63130214D01*
X184225705Y-63130209D01*
X184075386Y-62979890D01*
X183903420Y-62854951D01*
X183714014Y-62758444D01*
X183714013Y-62758443D01*
X183714012Y-62758443D01*
X183511843Y-62692754D01*
X183511841Y-62692753D01*
X183511840Y-62692753D01*
X183342036Y-62665859D01*
X183301887Y-62659500D01*
X183089313Y-62659500D01*
X183049164Y-62665859D01*
X182879360Y-62692753D01*
X182677185Y-62758444D01*
X182487779Y-62854951D01*
X182315813Y-62979890D01*
X182165494Y-63130209D01*
X182165490Y-63130214D01*
X182045918Y-63294793D01*
X181990589Y-63337459D01*
X181920975Y-63343438D01*
X181859180Y-63310833D01*
X181845282Y-63294793D01*
X181725709Y-63130214D01*
X181725705Y-63130209D01*
X181575386Y-62979890D01*
X181403420Y-62854951D01*
X181214014Y-62758444D01*
X181214013Y-62758443D01*
X181214012Y-62758443D01*
X181011843Y-62692754D01*
X181011841Y-62692753D01*
X181011840Y-62692753D01*
X180842036Y-62665859D01*
X180801887Y-62659500D01*
X180589313Y-62659500D01*
X180549164Y-62665859D01*
X180379360Y-62692753D01*
X180177185Y-62758444D01*
X179987779Y-62854951D01*
X179815813Y-62979890D01*
X179665490Y-63130213D01*
X179540551Y-63302179D01*
X179444044Y-63491585D01*
X179378353Y-63693760D01*
X179345100Y-63903713D01*
X179345100Y-64366286D01*
X179378290Y-64575843D01*
X179378354Y-64576243D01*
X179438519Y-64761412D01*
X179444044Y-64778414D01*
X179511072Y-64909965D01*
X179523968Y-64978635D01*
X179497691Y-65043375D01*
X179488268Y-65053941D01*
X176504375Y-68037834D01*
X176504372Y-68037838D01*
X176411297Y-68177133D01*
X176411296Y-68177136D01*
X176365997Y-68286499D01*
X176365997Y-68286500D01*
X176347184Y-68331917D01*
X176347182Y-68331925D01*
X176314500Y-68496228D01*
X176314500Y-69494451D01*
X176294815Y-69561490D01*
X176278181Y-69582132D01*
X176191871Y-69668441D01*
X176191868Y-69668444D01*
X176064857Y-69849833D01*
X176007106Y-69973683D01*
X175960934Y-70026122D01*
X175893740Y-70045274D01*
X175826859Y-70025058D01*
X175782342Y-69973683D01*
X175724707Y-69850085D01*
X175724706Y-69850083D01*
X175678894Y-69784657D01*
X175678894Y-69784656D01*
X175116127Y-70347423D01*
X175100245Y-70288147D01*
X175033102Y-70171853D01*
X174938147Y-70076898D01*
X174821853Y-70009755D01*
X174762575Y-69993872D01*
X175325342Y-69431105D01*
X175325341Y-69431103D01*
X175259919Y-69385295D01*
X175059309Y-69291749D01*
X175059300Y-69291745D01*
X174845509Y-69234461D01*
X174845499Y-69234459D01*
X174625001Y-69215168D01*
X174624999Y-69215168D01*
X174404500Y-69234459D01*
X174404490Y-69234461D01*
X174190699Y-69291745D01*
X174190690Y-69291749D01*
X173990084Y-69385293D01*
X173924657Y-69431104D01*
X174487424Y-69993871D01*
X174428147Y-70009755D01*
X174311853Y-70076898D01*
X174216898Y-70171853D01*
X174149755Y-70288147D01*
X174133871Y-70347424D01*
X173571104Y-69784657D01*
X173525293Y-69850084D01*
X173467657Y-69973683D01*
X173421484Y-70026122D01*
X173354290Y-70045274D01*
X173287409Y-70025058D01*
X173242893Y-69973682D01*
X173185142Y-69849833D01*
X173058132Y-69668445D01*
X172901555Y-69511868D01*
X172720167Y-69384858D01*
X172720163Y-69384856D01*
X172519486Y-69291279D01*
X172519475Y-69291275D01*
X172305592Y-69233965D01*
X172305585Y-69233964D01*
X172085002Y-69214666D01*
X172084998Y-69214666D01*
X171864414Y-69233964D01*
X171864407Y-69233965D01*
X171650524Y-69291275D01*
X171650513Y-69291279D01*
X171449836Y-69384856D01*
X171449834Y-69384857D01*
X171268444Y-69511868D01*
X171111868Y-69668444D01*
X170984857Y-69849834D01*
X170984856Y-69849836D01*
X170891279Y-70050513D01*
X170891275Y-70050524D01*
X170833965Y-70264407D01*
X170833964Y-70264414D01*
X170814666Y-70484998D01*
X170814666Y-70485001D01*
X170833964Y-70705585D01*
X170833965Y-70705592D01*
X170891275Y-70919475D01*
X170891279Y-70919486D01*
X170954090Y-71054184D01*
X170984858Y-71120167D01*
X171111868Y-71301555D01*
X171268445Y-71458132D01*
X171449833Y-71585142D01*
X171570572Y-71641443D01*
X171650513Y-71678720D01*
X171650515Y-71678720D01*
X171650520Y-71678723D01*
X171864409Y-71736035D01*
X172021974Y-71749820D01*
X172084998Y-71755334D01*
X172085000Y-71755334D01*
X172085002Y-71755334D01*
X172140147Y-71750509D01*
X172305591Y-71736035D01*
X172519480Y-71678723D01*
X172720167Y-71585142D01*
X172901555Y-71458132D01*
X173058132Y-71301555D01*
X173185142Y-71120167D01*
X173242895Y-70996312D01*
X173289064Y-70943878D01*
X173356258Y-70924725D01*
X173423139Y-70944940D01*
X173467657Y-70996316D01*
X173525295Y-71119919D01*
X173571103Y-71185341D01*
X173571105Y-71185342D01*
X174133871Y-70622575D01*
X174149755Y-70681853D01*
X174216898Y-70798147D01*
X174311853Y-70893102D01*
X174428147Y-70960245D01*
X174487424Y-70976128D01*
X173924656Y-71538894D01*
X173990083Y-71584706D01*
X173990085Y-71584707D01*
X174190690Y-71678250D01*
X174190699Y-71678254D01*
X174404490Y-71735538D01*
X174404500Y-71735540D01*
X174624999Y-71754832D01*
X174625001Y-71754832D01*
X174845499Y-71735540D01*
X174845509Y-71735538D01*
X175059300Y-71678254D01*
X175059309Y-71678250D01*
X175259915Y-71584706D01*
X175325342Y-71538894D01*
X174762575Y-70976127D01*
X174821853Y-70960245D01*
X174938147Y-70893102D01*
X175033102Y-70798147D01*
X175100245Y-70681853D01*
X175116128Y-70622575D01*
X175678894Y-71185342D01*
X175724707Y-71119914D01*
X175724708Y-71119912D01*
X175782342Y-70996317D01*
X175828514Y-70943877D01*
X175895707Y-70924725D01*
X175962589Y-70944941D01*
X176007106Y-70996317D01*
X176034090Y-71054184D01*
X176064858Y-71120167D01*
X176191868Y-71301555D01*
X176348445Y-71458132D01*
X176529833Y-71585142D01*
X176650572Y-71641443D01*
X176730513Y-71678720D01*
X176730515Y-71678720D01*
X176730520Y-71678723D01*
X176944409Y-71736035D01*
X177101974Y-71749820D01*
X177164998Y-71755334D01*
X177165000Y-71755334D01*
X177165002Y-71755334D01*
X177220147Y-71750509D01*
X177385591Y-71736035D01*
X177599480Y-71678723D01*
X177800167Y-71585142D01*
X177981555Y-71458132D01*
X178138132Y-71301555D01*
X178265142Y-71120167D01*
X178322618Y-70996907D01*
X178368790Y-70944468D01*
X178435983Y-70925316D01*
X178502864Y-70945531D01*
X178547381Y-70996907D01*
X178604858Y-71120167D01*
X178731868Y-71301555D01*
X178888445Y-71458132D01*
X179069833Y-71585142D01*
X179190572Y-71641443D01*
X179270513Y-71678720D01*
X179270515Y-71678720D01*
X179270520Y-71678723D01*
X179484409Y-71736035D01*
X179641974Y-71749820D01*
X179704998Y-71755334D01*
X179705000Y-71755334D01*
X179705002Y-71755334D01*
X179760147Y-71750509D01*
X179925591Y-71736035D01*
X180139480Y-71678723D01*
X180340167Y-71585142D01*
X180521555Y-71458132D01*
X180678132Y-71301555D01*
X180805142Y-71120167D01*
X180862618Y-70996907D01*
X180908790Y-70944468D01*
X180975983Y-70925316D01*
X181042864Y-70945531D01*
X181087381Y-70996907D01*
X181144858Y-71120167D01*
X181271868Y-71301555D01*
X181428445Y-71458132D01*
X181609833Y-71585142D01*
X181730572Y-71641443D01*
X181810513Y-71678720D01*
X181810515Y-71678720D01*
X181810520Y-71678723D01*
X182024409Y-71736035D01*
X182181974Y-71749820D01*
X182244998Y-71755334D01*
X182245000Y-71755334D01*
X182245002Y-71755334D01*
X182300147Y-71750509D01*
X182465591Y-71736035D01*
X182679480Y-71678723D01*
X182880167Y-71585142D01*
X183061555Y-71458132D01*
X183218132Y-71301555D01*
X183345142Y-71120167D01*
X183402618Y-70996907D01*
X183448790Y-70944468D01*
X183515983Y-70925316D01*
X183582864Y-70945531D01*
X183627381Y-70996907D01*
X183684858Y-71120167D01*
X183811868Y-71301555D01*
X183968445Y-71458132D01*
X184149833Y-71585142D01*
X184270572Y-71641443D01*
X184350513Y-71678720D01*
X184350515Y-71678720D01*
X184350520Y-71678723D01*
X184564409Y-71736035D01*
X184721974Y-71749820D01*
X184784998Y-71755334D01*
X184785000Y-71755334D01*
X184785002Y-71755334D01*
X184840147Y-71750509D01*
X185005591Y-71736035D01*
X185219480Y-71678723D01*
X185420167Y-71585142D01*
X185601555Y-71458132D01*
X185758132Y-71301555D01*
X185885142Y-71120167D01*
X185942618Y-70996907D01*
X185988790Y-70944468D01*
X186055983Y-70925316D01*
X186122864Y-70945531D01*
X186167381Y-70996907D01*
X186224858Y-71120167D01*
X186351868Y-71301555D01*
X186508445Y-71458132D01*
X186689833Y-71585142D01*
X186810572Y-71641443D01*
X186890513Y-71678720D01*
X186890515Y-71678720D01*
X186890520Y-71678723D01*
X187083125Y-71730332D01*
X187142785Y-71766696D01*
X187173314Y-71829543D01*
X187165019Y-71898918D01*
X187138712Y-71937787D01*
X181654319Y-77422181D01*
X181592996Y-77455666D01*
X181566638Y-77458500D01*
X171742303Y-77458500D01*
X171568341Y-77493103D01*
X171568329Y-77493106D01*
X171486392Y-77527045D01*
X171486393Y-77527046D01*
X171404455Y-77560985D01*
X171316040Y-77620063D01*
X171316039Y-77620064D01*
X171256961Y-77659537D01*
X166940537Y-81975961D01*
X166917889Y-82009858D01*
X166841990Y-82123447D01*
X166841985Y-82123455D01*
X166811336Y-82197451D01*
X166774105Y-82287333D01*
X166774103Y-82287341D01*
X166739500Y-82461303D01*
X166739500Y-105576982D01*
X166719815Y-105644021D01*
X166667011Y-105689776D01*
X166658836Y-105693163D01*
X166635665Y-105701805D01*
X166520455Y-105788052D01*
X166520452Y-105788055D01*
X166434206Y-105903264D01*
X166434202Y-105903271D01*
X166383908Y-106038117D01*
X166378583Y-106087651D01*
X166377501Y-106097723D01*
X166377500Y-106097735D01*
X166377500Y-107717470D01*
X149502500Y-107717470D01*
X149502499Y-106097728D01*
X149496091Y-106038117D01*
X149476599Y-105985857D01*
X149445797Y-105903271D01*
X149445793Y-105903264D01*
X149359547Y-105788055D01*
X149359544Y-105788052D01*
X149244335Y-105701806D01*
X149244328Y-105701802D01*
X149109482Y-105651508D01*
X149109483Y-105651508D01*
X149049883Y-105645101D01*
X149049881Y-105645100D01*
X149049873Y-105645100D01*
X149049864Y-105645100D01*
X147430129Y-105645100D01*
X147430123Y-105645101D01*
X147370516Y-105651508D01*
X147235671Y-105701802D01*
X147235664Y-105701806D01*
X147120455Y-105788052D01*
X147120452Y-105788055D01*
X147034206Y-105903264D01*
X147034202Y-105903271D01*
X146983908Y-106038117D01*
X146978583Y-106087651D01*
X146977501Y-106097723D01*
X146977500Y-106097735D01*
X146977500Y-107717470D01*
X146685000Y-107717470D01*
X146685000Y-66317470D01*
X146977500Y-66317470D01*
X146977501Y-66317476D01*
X146983908Y-66377083D01*
X147034202Y-66511928D01*
X147034206Y-66511935D01*
X147120452Y-66627144D01*
X147120455Y-66627147D01*
X147235664Y-66713393D01*
X147235671Y-66713397D01*
X147370517Y-66763691D01*
X147370516Y-66763691D01*
X147377444Y-66764435D01*
X147430127Y-66770100D01*
X149049872Y-66770099D01*
X149109483Y-66763691D01*
X149244331Y-66713396D01*
X149359546Y-66627146D01*
X149445796Y-66511931D01*
X149496091Y-66377083D01*
X149502500Y-66317473D01*
X149502500Y-66317444D01*
X166378000Y-66317444D01*
X166384401Y-66376972D01*
X166384403Y-66376979D01*
X166434645Y-66511686D01*
X166434649Y-66511693D01*
X166520809Y-66626787D01*
X166520812Y-66626790D01*
X166635906Y-66712950D01*
X166635913Y-66712954D01*
X166770620Y-66763196D01*
X166770627Y-66763198D01*
X166830155Y-66769599D01*
X166830172Y-66769600D01*
X167390000Y-66769600D01*
X167390000Y-65796416D01*
X167406060Y-65812476D01*
X167492939Y-65862636D01*
X167589840Y-65888600D01*
X167690160Y-65888600D01*
X167787061Y-65862636D01*
X167873940Y-65812476D01*
X167890000Y-65796416D01*
X167890000Y-66769600D01*
X168449828Y-66769600D01*
X168449844Y-66769599D01*
X168509372Y-66763198D01*
X168509379Y-66763196D01*
X168644086Y-66712954D01*
X168644093Y-66712950D01*
X168759187Y-66626790D01*
X168759190Y-66626787D01*
X168845350Y-66511693D01*
X168845354Y-66511686D01*
X168895596Y-66376979D01*
X168895598Y-66376972D01*
X168901999Y-66317444D01*
X168902000Y-66317427D01*
X168902000Y-65757600D01*
X167928816Y-65757600D01*
X167944876Y-65741540D01*
X167995036Y-65654661D01*
X168021000Y-65557760D01*
X168021000Y-65457440D01*
X167995036Y-65360539D01*
X167944876Y-65273660D01*
X167928816Y-65257600D01*
X168902000Y-65257600D01*
X168902000Y-64697772D01*
X168901999Y-64697755D01*
X168895598Y-64638227D01*
X168895596Y-64638220D01*
X168845354Y-64503513D01*
X168845350Y-64503506D01*
X168759190Y-64388412D01*
X168759187Y-64388409D01*
X168644093Y-64302249D01*
X168644086Y-64302245D01*
X168509379Y-64252003D01*
X168509372Y-64252001D01*
X168449844Y-64245600D01*
X167890000Y-64245600D01*
X167890000Y-65218784D01*
X167873940Y-65202724D01*
X167787061Y-65152564D01*
X167690160Y-65126600D01*
X167589840Y-65126600D01*
X167492939Y-65152564D01*
X167406060Y-65202724D01*
X167390000Y-65218784D01*
X167390000Y-64245600D01*
X166830155Y-64245600D01*
X166770627Y-64252001D01*
X166770620Y-64252003D01*
X166635913Y-64302245D01*
X166635906Y-64302249D01*
X166520812Y-64388409D01*
X166520809Y-64388412D01*
X166434649Y-64503506D01*
X166434645Y-64503513D01*
X166384403Y-64638220D01*
X166384401Y-64638227D01*
X166378000Y-64697755D01*
X166378000Y-65257600D01*
X167351184Y-65257600D01*
X167335124Y-65273660D01*
X167284964Y-65360539D01*
X167259000Y-65457440D01*
X167259000Y-65557760D01*
X167284964Y-65654661D01*
X167335124Y-65741540D01*
X167351184Y-65757600D01*
X166378000Y-65757600D01*
X166378000Y-66317444D01*
X149502500Y-66317444D01*
X149502499Y-64697728D01*
X149496091Y-64638117D01*
X149479263Y-64593000D01*
X149445797Y-64503271D01*
X149445793Y-64503264D01*
X149359547Y-64388055D01*
X149359544Y-64388052D01*
X149244335Y-64301806D01*
X149244328Y-64301802D01*
X149109482Y-64251508D01*
X149109483Y-64251508D01*
X149049883Y-64245101D01*
X149049881Y-64245100D01*
X149049873Y-64245100D01*
X149049864Y-64245100D01*
X147430129Y-64245100D01*
X147430123Y-64245101D01*
X147370516Y-64251508D01*
X147235671Y-64301802D01*
X147235664Y-64301806D01*
X147120455Y-64388052D01*
X147120452Y-64388055D01*
X147034206Y-64503264D01*
X147034202Y-64503271D01*
X146983908Y-64638117D01*
X146977501Y-64697716D01*
X146977501Y-64697723D01*
X146977500Y-64697735D01*
X146977500Y-66317470D01*
X146685000Y-66317470D01*
X146685000Y-63859600D01*
X170546400Y-63859600D01*
X171463388Y-63859600D01*
X171430475Y-63916607D01*
X171396400Y-64043774D01*
X171396400Y-64175426D01*
X171430475Y-64302593D01*
X171463388Y-64359600D01*
X170546401Y-64359600D01*
X170546401Y-64909586D01*
X170556894Y-65012297D01*
X170612041Y-65178719D01*
X170612043Y-65178724D01*
X170704084Y-65327945D01*
X170828054Y-65451915D01*
X170977275Y-65543956D01*
X170977280Y-65543958D01*
X171143702Y-65599105D01*
X171143709Y-65599106D01*
X171246419Y-65609599D01*
X171646399Y-65609599D01*
X171646400Y-65609598D01*
X171646400Y-64542612D01*
X171703407Y-64575525D01*
X171830574Y-64609600D01*
X171962226Y-64609600D01*
X172089393Y-64575525D01*
X172146400Y-64542612D01*
X172146400Y-65609599D01*
X172546372Y-65609599D01*
X172546386Y-65609598D01*
X172649097Y-65599105D01*
X172815519Y-65543958D01*
X172815524Y-65543956D01*
X172964745Y-65451915D01*
X173088717Y-65327943D01*
X173184215Y-65173116D01*
X173236163Y-65126391D01*
X173305125Y-65115168D01*
X173369208Y-65143012D01*
X173377435Y-65150531D01*
X173516613Y-65289709D01*
X173688579Y-65414648D01*
X173688581Y-65414649D01*
X173688584Y-65414651D01*
X173877988Y-65511157D01*
X174080157Y-65576846D01*
X174290113Y-65610100D01*
X174290114Y-65610100D01*
X174502686Y-65610100D01*
X174502687Y-65610100D01*
X174712643Y-65576846D01*
X174914812Y-65511157D01*
X175104216Y-65414651D01*
X175163507Y-65371574D01*
X175276186Y-65289709D01*
X175276188Y-65289706D01*
X175276192Y-65289704D01*
X175426504Y-65139392D01*
X175426506Y-65139388D01*
X175426509Y-65139386D01*
X175551448Y-64967420D01*
X175551447Y-64967420D01*
X175551451Y-64967416D01*
X175647957Y-64778012D01*
X175713646Y-64575843D01*
X175746900Y-64365887D01*
X175746900Y-63853313D01*
X175713646Y-63643357D01*
X175647957Y-63441188D01*
X175551451Y-63251784D01*
X175551449Y-63251781D01*
X175551448Y-63251779D01*
X175426509Y-63079813D01*
X175276186Y-62929490D01*
X175104220Y-62804551D01*
X174914814Y-62708044D01*
X174914813Y-62708043D01*
X174914812Y-62708043D01*
X174712643Y-62642354D01*
X174712641Y-62642353D01*
X174712640Y-62642353D01*
X174551357Y-62616808D01*
X174502687Y-62609100D01*
X174290113Y-62609100D01*
X174241442Y-62616808D01*
X174080160Y-62642353D01*
X174080157Y-62642354D01*
X173925043Y-62692754D01*
X173877985Y-62708044D01*
X173688579Y-62804551D01*
X173516615Y-62929489D01*
X173377435Y-63068669D01*
X173316112Y-63102153D01*
X173246420Y-63097169D01*
X173190487Y-63055297D01*
X173184215Y-63046084D01*
X173088715Y-62891254D01*
X172964745Y-62767284D01*
X172815524Y-62675243D01*
X172815519Y-62675241D01*
X172649097Y-62620094D01*
X172649090Y-62620093D01*
X172546386Y-62609600D01*
X172146400Y-62609600D01*
X172146400Y-63676588D01*
X172089393Y-63643675D01*
X171962226Y-63609600D01*
X171830574Y-63609600D01*
X171703407Y-63643675D01*
X171646400Y-63676588D01*
X171646400Y-62609600D01*
X171246428Y-62609600D01*
X171246412Y-62609601D01*
X171143702Y-62620094D01*
X170977280Y-62675241D01*
X170977275Y-62675243D01*
X170828054Y-62767284D01*
X170704084Y-62891254D01*
X170612043Y-63040475D01*
X170612041Y-63040480D01*
X170556894Y-63206902D01*
X170556893Y-63206909D01*
X170546400Y-63309613D01*
X170546400Y-63859600D01*
X146685000Y-63859600D01*
X146685000Y-61084000D01*
X146704685Y-61016961D01*
X146757489Y-60971206D01*
X146809000Y-60960000D01*
X246510000Y-60960000D01*
X246577039Y-60979685D01*
G37*
%TD.AperFunction*%
%TD*%
M02*
