%TF.GenerationSoftware,KiCad,Pcbnew,8.0.0*%
%TF.CreationDate,2024-03-29T21:56:35+01:00*%
%TF.ProjectId,carte_generale,63617274-655f-4676-956e-6572616c652e,Cyril_ Eliott*%
%TF.SameCoordinates,Original*%
%TF.FileFunction,Soldermask,Top*%
%TF.FilePolarity,Negative*%
%FSLAX46Y46*%
G04 Gerber Fmt 4.6, Leading zero omitted, Abs format (unit mm)*
G04 Created by KiCad (PCBNEW 8.0.0) date 2024-03-29 21:56:35*
%MOMM*%
%LPD*%
G01*
G04 APERTURE LIST*
G04 Aperture macros list*
%AMRoundRect*
0 Rectangle with rounded corners*
0 $1 Rounding radius*
0 $2 $3 $4 $5 $6 $7 $8 $9 X,Y pos of 4 corners*
0 Add a 4 corners polygon primitive as box body*
4,1,4,$2,$3,$4,$5,$6,$7,$8,$9,$2,$3,0*
0 Add four circle primitives for the rounded corners*
1,1,$1+$1,$2,$3*
1,1,$1+$1,$4,$5*
1,1,$1+$1,$6,$7*
1,1,$1+$1,$8,$9*
0 Add four rect primitives between the rounded corners*
20,1,$1+$1,$2,$3,$4,$5,0*
20,1,$1+$1,$4,$5,$6,$7,0*
20,1,$1+$1,$6,$7,$8,$9,0*
20,1,$1+$1,$8,$9,$2,$3,0*%
G04 Aperture macros list end*
%ADD10R,1.524000X1.524000*%
%ADD11RoundRect,0.102000X-0.765000X0.765000X-0.765000X-0.765000X0.765000X-0.765000X0.765000X0.765000X0*%
%ADD12C,1.734000*%
%ADD13O,2.000000X1.700000*%
%ADD14RoundRect,0.250000X-0.750000X0.600000X-0.750000X-0.600000X0.750000X-0.600000X0.750000X0.600000X0*%
%ADD15RoundRect,0.100000X-0.130000X-0.100000X0.130000X-0.100000X0.130000X0.100000X-0.130000X0.100000X0*%
%ADD16RoundRect,0.100000X0.130000X0.100000X-0.130000X0.100000X-0.130000X-0.100000X0.130000X-0.100000X0*%
%ADD17RoundRect,0.250000X-0.600000X-0.750000X0.600000X-0.750000X0.600000X0.750000X-0.600000X0.750000X0*%
%ADD18O,1.700000X2.000000*%
%ADD19RoundRect,0.102000X0.765000X-0.765000X0.765000X0.765000X-0.765000X0.765000X-0.765000X-0.765000X0*%
%ADD20RoundRect,0.250000X-0.725000X0.600000X-0.725000X-0.600000X0.725000X-0.600000X0.725000X0.600000X0*%
%ADD21O,1.950000X1.700000*%
%ADD22RoundRect,0.250000X-0.600000X-0.725000X0.600000X-0.725000X0.600000X0.725000X-0.600000X0.725000X0*%
%ADD23O,1.700000X1.950000*%
%ADD24C,3.000000*%
%ADD25R,1.800000X1.800000*%
%ADD26C,1.800000*%
%ADD27RoundRect,0.425000X-0.425000X-0.550000X0.425000X-0.550000X0.425000X0.550000X-0.425000X0.550000X0*%
%ADD28RoundRect,0.425000X0.425000X0.550000X-0.425000X0.550000X-0.425000X-0.550000X0.425000X-0.550000X0*%
%ADD29R,0.650000X0.400000*%
G04 APERTURE END LIST*
D10*
%TO.C,U5*%
X202692000Y-108839000D03*
X205232000Y-108839000D03*
X207772000Y-108839000D03*
X210312000Y-108839000D03*
X210312000Y-101219000D03*
X207772000Y-101219000D03*
X205232000Y-101219000D03*
X202692000Y-101219000D03*
%TD*%
D11*
%TO.C,U4*%
X234655000Y-81280000D03*
D12*
X232115000Y-81280000D03*
X229575000Y-81280000D03*
X227035000Y-81280000D03*
X224495000Y-81280000D03*
X221955000Y-81280000D03*
X219415000Y-81280000D03*
X216875000Y-81280000D03*
X214335000Y-81280000D03*
X211795000Y-81280000D03*
X209255000Y-81280000D03*
X206715000Y-81280000D03*
X204175000Y-81280000D03*
X201635000Y-81280000D03*
X199095000Y-81280000D03*
X199095000Y-96520000D03*
X201635000Y-96520000D03*
X204175000Y-96520000D03*
X206715000Y-96520000D03*
X209255000Y-96520000D03*
X211795000Y-96520000D03*
X214335000Y-96520000D03*
X216875000Y-96520000D03*
X219415000Y-96520000D03*
X221955000Y-96520000D03*
X224495000Y-96520000D03*
X227035000Y-96520000D03*
X229575000Y-96520000D03*
X232115000Y-96520000D03*
D11*
X234655000Y-96520000D03*
%TD*%
D13*
%TO.C,J8*%
X243500000Y-106000000D03*
D14*
X243500000Y-103500000D03*
%TD*%
D15*
%TO.C,R3*%
X240820000Y-99000000D03*
X240180000Y-99000000D03*
%TD*%
D16*
%TO.C,R2*%
X197714000Y-101346000D03*
X197074000Y-101346000D03*
%TD*%
D10*
%TO.C,U1*%
X167640000Y-65507600D03*
X148240000Y-65507600D03*
X167640000Y-106907600D03*
X148240000Y-106907600D03*
%TD*%
D17*
%TO.C,J1*%
X171896400Y-64109600D03*
D18*
X174396400Y-64109600D03*
%TD*%
D19*
%TO.C,U3*%
X172085000Y-83185000D03*
D12*
X174625000Y-83185000D03*
X177165000Y-83185000D03*
X179705000Y-83185000D03*
X182245000Y-83185000D03*
X184785000Y-83185000D03*
X187325000Y-83185000D03*
X189865000Y-83185000D03*
X189865000Y-70485000D03*
X187325000Y-70485000D03*
X184785000Y-70485000D03*
X182245000Y-70485000D03*
X179705000Y-70485000D03*
X177165000Y-70485000D03*
X174625000Y-70485000D03*
X172085000Y-70485000D03*
%TD*%
D20*
%TO.C,J7*%
X243459000Y-64262000D03*
D21*
X243459000Y-66762000D03*
X243459000Y-69262000D03*
X243459000Y-71762000D03*
%TD*%
D22*
%TO.C,J2*%
X210947000Y-64135000D03*
D23*
X213447000Y-64135000D03*
X215947000Y-64135000D03*
X218447000Y-64135000D03*
X220947000Y-64135000D03*
%TD*%
D15*
%TO.C,R1*%
X224155000Y-109220000D03*
X223515000Y-109220000D03*
%TD*%
D24*
%TO.C,H1*%
X195000000Y-76000000D03*
%TD*%
%TO.C,H2*%
X195000000Y-106000000D03*
%TD*%
D25*
%TO.C,D2*%
X233045000Y-106045000D03*
D26*
X233045000Y-103505000D03*
%TD*%
D11*
%TO.C,U2*%
X189865000Y-87630000D03*
D12*
X187325000Y-87630000D03*
X184785000Y-87630000D03*
X182245000Y-87630000D03*
X179705000Y-87630000D03*
X177165000Y-87630000D03*
X174625000Y-87630000D03*
X172085000Y-87630000D03*
X172085000Y-100330000D03*
X174625000Y-100330000D03*
X177165000Y-100330000D03*
X179705000Y-100330000D03*
X182245000Y-100330000D03*
X184785000Y-100330000D03*
X187325000Y-100330000D03*
X189865000Y-100330000D03*
%TD*%
D25*
%TO.C,D1*%
X224790000Y-106045000D03*
D26*
X224790000Y-103505000D03*
%TD*%
D27*
%TO.C,J6*%
X188195600Y-64135000D03*
D23*
X185695600Y-64135000D03*
X183195600Y-64135000D03*
X180695600Y-64135000D03*
%TD*%
D22*
%TO.C,J4*%
X194771000Y-64135000D03*
D23*
X197271000Y-64135000D03*
X199771000Y-64135000D03*
X202271000Y-64135000D03*
X204771000Y-64135000D03*
%TD*%
D28*
%TO.C,J5*%
X177225000Y-107696000D03*
D23*
X179725000Y-107696000D03*
X182225000Y-107696000D03*
X184725000Y-107696000D03*
%TD*%
D22*
%TO.C,J3*%
X227136000Y-64118000D03*
D23*
X229636000Y-64118000D03*
X232136000Y-64118000D03*
X234636000Y-64118000D03*
%TD*%
D29*
%TO.C,U7*%
X218445000Y-108585000D03*
X218445000Y-109235000D03*
X218445000Y-109885000D03*
X220345000Y-109885000D03*
X220345000Y-109235000D03*
X220345000Y-108585000D03*
%TD*%
M02*
