%TF.GenerationSoftware,KiCad,Pcbnew,8.0.0*%
%TF.CreationDate,2024-03-29T22:46:43+01:00*%
%TF.ProjectId,carte_generale,63617274-655f-4676-956e-6572616c652e,Cyril_ Eliott*%
%TF.SameCoordinates,Original*%
%TF.FileFunction,Legend,Bot*%
%TF.FilePolarity,Positive*%
%FSLAX46Y46*%
G04 Gerber Fmt 4.6, Leading zero omitted, Abs format (unit mm)*
G04 Created by KiCad (PCBNEW 8.0.0) date 2024-03-29 22:46:43*
%MOMM*%
%LPD*%
G01*
G04 APERTURE LIST*
%ADD10C,0.150000*%
%ADD11C,0.300000*%
%ADD12C,0.125000*%
%ADD13C,0.000000*%
G04 APERTURE END LIST*
D10*
X244869819Y-76336779D02*
X243869819Y-76336779D01*
X243869819Y-76336779D02*
X243869819Y-76717731D01*
X243869819Y-76717731D02*
X243917438Y-76812969D01*
X243917438Y-76812969D02*
X243965057Y-76860588D01*
X243965057Y-76860588D02*
X244060295Y-76908207D01*
X244060295Y-76908207D02*
X244203152Y-76908207D01*
X244203152Y-76908207D02*
X244298390Y-76860588D01*
X244298390Y-76860588D02*
X244346009Y-76812969D01*
X244346009Y-76812969D02*
X244393628Y-76717731D01*
X244393628Y-76717731D02*
X244393628Y-76336779D01*
X244774580Y-77908207D02*
X244822200Y-77860588D01*
X244822200Y-77860588D02*
X244869819Y-77717731D01*
X244869819Y-77717731D02*
X244869819Y-77622493D01*
X244869819Y-77622493D02*
X244822200Y-77479636D01*
X244822200Y-77479636D02*
X244726961Y-77384398D01*
X244726961Y-77384398D02*
X244631723Y-77336779D01*
X244631723Y-77336779D02*
X244441247Y-77289160D01*
X244441247Y-77289160D02*
X244298390Y-77289160D01*
X244298390Y-77289160D02*
X244107914Y-77336779D01*
X244107914Y-77336779D02*
X244012676Y-77384398D01*
X244012676Y-77384398D02*
X243917438Y-77479636D01*
X243917438Y-77479636D02*
X243869819Y-77622493D01*
X243869819Y-77622493D02*
X243869819Y-77717731D01*
X243869819Y-77717731D02*
X243917438Y-77860588D01*
X243917438Y-77860588D02*
X243965057Y-77908207D01*
X244346009Y-78670112D02*
X244393628Y-78812969D01*
X244393628Y-78812969D02*
X244441247Y-78860588D01*
X244441247Y-78860588D02*
X244536485Y-78908207D01*
X244536485Y-78908207D02*
X244679342Y-78908207D01*
X244679342Y-78908207D02*
X244774580Y-78860588D01*
X244774580Y-78860588D02*
X244822200Y-78812969D01*
X244822200Y-78812969D02*
X244869819Y-78717731D01*
X244869819Y-78717731D02*
X244869819Y-78336779D01*
X244869819Y-78336779D02*
X243869819Y-78336779D01*
X243869819Y-78336779D02*
X243869819Y-78670112D01*
X243869819Y-78670112D02*
X243917438Y-78765350D01*
X243917438Y-78765350D02*
X243965057Y-78812969D01*
X243965057Y-78812969D02*
X244060295Y-78860588D01*
X244060295Y-78860588D02*
X244155533Y-78860588D01*
X244155533Y-78860588D02*
X244250771Y-78812969D01*
X244250771Y-78812969D02*
X244298390Y-78765350D01*
X244298390Y-78765350D02*
X244346009Y-78670112D01*
X244346009Y-78670112D02*
X244346009Y-78336779D01*
X244869819Y-80098684D02*
X243869819Y-80098684D01*
X243869819Y-80098684D02*
X243869819Y-80479636D01*
X243869819Y-80479636D02*
X243917438Y-80574874D01*
X243917438Y-80574874D02*
X243965057Y-80622493D01*
X243965057Y-80622493D02*
X244060295Y-80670112D01*
X244060295Y-80670112D02*
X244203152Y-80670112D01*
X244203152Y-80670112D02*
X244298390Y-80622493D01*
X244298390Y-80622493D02*
X244346009Y-80574874D01*
X244346009Y-80574874D02*
X244393628Y-80479636D01*
X244393628Y-80479636D02*
X244393628Y-80098684D01*
X244584104Y-81051065D02*
X244584104Y-81527255D01*
X244869819Y-80955827D02*
X243869819Y-81289160D01*
X243869819Y-81289160D02*
X244869819Y-81622493D01*
X244869819Y-81955827D02*
X243869819Y-81955827D01*
X243869819Y-81955827D02*
X244584104Y-82289160D01*
X244584104Y-82289160D02*
X243869819Y-82622493D01*
X243869819Y-82622493D02*
X244869819Y-82622493D01*
X244869819Y-83098684D02*
X243869819Y-83098684D01*
X244822200Y-83527255D02*
X244869819Y-83670112D01*
X244869819Y-83670112D02*
X244869819Y-83908207D01*
X244869819Y-83908207D02*
X244822200Y-84003445D01*
X244822200Y-84003445D02*
X244774580Y-84051064D01*
X244774580Y-84051064D02*
X244679342Y-84098683D01*
X244679342Y-84098683D02*
X244584104Y-84098683D01*
X244584104Y-84098683D02*
X244488866Y-84051064D01*
X244488866Y-84051064D02*
X244441247Y-84003445D01*
X244441247Y-84003445D02*
X244393628Y-83908207D01*
X244393628Y-83908207D02*
X244346009Y-83717731D01*
X244346009Y-83717731D02*
X244298390Y-83622493D01*
X244298390Y-83622493D02*
X244250771Y-83574874D01*
X244250771Y-83574874D02*
X244155533Y-83527255D01*
X244155533Y-83527255D02*
X244060295Y-83527255D01*
X244060295Y-83527255D02*
X243965057Y-83574874D01*
X243965057Y-83574874D02*
X243917438Y-83622493D01*
X243917438Y-83622493D02*
X243869819Y-83717731D01*
X243869819Y-83717731D02*
X243869819Y-83955826D01*
X243869819Y-83955826D02*
X243917438Y-84098683D01*
X243869819Y-85146303D02*
X244869819Y-85479636D01*
X244869819Y-85479636D02*
X243869819Y-85812969D01*
X244869819Y-86670112D02*
X244869819Y-86098684D01*
X244869819Y-86384398D02*
X243869819Y-86384398D01*
X243869819Y-86384398D02*
X244012676Y-86289160D01*
X244012676Y-86289160D02*
X244107914Y-86193922D01*
X244107914Y-86193922D02*
X244155533Y-86098684D01*
X245203152Y-88098684D02*
X243774580Y-88098684D01*
X244584104Y-89527256D02*
X244584104Y-90003446D01*
X244869819Y-89432018D02*
X243869819Y-89765351D01*
X243869819Y-89765351D02*
X244869819Y-90098684D01*
X244869819Y-91003446D02*
X244393628Y-90670113D01*
X244869819Y-90432018D02*
X243869819Y-90432018D01*
X243869819Y-90432018D02*
X243869819Y-90812970D01*
X243869819Y-90812970D02*
X243917438Y-90908208D01*
X243917438Y-90908208D02*
X243965057Y-90955827D01*
X243965057Y-90955827D02*
X244060295Y-91003446D01*
X244060295Y-91003446D02*
X244203152Y-91003446D01*
X244203152Y-91003446D02*
X244298390Y-90955827D01*
X244298390Y-90955827D02*
X244346009Y-90908208D01*
X244346009Y-90908208D02*
X244393628Y-90812970D01*
X244393628Y-90812970D02*
X244393628Y-90432018D01*
X244346009Y-91432018D02*
X244346009Y-91765351D01*
X244869819Y-91908208D02*
X244869819Y-91432018D01*
X244869819Y-91432018D02*
X243869819Y-91432018D01*
X243869819Y-91432018D02*
X243869819Y-91908208D01*
X244869819Y-92336780D02*
X243869819Y-92336780D01*
X243869819Y-92336780D02*
X244584104Y-92670113D01*
X244584104Y-92670113D02*
X243869819Y-93003446D01*
X243869819Y-93003446D02*
X244869819Y-93003446D01*
X243965057Y-94193923D02*
X243917438Y-94241542D01*
X243917438Y-94241542D02*
X243869819Y-94336780D01*
X243869819Y-94336780D02*
X243869819Y-94574875D01*
X243869819Y-94574875D02*
X243917438Y-94670113D01*
X243917438Y-94670113D02*
X243965057Y-94717732D01*
X243965057Y-94717732D02*
X244060295Y-94765351D01*
X244060295Y-94765351D02*
X244155533Y-94765351D01*
X244155533Y-94765351D02*
X244298390Y-94717732D01*
X244298390Y-94717732D02*
X244869819Y-94146304D01*
X244869819Y-94146304D02*
X244869819Y-94765351D01*
X243869819Y-95384399D02*
X243869819Y-95479637D01*
X243869819Y-95479637D02*
X243917438Y-95574875D01*
X243917438Y-95574875D02*
X243965057Y-95622494D01*
X243965057Y-95622494D02*
X244060295Y-95670113D01*
X244060295Y-95670113D02*
X244250771Y-95717732D01*
X244250771Y-95717732D02*
X244488866Y-95717732D01*
X244488866Y-95717732D02*
X244679342Y-95670113D01*
X244679342Y-95670113D02*
X244774580Y-95622494D01*
X244774580Y-95622494D02*
X244822200Y-95574875D01*
X244822200Y-95574875D02*
X244869819Y-95479637D01*
X244869819Y-95479637D02*
X244869819Y-95384399D01*
X244869819Y-95384399D02*
X244822200Y-95289161D01*
X244822200Y-95289161D02*
X244774580Y-95241542D01*
X244774580Y-95241542D02*
X244679342Y-95193923D01*
X244679342Y-95193923D02*
X244488866Y-95146304D01*
X244488866Y-95146304D02*
X244250771Y-95146304D01*
X244250771Y-95146304D02*
X244060295Y-95193923D01*
X244060295Y-95193923D02*
X243965057Y-95241542D01*
X243965057Y-95241542D02*
X243917438Y-95289161D01*
X243917438Y-95289161D02*
X243869819Y-95384399D01*
X243965057Y-96098685D02*
X243917438Y-96146304D01*
X243917438Y-96146304D02*
X243869819Y-96241542D01*
X243869819Y-96241542D02*
X243869819Y-96479637D01*
X243869819Y-96479637D02*
X243917438Y-96574875D01*
X243917438Y-96574875D02*
X243965057Y-96622494D01*
X243965057Y-96622494D02*
X244060295Y-96670113D01*
X244060295Y-96670113D02*
X244155533Y-96670113D01*
X244155533Y-96670113D02*
X244298390Y-96622494D01*
X244298390Y-96622494D02*
X244869819Y-96051066D01*
X244869819Y-96051066D02*
X244869819Y-96670113D01*
X244203152Y-97527256D02*
X244869819Y-97527256D01*
X243822200Y-97289161D02*
X244536485Y-97051066D01*
X244536485Y-97051066D02*
X244536485Y-97670113D01*
D11*
X148170028Y-78725346D02*
X148098600Y-78796774D01*
X148098600Y-78796774D02*
X148027171Y-79011060D01*
X148027171Y-79011060D02*
X148027171Y-79153917D01*
X148027171Y-79153917D02*
X148098600Y-79368203D01*
X148098600Y-79368203D02*
X148241457Y-79511060D01*
X148241457Y-79511060D02*
X148384314Y-79582489D01*
X148384314Y-79582489D02*
X148670028Y-79653917D01*
X148670028Y-79653917D02*
X148884314Y-79653917D01*
X148884314Y-79653917D02*
X149170028Y-79582489D01*
X149170028Y-79582489D02*
X149312885Y-79511060D01*
X149312885Y-79511060D02*
X149455742Y-79368203D01*
X149455742Y-79368203D02*
X149527171Y-79153917D01*
X149527171Y-79153917D02*
X149527171Y-79011060D01*
X149527171Y-79011060D02*
X149455742Y-78796774D01*
X149455742Y-78796774D02*
X149384314Y-78725346D01*
X148027171Y-78082489D02*
X149527171Y-78082489D01*
X149527171Y-78082489D02*
X149527171Y-77725346D01*
X149527171Y-77725346D02*
X149455742Y-77511060D01*
X149455742Y-77511060D02*
X149312885Y-77368203D01*
X149312885Y-77368203D02*
X149170028Y-77296774D01*
X149170028Y-77296774D02*
X148884314Y-77225346D01*
X148884314Y-77225346D02*
X148670028Y-77225346D01*
X148670028Y-77225346D02*
X148384314Y-77296774D01*
X148384314Y-77296774D02*
X148241457Y-77368203D01*
X148241457Y-77368203D02*
X148098600Y-77511060D01*
X148098600Y-77511060D02*
X148027171Y-77725346D01*
X148027171Y-77725346D02*
X148027171Y-78082489D01*
X148027171Y-75725346D02*
X148741457Y-76225346D01*
X148027171Y-76582489D02*
X149527171Y-76582489D01*
X149527171Y-76582489D02*
X149527171Y-76011060D01*
X149527171Y-76011060D02*
X149455742Y-75868203D01*
X149455742Y-75868203D02*
X149384314Y-75796774D01*
X149384314Y-75796774D02*
X149241457Y-75725346D01*
X149241457Y-75725346D02*
X149027171Y-75725346D01*
X149027171Y-75725346D02*
X148884314Y-75796774D01*
X148884314Y-75796774D02*
X148812885Y-75868203D01*
X148812885Y-75868203D02*
X148741457Y-76011060D01*
X148741457Y-76011060D02*
X148741457Y-76582489D01*
X149384314Y-75153917D02*
X149455742Y-75082489D01*
X149455742Y-75082489D02*
X149527171Y-74939632D01*
X149527171Y-74939632D02*
X149527171Y-74582489D01*
X149527171Y-74582489D02*
X149455742Y-74439632D01*
X149455742Y-74439632D02*
X149384314Y-74368203D01*
X149384314Y-74368203D02*
X149241457Y-74296774D01*
X149241457Y-74296774D02*
X149098600Y-74296774D01*
X149098600Y-74296774D02*
X148884314Y-74368203D01*
X148884314Y-74368203D02*
X148027171Y-75225346D01*
X148027171Y-75225346D02*
X148027171Y-74296774D01*
X149527171Y-73368203D02*
X149527171Y-73225346D01*
X149527171Y-73225346D02*
X149455742Y-73082489D01*
X149455742Y-73082489D02*
X149384314Y-73011061D01*
X149384314Y-73011061D02*
X149241457Y-72939632D01*
X149241457Y-72939632D02*
X148955742Y-72868203D01*
X148955742Y-72868203D02*
X148598600Y-72868203D01*
X148598600Y-72868203D02*
X148312885Y-72939632D01*
X148312885Y-72939632D02*
X148170028Y-73011061D01*
X148170028Y-73011061D02*
X148098600Y-73082489D01*
X148098600Y-73082489D02*
X148027171Y-73225346D01*
X148027171Y-73225346D02*
X148027171Y-73368203D01*
X148027171Y-73368203D02*
X148098600Y-73511061D01*
X148098600Y-73511061D02*
X148170028Y-73582489D01*
X148170028Y-73582489D02*
X148312885Y-73653918D01*
X148312885Y-73653918D02*
X148598600Y-73725346D01*
X148598600Y-73725346D02*
X148955742Y-73725346D01*
X148955742Y-73725346D02*
X149241457Y-73653918D01*
X149241457Y-73653918D02*
X149384314Y-73582489D01*
X149384314Y-73582489D02*
X149455742Y-73511061D01*
X149455742Y-73511061D02*
X149527171Y-73368203D01*
X149384314Y-72296775D02*
X149455742Y-72225347D01*
X149455742Y-72225347D02*
X149527171Y-72082490D01*
X149527171Y-72082490D02*
X149527171Y-71725347D01*
X149527171Y-71725347D02*
X149455742Y-71582490D01*
X149455742Y-71582490D02*
X149384314Y-71511061D01*
X149384314Y-71511061D02*
X149241457Y-71439632D01*
X149241457Y-71439632D02*
X149098600Y-71439632D01*
X149098600Y-71439632D02*
X148884314Y-71511061D01*
X148884314Y-71511061D02*
X148027171Y-72368204D01*
X148027171Y-72368204D02*
X148027171Y-71439632D01*
X149027171Y-70153919D02*
X148027171Y-70153919D01*
X149598600Y-70511061D02*
X148527171Y-70868204D01*
X148527171Y-70868204D02*
X148527171Y-69939633D01*
D12*
X241344811Y-71592119D02*
X241392430Y-71568309D01*
X241392430Y-71568309D02*
X241463859Y-71568309D01*
X241463859Y-71568309D02*
X241535287Y-71592119D01*
X241535287Y-71592119D02*
X241582906Y-71639738D01*
X241582906Y-71639738D02*
X241606716Y-71687357D01*
X241606716Y-71687357D02*
X241630525Y-71782595D01*
X241630525Y-71782595D02*
X241630525Y-71854023D01*
X241630525Y-71854023D02*
X241606716Y-71949261D01*
X241606716Y-71949261D02*
X241582906Y-71996880D01*
X241582906Y-71996880D02*
X241535287Y-72044500D01*
X241535287Y-72044500D02*
X241463859Y-72068309D01*
X241463859Y-72068309D02*
X241416240Y-72068309D01*
X241416240Y-72068309D02*
X241344811Y-72044500D01*
X241344811Y-72044500D02*
X241321002Y-72020690D01*
X241321002Y-72020690D02*
X241321002Y-71854023D01*
X241321002Y-71854023D02*
X241416240Y-71854023D01*
X241106716Y-72068309D02*
X241106716Y-71568309D01*
X241106716Y-71568309D02*
X240821002Y-72068309D01*
X240821002Y-72068309D02*
X240821002Y-71568309D01*
X240582906Y-72068309D02*
X240582906Y-71568309D01*
X240582906Y-71568309D02*
X240463858Y-71568309D01*
X240463858Y-71568309D02*
X240392430Y-71592119D01*
X240392430Y-71592119D02*
X240344811Y-71639738D01*
X240344811Y-71639738D02*
X240321001Y-71687357D01*
X240321001Y-71687357D02*
X240297192Y-71782595D01*
X240297192Y-71782595D02*
X240297192Y-71854023D01*
X240297192Y-71854023D02*
X240321001Y-71949261D01*
X240321001Y-71949261D02*
X240344811Y-71996880D01*
X240344811Y-71996880D02*
X240392430Y-72044500D01*
X240392430Y-72044500D02*
X240463858Y-72068309D01*
X240463858Y-72068309D02*
X240582906Y-72068309D01*
X241551144Y-63948309D02*
X241384478Y-64448309D01*
X241384478Y-64448309D02*
X241217811Y-63948309D01*
X241170193Y-64495928D02*
X240789240Y-64495928D01*
X240432098Y-63948309D02*
X240670193Y-63948309D01*
X240670193Y-63948309D02*
X240694002Y-64186404D01*
X240694002Y-64186404D02*
X240670193Y-64162595D01*
X240670193Y-64162595D02*
X240622574Y-64138785D01*
X240622574Y-64138785D02*
X240503526Y-64138785D01*
X240503526Y-64138785D02*
X240455907Y-64162595D01*
X240455907Y-64162595D02*
X240432098Y-64186404D01*
X240432098Y-64186404D02*
X240408288Y-64234023D01*
X240408288Y-64234023D02*
X240408288Y-64353071D01*
X240408288Y-64353071D02*
X240432098Y-64400690D01*
X240432098Y-64400690D02*
X240455907Y-64424500D01*
X240455907Y-64424500D02*
X240503526Y-64448309D01*
X240503526Y-64448309D02*
X240622574Y-64448309D01*
X240622574Y-64448309D02*
X240670193Y-64424500D01*
X240670193Y-64424500D02*
X240694002Y-64400690D01*
X240265431Y-63948309D02*
X240098765Y-64448309D01*
X240098765Y-64448309D02*
X239932098Y-63948309D01*
X174533880Y-66973811D02*
X174557690Y-67021430D01*
X174557690Y-67021430D02*
X174557690Y-67092859D01*
X174557690Y-67092859D02*
X174533880Y-67164287D01*
X174533880Y-67164287D02*
X174486261Y-67211906D01*
X174486261Y-67211906D02*
X174438642Y-67235716D01*
X174438642Y-67235716D02*
X174343404Y-67259525D01*
X174343404Y-67259525D02*
X174271976Y-67259525D01*
X174271976Y-67259525D02*
X174176738Y-67235716D01*
X174176738Y-67235716D02*
X174129119Y-67211906D01*
X174129119Y-67211906D02*
X174081500Y-67164287D01*
X174081500Y-67164287D02*
X174057690Y-67092859D01*
X174057690Y-67092859D02*
X174057690Y-67045240D01*
X174057690Y-67045240D02*
X174081500Y-66973811D01*
X174081500Y-66973811D02*
X174105309Y-66950002D01*
X174105309Y-66950002D02*
X174271976Y-66950002D01*
X174271976Y-66950002D02*
X174271976Y-67045240D01*
X174057690Y-66735716D02*
X174557690Y-66735716D01*
X174557690Y-66735716D02*
X174057690Y-66450002D01*
X174057690Y-66450002D02*
X174557690Y-66450002D01*
X174057690Y-66211906D02*
X174557690Y-66211906D01*
X174557690Y-66211906D02*
X174557690Y-66092858D01*
X174557690Y-66092858D02*
X174533880Y-66021430D01*
X174533880Y-66021430D02*
X174486261Y-65973811D01*
X174486261Y-65973811D02*
X174438642Y-65950001D01*
X174438642Y-65950001D02*
X174343404Y-65926192D01*
X174343404Y-65926192D02*
X174271976Y-65926192D01*
X174271976Y-65926192D02*
X174176738Y-65950001D01*
X174176738Y-65950001D02*
X174129119Y-65973811D01*
X174129119Y-65973811D02*
X174081500Y-66021430D01*
X174081500Y-66021430D02*
X174057690Y-66092858D01*
X174057690Y-66092858D02*
X174057690Y-66211906D01*
X241479716Y-66488309D02*
X241479716Y-66893071D01*
X241479716Y-66893071D02*
X241455906Y-66940690D01*
X241455906Y-66940690D02*
X241432097Y-66964500D01*
X241432097Y-66964500D02*
X241384478Y-66988309D01*
X241384478Y-66988309D02*
X241289240Y-66988309D01*
X241289240Y-66988309D02*
X241241621Y-66964500D01*
X241241621Y-66964500D02*
X241217811Y-66940690D01*
X241217811Y-66940690D02*
X241194002Y-66893071D01*
X241194002Y-66893071D02*
X241194002Y-66488309D01*
X240979715Y-66845452D02*
X240741620Y-66845452D01*
X241027334Y-66988309D02*
X240860668Y-66488309D01*
X240860668Y-66488309D02*
X240694001Y-66988309D01*
X240241621Y-66988309D02*
X240408287Y-66750214D01*
X240527335Y-66988309D02*
X240527335Y-66488309D01*
X240527335Y-66488309D02*
X240336859Y-66488309D01*
X240336859Y-66488309D02*
X240289240Y-66512119D01*
X240289240Y-66512119D02*
X240265430Y-66535928D01*
X240265430Y-66535928D02*
X240241621Y-66583547D01*
X240241621Y-66583547D02*
X240241621Y-66654976D01*
X240241621Y-66654976D02*
X240265430Y-66702595D01*
X240265430Y-66702595D02*
X240289240Y-66726404D01*
X240289240Y-66726404D02*
X240336859Y-66750214D01*
X240336859Y-66750214D02*
X240527335Y-66750214D01*
X240098763Y-66488309D02*
X239813049Y-66488309D01*
X239955906Y-66988309D02*
X239955906Y-66488309D01*
X239670192Y-66535928D02*
X239646383Y-66512119D01*
X239646383Y-66512119D02*
X239598764Y-66488309D01*
X239598764Y-66488309D02*
X239479716Y-66488309D01*
X239479716Y-66488309D02*
X239432097Y-66512119D01*
X239432097Y-66512119D02*
X239408288Y-66535928D01*
X239408288Y-66535928D02*
X239384478Y-66583547D01*
X239384478Y-66583547D02*
X239384478Y-66631166D01*
X239384478Y-66631166D02*
X239408288Y-66702595D01*
X239408288Y-66702595D02*
X239694002Y-66988309D01*
X239694002Y-66988309D02*
X239384478Y-66988309D01*
X239289241Y-67035928D02*
X238908288Y-67035928D01*
X238503527Y-66988309D02*
X238670193Y-66750214D01*
X238789241Y-66988309D02*
X238789241Y-66488309D01*
X238789241Y-66488309D02*
X238598765Y-66488309D01*
X238598765Y-66488309D02*
X238551146Y-66512119D01*
X238551146Y-66512119D02*
X238527336Y-66535928D01*
X238527336Y-66535928D02*
X238503527Y-66583547D01*
X238503527Y-66583547D02*
X238503527Y-66654976D01*
X238503527Y-66654976D02*
X238527336Y-66702595D01*
X238527336Y-66702595D02*
X238551146Y-66726404D01*
X238551146Y-66726404D02*
X238598765Y-66750214D01*
X238598765Y-66750214D02*
X238789241Y-66750214D01*
X238336860Y-66488309D02*
X238003527Y-66988309D01*
X238003527Y-66488309D02*
X238336860Y-66988309D01*
X241352716Y-69028309D02*
X241352716Y-69433071D01*
X241352716Y-69433071D02*
X241328906Y-69480690D01*
X241328906Y-69480690D02*
X241305097Y-69504500D01*
X241305097Y-69504500D02*
X241257478Y-69528309D01*
X241257478Y-69528309D02*
X241162240Y-69528309D01*
X241162240Y-69528309D02*
X241114621Y-69504500D01*
X241114621Y-69504500D02*
X241090811Y-69480690D01*
X241090811Y-69480690D02*
X241067002Y-69433071D01*
X241067002Y-69433071D02*
X241067002Y-69028309D01*
X240852715Y-69385452D02*
X240614620Y-69385452D01*
X240900334Y-69528309D02*
X240733668Y-69028309D01*
X240733668Y-69028309D02*
X240567001Y-69528309D01*
X240114621Y-69528309D02*
X240281287Y-69290214D01*
X240400335Y-69528309D02*
X240400335Y-69028309D01*
X240400335Y-69028309D02*
X240209859Y-69028309D01*
X240209859Y-69028309D02*
X240162240Y-69052119D01*
X240162240Y-69052119D02*
X240138430Y-69075928D01*
X240138430Y-69075928D02*
X240114621Y-69123547D01*
X240114621Y-69123547D02*
X240114621Y-69194976D01*
X240114621Y-69194976D02*
X240138430Y-69242595D01*
X240138430Y-69242595D02*
X240162240Y-69266404D01*
X240162240Y-69266404D02*
X240209859Y-69290214D01*
X240209859Y-69290214D02*
X240400335Y-69290214D01*
X239971763Y-69028309D02*
X239686049Y-69028309D01*
X239828906Y-69528309D02*
X239828906Y-69028309D01*
X239543192Y-69075928D02*
X239519383Y-69052119D01*
X239519383Y-69052119D02*
X239471764Y-69028309D01*
X239471764Y-69028309D02*
X239352716Y-69028309D01*
X239352716Y-69028309D02*
X239305097Y-69052119D01*
X239305097Y-69052119D02*
X239281288Y-69075928D01*
X239281288Y-69075928D02*
X239257478Y-69123547D01*
X239257478Y-69123547D02*
X239257478Y-69171166D01*
X239257478Y-69171166D02*
X239281288Y-69242595D01*
X239281288Y-69242595D02*
X239567002Y-69528309D01*
X239567002Y-69528309D02*
X239257478Y-69528309D01*
X239162241Y-69575928D02*
X238781288Y-69575928D01*
X238733669Y-69028309D02*
X238447955Y-69028309D01*
X238590812Y-69528309D02*
X238590812Y-69028309D01*
X238328908Y-69028309D02*
X237995575Y-69528309D01*
X237995575Y-69028309D02*
X238328908Y-69528309D01*
X172398690Y-68196144D02*
X171898690Y-68029478D01*
X171898690Y-68029478D02*
X172398690Y-67862811D01*
X171898690Y-67696145D02*
X172398690Y-67696145D01*
X171898690Y-67458050D02*
X172398690Y-67458050D01*
X172398690Y-67458050D02*
X171898690Y-67172336D01*
X171898690Y-67172336D02*
X172398690Y-67172336D01*
X171851071Y-67053288D02*
X171851071Y-66672335D01*
X172398690Y-66315193D02*
X172398690Y-66553288D01*
X172398690Y-66553288D02*
X172160595Y-66577097D01*
X172160595Y-66577097D02*
X172184404Y-66553288D01*
X172184404Y-66553288D02*
X172208214Y-66505669D01*
X172208214Y-66505669D02*
X172208214Y-66386621D01*
X172208214Y-66386621D02*
X172184404Y-66339002D01*
X172184404Y-66339002D02*
X172160595Y-66315193D01*
X172160595Y-66315193D02*
X172112976Y-66291383D01*
X172112976Y-66291383D02*
X171993928Y-66291383D01*
X171993928Y-66291383D02*
X171946309Y-66315193D01*
X171946309Y-66315193D02*
X171922500Y-66339002D01*
X171922500Y-66339002D02*
X171898690Y-66386621D01*
X171898690Y-66386621D02*
X171898690Y-66505669D01*
X171898690Y-66505669D02*
X171922500Y-66553288D01*
X171922500Y-66553288D02*
X171946309Y-66577097D01*
X172398690Y-66148526D02*
X171898690Y-65981860D01*
X171898690Y-65981860D02*
X172398690Y-65815193D01*
D13*
%TO.C,Logo arem*%
G36*
X158283105Y-79420775D02*
G01*
X158747855Y-79429803D01*
X159269157Y-79445517D01*
X160963334Y-79505119D01*
X160960558Y-79936826D01*
X160957782Y-80368532D01*
X160302357Y-80813032D01*
X160143862Y-80919309D01*
X159875659Y-81093041D01*
X159678100Y-81212867D01*
X159585466Y-81257532D01*
X159560182Y-81216065D01*
X159534109Y-81046923D01*
X159524000Y-80791866D01*
X159524000Y-80326199D01*
X158465667Y-80326199D01*
X157407334Y-80326199D01*
X157407334Y-79907863D01*
X157412280Y-79763567D01*
X157442527Y-79545898D01*
X157491157Y-79437720D01*
X157498189Y-79434997D01*
X157631270Y-79423254D01*
X157901909Y-79418553D01*
X158283105Y-79420775D01*
G37*
G36*
X158989953Y-80956295D02*
G01*
X159114805Y-81034427D01*
X159341077Y-81190795D01*
X159639436Y-81404749D01*
X159980542Y-81655639D01*
X160867731Y-82315866D01*
X160852032Y-84178532D01*
X160836334Y-86041199D01*
X160637222Y-86069383D01*
X160484633Y-86076237D01*
X160235055Y-86046603D01*
X160196175Y-86036393D01*
X160127277Y-86005678D01*
X160080988Y-85942133D01*
X160052812Y-85818457D01*
X160038253Y-85607350D01*
X160032814Y-85281512D01*
X160032000Y-84813640D01*
X160032000Y-83631641D01*
X160391834Y-83439420D01*
X160751667Y-83247199D01*
X159079500Y-83224243D01*
X157407334Y-83201286D01*
X157407334Y-82740015D01*
X157407334Y-82278744D01*
X158438686Y-82254972D01*
X159470039Y-82231199D01*
X159159679Y-82019532D01*
X158966118Y-81878825D01*
X158835134Y-81729589D01*
X158797142Y-81546440D01*
X158822750Y-81263412D01*
X158837097Y-81171487D01*
X158896469Y-80985989D01*
X158981768Y-80952592D01*
X158989953Y-80956295D01*
G37*
G36*
X158254000Y-84681664D02*
G01*
X158254000Y-85989130D01*
X157909933Y-86015164D01*
X157565866Y-86041199D01*
X157997398Y-86362430D01*
X158210900Y-86518524D01*
X158440140Y-86669056D01*
X158583234Y-86726447D01*
X158666950Y-86699397D01*
X158718057Y-86596604D01*
X158739557Y-86549849D01*
X158878622Y-86379414D01*
X159084027Y-86209481D01*
X159393975Y-85998866D01*
X159077988Y-85998866D01*
X158762000Y-85998866D01*
X158762000Y-84766560D01*
X158762000Y-83534255D01*
X159164167Y-83560060D01*
X159566334Y-83585866D01*
X159549786Y-84792366D01*
X159548068Y-84920671D01*
X159544065Y-85357619D01*
X159547560Y-85657267D01*
X159561793Y-85845416D01*
X159590005Y-85947866D01*
X159635435Y-85990416D01*
X159701326Y-85998866D01*
X159900279Y-86037092D01*
X160190953Y-86166597D01*
X160466493Y-86349299D01*
X160656388Y-86544886D01*
X160672321Y-86570528D01*
X160725211Y-86691586D01*
X160759374Y-86860012D01*
X160777375Y-87106245D01*
X160781780Y-87460723D01*
X160775155Y-87953884D01*
X160751667Y-89145774D01*
X159864355Y-89144586D01*
X159100667Y-89143563D01*
X159016801Y-89143501D01*
X158525299Y-89145314D01*
X158107359Y-89150511D01*
X157786924Y-89158524D01*
X157587935Y-89168784D01*
X157534334Y-89180723D01*
X157542675Y-89184547D01*
X157670484Y-89242104D01*
X157923335Y-89355461D01*
X158276548Y-89513568D01*
X158705441Y-89705376D01*
X159185334Y-89919835D01*
X160751667Y-90619573D01*
X160776286Y-91169604D01*
X160800904Y-91719635D01*
X159209952Y-92411826D01*
X159107149Y-92456533D01*
X158863342Y-92562280D01*
X158624440Y-92665900D01*
X158193055Y-92852129D01*
X157838961Y-93004072D01*
X157588125Y-93110576D01*
X157466516Y-93160490D01*
X157387222Y-93175999D01*
X157343111Y-93124718D01*
X157330169Y-92971429D01*
X157339516Y-92682736D01*
X157365000Y-92148509D01*
X157893714Y-91931187D01*
X157896290Y-91930128D01*
X158161479Y-91814881D01*
X158350607Y-91720965D01*
X158422880Y-91668621D01*
X158421278Y-91662483D01*
X158338670Y-91585045D01*
X158169334Y-91473334D01*
X158048409Y-91393777D01*
X157959926Y-91285607D01*
X157932939Y-91163532D01*
X158762000Y-91163532D01*
X158762642Y-91230192D01*
X158785194Y-91410611D01*
X158863342Y-91482285D01*
X159028562Y-91455288D01*
X159312334Y-91339697D01*
X159651000Y-91189754D01*
X159294540Y-91007310D01*
X159182959Y-90952305D01*
X158972960Y-90860955D01*
X158850040Y-90824866D01*
X158830298Y-90833508D01*
X158781524Y-90951469D01*
X158762000Y-91163532D01*
X157932939Y-91163532D01*
X157922844Y-91117866D01*
X157915334Y-90835760D01*
X157915333Y-90828532D01*
X157909285Y-90553699D01*
X157874580Y-90393922D01*
X157786168Y-90296047D01*
X157619000Y-90206917D01*
X157322667Y-90065605D01*
X157322667Y-89135968D01*
X157322667Y-88206331D01*
X158131439Y-88182098D01*
X158940211Y-88157866D01*
X158647393Y-87949824D01*
X159363780Y-87949824D01*
X159382636Y-88109966D01*
X159438073Y-88189728D01*
X159541545Y-88230555D01*
X159659617Y-88260769D01*
X159864355Y-88288787D01*
X159976078Y-88230553D01*
X160022667Y-88058459D01*
X160032000Y-87744899D01*
X160013188Y-87397271D01*
X159941887Y-87155426D01*
X159805643Y-87039513D01*
X159592161Y-87029533D01*
X159586369Y-87030372D01*
X159483093Y-87061715D01*
X159422835Y-87143707D01*
X159390804Y-87315908D01*
X159372212Y-87617877D01*
X159370051Y-87667856D01*
X159363780Y-87949824D01*
X158647393Y-87949824D01*
X158152606Y-87598287D01*
X157365000Y-87038708D01*
X157369335Y-86031954D01*
X157371161Y-85725461D01*
X157376173Y-85182367D01*
X157382931Y-84646815D01*
X157390502Y-84199699D01*
X157407334Y-83374199D01*
X157830667Y-83374199D01*
X158254000Y-83374199D01*
X158254000Y-84681664D01*
G37*
G36*
X166862170Y-69510357D02*
G01*
X166856004Y-69624670D01*
X166855423Y-69626083D01*
X166799405Y-69728126D01*
X166664157Y-69961680D01*
X166457361Y-70313806D01*
X166186701Y-70771562D01*
X165859859Y-71322008D01*
X165484519Y-71952204D01*
X165068363Y-72649209D01*
X164619076Y-73400083D01*
X164144339Y-74191885D01*
X163873436Y-74643607D01*
X163346116Y-75525504D01*
X162899550Y-76276796D01*
X162528432Y-76906911D01*
X162227454Y-77425277D01*
X161991309Y-77841322D01*
X161814690Y-78164474D01*
X161692291Y-78404161D01*
X161618805Y-78569810D01*
X161588924Y-78670850D01*
X161597341Y-78716709D01*
X161617302Y-78723125D01*
X161691908Y-78694350D01*
X161819066Y-78601922D01*
X162007748Y-78437226D01*
X162266922Y-78191644D01*
X162605561Y-77856559D01*
X163032633Y-77423353D01*
X163557111Y-76883409D01*
X164187964Y-76228110D01*
X164482020Y-75922549D01*
X164992359Y-75396327D01*
X165460699Y-74918558D01*
X165874602Y-74501629D01*
X166221628Y-74157923D01*
X166489340Y-73899826D01*
X166665298Y-73739723D01*
X166737064Y-73690000D01*
X166752001Y-73701210D01*
X166773805Y-73791549D01*
X166709472Y-73901682D01*
X166534429Y-74211805D01*
X166311044Y-74617267D01*
X166049216Y-75099268D01*
X165758848Y-75639011D01*
X165449840Y-76217696D01*
X165132093Y-76816524D01*
X164815509Y-77416697D01*
X164509987Y-77999416D01*
X164225430Y-78545883D01*
X163971738Y-79037298D01*
X163758812Y-79454863D01*
X163596553Y-79779780D01*
X163494862Y-79993248D01*
X163463640Y-80076471D01*
X163501211Y-80067699D01*
X163651412Y-79970256D01*
X163898282Y-79784554D01*
X164223710Y-79524817D01*
X164609582Y-79205270D01*
X165037788Y-78840139D01*
X165477206Y-78461852D01*
X165928280Y-78078716D01*
X166272984Y-77793794D01*
X166522179Y-77598651D01*
X166686728Y-77484853D01*
X166777493Y-77443965D01*
X166805334Y-77467552D01*
X166804900Y-77469577D01*
X166762402Y-77568342D01*
X166656987Y-77797740D01*
X166497984Y-78137906D01*
X166294718Y-78568972D01*
X166056519Y-79071074D01*
X165792712Y-79624345D01*
X164780089Y-81743002D01*
X165067739Y-82325767D01*
X165308060Y-82857887D01*
X165677503Y-83968839D01*
X165889578Y-85109196D01*
X165944058Y-86261155D01*
X165840720Y-87406911D01*
X165579339Y-88528661D01*
X165159689Y-89608601D01*
X165072532Y-89788321D01*
X164870880Y-90179883D01*
X164673260Y-90536214D01*
X164512181Y-90797621D01*
X164396157Y-90957872D01*
X164067720Y-91355699D01*
X163665165Y-91792395D01*
X163230456Y-92225346D01*
X162805556Y-92611940D01*
X162432429Y-92909562D01*
X162227044Y-93049082D01*
X161625138Y-93399527D01*
X160945324Y-93730646D01*
X160251776Y-94012745D01*
X159608667Y-94216129D01*
X159593688Y-94219971D01*
X158972046Y-94340614D01*
X158260551Y-94417838D01*
X157738148Y-94439839D01*
X157521775Y-94448951D01*
X156818289Y-94431266D01*
X156212665Y-94362092D01*
X155568329Y-94246876D01*
X152124746Y-98335538D01*
X151989132Y-98496473D01*
X151391213Y-99203995D01*
X150826246Y-99869293D01*
X150303698Y-100481417D01*
X149833041Y-101029414D01*
X149423741Y-101502332D01*
X149085270Y-101889222D01*
X148827095Y-102179131D01*
X148658686Y-102361107D01*
X148589511Y-102424199D01*
X148554536Y-102379101D01*
X148620400Y-102233699D01*
X148651720Y-102182655D01*
X148766556Y-101991136D01*
X148953973Y-101676391D01*
X149205727Y-101252331D01*
X149513576Y-100732867D01*
X149869280Y-100131911D01*
X150264594Y-99463373D01*
X150691278Y-98741165D01*
X151141089Y-97979199D01*
X151427705Y-97493605D01*
X151863118Y-96756373D01*
X152269841Y-96068270D01*
X152639687Y-95443114D01*
X152964468Y-94894727D01*
X153235998Y-94436928D01*
X153446090Y-94083539D01*
X153586558Y-93848378D01*
X153649213Y-93745267D01*
X153703584Y-93639994D01*
X153675877Y-93544436D01*
X153518069Y-93436951D01*
X153276950Y-93298568D01*
X150918308Y-95993212D01*
X150640432Y-96310209D01*
X150154482Y-96862254D01*
X149708675Y-97365764D01*
X149314852Y-97807541D01*
X148984850Y-98174388D01*
X148730509Y-98453105D01*
X148563669Y-98630495D01*
X148496167Y-98693361D01*
X148493381Y-98693545D01*
X148432667Y-98639315D01*
X148445406Y-98607301D01*
X148524466Y-98442253D01*
X148668913Y-98151801D01*
X148870738Y-97751722D01*
X149121933Y-97257794D01*
X149414489Y-96685797D01*
X149740400Y-96051507D01*
X150091656Y-95370704D01*
X150421494Y-94729672D01*
X150813129Y-93958421D01*
X151134160Y-93312975D01*
X151382418Y-92797864D01*
X151555731Y-92417618D01*
X151651929Y-92176766D01*
X151668840Y-92079839D01*
X151602384Y-92091555D01*
X151414377Y-92209002D01*
X151114348Y-92436166D01*
X150707830Y-92768817D01*
X150200351Y-93202726D01*
X150052734Y-93330959D01*
X149646074Y-93684110D01*
X149282883Y-93999356D01*
X148984247Y-94258404D01*
X148771251Y-94442961D01*
X148664981Y-94534734D01*
X148559711Y-94603327D01*
X148464664Y-94610418D01*
X148464412Y-94610127D01*
X148486872Y-94520449D01*
X148573872Y-94298971D01*
X148716507Y-93966004D01*
X148905874Y-93541865D01*
X149133066Y-93046868D01*
X149389179Y-92501326D01*
X150365326Y-90443866D01*
X149995742Y-89681866D01*
X149992263Y-89674688D01*
X149722103Y-89080326D01*
X149522310Y-88540778D01*
X149383684Y-88011568D01*
X149297029Y-87448220D01*
X149253145Y-86806256D01*
X149246985Y-86349153D01*
X149548635Y-86349153D01*
X149574330Y-86940299D01*
X149630245Y-87438177D01*
X149768765Y-88066451D01*
X150082264Y-88987983D01*
X150511400Y-89897903D01*
X151033082Y-90749232D01*
X151624219Y-91494986D01*
X151693292Y-91569701D01*
X152531139Y-92344341D01*
X153458856Y-92983624D01*
X154459928Y-93483139D01*
X155517843Y-93838473D01*
X156616088Y-94045214D01*
X157738148Y-94098949D01*
X158867511Y-93995266D01*
X159987664Y-93729752D01*
X160478594Y-93558172D01*
X161493799Y-93080618D01*
X162414650Y-92476800D01*
X163233722Y-91760915D01*
X163943591Y-90947161D01*
X164536832Y-90049735D01*
X165006020Y-89082835D01*
X165343729Y-88060658D01*
X165542535Y-86997403D01*
X165595013Y-85907266D01*
X165493739Y-84804446D01*
X165231286Y-83703140D01*
X165152716Y-83465644D01*
X164690394Y-82379597D01*
X164093671Y-81393640D01*
X163369100Y-80514844D01*
X162523235Y-79750278D01*
X161562630Y-79107013D01*
X160493837Y-78592120D01*
X159980932Y-78408235D01*
X158900364Y-78149104D01*
X157798905Y-78046055D01*
X156695339Y-78095013D01*
X155608454Y-78291904D01*
X154557034Y-78632652D01*
X153559866Y-79113182D01*
X152635735Y-79729420D01*
X151803427Y-80477289D01*
X151705343Y-80580948D01*
X150967285Y-81485205D01*
X150383802Y-82452564D01*
X149947915Y-83496498D01*
X149652647Y-84630480D01*
X149647761Y-84656553D01*
X149585862Y-85143234D01*
X149552650Y-85728783D01*
X149548635Y-86349153D01*
X149246985Y-86349153D01*
X149242835Y-86041199D01*
X149243395Y-85940835D01*
X149260108Y-85229851D01*
X149304935Y-84637709D01*
X149386767Y-84120437D01*
X149514500Y-83634062D01*
X149697026Y-83134611D01*
X149943238Y-82578111D01*
X149999420Y-82459970D01*
X150460996Y-81615905D01*
X150994051Y-80867465D01*
X151643566Y-80150431D01*
X152292979Y-79562459D01*
X153265315Y-78875587D01*
X154322456Y-78334943D01*
X155460000Y-77943072D01*
X155747083Y-77871755D01*
X156075910Y-77810811D01*
X156430334Y-77772856D01*
X156858195Y-77753064D01*
X157407334Y-77746608D01*
X157527141Y-77746640D01*
X158006439Y-77752290D01*
X158452223Y-77765517D01*
X158819226Y-77784642D01*
X159062182Y-77807985D01*
X159489363Y-77872103D01*
X163117103Y-73680485D01*
X163364862Y-73394434D01*
X163978316Y-72688096D01*
X164556506Y-72025060D01*
X165090026Y-71415951D01*
X165569474Y-70871396D01*
X165985445Y-70402023D01*
X166328534Y-70018456D01*
X166589339Y-69731324D01*
X166758456Y-69551251D01*
X166826480Y-69488866D01*
X166862170Y-69510357D01*
G37*
G36*
X154047010Y-81805619D02*
G01*
X154105334Y-82016180D01*
X154142846Y-82212863D01*
X154281140Y-82311487D01*
X154539183Y-82300337D01*
X154643243Y-82290894D01*
X154834410Y-82353741D01*
X154913225Y-82508474D01*
X154851621Y-82717609D01*
X154850174Y-82719912D01*
X154762685Y-82953885D01*
X154808256Y-83132122D01*
X154978373Y-83220826D01*
X155117248Y-83285312D01*
X155190173Y-83477079D01*
X155194977Y-83532564D01*
X155159855Y-83684952D01*
X155005799Y-83759887D01*
X154815128Y-83854770D01*
X154735998Y-84031700D01*
X154814378Y-84258870D01*
X154835805Y-84295461D01*
X154877337Y-84498029D01*
X154805389Y-84661604D01*
X154641093Y-84728866D01*
X154629595Y-84728962D01*
X154553790Y-84755575D01*
X154613334Y-84855866D01*
X154712220Y-84944995D01*
X154882243Y-84963534D01*
X155047507Y-84813952D01*
X155165073Y-84703559D01*
X155337274Y-84682613D01*
X155484410Y-84791502D01*
X155561114Y-85012673D01*
X155565030Y-85050638D01*
X155601911Y-85204381D01*
X155700983Y-85267186D01*
X155915650Y-85279199D01*
X156126211Y-85300650D01*
X156318993Y-85393932D01*
X156375632Y-85542930D01*
X156279900Y-85727665D01*
X156279551Y-85728052D01*
X156179951Y-85926256D01*
X156238768Y-86096005D01*
X156445132Y-86205845D01*
X156495480Y-86220217D01*
X156617044Y-86308169D01*
X156629506Y-86488652D01*
X156574691Y-86658230D01*
X156419659Y-86744650D01*
X156413977Y-86745495D01*
X156231526Y-86836950D01*
X156180044Y-87014221D01*
X156269056Y-87245622D01*
X156340632Y-87365794D01*
X156354072Y-87482954D01*
X156260320Y-87611968D01*
X156251419Y-87621678D01*
X156107953Y-87721175D01*
X155950728Y-87682955D01*
X155770081Y-87626929D01*
X155608992Y-87695826D01*
X155529607Y-87910899D01*
X155481295Y-88064144D01*
X155309217Y-88210472D01*
X155250618Y-88229346D01*
X155118118Y-88217772D01*
X155020460Y-88071439D01*
X154892675Y-87898374D01*
X154801123Y-87888261D01*
X154748780Y-87882479D01*
X154613334Y-88030866D01*
X154577394Y-88083737D01*
X154420637Y-88184084D01*
X154250090Y-88181793D01*
X154135122Y-88071038D01*
X154087504Y-88005459D01*
X154077084Y-87991109D01*
X153968446Y-88039072D01*
X153940115Y-88064770D01*
X153849859Y-88245310D01*
X153908825Y-88422145D01*
X154105334Y-88551553D01*
X154106288Y-88551886D01*
X154301216Y-88664804D01*
X154359334Y-88835199D01*
X154359333Y-88835932D01*
X154300792Y-89006067D01*
X154105334Y-89118846D01*
X153916001Y-89228038D01*
X153858933Y-89400452D01*
X153955512Y-89639313D01*
X153966054Y-89656560D01*
X154012694Y-89806092D01*
X153923056Y-89942762D01*
X153915081Y-89950636D01*
X153774083Y-90033262D01*
X153605462Y-89982549D01*
X153442497Y-89925763D01*
X153375835Y-89952359D01*
X153305503Y-89980420D01*
X153258667Y-90177929D01*
X153233828Y-90324045D01*
X153124148Y-90488257D01*
X152968958Y-90568523D01*
X152814830Y-90545922D01*
X152708334Y-90401532D01*
X152612295Y-90260669D01*
X152464648Y-90254543D01*
X152419657Y-90295065D01*
X152305646Y-90397750D01*
X152192218Y-90503881D01*
X152019606Y-90529502D01*
X151878038Y-90428439D01*
X151819334Y-90219667D01*
X151771944Y-90007432D01*
X151630153Y-89914239D01*
X151413273Y-89968955D01*
X151392488Y-89979599D01*
X151243126Y-90003189D01*
X151097202Y-89890808D01*
X151021064Y-89799943D01*
X150994840Y-89695451D01*
X151086545Y-89569366D01*
X151093186Y-89561952D01*
X151214483Y-89351257D01*
X151171893Y-89181552D01*
X150966484Y-89057397D01*
X150891178Y-89028437D01*
X150752912Y-88927071D01*
X150743907Y-88855482D01*
X151756213Y-88855482D01*
X151841142Y-89162366D01*
X152086093Y-89418807D01*
X152123876Y-89443404D01*
X152419657Y-89536428D01*
X152723305Y-89495317D01*
X152992542Y-89342640D01*
X153185089Y-89100966D01*
X153258667Y-88792866D01*
X153211690Y-88560385D01*
X153011180Y-88278353D01*
X152972090Y-88241173D01*
X152671064Y-88061761D01*
X152364669Y-88040383D01*
X152084598Y-88172232D01*
X151862544Y-88452505D01*
X151834292Y-88511067D01*
X151756213Y-88855482D01*
X150743907Y-88855482D01*
X150733650Y-88773948D01*
X150782321Y-88647782D01*
X150956678Y-88553465D01*
X151144290Y-88474219D01*
X151202821Y-88310001D01*
X151113539Y-88082488D01*
X151070250Y-88012238D01*
X151027347Y-87866671D01*
X151094955Y-87726659D01*
X151132535Y-87679454D01*
X151246603Y-87616567D01*
X151418673Y-87667836D01*
X151626680Y-87711074D01*
X151769319Y-87615654D01*
X151791312Y-87512872D01*
X153258667Y-87512872D01*
X153261828Y-87537707D01*
X153343334Y-87649866D01*
X153375835Y-87663429D01*
X153428000Y-87617526D01*
X153424840Y-87592692D01*
X153389651Y-87544268D01*
X153875575Y-87544268D01*
X153876750Y-87585173D01*
X153981027Y-87729548D01*
X154016357Y-87774856D01*
X154087504Y-87835571D01*
X154105334Y-87759773D01*
X154091001Y-87692564D01*
X153978334Y-87576915D01*
X153976964Y-87576389D01*
X153888670Y-87548417D01*
X153875575Y-87544268D01*
X153389651Y-87544268D01*
X153343334Y-87480532D01*
X153310833Y-87466969D01*
X153258667Y-87512872D01*
X151791312Y-87512872D01*
X151819334Y-87381911D01*
X151851325Y-87250942D01*
X151982025Y-87103087D01*
X152059953Y-87071186D01*
X152180214Y-87096184D01*
X152321065Y-87248275D01*
X152497413Y-87480532D01*
X152687540Y-87256875D01*
X152763457Y-87174026D01*
X152908724Y-87082925D01*
X153068167Y-87105980D01*
X153188734Y-87175568D01*
X153258667Y-87282320D01*
X153261965Y-87303378D01*
X153312626Y-87295789D01*
X153395722Y-87202411D01*
X153473942Y-87072057D01*
X153509974Y-86953540D01*
X153509078Y-86943174D01*
X153427484Y-86833463D01*
X153253419Y-86715819D01*
X153086119Y-86584756D01*
X153016112Y-86422199D01*
X154026350Y-86422199D01*
X154102372Y-86745844D01*
X154279894Y-86980773D01*
X154524315Y-87124121D01*
X154801123Y-87175318D01*
X155075806Y-87133796D01*
X155313850Y-86998985D01*
X155480744Y-86770314D01*
X155541974Y-86447214D01*
X155540917Y-86407889D01*
X155505440Y-86162824D01*
X155436141Y-85991529D01*
X155315986Y-85865539D01*
X155026483Y-85711000D01*
X154710944Y-85686817D01*
X154415500Y-85791766D01*
X154186279Y-86024627D01*
X154165949Y-86059002D01*
X154123096Y-86148124D01*
X154064845Y-86269269D01*
X154026350Y-86422199D01*
X153016112Y-86422199D01*
X153012823Y-86414563D01*
X153064704Y-86265420D01*
X153242678Y-86182799D01*
X153425549Y-86109015D01*
X153486739Y-85951997D01*
X153397245Y-85735703D01*
X153360366Y-85671205D01*
X153328270Y-85469351D01*
X153401607Y-85304849D01*
X153409900Y-85301311D01*
X153775177Y-85301311D01*
X153888670Y-85321532D01*
X153940644Y-85315276D01*
X154058121Y-85244762D01*
X154050704Y-85206727D01*
X153936117Y-85212303D01*
X153816198Y-85253284D01*
X153775177Y-85301311D01*
X153409900Y-85301311D01*
X153560958Y-85236866D01*
X153577541Y-85236501D01*
X153644633Y-85197970D01*
X153597334Y-85067532D01*
X153479564Y-84930443D01*
X153329874Y-84923026D01*
X153321568Y-84922614D01*
X153159426Y-85078771D01*
X153034319Y-85196452D01*
X152863321Y-85215964D01*
X152723737Y-85110134D01*
X152666000Y-84897490D01*
X152641790Y-84735267D01*
X154105334Y-84735267D01*
X154123096Y-84765545D01*
X154232334Y-84759484D01*
X154292022Y-84727964D01*
X154359334Y-84637798D01*
X154341571Y-84607520D01*
X154232334Y-84613581D01*
X154172646Y-84645101D01*
X154105334Y-84735267D01*
X152641790Y-84735267D01*
X152633010Y-84676433D01*
X152518024Y-84593005D01*
X152300457Y-84638322D01*
X152278886Y-84646253D01*
X152095439Y-84667190D01*
X151941564Y-84554261D01*
X151868039Y-84466702D01*
X151841096Y-84362067D01*
X151933212Y-84235366D01*
X151939852Y-84227952D01*
X152061150Y-84017257D01*
X152018560Y-83847552D01*
X151813150Y-83723397D01*
X151737845Y-83694437D01*
X151599578Y-83593071D01*
X151585585Y-83481828D01*
X152594598Y-83481828D01*
X152630759Y-83599598D01*
X152729632Y-83796625D01*
X152812035Y-83930160D01*
X153050444Y-84136189D01*
X153329874Y-84215673D01*
X153612702Y-84177955D01*
X153861304Y-84032378D01*
X154038056Y-83788285D01*
X154105334Y-83455017D01*
X154075191Y-83221484D01*
X153932430Y-82943856D01*
X153705637Y-82763448D01*
X153431962Y-82687891D01*
X153148557Y-82724815D01*
X152892574Y-82881851D01*
X152701166Y-83166628D01*
X152696564Y-83177618D01*
X152617687Y-83366705D01*
X152594598Y-83481828D01*
X151585585Y-83481828D01*
X151580317Y-83439948D01*
X151628987Y-83313782D01*
X151803344Y-83219465D01*
X151990957Y-83140219D01*
X152049488Y-82976001D01*
X151960206Y-82748488D01*
X151895781Y-82616354D01*
X151905310Y-82430755D01*
X152054710Y-82316087D01*
X152328424Y-82291654D01*
X152332491Y-82291986D01*
X152529988Y-82293838D01*
X152616995Y-82227052D01*
X152649554Y-82049340D01*
X152698183Y-81874644D01*
X152831654Y-81735429D01*
X153001769Y-81721569D01*
X153163161Y-81850618D01*
X153291993Y-81983491D01*
X153451828Y-81995884D01*
X153611908Y-81838961D01*
X153734668Y-81722956D01*
X153906315Y-81701722D01*
X154047010Y-81805619D01*
G37*
%TD*%
M02*
